<svg id="Layer_1" data-name="Layer 1" xmlns="http://www.w3.org/2000/svg" viewBox="0 0 335.03 227.05"><defs><style>.cls-1,.cls-2,.cls-3,.cls-4,.cls-5,.cls-6,.cls-7{fill:none;}.cls-1,.cls-6,.cls-7{stroke:#000;}.cls-1,.cls-2,.cls-4,.cls-6{stroke-miterlimit:10;}.cls-1{stroke-width:0.8px;}.cls-2,.cls-3{stroke:#ec6d5f;}.cls-2,.cls-4,.cls-6{stroke-width:0.8px;}.cls-3,.cls-5,.cls-7{stroke-linecap:round;stroke-linejoin:round;}.cls-3,.cls-5{stroke-width:0.64px;}.cls-4,.cls-5{stroke:#2caaca;}.cls-7{stroke-width:0.64px;}</style></defs><title>Functions.09</title><circle cx="28.41" cy="89.44" r="1.41"/><path d="M38.54,98c0-.33,0-.34-.29-.34a3.22,3.22,0,0,1-2.54.92V99a4.12,4.12,0,0,0,1.83-.37v7.48c0,.52,0,.69-1.3.69h-.45v.42c.39,0,1.78,0,2.26,0s1.85,0,2.24,0v-.42h-.45c-1.26,0-1.3-.17-1.3-.69V98" transform="translate(-18.19 -13.13)"/><circle cx="28.41" cy="123.45" r="1.41"/><path d="M40.72,138.79H40.4a5.14,5.14,0,0,1-.3,1.26,3.72,3.72,0,0,1-1.35.13H36.09c.39-.33,1.27-1.25,1.64-1.59,2.19-2,3-2.76,3-4.18a2.78,2.78,0,0,0-3-2.76,2.66,2.66,0,0,0-2.65,2.65.68.68,0,1,0,1.36.06.64.64,0,0,0-.68-.67h-.2a2,2,0,0,1,4,.71,5,5,0,0,1-1.52,3.2l-2.91,3.24v.35h5.25l.37-2.41" transform="translate(-18.19 -13.13)"/><circle cx="28.41" cy="157.47" r="1.41"/><path d="M37,170c-.24,0-.3,0-.3.16s.07.14.33.14h.66c1.23,0,1.77,1,1.77,2.39,0,1.88-1,2.38-1.68,2.38a2.57,2.57,0,0,1-2.29-1.27.71.71,0,0,0,.88-.71.67.67,0,0,0-.7-.7.68.68,0,0,0-.72.75,2.64,2.64,0,0,0,2.87,2.32,2.88,2.88,0,0,0,3-2.76,2.77,2.77,0,0,0-2.45-2.6,2.7,2.7,0,0,0,2.06-2.52c0-1.14-1.18-2-2.57-2s-2.5.87-2.5,1.92a.63.63,0,0,0,.66.69.65.65,0,0,0,0-1.3h-.15a2.34,2.34,0,0,1,2-1c.48,0,1.41.22,1.41,1.63a3.21,3.21,0,0,1-.46,1.69,1.45,1.45,0,0,1-1.31.69L37,170" transform="translate(-18.19 -13.13)"/><path d="M22.89,66.15c.13-.5.15-.64,1.2-.64.32,0,.43,0,.43-.28s-.15-.14-.2-.14l-.83,0H21.72l-.9,0c-.12,0-.28,0-.28.27s.12.15.41.15c.89,0,.89.11.89.27a1.39,1.39,0,0,1-.06.31l-1.94,7.75c-.13.5-.16.64-1.21.64-.31,0-.44,0-.44.28s.14.14.21.14l.84,0H21l.88,0c.12,0,.29,0,.29-.26s-.08-.16-.4-.16c-.89,0-.89-.11-.89-.28a1.27,1.27,0,0,1,.06-.33l1.94-7.72" transform="translate(-18.19 -13.13)"/><path d="M28,70.69a4.06,4.06,0,0,1,.92-1.26,2.05,2.05,0,0,1,1.42-.58c.58,0,.78.43.78,1a12.92,12.92,0,0,1-.88,3.23,2.08,2.08,0,0,0-.2.79A1.1,1.1,0,0,0,31.13,75C32.47,75,33,72.93,33,72.85a.12.12,0,0,0-.14-.13c-.13,0-.14,0-.22.28-.33,1.18-.87,1.76-1.43,1.76-.15,0-.38,0-.38-.48a2.75,2.75,0,0,1,.25-1,13,13,0,0,0,.89-3.22,1.42,1.42,0,0,0-1.6-1.51,2.71,2.71,0,0,0-2.21,1.27,1.25,1.25,0,0,0-1.26-1.27,1.13,1.13,0,0,0-1,.77,6.6,6.6,0,0,0-.46,1.43.14.14,0,0,0,.15.13c.12,0,.13,0,.22-.34.23-.88.49-1.7,1.06-1.7.33,0,.45.23.45.66A7,7,0,0,1,27,70.83l-.4,1.56c-.05.27-.21.91-.28,1.17s-.26,1-.26,1.12a.35.35,0,0,0,.37.36.55.55,0,0,0,.49-.3c0-.07.16-.57.23-.86l.32-1.29.47-1.9" transform="translate(-18.19 -13.13)"/><path d="M36.4,70.42a2.41,2.41,0,0,1,.74-1,1.91,1.91,0,0,1,1.17-.55c.63,0,.92.63.92,1.38a10,10,0,0,1-.76,3.06c-.36.78-1,1.47-1.68,1.47-1,0-1.13-1.24-1.13-1.3a1.24,1.24,0,0,1,0-.23l.7-2.81m-2.48,6.31c-.1.43-.16.54-.75.54-.17,0-.32,0-.32.27a.16.16,0,0,0,.18.15l.57,0h.62l1.33,0c.09,0,.26,0,.26-.26s-.1-.16-.34-.16c-.66,0-.7-.1-.7-.22s.64-2.64.73-3a1.39,1.39,0,0,0,1.29,1c1.62,0,3.38-2.11,3.38-4.22,0-1.32-.75-2.26-1.83-2.26a2.77,2.77,0,0,0-1.85,1.1,1.25,1.25,0,0,0-1.25-1.1,1.11,1.11,0,0,0-1,.75,6.83,6.83,0,0,0-.46,1.45.15.15,0,0,0,.16.13c.11,0,.13,0,.21-.34.22-.85.49-1.7,1.07-1.7.33,0,.44.23.44.66a2.67,2.67,0,0,1-.1.75Z" transform="translate(-18.19 -13.13)"/><path d="M45.3,74.07a1.22,1.22,0,0,0,1.22,1,1.16,1.16,0,0,0,1-.79,6.59,6.59,0,0,0,.43-1.4.12.12,0,0,0-.14-.13c-.13,0-.14.07-.2.28-.26,1-.52,1.76-1.09,1.76s-.43-.48-.43-.66A4.12,4.12,0,0,1,46.3,73c.1-.39.21-.78.29-1.18l.59-2.34a1.78,1.78,0,0,0,.1-.43.36.36,0,0,0-.39-.36c-.41,0-.51.36-.6.72-.14.56-.92,3.65-1,4.15,0,0-.58,1.18-1.62,1.18-.75,0-.89-.65-.89-1.18a9.52,9.52,0,0,1,.77-2.93,2.38,2.38,0,0,0,.25-.94,1.12,1.12,0,0,0-1.14-1.15c-1.32,0-1.85,2.09-1.85,2.2a.14.14,0,0,0,.15.13c.13,0,.15-.06.21-.26.34-1.23.9-1.78,1.45-1.78.14,0,.37,0,.37.48a4,4,0,0,1-.37,1.33,7.91,7.91,0,0,0-.71,2.69A1.56,1.56,0,0,0,43.59,75a2.2,2.2,0,0,0,1.71-1" transform="translate(-18.19 -13.13)"/><path d="M51.29,69.12h1.32c.27,0,.41,0,.41-.25s-.08-.16-.37-.16H51.39l.53-2.1a.87.87,0,0,0,.06-.33.36.36,0,0,0-.38-.36.58.58,0,0,0-.56.51l-.56,2.28H49.13c-.29,0-.41,0-.41.27s.1.14.37.14h1.28l-.95,3.8a3.7,3.7,0,0,0-.16.83A1.25,1.25,0,0,0,50.54,75C52,75,52.77,73,52.77,72.85s-.06-.13-.15-.13a.11.11,0,0,0-.11,0s0,0-.13.26c-.3.72-1,1.73-1.8,1.73-.43,0-.46-.36-.46-.68a2.05,2.05,0,0,1,.05-.46l1.12-4.5" transform="translate(-18.19 -13.13)"/><path d="M61.27,78.39s0-.07-.25-.31c-1.43-1.46-2.24-3.83-2.24-6.76a9.51,9.51,0,0,1,2.34-6.88c.15-.13.15-.16.15-.2a.12.12,0,0,0-.13-.12,6,6,0,0,0-2.07,2.45A10.26,10.26,0,0,0,58,71.32a10.57,10.57,0,0,0,1,4.53,6.1,6.1,0,0,0,2.18,2.66.12.12,0,0,0,.13-.12" transform="translate(-18.19 -13.13)"/><path d="M68.91,69a.71.71,0,0,0-.63.7.44.44,0,0,0,.47.46.75.75,0,0,0,.73-.76c0-.6-.69-.88-1.29-.88A1.83,1.83,0,0,0,66.7,69.7a1.49,1.49,0,0,0-1.48-1.14c-1.47,0-2.24,1.89-2.24,2.2a.14.14,0,0,0,.15.13c.12,0,.15-.08.18-.14.48-1.6,1.45-1.9,1.86-1.9.65,0,.78.61.78,1a6.16,6.16,0,0,1-.26,1.34l-.49,2c-.21.87-.63,1.66-1.39,1.66a1.42,1.42,0,0,1-.73-.19.75.75,0,0,0,.63-.7.45.45,0,0,0-.49-.46.75.75,0,0,0-.72.76c0,.6.68.87,1.29.87a1.77,1.77,0,0,0,1.48-1.13A1.51,1.51,0,0,0,66.76,75C68.22,75,69,73.16,69,72.85a.12.12,0,0,0-.14-.13c-.13,0-.14.07-.18.18-.39,1.27-1.23,1.86-1.87,1.86s-.78-.38-.78-1a6.63,6.63,0,0,1,.29-1.49l.5-2c.22-.87.71-1.5,1.37-1.5a1.51,1.51,0,0,1,.73.19" transform="translate(-18.19 -13.13)"/><path d="M74.15,71.32a10.62,10.62,0,0,0-1-4.54A6.17,6.17,0,0,0,71,64.12a.12.12,0,0,0-.13.12s0,.07.24.32c1.44,1.45,2.25,3.82,2.25,6.75S72.7,76.5,71,78.19c-.14.13-.14.16-.14.2a.12.12,0,0,0,.13.12,6.08,6.08,0,0,0,2.07-2.45,10.34,10.34,0,0,0,1.06-4.74" transform="translate(-18.19 -13.13)"/><path d="M149.58,110.62c1.78-.39,3.18-1.54,3.18-2.78s-1.14-2.15-3.13-2.15h-3.9c-.29,0-.41,0-.41.27s.1.14.37.14c.86,0,.86.12.86.28a1.21,1.21,0,0,1-.06.33l-1.94,7.73c-.12.5-.15.64-1.14.64-.34,0-.44,0-.44.28s.16.14.21.14l.83,0h1.69l.82,0c.12,0,.28,0,.28-.27s-.13-.15-.35-.15c-.88,0-.88-.11-.88-.25a.9.9,0,0,1,0-.23l1-3.87h1.72c1.36,0,1.62.86,1.62,1.34a7.19,7.19,0,0,1-.24,1.15,4.29,4.29,0,0,0-.2,1.09c0,1,.83,1.49,1.79,1.49,1.17,0,1.67-1.42,1.67-1.62a.14.14,0,0,0-.16-.15c-.11,0-.14.09-.17.21-.34,1-.93,1.27-1.29,1.27s-.59-.15-.59-.8c0-.34.17-1.65.18-1.72a4.11,4.11,0,0,0,.08-.71,1.76,1.76,0,0,0-1.4-1.66m-2-4c.13-.54.18-.57.74-.57h1c1.23,0,2.15.38,2.15,1.5,0,.73-.37,2.84-3.26,2.84h-1.62Z" transform="translate(-18.19 -13.13)"/><path d="M155,111.88c.62-2.21,2-2.43,2.44-2.43a1,1,0,0,1,1.07.92c0,1.51-2.3,1.51-2.9,1.51H155m.69.29a6.54,6.54,0,0,0,2.05-.29,1.64,1.64,0,0,0,1.2-1.51c0-.63-.55-1.21-1.5-1.21a3.89,3.89,0,0,0-3.67,3.93,2.26,2.26,0,0,0,2.17,2.55,3.78,3.78,0,0,0,3.18-1.71.16.16,0,0,0-.14-.15s-.06,0-.19.14a3.68,3.68,0,0,1-2.83,1.44c-.82,0-1.25-.65-1.25-1.71a5.78,5.78,0,0,1,.22-1.48Z" transform="translate(-18.19 -13.13)"/><path d="M163.25,105.89a1.24,1.24,0,0,0,0-.22c0-.14-.14-.14-.17-.14l-.79.07c-.24,0-.46.05-.72.06s-.44,0-.44.3.14.14.28.14c.74,0,.74.13.74.28a1,1,0,0,1-.08.34l-1.78,7.13a1.72,1.72,0,0,0-.07.5,1.25,1.25,0,0,0,1.26,1.29,1.14,1.14,0,0,0,1-.76,6.31,6.31,0,0,0,.45-1.43.13.13,0,0,0-.14-.13c-.13,0-.15.07-.21.28-.25,1-.51,1.76-1.09,1.76s-.43-.46-.43-.66a3.28,3.28,0,0,1,.1-.77l2-8" transform="translate(-18.19 -13.13)"/><path d="M169.34,110.11a1.41,1.41,0,0,0-1.29-1c-1.62,0-3.38,2.1-3.38,4.23,0,1.42.84,2.25,1.81,2.25a2.67,2.67,0,0,0,1.87-1.09,1.24,1.24,0,0,0,1.25,1.09,1.18,1.18,0,0,0,1-.77,7.46,7.46,0,0,0,.43-1.42.13.13,0,0,0-.15-.13c-.13,0-.14.07-.2.28-.21.85-.49,1.76-1.08,1.76-.41,0-.44-.38-.44-.66a4,4,0,0,1,.17-1c.1-.36.17-.68.29-1.1.53-2.15.66-2.67.66-2.75a.36.36,0,0,0-.37-.36c-.46,0-.58.5-.61.67m-.92,3.68a1.27,1.27,0,0,1-.27.55,2.42,2.42,0,0,1-1.62,1c-.59,0-.92-.53-.92-1.38a10.07,10.07,0,0,1,.72-3c.49-1,1.16-1.53,1.72-1.53.95,0,1.14,1.18,1.14,1.3s-.05.2-.06.23Z" transform="translate(-18.19 -13.13)"/><path d="M174.39,109.73h1.32c.27,0,.41,0,.41-.26s-.08-.16-.37-.16h-1.26l.53-2.1a.87.87,0,0,0,.06-.33.36.36,0,0,0-.38-.36.58.58,0,0,0-.56.51l-.56,2.28h-1.35c-.29,0-.41,0-.41.27s.1.15.37.15h1.28l-.95,3.79a3.7,3.7,0,0,0-.16.83,1.25,1.25,0,0,0,1.28,1.29c1.45,0,2.23-2.09,2.23-2.19s-.06-.13-.15-.13a.11.11,0,0,0-.11.05s0,0-.13.26c-.3.72-1,1.73-1.8,1.73-.43,0-.46-.36-.46-.68a2.05,2.05,0,0,1,.05-.46l1.12-4.49" transform="translate(-18.19 -13.13)"/><path d="M180.55,106.54a.48.48,0,0,0-.49-.48.74.74,0,0,0-.7.69.47.47,0,0,0,.47.48.76.76,0,0,0,.72-.69m.12,6.91a.13.13,0,0,0-.15-.13c-.13,0-.14,0-.21.28-.38,1.31-1,1.76-1.44,1.76-.17,0-.37,0-.37-.48a3.87,3.87,0,0,1,.33-1.25l1-2.67a1.67,1.67,0,0,0,.15-.65,1.12,1.12,0,0,0-1.14-1.15c-1.32,0-1.85,2.09-1.85,2.2a.14.14,0,0,0,.15.13c.13,0,.15-.06.21-.26.34-1.2.89-1.78,1.45-1.78.13,0,.37,0,.37.48a4,4,0,0,1-.3,1.16l-1,2.67a2.17,2.17,0,0,0-.17.72,1.11,1.11,0,0,0,1.14,1.16C180.15,115.64,180.67,113.55,180.67,113.45Z" transform="translate(-18.19 -13.13)"/><path d="M184.2,115.36c-.72,0-1.25-.58-1.25-1.58a7.85,7.85,0,0,1,.75-2.85,2.53,2.53,0,0,1,2-1.48c.7,0,1.25.58,1.25,1.58a7.21,7.21,0,0,1-.85,3,2.47,2.47,0,0,1-1.94,1.34m3.75-3.81a2.21,2.21,0,0,0-2.2-2.39c-1.89,0-3.76,2.07-3.76,4.1a2.21,2.21,0,0,0,2.2,2.38A4.22,4.22,0,0,0,188,111.55Z" transform="translate(-18.19 -13.13)"/><path d="M191.06,111.29A4.18,4.18,0,0,1,192,110a2.05,2.05,0,0,1,1.42-.58c.57,0,.78.43.78,1a12.92,12.92,0,0,1-.88,3.23,2.08,2.08,0,0,0-.2.79,1.1,1.1,0,0,0,1.13,1.16c1.34,0,1.84-2.11,1.84-2.19a.12.12,0,0,0-.14-.13c-.13,0-.14,0-.22.28-.33,1.18-.87,1.76-1.43,1.76-.15,0-.38,0-.38-.48a2.75,2.75,0,0,1,.25-1,13,13,0,0,0,.89-3.22,1.42,1.42,0,0,0-1.6-1.51,2.71,2.71,0,0,0-2.21,1.27,1.25,1.25,0,0,0-1.26-1.27,1.13,1.13,0,0,0-1,.77,6.44,6.44,0,0,0-.46,1.43.14.14,0,0,0,.15.13c.12,0,.13,0,.22-.34.23-.88.49-1.7,1.06-1.7.34,0,.45.23.45.66a7,7,0,0,1-.25,1.32l-.4,1.56c-.05.27-.21.92-.28,1.17s-.26,1-.26,1.12a.35.35,0,0,0,.37.36.55.55,0,0,0,.49-.3c0-.07.16-.57.23-.86l.32-1.29.47-1.9" transform="translate(-18.19 -13.13)"/><path d="M199.77,112.63l.72.14a1.07,1.07,0,0,1,.84,1,1.83,1.83,0,0,1-2.07,1.61c-.3,0-1.38,0-1.67-.84a.72.72,0,0,0,.86-.69.44.44,0,0,0-.48-.46.79.79,0,0,0-.74.89c0,.85.86,1.38,2,1.38a2.56,2.56,0,0,0,2.83-2.35,1.37,1.37,0,0,0-.46-1.08,2.53,2.53,0,0,0-1.48-.57c-.38-.09-1-.22-1-.87a1.46,1.46,0,0,1,1.62-1.32,1.28,1.28,0,0,1,1.34.75.6.6,0,0,0-.66.56.39.39,0,0,0,.4.39c.2,0,.6-.16.6-.76s-.54-1.23-1.66-1.23a2.21,2.21,0,0,0-2.39,2.07c0,1.1,1.06,1.32,1.39,1.4" transform="translate(-18.19 -13.13)"/><path d="M207.14,105.89a1.24,1.24,0,0,0,0-.22c0-.14-.14-.14-.17-.14l-.79.07c-.25,0-.46.05-.72.06s-.46,0-.46.3.11.14.31.14c.71,0,.72.13.72.28a1.19,1.19,0,0,1,0,.24L204,114.94a1,1,0,0,0-.06.33.35.35,0,0,0,.39.37.58.58,0,0,0,.5-.34l.65-2.6c.07-.32.16-.62.23-.93a2.44,2.44,0,0,1,.43-1,2.49,2.49,0,0,1,2-1.28c.58,0,.78.43.78,1a12.79,12.79,0,0,1-.88,3.23,2.08,2.08,0,0,0-.2.79,1.11,1.11,0,0,0,1.14,1.16c1.33,0,1.84-2.11,1.84-2.19a.13.13,0,0,0-.15-.13c-.13,0-.14,0-.21.28-.34,1.15-.87,1.76-1.44,1.76-.14,0-.37,0-.37-.48a3.21,3.21,0,0,1,.23-1,13.3,13.3,0,0,0,.9-3.22,1.42,1.42,0,0,0-1.59-1.51A2.67,2.67,0,0,0,206,110.3l1.11-4.41" transform="translate(-18.19 -13.13)"/><path d="M215.15,106.54a.48.48,0,0,0-.49-.48.74.74,0,0,0-.7.69.47.47,0,0,0,.47.48.76.76,0,0,0,.72-.69m.12,6.91a.13.13,0,0,0-.15-.13c-.13,0-.14,0-.21.28-.38,1.31-1,1.76-1.44,1.76-.17,0-.37,0-.37-.48a3.87,3.87,0,0,1,.33-1.25l1-2.67a1.88,1.88,0,0,0,.15-.65,1.12,1.12,0,0,0-1.14-1.15c-1.32,0-1.85,2.09-1.85,2.2a.14.14,0,0,0,.15.13c.14,0,.15-.06.21-.26.34-1.2.89-1.78,1.45-1.78.13,0,.37,0,.37.48a4,4,0,0,1-.3,1.16l-1,2.67a2.17,2.17,0,0,0-.17.72,1.11,1.11,0,0,0,1.14,1.16C214.75,115.64,215.27,113.55,215.27,113.45Z" transform="translate(-18.19 -13.13)"/><path d="M219.1,111a2.41,2.41,0,0,1,.74-1,1.85,1.85,0,0,1,1.17-.55c.63,0,.92.63.92,1.38a10,10,0,0,1-.76,3.06c-.36.78-1,1.47-1.68,1.47-1,0-1.13-1.24-1.13-1.3a1.39,1.39,0,0,1,0-.23l.7-2.81m-2.48,6.31c-.1.43-.16.54-.75.54-.17,0-.32,0-.32.27a.16.16,0,0,0,.18.15l.57,0h.62l1.34,0c.08,0,.25,0,.25-.26s-.1-.16-.34-.16c-.66,0-.7-.1-.7-.21s.64-2.65.73-3a1.39,1.39,0,0,0,1.29,1c1.62,0,3.38-2.11,3.38-4.22,0-1.32-.75-2.26-1.83-2.26a2.73,2.73,0,0,0-1.85,1.1,1.26,1.26,0,0,0-1.25-1.1,1.11,1.11,0,0,0-1,.75,6.66,6.66,0,0,0-.46,1.45.15.15,0,0,0,.16.13c.11,0,.13,0,.21-.34.22-.85.49-1.7,1.07-1.7.33,0,.44.23.44.66a2.67,2.67,0,0,1-.1.75Z" transform="translate(-18.19 -13.13)"/><path d="M157.21,134.43c.28,0,.4,0,.4-.28s-.12-.14-.37-.14h-1.17c.27-1.48.48-2.5.59-3a.87.87,0,0,1,.76-.68,1.22,1.22,0,0,1,.75.26.75.75,0,0,0-.73.72.45.45,0,0,0,.48.46.75.75,0,0,0,.72-.79c0-.6-.6-.93-1.23-.93a1.83,1.83,0,0,0-1.51,1,9.87,9.87,0,0,0-.73,2.9h-1c-.27,0-.41,0-.41.26s.09.16.37.16h.92c-.26,1.33-.85,4.58-1.18,6.12-.24,1.25-.46,2.29-1.18,2.29a1,1,0,0,1-.71-.27.72.72,0,0,0,.73-.7.45.45,0,0,0-.49-.46.75.75,0,0,0-.72.79c0,.61.63.93,1.19.93,1.47,0,2.07-2.63,2.23-3.35.26-1.1,1-4.92,1-5.35h1.22" transform="translate(-18.19 -13.13)"/><path d="M166.37,143.69s0-.07-.25-.31c-1.43-1.46-2.24-3.83-2.24-6.76a9.51,9.51,0,0,1,2.34-6.88c.15-.13.15-.16.15-.2a.12.12,0,0,0-.13-.11,6,6,0,0,0-2.07,2.44,10.26,10.26,0,0,0-1.06,4.75,10.57,10.57,0,0,0,.95,4.53,6.1,6.1,0,0,0,2.18,2.66.12.12,0,0,0,.13-.12" transform="translate(-18.19 -13.13)"/><path d="M174,134.34a.72.72,0,0,0-.63.7.44.44,0,0,0,.47.46.75.75,0,0,0,.73-.76c0-.6-.69-.88-1.29-.88A1.83,1.83,0,0,0,171.8,135a1.49,1.49,0,0,0-1.48-1.14c-1.47,0-2.24,1.89-2.24,2.2a.14.14,0,0,0,.15.13c.12,0,.15-.08.18-.14.48-1.6,1.45-1.9,1.86-1.9.65,0,.78.61.78.95a6.16,6.16,0,0,1-.26,1.34l-.49,2c-.21.86-.63,1.65-1.39,1.65a1.42,1.42,0,0,1-.73-.19.75.75,0,0,0,.63-.7.45.45,0,0,0-.49-.46.75.75,0,0,0-.72.76c0,.6.68.87,1.29.87a1.8,1.8,0,0,0,1.49-1.13,1.48,1.48,0,0,0,1.47,1.13c1.47,0,2.24-1.88,2.24-2.19A.12.12,0,0,0,174,138c-.13,0-.14.07-.18.18-.39,1.27-1.23,1.86-1.87,1.86s-.78-.38-.78-1a6.63,6.63,0,0,1,.29-1.49l.5-1.95c.22-.87.71-1.5,1.37-1.5a1.53,1.53,0,0,1,.73.19" transform="translate(-18.19 -13.13)"/><path d="M179.15,136.62a10.62,10.62,0,0,0-1-4.54,6.11,6.11,0,0,0-2.18-2.65.12.12,0,0,0-.13.11s0,.07.24.32c1.44,1.45,2.25,3.82,2.25,6.75s-.68,5.19-2.35,6.88c-.14.13-.14.16-.14.2a.12.12,0,0,0,.13.12,6.08,6.08,0,0,0,2.07-2.45,10.34,10.34,0,0,0,1.06-4.74" transform="translate(-18.19 -13.13)"/><path d="M194.3,138.22c.2,0,.46,0,.46-.26s-.25-.27-.46-.27h-8.46c-.21,0-.46,0-.46.26s.24.27.46.27h8.46m0-2.67c.2,0,.46,0,.46-.26s-.25-.28-.46-.28h-8.46c-.21,0-.46,0-.46.26s.24.28.46.28Z" transform="translate(-18.19 -13.13)"/><path d="M205.82,137.79h-.31a5.66,5.66,0,0,1-.31,1.26,3.72,3.72,0,0,1-1.35.13h-2.66c.39-.33,1.27-1.25,1.64-1.59,2.19-2,3-2.76,3-4.18a2.78,2.78,0,0,0-3-2.76,2.66,2.66,0,0,0-2.65,2.65.68.68,0,1,0,1.35.06.64.64,0,0,0-.67-.67h-.2a2,2,0,0,1,3.95.71,5,5,0,0,1-1.52,3.2l-2.91,3.24v.35h5.25l.37-2.41" transform="translate(-18.19 -13.13)"/><path d="M213.31,134.34a.72.72,0,0,0-.63.7.44.44,0,0,0,.47.46.75.75,0,0,0,.73-.76c0-.6-.69-.88-1.29-.88A1.83,1.83,0,0,0,211.1,135a1.49,1.49,0,0,0-1.48-1.14c-1.47,0-2.24,1.89-2.24,2.2a.14.14,0,0,0,.15.13c.12,0,.15-.08.18-.14.48-1.6,1.45-1.9,1.86-1.9.65,0,.78.61.78.95a6.16,6.16,0,0,1-.26,1.34l-.49,2c-.21.86-.63,1.65-1.39,1.65a1.42,1.42,0,0,1-.73-.19.75.75,0,0,0,.63-.7.45.45,0,0,0-.49-.46.75.75,0,0,0-.72.76c0,.6.68.87,1.29.87a1.77,1.77,0,0,0,1.48-1.13,1.5,1.5,0,0,0,1.48,1.13c1.47,0,2.24-1.88,2.24-2.19a.12.12,0,0,0-.14-.13c-.13,0-.14.07-.18.18-.39,1.27-1.23,1.86-1.87,1.86s-.78-.38-.78-1a6.63,6.63,0,0,1,.29-1.49l.5-1.95c.22-.87.71-1.5,1.37-1.5a1.53,1.53,0,0,1,.73.19" transform="translate(-18.19 -13.13)"/><path d="M139.85,136.58a1.41,1.41,0,1,0-1.41,1.41A1.41,1.41,0,0,0,139.85,136.58Z" transform="translate(-18.19 -13.13)"/><path d="M228.29,136.58a1.41,1.41,0,1,0-1.41,1.41A1.41,1.41,0,0,0,228.29,136.58Z" transform="translate(-18.19 -13.13)"/><path d="M320.13,68.55a1.41,1.41,0,1,0-1.41,1.4A1.41,1.41,0,0,0,320.13,68.55Z" transform="translate(-18.19 -13.13)"/><path d="M327.4,73.21c-.45,0-1.39-.25-1.66-1.82a17.46,17.46,0,0,1-.16-3,12.58,12.58,0,0,1,.23-3.09,1.72,1.72,0,0,1,1.59-1.41,1.75,1.75,0,0,1,1.66,1.57,15.17,15.17,0,0,1,.18,2.93,18.67,18.67,0,0,1-.15,2.93c-.28,1.58-1.18,1.85-1.69,1.85m2.94-4.61a7.91,7.91,0,0,0-.59-3.44,2.57,2.57,0,0,0-4.72.1,7.62,7.62,0,0,0-.54,3.34,7.24,7.24,0,0,0,.62,3.47,2.55,2.55,0,0,0,2.29,1.43,2.57,2.57,0,0,0,2.39-1.58A8,8,0,0,0,330.34,68.6Z" transform="translate(-18.19 -13.13)"/><circle cx="300.53" cy="89.44" r="1.41"/><path d="M330.22,104.79h-.32a5.14,5.14,0,0,1-.3,1.26,3.72,3.72,0,0,1-1.35.13H325.6c.38-.33,1.26-1.25,1.63-1.59,2.19-2,3-2.76,3-4.18a2.78,2.78,0,0,0-3-2.76,2.66,2.66,0,0,0-2.65,2.65.68.68,0,1,0,1.35.06.64.64,0,0,0-.67-.67h-.2a2,2,0,0,1,3.95.71,5,5,0,0,1-1.52,3.2l-2.91,3.24v.35h5.25l.37-2.41" transform="translate(-18.19 -13.13)"/><circle cx="300.53" cy="123.45" r="1.41"/><path d="M328.14,133v5.41h-3.49Zm.95-1.12c0-.27,0-.35-.21-.35s-.15,0-.27.18l-4.32,6.7v.42h3.78v1.31c0,.53,0,.67-1.08.67h-.29v.42c.33,0,1.47,0,1.87,0s1.55,0,1.88,0v-.42h-.29c-1,0-1.07-.14-1.07-.67V138.8h1.45v-.42h-1.45Z" transform="translate(-18.19 -13.13)"/><circle cx="300.53" cy="157.47" r="1.41"/><path d="M327.43,175.11A1.67,1.67,0,0,1,326,174a6.75,6.75,0,0,1-.27-2.08c0-1.14.51-2.56,1.81-2.56a1.53,1.53,0,0,1,1.42,1,5,5,0,0,1,.23,1.87,4.19,4.19,0,0,1-.28,1.92,1.54,1.54,0,0,1-1.45.93m-1.76-4.91c0-3.63,1.76-4.21,2.54-4.21a1.49,1.49,0,0,1,1.31.59c-.17,0-.72,0-.72.59a.6.6,0,1,0,1.19,0c0-.75-.54-1.48-1.79-1.48-1.81,0-3.71,1.85-3.71,5,0,4,1.72,4.84,2.94,4.84a3.05,3.05,0,0,0,2.91-3.23,3,3,0,0,0-2.78-3.19,2,2,0,0,0-1.89,1.51Z" transform="translate(-18.19 -13.13)"/><path d="M320.13,204.61a1.41,1.41,0,1,0-1.41,1.41A1.41,1.41,0,0,0,320.13,204.61Z" transform="translate(-18.19 -13.13)"/><path d="M326.9,204.58l1.74,1.13a1.88,1.88,0,0,1,1,1.57,2.08,2.08,0,0,1-2.25,1.83,2.18,2.18,0,0,1-2.27-2.08,2.83,2.83,0,0,1,1.75-2.45m-.67-1.86a1.48,1.48,0,0,1-.76-1.21c0-.93,1-1.52,1.93-1.52a1.87,1.87,0,0,1,2,1.78,2.44,2.44,0,0,1-1.47,2Zm1.95,1.29a2.73,2.73,0,0,0,1.77-2.25,2.34,2.34,0,0,0-2.53-2.11,2.44,2.44,0,0,0-2.54,2.35,2.24,2.24,0,0,0,.54,1.47c.16.19.18.2,1.18.9a3.09,3.09,0,0,0-2.11,2.66,2.7,2.7,0,0,0,2.91,2.47,2.82,2.82,0,0,0,2.94-2.68C330.34,205.35,329.3,204.7,328.18,204Z" transform="translate(-18.19 -13.13)"/><path d="M290.25,23.87c-1.18,0-2.43-.86-2.43-3.1a8.42,8.42,0,0,1,1.66-4.89,4.35,4.35,0,0,1,3.21-1.78c1.27,0,2.49.92,2.49,3a9.07,9.07,0,0,1-1.51,4.64,4.47,4.47,0,0,1-3.42,2.14m6.08-6.26a3.52,3.52,0,0,0-3.56-3.82c-3.08,0-6.18,3.3-6.18,6.62a3.53,3.53,0,0,0,3.58,3.79C293.18,24.2,296.33,21.06,296.33,17.61Z" transform="translate(-18.19 -13.13)"/><path d="M301.9,23.07a1.22,1.22,0,0,0,1.22,1,1.16,1.16,0,0,0,1-.79,6.59,6.59,0,0,0,.43-1.4.12.12,0,0,0-.14-.13c-.13,0-.14.07-.2.28-.26,1-.52,1.76-1.09,1.76s-.43-.48-.43-.66A4.12,4.12,0,0,1,302.9,22c.1-.39.2-.78.29-1.18l.59-2.34a1.78,1.78,0,0,0,.1-.43.36.36,0,0,0-.39-.36c-.41,0-.51.36-.6.72-.14.56-.92,3.65-1,4.15,0,0-.57,1.18-1.62,1.18-.75,0-.89-.65-.89-1.18a9.52,9.52,0,0,1,.77-2.93,2.57,2.57,0,0,0,.25-.94,1.12,1.12,0,0,0-1.14-1.15c-1.32,0-1.85,2.09-1.85,2.2a.15.15,0,0,0,.16.13c.12,0,.14-.06.2-.26.34-1.23.9-1.78,1.45-1.78.14,0,.37,0,.37.48a4,4,0,0,1-.37,1.33,7.91,7.91,0,0,0-.71,2.69,1.56,1.56,0,0,0,1.7,1.69,2.2,2.2,0,0,0,1.71-1" transform="translate(-18.19 -13.13)"/><path d="M307.89,18.12h1.32c.27,0,.41,0,.41-.25s-.08-.16-.37-.16H308l.53-2.1a.87.87,0,0,0,.06-.33.36.36,0,0,0-.38-.36.58.58,0,0,0-.56.51l-.56,2.28h-1.35c-.28,0-.41,0-.41.27s.1.14.37.14H307l-1,3.8a3.7,3.7,0,0,0-.16.83A1.25,1.25,0,0,0,307.14,24c1.45,0,2.23-2.09,2.23-2.19s-.06-.13-.15-.13a.12.12,0,0,0-.11.05s0,0-.13.26c-.3.72-1,1.73-1.8,1.73-.43,0-.46-.36-.46-.68a2.05,2.05,0,0,1,0-.46l1.12-4.5" transform="translate(-18.19 -13.13)"/><path d="M313.2,19.42a2.41,2.41,0,0,1,.74-1,1.91,1.91,0,0,1,1.17-.55c.64,0,.92.63.92,1.38a10,10,0,0,1-.76,3.06c-.36.78-1,1.47-1.68,1.47-1,0-1.13-1.24-1.13-1.3a1.24,1.24,0,0,1,0-.23l.7-2.81m-2.48,6.31c-.1.43-.16.54-.75.54-.17,0-.32,0-.32.27a.16.16,0,0,0,.18.15l.57,0H311l1.33,0c.09,0,.26,0,.26-.26s-.1-.16-.34-.16c-.66,0-.7-.1-.7-.22s.64-2.64.73-3a1.39,1.39,0,0,0,1.29,1c1.62,0,3.38-2.11,3.38-4.22,0-1.32-.75-2.26-1.83-2.26a2.77,2.77,0,0,0-1.85,1.1,1.26,1.26,0,0,0-1.25-1.1,1.11,1.11,0,0,0-1,.75,6.83,6.83,0,0,0-.46,1.45.15.15,0,0,0,.16.13c.11,0,.13,0,.21-.34.22-.85.49-1.7,1.07-1.7.33,0,.44.23.44.66a2.67,2.67,0,0,1-.1.75Z" transform="translate(-18.19 -13.13)"/><path d="M322,23.07a1.23,1.23,0,0,0,1.22,1,1.16,1.16,0,0,0,1-.79,6.59,6.59,0,0,0,.43-1.4.12.12,0,0,0-.14-.13c-.13,0-.14.07-.2.28-.26,1-.52,1.76-1.09,1.76s-.43-.48-.43-.66A4.12,4.12,0,0,1,323,22c.1-.39.2-.78.29-1.18l.59-2.34a1.78,1.78,0,0,0,.1-.43.36.36,0,0,0-.39-.36c-.41,0-.51.36-.6.72-.14.56-.92,3.65-1,4.15,0,0-.57,1.18-1.62,1.18-.75,0-.89-.65-.89-1.18a9.52,9.52,0,0,1,.77-2.93,2.57,2.57,0,0,0,.25-.94,1.12,1.12,0,0,0-1.14-1.15c-1.32,0-1.85,2.09-1.85,2.2a.15.15,0,0,0,.16.13c.12,0,.14-.06.2-.26.34-1.23.9-1.78,1.45-1.78.14,0,.37,0,.37.48a4,4,0,0,1-.37,1.33,7.91,7.91,0,0,0-.71,2.69,1.56,1.56,0,0,0,1.7,1.69,2.2,2.2,0,0,0,1.71-1" transform="translate(-18.19 -13.13)"/><path d="M328,18.12h1.32c.27,0,.42,0,.42-.25s-.09-.16-.38-.16h-1.26l.53-2.1a.87.87,0,0,0,.06-.33.36.36,0,0,0-.38-.36.58.58,0,0,0-.56.51l-.56,2.28h-1.35c-.28,0-.41,0-.41.27s.1.14.37.14h1.28l-.95,3.8a3.7,3.7,0,0,0-.16.83A1.25,1.25,0,0,0,327.24,24c1.45,0,2.23-2.09,2.23-2.19s-.06-.13-.15-.13a.12.12,0,0,0-.11.05s0,0-.13.26c-.3.72-1,1.73-1.8,1.73-.43,0-.46-.36-.46-.68a2.05,2.05,0,0,1,.05-.46l1.12-4.5" transform="translate(-18.19 -13.13)"/><path d="M338.07,27.39s0-.07-.25-.31c-1.43-1.46-2.24-3.83-2.24-6.76a9.51,9.51,0,0,1,2.34-6.88c.15-.13.15-.16.15-.2a.12.12,0,0,0-.13-.12,6,6,0,0,0-2.07,2.45,10.26,10.26,0,0,0-1.06,4.75,10.57,10.57,0,0,0,.95,4.53,6.1,6.1,0,0,0,2.18,2.66.12.12,0,0,0,.13-.12" transform="translate(-18.19 -13.13)"/><path d="M342.58,25.51a2.14,2.14,0,0,1-1.65,1,1.07,1.07,0,0,1-1.08-.69.36.36,0,0,0,.14,0,.73.73,0,0,0,.72-.71.44.44,0,0,0-.49-.44.78.78,0,0,0-.73.88,1.3,1.3,0,0,0,1.44,1.23,3.79,3.79,0,0,0,3.29-2.92l1.4-5.6a.93.93,0,0,0,.05-.24.37.37,0,0,0-.39-.36.58.58,0,0,0-.55.49l-1.06,4.22a.94.94,0,0,1-.19.45,1.84,1.84,0,0,1-1.45.89c-.8,0-.87-.79-.87-1.18a9.62,9.62,0,0,1,.77-3,2.46,2.46,0,0,0,.25-.91A1.12,1.12,0,0,0,341,17.56c-1.32,0-1.85,2.09-1.85,2.2a.15.15,0,0,0,.16.13c.13,0,.14-.06.2-.26.34-1.2.89-1.78,1.45-1.78.13,0,.37,0,.37.48a4,4,0,0,1-.37,1.33,7.12,7.12,0,0,0-.71,2.7A1.55,1.55,0,0,0,342,24a1.9,1.9,0,0,0,1.43-.66l0,0a5.44,5.44,0,0,1-.86,2.11" transform="translate(-18.19 -13.13)"/><path d="M350.25,20.32a10.62,10.62,0,0,0-.95-4.54,6.17,6.17,0,0,0-2.18-2.66.12.12,0,0,0-.13.12s0,.07.24.32c1.44,1.45,2.25,3.82,2.25,6.75s-.68,5.19-2.35,6.88c-.14.13-.14.16-.14.2a.12.12,0,0,0,.13.12,6.08,6.08,0,0,0,2.07-2.45,10.34,10.34,0,0,0,1.06-4.74" transform="translate(-18.19 -13.13)"/><path class="cls-1" d="M59.32,136.58c0-30.43-8.24-55.09-18.42-55.09s-18.43,24.66-18.43,55.09,8.25,55.08,18.43,55.08S59.32,167,59.32,136.58Z" transform="translate(-18.19 -13.13)"/><path class="cls-1" d="M352.82,136.58c0-57-12.69-103.2-28.35-103.2s-28.35,46.2-28.35,103.2,12.7,103.2,28.35,103.2S352.82,193.57,352.82,136.58Z" transform="translate(-18.19 -13.13)"/><path class="cls-1" d="M223.47,136.06c0-6.74-18.42-12.21-41.15-12.21s-41.15,5.47-41.15,12.21,18.43,12.22,41.15,12.22S223.47,142.81,223.47,136.06Z" transform="translate(-18.19 -13.13)"/><line class="cls-2" x1="31.77" y1="90.68" x2="116.21" y2="121.96"/><path class="cls-3" d="M133.66,132.6a4.43,4.43,0,0,0,1.11,2.62,4.36,4.36,0,0,0-2.55,1.26" transform="translate(-18.19 -13.13)"/><line class="cls-2" x1="212.09" y1="122.2" x2="296.53" y2="90.93"/><path class="cls-3" d="M312.55,102.65a4.39,4.39,0,0,0,2.54,1.27,4.37,4.37,0,0,0-1.11,2.61" transform="translate(-18.19 -13.13)"/><line class="cls-4" x1="31.77" y1="156.22" x2="116.21" y2="124.95"/><path class="cls-5" d="M132.22,136.67a4.44,4.44,0,0,0,2.55,1.27,4.4,4.4,0,0,0-1.11,2.62" transform="translate(-18.19 -13.13)"/><line class="cls-4" x1="212.09" y1="124.7" x2="296.53" y2="155.98"/><path class="cls-5" d="M314,166.62a4.43,4.43,0,0,0,1.11,2.62,4.33,4.33,0,0,0-2.54,1.27" transform="translate(-18.19 -13.13)"/><line class="cls-6" x1="31.99" y1="123.45" x2="115.95" y2="123.45"/><path class="cls-7" d="M132.58,134.51c.13.77,1.55,1.94,1.94,2.07-.39.13-1.81,1.29-1.94,2.07" transform="translate(-18.19 -13.13)"/><line class="cls-6" x1="212.31" y1="123.45" x2="296.27" y2="123.45"/><path class="cls-7" d="M312.9,134.51c.13.77,1.55,1.94,1.94,2.07-.39.13-1.81,1.29-1.94,2.07" transform="translate(-18.19 -13.13)"/></svg>