<svg id="Layer_1" data-name="Layer 1" xmlns="http://www.w3.org/2000/svg" viewBox="0 0 341.06 227.05"><defs><style>.cls-1,.cls-2,.cls-3,.cls-4,.cls-5,.cls-6,.cls-7,.cls-8{fill:none;}.cls-1,.cls-4,.cls-5,.cls-6{stroke:#000;}.cls-1,.cls-2,.cls-4,.cls-7{stroke-miterlimit:10;}.cls-1{stroke-width:0.8px;}.cls-2,.cls-3{stroke:#ec6d5f;}.cls-2,.cls-4,.cls-7{stroke-width:0.8px;}.cls-3,.cls-5,.cls-6,.cls-8{stroke-linecap:round;stroke-linejoin:round;}.cls-3,.cls-6{stroke-width:0.64px;}.cls-5{stroke-width:0.64px;}.cls-7,.cls-8{stroke:#2caaca;}.cls-8{stroke-width:0.64px;}</style></defs><title>Functions.12</title><path d="M57,66.55A1.41,1.41,0,1,0,55.57,68,1.41,1.41,0,0,0,57,66.55Z" transform="translate(-21.13 -11.13)"/><path d="M41.67,67.3c.24,0,.5,0,.5-.29s-.26-.29-.5-.29H33.89c-.24,0-.5,0-.5.29s.26.29.5.29h7.78" transform="translate(-21.13 -11.13)"/><path d="M49.72,68.19H49.4a5.14,5.14,0,0,1-.3,1.26,3.72,3.72,0,0,1-1.35.13H45.09c.39-.33,1.27-1.25,1.64-1.59,2.19-2,3-2.76,3-4.19a2.77,2.77,0,0,0-3-2.75,2.66,2.66,0,0,0-2.65,2.66.68.68,0,1,0,1.36,0,.64.64,0,0,0-.68-.67h-.2a2,2,0,0,1,4,.7A5,5,0,0,1,47,67L44.1,70.26v.34h5.25l.37-2.41" transform="translate(-21.13 -11.13)"/><circle cx="34.44" cy="89.44" r="1.41"/><path d="M41.67,101.3c.24,0,.5,0,.5-.29s-.26-.29-.5-.29H33.89c-.24,0-.5,0-.5.29s.26.29.5.29h7.78" transform="translate(-21.13 -11.13)"/><path d="M47.54,95.39c0-.33,0-.34-.29-.34a3.22,3.22,0,0,1-2.54.92v.41A4.12,4.12,0,0,0,46.54,96v7.48c0,.52,0,.69-1.3.69h-.45v.42c.39,0,1.78,0,2.26,0s1.85,0,2.24,0v-.42h-.45c-1.26,0-1.3-.17-1.3-.69v-8.1" transform="translate(-21.13 -11.13)"/><circle cx="34.44" cy="123.45" r="1.41"/><path d="M46.9,139.21c-.46,0-1.39-.25-1.66-1.82a17.46,17.46,0,0,1-.16-3,12.58,12.58,0,0,1,.23-3.09,1.72,1.72,0,0,1,1.59-1.41,1.75,1.75,0,0,1,1.66,1.57,15.17,15.17,0,0,1,.18,2.93,18.67,18.67,0,0,1-.15,2.93c-.28,1.58-1.18,1.85-1.69,1.85m2.94-4.61a7.91,7.91,0,0,0-.59-3.44,2.57,2.57,0,0,0-4.72.1A7.62,7.62,0,0,0,44,134.6a7.24,7.24,0,0,0,.62,3.47,2.55,2.55,0,0,0,2.29,1.43,2.57,2.57,0,0,0,2.39-1.58A8,8,0,0,0,49.84,134.6Z" transform="translate(-21.13 -11.13)"/><circle cx="34.44" cy="157.47" r="1.41"/><path d="M47.54,164c0-.33,0-.34-.29-.34a3.22,3.22,0,0,1-2.54.92V165a4.12,4.12,0,0,0,1.83-.37v7.48c0,.52,0,.69-1.3.69h-.45v.42c.39,0,1.78,0,2.26,0s1.85,0,2.24,0v-.42h-.45c-1.26,0-1.3-.17-1.3-.69V164" transform="translate(-21.13 -11.13)"/><path d="M57,202.61A1.41,1.41,0,1,0,55.57,204,1.41,1.41,0,0,0,57,202.61Z" transform="translate(-21.13 -11.13)"/><path d="M49.72,204.79H49.4a5.14,5.14,0,0,1-.3,1.26,3.72,3.72,0,0,1-1.35.13H45.09c.39-.33,1.27-1.25,1.64-1.59,2.19-2,3-2.76,3-4.18a2.78,2.78,0,0,0-3-2.76,2.66,2.66,0,0,0-2.65,2.65.68.68,0,1,0,1.36.06.64.64,0,0,0-.68-.67h-.2a2,2,0,0,1,4,.71,5,5,0,0,1-1.52,3.2l-2.91,3.24v.35h5.25l.37-2.41" transform="translate(-21.13 -11.13)"/><path d="M31.89,13.15c.13-.5.15-.64,1.2-.64.32,0,.43,0,.43-.28s-.15-.14-.2-.14l-.83,0H30.72l-.9,0c-.12,0-.28,0-.28.27s.12.15.41.15c.89,0,.89.11.89.27a1.39,1.39,0,0,1-.06.31l-1.94,7.75c-.13.5-.16.64-1.21.64-.31,0-.44,0-.44.28s.14.14.21.14l.84,0H30l.88,0c.12,0,.29,0,.29-.26s-.08-.16-.4-.16c-.89,0-.89-.11-.89-.28a1.27,1.27,0,0,1,.06-.33l1.94-7.72" transform="translate(-21.13 -11.13)"/><path d="M36.86,17.69a4.06,4.06,0,0,1,.92-1.26,2.05,2.05,0,0,1,1.42-.58c.57,0,.78.43.78,1a12.92,12.92,0,0,1-.88,3.23,2.08,2.08,0,0,0-.2.79A1.1,1.1,0,0,0,40,22c1.34,0,1.84-2.11,1.84-2.19a.12.12,0,0,0-.14-.13c-.13,0-.14,0-.22.28-.33,1.18-.87,1.76-1.43,1.76-.15,0-.38,0-.38-.48a2.75,2.75,0,0,1,.25-1,13,13,0,0,0,.89-3.22,1.42,1.42,0,0,0-1.6-1.51A2.71,2.71,0,0,0,37,16.83a1.25,1.25,0,0,0-1.26-1.27,1.13,1.13,0,0,0-1,.77,6.6,6.6,0,0,0-.46,1.43.14.14,0,0,0,.15.13c.12,0,.13,0,.22-.34.23-.88.49-1.7,1.06-1.7.33,0,.45.23.45.66a7,7,0,0,1-.25,1.32l-.4,1.56c-.05.27-.21.91-.28,1.17S35,21.61,35,21.68a.35.35,0,0,0,.37.36.55.55,0,0,0,.49-.3c0-.07.16-.57.23-.86l.32-1.29.47-1.9" transform="translate(-21.13 -11.13)"/><path d="M45.4,17.42a2.41,2.41,0,0,1,.74-1,1.91,1.91,0,0,1,1.17-.55c.63,0,.92.63.92,1.38a10,10,0,0,1-.76,3.06c-.36.78-1,1.47-1.68,1.47-1,0-1.13-1.24-1.13-1.3a1.24,1.24,0,0,1,0-.23l.7-2.81m-2.48,6.31c-.1.43-.16.54-.75.54-.17,0-.32,0-.32.27a.16.16,0,0,0,.18.15l.57,0h.62l1.33,0c.09,0,.26,0,.26-.26s-.1-.16-.34-.16c-.66,0-.7-.1-.7-.22s.64-2.64.73-3a1.39,1.39,0,0,0,1.29,1c1.62,0,3.38-2.11,3.38-4.22,0-1.32-.75-2.26-1.83-2.26a2.77,2.77,0,0,0-1.85,1.1,1.25,1.25,0,0,0-1.25-1.1,1.11,1.11,0,0,0-1,.75,6.83,6.83,0,0,0-.46,1.45.15.15,0,0,0,.16.13c.11,0,.13,0,.21-.34.22-.85.49-1.7,1.07-1.7.33,0,.44.23.44.66a2.67,2.67,0,0,1-.1.75Z" transform="translate(-21.13 -11.13)"/><path d="M54.3,21.07a1.22,1.22,0,0,0,1.22,1,1.16,1.16,0,0,0,1-.79,6.59,6.59,0,0,0,.43-1.4.12.12,0,0,0-.14-.13c-.13,0-.14.07-.2.28-.26,1-.52,1.76-1.09,1.76s-.43-.48-.43-.66A4.12,4.12,0,0,1,55.3,20c.1-.39.21-.78.29-1.18l.59-2.34a1.78,1.78,0,0,0,.1-.43.36.36,0,0,0-.39-.36c-.41,0-.51.36-.6.72-.14.56-.92,3.65-1,4.15,0,0-.58,1.18-1.62,1.18-.75,0-.89-.65-.89-1.18a9.52,9.52,0,0,1,.77-2.93,2.38,2.38,0,0,0,.25-.94,1.12,1.12,0,0,0-1.14-1.15c-1.32,0-1.85,2.09-1.85,2.2a.14.14,0,0,0,.15.13c.13,0,.15-.06.21-.26.34-1.23.9-1.78,1.45-1.78.14,0,.37,0,.37.48a4,4,0,0,1-.37,1.33,7.91,7.91,0,0,0-.71,2.69A1.56,1.56,0,0,0,52.59,22a2.2,2.2,0,0,0,1.71-1" transform="translate(-21.13 -11.13)"/><path d="M60.29,16.12h1.32c.27,0,.41,0,.41-.25s-.08-.16-.37-.16H60.39l.53-2.1a.87.87,0,0,0,.06-.33.36.36,0,0,0-.38-.36.58.58,0,0,0-.56.51l-.56,2.28H58.13c-.29,0-.41,0-.41.27s.1.14.37.14h1.28l-.95,3.8a3.7,3.7,0,0,0-.16.83A1.25,1.25,0,0,0,59.54,22C61,22,61.77,20,61.77,19.85s-.06-.13-.15-.13a.11.11,0,0,0-.11.05s0,0-.13.26c-.3.72-1,1.73-1.8,1.73-.43,0-.46-.36-.46-.68a2.05,2.05,0,0,1,.05-.46l1.12-4.5" transform="translate(-21.13 -11.13)"/><path d="M70.27,25.39s0-.07-.25-.31c-1.43-1.46-2.24-3.83-2.24-6.76a9.51,9.51,0,0,1,2.34-6.88c.15-.13.15-.16.15-.2a.12.12,0,0,0-.13-.12,6,6,0,0,0-2.07,2.45A10.26,10.26,0,0,0,67,18.32,10.57,10.57,0,0,0,68,22.85a6.1,6.1,0,0,0,2.18,2.66.12.12,0,0,0,.13-.12" transform="translate(-21.13 -11.13)"/><path d="M77.91,16a.71.71,0,0,0-.63.7.44.44,0,0,0,.47.46.75.75,0,0,0,.73-.76c0-.6-.69-.88-1.29-.88A1.83,1.83,0,0,0,75.7,16.7a1.49,1.49,0,0,0-1.48-1.14c-1.47,0-2.24,1.89-2.24,2.2a.14.14,0,0,0,.15.13c.12,0,.15-.08.18-.14.48-1.6,1.45-1.9,1.86-1.9.65,0,.78.61.78,1a6.16,6.16,0,0,1-.26,1.34l-.49,2c-.21.87-.63,1.66-1.39,1.66a1.42,1.42,0,0,1-.73-.19.75.75,0,0,0,.63-.7.45.45,0,0,0-.49-.46.75.75,0,0,0-.72.76c0,.6.68.87,1.29.87a1.77,1.77,0,0,0,1.48-1.13A1.51,1.51,0,0,0,75.76,22C77.22,22,78,20.16,78,19.85a.12.12,0,0,0-.14-.13c-.13,0-.14.07-.18.18-.39,1.27-1.23,1.86-1.87,1.86s-.78-.38-.78-1a6.63,6.63,0,0,1,.29-1.49l.5-1.95c.22-.87.71-1.5,1.37-1.5a1.51,1.51,0,0,1,.73.19" transform="translate(-21.13 -11.13)"/><path d="M83.15,18.32a10.62,10.62,0,0,0-1-4.54A6.17,6.17,0,0,0,80,11.12a.12.12,0,0,0-.13.12s0,.07.24.32c1.44,1.45,2.25,3.82,2.25,6.75S81.7,23.5,80,25.19c-.14.13-.14.16-.14.2a.12.12,0,0,0,.13.12,6.08,6.08,0,0,0,2.07-2.45,10.34,10.34,0,0,0,1.06-4.74" transform="translate(-21.13 -11.13)"/><path d="M158.58,109.62c1.78-.39,3.18-1.54,3.18-2.78s-1.14-2.15-3.13-2.15h-3.9c-.29,0-.41,0-.41.27s.1.14.37.14c.86,0,.86.12.86.28a1.21,1.21,0,0,1-.06.33l-1.94,7.73c-.12.5-.15.64-1.14.64-.34,0-.44,0-.44.28s.16.14.21.14l.83,0h1.69l.82,0c.12,0,.28,0,.28-.27s-.13-.15-.35-.15c-.88,0-.88-.11-.88-.25a.9.9,0,0,1,0-.23l1-3.87h1.72c1.36,0,1.62.86,1.62,1.34a7.19,7.19,0,0,1-.24,1.15,4.29,4.29,0,0,0-.2,1.09c0,1,.83,1.49,1.79,1.49,1.17,0,1.67-1.42,1.67-1.62a.14.14,0,0,0-.16-.15c-.11,0-.14.09-.17.21-.34,1-.93,1.27-1.29,1.27s-.59-.15-.59-.8c0-.34.17-1.65.18-1.72a4.11,4.11,0,0,0,.08-.71,1.76,1.76,0,0,0-1.4-1.66m-2-4c.13-.54.18-.57.74-.57h1c1.23,0,2.15.38,2.15,1.5,0,.73-.37,2.84-3.26,2.84h-1.62Z" transform="translate(-21.13 -11.13)"/><path d="M164,110.88c.62-2.21,2-2.43,2.44-2.43a1,1,0,0,1,1.07.92c0,1.51-2.3,1.51-2.9,1.51H164m.69.29a6.54,6.54,0,0,0,2.05-.29,1.64,1.64,0,0,0,1.2-1.51c0-.63-.55-1.21-1.5-1.21a3.89,3.89,0,0,0-3.67,3.93,2.26,2.26,0,0,0,2.17,2.55,3.78,3.78,0,0,0,3.18-1.71.16.16,0,0,0-.14-.15s-.06,0-.19.14a3.68,3.68,0,0,1-2.83,1.44c-.82,0-1.25-.65-1.25-1.71a5.78,5.78,0,0,1,.22-1.48Z" transform="translate(-21.13 -11.13)"/><path d="M172.25,104.89a1.24,1.24,0,0,0,0-.22c0-.14-.14-.14-.17-.14l-.79.07c-.24,0-.46.05-.72.06s-.44,0-.44.3.14.14.28.14c.74,0,.74.13.74.28a1,1,0,0,1-.08.34l-1.78,7.13a1.72,1.72,0,0,0-.07.5,1.25,1.25,0,0,0,1.26,1.29,1.14,1.14,0,0,0,1-.76,6.31,6.31,0,0,0,.45-1.43.13.13,0,0,0-.14-.13c-.13,0-.15.07-.21.28-.25,1-.51,1.76-1.09,1.76s-.43-.46-.43-.66a3.28,3.28,0,0,1,.1-.77l2-8" transform="translate(-21.13 -11.13)"/><path d="M178.34,109.11a1.41,1.41,0,0,0-1.29-1c-1.62,0-3.38,2.1-3.38,4.23,0,1.42.84,2.25,1.81,2.25a2.67,2.67,0,0,0,1.87-1.09,1.24,1.24,0,0,0,1.25,1.09,1.18,1.18,0,0,0,1-.77,7.46,7.46,0,0,0,.43-1.42.13.13,0,0,0-.15-.13c-.13,0-.14.07-.2.28-.21.85-.49,1.76-1.08,1.76-.41,0-.44-.38-.44-.66a4,4,0,0,1,.17-1c.1-.36.17-.68.29-1.1.53-2.15.66-2.67.66-2.75a.36.36,0,0,0-.37-.36c-.46,0-.58.5-.61.67m-.92,3.68a1.27,1.27,0,0,1-.27.55,2.42,2.42,0,0,1-1.62,1c-.59,0-.92-.53-.92-1.38a10.07,10.07,0,0,1,.72-3c.49-1,1.16-1.53,1.72-1.53.95,0,1.14,1.18,1.14,1.3s-.05.2-.06.23Z" transform="translate(-21.13 -11.13)"/><path d="M183.39,108.73h1.32c.27,0,.41,0,.41-.26s-.08-.16-.37-.16h-1.26l.53-2.1a.87.87,0,0,0,.06-.33.36.36,0,0,0-.38-.36.58.58,0,0,0-.56.51l-.56,2.28h-1.35c-.29,0-.41,0-.41.27s.1.15.37.15h1.28l-.95,3.79a3.7,3.7,0,0,0-.16.83,1.25,1.25,0,0,0,1.28,1.29c1.45,0,2.23-2.09,2.23-2.19s-.06-.13-.15-.13a.11.11,0,0,0-.11.05s0,0-.13.26c-.3.72-1,1.73-1.8,1.73-.43,0-.46-.36-.46-.68a2.05,2.05,0,0,1,.05-.46l1.12-4.49" transform="translate(-21.13 -11.13)"/><path d="M189.45,105.54a.48.48,0,0,0-.49-.48.74.74,0,0,0-.7.69.47.47,0,0,0,.47.48.76.76,0,0,0,.72-.69m.12,6.91a.13.13,0,0,0-.15-.13c-.13,0-.14,0-.21.28-.38,1.31-1,1.76-1.44,1.76-.17,0-.37,0-.37-.48a3.87,3.87,0,0,1,.33-1.25l1-2.67a1.88,1.88,0,0,0,.15-.65,1.12,1.12,0,0,0-1.14-1.15c-1.32,0-1.85,2.09-1.85,2.2a.14.14,0,0,0,.15.13c.13,0,.15-.06.21-.26.34-1.2.89-1.78,1.45-1.78.13,0,.37,0,.37.48a4,4,0,0,1-.3,1.16l-1,2.67a2.17,2.17,0,0,0-.17.72,1.11,1.11,0,0,0,1.14,1.16C189.05,114.64,189.57,112.55,189.57,112.45Z" transform="translate(-21.13 -11.13)"/><path d="M193.1,114.36c-.72,0-1.25-.58-1.25-1.58a7.85,7.85,0,0,1,.75-2.85,2.53,2.53,0,0,1,2-1.48c.7,0,1.25.58,1.25,1.58a7.21,7.21,0,0,1-.85,3,2.47,2.47,0,0,1-1.94,1.34m3.75-3.81a2.21,2.21,0,0,0-2.2-2.39c-1.89,0-3.76,2.07-3.76,4.1a2.21,2.21,0,0,0,2.2,2.38A4.22,4.22,0,0,0,196.85,110.55Z" transform="translate(-21.13 -11.13)"/><path d="M200.06,110.29A4.18,4.18,0,0,1,201,109a2.05,2.05,0,0,1,1.42-.58c.57,0,.78.43.78,1a12.92,12.92,0,0,1-.88,3.23,2.08,2.08,0,0,0-.2.79,1.1,1.1,0,0,0,1.13,1.16c1.34,0,1.84-2.11,1.84-2.19a.12.12,0,0,0-.14-.13c-.13,0-.14,0-.22.28-.33,1.18-.87,1.76-1.43,1.76-.15,0-.38,0-.38-.48a2.75,2.75,0,0,1,.25-1,13,13,0,0,0,.89-3.22,1.42,1.42,0,0,0-1.6-1.51,2.71,2.71,0,0,0-2.21,1.27,1.25,1.25,0,0,0-1.26-1.27,1.13,1.13,0,0,0-1,.77,6.44,6.44,0,0,0-.46,1.43.14.14,0,0,0,.15.13c.12,0,.13,0,.22-.34.23-.88.49-1.7,1.06-1.7.34,0,.45.23.45.66a7,7,0,0,1-.25,1.32l-.4,1.56c-.05.27-.21.92-.28,1.17s-.26,1-.26,1.12a.35.35,0,0,0,.37.36.55.55,0,0,0,.49-.3c0-.07.16-.57.23-.86l.32-1.29.47-1.9" transform="translate(-21.13 -11.13)"/><path d="M208.77,111.63l.72.14a1.07,1.07,0,0,1,.84,1,1.83,1.83,0,0,1-2.07,1.61c-.3,0-1.38,0-1.67-.84a.72.72,0,0,0,.86-.69.44.44,0,0,0-.48-.46.79.79,0,0,0-.74.89c0,.85.86,1.38,2,1.38a2.56,2.56,0,0,0,2.83-2.35,1.37,1.37,0,0,0-.46-1.08,2.53,2.53,0,0,0-1.48-.57c-.38-.09-1-.22-1-.87a1.46,1.46,0,0,1,1.62-1.32,1.28,1.28,0,0,1,1.34.75.6.6,0,0,0-.66.56.39.39,0,0,0,.4.39c.2,0,.6-.16.6-.76s-.54-1.23-1.66-1.23a2.21,2.21,0,0,0-2.39,2.07c0,1.1,1.06,1.32,1.39,1.4" transform="translate(-21.13 -11.13)"/><path d="M216.14,104.89a1.24,1.24,0,0,0,0-.22c0-.14-.14-.14-.17-.14l-.79.07c-.25,0-.46.05-.72.06s-.46,0-.46.3.11.14.31.14c.71,0,.72.13.72.28a1.19,1.19,0,0,1,0,.24L213,113.94a1,1,0,0,0-.06.33.35.35,0,0,0,.39.37.58.58,0,0,0,.5-.34l.65-2.6c.07-.32.16-.62.23-.93a2.44,2.44,0,0,1,.43-1,2.49,2.49,0,0,1,2-1.28c.58,0,.78.43.78,1a12.79,12.79,0,0,1-.88,3.23,2.08,2.08,0,0,0-.2.79,1.11,1.11,0,0,0,1.14,1.16c1.33,0,1.84-2.11,1.84-2.19a.13.13,0,0,0-.15-.13c-.13,0-.14,0-.21.28-.34,1.15-.87,1.76-1.44,1.76-.14,0-.37,0-.37-.48a3.21,3.21,0,0,1,.23-1,13.3,13.3,0,0,0,.9-3.22,1.42,1.42,0,0,0-1.59-1.51A2.67,2.67,0,0,0,215,109.3l1.11-4.41" transform="translate(-21.13 -11.13)"/><path d="M224.15,105.54a.48.48,0,0,0-.49-.48.74.74,0,0,0-.7.69.47.47,0,0,0,.47.48.76.76,0,0,0,.72-.69m.12,6.91a.13.13,0,0,0-.15-.13c-.13,0-.14,0-.21.28-.38,1.31-1,1.76-1.44,1.76-.17,0-.37,0-.37-.48a3.87,3.87,0,0,1,.33-1.25l1-2.67a1.88,1.88,0,0,0,.15-.65,1.12,1.12,0,0,0-1.14-1.15c-1.32,0-1.85,2.09-1.85,2.2a.14.14,0,0,0,.15.13c.14,0,.15-.06.21-.26.34-1.2.89-1.78,1.45-1.78.13,0,.37,0,.37.48a4,4,0,0,1-.3,1.16l-1,2.67a2.17,2.17,0,0,0-.17.72,1.11,1.11,0,0,0,1.14,1.16C223.75,114.64,224.27,112.55,224.27,112.45Z" transform="translate(-21.13 -11.13)"/><path d="M228.1,110a2.41,2.41,0,0,1,.74-1,1.85,1.85,0,0,1,1.17-.55c.63,0,.92.63.92,1.38a10,10,0,0,1-.76,3.06c-.36.78-1,1.47-1.68,1.47-1,0-1.13-1.24-1.13-1.3a1.39,1.39,0,0,1,0-.23l.7-2.81m-2.48,6.31c-.1.43-.16.54-.75.54-.17,0-.32,0-.32.27a.16.16,0,0,0,.18.15l.57,0h.62l1.34,0c.08,0,.25,0,.25-.26s-.1-.16-.34-.16c-.66,0-.7-.1-.7-.21s.64-2.65.73-3a1.39,1.39,0,0,0,1.29,1c1.62,0,3.38-2.11,3.38-4.22,0-1.32-.75-2.26-1.83-2.26a2.73,2.73,0,0,0-1.85,1.1,1.26,1.26,0,0,0-1.25-1.1,1.11,1.11,0,0,0-1,.75,6.66,6.66,0,0,0-.46,1.45.15.15,0,0,0,.16.13c.11,0,.13,0,.21-.34.22-.85.49-1.7,1.07-1.7.33,0,.44.23.44.66a2.67,2.67,0,0,1-.1.75Z" transform="translate(-21.13 -11.13)"/><path d="M191.71,134.54a.71.71,0,0,0-.63.7.44.44,0,0,0,.47.46.75.75,0,0,0,.73-.76c0-.6-.69-.88-1.29-.88a1.83,1.83,0,0,0-1.49,1.14,1.49,1.49,0,0,0-1.48-1.14c-1.47,0-2.24,1.89-2.24,2.2a.14.14,0,0,0,.15.13c.12,0,.15-.08.18-.14.48-1.6,1.45-1.9,1.86-1.9.65,0,.78.61.78,1a6.16,6.16,0,0,1-.26,1.34l-.49,2c-.21.87-.63,1.66-1.39,1.66a1.42,1.42,0,0,1-.73-.19.75.75,0,0,0,.63-.7.45.45,0,0,0-.49-.46.75.75,0,0,0-.72.76c0,.6.68.87,1.29.87a1.77,1.77,0,0,0,1.48-1.13,1.5,1.5,0,0,0,1.48,1.13c1.47,0,2.24-1.88,2.24-2.19a.12.12,0,0,0-.14-.13c-.13,0-.14.07-.18.18-.39,1.27-1.23,1.86-1.87,1.86s-.78-.38-.78-1a6.63,6.63,0,0,1,.29-1.49l.5-2c.22-.87.71-1.5,1.37-1.5a1.51,1.51,0,0,1,.73.19" transform="translate(-21.13 -11.13)"/><path d="M194.16,134.43l1.05-1c1.55-1.37,2.15-1.9,2.15-2.9a2,2,0,0,0-2.1-1.93,1.84,1.84,0,0,0-1.86,1.8.51.51,0,0,0,.52.56.52.52,0,0,0,.52-.53.5.5,0,0,0-.53-.51h-.13a1.44,1.44,0,0,1,1.34-1c.91,0,1.34.81,1.34,1.62a3.56,3.56,0,0,1-1.05,2.2l-1.9,2.12c-.11.11-.11.13-.11.37h3.68l.28-1.73h-.25a3.29,3.29,0,0,1-.22.89,3.63,3.63,0,0,1-.94.07h-1.79" transform="translate(-21.13 -11.13)"/><path d="M148.82,134.58a1.41,1.41,0,1,0-1.41,1.41A1.41,1.41,0,0,0,148.82,134.58Z" transform="translate(-21.13 -11.13)"/><path d="M237.26,134.58a1.41,1.41,0,1,0-1.41,1.41A1.41,1.41,0,0,0,237.26,134.58Z" transform="translate(-21.13 -11.13)"/><path d="M329.1,66.55a1.41,1.41,0,1,0-1.4,1.4A1.4,1.4,0,0,0,329.1,66.55Z" transform="translate(-21.13 -11.13)"/><path d="M336.4,71.21c-.45,0-1.39-.25-1.66-1.82a17.46,17.46,0,0,1-.16-3,12.58,12.58,0,0,1,.23-3.09,1.72,1.72,0,0,1,1.59-1.41,1.75,1.75,0,0,1,1.66,1.57,15.17,15.17,0,0,1,.18,2.93,18.67,18.67,0,0,1-.15,2.93c-.28,1.58-1.18,1.85-1.69,1.85m2.94-4.61a7.91,7.91,0,0,0-.59-3.44,2.57,2.57,0,0,0-4.72.1,7.62,7.62,0,0,0-.54,3.34,7.24,7.24,0,0,0,.62,3.47,2.55,2.55,0,0,0,2.29,1.43,2.57,2.57,0,0,0,2.39-1.58A8,8,0,0,0,339.34,66.6Z" transform="translate(-21.13 -11.13)"/><path d="M329.1,100.56a1.41,1.41,0,1,0-1.4,1.41A1.4,1.4,0,0,0,329.1,100.56Z" transform="translate(-21.13 -11.13)"/><path d="M337,96c0-.33,0-.34-.29-.34a3.22,3.22,0,0,1-2.54.92V97a4.18,4.18,0,0,0,1.84-.37v7.48c0,.52-.05.69-1.31.69h-.45v.42c.39,0,1.78,0,2.26,0s1.85,0,2.24,0v-.42h-.44c-1.27,0-1.31-.17-1.31-.69V96" transform="translate(-21.13 -11.13)"/><path d="M329.1,134.58a1.41,1.41,0,1,0-2.81,0,1.41,1.41,0,1,0,2.81,0Z" transform="translate(-21.13 -11.13)"/><path d="M339.22,136.79h-.32a5.14,5.14,0,0,1-.3,1.26,3.72,3.72,0,0,1-1.35.13H334.6c.38-.33,1.26-1.25,1.63-1.59,2.19-2,3-2.76,3-4.18a2.78,2.78,0,0,0-3-2.76,2.66,2.66,0,0,0-2.65,2.65.68.68,0,1,0,1.35.06.64.64,0,0,0-.67-.67h-.2a2,2,0,0,1,3.95.71,5,5,0,0,1-1.52,3.2l-2.91,3.24v.35h5.25l.37-2.41" transform="translate(-21.13 -11.13)"/><path d="M329.1,168.59a1.41,1.41,0,1,0-1.4,1.41A1.41,1.41,0,0,0,329.1,168.59Z" transform="translate(-21.13 -11.13)"/><path d="M335.54,168c-.24,0-.3,0-.3.16s.07.14.33.14h.66c1.22,0,1.77,1,1.77,2.39,0,1.88-1,2.38-1.68,2.38a2.57,2.57,0,0,1-2.29-1.27.71.71,0,0,0,.88-.71.67.67,0,0,0-.7-.7.68.68,0,0,0-.72.75,2.64,2.64,0,0,0,2.87,2.32,2.88,2.88,0,0,0,3-2.76,2.77,2.77,0,0,0-2.45-2.6,2.7,2.7,0,0,0,2.06-2.52c0-1.14-1.18-2-2.57-2s-2.5.87-2.5,1.92a.63.63,0,0,0,.66.69.65.65,0,0,0,0-1.3h-.15a2.34,2.34,0,0,1,2-1c.48,0,1.41.22,1.41,1.63a3.21,3.21,0,0,1-.46,1.69,1.44,1.44,0,0,1-1.3.69l-.44,0" transform="translate(-21.13 -11.13)"/><path d="M329.1,202.61a1.41,1.41,0,1,0-1.4,1.41A1.4,1.4,0,0,0,329.1,202.61Z" transform="translate(-21.13 -11.13)"/><path d="M337.14,199v5.41h-3.49Zm.95-1.12c0-.27,0-.35-.21-.35s-.15,0-.27.18l-4.32,6.7v.42h3.78v1.31c0,.53,0,.67-1.08.67h-.29v.42c.33,0,1.47,0,1.87,0s1.55,0,1.88,0v-.42h-.29c-1,0-1.07-.14-1.07-.67V204.8h1.45v-.42h-1.45Z" transform="translate(-21.13 -11.13)"/><path d="M299.15,21.87c-1.18,0-2.43-.86-2.43-3.1a8.42,8.42,0,0,1,1.66-4.89,4.35,4.35,0,0,1,3.21-1.78c1.27,0,2.49.92,2.49,3a9.07,9.07,0,0,1-1.51,4.64,4.47,4.47,0,0,1-3.42,2.14m6.08-6.26a3.52,3.52,0,0,0-3.56-3.82c-3.08,0-6.18,3.3-6.18,6.62a3.53,3.53,0,0,0,3.58,3.79C302.08,22.2,305.23,19.06,305.23,15.61Z" transform="translate(-21.13 -11.13)"/><path d="M310.9,21.07a1.22,1.22,0,0,0,1.22,1,1.16,1.16,0,0,0,1-.79,6.59,6.59,0,0,0,.43-1.4.12.12,0,0,0-.14-.13c-.13,0-.14.07-.2.28-.26,1-.52,1.76-1.09,1.76s-.43-.48-.43-.66A4.12,4.12,0,0,1,311.9,20c.1-.39.2-.78.29-1.18l.59-2.34a1.78,1.78,0,0,0,.1-.43.36.36,0,0,0-.39-.36c-.41,0-.51.36-.6.72-.14.56-.92,3.65-1,4.15,0,0-.57,1.18-1.62,1.18-.75,0-.89-.65-.89-1.18a9.52,9.52,0,0,1,.77-2.93,2.57,2.57,0,0,0,.25-.94,1.12,1.12,0,0,0-1.14-1.15c-1.32,0-1.85,2.09-1.85,2.2a.15.15,0,0,0,.16.13c.12,0,.14-.06.2-.26.34-1.23.9-1.78,1.45-1.78.14,0,.37,0,.37.48a4,4,0,0,1-.37,1.33,7.91,7.91,0,0,0-.71,2.69,1.56,1.56,0,0,0,1.7,1.69,2.2,2.2,0,0,0,1.71-1" transform="translate(-21.13 -11.13)"/><path d="M316.89,16.12h1.32c.27,0,.41,0,.41-.25s-.08-.16-.37-.16H317l.53-2.1a.87.87,0,0,0,.06-.33.36.36,0,0,0-.38-.36.58.58,0,0,0-.56.51l-.56,2.28h-1.35c-.28,0-.41,0-.41.27s.1.14.37.14H316l-1,3.8a3.7,3.7,0,0,0-.16.83A1.25,1.25,0,0,0,316.14,22c1.45,0,2.23-2.09,2.23-2.19s-.06-.13-.15-.13a.12.12,0,0,0-.11.05s0,0-.13.26c-.3.72-1,1.73-1.8,1.73-.43,0-.46-.36-.46-.68a2.05,2.05,0,0,1,0-.46l1.12-4.5" transform="translate(-21.13 -11.13)"/><path d="M322.1,17.42a2.41,2.41,0,0,1,.74-1,1.91,1.91,0,0,1,1.17-.55c.64,0,.92.63.92,1.38a10,10,0,0,1-.76,3.06c-.36.78-1,1.47-1.68,1.47-1,0-1.13-1.24-1.13-1.3a1.24,1.24,0,0,1,0-.23l.7-2.81m-2.48,6.31c-.1.43-.16.54-.75.54-.17,0-.32,0-.32.27a.16.16,0,0,0,.18.15l.57,0h.62l1.33,0c.09,0,.26,0,.26-.26s-.1-.16-.34-.16c-.66,0-.7-.1-.7-.22s.64-2.64.73-3a1.39,1.39,0,0,0,1.29,1c1.62,0,3.38-2.11,3.38-4.22,0-1.32-.75-2.26-1.83-2.26a2.77,2.77,0,0,0-1.85,1.1,1.26,1.26,0,0,0-1.25-1.1,1.11,1.11,0,0,0-1,.75,6.83,6.83,0,0,0-.46,1.45.15.15,0,0,0,.16.13c.11,0,.13,0,.21-.34.22-.85.49-1.7,1.07-1.7.33,0,.44.23.44.66a2.67,2.67,0,0,1-.1.75Z" transform="translate(-21.13 -11.13)"/><path d="M331,21.07a1.23,1.23,0,0,0,1.22,1,1.16,1.16,0,0,0,1-.79,6.59,6.59,0,0,0,.43-1.4.12.12,0,0,0-.14-.13c-.13,0-.14.07-.2.28-.26,1-.52,1.76-1.09,1.76s-.43-.48-.43-.66A4.12,4.12,0,0,1,332,20c.1-.39.2-.78.29-1.18l.59-2.34a1.78,1.78,0,0,0,.1-.43.36.36,0,0,0-.39-.36c-.41,0-.51.36-.6.72-.14.56-.92,3.65-1,4.15,0,0-.57,1.18-1.62,1.18-.75,0-.89-.65-.89-1.18a9.52,9.52,0,0,1,.77-2.93,2.57,2.57,0,0,0,.25-.94,1.12,1.12,0,0,0-1.14-1.15c-1.32,0-1.85,2.09-1.85,2.2a.15.15,0,0,0,.16.13c.12,0,.14-.06.2-.26.34-1.23.9-1.78,1.45-1.78.14,0,.37,0,.37.48a4,4,0,0,1-.37,1.33,7.91,7.91,0,0,0-.71,2.69,1.56,1.56,0,0,0,1.7,1.69,2.2,2.2,0,0,0,1.71-1" transform="translate(-21.13 -11.13)"/><path d="M337,16.12h1.32c.27,0,.42,0,.42-.25s-.09-.16-.38-.16h-1.26l.53-2.1a.87.87,0,0,0,.06-.33.36.36,0,0,0-.38-.36.58.58,0,0,0-.56.51l-.56,2.28h-1.35c-.28,0-.41,0-.41.27s.1.14.37.14h1.28l-.95,3.8a3.7,3.7,0,0,0-.16.83A1.25,1.25,0,0,0,336.24,22c1.45,0,2.23-2.09,2.23-2.19s-.06-.13-.15-.13a.12.12,0,0,0-.11.05s0,0-.13.26c-.3.72-1,1.73-1.8,1.73-.43,0-.46-.36-.46-.68a2.05,2.05,0,0,1,.05-.46l1.12-4.5" transform="translate(-21.13 -11.13)"/><path d="M347,25.39s0-.07-.24-.31c-1.44-1.46-2.25-3.83-2.25-6.76a9.51,9.51,0,0,1,2.34-6.88c.15-.13.15-.16.15-.2a.12.12,0,0,0-.13-.12,6.08,6.08,0,0,0-2.07,2.45,10.26,10.26,0,0,0-1.06,4.75,10.57,10.57,0,0,0,1,4.53,6.1,6.1,0,0,0,2.18,2.66.12.12,0,0,0,.13-.12" transform="translate(-21.13 -11.13)"/><path d="M351.58,23.51a2.14,2.14,0,0,1-1.65,1,1.07,1.07,0,0,1-1.08-.69.36.36,0,0,0,.14,0,.73.73,0,0,0,.72-.71.44.44,0,0,0-.49-.44.78.78,0,0,0-.73.88,1.3,1.3,0,0,0,1.44,1.23,3.79,3.79,0,0,0,3.29-2.92l1.4-5.6a.93.93,0,0,0,.05-.24.37.37,0,0,0-.39-.36.58.58,0,0,0-.55.49l-1.06,4.22a.94.94,0,0,1-.19.45,1.84,1.84,0,0,1-1.45.89c-.8,0-.87-.79-.87-1.18a9.62,9.62,0,0,1,.77-3,2.46,2.46,0,0,0,.25-.91A1.12,1.12,0,0,0,350,15.56c-1.32,0-1.85,2.09-1.85,2.2a.15.15,0,0,0,.16.13c.13,0,.14-.06.2-.26.34-1.2.89-1.78,1.45-1.78.13,0,.37,0,.37.48a4,4,0,0,1-.37,1.33,7.12,7.12,0,0,0-.71,2.7A1.55,1.55,0,0,0,351,22a1.9,1.9,0,0,0,1.43-.66l0,0a5.44,5.44,0,0,1-.86,2.11" transform="translate(-21.13 -11.13)"/><path d="M359.25,18.32a10.62,10.62,0,0,0-.95-4.54,6.17,6.17,0,0,0-2.18-2.66.12.12,0,0,0-.13.12s0,.07.24.32c1.44,1.45,2.25,3.82,2.25,6.75s-.68,5.19-2.35,6.88c-.14.13-.14.16-.14.2a.12.12,0,0,0,.13.12,6.08,6.08,0,0,0,2.07-2.45,10.34,10.34,0,0,0,1.06-4.74" transform="translate(-21.13 -11.13)"/><ellipse class="cls-1" cx="28.75" cy="123.45" rx="28.35" ry="103.2"/><path class="cls-1" d="M361.79,134.58c0-57-12.69-103.2-28.34-103.2s-28.35,46.2-28.35,103.2,12.69,103.2,28.35,103.2S361.79,191.57,361.79,134.58Z" transform="translate(-21.13 -11.13)"/><ellipse class="cls-1" cx="170.53" cy="123.45" rx="32.6" ry="9.67"/><line class="cls-2" x1="37.32" y1="57.55" x2="122.83" y2="120.89"/><path class="cls-3" d="M143.94,129.42a4.37,4.37,0,0,0,.32,2.82,4.38,4.38,0,0,0-2.79.51" transform="translate(-21.13 -11.13)"/><line class="cls-2" x1="37.32" y1="189.35" x2="122.83" y2="126.02"/><path class="cls-3" d="M141.47,136.4a4.32,4.32,0,0,0,2.79.51,4.38,4.38,0,0,0-.32,2.82" transform="translate(-21.13 -11.13)"/><line class="cls-2" x1="217.64" y1="125.6" x2="303.15" y2="188.93"/><path class="cls-3" d="M324.26,197.47a4.38,4.38,0,0,0,.32,2.82,4.32,4.32,0,0,0-2.79.51" transform="translate(-21.13 -11.13)"/><line class="cls-4" x1="38.03" y1="123.45" x2="121.98" y2="123.45"/><path class="cls-5" d="M141.55,132.51c.13.77,1.56,1.94,1.95,2.07-.39.13-1.82,1.29-1.95,2.07" transform="translate(-21.13 -11.13)"/><line class="cls-4" x1="217.64" y1="121.31" x2="303.15" y2="57.97"/><path class="cls-6" d="M321.79,68.36a4.38,4.38,0,0,0,2.79.51,4.37,4.37,0,0,0-.32,2.82" transform="translate(-21.13 -11.13)"/><line class="cls-7" x1="37.81" y1="90.68" x2="122.25" y2="121.96"/><path class="cls-8" d="M142.64,130.6a4.36,4.36,0,0,0,1.1,2.62,4.31,4.31,0,0,0-2.54,1.26" transform="translate(-21.13 -11.13)"/><line class="cls-7" x1="37.81" y1="156.22" x2="122.25" y2="124.95"/><path class="cls-8" d="M141.2,134.67a4.39,4.39,0,0,0,2.54,1.27,4.34,4.34,0,0,0-1.1,2.62" transform="translate(-21.13 -11.13)"/><line class="cls-7" x1="218.13" y1="122.2" x2="302.57" y2="90.93"/><path class="cls-8" d="M321.52,100.65a4.39,4.39,0,0,0,2.54,1.27,4.31,4.31,0,0,0-1.1,2.61" transform="translate(-21.13 -11.13)"/></svg>