<svg id="Layer_1" data-name="Layer 1" xmlns="http://www.w3.org/2000/svg" viewBox="0 0 334.21 43.58"><defs><style>.cls-1,.cls-2,.cls-3{fill:none;}.cls-1,.cls-3{stroke:#2caaca;}.cls-1{stroke-linecap:round;stroke-linejoin:round;stroke-width:0.64px;}.cls-2{stroke:#000;stroke-width:0.8px;}.cls-2,.cls-3{stroke-miterlimit:10;}.cls-3{stroke-width:0.8px;}</style></defs><title>Functions.06</title><path d="M32.85,38a1.41,1.41,0,1,0-1.41,1.41A1.41,1.41,0,0,0,32.85,38Z" transform="translate(-0.4 -6.73)"/><path d="M25.62,40.19H25.3a5.14,5.14,0,0,1-.3,1.26,3.72,3.72,0,0,1-1.35.13H21c.39-.33,1.27-1.25,1.64-1.59,2.19-2,3-2.76,3-4.19a2.77,2.77,0,0,0-3-2.75A2.65,2.65,0,0,0,20,35.71a.67.67,0,1,0,1.34,0,.64.64,0,0,0-.67-.67h-.2a2,2,0,0,1,3.95.7A5,5,0,0,1,22.91,39L20,42.26v.34h5.24l.37-2.41" transform="translate(-0.4 -6.73)"/><path d="M18.79,9.15c.13-.5.15-.64,1.2-.64.32,0,.43,0,.43-.28s-.15-.14-.2-.14l-.83,0H17.62l-.9,0c-.12,0-.28,0-.28.27s.12.15.41.15c.89,0,.89.11.89.27a1.39,1.39,0,0,1-.06.31l-1.94,7.75c-.13.5-.16.64-1.21.64-.31,0-.44,0-.44.28s.14.14.21.14l.84,0H16.9l.89,0c.12,0,.29,0,.29-.26s-.08-.16-.4-.16c-.89,0-.89-.11-.89-.28a1.27,1.27,0,0,1,.06-.33l1.94-7.72" transform="translate(-0.4 -6.73)"/><path d="M23.76,13.69a4.06,4.06,0,0,1,.92-1.26,2.05,2.05,0,0,1,1.42-.58c.57,0,.78.43.78,1A12.92,12.92,0,0,1,26,16.09a2.08,2.08,0,0,0-.2.79A1.1,1.1,0,0,0,26.93,18c1.34,0,1.84-2.11,1.84-2.19a.12.12,0,0,0-.14-.13c-.13,0-.14,0-.22.28-.33,1.18-.87,1.76-1.43,1.76-.15,0-.38,0-.38-.48a2.75,2.75,0,0,1,.25-1,13,13,0,0,0,.89-3.22,1.42,1.42,0,0,0-1.6-1.51,2.71,2.71,0,0,0-2.21,1.27,1.25,1.25,0,0,0-1.26-1.27,1.13,1.13,0,0,0-1,.77,6.6,6.6,0,0,0-.46,1.43.14.14,0,0,0,.15.13c.12,0,.13,0,.22-.34.23-.88.49-1.7,1.06-1.7.34,0,.45.23.45.66a7,7,0,0,1-.25,1.32l-.4,1.56c-.05.27-.21.91-.28,1.17s-.26,1.05-.26,1.12a.35.35,0,0,0,.37.36.55.55,0,0,0,.49-.3c0-.07.16-.57.23-.86l.32-1.29.47-1.9" transform="translate(-0.4 -6.73)"/><path d="M32.3,13.42a2.41,2.41,0,0,1,.74-1,1.91,1.91,0,0,1,1.17-.55c.63,0,.92.63.92,1.38a10,10,0,0,1-.76,3.06c-.36.78-1,1.47-1.68,1.47-1,0-1.13-1.24-1.13-1.3a1.24,1.24,0,0,1,0-.23l.7-2.81m-2.48,6.31c-.1.43-.16.54-.75.54-.17,0-.31,0-.31.27,0,0,0,.15.17.15l.57,0h.62l1.34,0c.08,0,.25,0,.25-.26s-.1-.16-.34-.16c-.66,0-.7-.1-.7-.22s.64-2.64.73-3a1.39,1.39,0,0,0,1.29,1c1.62,0,3.38-2.11,3.38-4.22,0-1.32-.75-2.26-1.83-2.26a2.77,2.77,0,0,0-1.85,1.1,1.26,1.26,0,0,0-1.25-1.1,1.11,1.11,0,0,0-1,.75,6.83,6.83,0,0,0-.46,1.45.15.15,0,0,0,.16.13c.11,0,.13,0,.21-.34.22-.85.49-1.7,1.07-1.7.33,0,.44.23.44.66a2.67,2.67,0,0,1-.1.75Z" transform="translate(-0.4 -6.73)"/><path d="M41.2,17.07a1.22,1.22,0,0,0,1.22,1,1.18,1.18,0,0,0,1-.79,7,7,0,0,0,.42-1.4.12.12,0,0,0-.14-.13c-.13,0-.14.07-.2.28-.26,1-.52,1.76-1.09,1.76S42,17.28,42,17.1A3.83,3.83,0,0,1,42.21,16c.09-.39.19-.78.28-1.18l.59-2.34a1.78,1.78,0,0,0,.1-.43.36.36,0,0,0-.39-.36c-.41,0-.51.36-.6.72-.14.56-.92,3.65-1,4.15,0,0-.58,1.18-1.62,1.18-.75,0-.89-.65-.89-1.18a9.52,9.52,0,0,1,.77-2.93,2.57,2.57,0,0,0,.25-.94,1.12,1.12,0,0,0-1.14-1.15c-1.32,0-1.85,2.09-1.85,2.2a.14.14,0,0,0,.15.13c.13,0,.15-.06.21-.26.34-1.23.9-1.78,1.45-1.78.14,0,.37,0,.37.48a4,4,0,0,1-.37,1.33,7.91,7.91,0,0,0-.71,2.69A1.56,1.56,0,0,0,39.49,18a2.2,2.2,0,0,0,1.71-1" transform="translate(-0.4 -6.73)"/><path d="M47.19,12.12h1.32c.27,0,.41,0,.41-.25s-.08-.16-.37-.16H47.29l.53-2.1a.87.87,0,0,0,.06-.33.36.36,0,0,0-.38-.36.58.58,0,0,0-.56.51l-.56,2.28H45c-.29,0-.41,0-.41.27s.1.14.37.14h1.28l-1,3.8a4.44,4.44,0,0,0-.16.83A1.25,1.25,0,0,0,46.44,18c1.45,0,2.23-2.09,2.23-2.19s-.06-.13-.15-.13a.11.11,0,0,0-.11,0s0,0-.13.26c-.3.72-1,1.73-1.8,1.73-.43,0-.46-.36-.46-.68a2.05,2.05,0,0,1,0-.46l1.12-4.5" transform="translate(-0.4 -6.73)"/><path d="M160,12.11a1.47,1.47,0,0,0-1.31-.95c-1.57,0-3.35,2-3.35,4.11,0,1.5.91,2.23,1.83,2.23a2.54,2.54,0,0,0,1.69-.89l-.32,1.29a2.78,2.78,0,0,1-.8,1.65,1.83,1.83,0,0,1-1.45.59,3.82,3.82,0,0,1-1.15-.14.77.77,0,0,0,.58-.69.47.47,0,0,0-.49-.46.74.74,0,0,0-.72.76c0,.59.59.82,1.81.82a3,3,0,0,0,3-2l1.6-6.43a1,1,0,0,0,0-.23.36.36,0,0,0-.37-.36c-.35,0-.55.29-.59.67m-.89,3.57a.94.94,0,0,1-.28.5,2.22,2.22,0,0,1-1.64,1c-.47,0-.92-.37-.92-1.36a9.92,9.92,0,0,1,.75-3,2.25,2.25,0,0,1,1.67-1.38c1,0,1.13,1.18,1.13,1.27l0,.2Z" transform="translate(-0.4 -6.73)"/><path d="M168.57,21s0-.07-.25-.31c-1.43-1.46-2.24-3.83-2.24-6.76A9.51,9.51,0,0,1,168.42,7c.15-.13.15-.16.15-.2a.12.12,0,0,0-.13-.11,5.94,5.94,0,0,0-2.07,2.44,10.26,10.26,0,0,0-1.06,4.75,10.57,10.57,0,0,0,.95,4.53,6.1,6.1,0,0,0,2.18,2.66.12.12,0,0,0,.13-.12" transform="translate(-0.4 -6.73)"/><path d="M176.11,11.64a.72.72,0,0,0-.63.7.44.44,0,0,0,.47.46.75.75,0,0,0,.73-.76c0-.6-.69-.88-1.29-.88a1.83,1.83,0,0,0-1.49,1.14,1.49,1.49,0,0,0-1.48-1.14c-1.47,0-2.24,1.89-2.24,2.2a.14.14,0,0,0,.15.13c.12,0,.15-.08.18-.14.48-1.6,1.45-1.9,1.87-1.9.64,0,.77.6.77,1a6.16,6.16,0,0,1-.26,1.34l-.49,2c-.21.86-.63,1.65-1.39,1.65a1.42,1.42,0,0,1-.73-.19.75.75,0,0,0,.63-.7.45.45,0,0,0-.49-.46.75.75,0,0,0-.72.76c0,.6.68.87,1.29.87a1.77,1.77,0,0,0,1.48-1.13A1.5,1.5,0,0,0,174,17.64c1.47,0,2.24-1.88,2.24-2.19a.12.12,0,0,0-.14-.13c-.13,0-.14.07-.18.18-.39,1.27-1.23,1.86-1.87,1.86s-.78-.38-.78-1a6.63,6.63,0,0,1,.29-1.49l.5-2c.22-.87.71-1.5,1.37-1.5a1.53,1.53,0,0,1,.73.19" transform="translate(-0.4 -6.73)"/><path d="M181.35,13.92a10.62,10.62,0,0,0-.95-4.54,6.11,6.11,0,0,0-2.18-2.65.12.12,0,0,0-.13.11s0,.07.24.32c1.44,1.45,2.24,3.82,2.24,6.75s-.67,5.19-2.34,6.88c-.14.13-.14.16-.14.2a.12.12,0,0,0,.13.12,6.08,6.08,0,0,0,2.07-2.45,10.34,10.34,0,0,0,1.06-4.74" transform="translate(-0.4 -6.73)"/><path d="M167.61,37.94a.72.72,0,0,0-.63.7.44.44,0,0,0,.47.46.75.75,0,0,0,.73-.76c0-.6-.69-.88-1.29-.88a1.83,1.83,0,0,0-1.49,1.14,1.49,1.49,0,0,0-1.48-1.14c-1.47,0-2.24,1.89-2.24,2.2a.14.14,0,0,0,.15.13c.12,0,.15-.08.18-.14.48-1.6,1.45-1.9,1.87-1.9.64,0,.77.6.77,1a6.16,6.16,0,0,1-.26,1.34l-.49,2c-.21.86-.63,1.65-1.39,1.65a1.42,1.42,0,0,1-.73-.19.75.75,0,0,0,.63-.7.45.45,0,0,0-.49-.46.75.75,0,0,0-.72.76c0,.6.68.87,1.29.87A1.77,1.77,0,0,0,164,42.81a1.5,1.5,0,0,0,1.48,1.13c1.47,0,2.24-1.88,2.24-2.19a.12.12,0,0,0-.14-.13c-.13,0-.14.07-.18.18-.39,1.27-1.23,1.86-1.87,1.86s-.78-.38-.78-1A6.63,6.63,0,0,1,165,41.2l.5-2c.22-.87.71-1.5,1.37-1.5a1.53,1.53,0,0,1,.73.19" transform="translate(-0.4 -6.73)"/><path d="M170.06,37.83l1.05-1c1.55-1.37,2.15-1.9,2.15-2.9A2,2,0,0,0,171.15,32a1.83,1.83,0,0,0-1.85,1.8.51.51,0,0,0,.52.56.52.52,0,0,0,.52-.53.5.5,0,0,0-.53-.51h-.13a1.44,1.44,0,0,1,1.34-1c.91,0,1.34.81,1.34,1.62a3.56,3.56,0,0,1-1.05,2.2l-1.9,2.12c-.11.11-.11.13-.11.37H173l.28-1.73H173a3.29,3.29,0,0,1-.22.89,3.63,3.63,0,0,1-.94.07h-1.79" transform="translate(-0.4 -6.73)"/><path d="M124.69,38a1.41,1.41,0,1,0-1.41,1.41A1.41,1.41,0,0,0,124.69,38Z" transform="translate(-0.4 -6.73)"/><path d="M213.13,38a1.41,1.41,0,1,0-1.41,1.41A1.41,1.41,0,0,0,213.13,38Z" transform="translate(-0.4 -6.73)"/><path d="M305,38a1.41,1.41,0,1,0-1.41,1.41A1.41,1.41,0,0,0,305,38Z" transform="translate(-0.4 -6.73)"/><path d="M312.94,34.37v5.41h-3.49Zm.95-1.12c0-.27,0-.35-.21-.35s-.15,0-.27.18l-4.32,6.7v.42h3.78v1.31c0,.53,0,.67-1.08.67h-.29v.42c.33,0,1.47,0,1.87,0s1.55,0,1.88,0v-.42H315c-1,0-1.07-.14-1.07-.67V40.2h1.45v-.42h-1.45Z" transform="translate(-0.4 -6.73)"/><path d="M285.85,17.87c-1.18,0-2.43-.86-2.43-3.1a8.42,8.42,0,0,1,1.66-4.89A4.35,4.35,0,0,1,288.3,8.1c1.26,0,2.48.92,2.48,3a9.07,9.07,0,0,1-1.51,4.64,4.47,4.47,0,0,1-3.42,2.14m6.08-6.26a3.52,3.52,0,0,0-3.56-3.82c-3.08,0-6.18,3.3-6.18,6.62a3.53,3.53,0,0,0,3.58,3.79C288.78,18.2,291.93,15.06,291.93,11.61Z" transform="translate(-0.4 -6.73)"/><path d="M297.5,17.07a1.23,1.23,0,0,0,1.22,1,1.16,1.16,0,0,0,1-.79,6.59,6.59,0,0,0,.43-1.4.12.12,0,0,0-.14-.13c-.13,0-.14.07-.2.28-.26,1-.52,1.76-1.09,1.76s-.43-.48-.43-.66A4.12,4.12,0,0,1,298.5,16c.1-.39.2-.78.29-1.18l.59-2.34a1.78,1.78,0,0,0,.1-.43.36.36,0,0,0-.39-.36c-.41,0-.51.36-.6.72-.14.56-.92,3.65-1,4.15,0,0-.57,1.18-1.62,1.18-.75,0-.89-.65-.89-1.18a9.52,9.52,0,0,1,.77-2.93,2.57,2.57,0,0,0,.25-.94,1.12,1.12,0,0,0-1.14-1.15c-1.32,0-1.85,2.09-1.85,2.2a.15.15,0,0,0,.16.13c.12,0,.14-.06.2-.26.34-1.23.9-1.78,1.45-1.78.14,0,.37,0,.37.48a4,4,0,0,1-.37,1.33,7.91,7.91,0,0,0-.71,2.69,1.56,1.56,0,0,0,1.7,1.69,2.2,2.2,0,0,0,1.71-1" transform="translate(-0.4 -6.73)"/><path d="M303.49,12.12h1.32c.27,0,.42,0,.42-.25s-.09-.16-.38-.16h-1.26l.53-2.1a.87.87,0,0,0,.06-.33.36.36,0,0,0-.38-.36.58.58,0,0,0-.56.51l-.56,2.28h-1.35c-.28,0-.41,0-.41.27s.1.14.37.14h1.28l-.95,3.8a3.7,3.7,0,0,0-.16.83A1.25,1.25,0,0,0,302.74,18C304.19,18,305,16,305,15.85s-.06-.13-.15-.13a.12.12,0,0,0-.11,0s0,0-.13.26c-.3.72-1,1.73-1.8,1.73-.43,0-.46-.36-.46-.68a2.05,2.05,0,0,1,.05-.46l1.12-4.5" transform="translate(-0.4 -6.73)"/><path d="M308.7,13.42a2.41,2.41,0,0,1,.74-1,1.91,1.91,0,0,1,1.17-.55c.64,0,.92.63.92,1.38a10,10,0,0,1-.76,3.06c-.36.78-1,1.47-1.68,1.47-1,0-1.13-1.24-1.13-1.3a1.24,1.24,0,0,1,0-.23l.7-2.81m-2.48,6.31c-.1.43-.16.54-.75.54-.17,0-.32,0-.32.27a.16.16,0,0,0,.18.15l.57,0h.62l1.33,0c.09,0,.26,0,.26-.26s-.1-.16-.34-.16c-.66,0-.7-.1-.7-.22s.64-2.64.73-3a1.39,1.39,0,0,0,1.29,1c1.62,0,3.38-2.11,3.38-4.22,0-1.32-.75-2.26-1.83-2.26a2.77,2.77,0,0,0-1.85,1.1,1.26,1.26,0,0,0-1.25-1.1,1.11,1.11,0,0,0-1,.75,6.83,6.83,0,0,0-.46,1.45.15.15,0,0,0,.16.13c.11,0,.13,0,.21-.34.22-.85.49-1.7,1.07-1.7.33,0,.44.23.44.66a2.67,2.67,0,0,1-.1.75Z" transform="translate(-0.4 -6.73)"/><path d="M317.6,17.07a1.23,1.23,0,0,0,1.22,1,1.16,1.16,0,0,0,1-.79,6.59,6.59,0,0,0,.43-1.4.12.12,0,0,0-.14-.13c-.13,0-.14.07-.2.28-.26,1-.52,1.76-1.09,1.76s-.43-.48-.43-.66A4.12,4.12,0,0,1,318.6,16c.1-.39.2-.78.29-1.18l.59-2.34a1.78,1.78,0,0,0,.1-.43.36.36,0,0,0-.39-.36c-.41,0-.51.36-.6.72-.14.56-.92,3.65-1,4.15,0,0-.57,1.18-1.62,1.18-.75,0-.89-.65-.89-1.18a9.52,9.52,0,0,1,.77-2.93,2.57,2.57,0,0,0,.25-.94,1.12,1.12,0,0,0-1.14-1.15c-1.32,0-1.85,2.09-1.85,2.2a.15.15,0,0,0,.16.13c.13,0,.14-.06.2-.26.34-1.23.9-1.78,1.45-1.78.14,0,.37,0,.37.48a4,4,0,0,1-.37,1.33,7.91,7.91,0,0,0-.71,2.69,1.56,1.56,0,0,0,1.7,1.69,2.2,2.2,0,0,0,1.71-1" transform="translate(-0.4 -6.73)"/><path d="M323.59,12.12h1.32c.27,0,.41,0,.41-.25s-.08-.16-.37-.16h-1.26l.53-2.1a.87.87,0,0,0,.06-.33.36.36,0,0,0-.38-.36.58.58,0,0,0-.56.51l-.56,2.28h-1.35c-.28,0-.41,0-.41.27s.1.14.37.14h1.28l-.95,3.8a3.7,3.7,0,0,0-.16.83A1.25,1.25,0,0,0,322.84,18c1.45,0,2.23-2.09,2.23-2.19s-.06-.13-.15-.13a.12.12,0,0,0-.11,0s0,0-.13.26c-.3.72-1,1.73-1.8,1.73-.43,0-.46-.36-.46-.68a2.05,2.05,0,0,1,.05-.46l1.12-4.5" transform="translate(-0.4 -6.73)"/><path class="cls-1" d="M297.75,35.89c.13.78,1.55,1.94,1.94,2.07-.39.13-1.81,1.3-1.94,2.08" transform="translate(-0.4 -6.73)"/><path class="cls-1" d="M117.43,35.89c.13.78,1.55,1.94,1.94,2.07-.39.13-1.81,1.3-1.94,2.08" transform="translate(-0.4 -6.73)"/><path class="cls-2" d="M206.37,38.37c0-6.37-17.4-11.53-38.87-11.53S128.64,32,128.64,38.37,146,49.91,167.5,49.91,206.37,44.74,206.37,38.37Z" transform="translate(-0.4 -6.73)"/><path class="cls-2" d="M44.79,37.46c0-4.59-9.85-8.32-22-8.32S.8,32.87.8,37.46s9.85,8.33,22,8.33S44.79,42.06,44.79,37.46Z" transform="translate(-0.4 -6.73)"/><path class="cls-2" d="M334.21,37.82c0-4.59-9.85-8.32-22-8.32s-22,3.73-22,8.32,9.84,8.33,22,8.33S334.21,42.42,334.21,37.82Z" transform="translate(-0.4 -6.73)"/><line class="cls-3" x1="34.63" y1="31.24" x2="118.58" y2="31.24"/><line class="cls-3" x1="214.95" y1="31.24" x2="298.9" y2="31.24"/></svg>