<svg id="Layer_1" data-name="Layer 1" xmlns="http://www.w3.org/2000/svg" viewBox="0 0 329.05 42.62"><defs><style>.cls-1,.cls-2,.cls-3{fill:none;}.cls-1,.cls-3{stroke:#2caaca;}.cls-1{stroke-linecap:round;stroke-linejoin:round;stroke-width:0.64px;}.cls-2{stroke:#000;stroke-width:0.8px;}.cls-2,.cls-3{stroke-miterlimit:10;}.cls-3{stroke-width:0.8px;}</style></defs><title>Functions.05</title><path d="M37.71,35.22a1.41,1.41,0,1,0-1.41,1.4A1.41,1.41,0,0,0,37.71,35.22Z" transform="translate(-9.22 -3.98)"/><path d="M30.48,37.44h-.32a5.14,5.14,0,0,1-.3,1.26,3.72,3.72,0,0,1-1.35.13H25.85c.39-.33,1.27-1.25,1.64-1.59,2.19-2,3-2.76,3-4.18a2.78,2.78,0,0,0-3-2.76A2.66,2.66,0,0,0,24.86,33a.68.68,0,1,0,1.35,0,.64.64,0,0,0-.67-.67h-.2a2,2,0,0,1,3.95.71,5,5,0,0,1-1.53,3.2l-2.9,3.25v.34h5.25l.37-2.41" transform="translate(-9.22 -3.98)"/><path d="M23.64,6.4c.13-.5.16-.64,1.21-.64.32,0,.43,0,.43-.28s-.16-.14-.2-.14l-.83,0H22.48l-.9,0c-.12,0-.28,0-.28.27s.12.15.41.15c.89,0,.89.11.89.27a1.47,1.47,0,0,1-.06.32L20.6,14.09c-.13.5-.16.65-1.21.65-.31,0-.44,0-.44.27s.14.14.21.14l.84,0h1.76l.89,0c.12,0,.29,0,.29-.26s-.08-.15-.4-.15c-.89,0-.89-.12-.89-.29a1.27,1.27,0,0,1,.06-.33L23.64,6.4" transform="translate(-9.22 -3.98)"/><path d="M28.62,10.94a4.18,4.18,0,0,1,.92-1.26A2.05,2.05,0,0,1,31,9.1c.57,0,.78.44.78,1a12.81,12.81,0,0,1-.88,3.23,2.12,2.12,0,0,0-.2.79,1.11,1.11,0,0,0,1.13,1.17c1.34,0,1.84-2.12,1.84-2.2a.13.13,0,0,0-.14-.13c-.13,0-.15,0-.22.29C32.94,14.43,32.4,15,31.84,15c-.15,0-.38,0-.38-.47a2.81,2.81,0,0,1,.25-1,13.49,13.49,0,0,0,.89-3.21A1.42,1.42,0,0,0,31,8.82a2.69,2.69,0,0,0-2.21,1.26,1.25,1.25,0,0,0-1.26-1.26,1.12,1.12,0,0,0-1,.76A6.78,6.78,0,0,0,26.05,11a.14.14,0,0,0,.15.13c.12,0,.13,0,.22-.34.23-.88.49-1.7,1.06-1.7.33,0,.45.23.45.66a7.23,7.23,0,0,1-.25,1.33l-.4,1.55c-.06.27-.21.92-.29,1.18s-.25,1-.25,1.12a.35.35,0,0,0,.37.36A.56.56,0,0,0,27.6,15c0-.07.16-.57.23-.86l.31-1.29.48-1.9" transform="translate(-9.22 -3.98)"/><path d="M37.16,10.67a2.4,2.4,0,0,1,.73-1,2,2,0,0,1,1.18-.55c.63,0,.92.64.92,1.38a9.88,9.88,0,0,1-.76,3.06c-.36.78-1,1.47-1.68,1.47-1,0-1.14-1.24-1.14-1.29a1.2,1.2,0,0,1,.05-.23l.7-2.82M34.68,17c-.1.43-.16.54-.75.54-.17,0-.32,0-.32.28,0,0,0,.14.18.14s.38,0,.57,0H35l1.33,0c.09,0,.26,0,.26-.26s-.1-.16-.34-.16c-.66,0-.71-.1-.71-.21s.65-2.65.74-3a1.38,1.38,0,0,0,1.29,1c1.62,0,3.38-2.12,3.38-4.23,0-1.32-.75-2.25-1.83-2.25a2.76,2.76,0,0,0-1.85,1.09A1.25,1.25,0,0,0,36,8.82a1.1,1.1,0,0,0-1,.74A6.83,6.83,0,0,0,34.52,11a.15.15,0,0,0,.16.13c.11,0,.13,0,.21-.34.22-.85.49-1.7,1.07-1.7.33,0,.44.23.44.66a2.67,2.67,0,0,1-.1.75Z" transform="translate(-9.22 -3.98)"/><path d="M46.06,14.32a1.23,1.23,0,0,0,1.22,1,1.17,1.17,0,0,0,1-.79,6.79,6.79,0,0,0,.43-1.41A.13.13,0,0,0,48.6,13c-.13,0-.14.07-.2.29-.26,1-.52,1.75-1.09,1.75s-.43-.47-.43-.66a4.12,4.12,0,0,1,.18-1.08c.1-.39.2-.78.29-1.18l.59-2.34a1.78,1.78,0,0,0,.1-.43A.36.36,0,0,0,47.65,9c-.41,0-.51.36-.6.72-.14.56-.92,3.65-1,4.15,0,0-.58,1.18-1.62,1.18-.75,0-.9-.65-.9-1.18a9.56,9.56,0,0,1,.78-2.93,2.58,2.58,0,0,0,.25-.93A1.12,1.12,0,0,0,43.4,8.82c-1.32,0-1.85,2.08-1.85,2.19a.14.14,0,0,0,.15.13c.13,0,.15-.05.21-.25.34-1.24.9-1.79,1.45-1.79.14,0,.37,0,.37.48a4,4,0,0,1-.37,1.33,7.64,7.64,0,0,0-.71,2.69,1.56,1.56,0,0,0,1.7,1.7,2.2,2.2,0,0,0,1.71-1" transform="translate(-9.22 -3.98)"/><path d="M52.05,9.38h1.32c.27,0,.41,0,.41-.26S53.7,9,53.41,9H52.15l.53-2.1a.87.87,0,0,0,.06-.33.36.36,0,0,0-.38-.36.59.59,0,0,0-.56.51L51.24,9H49.89c-.29,0-.42,0-.42.27s.11.15.38.15h1.28l-1,3.79A3.8,3.8,0,0,0,50,14a1.25,1.25,0,0,0,1.28,1.3c1.45,0,2.23-2.1,2.23-2.2s-.06-.13-.15-.13a.11.11,0,0,0-.11.06s0,0-.13.26c-.3.71-1,1.72-1.8,1.72-.43,0-.46-.36-.46-.68a2.1,2.1,0,0,1,0-.46l1.12-4.49" transform="translate(-9.22 -3.98)"/><path d="M163.87,9c.28,0,.4,0,.4-.28s-.12-.14-.38-.14h-1.16c.27-1.48.48-2.5.59-3a.86.86,0,0,1,.76-.67,1.22,1.22,0,0,1,.75.26.74.74,0,0,0-.73.71.45.45,0,0,0,.48.46.75.75,0,0,0,.72-.79c0-.6-.6-.93-1.23-.93a1.83,1.83,0,0,0-1.51,1,9.87,9.87,0,0,0-.73,2.9h-1c-.27,0-.41,0-.41.26s.08.16.37.16h.92c-.26,1.33-.85,4.58-1.18,6.12-.24,1.25-.46,2.3-1.18,2.3a1,1,0,0,1-.72-.28.72.72,0,0,0,.74-.7.45.45,0,0,0-.49-.46.75.75,0,0,0-.72.79c0,.62.63.93,1.19.93,1.47,0,2.07-2.63,2.23-3.34.26-1.11,1-4.93,1-5.36h1.23" transform="translate(-9.22 -3.98)"/><path d="M173,18.24s0-.07-.25-.31c-1.43-1.45-2.24-3.82-2.24-6.75s.68-5.19,2.34-6.89c.15-.13.15-.15.15-.2A.12.12,0,0,0,172.9,4a5.94,5.94,0,0,0-2.07,2.44,10.28,10.28,0,0,0-1.06,4.76,10.69,10.69,0,0,0,.94,4.52,6.16,6.16,0,0,0,2.19,2.66.12.12,0,0,0,.13-.12" transform="translate(-9.22 -3.98)"/><path d="M180.57,8.89a.72.72,0,0,0-.63.7.45.45,0,0,0,.47.47.76.76,0,0,0,.73-.77c0-.6-.69-.87-1.29-.87a1.82,1.82,0,0,0-1.49,1.13,1.48,1.48,0,0,0-1.48-1.13c-1.47,0-2.24,1.88-2.24,2.19a.14.14,0,0,0,.15.13.17.17,0,0,0,.17-.14c.49-1.59,1.46-1.9,1.87-1.9.65,0,.78.61.78,1a6.16,6.16,0,0,1-.26,1.34l-.49,2c-.21.86-.63,1.65-1.39,1.65a1.42,1.42,0,0,1-.73-.19.75.75,0,0,0,.63-.7.45.45,0,0,0-.49-.46.75.75,0,0,0-.72.76c0,.6.68.88,1.29.88a1.78,1.78,0,0,0,1.48-1.14,1.51,1.51,0,0,0,1.48,1.14c1.47,0,2.24-1.89,2.24-2.2a.13.13,0,0,0-.14-.13c-.13,0-.14.07-.19.19-.38,1.26-1.22,1.85-1.86,1.85s-.78-.37-.78-1a6.57,6.57,0,0,1,.29-1.5l.5-2c.22-.86.7-1.5,1.37-1.5a1.53,1.53,0,0,1,.73.19" transform="translate(-9.22 -3.98)"/><path d="M185.81,11.18a10.56,10.56,0,0,0-.95-4.54A6.1,6.1,0,0,0,182.68,4a.12.12,0,0,0-.13.11s0,.07.24.32c1.44,1.45,2.24,3.82,2.24,6.75s-.67,5.19-2.34,6.88c-.14.13-.14.16-.14.2a.12.12,0,0,0,.13.12,6.18,6.18,0,0,0,2.07-2.44,10.4,10.4,0,0,0,1.06-4.74" transform="translate(-9.22 -3.98)"/><path d="M157,31v5.42h-3.49Zm.94-1.12c0-.27,0-.34-.2-.34s-.15,0-.27.17l-4.32,6.71v.41h3.77v1.31c0,.53,0,.68-1.07.68h-.29v.41c.33,0,1.47,0,1.87,0s1.55,0,1.88,0v-.41H159c-1,0-1.08-.15-1.08-.68V36.85h1.46v-.41h-1.46Z" transform="translate(-9.22 -3.98)"/><path d="M166.57,33.39a.72.72,0,0,0-.63.7.45.45,0,0,0,.47.47.76.76,0,0,0,.73-.77c0-.6-.69-.87-1.29-.87a1.82,1.82,0,0,0-1.49,1.13,1.48,1.48,0,0,0-1.48-1.13c-1.47,0-2.24,1.88-2.24,2.19a.14.14,0,0,0,.15.13.17.17,0,0,0,.17-.14c.49-1.59,1.46-1.9,1.87-1.9.65,0,.78.61.78.95a6.16,6.16,0,0,1-.26,1.34l-.49,2c-.21.86-.63,1.65-1.39,1.65a1.42,1.42,0,0,1-.73-.19.75.75,0,0,0,.63-.7.45.45,0,0,0-.49-.46.75.75,0,0,0-.72.76c0,.6.68.88,1.29.88a1.78,1.78,0,0,0,1.48-1.14,1.51,1.51,0,0,0,1.48,1.14c1.47,0,2.24-1.89,2.24-2.2a.13.13,0,0,0-.14-.13c-.13,0-.14.07-.19.19-.38,1.26-1.22,1.85-1.86,1.85s-.78-.37-.78-1a6.57,6.57,0,0,1,.29-1.5l.5-1.95c.22-.86.7-1.5,1.37-1.5a1.53,1.53,0,0,1,.73.19" transform="translate(-9.22 -3.98)"/><path d="M176.59,35.93h4c.2,0,.45,0,.45-.25s-.24-.28-.45-.28h-4v-4c0-.2,0-.46-.26-.46s-.27.24-.27.46v4h-4c-.2,0-.46,0-.46.26s.25.27.46.27h4v4c0,.2,0,.46.26.46s.27-.25.27-.46v-4" transform="translate(-9.22 -3.98)"/><path d="M186.9,31a4.32,4.32,0,0,0,1.28.22,3.06,3.06,0,0,0,2.65-1.4c0-.05,0-.13-.11-.13a.41.41,0,0,0-.19.06,4.62,4.62,0,0,1-1.87.39,4.8,4.8,0,0,1-1.89-.4.31.31,0,0,0-.15-.05c-.11,0-.11.09-.11.32V34.3c0,.26,0,.34.17.34s.09,0,.23-.19a2.16,2.16,0,0,1,1.8-.93,1.48,1.48,0,0,1,1.25.95,4.76,4.76,0,0,1,.26,1.81,3.75,3.75,0,0,1-.41,2,1.77,1.77,0,0,1-1.5.88,2.23,2.23,0,0,1-2.15-1.7.66.66,0,0,0,.23,0,.63.63,0,1,0-.63-.57,2.62,2.62,0,0,0,2.57,2.61,3.11,3.11,0,0,0,3-3.19,2.91,2.91,0,0,0-2.66-3.13,2.47,2.47,0,0,0-1.82.76V31" transform="translate(-9.22 -3.98)"/><path d="M129.55,35.22a1.41,1.41,0,1,0-1.41,1.4A1.41,1.41,0,0,0,129.55,35.22Z" transform="translate(-9.22 -3.98)"/><path d="M218,35.22a1.41,1.41,0,1,0-1.41,1.4A1.41,1.41,0,0,0,218,35.22Z" transform="translate(-9.22 -3.98)"/><path d="M309.84,35.22a1.41,1.41,0,1,0-1.41,1.4A1.41,1.41,0,0,0,309.84,35.22Z" transform="translate(-9.22 -3.98)"/><path d="M317.7,30.64c0-.33,0-.34-.29-.34a3.18,3.18,0,0,1-2.54.92v.42a4.05,4.05,0,0,0,1.83-.38v7.49c0,.51,0,.69-1.3.69H315v.41c.39,0,1.78,0,2.26,0s1.85,0,2.24,0v-.41H319c-1.26,0-1.3-.18-1.3-.69V30.64" transform="translate(-9.22 -3.98)"/><path d="M323.3,34.69c-.24,0-.3,0-.3.16s.07.15.33.15H324c1.22,0,1.77,1,1.77,2.38,0,1.88-1,2.39-1.68,2.39a2.56,2.56,0,0,1-2.29-1.28.71.71,0,0,0,.88-.71.71.71,0,1,0-1.42,0,2.64,2.64,0,0,0,2.87,2.32,2.87,2.87,0,0,0,3-2.75,2.75,2.75,0,0,0-2.44-2.6,2.72,2.72,0,0,0,2.06-2.53c0-1.14-1.18-2-2.57-2s-2.5.88-2.5,1.92a.63.63,0,0,0,.66.69.65.65,0,0,0,0-1.3h-.16a2.37,2.37,0,0,1,2-1c.48,0,1.41.22,1.41,1.63A3.21,3.21,0,0,1,325,34a1.45,1.45,0,0,1-1.31.69l-.43,0" transform="translate(-9.22 -3.98)"/><path d="M290.71,15.12c-1.18,0-2.43-.86-2.43-3.1a8.37,8.37,0,0,1,1.66-4.88,4.32,4.32,0,0,1,3.21-1.78c1.27,0,2.49.91,2.49,3A9.07,9.07,0,0,1,294.13,13a4.49,4.49,0,0,1-3.42,2.14m6.08-6.26A3.52,3.52,0,0,0,293.23,5c-3.08,0-6.18,3.3-6.18,6.62a3.52,3.52,0,0,0,3.58,3.79C293.64,15.45,296.79,12.31,296.79,8.86Z" transform="translate(-9.22 -3.98)"/><path d="M302.36,14.32a1.23,1.23,0,0,0,1.22,1,1.17,1.17,0,0,0,1-.79A6.79,6.79,0,0,0,305,13.1a.13.13,0,0,0-.14-.13c-.13,0-.14.07-.2.29-.26,1-.52,1.75-1.09,1.75s-.43-.47-.43-.66a4.12,4.12,0,0,1,.18-1.08c.1-.39.2-.78.29-1.18l.59-2.34a1.78,1.78,0,0,0,.1-.43A.36.36,0,0,0,304,9c-.41,0-.51.36-.6.72-.14.56-.92,3.65-1,4.15,0,0-.58,1.18-1.62,1.18-.75,0-.9-.65-.9-1.18a9.56,9.56,0,0,1,.78-2.93,2.58,2.58,0,0,0,.25-.93,1.12,1.12,0,0,0-1.14-1.15c-1.32,0-1.85,2.08-1.85,2.19a.14.14,0,0,0,.15.13c.13,0,.15-.05.21-.25.34-1.24.9-1.79,1.45-1.79.14,0,.37,0,.37.48a4,4,0,0,1-.37,1.33A7.64,7.64,0,0,0,299,13.6a1.56,1.56,0,0,0,1.7,1.7,2.2,2.2,0,0,0,1.71-1" transform="translate(-9.22 -3.98)"/><path d="M308.35,9.38h1.32c.27,0,.41,0,.41-.26S310,9,309.71,9h-1.26l.53-2.1a.87.87,0,0,0,.06-.33.36.36,0,0,0-.38-.36.59.59,0,0,0-.56.51L307.54,9h-1.35c-.29,0-.42,0-.42.27s.11.15.38.15h1.28l-.95,3.79a3.8,3.8,0,0,0-.16.83,1.25,1.25,0,0,0,1.28,1.3c1.45,0,2.23-2.1,2.23-2.2s-.06-.13-.15-.13a.11.11,0,0,0-.11.06s0,0-.13.26c-.3.71-1,1.72-1.8,1.72-.43,0-.46-.36-.46-.68a2.1,2.1,0,0,1,.05-.46l1.12-4.49" transform="translate(-9.22 -3.98)"/><path d="M313.56,10.67a2.4,2.4,0,0,1,.73-1,2,2,0,0,1,1.18-.55c.63,0,.92.64.92,1.38a9.88,9.88,0,0,1-.76,3.06c-.36.78-1,1.47-1.68,1.47-1,0-1.14-1.24-1.14-1.29a1.2,1.2,0,0,1,.05-.23l.7-2.82M311.08,17c-.1.43-.16.54-.75.54-.17,0-.32,0-.32.28,0,0,0,.14.18.14s.38,0,.57,0h.62l1.33,0c.09,0,.26,0,.26-.26s-.1-.16-.34-.16c-.66,0-.71-.1-.71-.21s.65-2.65.74-3a1.38,1.38,0,0,0,1.29,1c1.62,0,3.38-2.12,3.38-4.23,0-1.32-.75-2.25-1.83-2.25a2.76,2.76,0,0,0-1.85,1.09,1.25,1.25,0,0,0-1.25-1.09,1.1,1.1,0,0,0-1,.74,6.83,6.83,0,0,0-.46,1.45.15.15,0,0,0,.16.13c.11,0,.13,0,.21-.34.22-.85.49-1.7,1.07-1.7.33,0,.44.23.44.66a2.67,2.67,0,0,1-.1.75Z" transform="translate(-9.22 -3.98)"/><path d="M322.46,14.32a1.23,1.23,0,0,0,1.22,1,1.17,1.17,0,0,0,1-.79,6.79,6.79,0,0,0,.43-1.41A.13.13,0,0,0,325,13c-.13,0-.14.07-.2.29-.26,1-.52,1.75-1.09,1.75s-.43-.47-.43-.66a4.12,4.12,0,0,1,.18-1.08c.1-.39.2-.78.29-1.18l.59-2.34a1.78,1.78,0,0,0,.1-.43.36.36,0,0,0-.39-.36c-.41,0-.51.36-.6.72-.14.56-.92,3.65-1,4.15,0,0-.58,1.18-1.62,1.18-.75,0-.9-.65-.9-1.18a9.56,9.56,0,0,1,.78-2.93,2.58,2.58,0,0,0,.25-.93,1.12,1.12,0,0,0-1.14-1.15C318.48,8.82,318,10.9,318,11a.14.14,0,0,0,.15.13c.13,0,.15-.05.21-.25.34-1.24.9-1.79,1.45-1.79.14,0,.37,0,.37.48a4,4,0,0,1-.37,1.33,7.64,7.64,0,0,0-.71,2.69,1.56,1.56,0,0,0,1.7,1.7,2.2,2.2,0,0,0,1.71-1" transform="translate(-9.22 -3.98)"/><path d="M328.45,9.38h1.32c.27,0,.41,0,.41-.26S330.1,9,329.81,9h-1.26l.53-2.1a.87.87,0,0,0,.06-.33.36.36,0,0,0-.38-.36.59.59,0,0,0-.56.51L327.64,9h-1.35c-.29,0-.42,0-.42.27s.11.15.38.15h1.28l-.95,3.79a3.8,3.8,0,0,0-.16.83,1.25,1.25,0,0,0,1.28,1.3c1.45,0,2.23-2.1,2.23-2.2s-.06-.13-.15-.13a.11.11,0,0,0-.11.06s0,0-.13.26c-.3.71-1,1.72-1.8,1.72-.43,0-.46-.36-.46-.68a2.1,2.1,0,0,1,.05-.46l1.12-4.49" transform="translate(-9.22 -3.98)"/><path class="cls-1" d="M302.6,33.14c.13.78,1.56,2,1.95,2.08-.39.13-1.82,1.29-1.95,2.07" transform="translate(-9.22 -3.98)"/><path class="cls-1" d="M122.28,33.14c.13.78,1.56,2,2,2.08-.39.13-1.82,1.29-2,2.07" transform="translate(-9.22 -3.98)"/><path class="cls-2" d="M53.61,35.08c0-4.6-9.85-8.33-22-8.33s-22,3.73-22,8.33,9.84,8.32,22,8.32S53.61,39.67,53.61,35.08Z" transform="translate(-9.22 -3.98)"/><path class="cls-2" d="M337.86,35.22c0-4.6-9.84-8.33-22-8.33s-22,3.73-22,8.33,9.85,8.32,22,8.32S337.86,39.81,337.86,35.22Z" transform="translate(-9.22 -3.98)"/><path class="cls-2" d="M211.23,34.67c0-6.37-17.4-11.54-38.87-11.54s-38.87,5.17-38.87,11.54S150.9,46.2,172.36,46.2,211.23,41,211.23,34.67Z" transform="translate(-9.22 -3.98)"/><line class="cls-3" x1="30.67" y1="31.24" x2="114.62" y2="31.24"/><line class="cls-3" x1="210.99" y1="31.24" x2="294.94" y2="31.24"/></svg>