<svg id="Capa_1" data-name="Capa 1" xmlns="http://www.w3.org/2000/svg" viewBox="0 0 512 512"><defs><style>.cls-1{fill:#ffce00;}.cls-2{fill:#ffa300;}.cls-3{fill:#87c7ff;}.cls-4{fill:#4a98f7;}.cls-5{fill:#fff;}.cls-6{fill:#e9edf5;}.cls-7{fill:#2864f0;}</style></defs><circle class="cls-1" cx="256" cy="256" r="256"/><path class="cls-2" d="M254.61,327.64l142.2,142.19a256.91,256.91,0,0,0,95.3-114.71L284.92,147.93Z"/><path class="cls-3" d="M0,256.11C.06,397.45,114.65,512,256,512S511.94,397.45,512,256.11Z"/><path class="cls-4" d="M255.84,256.11V512H256c141.35,0,255.94-114.55,256-255.89Z"/><path class="cls-5" d="M378.5,351s-14.8-178.54-156.85-247.6c0,0,7,177.23-88.15,252.81C133.5,356.18,272.94,421.34,378.5,351Z"/><path class="cls-6" d="M378.5,351S366.16,202.09,255.84,123.64V383.57C295.49,384.52,339.32,377.08,378.5,351Z"/><path class="cls-4" d="M14,339.72C48.69,440,143.93,512,256,512s207.31-72,242-172.28Z"/><path class="cls-7" d="M255.84,339.72V512H256c112.07,0,207.31-72,242-172.28Z"/></svg>