<svg id="Layer_1" data-name="Layer 1" xmlns="http://www.w3.org/2000/svg" viewBox="0 0 351.44 351.13"><defs><style>.cls-1,.cls-2,.cls-3,.cls-4{fill:none;}.cls-1,.cls-2,.cls-4,.cls-5{stroke:#000;}.cls-1,.cls-2,.cls-3,.cls-4,.cls-5{stroke-linecap:round;stroke-miterlimit:10;}.cls-1,.cls-3{stroke-width:0.8px;}.cls-2{stroke-width:0.8px;}.cls-3{stroke:#27c9b8;stroke-dasharray:2.99 2.99;}.cls-4,.cls-5{stroke-width:0.4px;}.cls-5{fill:#27c9b8;opacity:0.2;}</style></defs><title>TrigIden.01</title><line class="cls-1" x1="0.4" y1="182.72" x2="336.97" y2="182.72"/><path d="M351.13,189.94a14.33,14.33,0,0,1-4-1.5v3a14,14,0,0,1,4-1.49" transform="translate(-10.57 -7.21)"/><path d="M361.43,187.19a.71.71,0,0,0-.63.7.45.45,0,0,0,.48.46.75.75,0,0,0,.73-.76c0-.61-.69-.88-1.29-.88a1.83,1.83,0,0,0-1.5,1.14,1.49,1.49,0,0,0-1.48-1.14c-1.46,0-2.24,1.88-2.24,2.2a.15.15,0,0,0,.16.13c.11,0,.14-.09.17-.14.49-1.6,1.45-1.9,1.87-1.9.64,0,.77.6.77.95a6,6,0,0,1-.25,1.33l-.49,2c-.22.86-.64,1.65-1.4,1.65a1.49,1.49,0,0,1-.73-.18.74.74,0,0,0,.63-.71.45.45,0,0,0-.49-.46.75.75,0,0,0-.71.76c0,.61.67.88,1.29.88a1.77,1.77,0,0,0,1.48-1.13,1.51,1.51,0,0,0,1.48,1.13c1.46,0,2.24-1.88,2.24-2.2a.13.13,0,0,0-.14-.13c-.13,0-.15.07-.19.19-.39,1.26-1.22,1.85-1.87,1.85-.5,0-.77-.37-.77-1a6.35,6.35,0,0,1,.28-1.49l.51-2c.21-.86.7-1.49,1.36-1.49a1.51,1.51,0,0,1,.73.19" transform="translate(-10.57 -7.21)"/><line class="cls-1" x1="170.47" y1="302.16" x2="170.47" y2="63.89"/><path d="M181.05,19.85a14.66,14.66,0,0,1-1.49,4h3a14.66,14.66,0,0,1-1.49-4" transform="translate(-10.57 -7.21)"/><path d="M181.1,15.16a2.13,2.13,0,0,1-1.65,1,1.09,1.09,0,0,1-1.08-.69.44.44,0,0,0,.15,0,.73.73,0,0,0,.72-.71.45.45,0,0,0-.49-.44.78.78,0,0,0-.74.87,1.3,1.3,0,0,0,1.44,1.24,3.77,3.77,0,0,0,3.29-2.92L184.15,8a1.64,1.64,0,0,0,0-.25.36.36,0,0,0-.39-.35.55.55,0,0,0-.54.48l-1.07,4.23a1,1,0,0,1-.18.44,1.85,1.85,0,0,1-1.45.89c-.81,0-.88-.79-.88-1.17a9.66,9.66,0,0,1,.78-3,2.62,2.62,0,0,0,.24-.91,1.11,1.11,0,0,0-1.13-1.15c-1.33,0-1.86,2.09-1.86,2.2a.15.15,0,0,0,.16.13c.13,0,.14-.06.2-.26.35-1.21.89-1.78,1.45-1.78.13,0,.38,0,.38.47a3.89,3.89,0,0,1-.38,1.34,7.2,7.2,0,0,0-.7,2.7,1.54,1.54,0,0,0,1.69,1.68A1.92,1.92,0,0,0,182,13h0a5.51,5.51,0,0,1-.87,2.12" transform="translate(-10.57 -7.21)"/><circle class="cls-2" cx="181.05" cy="189.94" r="113.39" transform="translate(-91.85 176.44) rotate(-45)"/><line class="cls-3" x1="268.68" y1="149.53" x2="268.68" y2="125.03"/><line class="cls-4" x1="113.79" y1="180.73" x2="113.79" y2="184.72"/><path d="M119.29,200.34c.25,0,.5,0,.5-.28s-.25-.29-.5-.29h-7.77c-.24,0-.5,0-.5.29s.26.28.5.28h7.77" transform="translate(-10.57 -7.21)"/><path d="M124.43,203.66c-.46,0-1.39-.26-1.67-1.82a18.67,18.67,0,0,1-.15-3,12.58,12.58,0,0,1,.23-3.09,1.71,1.71,0,0,1,1.59-1.41,1.73,1.73,0,0,1,1.65,1.57,14.39,14.39,0,0,1,.19,2.93,17.51,17.51,0,0,1-.16,2.93c-.27,1.58-1.18,1.85-1.68,1.85m2.93-4.61a7.81,7.81,0,0,0-.59-3.45,2.56,2.56,0,0,0-4.71.1,7.68,7.68,0,0,0-.55,3.35,7.22,7.22,0,0,0,.62,3.46,2.56,2.56,0,0,0,2.3,1.44,2.59,2.59,0,0,0,2.39-1.58A8.19,8.19,0,0,0,127.36,199.05Z" transform="translate(-10.57 -7.21)"/><path d="M130.67,203a.7.7,0,1,0-.71.69.71.71,0,0,0,.71-.69" transform="translate(-10.57 -7.21)"/><path d="M133.76,195.42a4.23,4.23,0,0,0,1.28.21,3.07,3.07,0,0,0,2.66-1.39.12.12,0,0,0-.12-.13.42.42,0,0,0-.18.06,4.8,4.8,0,0,1-1.87.38,4.68,4.68,0,0,1-1.9-.4.39.39,0,0,0-.14,0c-.11,0-.11.08-.11.31v4.27c0,.26,0,.35.17.35s.08,0,.23-.19a2.16,2.16,0,0,1,1.79-.93,1.46,1.46,0,0,1,1.25.94,4.6,4.6,0,0,1,.26,1.81,3.79,3.79,0,0,1-.4,2,1.8,1.8,0,0,1-1.51.88,2.22,2.22,0,0,1-2.14-1.69.93.93,0,0,0,.23,0,.64.64,0,1,0-.63-.58A2.62,2.62,0,0,0,135.2,204a3.12,3.12,0,0,0,3-3.19,2.9,2.9,0,0,0-2.65-3.13,2.51,2.51,0,0,0-1.83.76v-3" transform="translate(-10.57 -7.21)"/><line class="cls-4" x1="227.17" y1="180.73" x2="227.17" y2="184.72"/><line class="cls-4" x1="68.43" y1="181.93" x2="68.43" y2="183.52"/><line class="cls-4" x1="79.77" y1="181.93" x2="79.77" y2="183.52"/><line class="cls-4" x1="91.11" y1="181.93" x2="91.11" y2="183.52"/><line class="cls-4" x1="102.45" y1="181.93" x2="102.45" y2="183.52"/><line class="cls-4" x1="125.13" y1="181.93" x2="125.13" y2="183.52"/><line class="cls-4" x1="136.46" y1="181.93" x2="136.46" y2="183.52"/><line class="cls-4" x1="147.8" y1="181.93" x2="147.8" y2="183.52"/><line class="cls-4" x1="159.14" y1="181.93" x2="159.14" y2="183.52"/><line class="cls-4" x1="272.53" y1="181.93" x2="272.53" y2="183.52"/><line class="cls-4" x1="261.19" y1="181.93" x2="261.19" y2="183.52"/><line class="cls-4" x1="249.85" y1="181.93" x2="249.85" y2="183.52"/><line class="cls-4" x1="238.51" y1="181.93" x2="238.51" y2="183.52"/><line class="cls-4" x1="215.83" y1="181.93" x2="215.83" y2="183.52"/><line class="cls-4" x1="204.5" y1="181.93" x2="204.5" y2="183.52"/><line class="cls-4" x1="193.16" y1="181.93" x2="193.16" y2="183.52"/><line class="cls-4" x1="181.82" y1="181.93" x2="181.82" y2="183.52"/><line class="cls-4" x1="172.47" y1="239.42" x2="168.49" y2="239.42"/><path d="M188.53,250.66c-.46,0-1.39-.26-1.67-1.82a18.67,18.67,0,0,1-.15-3,12.58,12.58,0,0,1,.23-3.09,1.71,1.71,0,0,1,1.59-1.41,1.73,1.73,0,0,1,1.65,1.57,14.39,14.39,0,0,1,.19,2.93,17.51,17.51,0,0,1-.16,2.93c-.27,1.58-1.18,1.85-1.68,1.85m2.93-4.61a7.81,7.81,0,0,0-.59-3.45,2.56,2.56,0,0,0-4.71.1,7.68,7.68,0,0,0-.55,3.35,7.22,7.22,0,0,0,.62,3.46,2.56,2.56,0,0,0,2.3,1.44,2.59,2.59,0,0,0,2.39-1.58A8.19,8.19,0,0,0,191.46,246.05Z" transform="translate(-10.57 -7.21)"/><path d="M194.67,250a.7.7,0,1,0-.71.69.71.71,0,0,0,.71-.69" transform="translate(-10.57 -7.21)"/><path d="M197.76,242.42a4.23,4.23,0,0,0,1.28.21,3.07,3.07,0,0,0,2.66-1.39.12.12,0,0,0-.12-.13.42.42,0,0,0-.18.06,4.8,4.8,0,0,1-1.87.38,4.68,4.68,0,0,1-1.9-.4.39.39,0,0,0-.14,0c-.11,0-.11.08-.11.31v4.27c0,.26,0,.35.17.35s.08,0,.23-.19a2.16,2.16,0,0,1,1.79-.93,1.46,1.46,0,0,1,1.25.94,4.6,4.6,0,0,1,.26,1.81,3.79,3.79,0,0,1-.4,2,1.8,1.8,0,0,1-1.51.88,2.22,2.22,0,0,1-2.14-1.69.93.93,0,0,0,.23,0,.64.64,0,1,0-.63-.58A2.62,2.62,0,0,0,199.2,251a3.12,3.12,0,0,0,3-3.19,2.9,2.9,0,0,0-2.65-3.13,2.51,2.51,0,0,0-1.83.76v-3" transform="translate(-10.57 -7.21)"/><line class="cls-4" x1="172.47" y1="126.03" x2="168.49" y2="126.03"/><path d="M187.93,137.86c-.46,0-1.39-.26-1.67-1.82a18.67,18.67,0,0,1-.15-3,12.58,12.58,0,0,1,.23-3.09,1.71,1.71,0,0,1,1.59-1.41,1.73,1.73,0,0,1,1.65,1.57,14.39,14.39,0,0,1,.19,2.93,17.51,17.51,0,0,1-.16,2.93c-.27,1.58-1.18,1.85-1.68,1.85m2.93-4.61a7.81,7.81,0,0,0-.59-3.45,2.56,2.56,0,0,0-4.71.1,7.68,7.68,0,0,0-.55,3.35,7.22,7.22,0,0,0,.62,3.46,2.56,2.56,0,0,0,2.3,1.44,2.59,2.59,0,0,0,2.39-1.58A8.19,8.19,0,0,0,190.86,133.25Z" transform="translate(-10.57 -7.21)"/><path d="M194.07,137.16a.7.7,0,1,0-.71.69.71.71,0,0,0,.71-.69" transform="translate(-10.57 -7.21)"/><path d="M197.16,129.62a4.23,4.23,0,0,0,1.28.21,3.07,3.07,0,0,0,2.66-1.39.12.12,0,0,0-.12-.13.42.42,0,0,0-.18.06,4.8,4.8,0,0,1-1.87.38,4.68,4.68,0,0,1-1.9-.4.39.39,0,0,0-.14,0c-.11,0-.11.08-.11.31v4.27c0,.26,0,.35.17.35s.08,0,.23-.19a2.16,2.16,0,0,1,1.79-.93,1.46,1.46,0,0,1,1.25.94,4.6,4.6,0,0,1,.26,1.81,3.79,3.79,0,0,1-.4,2,1.8,1.8,0,0,1-1.51.88,2.22,2.22,0,0,1-2.14-1.69.93.93,0,0,0,.23,0,.64.64,0,1,0-.63-.58,2.62,2.62,0,0,0,2.57,2.62,3.12,3.12,0,0,0,3-3.19,2.9,2.9,0,0,0-2.65-3.13,2.51,2.51,0,0,0-1.83.76v-3" transform="translate(-10.57 -7.21)"/><line class="cls-4" x1="171.28" y1="284.77" x2="169.68" y2="284.77"/><line class="cls-4" x1="171.28" y1="273.43" x2="169.68" y2="273.43"/><line class="cls-4" x1="171.28" y1="262.09" x2="169.68" y2="262.09"/><line class="cls-4" x1="171.28" y1="250.76" x2="169.68" y2="250.76"/><line class="cls-4" x1="171.28" y1="228.08" x2="169.68" y2="228.08"/><line class="cls-4" x1="171.28" y1="216.74" x2="169.68" y2="216.74"/><line class="cls-4" x1="171.28" y1="205.4" x2="169.68" y2="205.4"/><line class="cls-4" x1="171.28" y1="194.06" x2="169.68" y2="194.06"/><line class="cls-4" x1="171.28" y1="80.68" x2="169.68" y2="80.68"/><line class="cls-4" x1="171.28" y1="92.01" x2="169.68" y2="92.01"/><line class="cls-4" x1="171.28" y1="103.35" x2="169.68" y2="103.35"/><line class="cls-4" x1="171.28" y1="114.69" x2="169.68" y2="114.69"/><line class="cls-4" x1="171.28" y1="137.37" x2="169.68" y2="137.37"/><line class="cls-4" x1="171.28" y1="148.71" x2="169.68" y2="148.71"/><line class="cls-4" x1="171.28" y1="160.05" x2="169.68" y2="160.05"/><line class="cls-4" x1="171.28" y1="171.38" x2="169.68" y2="171.38"/><line class="cls-1" x1="170.48" y1="182.72" x2="268.68" y2="126.03"/><path d="M280.84,133.24a1.6,1.6,0,0,0-3.19,0,1.6,1.6,0,1,0,3.19,0Z" transform="translate(-10.57 -7.21)"/><path class="cls-4" d="M280.84,133.24a1.6,1.6,0,0,0-3.19,0,1.6,1.6,0,1,0,3.19,0Z" transform="translate(-10.57 -7.21)"/><path class="cls-5" d="M181.05,189.94H226.4a45.36,45.36,0,0,0-6.07-22.68l-39.28,22.68" transform="translate(-10.57 -7.21)"/><path d="M213.45,181.87a12.5,12.5,0,0,1-1.17,3.22c-.42.73-.92,1.4-1.53,1.4-.44,0-.8-.34-.8-1.76a12.44,12.44,0,0,1,.46-2.86h3m-2.93-.43a13,13,0,0,1,1.09-3.08c.48-.86,1-1.55,1.61-1.55.48,0,.79.41.79,1.78a10.57,10.57,0,0,1-.46,2.85Zm4.36-2c0-1.46-.46-2.89-1.64-2.89-2,0-4.15,4.21-4.15,7.37,0,.67.14,2.89,1.65,2.89C212.69,186.78,214.88,182.67,214.88,179.41Z" transform="translate(-10.57 -7.21)"/><path d="M286.79,129.84s0-.07-.24-.32c-1.44-1.45-2.24-3.82-2.24-6.75s.67-5.19,2.34-6.88c.14-.13.14-.16.14-.2a.12.12,0,0,0-.13-.12,6.18,6.18,0,0,0-2.07,2.44,10.31,10.31,0,0,0-1.06,4.76,10.57,10.57,0,0,0,1,4.53,6.18,6.18,0,0,0,2.18,2.65.12.12,0,0,0,.13-.11" transform="translate(-10.57 -7.21)"/><path d="M294.43,120.49a.71.71,0,0,0-.63.7.45.45,0,0,0,.48.46.75.75,0,0,0,.73-.76c0-.61-.69-.88-1.29-.88a1.83,1.83,0,0,0-1.5,1.14,1.49,1.49,0,0,0-1.48-1.14c-1.46,0-2.24,1.88-2.24,2.2a.15.15,0,0,0,.16.13c.11,0,.14-.09.17-.14.49-1.6,1.45-1.9,1.87-1.9.64,0,.77.6.77,1a6,6,0,0,1-.25,1.33l-.49,2c-.22.86-.64,1.65-1.4,1.65a1.49,1.49,0,0,1-.73-.18.74.74,0,0,0,.63-.71.45.45,0,0,0-.49-.46.75.75,0,0,0-.71.76c0,.61.67.88,1.29.88a1.77,1.77,0,0,0,1.48-1.13,1.51,1.51,0,0,0,1.48,1.13c1.46,0,2.24-1.88,2.24-2.2a.13.13,0,0,0-.14-.13c-.13,0-.15.07-.19.19-.39,1.26-1.22,1.85-1.87,1.85-.5,0-.77-.37-.77-1a6.35,6.35,0,0,1,.28-1.49l.51-2c.21-.86.7-1.49,1.36-1.49a1.51,1.51,0,0,1,.73.19" transform="translate(-10.57 -7.21)"/><path d="M298.43,126.41c0-.84-.28-1.46-.87-1.46a.68.68,0,0,0-.69.69.69.69,0,0,0,.71.71.63.63,0,0,0,.47-.19s0,0,.06,0,0,.2,0,.28a3.46,3.46,0,0,1-.92,2.34c-.16.17-.16.2-.16.23a.15.15,0,0,0,.14.14,3.42,3.42,0,0,0,1.23-2.71" transform="translate(-10.57 -7.21)"/><path d="M305.7,128a2.13,2.13,0,0,1-1.65,1,1.09,1.09,0,0,1-1.08-.69.44.44,0,0,0,.15,0,.73.73,0,0,0,.72-.71.45.45,0,0,0-.49-.44.78.78,0,0,0-.74.87,1.3,1.3,0,0,0,1.44,1.24,3.77,3.77,0,0,0,3.29-2.92l1.41-5.6a1.64,1.64,0,0,0,0-.25.36.36,0,0,0-.39-.35.55.55,0,0,0-.54.48l-1.07,4.23a1,1,0,0,1-.18.44,1.85,1.85,0,0,1-1.45.89c-.81,0-.88-.79-.88-1.17a9.66,9.66,0,0,1,.78-3,2.62,2.62,0,0,0,.24-.91,1.11,1.11,0,0,0-1.13-1.15c-1.33,0-1.86,2.09-1.86,2.2a.15.15,0,0,0,.16.13c.13,0,.14-.06.2-.26.35-1.21.89-1.78,1.45-1.78.13,0,.38,0,.38.47a3.89,3.89,0,0,1-.38,1.34,7.2,7.2,0,0,0-.7,2.7,1.54,1.54,0,0,0,1.69,1.68,1.92,1.92,0,0,0,1.44-.66h0a5.51,5.51,0,0,1-.87,2.12" transform="translate(-10.57 -7.21)"/><path d="M313.28,122.77a10.77,10.77,0,0,0-.95-4.54,6.16,6.16,0,0,0-2.19-2.66.11.11,0,0,0-.12.12s0,.07.24.31c1.43,1.46,2.24,3.83,2.24,6.76a9.51,9.51,0,0,1-2.34,6.88c-.14.13-.14.16-.14.2a.11.11,0,0,0,.12.11,5.94,5.94,0,0,0,2.07-2.44,10.37,10.37,0,0,0,1.07-4.74" transform="translate(-10.57 -7.21)"/><path d="M279.8,167.16a2.13,2.13,0,0,1-1.65,1,1.09,1.09,0,0,1-1.08-.69.44.44,0,0,0,.15,0,.73.73,0,0,0,.72-.71.45.45,0,0,0-.49-.44.78.78,0,0,0-.74.87,1.3,1.3,0,0,0,1.44,1.24,3.77,3.77,0,0,0,3.29-2.92l1.41-5.6a1.64,1.64,0,0,0,0-.25.36.36,0,0,0-.39-.35.55.55,0,0,0-.54.48l-1.07,4.23a1,1,0,0,1-.18.44,1.85,1.85,0,0,1-1.45.89c-.81,0-.88-.79-.88-1.17a9.66,9.66,0,0,1,.78-3,2.62,2.62,0,0,0,.24-.91,1.11,1.11,0,0,0-1.13-1.15c-1.33,0-1.86,2.09-1.86,2.2a.15.15,0,0,0,.16.13c.13,0,.14-.06.2-.26.35-1.21.89-1.78,1.45-1.78.13,0,.38,0,.38.47a3.89,3.89,0,0,1-.38,1.34,7.2,7.2,0,0,0-.7,2.7,1.54,1.54,0,0,0,1.69,1.68,1.92,1.92,0,0,0,1.44-.66h0a5.51,5.51,0,0,1-.87,2.12" transform="translate(-10.57 -7.21)"/><path d="M239.13,195.69a.71.71,0,0,0-.63.7.45.45,0,0,0,.48.46.75.75,0,0,0,.73-.76c0-.61-.69-.88-1.29-.88a1.83,1.83,0,0,0-1.5,1.14,1.49,1.49,0,0,0-1.48-1.14c-1.46,0-2.24,1.88-2.24,2.2a.15.15,0,0,0,.16.13c.11,0,.14-.09.17-.14.49-1.6,1.45-1.9,1.87-1.9.64,0,.77.6.77.95a6,6,0,0,1-.25,1.33l-.49,2c-.22.86-.64,1.65-1.4,1.65a1.49,1.49,0,0,1-.73-.18.74.74,0,0,0,.63-.71.45.45,0,0,0-.49-.46.75.75,0,0,0-.71.76c0,.61.67.88,1.29.88a1.77,1.77,0,0,0,1.48-1.13,1.51,1.51,0,0,0,1.48,1.13c1.46,0,2.24-1.88,2.24-2.2a.13.13,0,0,0-.14-.13c-.13,0-.15.07-.19.19-.39,1.26-1.22,1.85-1.87,1.85s-.77-.37-.77-1a6.35,6.35,0,0,1,.28-1.49l.51-2c.21-.86.7-1.49,1.36-1.49a1.51,1.51,0,0,1,.73.19" transform="translate(-10.57 -7.21)"/><polyline class="cls-1" points="262.01 181.72 262.01 176.05 267.68 176.05"/><path d="M27.29,186.54s0-.07-.24-.32c-1.44-1.45-2.24-3.82-2.24-6.75s.67-5.19,2.34-6.88c.14-.13.14-.16.14-.2a.12.12,0,0,0-.13-.12,6.18,6.18,0,0,0-2.07,2.44A10.31,10.31,0,0,0,24,179.47,10.57,10.57,0,0,0,25,184a6.18,6.18,0,0,0,2.18,2.65.12.12,0,0,0,.13-.11" transform="translate(-10.57 -7.21)"/><path d="M37.49,179.74c.25,0,.5,0,.5-.28s-.25-.29-.5-.29H29.72c-.24,0-.5,0-.5.29s.26.28.5.28h7.77" transform="translate(-10.57 -7.21)"/><path d="M43.36,173.84c0-.33,0-.35-.29-.35a3.16,3.16,0,0,1-2.54.92v.42a4.18,4.18,0,0,0,1.84-.37v7.48c0,.52,0,.69-1.31.69h-.44v.42c.39,0,1.78,0,2.25,0s1.86,0,2.25,0v-.42h-.45c-1.27,0-1.31-.17-1.31-.69v-8.1" transform="translate(-10.57 -7.21)"/><path d="M49,183.11c0-.84-.28-1.46-.87-1.46a.68.68,0,0,0-.69.69.69.69,0,0,0,.71.71.63.63,0,0,0,.47-.19s0,0,.06,0,0,.2,0,.28a3.46,3.46,0,0,1-.92,2.34c-.16.17-.16.2-.16.23a.15.15,0,0,0,.14.14A3.42,3.42,0,0,0,49,183.11" transform="translate(-10.57 -7.21)"/><path d="M56,183.06c-.46,0-1.39-.26-1.67-1.82a18.67,18.67,0,0,1-.15-3,12.58,12.58,0,0,1,.23-3.09A1.71,1.71,0,0,1,56,173.78a1.73,1.73,0,0,1,1.65,1.57,14.39,14.39,0,0,1,.19,2.93,17.51,17.51,0,0,1-.16,2.93c-.27,1.58-1.18,1.85-1.68,1.85M59,178.45a7.81,7.81,0,0,0-.59-3.45,2.56,2.56,0,0,0-4.71.1,7.68,7.68,0,0,0-.55,3.35,7.22,7.22,0,0,0,.62,3.46,2.56,2.56,0,0,0,2.3,1.44,2.59,2.59,0,0,0,2.39-1.58A8.19,8.19,0,0,0,59,178.45Z" transform="translate(-10.57 -7.21)"/><path d="M63.58,179.47a10.77,10.77,0,0,0-.95-4.54,6.16,6.16,0,0,0-2.19-2.66.11.11,0,0,0-.12.12s0,.07.24.31c1.43,1.46,2.24,3.83,2.24,6.76a9.51,9.51,0,0,1-2.34,6.88c-.14.13-.14.16-.14.2a.11.11,0,0,0,.12.11,5.94,5.94,0,0,0,2.07-2.44,10.37,10.37,0,0,0,1.07-4.74" transform="translate(-10.57 -7.21)"/><path d="M302.49,186.54s0-.07-.24-.32c-1.44-1.45-2.24-3.82-2.24-6.75s.67-5.19,2.34-6.88c.14-.13.14-.16.14-.2a.12.12,0,0,0-.13-.12,6.18,6.18,0,0,0-2.07,2.44,10.31,10.31,0,0,0-1.06,4.76,10.57,10.57,0,0,0,.95,4.53,6.18,6.18,0,0,0,2.18,2.65.12.12,0,0,0,.13-.11" transform="translate(-10.57 -7.21)"/><path d="M307.46,173.84c0-.33,0-.35-.29-.35a3.16,3.16,0,0,1-2.54.92v.42a4.18,4.18,0,0,0,1.84-.37v7.48c0,.52,0,.69-1.31.69h-.44v.42c.39,0,1.78,0,2.25,0s1.86,0,2.25,0v-.42h-.45c-1.27,0-1.31-.17-1.31-.69v-8.1" transform="translate(-10.57 -7.21)"/><path d="M313.13,183.11c0-.84-.28-1.46-.87-1.46a.68.68,0,0,0-.69.69.69.69,0,0,0,.71.71.63.63,0,0,0,.47-.19s0,0,.06,0,0,.2,0,.28a3.46,3.46,0,0,1-.92,2.34c-.16.17-.16.2-.16.23a.15.15,0,0,0,.14.14,3.42,3.42,0,0,0,1.23-2.71" transform="translate(-10.57 -7.21)"/><path d="M320.13,183.06c-.46,0-1.39-.26-1.67-1.82a18.67,18.67,0,0,1-.15-3,12.58,12.58,0,0,1,.23-3.09,1.71,1.71,0,0,1,1.59-1.41,1.73,1.73,0,0,1,1.65,1.57,14.39,14.39,0,0,1,.19,2.93,17.51,17.51,0,0,1-.16,2.93c-.27,1.58-1.18,1.85-1.68,1.85m2.93-4.61a7.81,7.81,0,0,0-.59-3.45,2.56,2.56,0,0,0-4.71.1,7.68,7.68,0,0,0-.55,3.35,7.22,7.22,0,0,0,.62,3.46,2.56,2.56,0,0,0,2.3,1.44,2.59,2.59,0,0,0,2.39-1.58A8.19,8.19,0,0,0,323.06,178.45Z" transform="translate(-10.57 -7.21)"/><path d="M327.68,179.47a10.77,10.77,0,0,0-.95-4.54,6.16,6.16,0,0,0-2.19-2.66.11.11,0,0,0-.12.12s0,.07.24.31c1.43,1.46,2.24,3.83,2.24,6.76a9.51,9.51,0,0,1-2.34,6.88c-.14.13-.14.16-.14.2a.11.11,0,0,0,.12.11,5.94,5.94,0,0,0,2.07-2.44,10.37,10.37,0,0,0,1.07-4.74" transform="translate(-10.57 -7.21)"/><path d="M164.49,324.54s0-.07-.24-.32c-1.44-1.45-2.24-3.82-2.24-6.75s.67-5.19,2.34-6.88c.14-.13.14-.16.14-.2a.12.12,0,0,0-.13-.12,6.18,6.18,0,0,0-2.07,2.44,10.31,10.31,0,0,0-1.06,4.76,10.57,10.57,0,0,0,1,4.53,6.18,6.18,0,0,0,2.18,2.65.12.12,0,0,0,.13-.11" transform="translate(-10.57 -7.21)"/><path d="M168.83,321.06c-.46,0-1.39-.26-1.67-1.82a18.67,18.67,0,0,1-.15-3,12.58,12.58,0,0,1,.23-3.09,1.71,1.71,0,0,1,1.59-1.41,1.73,1.73,0,0,1,1.65,1.57,14.39,14.39,0,0,1,.19,2.93,17.51,17.51,0,0,1-.16,2.93c-.27,1.58-1.18,1.85-1.68,1.85m2.93-4.61a7.81,7.81,0,0,0-.59-3.45,2.56,2.56,0,0,0-4.71.1,7.68,7.68,0,0,0-.55,3.35,7.22,7.22,0,0,0,.62,3.46,2.56,2.56,0,0,0,2.3,1.44,2.59,2.59,0,0,0,2.39-1.58A8.19,8.19,0,0,0,171.76,316.45Z" transform="translate(-10.57 -7.21)"/><path d="M175.13,321.11c0-.84-.28-1.46-.87-1.46a.68.68,0,0,0-.69.69.69.69,0,0,0,.71.71.63.63,0,0,0,.47-.19s0,0,.06,0,0,.2,0,.28a3.46,3.46,0,0,1-.92,2.34c-.16.17-.16.2-.16.23a.15.15,0,0,0,.14.14,3.42,3.42,0,0,0,1.23-2.71" transform="translate(-10.57 -7.21)"/><path d="M188.09,317.74c.25,0,.5,0,.5-.28s-.25-.29-.5-.29h-7.77c-.24,0-.5,0-.5.29s.26.28.5.28h7.77" transform="translate(-10.57 -7.21)"/><path d="M194,311.84c0-.33,0-.35-.29-.35a3.16,3.16,0,0,1-2.54.92v.42a4.18,4.18,0,0,0,1.84-.37v7.48c0,.52,0,.69-1.31.69h-.44v.42c.39,0,1.78,0,2.25,0s1.86,0,2.25,0v-.42h-.45c-1.27,0-1.31-.17-1.31-.69v-8.1" transform="translate(-10.57 -7.21)"/><path d="M200.88,317.47a10.77,10.77,0,0,0-.95-4.54,6.16,6.16,0,0,0-2.19-2.66.11.11,0,0,0-.12.12s0,.07.24.31c1.43,1.46,2.24,3.83,2.24,6.76a9.51,9.51,0,0,1-2.34,6.88c-.14.13-.14.16-.14.2a.11.11,0,0,0,.12.11,5.94,5.94,0,0,0,2.07-2.44,10.37,10.37,0,0,0,1.07-4.74" transform="translate(-10.57 -7.21)"/><path d="M170.09,69.44s0-.07-.24-.32c-1.44-1.45-2.24-3.82-2.24-6.75s.67-5.19,2.34-6.88c.14-.13.14-.16.14-.2a.12.12,0,0,0-.13-.12,6.18,6.18,0,0,0-2.07,2.44,10.31,10.31,0,0,0-1.06,4.76,10.57,10.57,0,0,0,.95,4.53A6.18,6.18,0,0,0,170,69.55a.12.12,0,0,0,.13-.11" transform="translate(-10.57 -7.21)"/><path d="M174.43,66c-.46,0-1.39-.26-1.67-1.82a18.67,18.67,0,0,1-.15-3,12.58,12.58,0,0,1,.23-3.09,1.71,1.71,0,0,1,1.59-1.41,1.73,1.73,0,0,1,1.65,1.57,14.39,14.39,0,0,1,.19,2.93,17.51,17.51,0,0,1-.16,2.93c-.27,1.58-1.18,1.85-1.68,1.85m2.93-4.61a7.81,7.81,0,0,0-.59-3.45,2.56,2.56,0,0,0-4.71.1,7.68,7.68,0,0,0-.55,3.35,7.22,7.22,0,0,0,.62,3.46,2.56,2.56,0,0,0,2.3,1.44,2.59,2.59,0,0,0,2.39-1.58A8.19,8.19,0,0,0,177.36,61.35Z" transform="translate(-10.57 -7.21)"/><path d="M180.73,66c0-.84-.28-1.46-.87-1.46a.68.68,0,0,0-.69.69.69.69,0,0,0,.71.71.63.63,0,0,0,.47-.19s0,0,.06,0,0,.2,0,.28a3.46,3.46,0,0,1-.92,2.34c-.16.17-.16.2-.16.23a.15.15,0,0,0,.14.14A3.42,3.42,0,0,0,180.73,66" transform="translate(-10.57 -7.21)"/><path d="M188.36,56.74c0-.33,0-.35-.29-.35a3.16,3.16,0,0,1-2.54.92v.42a4.18,4.18,0,0,0,1.84-.37v7.48c0,.52,0,.69-1.31.69h-.44V66c.39,0,1.78,0,2.25,0s1.86,0,2.25,0v-.42h-.45c-1.27,0-1.31-.17-1.31-.69v-8.1" transform="translate(-10.57 -7.21)"/><path d="M195.28,62.37a10.77,10.77,0,0,0-.95-4.54,6.16,6.16,0,0,0-2.19-2.66.11.11,0,0,0-.12.12s0,.07.24.31c1.43,1.46,2.24,3.83,2.24,6.76a9.51,9.51,0,0,1-2.34,6.88c-.14.13-.14.16-.14.2a.11.11,0,0,0,.12.11,5.94,5.94,0,0,0,2.07-2.44,10.37,10.37,0,0,0,1.07-4.74" transform="translate(-10.57 -7.21)"/><path class="cls-1" d="M226.4,189.94a45.36,45.36,0,0,0-6.07-22.68" transform="translate(-10.57 -7.21)"/><path d="M231.16,144.51c0-.33,0-.35-.29-.35a3.16,3.16,0,0,1-2.54.92v.42a4.18,4.18,0,0,0,1.84-.37v7.48c0,.52,0,.69-1.31.69h-.45v.42c.39,0,1.79,0,2.26,0s1.85,0,2.24,0v-.42h-.44c-1.27,0-1.31-.17-1.31-.69v-8.1" transform="translate(-10.57 -7.21)"/><line class="cls-1" x1="170.44" y1="350.73" x2="170.44" y2="319.44"/><line class="cls-1" x1="170.48" y1="46.83" x2="170.48" y2="15.54"/><line class="cls-3" x1="268.46" y1="181.29" x2="268.46" y2="164.11"/></svg>