<svg id="Layer_1" data-name="Layer 1" xmlns="http://www.w3.org/2000/svg" viewBox="0 0 331.56 42.27"><defs><style>.cls-1,.cls-2,.cls-3{fill:none;}.cls-1{stroke:#000;stroke-width:0.8px;}.cls-1,.cls-2{stroke-miterlimit:10;}.cls-2,.cls-3{stroke:#2caaca;}.cls-2{stroke-width:0.8px;}.cls-3{stroke-linecap:round;stroke-linejoin:round;stroke-width:0.64px;}</style></defs><title>Functions.04</title><path class="cls-1" d="M49.39,37.46c0-4.6-9.85-8.33-22-8.33s-22,3.73-22,8.33,9.85,8.32,22,8.32S49.39,42.05,49.39,37.46Z" transform="translate(-5 -7.33)"/><path d="M36.26,37.51a1.41,1.41,0,1,0-1.41,1.41A1.41,1.41,0,0,0,36.26,37.51Z" transform="translate(-5 -7.33)"/><path d="M28.52,34.79a.71.71,0,0,0-.63.7.44.44,0,0,0,.47.46.76.76,0,0,0,.74-.76c0-.6-.69-.88-1.3-.88a1.85,1.85,0,0,0-1.49,1.14,1.49,1.49,0,0,0-1.48-1.14c-1.47,0-2.24,1.89-2.24,2.2a.15.15,0,0,0,.16.13c.11,0,.14-.09.17-.14.49-1.6,1.45-1.9,1.87-1.9.64,0,.77.6.77.95a5.53,5.53,0,0,1-.26,1.33l-.49,2c-.21.86-.63,1.65-1.39,1.65a1.49,1.49,0,0,1-.73-.18.74.74,0,0,0,.63-.71.45.45,0,0,0-.49-.46.76.76,0,0,0-.72.77c0,.6.68.87,1.3.87a1.78,1.78,0,0,0,1.48-1.13,1.5,1.5,0,0,0,1.48,1.13c1.46,0,2.24-1.88,2.24-2.2,0-.07-.06-.12-.15-.12s-.14.07-.18.18c-.39,1.27-1.22,1.85-1.87,1.85s-.78-.37-.78-1a6.63,6.63,0,0,1,.29-1.49l.5-2c.22-.86.71-1.49,1.37-1.49a1.51,1.51,0,0,1,.73.19" transform="translate(-5 -7.33)"/><path d="M22.2,8.7c.13-.5.16-.65,1.21-.65.31,0,.43,0,.43-.27s-.16-.14-.21-.14l-.83,0H21l-.9,0c-.12,0-.27,0-.27.27s.11.14.4.14c.89,0,.89.12.89.28a1.39,1.39,0,0,1-.06.31l-1.94,7.75C19,16.89,19,17,18,17c-.32,0-.45,0-.45.27s.14.15.22.15l.83,0h1.77l.89,0c.11,0,.28,0,.28-.26s-.08-.16-.4-.16c-.89,0-.89-.11-.89-.29a1.34,1.34,0,0,1,.06-.33L22.2,8.7" transform="translate(-5 -7.33)"/><path d="M27.17,13.24A3.94,3.94,0,0,1,28.09,12a2.05,2.05,0,0,1,1.42-.58c.58,0,.78.43.78,1a12.92,12.92,0,0,1-.88,3.23,2.08,2.08,0,0,0-.2.79,1.11,1.11,0,0,0,1.14,1.16c1.33,0,1.83-2.11,1.83-2.2s0-.12-.14-.12-.14,0-.21.28c-.34,1.18-.88,1.75-1.44,1.75-.15,0-.38,0-.38-.47a2.75,2.75,0,0,1,.25-1,13,13,0,0,0,.89-3.22,1.42,1.42,0,0,0-1.59-1.51,2.71,2.71,0,0,0-2.22,1.27,1.25,1.25,0,0,0-1.26-1.27,1.13,1.13,0,0,0-1,.77,6.44,6.44,0,0,0-.46,1.43.15.15,0,0,0,.16.13c.11,0,.13,0,.21-.34.23-.88.49-1.7,1.07-1.7.33,0,.44.23.44.66a7.77,7.77,0,0,1-.24,1.32l-.41,1.55c0,.28-.21.92-.28,1.18s-.26,1.05-.26,1.12a.36.36,0,0,0,.37.36.54.54,0,0,0,.49-.3c0-.07.16-.57.23-.86l.32-1.29.47-1.9" transform="translate(-5 -7.33)"/><path d="M35.71,13a2.35,2.35,0,0,1,.74-1,1.89,1.89,0,0,1,1.18-.55c.63,0,.91.63.91,1.38a10,10,0,0,1-.76,3.06c-.36.78-1,1.46-1.68,1.46-1,0-1.13-1.23-1.13-1.29s0-.16,0-.23l.7-2.81m-2.48,6.3c-.1.43-.16.55-.75.55-.17,0-.31,0-.31.27,0,0,0,.15.17.15l.57,0h.62l1.34,0c.08,0,.26,0,.26-.26s-.1-.16-.35-.16c-.66,0-.7-.1-.7-.22s.64-2.64.73-3a1.41,1.41,0,0,0,1.29,1c1.63,0,3.38-2.11,3.38-4.22,0-1.32-.75-2.26-1.83-2.26A2.76,2.76,0,0,0,35.8,12.2a1.24,1.24,0,0,0-1.25-1.09,1.09,1.09,0,0,0-1,.75,6.66,6.66,0,0,0-.46,1.45.15.15,0,0,0,.16.13c.11,0,.13,0,.21-.34.22-.85.49-1.7,1.07-1.7.33,0,.44.23.44.66a2.67,2.67,0,0,1-.1.75Z" transform="translate(-5 -7.33)"/><path d="M44.61,16.62a1.23,1.23,0,0,0,1.22,1,1.17,1.17,0,0,0,1-.79,7.31,7.31,0,0,0,.43-1.41c0-.07-.06-.12-.15-.12s-.14.07-.2.28c-.26,1-.52,1.75-1.09,1.75s-.43-.47-.43-.66a3.78,3.78,0,0,1,.19-1.07c.1-.39.2-.78.28-1.18l.59-2.34a1.78,1.78,0,0,0,.1-.43.36.36,0,0,0-.38-.36c-.42,0-.52.36-.61.72-.14.56-.92,3.64-1,4.15,0,0-.57,1.17-1.62,1.17-.75,0-.89-.64-.89-1.17a9.52,9.52,0,0,1,.77-2.93,2.38,2.38,0,0,0,.25-.94A1.12,1.12,0,0,0,42,11.11c-1.32,0-1.85,2.09-1.85,2.2a.15.15,0,0,0,.16.13c.13,0,.14-.06.2-.26.34-1.23.9-1.78,1.45-1.78.14,0,.37,0,.37.48a3.85,3.85,0,0,1-.37,1.33,7.76,7.76,0,0,0-.7,2.69,1.55,1.55,0,0,0,1.69,1.69,2.2,2.2,0,0,0,1.71-1" transform="translate(-5 -7.33)"/><path d="M50.6,11.67h1.32c.27,0,.42,0,.42-.25s-.09-.16-.38-.16H50.7l.53-2.1a.87.87,0,0,0,.06-.33.36.36,0,0,0-.38-.36.56.56,0,0,0-.55.5l-.57,2.29H48.44c-.28,0-.41,0-.41.27s.1.14.37.14h1.28l-1,3.8a4.44,4.44,0,0,0-.16.83,1.25,1.25,0,0,0,1.28,1.29c1.45,0,2.23-2.09,2.23-2.2s-.06-.12-.15-.12a.12.12,0,0,0-.11.05,1.38,1.38,0,0,0-.13.26c-.3.72-1,1.72-1.8,1.72-.43,0-.46-.35-.46-.67a2.05,2.05,0,0,1,0-.46l1.12-4.5" transform="translate(-5 -7.33)"/><path d="M137.79,13c1.79-.38,3.18-1.53,3.18-2.77S139.83,8,137.84,8h-3.9c-.28,0-.41,0-.41.27s.1.14.37.14c.86,0,.86.12.86.28a1.51,1.51,0,0,1,0,.33l-1.94,7.73c-.13.5-.16.64-1.15.64-.33,0-.43,0-.43.27s.15.15.2.15l.83,0h1.7l.81,0c.12,0,.28,0,.28-.27s-.13-.15-.35-.15c-.87,0-.87-.11-.87-.26a1,1,0,0,1,0-.23l1-3.86h1.72c1.37,0,1.63.86,1.63,1.34a7.08,7.08,0,0,1-.25,1.14,4.41,4.41,0,0,0-.2,1.1c0,1,.83,1.49,1.8,1.49,1.16,0,1.66-1.42,1.66-1.62a.14.14,0,0,0-.16-.15c-.11,0-.14.09-.17.2-.34,1-.93,1.28-1.29,1.28s-.59-.16-.59-.8c0-.35.17-1.65.19-1.73a4.61,4.61,0,0,0,.07-.7,1.78,1.78,0,0,0-1.4-1.67m-2-4c.13-.53.18-.56.74-.56h1c1.23,0,2.15.38,2.15,1.5,0,.73-.37,2.84-3.26,2.84h-1.62Z" transform="translate(-5 -7.33)"/><path d="M143.29,14.23c.62-2.21,2-2.43,2.44-2.43a1,1,0,0,1,1.07.92c0,1.51-2.3,1.51-2.9,1.51h-.61m.69.29a6.63,6.63,0,0,0,2.06-.29,1.64,1.64,0,0,0,1.19-1.51c0-.63-.55-1.21-1.5-1.21a3.89,3.89,0,0,0-3.67,3.92c0,1.51.86,2.56,2.17,2.56a3.81,3.81,0,0,0,3.19-1.71.17.17,0,0,0-.15-.15s-.06,0-.18.14a3.68,3.68,0,0,1-2.83,1.43c-.82,0-1.25-.64-1.25-1.7a5.93,5.93,0,0,1,.21-1.48Z" transform="translate(-5 -7.33)"/><path d="M151.56,8.24a1.43,1.43,0,0,0,0-.22c0-.14-.14-.14-.17-.14l-.79.07-.72.06c-.34,0-.44,0-.44.3s.14.14.28.14c.74,0,.74.13.74.28a1.19,1.19,0,0,1-.07.34l-1.79,7.13a1.67,1.67,0,0,0-.07.5A1.25,1.25,0,0,0,149.84,18a1.16,1.16,0,0,0,1-.76,6.55,6.55,0,0,0,.44-1.44.13.13,0,0,0-.14-.12c-.13,0-.15.07-.2.28-.26,1-.52,1.75-1.1,1.75s-.43-.45-.43-.66a3.22,3.22,0,0,1,.1-.76l2-8" transform="translate(-5 -7.33)"/><path d="M157.66,12.46a1.44,1.44,0,0,0-1.3-1c-1.62,0-3.37,2.1-3.37,4.23,0,1.42.83,2.25,1.81,2.25a2.65,2.65,0,0,0,1.86-1.09A1.25,1.25,0,0,0,157.91,18a1.18,1.18,0,0,0,1-.77,7.28,7.28,0,0,0,.43-1.43c0-.07-.06-.12-.15-.12s-.14.07-.2.28c-.21.85-.48,1.75-1.07,1.75-.42,0-.45-.37-.45-.66a4,4,0,0,1,.17-1c.1-.36.18-.68.29-1.1.53-2.15.66-2.67.66-2.75a.35.35,0,0,0-.37-.36c-.46,0-.58.5-.6.67m-.93,3.68a1.19,1.19,0,0,1-.27.54,2.37,2.37,0,0,1-1.62,1c-.59,0-.92-.53-.92-1.37a10.21,10.21,0,0,1,.72-3c.49-1,1.16-1.52,1.72-1.52.95,0,1.14,1.18,1.14,1.29s-.05.2-.06.23Z" transform="translate(-5 -7.33)"/><path d="M162.6,12.07h1.32c.27,0,.42,0,.42-.25s-.09-.16-.38-.16H162.7l.53-2.1a.87.87,0,0,0,.06-.33.36.36,0,0,0-.38-.36.56.56,0,0,0-.55.5l-.57,2.29h-1.35c-.28,0-.41,0-.41.27s.1.14.37.14h1.28l-1,3.8a4.44,4.44,0,0,0-.16.83A1.25,1.25,0,0,0,161.85,18c1.45,0,2.23-2.09,2.23-2.2s-.06-.12-.15-.12a.12.12,0,0,0-.11.05,1.38,1.38,0,0,0-.13.26c-.3.72-1,1.72-1.8,1.72-.43,0-.46-.35-.46-.67a2.05,2.05,0,0,1,0-.46l1.12-4.5" transform="translate(-5 -7.33)"/><path d="M168.76,8.88a.48.48,0,0,0-.49-.47.74.74,0,0,0-.7.69.46.46,0,0,0,.47.47.75.75,0,0,0,.72-.69m.12,6.91c0-.07-.06-.12-.15-.12s-.14,0-.21.28c-.38,1.31-1,1.75-1.44,1.75-.17,0-.37,0-.37-.47A3.87,3.87,0,0,1,167,16l1-2.67a1.72,1.72,0,0,0,.15-.65,1.12,1.12,0,0,0-1.14-1.15c-1.32,0-1.85,2.09-1.85,2.2a.15.15,0,0,0,.16.13c.13,0,.14-.06.2-.26.34-1.2.89-1.78,1.45-1.78.13,0,.37,0,.37.48a3.74,3.74,0,0,1-.3,1.16l-1,2.67a2,2,0,0,0-.18.72A1.11,1.11,0,0,0,167,18C168.36,18,168.88,15.9,168.88,15.79Z" transform="translate(-5 -7.33)"/><path d="M172.41,17.7c-.72,0-1.25-.57-1.25-1.57a7.8,7.8,0,0,1,.75-2.85,2.52,2.52,0,0,1,2-1.48c.7,0,1.25.58,1.25,1.58a7.25,7.25,0,0,1-.85,3,2.46,2.46,0,0,1-1.94,1.33m3.75-3.8a2.21,2.21,0,0,0-2.2-2.39c-1.89,0-3.76,2.07-3.76,4.1A2.21,2.21,0,0,0,172.4,18,4.23,4.23,0,0,0,176.16,13.9Z" transform="translate(-5 -7.33)"/><path d="M179.37,13.64a3.94,3.94,0,0,1,.92-1.26,2.05,2.05,0,0,1,1.42-.58c.58,0,.78.43.78,1a12.92,12.92,0,0,1-.88,3.23,2.08,2.08,0,0,0-.2.79A1.11,1.11,0,0,0,182.55,18c1.33,0,1.83-2.11,1.83-2.2s0-.12-.14-.12-.14,0-.21.28c-.34,1.18-.88,1.75-1.44,1.75-.15,0-.38,0-.38-.47a2.75,2.75,0,0,1,.25-1,13,13,0,0,0,.89-3.22,1.42,1.42,0,0,0-1.59-1.51,2.71,2.71,0,0,0-2.22,1.27,1.25,1.25,0,0,0-1.26-1.27,1.13,1.13,0,0,0-1,.77,6.44,6.44,0,0,0-.46,1.43.15.15,0,0,0,.16.13c.11,0,.13,0,.21-.34.23-.88.49-1.7,1.07-1.7.33,0,.44.23.44.66a7.77,7.77,0,0,1-.24,1.32L178,15.33c-.05.28-.21.92-.28,1.18s-.26,1-.26,1.12a.36.36,0,0,0,.37.36.54.54,0,0,0,.49-.3c0-.07.16-.57.23-.86l.32-1.29.47-1.9" transform="translate(-5 -7.33)"/><path d="M188,15l.72.14a1.07,1.07,0,0,1,.83,1c0,.44-.4,1.6-2.07,1.6-.3,0-1.38,0-1.67-.83a.72.72,0,0,0,.86-.69.44.44,0,0,0-.48-.46.79.79,0,0,0-.74.89c0,.85.87,1.38,2,1.38a2.56,2.56,0,0,0,2.82-2.35,1.39,1.39,0,0,0-.45-1.08,2.59,2.59,0,0,0-1.48-.58c-.39-.08-1-.21-1-.86A1.45,1.45,0,0,1,189,11.8a1.27,1.27,0,0,1,1.34.75.6.6,0,0,0-.66.56.39.39,0,0,0,.4.39c.2,0,.6-.16.6-.77s-.54-1.22-1.66-1.22a2.22,2.22,0,0,0-2.39,2.07c0,1.09,1.07,1.32,1.4,1.4" transform="translate(-5 -7.33)"/><path d="M195.45,8.24a1.43,1.43,0,0,0,0-.22c0-.14-.14-.14-.17-.14l-.79.07-.72.06c-.36,0-.46,0-.46.3s.12.14.32.14c.7,0,.71.13.71.28a.75.75,0,0,1,0,.24l-2.08,8.32a.92.92,0,0,0-.06.33.36.36,0,0,0,.39.37.59.59,0,0,0,.5-.34l.65-2.6c.07-.32.16-.62.23-.94a2.45,2.45,0,0,1,.43-1,2.49,2.49,0,0,1,2-1.28c.57,0,.77.43.77,1a12.79,12.79,0,0,1-.88,3.23,2.29,2.29,0,0,0-.2.79A1.11,1.11,0,0,0,197.26,18c1.33,0,1.84-2.11,1.84-2.2s-.06-.12-.15-.12-.14,0-.21.28c-.33,1.15-.86,1.75-1.44,1.75-.14,0-.37,0-.37-.47a3.21,3.21,0,0,1,.23-1,13,13,0,0,0,.9-3.22,1.42,1.42,0,0,0-1.59-1.51,2.67,2.67,0,0,0-2.13,1.14l1.11-4.41" transform="translate(-5 -7.33)"/><path d="M203.36,8.88a.48.48,0,0,0-.49-.47.74.74,0,0,0-.7.69.46.46,0,0,0,.47.47.75.75,0,0,0,.72-.69m.12,6.91c0-.07-.06-.12-.15-.12s-.14,0-.21.28c-.38,1.31-1,1.75-1.44,1.75-.17,0-.37,0-.37-.47a3.87,3.87,0,0,1,.33-1.25l1-2.67a1.72,1.72,0,0,0,.15-.65,1.12,1.12,0,0,0-1.14-1.15c-1.32,0-1.85,2.09-1.85,2.2a.15.15,0,0,0,.16.13c.13,0,.14-.06.2-.26.34-1.2.89-1.78,1.45-1.78.13,0,.37,0,.37.48a3.74,3.74,0,0,1-.3,1.16l-1,2.67a2,2,0,0,0-.18.72A1.11,1.11,0,0,0,201.64,18C203,18,203.48,15.9,203.48,15.79Z" transform="translate(-5 -7.33)"/><path d="M207.31,13.37a2.35,2.35,0,0,1,.74-1,1.89,1.89,0,0,1,1.18-.55c.63,0,.91.63.91,1.38a10,10,0,0,1-.76,3.06c-.36.78-1,1.46-1.68,1.46-1,0-1.13-1.23-1.13-1.29s0-.16,0-.23l.7-2.81m-2.48,6.3c-.1.43-.16.55-.75.55-.17,0-.31,0-.31.27,0,0,0,.15.17.15s.39,0,.57,0h.62l1.34,0c.08,0,.26,0,.26-.26s-.1-.16-.35-.16c-.66,0-.7-.1-.7-.22s.64-2.64.73-3a1.41,1.41,0,0,0,1.29,1c1.63,0,3.38-2.11,3.38-4.22,0-1.32-.75-2.26-1.83-2.26a2.76,2.76,0,0,0-1.85,1.09,1.24,1.24,0,0,0-1.25-1.09,1.09,1.09,0,0,0-1,.75,6.66,6.66,0,0,0-.46,1.45.15.15,0,0,0,.16.13c.11,0,.13,0,.21-.34.22-.85.49-1.7,1.07-1.7.33,0,.44.23.44.66a2.67,2.67,0,0,1-.1.75Z" transform="translate(-5 -7.33)"/><path d="M146.69,42.66a2.14,2.14,0,0,1-1.65,1A1.08,1.08,0,0,1,144,43a.39.39,0,0,0,.14,0,.73.73,0,0,0,.72-.71.44.44,0,0,0-.49-.44.77.77,0,0,0-.73.87A1.3,1.3,0,0,0,145,44a3.78,3.78,0,0,0,3.29-2.92l1.4-5.6a.93.93,0,0,0,.05-.24.36.36,0,0,0-.39-.36.57.57,0,0,0-.55.49l-1.06,4.22a.86.86,0,0,1-.19.44,1.81,1.81,0,0,1-1.45.89c-.8,0-.87-.79-.87-1.17a9.91,9.91,0,0,1,.77-3,2.46,2.46,0,0,0,.25-.91,1.12,1.12,0,0,0-1.14-1.15c-1.32,0-1.85,2.09-1.85,2.2a.15.15,0,0,0,.16.13c.13,0,.14-.06.2-.26.34-1.2.89-1.78,1.45-1.78.13,0,.37,0,.37.48a3.85,3.85,0,0,1-.37,1.33,7.2,7.2,0,0,0-.7,2.7,1.54,1.54,0,0,0,1.69,1.68,1.93,1.93,0,0,0,1.44-.66v0a5.51,5.51,0,0,1-.86,2.11" transform="translate(-5 -7.33)"/><path d="M164,39.07c.2,0,.46,0,.46-.26s-.25-.28-.46-.28h-8.46c-.2,0-.46,0-.46.26s.24.28.46.28H164m0-2.68c.2,0,.46,0,.46-.25s-.25-.28-.46-.28h-8.46c-.2,0-.46,0-.46.26s.24.27.46.27Z" transform="translate(-5 -7.33)"/><path d="M175.62,35.27c.29,0,.4,0,.4-.27s-.11-.14-.37-.14h-1.17c.28-1.48.48-2.5.59-3a.86.86,0,0,1,.76-.68,1.2,1.2,0,0,1,.75.26.74.74,0,0,0-.73.72.45.45,0,0,0,.49.46.76.76,0,0,0,.72-.79c0-.6-.61-.94-1.24-.94a1.85,1.85,0,0,0-1.51,1,10.09,10.09,0,0,0-.73,2.91h-1c-.28,0-.42,0-.42.26s.09.15.37.15h.92c-.26,1.34-.85,4.59-1.18,6.12-.24,1.25-.45,2.3-1.17,2.3a1.05,1.05,0,0,1-.72-.27.72.72,0,0,0,.73-.7.46.46,0,0,0-.49-.47.77.77,0,0,0-.72.8c0,.61.64.93,1.2.93,1.46,0,2.07-2.63,2.22-3.35.26-1.1,1-4.93,1-5.36h1.22" transform="translate(-5 -7.33)"/><path d="M184.68,44.54s0-.07-.24-.32c-1.44-1.45-2.25-3.82-2.25-6.75s.68-5.18,2.35-6.88c.14-.13.14-.16.14-.2a.12.12,0,0,0-.13-.12,6.08,6.08,0,0,0-2.07,2.45,10.24,10.24,0,0,0-1.06,4.75,10.57,10.57,0,0,0,1,4.53,6,6,0,0,0,2.18,2.65c.06,0,.13,0,.13-.11" transform="translate(-5 -7.33)"/><path d="M192.32,35.19a.71.71,0,0,0-.63.7.44.44,0,0,0,.47.46.76.76,0,0,0,.74-.76c0-.6-.69-.88-1.3-.88a1.85,1.85,0,0,0-1.49,1.14,1.49,1.49,0,0,0-1.48-1.14c-1.47,0-2.24,1.89-2.24,2.2a.15.15,0,0,0,.16.13c.11,0,.14-.09.17-.14.49-1.6,1.45-1.9,1.87-1.9.64,0,.77.6.77,1a5.53,5.53,0,0,1-.26,1.33l-.49,2c-.21.86-.63,1.65-1.39,1.65a1.49,1.49,0,0,1-.73-.18.74.74,0,0,0,.63-.71.45.45,0,0,0-.49-.46.76.76,0,0,0-.72.77c0,.6.68.87,1.3.87a1.78,1.78,0,0,0,1.48-1.13,1.5,1.5,0,0,0,1.48,1.13c1.46,0,2.24-1.88,2.24-2.2,0-.07-.06-.12-.15-.12s-.14.07-.18.18c-.39,1.27-1.22,1.85-1.87,1.85-.5,0-.78-.37-.78-1a6.63,6.63,0,0,1,.29-1.49l.5-2c.22-.86.71-1.49,1.37-1.49a1.51,1.51,0,0,1,.73.19" transform="translate(-5 -7.33)"/><path d="M197.56,37.47a10.62,10.62,0,0,0-.95-4.54,6.1,6.1,0,0,0-2.18-2.66.12.12,0,0,0-.13.12s0,.07.25.31c1.43,1.46,2.24,3.83,2.24,6.76a9.51,9.51,0,0,1-2.34,6.88c-.15.13-.15.16-.15.2s.07.11.13.11a5.94,5.94,0,0,0,2.07-2.44,10.34,10.34,0,0,0,1.06-4.74" transform="translate(-5 -7.33)"/><path d="M128.1,37.51a1.41,1.41,0,1,0-1.41,1.41A1.41,1.41,0,0,0,128.1,37.51Z" transform="translate(-5 -7.33)"/><path d="M216.55,37.51a1.41,1.41,0,1,0-1.41,1.41A1.41,1.41,0,0,0,216.55,37.51Z" transform="translate(-5 -7.33)"/><path d="M308.39,37.51A1.41,1.41,0,1,0,307,38.92,1.41,1.41,0,0,0,308.39,37.51Z" transform="translate(-5 -7.33)"/><path d="M315.89,40.86a2.14,2.14,0,0,1-1.65,1,1.08,1.08,0,0,1-1.08-.69.39.39,0,0,0,.14,0,.73.73,0,0,0,.72-.71.44.44,0,0,0-.49-.44.77.77,0,0,0-.73.87,1.3,1.3,0,0,0,1.44,1.24,3.78,3.78,0,0,0,3.29-2.92l1.4-5.6a.93.93,0,0,0,.05-.24.36.36,0,0,0-.39-.36.57.57,0,0,0-.55.49L317,37.77a.86.86,0,0,1-.19.44,1.81,1.81,0,0,1-1.45.89c-.8,0-.87-.79-.87-1.17a9.91,9.91,0,0,1,.77-3,2.46,2.46,0,0,0,.25-.91,1.12,1.12,0,0,0-1.14-1.15c-1.32,0-1.85,2.09-1.85,2.2a.15.15,0,0,0,.16.13c.13,0,.14-.06.2-.26.34-1.2.89-1.78,1.45-1.78.13,0,.37,0,.37.48a3.85,3.85,0,0,1-.37,1.33,7.2,7.2,0,0,0-.7,2.7,1.54,1.54,0,0,0,1.69,1.68,1.93,1.93,0,0,0,1.44-.66v0a5.51,5.51,0,0,1-.86,2.11" transform="translate(-5 -7.33)"/><path d="M289.26,17.42c-1.17,0-2.42-.86-2.42-3.1a8.41,8.41,0,0,1,1.65-4.89,4.37,4.37,0,0,1,3.22-1.78c1.26,0,2.48.92,2.48,3a9,9,0,0,1-1.51,4.64,4.5,4.5,0,0,1-3.42,2.14m6.08-6.26a3.53,3.53,0,0,0-3.56-3.83c-3.08,0-6.18,3.31-6.18,6.63a3.53,3.53,0,0,0,3.58,3.79C292.19,17.75,295.34,14.6,295.34,11.16Z" transform="translate(-5 -7.33)"/><path d="M300.91,16.62a1.23,1.23,0,0,0,1.22,1,1.17,1.17,0,0,0,1-.79,7.31,7.31,0,0,0,.43-1.41c0-.07-.06-.12-.15-.12s-.14.07-.2.28c-.26,1-.52,1.75-1.09,1.75s-.43-.47-.43-.66a3.78,3.78,0,0,1,.19-1.07c.1-.39.2-.78.28-1.18l.59-2.34a1.78,1.78,0,0,0,.1-.43.36.36,0,0,0-.38-.36c-.42,0-.52.36-.61.72-.14.56-.92,3.64-1,4.15,0,0-.57,1.17-1.62,1.17-.75,0-.89-.64-.89-1.17a9.52,9.52,0,0,1,.77-2.93,2.38,2.38,0,0,0,.25-.94,1.12,1.12,0,0,0-1.14-1.15c-1.32,0-1.85,2.09-1.85,2.2a.15.15,0,0,0,.16.13c.13,0,.14-.06.2-.26.34-1.23.9-1.78,1.45-1.78.14,0,.37,0,.37.48a3.85,3.85,0,0,1-.37,1.33,7.76,7.76,0,0,0-.7,2.69,1.55,1.55,0,0,0,1.69,1.69,2.2,2.2,0,0,0,1.71-1" transform="translate(-5 -7.33)"/><path d="M306.9,11.67h1.32c.27,0,.42,0,.42-.25s-.09-.16-.38-.16H307l.53-2.1a.87.87,0,0,0,.06-.33.36.36,0,0,0-.38-.36.56.56,0,0,0-.55.5l-.57,2.29h-1.35c-.28,0-.41,0-.41.27s.1.14.37.14H306l-1,3.8a4.44,4.44,0,0,0-.16.83,1.25,1.25,0,0,0,1.28,1.29c1.45,0,2.23-2.09,2.23-2.2s-.06-.12-.15-.12a.12.12,0,0,0-.11.05,1.38,1.38,0,0,0-.13.26c-.3.72-1,1.72-1.8,1.72-.43,0-.46-.35-.46-.67a2.05,2.05,0,0,1,0-.46l1.12-4.5" transform="translate(-5 -7.33)"/><path d="M312.11,13a2.35,2.35,0,0,1,.74-1A1.89,1.89,0,0,1,314,11.4c.63,0,.91.63.91,1.38a10,10,0,0,1-.76,3.06c-.36.78-1,1.46-1.68,1.46-1,0-1.13-1.23-1.13-1.29s0-.16,0-.23l.7-2.81m-2.48,6.3c-.1.43-.16.55-.75.55-.17,0-.31,0-.31.27,0,0,0,.15.17.15l.57,0h.62l1.34,0c.08,0,.26,0,.26-.26s-.1-.16-.35-.16c-.66,0-.7-.1-.7-.22s.64-2.64.73-3a1.41,1.41,0,0,0,1.29,1c1.63,0,3.38-2.11,3.38-4.22,0-1.32-.75-2.26-1.83-2.26a2.76,2.76,0,0,0-1.85,1.09A1.24,1.24,0,0,0,311,11.11a1.09,1.09,0,0,0-1,.75,6.66,6.66,0,0,0-.46,1.45.15.15,0,0,0,.16.13c.11,0,.13,0,.21-.34.22-.85.49-1.7,1.07-1.7.33,0,.44.23.44.66a2.67,2.67,0,0,1-.1.75Z" transform="translate(-5 -7.33)"/><path d="M321,16.62a1.23,1.23,0,0,0,1.22,1,1.17,1.17,0,0,0,1-.79,7.31,7.31,0,0,0,.43-1.41c0-.07-.06-.12-.15-.12s-.14.07-.2.28c-.26,1-.52,1.75-1.09,1.75s-.43-.47-.43-.66a3.78,3.78,0,0,1,.19-1.07c.1-.39.2-.78.28-1.18l.59-2.34a1.78,1.78,0,0,0,.1-.43.36.36,0,0,0-.38-.36c-.42,0-.52.36-.61.72-.14.56-.92,3.64-1,4.15,0,0-.57,1.17-1.62,1.17-.75,0-.89-.64-.89-1.17a9.52,9.52,0,0,1,.77-2.93,2.38,2.38,0,0,0,.25-.94,1.12,1.12,0,0,0-1.14-1.15c-1.32,0-1.85,2.09-1.85,2.2a.15.15,0,0,0,.16.13c.13,0,.14-.06.2-.26.34-1.23.9-1.78,1.45-1.78.14,0,.37,0,.37.48a3.85,3.85,0,0,1-.37,1.33,7.76,7.76,0,0,0-.7,2.69,1.55,1.55,0,0,0,1.69,1.69,2.2,2.2,0,0,0,1.71-1" transform="translate(-5 -7.33)"/><path d="M327,11.67h1.32c.27,0,.42,0,.42-.25s-.09-.16-.38-.16H327.1l.53-2.1a.87.87,0,0,0,.06-.33.36.36,0,0,0-.38-.36.56.56,0,0,0-.55.5l-.57,2.29h-1.35c-.28,0-.41,0-.41.27s.1.14.37.14h1.28l-.95,3.8a4.44,4.44,0,0,0-.16.83,1.25,1.25,0,0,0,1.28,1.29c1.45,0,2.23-2.09,2.23-2.2s-.06-.12-.15-.12a.12.12,0,0,0-.11.05,1.38,1.38,0,0,0-.13.26c-.3.72-1,1.72-1.8,1.72-.43,0-.46-.35-.46-.67a2.05,2.05,0,0,1,.05-.46l1.12-4.5" transform="translate(-5 -7.33)"/><path class="cls-1" d="M336.15,37.39c0-4.59-9.84-8.32-22-8.32s-22,3.73-22,8.32,9.85,8.33,22,8.33S336.15,42,336.15,37.39Z" transform="translate(-5 -7.33)"/><path class="cls-1" d="M210.08,37.67c0-6.37-17.4-11.53-38.87-11.53s-38.87,5.16-38.87,11.53,17.4,11.54,38.87,11.54S210.08,44,210.08,37.67Z" transform="translate(-5 -7.33)"/><line class="cls-2" x1="213.76" y1="30.18" x2="297.71" y2="30.18"/><path class="cls-3" d="M301.16,35.44c.13.78,1.55,1.94,1.94,2.07-.39.13-1.81,1.3-1.94,2.07" transform="translate(-5 -7.33)"/><line class="cls-2" x1="33.44" y1="30.18" x2="117.39" y2="30.18"/><path class="cls-3" d="M120.84,35.44c.13.78,1.55,1.94,1.94,2.07-.39.13-1.81,1.3-1.94,2.07" transform="translate(-5 -7.33)"/></svg>