<svg id="Layer_1" data-name="Layer 1" xmlns="http://www.w3.org/2000/svg" viewBox="0 0 199.22 96.79"><defs><style>.cls-1,.cls-7{fill:#2caaca;}.cls-1,.cls-3,.cls-5{opacity:0.2;}.cls-10,.cls-2,.cls-4,.cls-6,.cls-9{fill:none;stroke-width:0.8px;}.cls-2{stroke:#2caaca;}.cls-2,.cls-4,.cls-6,.cls-9{stroke-miterlimit:10;}.cls-3,.cls-8{fill:#ec6d5f;}.cls-4{stroke:#ec6d5f;}.cls-5{fill:#27c9b8;}.cls-6{stroke:#27c9b8;}.cls-10,.cls-9{stroke:#000;}.cls-10{stroke-linecap:round;stroke-linejoin:round;}</style></defs><title>Functions.08</title><circle class="cls-1" cx="52.11" cy="70.7" r="39.68" transform="translate(-38.14 16.78) rotate(-26.57)"/><circle class="cls-2" cx="52.11" cy="70.7" r="39.68" transform="translate(-38.14 16.78) rotate(-26.57)"/><path class="cls-3" d="M210.85,70.7a39.69,39.69,0,1,0-39.68,39.68A39.69,39.69,0,0,0,210.85,70.7Z" transform="translate(-12.03 -13.99)"/><path class="cls-4" d="M210.85,70.7a39.69,39.69,0,1,0-39.68,39.68A39.69,39.69,0,0,0,210.85,70.7Z" transform="translate(-12.03 -13.99)"/><path class="cls-5" d="M179.23,70.67a22.88,22.88,0,1,0-22.88,22.87A22.88,22.88,0,0,0,179.23,70.67Z" transform="translate(-12.03 -13.99)"/><path class="cls-6" d="M179.23,70.67a22.88,22.88,0,1,0-22.88,22.87A22.88,22.88,0,0,0,179.23,70.67Z" transform="translate(-12.03 -13.99)"/><path d="M142.48,68.32c1.78-.39,3.18-1.54,3.18-2.78s-1.14-2.15-3.13-2.15h-3.9c-.29,0-.41,0-.41.27s.1.14.37.14c.86,0,.86.12.86.28a1.21,1.21,0,0,1-.06.33l-1.94,7.73c-.12.5-.15.64-1.14.64-.34,0-.43,0-.43.28s.15.14.2.14l.83,0h1.69l.82,0c.12,0,.28,0,.28-.27s-.13-.15-.35-.15c-.88,0-.88-.11-.88-.25a.69.69,0,0,1,0-.23l1-3.87h1.72c1.36,0,1.62.86,1.62,1.34a7.19,7.19,0,0,1-.24,1.15,4.29,4.29,0,0,0-.2,1.09c0,1,.83,1.49,1.79,1.49,1.17,0,1.67-1.42,1.67-1.62a.14.14,0,0,0-.16-.15c-.11,0-.14.09-.17.21-.35,1-.93,1.27-1.29,1.27s-.59-.15-.59-.8c0-.34.17-1.65.18-1.72a4.11,4.11,0,0,0,.08-.71,1.76,1.76,0,0,0-1.4-1.66m-2-3.95c.13-.54.18-.57.74-.57h1c1.23,0,2.15.38,2.15,1.5,0,.73-.37,2.84-3.26,2.84h-1.62Z" transform="translate(-12.03 -13.99)"/><path d="M151.24,67.81a1.41,1.41,0,0,0-1.29-1c-1.62,0-3.38,2.1-3.38,4.23,0,1.42.84,2.25,1.81,2.25a2.67,2.67,0,0,0,1.87-1.09,1.24,1.24,0,0,0,1.25,1.09,1.18,1.18,0,0,0,1-.77,7.46,7.46,0,0,0,.43-1.42.13.13,0,0,0-.15-.13c-.13,0-.14.07-.2.28-.21.85-.49,1.76-1.08,1.76-.41,0-.44-.38-.44-.66a4,4,0,0,1,.17-1.05c.1-.36.17-.68.29-1.09.53-2.16.66-2.68.66-2.76a.36.36,0,0,0-.37-.36c-.46,0-.58.5-.61.67m-.92,3.68a1.27,1.27,0,0,1-.27.55,2.42,2.42,0,0,1-1.62,1c-.59,0-.92-.53-.92-1.38a10.07,10.07,0,0,1,.72-3c.49-1,1.16-1.53,1.72-1.53,1,0,1.14,1.18,1.14,1.3l-.06.23Z" transform="translate(-12.03 -13.99)"/><path d="M156.26,69a4.18,4.18,0,0,1,.92-1.26,2.05,2.05,0,0,1,1.42-.58c.57,0,.78.43.78,1a12.92,12.92,0,0,1-.88,3.23,2.08,2.08,0,0,0-.2.79,1.1,1.1,0,0,0,1.13,1.16c1.34,0,1.84-2.11,1.84-2.19a.12.12,0,0,0-.14-.13c-.13,0-.14,0-.22.28-.33,1.18-.87,1.76-1.43,1.76-.15,0-.38,0-.38-.48a2.75,2.75,0,0,1,.25-1,13,13,0,0,0,.89-3.22,1.42,1.42,0,0,0-1.6-1.51,2.71,2.71,0,0,0-2.21,1.27,1.25,1.25,0,0,0-1.26-1.27,1.13,1.13,0,0,0-1,.77,6.6,6.6,0,0,0-.46,1.43.14.14,0,0,0,.15.13c.12,0,.13,0,.22-.34.23-.88.49-1.7,1.06-1.7.33,0,.45.23.45.66a7,7,0,0,1-.25,1.32l-.4,1.56c0,.27-.21.91-.28,1.17s-.26,1-.26,1.12a.35.35,0,0,0,.37.36.55.55,0,0,0,.49-.3c0-.07.16-.57.23-.86l.32-1.29.47-1.9" transform="translate(-12.03 -13.99)"/><path d="M167.45,67.81a1.47,1.47,0,0,0-1.31-1c-1.57,0-3.35,2-3.35,4.11,0,1.5.91,2.23,1.83,2.23a2.54,2.54,0,0,0,1.69-.89L166,73.6a2.83,2.83,0,0,1-.8,1.66,1.85,1.85,0,0,1-1.45.58,3.82,3.82,0,0,1-1.15-.14.77.77,0,0,0,.58-.69.47.47,0,0,0-.49-.46.74.74,0,0,0-.72.76c0,.59.59.82,1.81.82a3,3,0,0,0,3-2l1.6-6.43a1,1,0,0,0,0-.23.36.36,0,0,0-.37-.36c-.35,0-.55.29-.59.67m-.89,3.57a1,1,0,0,1-.28.5,2.22,2.22,0,0,1-1.64,1c-.47,0-.92-.37-.92-1.36a9.92,9.92,0,0,1,.75-3,2.25,2.25,0,0,1,1.67-1.38c1,0,1.13,1.18,1.13,1.27l0,.2Z" transform="translate(-12.03 -13.99)"/><path d="M170.88,69.58c.62-2.21,2-2.43,2.44-2.43a1,1,0,0,1,1.07.92c0,1.51-2.3,1.51-2.9,1.51h-.61m.69.29a6.54,6.54,0,0,0,2.05-.29,1.64,1.64,0,0,0,1.2-1.51c0-.63-.55-1.21-1.5-1.21a3.89,3.89,0,0,0-3.67,3.93,2.26,2.26,0,0,0,2.17,2.55A3.81,3.81,0,0,0,175,71.63a.17.17,0,0,0-.15-.15s-.06,0-.19.14a3.67,3.67,0,0,1-2.83,1.44c-.82,0-1.25-.65-1.25-1.71a5.78,5.78,0,0,1,.22-1.48Z" transform="translate(-12.03 -13.99)"/><path d="M149.53,14.12a.12.12,0,0,0-.13-.13s-.08,0-.2.14l-1,1.21A2.59,2.59,0,0,0,145.84,14a6.86,6.86,0,0,0-6.32,6.52,3.68,3.68,0,0,0,3.78,3.89,4.63,4.63,0,0,0,3-1.19,5,5,0,0,0,1.63-2.56c0-.13-.12-.13-.16-.13s-.14.09-.17.15a4.45,4.45,0,0,1-4,3.31,2.74,2.74,0,0,1-2.84-3,8.11,8.11,0,0,1,1.76-4.84A4.92,4.92,0,0,1,146,14.4c1.58,0,2.28,1.31,2.28,2.78,0,.37,0,.69,0,.74s.14.13.19.13.17,0,.23-.27l.9-3.66" transform="translate(-12.03 -13.99)"/><path d="M152.7,24c-.72,0-1.25-.58-1.25-1.58a7.85,7.85,0,0,1,.75-2.85,2.53,2.53,0,0,1,2-1.48c.7,0,1.25.58,1.25,1.58a7.21,7.21,0,0,1-.85,3A2.47,2.47,0,0,1,152.7,24m3.75-3.81a2.21,2.21,0,0,0-2.2-2.39c-1.89,0-3.76,2.07-3.76,4.1a2.21,2.21,0,0,0,2.2,2.38A4.22,4.22,0,0,0,156.45,20.15Z" transform="translate(-12.03 -13.99)"/><path d="M160.92,22.39a1.27,1.27,0,0,1-.27.55A2.42,2.42,0,0,1,159,24c-.59,0-.92-.53-.92-1.38a10.07,10.07,0,0,1,.72-3c.49-1,1.16-1.53,1.72-1.53.95,0,1.14,1.18,1.14,1.3l-.06.23-.71,2.81m2.91-7.9a1.24,1.24,0,0,0,0-.22c0-.14-.15-.14-.17-.14l-.79.07c-.25,0-.46.05-.72.06s-.46,0-.46.3.11.15.31.15c.71,0,.72.12.72.27a1.19,1.19,0,0,1,0,.24l-.88,3.49a1.41,1.41,0,0,0-1.29-.95c-1.62,0-3.38,2.1-3.38,4.23,0,1.42.84,2.25,1.81,2.25a2.67,2.67,0,0,0,1.87-1.09,1.24,1.24,0,0,0,1.25,1.09,1.18,1.18,0,0,0,1-.77,7.46,7.46,0,0,0,.43-1.42.13.13,0,0,0-.15-.13c-.13,0-.14.07-.2.28-.21.85-.49,1.76-1.08,1.76-.41,0-.44-.38-.44-.66a3.28,3.28,0,0,1,.1-.77Z" transform="translate(-12.03 -13.99)"/><path d="M166.7,24c-.72,0-1.25-.58-1.25-1.58a7.85,7.85,0,0,1,.75-2.85,2.53,2.53,0,0,1,2-1.48c.7,0,1.25.58,1.25,1.58a7.21,7.21,0,0,1-.85,3A2.47,2.47,0,0,1,166.7,24m3.75-3.81a2.21,2.21,0,0,0-2.2-2.39c-1.89,0-3.76,2.07-3.76,4.1a2.21,2.21,0,0,0,2.2,2.38A4.22,4.22,0,0,0,170.45,20.15Z" transform="translate(-12.03 -13.99)"/><path d="M173.66,19.89a4.06,4.06,0,0,1,.92-1.26,2.05,2.05,0,0,1,1.42-.58c.57,0,.78.43.78,1a4,4,0,0,1-.18,1.05l-.36,1.48c-.11.43-.38,1.49-.41,1.65a6.33,6.33,0,0,0-.15.64.36.36,0,0,0,.38.36c.43,0,.5-.33.63-.84l.86-3.44c0-.11.78-1.91,2.36-1.91.57,0,.77.43.77,1a13.19,13.19,0,0,1-.87,3.23,2.08,2.08,0,0,0-.2.79,1.1,1.1,0,0,0,1.13,1.16c1.34,0,1.84-2.11,1.84-2.19a.13.13,0,0,0-.14-.13c-.13,0-.15,0-.22.28-.33,1.15-.86,1.76-1.44,1.76-.14,0-.37,0-.37-.48a3.21,3.21,0,0,1,.23-1,12.87,12.87,0,0,0,.9-3.22A1.42,1.42,0,0,0,180,17.76a2.79,2.79,0,0,0-2.31,1.4,1.42,1.42,0,0,0-1.6-1.4A2.71,2.71,0,0,0,173.83,19a1.25,1.25,0,0,0-1.26-1.27,1.11,1.11,0,0,0-1,.75,6.83,6.83,0,0,0-.46,1.45.14.14,0,0,0,.15.13c.12,0,.14,0,.22-.34.22-.85.49-1.7,1.06-1.7.33,0,.45.23.45.66a7,7,0,0,1-.25,1.32l-.4,1.56c0,.27-.21.92-.28,1.17s-.26,1-.26,1.12a.35.35,0,0,0,.37.36.55.55,0,0,0,.49-.3c0-.07.16-.57.23-.86l.32-1.29.47-1.9" transform="translate(-12.03 -13.99)"/><path d="M188.24,18.71a1.41,1.41,0,0,0-1.29-.95c-1.62,0-3.38,2.1-3.38,4.23,0,1.42.84,2.25,1.81,2.25a2.67,2.67,0,0,0,1.87-1.09,1.24,1.24,0,0,0,1.25,1.09,1.18,1.18,0,0,0,1-.77,7.46,7.46,0,0,0,.43-1.42.13.13,0,0,0-.15-.13c-.13,0-.14.07-.2.28-.21.85-.49,1.76-1.08,1.76-.41,0-.44-.38-.44-.66a4,4,0,0,1,.17-1.05c.1-.36.17-.68.29-1.09.53-2.16.66-2.68.66-2.76a.36.36,0,0,0-.37-.36c-.46,0-.58.5-.61.67m-.92,3.68a1.27,1.27,0,0,1-.27.55,2.42,2.42,0,0,1-1.62,1c-.59,0-.92-.53-.92-1.38a10.07,10.07,0,0,1,.72-3c.49-1,1.16-1.53,1.72-1.53,1,0,1.14,1.18,1.14,1.3l-.06.23Z" transform="translate(-12.03 -13.99)"/><path d="M194.35,15.14a.48.48,0,0,0-.49-.48.74.74,0,0,0-.7.69.47.47,0,0,0,.47.48.76.76,0,0,0,.72-.69m.12,6.91a.13.13,0,0,0-.15-.13c-.13,0-.14,0-.21.28-.38,1.31-1,1.76-1.44,1.76-.17,0-.37-.05-.37-.48a3.87,3.87,0,0,1,.33-1.25l1-2.67a1.88,1.88,0,0,0,.15-.65,1.12,1.12,0,0,0-1.14-1.15c-1.32,0-1.85,2.09-1.85,2.2a.14.14,0,0,0,.15.13c.13,0,.15-.06.21-.26.34-1.2.89-1.78,1.45-1.78.13,0,.37,0,.37.48a4,4,0,0,1-.3,1.16l-1,2.67a2.17,2.17,0,0,0-.17.72,1.11,1.11,0,0,0,1.14,1.16C194,24.24,194.47,22.15,194.47,22.05Z" transform="translate(-12.03 -13.99)"/><path d="M198.06,19.89a4.06,4.06,0,0,1,.92-1.26,2.05,2.05,0,0,1,1.42-.58c.57,0,.78.43.78,1a12.92,12.92,0,0,1-.88,3.23,2.08,2.08,0,0,0-.2.79,1.1,1.1,0,0,0,1.13,1.16c1.34,0,1.84-2.11,1.84-2.19a.12.12,0,0,0-.14-.13c-.13,0-.14,0-.22.28-.33,1.18-.87,1.76-1.43,1.76-.15,0-.38,0-.38-.48a2.75,2.75,0,0,1,.25-1,13,13,0,0,0,.89-3.22,1.42,1.42,0,0,0-1.6-1.51A2.71,2.71,0,0,0,198.23,19,1.25,1.25,0,0,0,197,17.76a1.13,1.13,0,0,0-1,.77,6.6,6.6,0,0,0-.46,1.43.14.14,0,0,0,.15.13c.12,0,.13,0,.22-.34.23-.88.49-1.7,1.06-1.7.34,0,.45.23.45.66a7,7,0,0,1-.25,1.32l-.4,1.56c-.05.27-.21.92-.28,1.17s-.26,1-.26,1.12a.35.35,0,0,0,.37.36.55.55,0,0,0,.49-.3c0-.07.16-.57.23-.86l.32-1.29.47-1.9" transform="translate(-12.03 -13.99)"/><path d="M31.59,15.17c.13-.54.18-.57.74-.57h1.58a2.43,2.43,0,0,1,2.59,2.72,8.3,8.3,0,0,1-1.68,4.8,4.24,4.24,0,0,1-3.15,1.46h-2c-.16,0-.17,0-.17-.16a1.32,1.32,0,0,1,.05-.31l2-7.93m-3,7.77c-.13.5-.16.64-1.17.64-.27,0-.42,0-.42.26s.09.16.38.16H31.9c2.91,0,5.73-3,5.73-6.21,0-2.06-1.23-3.6-3.29-3.6H29.73c-.27,0-.4,0-.4.27s.13.14.35.14c.87,0,.87.12.87.28a1.21,1.21,0,0,1-.06.33Z" transform="translate(-12.03 -13.99)"/><path d="M41.1,23.86c-.72,0-1.25-.58-1.25-1.58a7.85,7.85,0,0,1,.75-2.85,2.53,2.53,0,0,1,2-1.48c.7,0,1.25.58,1.25,1.58a7.21,7.21,0,0,1-.85,3,2.47,2.47,0,0,1-1.94,1.34m3.75-3.81a2.21,2.21,0,0,0-2.2-2.39c-1.89,0-3.76,2.07-3.76,4.1a2.21,2.21,0,0,0,2.2,2.38A4.22,4.22,0,0,0,44.85,20.05Z" transform="translate(-12.03 -13.99)"/><path d="M48.06,19.79A4.18,4.18,0,0,1,49,18.53,2.05,2.05,0,0,1,50.4,18c.57,0,.78.43.78,1A4.26,4.26,0,0,1,51,20l-.37,1.48c-.11.43-.38,1.49-.41,1.65a6.33,6.33,0,0,0-.15.64.36.36,0,0,0,.38.36c.43,0,.5-.33.63-.84L52,19.86c0-.11.78-1.91,2.36-1.91.57,0,.77.43.77,1a13.19,13.19,0,0,1-.87,3.23A2.08,2.08,0,0,0,54,23a1.1,1.1,0,0,0,1.13,1.16C56.48,24.14,57,22,57,22a.13.13,0,0,0-.14-.13c-.13,0-.15,0-.22.28-.33,1.15-.86,1.76-1.44,1.76-.14,0-.37,0-.37-.48a3.21,3.21,0,0,1,.23-1,12.87,12.87,0,0,0,.9-3.22,1.42,1.42,0,0,0-1.59-1.51A2.79,2.79,0,0,0,52,19.06a1.42,1.42,0,0,0-1.6-1.4,2.71,2.71,0,0,0-2.21,1.27A1.25,1.25,0,0,0,47,17.66a1.11,1.11,0,0,0-1,.75,6.66,6.66,0,0,0-.46,1.45.14.14,0,0,0,.15.13c.12,0,.13,0,.22-.34.22-.85.49-1.7,1.07-1.7.33,0,.44.23.44.66a7,7,0,0,1-.25,1.32l-.4,1.56c0,.27-.21.92-.28,1.17s-.26,1.05-.26,1.12a.35.35,0,0,0,.37.36.54.54,0,0,0,.49-.3c0-.07.16-.57.23-.86l.32-1.29.47-1.9" transform="translate(-12.03 -13.99)"/><path d="M62.64,18.61a1.41,1.41,0,0,0-1.29-.95c-1.62,0-3.38,2.1-3.38,4.23,0,1.42.84,2.25,1.81,2.25a2.67,2.67,0,0,0,1.87-1.09,1.24,1.24,0,0,0,1.25,1.09,1.18,1.18,0,0,0,1-.77A7.46,7.46,0,0,0,64.37,22a.13.13,0,0,0-.15-.13c-.13,0-.14.07-.2.28-.21.85-.49,1.76-1.08,1.76-.41,0-.44-.38-.44-.66a4,4,0,0,1,.17-1.05c.1-.36.17-.68.29-1.1.53-2.15.66-2.67.66-2.75a.36.36,0,0,0-.37-.36c-.46,0-.58.5-.61.67m-.92,3.68a1.27,1.27,0,0,1-.27.55,2.42,2.42,0,0,1-1.62,1c-.59,0-.92-.53-.92-1.38a10.07,10.07,0,0,1,.72-3c.49-1,1.16-1.53,1.72-1.53.95,0,1.14,1.18,1.14,1.3s-.05.2-.06.23Z" transform="translate(-12.03 -13.99)"/><path d="M68.75,15a.48.48,0,0,0-.49-.48.74.74,0,0,0-.7.69.47.47,0,0,0,.47.48.76.76,0,0,0,.72-.69M68.87,22a.13.13,0,0,0-.15-.13c-.13,0-.14,0-.21.28-.38,1.31-1,1.76-1.44,1.76-.17,0-.37-.05-.37-.48A3.87,3.87,0,0,1,67,22.13l1-2.67a1.88,1.88,0,0,0,.15-.65A1.12,1.12,0,0,0,67,17.66c-1.32,0-1.85,2.09-1.85,2.2a.14.14,0,0,0,.15.13c.13,0,.15-.06.21-.26.34-1.2.89-1.78,1.45-1.78.13,0,.37,0,.37.48a4,4,0,0,1-.3,1.16l-1,2.67a2.17,2.17,0,0,0-.17.72A1.11,1.11,0,0,0,67,24.14C68.35,24.14,68.87,22.05,68.87,22Z" transform="translate(-12.03 -13.99)"/><path d="M72.46,19.79a4.18,4.18,0,0,1,.92-1.26A2.05,2.05,0,0,1,74.8,18c.58,0,.78.43.78,1a12.92,12.92,0,0,1-.88,3.23,2.08,2.08,0,0,0-.2.79,1.1,1.1,0,0,0,1.13,1.16C77,24.14,77.47,22,77.47,22a.12.12,0,0,0-.14-.13c-.13,0-.14,0-.22.28-.33,1.18-.87,1.76-1.43,1.76-.15,0-.38,0-.38-.48a2.75,2.75,0,0,1,.25-1,13,13,0,0,0,.89-3.22,1.42,1.42,0,0,0-1.6-1.51,2.71,2.71,0,0,0-2.21,1.27,1.25,1.25,0,0,0-1.26-1.27,1.13,1.13,0,0,0-1,.77,6.44,6.44,0,0,0-.46,1.43A.14.14,0,0,0,70,20c.12,0,.13,0,.22-.34.23-.88.49-1.7,1.06-1.7.33,0,.45.23.45.66a7,7,0,0,1-.25,1.32l-.4,1.56c-.05.27-.21.92-.28,1.17s-.26,1.05-.26,1.12a.35.35,0,0,0,.37.36.55.55,0,0,0,.49-.3c0-.07.16-.57.23-.86L72,21.69l.47-1.9" transform="translate(-12.03 -13.99)"/><path class="cls-7" d="M73.34,42.91a1.4,1.4,0,0,0-2.79,0,1.4,1.4,0,1,0,2.79,0Z" transform="translate(-12.03 -13.99)"/><path class="cls-7" d="M61.44,98.48a1.4,1.4,0,1,0-2.79,0,1.4,1.4,0,0,0,2.79,0Z" transform="translate(-12.03 -13.99)"/><path class="cls-8" d="M164.63,58.79a1.4,1.4,0,1,0-1.4,1.39A1.4,1.4,0,0,0,164.63,58.79Z" transform="translate(-12.03 -13.99)"/><path class="cls-8" d="M158.28,78.63a1.4,1.4,0,1,0-1.4,1.4A1.4,1.4,0,0,0,158.28,78.63Z" transform="translate(-12.03 -13.99)"/><line class="cls-9" x1="63.44" y1="29.54" x2="147.24" y2="44.11"/><path class="cls-10" d="M158.36,56.32a3.3,3.3,0,0,0,1.2,1.83,3.38,3.38,0,0,0-1.75,1.31" transform="translate(-12.03 -13.99)"/><line class="cls-9" x1="51.53" y1="83.77" x2="140.89" y2="65.46"/><path class="cls-10" d="M151.42,78.12a3.35,3.35,0,0,0,1.79,1.27,3.28,3.28,0,0,0-1.15,1.86" transform="translate(-12.03 -13.99)"/></svg>