<svg id="Layer_1" data-name="Layer 1" xmlns="http://www.w3.org/2000/svg" viewBox="0 0 332.06 131.48"><defs><style>.cls-1,.cls-2,.cls-3,.cls-4,.cls-5,.cls-6,.cls-7{fill:none;}.cls-1,.cls-4,.cls-5,.cls-6{stroke:#000;}.cls-1,.cls-2,.cls-4{stroke-miterlimit:10;}.cls-1{stroke-width:0.8px;}.cls-2,.cls-3,.cls-7{stroke:#2caaca;}.cls-2,.cls-4{stroke-width:0.8px;}.cls-3,.cls-5,.cls-6,.cls-7{stroke-linecap:round;stroke-linejoin:round;}.cls-3{stroke-width:0.64px;}.cls-5{stroke-width:0.64px;}.cls-6,.cls-7{stroke-width:0.64px;}</style></defs><title>Functions.01</title><circle cx="28.41" cy="58.43" r="1.41"/><path d="M24.07,63.59,27,58.77l.49,4.82ZM22.34,65.8A1.94,1.94,0,0,1,20.66,67c-.16,0-.27,0-.27.28a.15.15,0,0,0,.17.14l1.16,0,1.28,0c.09,0,.26,0,.26-.27s-.11-.15-.2-.15c-.33,0-.6-.14-.6-.48a1.3,1.3,0,0,1,.27-.68L23.82,64h3.66c0,.13,0,.25,0,.37,0,.38.22,1.87.22,2.14,0,.44-.73.46-1,.46s-.32,0-.32.26.13.16.22.16l.77,0h.82c.88,0,1.51,0,1.52,0s.26,0,.26-.27S29.91,67,29.7,67c-.79,0-.81-.13-.85-.56l-.88-9c0-.29-.08-.32-.24-.32s-.23,0-.36.25Z" transform="translate(-7.19 -4.13)"/><path d="M37,96.57A1.41,1.41,0,1,0,35.59,98,1.41,1.41,0,0,0,37,96.57Z" transform="translate(-7.19 -4.13)"/><path d="M24.74,101.08H22.49c-.16,0-.17,0-.17-.16a1.39,1.39,0,0,1,.06-.31l1-4.06h2.7a1.61,1.61,0,0,1,1.7,1.7,3,3,0,0,1-3,2.84m2.05-4.71c1.56-.29,3-1.38,3-2.7,0-1.12-1-2-2.61-2H22.55c-.28,0-.41,0-.41.27s.13.14.35.14c.88,0,.88.12.88.28a1.21,1.21,0,0,1-.06.33l-1.94,7.73c-.13.5-.16.64-1.16.64-.28,0-.42,0-.42.26s.09.16.37.16h4.93c2.2,0,3.89-1.67,3.89-3.12A2.18,2.18,0,0,0,26.79,96.37Zm-2.43-3.7c.13-.54.18-.57.74-.57H27a1.46,1.46,0,0,1,1.62,1.51,2.93,2.93,0,0,1-3.05,2.65H23.47Z" transform="translate(-7.19 -4.13)"/><path d="M11.89,6.15c.13-.5.15-.64,1.2-.64.32,0,.43,0,.43-.28s-.15-.14-.2-.14l-.83,0H10.72l-.9,0c-.12,0-.28,0-.28.27s.12.15.41.15c.89,0,.89.11.89.27a1.39,1.39,0,0,1-.06.31L8.84,13.84c-.13.5-.16.64-1.21.64-.31,0-.44,0-.44.28s.14.14.21.14l.84,0H10l.88,0c.12,0,.29,0,.29-.26s-.08-.16-.4-.16c-.89,0-.89-.11-.89-.28a1.27,1.27,0,0,1,.06-.33l1.94-7.72" transform="translate(-7.19 -4.13)"/><path d="M17,10.69a4.06,4.06,0,0,1,.92-1.26,2.05,2.05,0,0,1,1.42-.58c.58,0,.78.43.78,1a12.92,12.92,0,0,1-.88,3.23,2.08,2.08,0,0,0-.2.79A1.1,1.1,0,0,0,20.13,15C21.47,15,22,12.93,22,12.85a.12.12,0,0,0-.14-.13c-.13,0-.14,0-.22.28-.33,1.18-.87,1.76-1.43,1.76-.15,0-.38,0-.38-.48a2.75,2.75,0,0,1,.25-1,13,13,0,0,0,.89-3.22,1.42,1.42,0,0,0-1.6-1.51,2.71,2.71,0,0,0-2.21,1.27,1.25,1.25,0,0,0-1.26-1.27,1.13,1.13,0,0,0-1,.77,6.6,6.6,0,0,0-.46,1.43.14.14,0,0,0,.15.13c.12,0,.13,0,.22-.34.23-.88.49-1.7,1.06-1.7.33,0,.45.23.45.66A7,7,0,0,1,16,10.83l-.4,1.56c0,.27-.21.91-.28,1.17s-.26,1-.26,1.12a.35.35,0,0,0,.37.36.55.55,0,0,0,.49-.3c0-.07.16-.57.23-.86l.32-1.29.47-1.9" transform="translate(-7.19 -4.13)"/><path d="M25.4,10.42a2.41,2.41,0,0,1,.74-1,1.91,1.91,0,0,1,1.17-.55c.63,0,.92.63.92,1.38a10,10,0,0,1-.76,3.06c-.36.78-1,1.47-1.68,1.47-1,0-1.13-1.24-1.13-1.3a1.24,1.24,0,0,1,0-.23l.7-2.81m-2.48,6.31c-.1.43-.16.54-.75.54-.17,0-.32,0-.32.27a.16.16,0,0,0,.18.15l.57,0h.62l1.33,0c.09,0,.26,0,.26-.26s-.1-.16-.34-.16c-.66,0-.7-.1-.7-.22s.64-2.64.73-3a1.39,1.39,0,0,0,1.29,1c1.62,0,3.38-2.11,3.38-4.22,0-1.32-.75-2.26-1.83-2.26a2.77,2.77,0,0,0-1.85,1.1,1.25,1.25,0,0,0-1.25-1.1,1.11,1.11,0,0,0-1,.75,6.83,6.83,0,0,0-.46,1.45.15.15,0,0,0,.16.13c.11,0,.13,0,.21-.34.22-.85.49-1.7,1.07-1.7.33,0,.44.23.44.66a2.67,2.67,0,0,1-.1.75Z" transform="translate(-7.19 -4.13)"/><path d="M34.3,14.07a1.22,1.22,0,0,0,1.22,1,1.16,1.16,0,0,0,1-.79,6.59,6.59,0,0,0,.43-1.4.12.12,0,0,0-.14-.13c-.13,0-.14.07-.2.28-.26,1-.52,1.76-1.09,1.76s-.43-.48-.43-.66A4.12,4.12,0,0,1,35.3,13c.1-.39.21-.78.29-1.18l.59-2.34a1.78,1.78,0,0,0,.1-.43.36.36,0,0,0-.39-.36c-.41,0-.51.36-.6.72-.14.56-.92,3.65-1,4.15,0,0-.58,1.18-1.62,1.18-.75,0-.89-.65-.89-1.18a9.52,9.52,0,0,1,.77-2.93,2.38,2.38,0,0,0,.25-.94,1.12,1.12,0,0,0-1.14-1.15c-1.32,0-1.85,2.09-1.85,2.2a.14.14,0,0,0,.15.13c.13,0,.15-.06.21-.26.34-1.23.9-1.78,1.45-1.78.14,0,.37,0,.37.48a4,4,0,0,1-.37,1.33,7.91,7.91,0,0,0-.71,2.69A1.56,1.56,0,0,0,32.59,15a2.2,2.2,0,0,0,1.71-1" transform="translate(-7.19 -4.13)"/><path d="M40.29,9.12h1.32c.27,0,.41,0,.41-.25s-.08-.16-.37-.16H40.39l.53-2.1A.87.87,0,0,0,41,6.28a.36.36,0,0,0-.38-.36.58.58,0,0,0-.56.51l-.56,2.28H38.13c-.29,0-.41,0-.41.27s.1.14.37.14h1.28l-.95,3.8a3.7,3.7,0,0,0-.16.83A1.25,1.25,0,0,0,39.54,15C41,15,41.77,13,41.77,12.85s-.06-.13-.15-.13a.11.11,0,0,0-.11,0s0,0-.13.26c-.3.72-1,1.73-1.8,1.73-.43,0-.46-.36-.46-.68a2.05,2.05,0,0,1,.05-.46l1.12-4.5" transform="translate(-7.19 -4.13)"/><path d="M50.27,18.39s0-.07-.25-.31c-1.43-1.46-2.24-3.83-2.24-6.76a9.51,9.51,0,0,1,2.34-6.88c.15-.13.15-.16.15-.2a.12.12,0,0,0-.13-.12,6,6,0,0,0-2.07,2.45A10.26,10.26,0,0,0,47,11.32a10.57,10.57,0,0,0,1,4.53,6.1,6.1,0,0,0,2.18,2.66.12.12,0,0,0,.13-.12" transform="translate(-7.19 -4.13)"/><path d="M57.91,9a.71.71,0,0,0-.63.7.44.44,0,0,0,.47.46.75.75,0,0,0,.73-.76c0-.6-.69-.88-1.29-.88A1.83,1.83,0,0,0,55.7,9.7a1.49,1.49,0,0,0-1.48-1.14c-1.47,0-2.24,1.89-2.24,2.2a.14.14,0,0,0,.15.13c.12,0,.15-.08.18-.14.48-1.6,1.45-1.9,1.86-1.9.65,0,.78.61.78,1a6.16,6.16,0,0,1-.26,1.34l-.49,2c-.21.87-.63,1.66-1.39,1.66a1.42,1.42,0,0,1-.73-.19.75.75,0,0,0,.63-.7.45.45,0,0,0-.49-.46.75.75,0,0,0-.72.76c0,.6.68.87,1.29.87a1.77,1.77,0,0,0,1.48-1.13A1.51,1.51,0,0,0,55.76,15C57.22,15,58,13.16,58,12.85a.12.12,0,0,0-.14-.13c-.13,0-.14.07-.18.18-.39,1.27-1.23,1.86-1.87,1.86s-.78-.38-.78-1a6.63,6.63,0,0,1,.29-1.49l.5-2c.22-.87.71-1.5,1.37-1.5a1.51,1.51,0,0,1,.73.19" transform="translate(-7.19 -4.13)"/><path d="M63.15,11.32a10.62,10.62,0,0,0-.95-4.54A6.17,6.17,0,0,0,60,4.12a.12.12,0,0,0-.13.12s0,.07.24.32c1.44,1.45,2.25,3.82,2.25,6.75S61.7,16.5,60,18.19c-.14.13-.14.16-.14.2a.12.12,0,0,0,.13.12,6.08,6.08,0,0,0,2.07-2.45,10.34,10.34,0,0,0,1.06-4.74" transform="translate(-7.19 -4.13)"/><path d="M138.58,55c1.78-.39,3.18-1.54,3.18-2.78s-1.14-2.15-3.13-2.15h-3.9c-.29,0-.41,0-.41.27s.1.15.37.15c.86,0,.86.11.86.27a1.21,1.21,0,0,1-.06.33l-1.94,7.73c-.12.5-.15.64-1.14.64-.34,0-.44,0-.44.28s.16.14.21.14l.83,0h1.69l.82,0c.12,0,.28,0,.28-.27s-.13-.15-.35-.15c-.88,0-.88-.11-.88-.25a.9.9,0,0,1,0-.23l1-3.87h1.72c1.36,0,1.62.86,1.62,1.34a7.19,7.19,0,0,1-.24,1.15,4.29,4.29,0,0,0-.2,1.09c0,1,.83,1.49,1.79,1.49,1.17,0,1.67-1.42,1.67-1.62a.14.14,0,0,0-.16-.15c-.11,0-.14.09-.17.21-.34,1-.93,1.27-1.29,1.27s-.59-.15-.59-.8c0-.34.17-1.65.18-1.72a4.2,4.2,0,0,0,.08-.71,1.76,1.76,0,0,0-1.4-1.66m-2-4c.13-.54.18-.56.74-.56h1c1.23,0,2.15.37,2.15,1.49,0,.73-.37,2.84-3.26,2.84h-1.62Z" transform="translate(-7.19 -4.13)"/><path d="M144,56.28c.62-2.21,2-2.43,2.44-2.43a1,1,0,0,1,1.07.92c0,1.51-2.3,1.51-2.9,1.51H144m.69.29a6.54,6.54,0,0,0,2.05-.29,1.64,1.64,0,0,0,1.2-1.51c0-.63-.55-1.21-1.5-1.21a3.89,3.89,0,0,0-3.67,3.93A2.26,2.26,0,0,0,144.92,60a3.78,3.78,0,0,0,3.18-1.71.16.16,0,0,0-.14-.15s-.06,0-.19.14a3.68,3.68,0,0,1-2.83,1.44c-.82,0-1.25-.65-1.25-1.71a5.78,5.78,0,0,1,.22-1.48Z" transform="translate(-7.19 -4.13)"/><path d="M152.25,50.29a1.24,1.24,0,0,0,0-.22c0-.14-.14-.14-.17-.14l-.79.07c-.24,0-.46,0-.72.06s-.44,0-.44.3.14.15.28.15c.74,0,.74.12.74.27a1,1,0,0,1-.08.34l-1.78,7.13a1.72,1.72,0,0,0-.07.5A1.25,1.25,0,0,0,150.52,60a1.14,1.14,0,0,0,1-.76,6.31,6.31,0,0,0,.45-1.43.13.13,0,0,0-.14-.13c-.13,0-.15.07-.21.28-.25,1-.51,1.76-1.09,1.76s-.43-.46-.43-.66a3.28,3.28,0,0,1,.1-.77l2-8" transform="translate(-7.19 -4.13)"/><path d="M158.34,54.51a1.41,1.41,0,0,0-1.29-.95c-1.62,0-3.38,2.1-3.38,4.23,0,1.42.84,2.25,1.81,2.25A2.67,2.67,0,0,0,157.35,59,1.24,1.24,0,0,0,158.6,60a1.18,1.18,0,0,0,1-.77,7.46,7.46,0,0,0,.43-1.42.13.13,0,0,0-.15-.13c-.13,0-.14.07-.2.28-.21.85-.49,1.76-1.08,1.76-.41,0-.44-.38-.44-.66a4,4,0,0,1,.17-1.05c.1-.36.17-.68.29-1.09.53-2.16.66-2.68.66-2.76a.36.36,0,0,0-.37-.36c-.46,0-.58.5-.61.67m-.92,3.68a1.27,1.27,0,0,1-.27.55,2.42,2.42,0,0,1-1.62,1c-.59,0-.92-.53-.92-1.38a10.07,10.07,0,0,1,.72-3c.49-1,1.16-1.53,1.72-1.53.95,0,1.14,1.18,1.14,1.3l-.06.23Z" transform="translate(-7.19 -4.13)"/><path d="M163.39,54.12h1.32c.27,0,.41,0,.41-.25s-.08-.16-.37-.16h-1.26l.53-2.1a.87.87,0,0,0,.06-.33.36.36,0,0,0-.38-.36.58.58,0,0,0-.56.51l-.56,2.28h-1.35c-.29,0-.41,0-.41.27s.1.14.37.14h1.28l-.95,3.8a3.7,3.7,0,0,0-.16.83A1.25,1.25,0,0,0,162.64,60c1.45,0,2.23-2.09,2.23-2.19s-.06-.13-.15-.13a.11.11,0,0,0-.11.05s0,0-.13.26c-.3.72-1,1.73-1.8,1.73-.43,0-.46-.36-.46-.68a2.05,2.05,0,0,1,.05-.46l1.12-4.5" transform="translate(-7.19 -4.13)"/><path d="M169.55,50.94a.48.48,0,0,0-.49-.48.74.74,0,0,0-.7.69.46.46,0,0,0,.47.47.75.75,0,0,0,.72-.68m.12,6.91a.13.13,0,0,0-.15-.13c-.13,0-.14,0-.21.28-.38,1.31-1,1.76-1.44,1.76-.17,0-.37,0-.37-.48a3.87,3.87,0,0,1,.33-1.25l1-2.67a1.67,1.67,0,0,0,.15-.65,1.12,1.12,0,0,0-1.14-1.15c-1.32,0-1.85,2.09-1.85,2.2a.14.14,0,0,0,.15.13c.13,0,.15-.06.21-.26.34-1.2.89-1.78,1.45-1.78.13,0,.37,0,.37.48a4,4,0,0,1-.3,1.16l-1,2.67a2.17,2.17,0,0,0-.17.72A1.11,1.11,0,0,0,167.83,60C169.15,60,169.67,58,169.67,57.85Z" transform="translate(-7.19 -4.13)"/><path d="M173.2,59.76c-.72,0-1.25-.58-1.25-1.58a7.85,7.85,0,0,1,.75-2.85,2.53,2.53,0,0,1,2-1.48c.7,0,1.25.58,1.25,1.58a7.21,7.21,0,0,1-.85,3,2.47,2.47,0,0,1-1.94,1.34M177,56a2.21,2.21,0,0,0-2.2-2.39c-1.89,0-3.76,2.07-3.76,4.1a2.21,2.21,0,0,0,2.2,2.38A4.22,4.22,0,0,0,177,56Z" transform="translate(-7.19 -4.13)"/><path d="M180.06,55.69a4.06,4.06,0,0,1,.92-1.26,2.05,2.05,0,0,1,1.42-.58c.57,0,.78.43.78,1a12.92,12.92,0,0,1-.88,3.23,2.08,2.08,0,0,0-.2.79A1.1,1.1,0,0,0,183.23,60c1.34,0,1.84-2.11,1.84-2.19a.12.12,0,0,0-.14-.13c-.13,0-.14,0-.22.28-.33,1.18-.87,1.76-1.43,1.76-.15,0-.38,0-.38-.48a2.75,2.75,0,0,1,.25-1,13,13,0,0,0,.89-3.22,1.42,1.42,0,0,0-1.6-1.51,2.71,2.71,0,0,0-2.21,1.27A1.25,1.25,0,0,0,179,53.56a1.13,1.13,0,0,0-1,.77,6.6,6.6,0,0,0-.46,1.43.14.14,0,0,0,.15.13c.12,0,.13,0,.22-.34.23-.88.49-1.7,1.06-1.7.34,0,.45.23.45.66a7,7,0,0,1-.25,1.32l-.4,1.56c-.05.27-.21.91-.28,1.17s-.26,1-.26,1.12a.35.35,0,0,0,.37.36.55.55,0,0,0,.49-.3c0-.07.16-.57.23-.86l.32-1.29.47-1.9" transform="translate(-7.19 -4.13)"/><path d="M188.77,57l.72.14a1.07,1.07,0,0,1,.84,1,1.83,1.83,0,0,1-2.07,1.61c-.3,0-1.38,0-1.67-.84a.72.72,0,0,0,.86-.69.44.44,0,0,0-.48-.46.79.79,0,0,0-.74.89c0,.85.86,1.38,2,1.38a2.56,2.56,0,0,0,2.83-2.35,1.37,1.37,0,0,0-.46-1.08,2.53,2.53,0,0,0-1.48-.57c-.38-.09-1-.22-1-.87a1.46,1.46,0,0,1,1.62-1.32,1.28,1.28,0,0,1,1.34.75.6.6,0,0,0-.66.56.39.39,0,0,0,.4.39c.2,0,.6-.16.6-.76s-.54-1.23-1.66-1.23a2.21,2.21,0,0,0-2.39,2.07c0,1.1,1.06,1.33,1.39,1.4" transform="translate(-7.19 -4.13)"/><path d="M196.14,50.29a1.24,1.24,0,0,0,0-.22c0-.14-.14-.14-.17-.14l-.79.07c-.25,0-.46,0-.72.06s-.46,0-.46.3.11.15.31.15c.71,0,.72.12.72.27a1.19,1.19,0,0,1,0,.24L193,59.34a.92.92,0,0,0-.06.33.35.35,0,0,0,.39.37.58.58,0,0,0,.5-.34l.65-2.6c.07-.32.16-.62.23-.93a2.44,2.44,0,0,1,.43-1,2.49,2.49,0,0,1,2-1.28c.58,0,.78.43.78,1a12.79,12.79,0,0,1-.88,3.23,2.08,2.08,0,0,0-.2.79A1.11,1.11,0,0,0,198,60c1.33,0,1.84-2.11,1.84-2.19a.13.13,0,0,0-.15-.13c-.13,0-.14,0-.21.28-.34,1.15-.87,1.76-1.44,1.76-.14,0-.37,0-.37-.48a3.21,3.21,0,0,1,.23-1,13.3,13.3,0,0,0,.9-3.22,1.42,1.42,0,0,0-1.59-1.51A2.67,2.67,0,0,0,195,54.7l1.11-4.41" transform="translate(-7.19 -4.13)"/><path d="M204.15,50.94a.48.48,0,0,0-.49-.48.74.74,0,0,0-.7.69.46.46,0,0,0,.47.47.75.75,0,0,0,.72-.68m.12,6.91a.13.13,0,0,0-.15-.13c-.13,0-.14,0-.21.28-.38,1.31-1,1.76-1.44,1.76-.17,0-.37,0-.37-.48a3.87,3.87,0,0,1,.33-1.25l1-2.67a1.88,1.88,0,0,0,.15-.65,1.12,1.12,0,0,0-1.14-1.15c-1.32,0-1.85,2.09-1.85,2.2a.14.14,0,0,0,.15.13c.14,0,.15-.06.21-.26.34-1.2.89-1.78,1.45-1.78.13,0,.37,0,.37.48a4,4,0,0,1-.3,1.16l-1,2.67a2.17,2.17,0,0,0-.17.72A1.11,1.11,0,0,0,202.43,60C203.75,60,204.27,58,204.27,57.85Z" transform="translate(-7.19 -4.13)"/><path d="M208.1,55.42a2.41,2.41,0,0,1,.74-1,1.91,1.91,0,0,1,1.17-.55c.63,0,.92.63.92,1.38a10,10,0,0,1-.76,3.06c-.36.78-1,1.47-1.68,1.47-1,0-1.13-1.24-1.13-1.3a1.24,1.24,0,0,1,0-.23l.7-2.81m-2.48,6.31c-.1.43-.16.54-.75.54-.17,0-.32,0-.32.27a.16.16,0,0,0,.18.15l.57,0h.62l1.34,0c.08,0,.25,0,.25-.26s-.1-.16-.34-.16c-.66,0-.7-.1-.7-.22s.64-2.64.73-3a1.39,1.39,0,0,0,1.29,1c1.62,0,3.38-2.11,3.38-4.22,0-1.32-.75-2.26-1.83-2.26a2.77,2.77,0,0,0-1.85,1.1,1.26,1.26,0,0,0-1.25-1.1,1.11,1.11,0,0,0-1,.75,6.83,6.83,0,0,0-.46,1.45.15.15,0,0,0,.16.13c.11,0,.13,0,.21-.34.22-.85.49-1.7,1.07-1.7.33,0,.44.23.44.66a2.67,2.67,0,0,1-.1.75Z" transform="translate(-7.19 -4.13)"/><path d="M146.67,79.72H148c1.1,0,1.18.24,1.18.66a3.21,3.21,0,0,1-.1.7.41.41,0,0,0,0,.16.15.15,0,0,0,.16.16c.11,0,.13-.06.18-.29l.84-3.35a.14.14,0,0,0-.15-.14c-.13,0-.14.06-.2.3-.3,1.08-.59,1.38-1.84,1.38h-1.3l.93-3.72c.13-.5.16-.55.75-.55h1.92c1.8,0,2.06.54,2.06,1.55a5.91,5.91,0,0,1-.05.78c0,.06,0,.24,0,.3a.14.14,0,0,0,.16.16c.1,0,.16-.06.19-.31L153,75s0-.19,0-.21-.13-.16-.39-.16h-6.81c-.28,0-.42,0-.42.26s.1.15.35.15c.89,0,.89.1.89.26a1.32,1.32,0,0,1-.06.29l-1.94,7.76c-.13.5-.16.64-1.16.64-.28,0-.42,0-.42.26s.13.16.22.16l.83,0H146l1,0c.13,0,.31,0,.31-.26s-.09-.16-.41-.16c-1.13,0-1.16-.1-1.16-.31a1.25,1.25,0,0,1,.06-.29l.92-3.66" transform="translate(-7.19 -4.13)"/><path d="M158.4,83.57a1.22,1.22,0,0,0,1.22,1,1.16,1.16,0,0,0,1-.79,6.59,6.59,0,0,0,.43-1.4.12.12,0,0,0-.14-.13c-.13,0-.14.07-.2.28-.26,1-.52,1.76-1.09,1.76s-.43-.48-.43-.66a4.12,4.12,0,0,1,.18-1.08c.11-.39.2-.78.29-1.18l.59-2.34a1.78,1.78,0,0,0,.1-.43.36.36,0,0,0-.39-.36c-.41,0-.51.36-.6.72-.14.56-.92,3.65-1,4.15,0,0-.58,1.18-1.62,1.18-.75,0-.89-.65-.89-1.18a9.52,9.52,0,0,1,.77-2.93,2.57,2.57,0,0,0,.25-.94,1.12,1.12,0,0,0-1.14-1.15c-1.32,0-1.85,2.09-1.85,2.2a.14.14,0,0,0,.15.13c.13,0,.15-.06.21-.26.34-1.23.9-1.78,1.45-1.78.14,0,.37,0,.37.48a4,4,0,0,1-.37,1.33,7.91,7.91,0,0,0-.71,2.69,1.56,1.56,0,0,0,1.7,1.69,2.2,2.2,0,0,0,1.71-1" transform="translate(-7.19 -4.13)"/><path d="M164.46,80.19a4.06,4.06,0,0,1,.92-1.26,2.05,2.05,0,0,1,1.42-.58c.58,0,.78.43.78,1a12.92,12.92,0,0,1-.88,3.23,2.08,2.08,0,0,0-.2.79,1.1,1.1,0,0,0,1.13,1.16c1.34,0,1.84-2.11,1.84-2.19a.12.12,0,0,0-.14-.13c-.13,0-.14,0-.22.28-.33,1.18-.87,1.76-1.43,1.76-.15,0-.38,0-.38-.48a2.75,2.75,0,0,1,.25-1,13,13,0,0,0,.89-3.22,1.42,1.42,0,0,0-1.6-1.51,2.71,2.71,0,0,0-2.21,1.27,1.25,1.25,0,0,0-1.26-1.27,1.13,1.13,0,0,0-1,.77,6.6,6.6,0,0,0-.46,1.43.14.14,0,0,0,.15.13c.12,0,.13,0,.22-.34.23-.88.49-1.7,1.06-1.7.33,0,.45.23.45.66a7,7,0,0,1-.25,1.32l-.4,1.56c-.05.27-.21.91-.28,1.17s-.26,1-.26,1.12a.35.35,0,0,0,.37.36.55.55,0,0,0,.49-.3c0-.07.16-.57.23-.86l.32-1.29.47-1.9" transform="translate(-7.19 -4.13)"/><path d="M175.52,79a.76.76,0,0,0-.61.17.79.79,0,0,0-.24.52.45.45,0,0,0,.49.46.78.78,0,0,0,.73-.86c0-.69-.66-1.23-1.65-1.23a4.26,4.26,0,0,0-3.77,4.1,2.22,2.22,0,0,0,2.25,2.38,3.78,3.78,0,0,0,3.18-1.71.16.16,0,0,0-.14-.15s-.06,0-.19.14a3.68,3.68,0,0,1-2.83,1.44c-1,0-1.3-.87-1.3-1.58a7.63,7.63,0,0,1,.76-2.88,2.62,2.62,0,0,1,2.05-1.45,1.39,1.39,0,0,1,1.27.65" transform="translate(-7.19 -4.13)"/><path d="M178.79,78.62h1.32c.27,0,.41,0,.41-.25s-.08-.16-.37-.16h-1.26l.53-2.1a.87.87,0,0,0,.06-.33.36.36,0,0,0-.38-.36.58.58,0,0,0-.56.51L178,78.21h-1.35c-.29,0-.41,0-.41.27s.1.14.37.14h1.28l-1,3.8a3.7,3.7,0,0,0-.16.83A1.25,1.25,0,0,0,178,84.54c1.45,0,2.23-2.09,2.23-2.19s-.06-.13-.15-.13a.11.11,0,0,0-.11,0s0,0-.13.26c-.3.72-1,1.73-1.8,1.73-.43,0-.46-.36-.46-.68a2.05,2.05,0,0,1,0-.46l1.12-4.5" transform="translate(-7.19 -4.13)"/><path d="M185,75.44a.48.48,0,0,0-.49-.48.74.74,0,0,0-.7.69.46.46,0,0,0,.47.47.75.75,0,0,0,.72-.68m.12,6.91a.13.13,0,0,0-.15-.13c-.13,0-.14,0-.21.28-.38,1.31-1,1.76-1.44,1.76-.17,0-.37-.05-.37-.48a3.87,3.87,0,0,1,.33-1.25l1-2.67a1.88,1.88,0,0,0,.15-.65,1.12,1.12,0,0,0-1.14-1.15c-1.32,0-1.85,2.09-1.85,2.2a.14.14,0,0,0,.15.13c.13,0,.15-.06.21-.26.34-1.2.89-1.78,1.45-1.78.13,0,.37,0,.37.48a4,4,0,0,1-.3,1.16l-1,2.67a2.17,2.17,0,0,0-.17.72,1.11,1.11,0,0,0,1.14,1.16C184.55,84.54,185.07,82.45,185.07,82.35Z" transform="translate(-7.19 -4.13)"/><path d="M188.6,84.26c-.72,0-1.25-.58-1.25-1.58a7.85,7.85,0,0,1,.75-2.85,2.53,2.53,0,0,1,2-1.48c.7,0,1.25.58,1.25,1.58a7.21,7.21,0,0,1-.85,3,2.47,2.47,0,0,1-1.94,1.34m3.75-3.81a2.21,2.21,0,0,0-2.2-2.39c-1.89,0-3.76,2.07-3.76,4.1a2.21,2.21,0,0,0,2.2,2.38A4.22,4.22,0,0,0,192.35,80.45Z" transform="translate(-7.19 -4.13)"/><path d="M195.46,80.19a4.06,4.06,0,0,1,.92-1.26,2.05,2.05,0,0,1,1.42-.58c.58,0,.78.43.78,1a12.92,12.92,0,0,1-.88,3.23,2.08,2.08,0,0,0-.2.79,1.1,1.1,0,0,0,1.13,1.16c1.34,0,1.84-2.11,1.84-2.19a.12.12,0,0,0-.14-.13c-.13,0-.14,0-.22.28-.33,1.18-.87,1.76-1.43,1.76-.15,0-.38,0-.38-.48a2.75,2.75,0,0,1,.25-1,13,13,0,0,0,.89-3.22,1.42,1.42,0,0,0-1.6-1.51,2.71,2.71,0,0,0-2.21,1.27,1.25,1.25,0,0,0-1.26-1.27,1.13,1.13,0,0,0-1,.77,6.6,6.6,0,0,0-.46,1.43.14.14,0,0,0,.15.13c.12,0,.13,0,.22-.34.23-.88.49-1.7,1.06-1.7.33,0,.45.23.45.66a7,7,0,0,1-.25,1.32l-.4,1.56c-.05.27-.21.91-.28,1.17s-.26,1-.26,1.12a.35.35,0,0,0,.37.36.55.55,0,0,0,.49-.3c0-.07.16-.57.23-.86l.32-1.29.47-1.9" transform="translate(-7.19 -4.13)"/><path d="M128.85,79.56A1.41,1.41,0,1,0,127.44,81,1.41,1.41,0,0,0,128.85,79.56Z" transform="translate(-7.19 -4.13)"/><path d="M217.29,79.56A1.41,1.41,0,1,0,215.88,81,1.41,1.41,0,0,0,217.29,79.56Z" transform="translate(-7.19 -4.13)"/><circle cx="300.53" cy="41.42" r="1.41"/><path d="M323.63,40.42a.12.12,0,0,0-.13-.13s-.08,0-.2.14l-1,1.21a2.59,2.59,0,0,0-2.37-1.35,6.86,6.86,0,0,0-6.32,6.52,3.68,3.68,0,0,0,3.78,3.89,4.61,4.61,0,0,0,3-1.19A5,5,0,0,0,322,47c0-.13-.12-.13-.16-.13s-.14.09-.17.15a4.45,4.45,0,0,1-4,3.31,2.74,2.74,0,0,1-2.84-3,8.11,8.11,0,0,1,1.76-4.84,4.92,4.92,0,0,1,3.51-1.73c1.58,0,2.28,1.31,2.28,2.78,0,.37,0,.69,0,.74s.14.13.19.13.17,0,.23-.27l.9-3.66" transform="translate(-7.19 -4.13)"/><circle cx="300.53" cy="75.44" r="1.41"/><path d="M318.19,75.57c.13-.54.18-.56.74-.56h1.58a2.43,2.43,0,0,1,2.59,2.71,8.3,8.3,0,0,1-1.68,4.8A4.24,4.24,0,0,1,318.27,84h-1.95c-.16,0-.17,0-.17-.16a1.24,1.24,0,0,1,.05-.31l2-7.93m-3,7.77c-.12.5-.15.64-1.16.64-.27,0-.42,0-.42.26s.09.16.38.16h4.55c2.9,0,5.73-3,5.73-6.21,0-2.07-1.23-3.6-3.28-3.6h-4.62c-.27,0-.4,0-.4.27s.13.15.35.15c.87,0,.87.11.87.27a1.44,1.44,0,0,1,0,.33Z" transform="translate(-7.19 -4.13)"/><path d="M309.13,113.58a1.41,1.41,0,1,0-1.41,1.41A1.41,1.41,0,0,0,309.13,113.58Z" transform="translate(-7.19 -4.13)"/><path d="M322.88,115.17a.76.76,0,0,0,.06-.2.15.15,0,0,0-.14-.15.16.16,0,0,0-.13.06s0,0-.16.33c-.85,2-1.46,2.87-3.76,2.87h-2.42c-.16,0-.17,0-.17-.16a1.39,1.39,0,0,1,.06-.31l1-4h1.42c1.12,0,1.21.25,1.21.67a2.61,2.61,0,0,1-.1.71.34.34,0,0,0,0,.16.13.13,0,0,0,.15.14c.13,0,.15-.1.2-.3l.82-3.33a.14.14,0,0,0-.14-.15c-.13,0-.14.06-.2.26-.29,1.11-.58,1.42-1.86,1.42h-1.36l.89-3.53c.13-.5.16-.55.75-.55H321c1.77,0,2.13.48,2.13,1.57a7.79,7.79,0,0,1-.06.89c0,.06,0,.14,0,.17a.14.14,0,0,0,.16.16c.1,0,.16-.06.19-.32l.3-2.51s0-.19,0-.21-.13-.16-.39-.16h-7c-.27,0-.42,0-.42.26s.1.15.35.15c.89,0,.89.1.89.26a1.32,1.32,0,0,1-.06.29l-1.94,7.76c-.13.5-.16.64-1.16.64-.28,0-.42,0-.42.26s.09.16.37.16h7.22c.31,0,.33,0,.43-.24l1.3-3.09" transform="translate(-7.19 -4.13)"/><path d="M279.25,14.87c-1.18,0-2.43-.86-2.43-3.1a8.42,8.42,0,0,1,1.66-4.89,4.35,4.35,0,0,1,3.21-1.78c1.27,0,2.49.92,2.49,3a9.07,9.07,0,0,1-1.51,4.64,4.47,4.47,0,0,1-3.42,2.14m6.08-6.26a3.52,3.52,0,0,0-3.56-3.82c-3.08,0-6.18,3.3-6.18,6.62a3.53,3.53,0,0,0,3.58,3.79C282.18,15.2,285.33,12.06,285.33,8.61Z" transform="translate(-7.19 -4.13)"/><path d="M290.9,14.07a1.22,1.22,0,0,0,1.22,1,1.16,1.16,0,0,0,1-.79,6.59,6.59,0,0,0,.43-1.4.12.12,0,0,0-.14-.13c-.13,0-.14.07-.2.28-.26,1-.52,1.76-1.09,1.76s-.43-.48-.43-.66A4.12,4.12,0,0,1,291.9,13c.1-.39.2-.78.29-1.18l.59-2.34a1.78,1.78,0,0,0,.1-.43.36.36,0,0,0-.39-.36c-.41,0-.51.36-.6.72-.14.56-.92,3.65-1,4.15,0,0-.57,1.18-1.62,1.18-.75,0-.89-.65-.89-1.18a9.52,9.52,0,0,1,.77-2.93,2.57,2.57,0,0,0,.25-.94,1.12,1.12,0,0,0-1.14-1.15c-1.32,0-1.85,2.09-1.85,2.2a.15.15,0,0,0,.16.13c.12,0,.14-.06.2-.26.34-1.23.9-1.78,1.45-1.78.14,0,.37,0,.37.48a4,4,0,0,1-.37,1.33,7.91,7.91,0,0,0-.71,2.69,1.56,1.56,0,0,0,1.7,1.69,2.2,2.2,0,0,0,1.71-1" transform="translate(-7.19 -4.13)"/><path d="M296.89,9.12h1.32c.27,0,.41,0,.41-.25s-.08-.16-.37-.16H297l.53-2.1a.87.87,0,0,0,.06-.33.36.36,0,0,0-.38-.36.58.58,0,0,0-.56.51l-.56,2.28h-1.35c-.28,0-.41,0-.41.27s.1.14.37.14H296l-1,3.8a3.7,3.7,0,0,0-.16.83A1.25,1.25,0,0,0,296.14,15c1.45,0,2.23-2.09,2.23-2.19s-.06-.13-.15-.13a.12.12,0,0,0-.11,0s0,0-.13.26c-.3.72-1,1.73-1.8,1.73-.43,0-.46-.36-.46-.68a2.05,2.05,0,0,1,0-.46l1.12-4.5" transform="translate(-7.19 -4.13)"/><path d="M302.2,10.42a2.41,2.41,0,0,1,.74-1,1.91,1.91,0,0,1,1.17-.55c.64,0,.92.63.92,1.38a10,10,0,0,1-.76,3.06c-.36.78-1,1.47-1.68,1.47-1,0-1.13-1.24-1.13-1.3a1.24,1.24,0,0,1,0-.23l.7-2.81m-2.48,6.31c-.1.43-.16.54-.75.54-.17,0-.32,0-.32.27a.16.16,0,0,0,.18.15l.57,0H300l1.33,0c.09,0,.26,0,.26-.26s-.1-.16-.34-.16c-.66,0-.7-.1-.7-.22s.64-2.64.73-3a1.39,1.39,0,0,0,1.29,1c1.62,0,3.38-2.11,3.38-4.22,0-1.32-.75-2.26-1.83-2.26a2.77,2.77,0,0,0-1.85,1.1A1.26,1.26,0,0,0,301,8.56a1.11,1.11,0,0,0-1,.75,6.83,6.83,0,0,0-.46,1.45.15.15,0,0,0,.16.13c.11,0,.13,0,.21-.34.22-.85.49-1.7,1.07-1.7.33,0,.44.23.44.66a2.67,2.67,0,0,1-.1.75Z" transform="translate(-7.19 -4.13)"/><path d="M311,14.07a1.23,1.23,0,0,0,1.22,1,1.16,1.16,0,0,0,1-.79,6.59,6.59,0,0,0,.43-1.4.12.12,0,0,0-.14-.13c-.13,0-.14.07-.2.28-.26,1-.52,1.76-1.09,1.76s-.43-.48-.43-.66A4.12,4.12,0,0,1,312,13c.1-.39.2-.78.29-1.18l.59-2.34a1.78,1.78,0,0,0,.1-.43.36.36,0,0,0-.39-.36c-.41,0-.51.36-.6.72-.14.56-.92,3.65-1,4.15,0,0-.57,1.18-1.62,1.18-.75,0-.89-.65-.89-1.18a9.52,9.52,0,0,1,.77-2.93,2.57,2.57,0,0,0,.25-.94,1.12,1.12,0,0,0-1.14-1.15c-1.32,0-1.85,2.09-1.85,2.2a.15.15,0,0,0,.16.13c.12,0,.14-.06.2-.26.34-1.23.9-1.78,1.45-1.78.14,0,.37,0,.37.48a4,4,0,0,1-.37,1.33,7.91,7.91,0,0,0-.71,2.69,1.56,1.56,0,0,0,1.7,1.69,2.2,2.2,0,0,0,1.71-1" transform="translate(-7.19 -4.13)"/><path d="M317,9.12h1.32c.27,0,.42,0,.42-.25s-.09-.16-.38-.16h-1.26l.53-2.1a.87.87,0,0,0,.06-.33.36.36,0,0,0-.38-.36.58.58,0,0,0-.56.51l-.56,2.28h-1.35c-.28,0-.41,0-.41.27s.1.14.37.14h1.28l-.95,3.8a3.7,3.7,0,0,0-.16.83A1.25,1.25,0,0,0,316.24,15c1.45,0,2.23-2.09,2.23-2.19s-.06-.13-.15-.13a.12.12,0,0,0-.11,0s0,0-.13.26c-.3.72-1,1.73-1.8,1.73-.43,0-.46-.36-.46-.68a2.05,2.05,0,0,1,.05-.46L317,9.12" transform="translate(-7.19 -4.13)"/><path d="M327.07,18.39s0-.07-.25-.31c-1.43-1.46-2.24-3.83-2.24-6.76a9.51,9.51,0,0,1,2.34-6.88c.15-.13.15-.16.15-.2a.12.12,0,0,0-.13-.12,6,6,0,0,0-2.07,2.45,10.26,10.26,0,0,0-1.06,4.75,10.57,10.57,0,0,0,.95,4.53,6.1,6.1,0,0,0,2.18,2.66.12.12,0,0,0,.13-.12" transform="translate(-7.19 -4.13)"/><path d="M331.58,16.51a2.14,2.14,0,0,1-1.65,1,1.07,1.07,0,0,1-1.08-.69.36.36,0,0,0,.14,0,.73.73,0,0,0,.72-.71.44.44,0,0,0-.49-.44.78.78,0,0,0-.73.88,1.3,1.3,0,0,0,1.44,1.23,3.79,3.79,0,0,0,3.29-2.92l1.4-5.6a.93.93,0,0,0,.05-.24.37.37,0,0,0-.39-.36.58.58,0,0,0-.55.49l-1.06,4.22a.94.94,0,0,1-.19.45,1.84,1.84,0,0,1-1.45.89c-.8,0-.87-.79-.87-1.18a9.62,9.62,0,0,1,.77-3,2.46,2.46,0,0,0,.25-.91A1.12,1.12,0,0,0,330,8.56c-1.32,0-1.85,2.09-1.85,2.2a.15.15,0,0,0,.16.13c.13,0,.14-.06.2-.26.34-1.2.89-1.78,1.45-1.78.13,0,.37,0,.37.48a4,4,0,0,1-.37,1.33,7.12,7.12,0,0,0-.71,2.7A1.55,1.55,0,0,0,331,15a1.9,1.9,0,0,0,1.43-.66l0,0a5.44,5.44,0,0,1-.86,2.11" transform="translate(-7.19 -4.13)"/><path d="M339.25,11.32a10.62,10.62,0,0,0-.95-4.54,6.17,6.17,0,0,0-2.18-2.66.12.12,0,0,0-.13.12s0,.07.24.32c1.44,1.45,2.25,3.82,2.25,6.75s-.68,5.19-2.35,6.88c-.14.13-.14.16-.14.2a.12.12,0,0,0,.13.12,6.08,6.08,0,0,0,2.07-2.45,10.34,10.34,0,0,0,1.06-4.74" transform="translate(-7.19 -4.13)"/><path class="cls-1" d="M45.06,79.81c0-18.64-7.59-33.74-17-33.74s-17,15.1-17,33.74,7.59,33.74,17,33.74S45.06,98.44,45.06,79.81Z" transform="translate(-7.19 -4.13)"/><path class="cls-1" d="M335.1,78.32c0-31.41-8.52-56.88-19-56.88s-19,25.47-19,56.88,8.51,56.89,19,56.89S335.1,109.74,335.1,78.32Z" transform="translate(-7.19 -4.13)"/><path class="cls-1" d="M208.87,80.4c0-6-16.3-10.8-36.39-10.8s-36.39,4.83-36.39,10.8,16.29,10.8,36.39,10.8S208.87,86.36,208.87,80.4Z" transform="translate(-7.19 -4.13)"/><line class="cls-2" x1="212.09" y1="74.17" x2="296.53" y2="42.89"/><path class="cls-3" d="M301.55,45.61a4.33,4.33,0,0,0,2.54,1.27A4.43,4.43,0,0,0,303,49.5" transform="translate(-7.19 -4.13)"/><line class="cls-4" x1="212.31" y1="75.42" x2="296.27" y2="75.42"/><path class="cls-5" d="M301.9,77.47c.13.78,1.55,1.94,1.94,2.07-.39.13-1.81,1.3-1.94,2.07" transform="translate(-7.19 -4.13)"/><line class="cls-4" x1="31.94" y1="91.77" x2="116.01" y2="76.2"/><path class="cls-6" d="M121.29,78.57a4.4,4.4,0,0,0,2.3,1.69,4.33,4.33,0,0,0-1.54,2.39" transform="translate(-7.19 -4.13)"/><line class="cls-2" x1="31.94" y1="59.06" x2="116.01" y2="74.63"/><path class="cls-7" d="M122.05,76.43a4.4,4.4,0,0,0,1.54,2.4,4.32,4.32,0,0,0-2.3,1.68" transform="translate(-7.19 -4.13)"/></svg>