<svg id="Layer_1" data-name="Layer 1" xmlns="http://www.w3.org/2000/svg" viewBox="0 0 332.06 127.88"><defs><style>.cls-1,.cls-2,.cls-3,.cls-4,.cls-5,.cls-6,.cls-7{fill:none;}.cls-1{stroke:#000;stroke-width:0.8px;}.cls-1,.cls-2,.cls-6{stroke-miterlimit:10;}.cls-2,.cls-3,.cls-4,.cls-5{stroke:#2caaca;}.cls-2{stroke-width:0.8px;}.cls-3,.cls-4,.cls-5,.cls-7{stroke-linecap:round;stroke-linejoin:round;}.cls-3{stroke-width:0.64px;}.cls-4{stroke-width:0.64px;}.cls-5{stroke-width:0.64px;}.cls-6,.cls-7{stroke:#ec6c5e;}.cls-6{stroke-width:0.8px;}.cls-7{stroke-width:0.64px;}</style></defs><title>Functions.13</title><circle cx="28.41" cy="55.43" r="1.41"/><path d="M30.07,64.59,33,59.77l.49,4.82ZM28.34,66.8A1.94,1.94,0,0,1,26.66,68c-.16,0-.27,0-.27.28a.15.15,0,0,0,.17.14l1.16,0,1.28,0c.09,0,.26,0,.26-.27s-.11-.15-.2-.15c-.33,0-.6-.14-.6-.48a1.3,1.3,0,0,1,.27-.68L29.82,65h3.66c0,.13,0,.25,0,.37.05.38.22,1.87.22,2.14,0,.44-.73.46-1,.46s-.32,0-.32.26.13.16.22.16l.77,0h.82c.88,0,1.51,0,1.52,0s.26,0,.26-.27S35.91,68,35.7,68c-.79,0-.81-.13-.85-.56l-.88-9c0-.29-.08-.32-.24-.32s-.23,0-.36.25Z" transform="translate(-13.19 -8.13)"/><path d="M43,97.57A1.41,1.41,0,1,0,41.59,99,1.41,1.41,0,0,0,43,97.57Z" transform="translate(-13.19 -8.13)"/><path d="M30.74,102.08H28.49c-.16,0-.17,0-.17-.16a1.39,1.39,0,0,1,.06-.31l1-4.06h2.7a1.61,1.61,0,0,1,1.7,1.7,3,3,0,0,1-3,2.84m2.05-4.71c1.56-.29,3-1.38,3-2.7,0-1.12-1-2-2.61-2H28.55c-.28,0-.41,0-.41.27s.13.14.35.14c.88,0,.88.12.88.28a1.21,1.21,0,0,1-.06.33l-1.94,7.73c-.13.5-.16.64-1.16.64-.28,0-.42,0-.42.26s.09.16.37.16h4.93c2.2,0,3.89-1.67,3.89-3.12A2.18,2.18,0,0,0,32.79,97.37Zm-2.43-3.7c.13-.54.18-.57.74-.57H33a1.46,1.46,0,0,1,1.62,1.51,2.93,2.93,0,0,1-3.05,2.65H29.47Z" transform="translate(-13.19 -8.13)"/><path d="M17.89,10.15c.13-.5.15-.64,1.2-.64.32,0,.43,0,.43-.28s-.15-.14-.2-.14l-.83,0H16.72l-.9,0c-.12,0-.28,0-.28.27s.12.15.41.15c.89,0,.89.11.89.27a1.39,1.39,0,0,1-.06.31l-1.94,7.75c-.13.5-.16.64-1.21.64-.31,0-.44,0-.44.28s.14.14.21.14l.84,0H16l.88,0c.12,0,.29,0,.29-.26s-.08-.16-.4-.16c-.89,0-.89-.11-.89-.28a1.27,1.27,0,0,1,.06-.33l1.94-7.72" transform="translate(-13.19 -8.13)"/><path d="M23,14.69a4.06,4.06,0,0,1,.92-1.26,2.05,2.05,0,0,1,1.42-.58c.58,0,.78.43.78,1a12.92,12.92,0,0,1-.88,3.23,2.08,2.08,0,0,0-.2.79A1.1,1.1,0,0,0,26.13,19C27.47,19,28,16.93,28,16.85a.12.12,0,0,0-.14-.13c-.13,0-.14,0-.22.28-.33,1.18-.87,1.76-1.43,1.76-.15,0-.38,0-.38-.48a2.75,2.75,0,0,1,.25-1,13,13,0,0,0,.89-3.22,1.42,1.42,0,0,0-1.6-1.51,2.71,2.71,0,0,0-2.21,1.27,1.25,1.25,0,0,0-1.26-1.27,1.13,1.13,0,0,0-1,.77,6.6,6.6,0,0,0-.46,1.43.14.14,0,0,0,.15.13c.12,0,.13,0,.22-.34.23-.88.49-1.7,1.06-1.7.33,0,.45.23.45.66A7,7,0,0,1,22,14.83l-.4,1.56c-.05.27-.21.91-.28,1.17s-.26,1.05-.26,1.12a.35.35,0,0,0,.37.36.55.55,0,0,0,.49-.3c0-.07.16-.57.23-.86l.32-1.29.47-1.9" transform="translate(-13.19 -8.13)"/><path d="M31.4,14.42a2.41,2.41,0,0,1,.74-1,1.91,1.91,0,0,1,1.17-.55c.63,0,.92.63.92,1.38a10,10,0,0,1-.76,3.06c-.36.78-1,1.47-1.68,1.47-1,0-1.13-1.24-1.13-1.3a1.24,1.24,0,0,1,0-.23l.7-2.81m-2.48,6.31c-.1.43-.16.54-.75.54-.17,0-.32,0-.32.27a.16.16,0,0,0,.18.15l.57,0h.62l1.33,0c.09,0,.26,0,.26-.26s-.1-.16-.34-.16c-.66,0-.7-.1-.7-.22s.64-2.64.73-3a1.39,1.39,0,0,0,1.29,1c1.62,0,3.38-2.11,3.38-4.22,0-1.32-.75-2.26-1.83-2.26a2.77,2.77,0,0,0-1.85,1.1,1.25,1.25,0,0,0-1.25-1.1,1.11,1.11,0,0,0-1,.75,6.83,6.83,0,0,0-.46,1.45.15.15,0,0,0,.16.13c.11,0,.13,0,.21-.34.22-.85.49-1.7,1.07-1.7.33,0,.44.23.44.66a2.67,2.67,0,0,1-.1.75Z" transform="translate(-13.19 -8.13)"/><path d="M40.3,18.07a1.22,1.22,0,0,0,1.22,1,1.16,1.16,0,0,0,1-.79,6.59,6.59,0,0,0,.43-1.4.12.12,0,0,0-.14-.13c-.13,0-.14.07-.2.28-.26,1-.52,1.76-1.09,1.76s-.43-.48-.43-.66A4.12,4.12,0,0,1,41.3,17c.1-.39.21-.78.29-1.18l.59-2.34a1.78,1.78,0,0,0,.1-.43.36.36,0,0,0-.39-.36c-.41,0-.51.36-.6.72-.14.56-.92,3.65-1,4.15,0,0-.58,1.18-1.62,1.18-.75,0-.89-.65-.89-1.18a9.52,9.52,0,0,1,.77-2.93,2.38,2.38,0,0,0,.25-.94,1.12,1.12,0,0,0-1.14-1.15c-1.32,0-1.85,2.09-1.85,2.2a.14.14,0,0,0,.15.13c.13,0,.15-.06.21-.26.34-1.23.9-1.78,1.45-1.78.14,0,.37,0,.37.48a4,4,0,0,1-.37,1.33,7.91,7.91,0,0,0-.71,2.69A1.56,1.56,0,0,0,38.59,19a2.2,2.2,0,0,0,1.71-1" transform="translate(-13.19 -8.13)"/><path d="M46.29,13.12h1.32c.27,0,.41,0,.41-.25s-.08-.16-.37-.16H46.39l.53-2.1a.87.87,0,0,0,.06-.33.36.36,0,0,0-.38-.36.58.58,0,0,0-.56.51l-.56,2.28H44.13c-.29,0-.41,0-.41.27s.1.14.37.14h1.28l-.95,3.8a3.7,3.7,0,0,0-.16.83A1.25,1.25,0,0,0,45.54,19C47,19,47.77,17,47.77,16.85s-.06-.13-.15-.13a.11.11,0,0,0-.11.05s0,0-.13.26c-.3.72-1,1.73-1.8,1.73-.43,0-.46-.36-.46-.68a2.05,2.05,0,0,1,.05-.46l1.12-4.5" transform="translate(-13.19 -8.13)"/><path d="M56.27,22.39s0-.07-.25-.31c-1.43-1.46-2.24-3.83-2.24-6.76a9.51,9.51,0,0,1,2.34-6.88c.15-.13.15-.16.15-.2a.12.12,0,0,0-.13-.12,6,6,0,0,0-2.07,2.45A10.26,10.26,0,0,0,53,15.32a10.57,10.57,0,0,0,1,4.53,6.1,6.1,0,0,0,2.18,2.66.12.12,0,0,0,.13-.12" transform="translate(-13.19 -8.13)"/><path d="M63.91,13a.71.71,0,0,0-.63.7.44.44,0,0,0,.47.46.75.75,0,0,0,.73-.76c0-.6-.69-.88-1.29-.88A1.83,1.83,0,0,0,61.7,13.7a1.49,1.49,0,0,0-1.48-1.14c-1.47,0-2.24,1.89-2.24,2.2a.14.14,0,0,0,.15.13c.12,0,.15-.08.18-.14.48-1.6,1.45-1.9,1.86-1.9.65,0,.78.61.78,1a6.16,6.16,0,0,1-.26,1.34l-.49,2c-.21.87-.63,1.66-1.39,1.66a1.42,1.42,0,0,1-.73-.19.75.75,0,0,0,.63-.7.45.45,0,0,0-.49-.46.75.75,0,0,0-.72.76c0,.6.68.87,1.29.87a1.77,1.77,0,0,0,1.48-1.13A1.51,1.51,0,0,0,61.76,19C63.22,19,64,17.16,64,16.85a.12.12,0,0,0-.14-.13c-.13,0-.14.07-.18.18-.39,1.27-1.23,1.86-1.87,1.86s-.78-.38-.78-1a6.63,6.63,0,0,1,.29-1.49l.5-2c.22-.87.71-1.5,1.37-1.5a1.51,1.51,0,0,1,.73.19" transform="translate(-13.19 -8.13)"/><path d="M69.15,15.32a10.62,10.62,0,0,0-1-4.54A6.17,6.17,0,0,0,66,8.12a.12.12,0,0,0-.13.12s0,.07.24.32c1.44,1.45,2.25,3.82,2.25,6.75S67.7,20.5,66,22.19c-.14.13-.14.16-.14.2a.12.12,0,0,0,.13.12,6.08,6.08,0,0,0,2.07-2.45,10.34,10.34,0,0,0,1.06-4.74" transform="translate(-13.19 -8.13)"/><path d="M128,80.56a1.41,1.41,0,1,0-1.4,1.41A1.41,1.41,0,0,0,128,80.56Z" transform="translate(-13.19 -8.13)"/><circle cx="215.49" cy="72.44" r="1.41"/><circle cx="300.53" cy="38.42" r="1.41"/><path d="M329.63,41.42a.12.12,0,0,0-.13-.13s-.08,0-.2.14l-1,1.21a2.59,2.59,0,0,0-2.37-1.35,6.86,6.86,0,0,0-6.32,6.52,3.68,3.68,0,0,0,3.78,3.89,4.61,4.61,0,0,0,3-1.19A5,5,0,0,0,328,48c0-.13-.12-.13-.16-.13s-.14.09-.17.15a4.45,4.45,0,0,1-4,3.31,2.74,2.74,0,0,1-2.84-3,8.11,8.11,0,0,1,1.76-4.84,4.92,4.92,0,0,1,3.51-1.73c1.58,0,2.28,1.31,2.28,2.78,0,.37,0,.69,0,.74s.14.13.19.13.17,0,.23-.27l.9-3.66" transform="translate(-13.19 -8.13)"/><circle cx="300.53" cy="72.44" r="1.41"/><path d="M324.19,76.57c.13-.54.18-.56.74-.56h1.58a2.43,2.43,0,0,1,2.59,2.71,8.3,8.3,0,0,1-1.68,4.8A4.24,4.24,0,0,1,324.27,85h-1.95c-.16,0-.17,0-.17-.16a1.24,1.24,0,0,1,.05-.31l2-7.93m-3,7.77c-.12.5-.15.64-1.16.64-.27,0-.42,0-.42.26s.09.16.38.16h4.55c2.9,0,5.73-3,5.73-6.21,0-2.07-1.23-3.6-3.28-3.6h-4.62c-.27,0-.4,0-.4.27s.13.15.35.15c.87,0,.87.11.87.27a1.44,1.44,0,0,1,0,.33Z" transform="translate(-13.19 -8.13)"/><path d="M315.13,114.58a1.41,1.41,0,1,0-1.41,1.41A1.41,1.41,0,0,0,315.13,114.58Z" transform="translate(-13.19 -8.13)"/><path d="M328.88,116.17a.76.76,0,0,0,.06-.2.15.15,0,0,0-.14-.15.16.16,0,0,0-.13.06s0,0-.16.33c-.85,2-1.46,2.87-3.76,2.87h-2.42c-.16,0-.17,0-.17-.16a1.39,1.39,0,0,1,.06-.31l1-4h1.42c1.12,0,1.21.25,1.21.67a2.61,2.61,0,0,1-.1.71.34.34,0,0,0,0,.16.13.13,0,0,0,.15.14c.13,0,.15-.1.2-.3l.82-3.33a.14.14,0,0,0-.14-.15c-.13,0-.14.06-.2.26-.29,1.11-.58,1.42-1.86,1.42h-1.36l.89-3.53c.13-.5.16-.55.75-.55H327c1.77,0,2.13.48,2.13,1.57a7.79,7.79,0,0,1-.06.89c0,.06,0,.14,0,.17a.14.14,0,0,0,.16.16c.1,0,.16-.06.19-.32l.3-2.51s0-.19,0-.21-.13-.16-.39-.16h-7c-.27,0-.42,0-.42.26s.1.15.35.15c.89,0,.89.1.89.26a1.32,1.32,0,0,1-.06.29l-1.94,7.76c-.13.5-.16.64-1.16.64-.28,0-.42,0-.42.26s.09.16.37.16h7.22c.31,0,.33,0,.43-.24l1.3-3.09" transform="translate(-13.19 -8.13)"/><path d="M285.25,18.87c-1.18,0-2.43-.86-2.43-3.1a8.42,8.42,0,0,1,1.66-4.89,4.35,4.35,0,0,1,3.21-1.78c1.27,0,2.49.92,2.49,3a9.07,9.07,0,0,1-1.51,4.64,4.47,4.47,0,0,1-3.42,2.14m6.08-6.26a3.52,3.52,0,0,0-3.56-3.82c-3.08,0-6.18,3.3-6.18,6.62a3.53,3.53,0,0,0,3.58,3.79C288.18,19.2,291.33,16.06,291.33,12.61Z" transform="translate(-13.19 -8.13)"/><path d="M296.9,18.07a1.22,1.22,0,0,0,1.22,1,1.16,1.16,0,0,0,1-.79,6.59,6.59,0,0,0,.43-1.4.12.12,0,0,0-.14-.13c-.13,0-.14.07-.2.28-.26,1-.52,1.76-1.09,1.76s-.43-.48-.43-.66A4.12,4.12,0,0,1,297.9,17c.1-.39.2-.78.29-1.18l.59-2.34a1.78,1.78,0,0,0,.1-.43.36.36,0,0,0-.39-.36c-.41,0-.51.36-.6.72-.14.56-.92,3.65-1,4.15,0,0-.57,1.18-1.62,1.18-.75,0-.89-.65-.89-1.18a9.52,9.52,0,0,1,.77-2.93,2.57,2.57,0,0,0,.25-.94,1.12,1.12,0,0,0-1.14-1.15c-1.32,0-1.85,2.09-1.85,2.2a.15.15,0,0,0,.16.13c.12,0,.14-.06.2-.26.34-1.23.9-1.78,1.45-1.78.14,0,.37,0,.37.48a4,4,0,0,1-.37,1.33,7.91,7.91,0,0,0-.71,2.69,1.56,1.56,0,0,0,1.7,1.69,2.2,2.2,0,0,0,1.71-1" transform="translate(-13.19 -8.13)"/><path d="M302.89,13.12h1.32c.27,0,.41,0,.41-.25s-.08-.16-.37-.16H303l.53-2.1a.87.87,0,0,0,.06-.33.36.36,0,0,0-.38-.36.58.58,0,0,0-.56.51l-.56,2.28h-1.35c-.28,0-.41,0-.41.27s.1.14.37.14H302l-1,3.8a3.7,3.7,0,0,0-.16.83A1.25,1.25,0,0,0,302.14,19c1.45,0,2.23-2.09,2.23-2.19s-.06-.13-.15-.13a.12.12,0,0,0-.11.05s0,0-.13.26c-.3.72-1,1.73-1.8,1.73-.43,0-.46-.36-.46-.68a2.05,2.05,0,0,1,0-.46l1.12-4.5" transform="translate(-13.19 -8.13)"/><path d="M308.2,14.42a2.41,2.41,0,0,1,.74-1,1.91,1.91,0,0,1,1.17-.55c.64,0,.92.63.92,1.38a10,10,0,0,1-.76,3.06c-.36.78-1,1.47-1.68,1.47-1,0-1.13-1.24-1.13-1.3a1.24,1.24,0,0,1,0-.23l.7-2.81m-2.48,6.31c-.1.43-.16.54-.75.54-.17,0-.32,0-.32.27a.16.16,0,0,0,.18.15l.57,0H306l1.33,0c.09,0,.26,0,.26-.26s-.1-.16-.34-.16c-.66,0-.7-.1-.7-.22s.64-2.64.73-3a1.39,1.39,0,0,0,1.29,1c1.62,0,3.38-2.11,3.38-4.22,0-1.32-.75-2.26-1.83-2.26a2.77,2.77,0,0,0-1.85,1.1,1.26,1.26,0,0,0-1.25-1.1,1.11,1.11,0,0,0-1,.75,6.83,6.83,0,0,0-.46,1.45.15.15,0,0,0,.16.13c.11,0,.13,0,.21-.34.22-.85.49-1.7,1.07-1.7.33,0,.44.23.44.66a2.67,2.67,0,0,1-.1.75Z" transform="translate(-13.19 -8.13)"/><path d="M317,18.07a1.23,1.23,0,0,0,1.22,1,1.16,1.16,0,0,0,1-.79,6.59,6.59,0,0,0,.43-1.4.12.12,0,0,0-.14-.13c-.13,0-.14.07-.2.28-.26,1-.52,1.76-1.09,1.76s-.43-.48-.43-.66A4.12,4.12,0,0,1,318,17c.1-.39.2-.78.29-1.18l.59-2.34a1.78,1.78,0,0,0,.1-.43.36.36,0,0,0-.39-.36c-.41,0-.51.36-.6.72-.14.56-.92,3.65-1,4.15,0,0-.57,1.18-1.62,1.18-.75,0-.89-.65-.89-1.18a9.52,9.52,0,0,1,.77-2.93,2.57,2.57,0,0,0,.25-.94,1.12,1.12,0,0,0-1.14-1.15c-1.32,0-1.85,2.09-1.85,2.2a.15.15,0,0,0,.16.13c.12,0,.14-.06.2-.26.34-1.23.9-1.78,1.45-1.78.14,0,.37,0,.37.48a4,4,0,0,1-.37,1.33,7.91,7.91,0,0,0-.71,2.69,1.56,1.56,0,0,0,1.7,1.69,2.2,2.2,0,0,0,1.71-1" transform="translate(-13.19 -8.13)"/><path d="M323,13.12h1.32c.27,0,.42,0,.42-.25s-.09-.16-.38-.16h-1.26l.53-2.1a.87.87,0,0,0,.06-.33.36.36,0,0,0-.38-.36.58.58,0,0,0-.56.51l-.56,2.28h-1.35c-.28,0-.41,0-.41.27s.1.14.37.14h1.28l-.95,3.8a3.7,3.7,0,0,0-.16.83A1.25,1.25,0,0,0,322.24,19c1.45,0,2.23-2.09,2.23-2.19s-.06-.13-.15-.13a.12.12,0,0,0-.11.05s0,0-.13.26c-.3.72-1,1.73-1.8,1.73-.43,0-.46-.36-.46-.68a2.05,2.05,0,0,1,.05-.46l1.12-4.5" transform="translate(-13.19 -8.13)"/><path d="M333.07,22.39s0-.07-.25-.31c-1.43-1.46-2.24-3.83-2.24-6.76a9.51,9.51,0,0,1,2.34-6.88c.15-.13.15-.16.15-.2a.12.12,0,0,0-.13-.12,6,6,0,0,0-2.07,2.45,10.26,10.26,0,0,0-1.06,4.75,10.57,10.57,0,0,0,.95,4.53,6.1,6.1,0,0,0,2.18,2.66.12.12,0,0,0,.13-.12" transform="translate(-13.19 -8.13)"/><path d="M337.58,20.51a2.14,2.14,0,0,1-1.65,1,1.07,1.07,0,0,1-1.08-.69.36.36,0,0,0,.14,0,.73.73,0,0,0,.72-.71.44.44,0,0,0-.49-.44.78.78,0,0,0-.73.88,1.3,1.3,0,0,0,1.44,1.23,3.79,3.79,0,0,0,3.29-2.92l1.4-5.6a.93.93,0,0,0,.05-.24.37.37,0,0,0-.39-.36.58.58,0,0,0-.55.49l-1.06,4.22a.94.94,0,0,1-.19.45,1.84,1.84,0,0,1-1.45.89c-.8,0-.87-.79-.87-1.18a9.62,9.62,0,0,1,.77-3,2.46,2.46,0,0,0,.25-.91A1.12,1.12,0,0,0,336,12.56c-1.32,0-1.85,2.09-1.85,2.2a.15.15,0,0,0,.16.13c.13,0,.14-.06.2-.26.34-1.2.89-1.78,1.45-1.78.13,0,.37,0,.37.48a4,4,0,0,1-.37,1.33,7.12,7.12,0,0,0-.71,2.7A1.55,1.55,0,0,0,337,19a1.9,1.9,0,0,0,1.43-.66l0,0a5.44,5.44,0,0,1-.86,2.11" transform="translate(-13.19 -8.13)"/><path d="M345.25,15.32a10.62,10.62,0,0,0-.95-4.54,6.17,6.17,0,0,0-2.18-2.66.12.12,0,0,0-.13.12s0,.07.24.32c1.44,1.45,2.25,3.82,2.25,6.75s-.68,5.19-2.35,6.88c-.14.13-.14.16-.14.2a.12.12,0,0,0,.13.12,6.08,6.08,0,0,0,2.07-2.45,10.34,10.34,0,0,0,1.06-4.74" transform="translate(-13.19 -8.13)"/><path class="cls-1" d="M51.06,80.52c0-17.13-7-31-15.59-31s-15.59,13.9-15.59,31,7,31,15.59,31S51.06,97.66,51.06,80.52Z" transform="translate(-13.19 -8.13)"/><path class="cls-1" d="M338.9,80.52c0-30.42-8.25-55.08-18.43-55.08S302.05,50.1,302.05,80.52s8.25,55.09,18.42,55.09S338.9,111,338.9,80.52Z" transform="translate(-13.19 -8.13)"/><line class="cls-2" x1="219.12" y1="72.42" x2="296.27" y2="72.42"/><path class="cls-3" d="M307.9,78.47c.13.78,1.55,1.94,1.94,2.07-.39.13-1.81,1.3-1.94,2.07" transform="translate(-13.19 -8.13)"/><line class="cls-2" x1="31.93" y1="56.11" x2="109.22" y2="71.57"/><path class="cls-4" d="M121.29,77.35a4.3,4.3,0,0,0,1.5,2.42,4.35,4.35,0,0,0-2.32,1.66" transform="translate(-13.19 -8.13)"/><line class="cls-2" x1="218.87" y1="71.08" x2="296.56" y2="40"/><path class="cls-5" d="M307.53,46.77A4.37,4.37,0,0,0,310.11,48a4.39,4.39,0,0,0-1,2.65" transform="translate(-13.19 -8.13)"/><path d="M145.25,79.08c1.78-.39,3.18-1.54,3.18-2.77s-1.14-2.16-3.13-2.16h-3.9c-.29,0-.41,0-.41.28s.1.14.37.14c.86,0,.86.12.86.27a1.37,1.37,0,0,1-.05.33l-1.95,7.73c-.12.51-.15.65-1.14.65-.34,0-.44,0-.44.27s.16.15.21.15l.83,0h1.69l.82,0c.12,0,.28,0,.28-.28s-.13-.14-.35-.14c-.88,0-.88-.12-.88-.26a1,1,0,0,1,0-.23l1-3.86H144c1.37,0,1.62.86,1.62,1.33a6.78,6.78,0,0,1-.24,1.15,4.36,4.36,0,0,0-.2,1.09c0,1,.83,1.5,1.79,1.5,1.17,0,1.67-1.42,1.67-1.63s-.07-.14-.16-.14-.14.09-.17.2c-.34,1-.93,1.28-1.29,1.28s-.59-.16-.59-.81c0-.34.17-1.65.19-1.72a4.71,4.71,0,0,0,.07-.7,1.77,1.77,0,0,0-1.4-1.67m-2-4c.13-.53.18-.56.74-.56h1c1.23,0,2.15.37,2.15,1.49,0,.74-.37,2.85-3.26,2.85h-1.62Z" transform="translate(-13.19 -8.13)"/><path d="M150.65,80.35c.62-2.22,2-2.43,2.44-2.43a1,1,0,0,1,1.07.92c0,1.51-2.3,1.51-2.9,1.51h-.61m.69.28a6.79,6.79,0,0,0,2-.28,1.64,1.64,0,0,0,1.2-1.51c0-.63-.55-1.21-1.5-1.21a3.89,3.89,0,0,0-3.67,3.92c0,1.51.86,2.56,2.17,2.56a3.78,3.78,0,0,0,3.18-1.71.16.16,0,0,0-.14-.16s-.06,0-.19.15a3.66,3.66,0,0,1-2.83,1.43c-.81,0-1.25-.65-1.25-1.71a5.78,5.78,0,0,1,.22-1.48Z" transform="translate(-13.19 -8.13)"/><path d="M158.92,74.35a1.12,1.12,0,0,0,0-.21c0-.14-.14-.14-.17-.14l-.79.07-.72.05c-.34,0-.44,0-.44.31s.14.14.28.14c.74,0,.74.13.74.27a1,1,0,0,1-.08.35L156,82.31a1.79,1.79,0,0,0-.07.51,1.26,1.26,0,0,0,1.26,1.29,1.16,1.16,0,0,0,1-.76,6.34,6.34,0,0,0,.45-1.44.13.13,0,0,0-.14-.13c-.13,0-.15.07-.21.29-.25,1-.51,1.75-1.09,1.75-.43,0-.43-.46-.43-.66a3.17,3.17,0,0,1,.1-.76l2-8.05" transform="translate(-13.19 -8.13)"/><path d="M165,78.58a1.41,1.41,0,0,0-1.29-1c-1.62,0-3.38,2.1-3.38,4.22,0,1.43.84,2.26,1.81,2.26A2.7,2.7,0,0,0,164,83a1.25,1.25,0,0,0,1.25,1.09,1.18,1.18,0,0,0,1-.78,7.06,7.06,0,0,0,.43-1.42.14.14,0,0,0-.15-.13c-.13,0-.14.07-.2.29-.21.85-.49,1.75-1.08,1.75-.41,0-.44-.37-.44-.66a4,4,0,0,1,.17-1c.1-.36.17-.67.29-1.09.53-2.15.66-2.67.66-2.76a.36.36,0,0,0-.37-.36c-.46,0-.58.51-.61.68m-.92,3.68a1.19,1.19,0,0,1-.27.54,2.39,2.39,0,0,1-1.62,1c-.59,0-.92-.53-.92-1.38a10.07,10.07,0,0,1,.72-3c.49-1,1.16-1.52,1.72-1.52.95,0,1.14,1.18,1.14,1.29s-.05.2-.06.23Z" transform="translate(-13.19 -8.13)"/><path d="M170.06,78.19h1.32c.27,0,.42,0,.42-.26s-.09-.16-.38-.16h-1.26l.53-2.09a.89.89,0,0,0,.06-.33.36.36,0,0,0-.38-.36.58.58,0,0,0-.56.5l-.56,2.28H167.9c-.29,0-.41,0-.41.28s.1.14.37.14h1.28L168.19,82a4.63,4.63,0,0,0-.16.84,1.25,1.25,0,0,0,1.28,1.29c1.45,0,2.23-2.1,2.23-2.2s-.06-.13-.15-.13a.11.11,0,0,0-.11.06s0,0-.13.26c-.3.72-1,1.72-1.8,1.72-.43,0-.46-.36-.46-.67a2,2,0,0,1,.05-.46l1.12-4.5" transform="translate(-13.19 -8.13)"/><path d="M176.22,75a.48.48,0,0,0-.49-.47.74.74,0,0,0-.7.69.46.46,0,0,0,.47.47.75.75,0,0,0,.72-.69m.12,6.91a.14.14,0,0,0-.15-.13c-.13,0-.14,0-.21.29-.38,1.31-1,1.75-1.44,1.75-.17,0-.37,0-.37-.47a3.87,3.87,0,0,1,.33-1.25l1-2.67a1.77,1.77,0,0,0,.15-.65,1.12,1.12,0,0,0-1.14-1.15c-1.32,0-1.85,2.08-1.85,2.2a.14.14,0,0,0,.15.13c.13,0,.15-.06.21-.26.34-1.21.89-1.78,1.45-1.78.13,0,.37,0,.37.47a3.88,3.88,0,0,1-.3,1.16l-1,2.68a2.17,2.17,0,0,0-.17.72,1.11,1.11,0,0,0,1.14,1.16C175.82,84.11,176.34,82,176.34,81.91Z" transform="translate(-13.19 -8.13)"/><path d="M179.87,83.82c-.72,0-1.25-.57-1.25-1.58a7.8,7.8,0,0,1,.75-2.84,2.51,2.51,0,0,1,2-1.48c.7,0,1.25.57,1.25,1.58a7.25,7.25,0,0,1-.85,3,2.46,2.46,0,0,1-1.94,1.33m3.75-3.8a2.21,2.21,0,0,0-2.2-2.39c-1.89,0-3.76,2.07-3.76,4.09a2.21,2.21,0,0,0,2.2,2.39A4.23,4.23,0,0,0,183.62,80Z" transform="translate(-13.19 -8.13)"/><path d="M186.73,79.76a4.05,4.05,0,0,1,.92-1.27,2.09,2.09,0,0,1,1.42-.57c.57,0,.78.43.78,1a13,13,0,0,1-.88,3.24,2.08,2.08,0,0,0-.2.79,1.11,1.11,0,0,0,1.13,1.16c1.34,0,1.84-2.11,1.84-2.2a.13.13,0,0,0-.14-.13c-.13,0-.14,0-.22.29-.33,1.18-.87,1.75-1.43,1.75-.15,0-.38,0-.38-.47a2.75,2.75,0,0,1,.25-1,13,13,0,0,0,.89-3.22,1.42,1.42,0,0,0-1.6-1.51,2.71,2.71,0,0,0-2.21,1.27,1.25,1.25,0,0,0-1.26-1.27,1.12,1.12,0,0,0-1,.76,6.63,6.63,0,0,0-.46,1.44.14.14,0,0,0,.15.13c.12,0,.13,0,.22-.35.23-.87.49-1.69,1.06-1.69.34,0,.45.23.45.66a7.77,7.77,0,0,1-.24,1.32l-.41,1.55c0,.27-.21.92-.28,1.18s-.26,1.05-.26,1.12a.36.36,0,0,0,.37.36.57.57,0,0,0,.49-.3c0-.07.16-.58.23-.86l.32-1.3.47-1.89" transform="translate(-13.19 -8.13)"/><path d="M195.44,81.09l.72.15a1,1,0,0,1,.84,1,1.82,1.82,0,0,1-2.07,1.61c-.3,0-1.38,0-1.67-.83a.72.72,0,0,0,.86-.69.44.44,0,0,0-.48-.46.78.78,0,0,0-.74.89c0,.85.86,1.38,2,1.38a2.56,2.56,0,0,0,2.83-2.36,1.37,1.37,0,0,0-.46-1.07,2.53,2.53,0,0,0-1.48-.58c-.38-.08-1-.21-1-.86a1.45,1.45,0,0,1,1.62-1.32,1.29,1.29,0,0,1,1.34.74.6.6,0,0,0-.66.56.38.38,0,0,0,.4.39c.2,0,.6-.15.6-.76s-.54-1.22-1.66-1.22a2.21,2.21,0,0,0-2.39,2.07c0,1.09,1.06,1.32,1.39,1.39" transform="translate(-13.19 -8.13)"/><path d="M202.81,74.35a1.12,1.12,0,0,0,0-.21c0-.14-.14-.14-.17-.14s-.72,0-.79.07l-.72.05c-.36,0-.46,0-.46.31s.12.14.31.14c.71,0,.72.13.72.27a1.18,1.18,0,0,1,0,.25l-2.08,8.32a.92.92,0,0,0-.06.33.35.35,0,0,0,.39.37.58.58,0,0,0,.5-.35l.65-2.6c.07-.31.16-.61.23-.93a2.39,2.39,0,0,1,.43-1,2.49,2.49,0,0,1,2-1.28c.58,0,.78.43.78,1a12.86,12.86,0,0,1-.88,3.24,2.08,2.08,0,0,0-.2.79,1.11,1.11,0,0,0,1.14,1.16c1.33,0,1.84-2.11,1.84-2.2a.14.14,0,0,0-.15-.13c-.13,0-.14,0-.21.29-.34,1.15-.87,1.75-1.44,1.75-.14,0-.37,0-.37-.47a3.06,3.06,0,0,1,.23-1,13.43,13.43,0,0,0,.9-3.22,1.42,1.42,0,0,0-1.59-1.51,2.67,2.67,0,0,0-2.13,1.14l1.11-4.42" transform="translate(-13.19 -8.13)"/><path d="M210.82,75a.48.48,0,0,0-.49-.47.74.74,0,0,0-.7.69.46.46,0,0,0,.47.47.75.75,0,0,0,.72-.69m.12,6.91a.14.14,0,0,0-.15-.13c-.13,0-.14,0-.21.29-.38,1.31-1,1.75-1.44,1.75-.17,0-.37,0-.37-.47a3.87,3.87,0,0,1,.33-1.25l1-2.67a2,2,0,0,0,.15-.65,1.12,1.12,0,0,0-1.14-1.15c-1.32,0-1.85,2.08-1.85,2.2a.14.14,0,0,0,.16.13c.13,0,.14-.06.2-.26.34-1.21.89-1.78,1.45-1.78.13,0,.37,0,.37.47a3.88,3.88,0,0,1-.3,1.16l-1,2.68A2.17,2.17,0,0,0,208,83a1.11,1.11,0,0,0,1.14,1.16C210.42,84.11,210.94,82,210.94,81.91Z" transform="translate(-13.19 -8.13)"/><path d="M214.77,79.48a2.41,2.41,0,0,1,.74-1,1.91,1.91,0,0,1,1.17-.54c.63,0,.92.63.92,1.38a10,10,0,0,1-.76,3.06c-.36.77-1,1.46-1.68,1.46-1,0-1.13-1.23-1.13-1.29a1.24,1.24,0,0,1,0-.23l.7-2.82m-2.48,6.31c-.1.43-.16.55-.75.55-.17,0-.32,0-.32.27,0,0,0,.14.18.14l.57,0h.62l1.34,0c.08,0,.25,0,.25-.26s-.1-.15-.34-.15c-.66,0-.7-.1-.7-.22s.64-2.64.73-3a1.39,1.39,0,0,0,1.29,1c1.62,0,3.38-2.11,3.38-4.22,0-1.33-.75-2.26-1.83-2.26a2.76,2.76,0,0,0-1.85,1.09,1.25,1.25,0,0,0-1.25-1.09,1.09,1.09,0,0,0-1,.75,6.66,6.66,0,0,0-.46,1.45.15.15,0,0,0,.16.13c.11,0,.13,0,.21-.35.22-.84.49-1.69,1.07-1.69.33,0,.44.23.44.66a2.6,2.6,0,0,1-.1.74Z" transform="translate(-13.19 -8.13)"/><path class="cls-1" d="M224.41,80.56c0-7-20.93-12.76-46.75-12.76s-46.75,5.71-46.75,12.76,20.93,12.77,46.75,12.77S224.41,87.61,224.41,80.56Z" transform="translate(-13.19 -8.13)"/><line class="cls-6" x1="32.07" y1="89.13" x2="109.05" y2="73.98"/><path class="cls-7" d="M121,84.49a4.39,4.39,0,0,1,1.56-2.37,4.35,4.35,0,0,1-2.27-1.71" transform="translate(-13.19 -8.13)"/><line class="cls-6" x1="218.9" y1="73.82" x2="296.99" y2="105.6"/><path class="cls-7" d="M309.52,111.22a4.38,4.38,0,0,0,1,2.65,4.33,4.33,0,0,0-2.58,1.19" transform="translate(-13.19 -8.13)"/></svg>