<svg id="Layer_1" data-name="Layer 1" xmlns="http://www.w3.org/2000/svg" viewBox="0 0 2221.93 453.01"><defs><style>.cls-1{fill:#fecf0a;}.cls-2{fill:#faa31b;}.cls-3{fill:#91c3ea;}.cls-4{fill:#6091cc;}.cls-5{fill:#fff;}.cls-6{fill:#e9edf4;}.cls-7{fill:#4666b0;}.cls-8{font-size:271px;fill:#285166;font-family:ArialRoundedMTBold, Arial Rounded MT Bold;}.cls-9{letter-spacing:-0.01em;}</style></defs><circle class="cls-1" cx="226.51" cy="226.51" r="226.51"/><path class="cls-2" d="M277.6,320.59,403.42,446.4a227.33,227.33,0,0,0,84.37-101.49L304.42,161.6Z" transform="translate(-52.33 -30.7)"/><path class="cls-3" d="M52.33,257.3c.05,125.06,101.44,226.41,226.5,226.41S505.29,382.36,505.34,257.3Z" transform="translate(-52.33 -30.7)"/><path class="cls-4" d="M278.69,257.3V483.71h.14c125.07,0,226.46-101.35,226.51-226.41Z" transform="translate(-52.33 -30.7)"/><path class="cls-5" d="M387.22,341.26s-13.09-158-138.78-219.07c0,0,6.2,156.81-78,223.68C170.45,345.85,293.82,403.5,387.22,341.26Z" transform="translate(-52.33 -30.7)"/><path class="cls-6" d="M387.22,341.26S376.3,209.51,278.69,140.1v230C313.78,370.92,352.56,364.34,387.22,341.26Z" transform="translate(-52.33 -30.7)"/><path class="cls-4" d="M64.71,331.28c30.7,88.73,115,152.43,214.12,152.43S462.26,420,493,331.28Z" transform="translate(-52.33 -30.7)"/><path class="cls-7" d="M278.69,331.28V483.71h.14C378,483.71,462.26,420,493,331.28Z" transform="translate(-52.33 -30.7)"/><text class="cls-8" transform="translate(544.05 339.08)">Sa<tspan class="cls-9" x="341.79" y="0">f</tspan><tspan x="428.47" y="0">eharbour</tspan></text></svg>