<svg id="Layer_1" data-name="Layer 1" xmlns="http://www.w3.org/2000/svg" viewBox="0 0 221.64 174.66"><defs><style>.cls-1,.cls-2,.cls-4{fill:none;stroke-linecap:round;stroke-miterlimit:10;stroke-width:0.8px;}.cls-1,.cls-2{stroke:#27c9b8;}.cls-2{stroke-dasharray:2.99 2.99;}.cls-3{fill:#27c9b8;}.cls-4{stroke:#000;}.cls-5{fill:#fff;}</style></defs><title>CosAndSin.13</title><polyline class="cls-1" points="146.73 84.05 142.38 76.53 149.9 72.19"/><line class="cls-2" x1="11.4" y1="162.18" x2="105.15" y2="108.05"/><path class="cls-3" d="M117.94,111.09a1.24,1.24,0,0,0,0-.22c0-.14-.14-.14-.17-.14l-.79.07c-.25,0-.46,0-.72.06s-.46,0-.46.3.11.14.31.14c.71,0,.72.13.72.28a1.19,1.19,0,0,1,0,.24l-2.08,8.32a.92.92,0,0,0-.06.33.35.35,0,0,0,.39.37.58.58,0,0,0,.5-.34l.65-2.6c.07-.32.16-.62.23-.93a2.44,2.44,0,0,1,.43-1,2.49,2.49,0,0,1,2-1.28c.58,0,.78.43.78,1a12.79,12.79,0,0,1-.88,3.23,2.08,2.08,0,0,0-.2.79,1.11,1.11,0,0,0,1.14,1.16c1.33,0,1.84-2.11,1.84-2.19a.13.13,0,0,0-.15-.13c-.13,0-.14,0-.21.28-.34,1.15-.87,1.76-1.44,1.76-.14,0-.37,0-.37-.48a3.21,3.21,0,0,1,.23-1,13.3,13.3,0,0,0,.9-3.22,1.42,1.42,0,0,0-1.59-1.51,2.67,2.67,0,0,0-2.13,1.14l1.11-4.41" transform="translate(-6.89 -11.09)"/><polygon class="cls-4" points="11.4 162.18 209.83 162.18 110.61 13.36 11.4 162.18"/><path d="M10.57,171.59l2.88-4.82.49,4.82ZM8.84,173.8A1.94,1.94,0,0,1,7.16,175c-.16,0-.27,0-.27.28a.15.15,0,0,0,.17.14l1.16,0,1.28,0c.09,0,.26,0,.26-.27s-.11-.15-.2-.15c-.33,0-.6-.14-.6-.48a1.3,1.3,0,0,1,.27-.68L10.32,172H14c0,.13,0,.25,0,.37.05.38.22,1.87.22,2.14,0,.44-.73.46-1,.46s-.32,0-.32.26.13.16.22.16l.77,0h.82c.88,0,1.51,0,1.52,0s.26,0,.26-.27-.13-.15-.34-.15c-.79,0-.81-.13-.85-.56l-.88-9c0-.29-.08-.32-.24-.32s-.23,0-.36.25Z" transform="translate(-6.89 -11.09)"/><path d="M117.44,20.48h-2.25c-.16,0-.17,0-.17-.16a2,2,0,0,1,0-.31l1-4.06h2.7a1.61,1.61,0,0,1,1.7,1.7,3,3,0,0,1-3,2.84m2-4.71c1.56-.29,3-1.38,3-2.7,0-1.12-1-2-2.61-2h-4.61c-.28,0-.41,0-.41.27s.13.15.35.15c.88,0,.88.11.88.27a1.21,1.21,0,0,1-.06.33l-1.94,7.73c-.13.5-.16.64-1.16.64-.28,0-.42,0-.42.26s.08.16.37.16h4.93c2.2,0,3.89-1.67,3.89-3.12A2.17,2.17,0,0,0,119.49,15.77Zm-2.43-3.7c.13-.54.18-.56.74-.56h1.87a1.45,1.45,0,0,1,1.62,1.5,2.93,2.93,0,0,1-3.05,2.65h-2.07Z" transform="translate(-6.89 -11.09)"/><path d="M159.34,99.48c.13-.53.19-.56.75-.56h1.58a2.42,2.42,0,0,1,2.58,2.71,8.23,8.23,0,0,1-1.68,4.8,4.22,4.22,0,0,1-3.14,1.47h-1.64a1.2,1.2,0,0,1-.32,0c-.15,0-.17,0-.17-.16a1.39,1.39,0,0,1,.06-.31l2-7.93m-3,7.77c-.13.5-.16.65-1.16.65-.28,0-.42,0-.42.25s.09.16.37.16h4.56c2.9,0,5.73-3,5.73-6.2,0-2.07-1.24-3.61-3.29-3.61h-4.61c-.27,0-.4,0-.4.27s.13.15.34.15c.88,0,.88.11.88.27a1.21,1.21,0,0,1-.06.33Z" transform="translate(-6.89 -11.09)"/><path d="M228.53,165.42a.12.12,0,0,0-.13-.13s-.08,0-.2.14l-1,1.21a2.59,2.59,0,0,0-2.37-1.35,6.86,6.86,0,0,0-6.32,6.52,3.68,3.68,0,0,0,3.78,3.89,4.63,4.63,0,0,0,3-1.19,5,5,0,0,0,1.63-2.56c0-.13-.12-.13-.16-.13s-.14.09-.17.15a4.45,4.45,0,0,1-4,3.31,2.74,2.74,0,0,1-2.84-3,8.11,8.11,0,0,1,1.76-4.84A4.92,4.92,0,0,1,225,165.7c1.58,0,2.28,1.31,2.28,2.78,0,.37,0,.69,0,.74s.14.13.19.13.17,0,.23-.27l.9-3.66" transform="translate(-6.89 -11.09)"/><rect class="cls-5" x="53.46" y="65.99" width="12.69" height="12.82"/><path d="M69.32,81.2a.76.76,0,0,0-.61.17.79.79,0,0,0-.24.52.45.45,0,0,0,.49.46.78.78,0,0,0,.73-.86c0-.69-.66-1.23-1.65-1.23a4.26,4.26,0,0,0-3.77,4.1,2.22,2.22,0,0,0,2.25,2.38A3.81,3.81,0,0,0,69.71,85a.17.17,0,0,0-.15-.15s-.06,0-.18.14a3.7,3.7,0,0,1-2.84,1.44c-1,0-1.3-.87-1.3-1.58A7.63,7.63,0,0,1,66,82a2.62,2.62,0,0,1,2-1.45,1.39,1.39,0,0,1,1.27.65" transform="translate(-6.89 -11.09)"/><path d="M168,80.81a1.41,1.41,0,0,0-1.29-1c-1.62,0-3.37,2.1-3.37,4.23,0,1.42.83,2.25,1.8,2.25a2.67,2.67,0,0,0,1.87-1.09,1.24,1.24,0,0,0,1.25,1.09,1.18,1.18,0,0,0,1-.77,7.46,7.46,0,0,0,.43-1.42.13.13,0,0,0-.15-.13c-.13,0-.14.07-.2.28-.21.85-.49,1.76-1.08,1.76-.41,0-.44-.38-.44-.66a4,4,0,0,1,.17-1.05c.1-.36.17-.68.29-1.09.53-2.16.66-2.68.66-2.76a.36.36,0,0,0-.37-.36c-.46,0-.58.5-.61.67m-.92,3.68a1.27,1.27,0,0,1-.27.55,2.42,2.42,0,0,1-1.62,1c-.59,0-.92-.53-.92-1.38a10.07,10.07,0,0,1,.72-3c.49-1,1.16-1.53,1.72-1.53.95,0,1.14,1.18,1.14,1.3l-.06.23Z" transform="translate(-6.89 -11.09)"/><path d="M116.91,185.46c-.46,0-1-.35-1-1.47a6,6,0,0,1,.3-1.75c0-.19.27-1.11.33-1.29s.88-1.4,1.86-1.4c.63,0,.92.63.92,1.38a10,10,0,0,1-.77,3.06c-.36.78-1,1.47-1.68,1.47m.91-9.47a1.24,1.24,0,0,0,0-.22c0-.14-.14-.14-.17-.14l-.79.07c-.25,0-.46.05-.72.06s-.44,0-.44.3.14.15.28.15c.74,0,.74.12.74.27s-.12.52-.18.77l-.34,1.38c-.15.58-1,3.84-1,4.1a3.74,3.74,0,0,0-.07.79c0,1.46.82,2.22,1.75,2.22,1.67,0,3.39-2.14,3.39-4.22,0-1.32-.75-2.26-1.82-2.26a2.63,2.63,0,0,0-1.7.91Z" transform="translate(-6.89 -11.09)"/><line class="cls-2" x1="115.34" y1="102.72" x2="154.68" y2="80.01"/></svg>