<svg id="Layer_1" data-name="Layer 1" xmlns="http://www.w3.org/2000/svg" viewBox="0 0 222.08 121.32"><defs><style>.cls-1,.cls-2,.cls-3{fill:none;stroke-linecap:round;stroke-miterlimit:10;}.cls-1,.cls-2{stroke:#000;}.cls-1,.cls-3{stroke-width:0.8px;}.cls-2{stroke-width:0.4px;}.cls-3{stroke:#27c9b8;stroke-dasharray:2.99 2.99;}.cls-4{fill:#27c9b8;}</style></defs><title>CosAndSin.17</title><polygon class="cls-1" points="12.71 108.6 131.77 108.6 211.14 9.39 12.71 108.6"/><path class="cls-2" d="M140.49,112.62" transform="translate(-6.49 -4.09)"/><path class="cls-1" d="M158.82,112.19a19.84,19.84,0,0,0-7.44-15.49" transform="translate(-6.49 -4.09)"/><path d="M160.44,90.79c0-.33,0-.34-.29-.34a3.22,3.22,0,0,1-2.54.92v.41a4.12,4.12,0,0,0,1.83-.37v7.48c0,.52,0,.69-1.3.69h-.45V100c.39,0,1.78,0,2.26,0s1.85,0,2.24,0v-.42h-.45c-1.26,0-1.3-.17-1.3-.69v-8.1" transform="translate(-6.49 -4.09)"/><path d="M166.4,95.38l1.74,1.13a1.88,1.88,0,0,1,1,1.57,2.08,2.08,0,0,1-2.25,1.83,2.18,2.18,0,0,1-2.27-2.08,2.81,2.81,0,0,1,1.75-2.45m-.67-1.86a1.48,1.48,0,0,1-.76-1.21c0-.93,1-1.52,1.93-1.52a1.87,1.87,0,0,1,2,1.78,2.44,2.44,0,0,1-1.47,2Zm2,1.29a2.73,2.73,0,0,0,1.77-2.25,2.34,2.34,0,0,0-2.53-2.11,2.44,2.44,0,0,0-2.54,2.35,2.24,2.24,0,0,0,.54,1.47c.16.19.17.2,1.18.9A3.09,3.09,0,0,0,164,97.83a2.7,2.7,0,0,0,2.91,2.47,2.82,2.82,0,0,0,2.94-2.68C169.84,96.15,168.8,95.5,167.68,94.81Z" transform="translate(-6.49 -4.09)"/><path d="M173.9,100c-.46,0-1.39-.25-1.66-1.82a17.46,17.46,0,0,1-.16-3,12.58,12.58,0,0,1,.23-3.09,1.72,1.72,0,0,1,1.59-1.41,1.75,1.75,0,0,1,1.66,1.57,15.17,15.17,0,0,1,.18,2.93,18.67,18.67,0,0,1-.15,2.93c-.28,1.58-1.18,1.85-1.69,1.85m2.94-4.61a7.91,7.91,0,0,0-.59-3.44,2.57,2.57,0,0,0-4.72.1A7.62,7.62,0,0,0,171,95.4a7.24,7.24,0,0,0,.62,3.47,2.55,2.55,0,0,0,2.29,1.43,2.59,2.59,0,0,0,2.39-1.58A8,8,0,0,0,176.84,95.4Z" transform="translate(-6.49 -4.09)"/><path d="M179.88,93.65a1.53,1.53,0,1,1,1.53-1.53,1.54,1.54,0,0,1-1.53,1.53m1.93-1.53A1.93,1.93,0,1,0,179.88,94,1.94,1.94,0,0,0,181.81,92.12Z" transform="translate(-6.49 -4.09)"/><path d="M195.57,96.7c.24,0,.5,0,.5-.29s-.26-.29-.5-.29h-7.78c-.24,0-.5,0-.5.29s.26.29.5.29h7.78" transform="translate(-6.49 -4.09)"/><path d="M211.13,90a.12.12,0,0,0-.13-.13s-.08,0-.2.14l-1,1.21a2.59,2.59,0,0,0-2.37-1.35,6.86,6.86,0,0,0-6.32,6.52,3.68,3.68,0,0,0,3.78,3.89,4.63,4.63,0,0,0,3-1.19,5,5,0,0,0,1.63-2.56c0-.13-.12-.13-.16-.13s-.14.09-.17.15a4.45,4.45,0,0,1-4,3.31,2.74,2.74,0,0,1-2.84-3A8.11,8.11,0,0,1,204.06,92a4.92,4.92,0,0,1,3.51-1.73c1.58,0,2.28,1.31,2.28,2.78,0,.37,0,.69,0,.74s.14.13.19.13.17,0,.23-.27l.9-3.66" transform="translate(-6.49 -4.09)"/><path d="M10.17,113.29l2.88-4.82.49,4.82Zm-1.73,2.22a2,2,0,0,1-1.68,1.17c-.16,0-.27,0-.27.28a.15.15,0,0,0,.17.14l1.16,0,1.28,0c.09,0,.26,0,.26-.27s-.11-.15-.2-.15c-.33,0-.6-.14-.6-.48a1.3,1.3,0,0,1,.27-.68l1.09-1.81h3.66c0,.13,0,.25,0,.37.05.38.22,1.87.22,2.14,0,.44-.73.46-1,.46s-.32,0-.32.26.13.16.22.16l.77,0h.82c.88,0,1.51,0,1.52,0s.26,0,.26-.27-.13-.15-.34-.15c-.79,0-.81-.13-.85-.56l-.88-9c0-.29-.08-.32-.24-.32s-.23,0-.36.25Z" transform="translate(-6.49 -4.09)"/><path d="M143.43,115.12a.12.12,0,0,0-.13-.13s-.08,0-.2.14l-1,1.21a2.59,2.59,0,0,0-2.37-1.35,6.86,6.86,0,0,0-6.32,6.52,3.68,3.68,0,0,0,3.78,3.89,4.63,4.63,0,0,0,3-1.19,5,5,0,0,0,1.63-2.56c0-.13-.12-.13-.16-.13s-.14.09-.17.15a4.45,4.45,0,0,1-4,3.31,2.74,2.74,0,0,1-2.84-3,8.11,8.11,0,0,1,1.76-4.84,4.92,4.92,0,0,1,3.51-1.73c1.58,0,2.28,1.31,2.28,2.78,0,.37,0,.69,0,.74s.14.13.19.13.17,0,.23-.27l.9-3.66" transform="translate(-6.49 -4.09)"/><path d="M223.54,13.48h-2.25c-.16,0-.17,0-.17-.16a2,2,0,0,1,0-.31l1-4.06h2.7a1.61,1.61,0,0,1,1.7,1.7,3,3,0,0,1-3,2.84m2.05-4.71c1.56-.29,3-1.38,3-2.7,0-1.12-1-2-2.61-2h-4.61c-.28,0-.41,0-.41.27s.13.15.35.15c.88,0,.88.11.88.27a1.21,1.21,0,0,1-.06.33l-1.94,7.73c-.13.5-.16.64-1.16.64-.28,0-.42,0-.42.26s.08.16.37.16h4.93c2.2,0,3.89-1.67,3.89-3.12A2.17,2.17,0,0,0,225.59,8.77Zm-2.43-3.7c.13-.54.18-.56.74-.56h1.87A1.45,1.45,0,0,1,227.39,6a2.93,2.93,0,0,1-3,2.65h-2.07Z" transform="translate(-6.49 -4.09)"/><path d="M220.89,114.27c.13-.54.18-.56.74-.56h1.58a2.43,2.43,0,0,1,2.59,2.71,8.3,8.3,0,0,1-1.68,4.8,4.24,4.24,0,0,1-3.15,1.46H219c-.16,0-.17,0-.17-.16a2.19,2.19,0,0,1,.05-.31l2-7.93m-3,7.77c-.12.5-.15.64-1.16.64-.27,0-.42,0-.42.26s.09.16.38.16h4.55c2.9,0,5.73-3,5.73-6.21,0-2.06-1.23-3.6-3.29-3.6H219c-.27,0-.4,0-.4.27s.13.15.35.15c.87,0,.87.11.87.27a1.21,1.21,0,0,1-.06.33Z" transform="translate(-6.49 -4.09)"/><path d="M169.54,62.11a1.41,1.41,0,0,0-1.29-1c-1.62,0-3.37,2.1-3.37,4.23,0,1.42.83,2.25,1.8,2.25a2.67,2.67,0,0,0,1.87-1.09,1.24,1.24,0,0,0,1.25,1.09,1.18,1.18,0,0,0,1-.77,7.46,7.46,0,0,0,.43-1.42.13.13,0,0,0-.15-.13c-.13,0-.14.07-.2.28-.21.85-.49,1.76-1.08,1.76-.41,0-.44-.38-.44-.66a4,4,0,0,1,.17-1c.1-.36.17-.68.29-1.1.53-2.15.66-2.67.66-2.75a.36.36,0,0,0-.37-.36c-.46,0-.58.5-.61.67m-.92,3.68a1.27,1.27,0,0,1-.27.55,2.42,2.42,0,0,1-1.62,1c-.59,0-.92-.53-.92-1.38a10.07,10.07,0,0,1,.72-3c.49-1,1.16-1.53,1.72-1.53.95,0,1.14,1.18,1.14,1.3l-.06.23Z" transform="translate(-6.49 -4.09)"/><path d="M105.12,62.1a.76.76,0,0,0-.61.17.79.79,0,0,0-.24.52.45.45,0,0,0,.49.46.78.78,0,0,0,.73-.86c0-.69-.66-1.23-1.65-1.23a4.26,4.26,0,0,0-3.77,4.1,2.22,2.22,0,0,0,2.25,2.38,3.81,3.81,0,0,0,3.19-1.71.17.17,0,0,0-.15-.15s-.06,0-.19.14a3.67,3.67,0,0,1-2.83,1.44c-1,0-1.3-.87-1.3-1.58a7.63,7.63,0,0,1,.76-2.88,2.62,2.62,0,0,1,2-1.45,1.39,1.39,0,0,1,1.27.65" transform="translate(-6.49 -4.09)"/><path d="M78.11,125c-.46,0-1-.35-1-1.47a6,6,0,0,1,.3-1.75c0-.19.27-1.11.33-1.29s.88-1.4,1.86-1.4c.63,0,.92.63.92,1.38a10,10,0,0,1-.77,3.06c-.36.78-1,1.47-1.68,1.47m.91-9.47a1.24,1.24,0,0,0,0-.22c0-.14-.14-.14-.17-.14l-.79.07c-.25,0-.46,0-.72.06s-.44,0-.44.3.14.15.28.15c.73,0,.73.12.73.27a7.72,7.72,0,0,1-.17.77l-.34,1.38c-.15.58-1,3.84-1,4.1a3.74,3.74,0,0,0-.07.79c0,1.46.82,2.22,1.75,2.22,1.67,0,3.39-2.14,3.39-4.22,0-1.32-.75-2.26-1.82-2.26a2.63,2.63,0,0,0-1.7.91Z" transform="translate(-6.49 -4.09)"/><line class="cls-3" x1="211.64" y1="52.8" x2="211.64" y2="10.48"/><line class="cls-3" x1="133.02" y1="108.54" x2="211.14" y2="108.54"/><path class="cls-4" d="M217.64,58.49a1.24,1.24,0,0,0,0-.22c0-.14-.14-.14-.17-.14l-.79.07c-.25,0-.46,0-.72.06s-.46,0-.46.3.11.15.31.15c.71,0,.72.12.72.27a1.19,1.19,0,0,1,0,.24l-2.08,8.32a1,1,0,0,0-.06.33.35.35,0,0,0,.39.37.58.58,0,0,0,.5-.34l.65-2.6c.07-.32.16-.62.23-.93a2.44,2.44,0,0,1,.43-1,2.49,2.49,0,0,1,2-1.28c.58,0,.78.43.78,1a12.79,12.79,0,0,1-.88,3.23,2.08,2.08,0,0,0-.2.79,1.11,1.11,0,0,0,1.14,1.16c1.33,0,1.84-2.11,1.84-2.19a.13.13,0,0,0-.15-.13c-.13,0-.14,0-.21.28-.34,1.15-.87,1.76-1.44,1.76-.14,0-.37,0-.37-.48a3.21,3.21,0,0,1,.23-1,13.3,13.3,0,0,0,.9-3.22,1.42,1.42,0,0,0-1.59-1.51,2.67,2.67,0,0,0-2.13,1.14l1.11-4.41" transform="translate(-6.49 -4.09)"/><polyline class="cls-1" points="200.22 107.6 200.22 97.68 210.14 97.68"/><line class="cls-3" x1="211.72" y1="108.17" x2="211.72" y2="65.19"/><line class="cls-1" x1="145.67" y1="116.97" x2="145.67" y2="114.99"/><line class="cls-1" x1="205.28" y1="116.9" x2="205.28" y2="114.91"/><path d="M184.67,117.23a.72.72,0,0,0-.64.7.45.45,0,0,0,.48.46.75.75,0,0,0,.73-.76c0-.61-.69-.88-1.29-.88a1.83,1.83,0,0,0-1.5,1.14,1.49,1.49,0,0,0-1.48-1.14c-1.46,0-2.24,1.88-2.24,2.2a.15.15,0,0,0,.16.13.17.17,0,0,0,.17-.14c.49-1.6,1.46-1.9,1.87-1.9.65,0,.78.6.78.95a6.21,6.21,0,0,1-.26,1.33l-.49,2c-.21.86-.63,1.65-1.39,1.65a1.54,1.54,0,0,1-.74-.18.75.75,0,0,0,.64-.71.46.46,0,0,0-.49-.46.75.75,0,0,0-.72.76c0,.61.68.88,1.29.88A1.77,1.77,0,0,0,181,122.1a1.51,1.51,0,0,0,1.48,1.13c1.47,0,2.24-1.88,2.24-2.2a.13.13,0,0,0-.14-.13c-.13,0-.14.07-.19.19-.39,1.26-1.22,1.85-1.87,1.85s-.77-.37-.77-1a6.63,6.63,0,0,1,.29-1.49l.5-2c.22-.86.7-1.49,1.36-1.49a1.54,1.54,0,0,1,.74.19" transform="translate(-6.49 -4.09)"/><line class="cls-1" x1="180.1" y1="115.9" x2="205.28" y2="115.9"/><line class="cls-1" x1="145.67" y1="115.9" x2="170.85" y2="115.9"/></svg>