<svg id="Layer_1" data-name="Layer 1" xmlns="http://www.w3.org/2000/svg" viewBox="0 0 355.38 356.37"><defs><style>.cls-1,.cls-12{fill:#27c9b8;}.cls-1,.cls-2,.cls-4,.cls-5,.cls-9{stroke:#000;}.cls-1,.cls-2,.cls-4,.cls-5,.cls-6,.cls-7,.cls-8,.cls-9{stroke-linecap:round;stroke-miterlimit:10;}.cls-1{stroke-width:0.4px;opacity:0.2;}.cls-2,.cls-4,.cls-5,.cls-6,.cls-7,.cls-8,.cls-9{fill:none;}.cls-2,.cls-5,.cls-6,.cls-7,.cls-8{stroke-width:0.8px;}.cls-3{fill:#fff;}.cls-4{stroke-width:0.8px;}.cls-5,.cls-6,.cls-7,.cls-8{stroke-dasharray:2.99 2.99;}.cls-6{stroke:#ec6d5f;}.cls-7{stroke:#27c9b8;}.cls-8{stroke:#2caaca;}.cls-9{stroke-width:0.4px;}.cls-10{fill:#ec6d5f;}.cls-11{fill:#050403;}.cls-13{fill:#2caaca;}</style></defs><title>CosAndSin.06</title><path class="cls-1" d="M185.58,192.69h45.35A45.36,45.36,0,0,0,224.86,170l-39.28,22.68" transform="translate(-14.85 -6.8)"/><line class="cls-2" x1="0.4" y1="185.89" x2="336.97" y2="185.89"/><path d="M355.41,192.69a14.38,14.38,0,0,1-4-1.5v3a14.66,14.66,0,0,1,4-1.49" transform="translate(-14.85 -6.8)"/><rect class="cls-3" x="340.76" y="179.48" width="14.62" height="12.82"/><path d="M365.71,189.94a.72.72,0,0,0-.63.7.44.44,0,0,0,.47.46.75.75,0,0,0,.73-.76c0-.6-.69-.88-1.29-.88a1.83,1.83,0,0,0-1.49,1.14,1.49,1.49,0,0,0-1.48-1.14c-1.47,0-2.24,1.89-2.24,2.2a.14.14,0,0,0,.15.13c.12,0,.15-.08.18-.14.49-1.6,1.45-1.9,1.87-1.9.64,0,.77.6.77.95a6.16,6.16,0,0,1-.26,1.34l-.49,2c-.21.86-.63,1.65-1.39,1.65a1.42,1.42,0,0,1-.73-.19.75.75,0,0,0,.63-.7.45.45,0,0,0-.49-.46.75.75,0,0,0-.72.76c0,.6.68.87,1.3.87a1.77,1.77,0,0,0,1.47-1.13,1.5,1.5,0,0,0,1.48,1.13c1.47,0,2.25-1.88,2.25-2.19a.13.13,0,0,0-.15-.13c-.13,0-.14.07-.18.18-.39,1.27-1.23,1.86-1.87,1.86s-.78-.38-.78-1a6.63,6.63,0,0,1,.29-1.49l.5-1.95c.22-.87.71-1.5,1.37-1.5a1.53,1.53,0,0,1,.73.19" transform="translate(-14.85 -6.8)"/><line class="cls-2" x1="170.48" y1="355.97" x2="170.48" y2="19.39"/><path d="M185.33,22.61a14.33,14.33,0,0,1-1.5,4h3a14,14,0,0,1-1.49-4" transform="translate(-14.85 -6.8)"/><rect class="cls-3" x="163.48" width="14.01" height="15.61"/><path d="M185.38,17.91a2.12,2.12,0,0,1-1.65,1,1.07,1.07,0,0,1-1.08-.69.36.36,0,0,0,.14,0,.73.73,0,0,0,.72-.71.44.44,0,0,0-.49-.44.78.78,0,0,0-.73.88,1.3,1.3,0,0,0,1.44,1.23A3.79,3.79,0,0,0,187,16.31l1.4-5.6a.93.93,0,0,0,.05-.24.37.37,0,0,0-.39-.36.58.58,0,0,0-.55.49l-1.06,4.22a.94.94,0,0,1-.19.45,1.85,1.85,0,0,1-1.45.89c-.8,0-.87-.79-.87-1.18a9.62,9.62,0,0,1,.77-3,2.46,2.46,0,0,0,.25-.91A1.12,1.12,0,0,0,183.84,10c-1.32,0-1.85,2.09-1.85,2.2a.14.14,0,0,0,.15.13c.13,0,.15-.06.21-.26.34-1.2.89-1.78,1.45-1.78.13,0,.37,0,.37.48a4,4,0,0,1-.37,1.33,7.12,7.12,0,0,0-.71,2.7,1.55,1.55,0,0,0,1.7,1.68,1.9,1.9,0,0,0,1.43-.66l0,0a5.54,5.54,0,0,1-.86,2.11" transform="translate(-14.85 -6.8)"/><circle class="cls-4" cx="185.33" cy="192.69" r="113.39" transform="translate(-96.82 180.68) rotate(-45)"/><line class="cls-5" x1="283.87" y1="299.27" x2="283.87" y2="72.5"/><line class="cls-6" x1="268.68" y1="185.89" x2="268.68" y2="129.19"/><line class="cls-7" x1="170.48" y1="129.19" x2="268.68" y2="129.19"/><line class="cls-8" x1="170.48" y1="120.42" x2="283.87" y2="120.42"/><line class="cls-9" x1="113.79" y1="183.89" x2="113.79" y2="187.88"/><line class="cls-9" x1="227.17" y1="183.89" x2="227.17" y2="187.88"/><line class="cls-9" x1="68.43" y1="185.09" x2="68.43" y2="186.68"/><line class="cls-9" x1="79.77" y1="185.09" x2="79.77" y2="186.68"/><line class="cls-9" x1="91.11" y1="185.09" x2="91.11" y2="186.68"/><line class="cls-9" x1="102.45" y1="185.09" x2="102.45" y2="186.68"/><line class="cls-9" x1="125.13" y1="185.09" x2="125.13" y2="186.68"/><line class="cls-9" x1="136.46" y1="185.09" x2="136.46" y2="186.68"/><line class="cls-9" x1="147.8" y1="185.09" x2="147.8" y2="186.68"/><line class="cls-9" x1="159.14" y1="185.09" x2="159.14" y2="186.68"/><line class="cls-9" x1="272.53" y1="185.09" x2="272.53" y2="186.68"/><line class="cls-9" x1="261.19" y1="185.09" x2="261.19" y2="186.68"/><line class="cls-9" x1="249.85" y1="185.09" x2="249.85" y2="186.68"/><line class="cls-9" x1="238.51" y1="185.09" x2="238.51" y2="186.68"/><line class="cls-9" x1="215.83" y1="185.09" x2="215.83" y2="186.68"/><line class="cls-9" x1="204.5" y1="185.09" x2="204.5" y2="186.68"/><line class="cls-9" x1="193.16" y1="185.09" x2="193.16" y2="186.68"/><line class="cls-9" x1="181.82" y1="185.09" x2="181.82" y2="186.68"/><line class="cls-9" x1="172.47" y1="242.58" x2="168.49" y2="242.58"/><line class="cls-9" x1="172.47" y1="129.19" x2="168.49" y2="129.19"/><line class="cls-9" x1="171.28" y1="287.94" x2="169.68" y2="287.94"/><line class="cls-9" x1="171.28" y1="276.6" x2="169.68" y2="276.6"/><line class="cls-9" x1="171.28" y1="265.26" x2="169.68" y2="265.26"/><line class="cls-9" x1="171.28" y1="253.92" x2="169.68" y2="253.92"/><line class="cls-9" x1="171.28" y1="231.24" x2="169.68" y2="231.24"/><line class="cls-9" x1="171.28" y1="219.9" x2="169.68" y2="219.9"/><line class="cls-9" x1="171.28" y1="208.56" x2="169.68" y2="208.56"/><line class="cls-9" x1="171.28" y1="197.23" x2="169.68" y2="197.23"/><line class="cls-9" x1="171.28" y1="83.84" x2="169.68" y2="83.84"/><line class="cls-9" x1="171.28" y1="95.18" x2="169.68" y2="95.18"/><line class="cls-9" x1="171.28" y1="106.52" x2="169.68" y2="106.52"/><line class="cls-9" x1="171.28" y1="117.85" x2="169.68" y2="117.85"/><line class="cls-9" x1="171.28" y1="140.53" x2="169.68" y2="140.53"/><line class="cls-9" x1="171.28" y1="151.87" x2="169.68" y2="151.87"/><line class="cls-9" x1="171.28" y1="163.21" x2="169.68" y2="163.21"/><line class="cls-9" x1="171.28" y1="174.55" x2="169.68" y2="174.55"/><line class="cls-2" x1="170.48" y1="185.89" x2="283.9" y2="120.41"/><path d="M300.34,127.21a1.6,1.6,0,1,0-3.19,0,1.6,1.6,0,0,0,3.19,0Z" transform="translate(-14.85 -6.8)"/><path class="cls-9" d="M300.34,127.21a1.6,1.6,0,1,0-3.19,0,1.6,1.6,0,0,0,3.19,0Z" transform="translate(-14.85 -6.8)"/><path d="M285.12,136a1.6,1.6,0,1,0-1.6,1.59A1.6,1.6,0,0,0,285.12,136Z" transform="translate(-14.85 -6.8)"/><path class="cls-9" d="M285.12,136a1.6,1.6,0,1,0-1.6,1.59A1.6,1.6,0,0,0,285.12,136Z" transform="translate(-14.85 -6.8)"/><path d="M217.33,184.58a12,12,0,0,1-1.18,3.22c-.41.73-.92,1.41-1.52,1.41-.44,0-.8-.35-.8-1.77a12.53,12.53,0,0,1,.46-2.86h3m-2.93-.43a13,13,0,0,1,1.09-3.07c.48-.86,1-1.56,1.61-1.56s.79.41.79,1.79a10.57,10.57,0,0,1-.46,2.84Zm4.35-2c0-1.46-.45-2.88-1.63-2.88-2,0-4.15,4.21-4.15,7.37,0,.66.14,2.89,1.65,2.89C216.57,189.5,218.75,185.39,218.75,182.12Z" transform="translate(-14.85 -6.8)"/><rect class="cls-3" x="263.6" y="64.56" width="40.54" height="15.89"/><path d="M288.61,78a.71.71,0,0,0-.63.7.44.44,0,0,0,.47.46.75.75,0,0,0,.73-.76c0-.6-.69-.88-1.29-.88a1.83,1.83,0,0,0-1.49,1.14,1.49,1.49,0,0,0-1.48-1.14c-1.47,0-2.24,1.89-2.24,2.2a.14.14,0,0,0,.15.13c.12,0,.15-.08.18-.14.48-1.6,1.45-1.9,1.87-1.9.64,0,.77.61.77,1a6.16,6.16,0,0,1-.26,1.34l-.49,2c-.21.87-.63,1.66-1.39,1.66a1.42,1.42,0,0,1-.73-.19.75.75,0,0,0,.63-.7.45.45,0,0,0-.49-.46.75.75,0,0,0-.72.76c0,.6.68.87,1.29.87A1.77,1.77,0,0,0,285,82.91,1.5,1.5,0,0,0,286.45,84c1.47,0,2.24-1.88,2.24-2.19a.12.12,0,0,0-.14-.13c-.13,0-.14.07-.18.18-.39,1.27-1.23,1.86-1.87,1.86s-.78-.38-.78-1A6.63,6.63,0,0,1,286,81.3l.5-2c.22-.87.71-1.5,1.37-1.5a1.53,1.53,0,0,1,.73.19" transform="translate(-14.85 -6.8)"/><path d="M303.4,81.92c.2,0,.46,0,.46-.26s-.25-.27-.46-.27h-8.46c-.21,0-.47,0-.47.26s.25.27.47.27h8.46m0-2.67c.2,0,.46,0,.46-.26s-.25-.28-.46-.28h-8.46c-.21,0-.47,0-.47.26s.25.28.47.28Z" transform="translate(-14.85 -6.8)"/><path d="M312.74,74.69c0-.33,0-.34-.29-.34a3.22,3.22,0,0,1-2.54.92v.41a4.18,4.18,0,0,0,1.84-.37v7.48c0,.52-.05.69-1.31.69H310v.42c.39,0,1.78,0,2.26,0s1.85,0,2.24,0v-.42h-.44c-1.27,0-1.31-.17-1.31-.69v-8.1" transform="translate(-14.85 -6.8)"/><rect class="cls-3" x="276.77" y="125.62" width="74.54" height="17.01"/><path d="M295.62,148.45s0-.07-.25-.31c-1.43-1.45-2.24-3.82-2.24-6.75s.68-5.19,2.34-6.88c.15-.13.15-.16.15-.21a.12.12,0,0,0-.13-.11,5.94,5.94,0,0,0-2.07,2.44,10.28,10.28,0,0,0-1.06,4.76,10.66,10.66,0,0,0,.94,4.52,6.08,6.08,0,0,0,2.19,2.66.12.12,0,0,0,.13-.12" transform="translate(-14.85 -6.8)"/><path class="cls-10" d="M301.55,139.65c-.17,0-.71,0-.71.59a.57.57,0,0,0,.59.59.58.58,0,0,0,.61-.62c0-1-1-1.65-2.17-1.65a3.17,3.17,0,0,0-3,3.3,3.13,3.13,0,0,0,3,3.25,2.32,2.32,0,0,0,2.33-1.86.12.12,0,0,0-.14-.13c-.13,0-.15,0-.19.22a1.91,1.91,0,0,1-1.87,1.45c-.87,0-2-.76-2-2.94,0-2.39,1.22-3,1.94-3a2,2,0,0,1,1.67.78" transform="translate(-14.85 -6.8)"/><path class="cls-10" d="M306.17,144.79a1.83,1.83,0,0,1-1.6-.93,4.25,4.25,0,0,1-.4-2.1,3.64,3.64,0,0,1,.45-2.07,1.83,1.83,0,0,1,1.53-.85,1.88,1.88,0,0,1,1.55.82,3.78,3.78,0,0,1,.45,2.1,4.46,4.46,0,0,1-.37,2.07,1.89,1.89,0,0,1-1.61,1m3.07-2.9a3.09,3.09,0,1,0-6.16,0,3.08,3.08,0,1,0,6.16,0Z" transform="translate(-14.85 -6.8)"/><path class="cls-10" d="M314.36,138.89c0-.26,0-.33-.14-.33s-.39.31-.49.44a2,2,0,0,0-1.35-.44c-1.74,0-2.26.94-2.26,1.73a1.5,1.5,0,0,0,.55,1.17,3.13,3.13,0,0,0,1.61.63,2.44,2.44,0,0,1,1.33.49,1.18,1.18,0,0,1,.45.93c0,.62-.36,1.31-1.62,1.31-.95,0-1.64-.55-2-2a2.39,2.39,0,0,0-.07-.29.13.13,0,0,0-.13-.06c-.16,0-.16.08-.16.33v2c0,.26,0,.33.14.33s.09,0,.34-.32a2,2,0,0,1,.28-.36,1.94,1.94,0,0,0,1.57.68c1.51,0,2.25-.84,2.25-2a1.9,1.9,0,0,0-.6-1.37,3.26,3.26,0,0,0-1.85-.7c-.43-.09-1.48-.29-1.48-1.15,0-.44.3-1.1,1.59-1.1A1.62,1.62,0,0,1,314,140.6a.14.14,0,0,0,.16.11c.16,0,.16-.07.16-.33v-1.49" transform="translate(-14.85 -6.8)"/><path class="cls-10" d="M322.49,140.19a12,12,0,0,1-1.18,3.22c-.42.73-.92,1.41-1.52,1.41s-.81-.35-.81-1.77a12.53,12.53,0,0,1,.46-2.86h3.05m-2.93-.43a12.26,12.26,0,0,1,1.09-3.07c.47-.86,1-1.55,1.61-1.55.47,0,.79.4.79,1.78a10.52,10.52,0,0,1-.46,2.84Zm4.35-2c0-1.47-.46-2.89-1.64-2.89-2,0-4.15,4.21-4.15,7.37,0,.66.15,2.89,1.65,2.89C321.73,145.11,323.91,141,323.91,137.74Z" transform="translate(-14.85 -6.8)"/><path class="cls-11" d="M327.35,145c0-.83-.28-1.45-.86-1.45a.7.7,0,0,0,0,1.39.6.6,0,0,0,.47-.18.08.08,0,0,1,.06,0s0,.2,0,.27a3.45,3.45,0,0,1-.92,2.34c-.16.18-.16.2-.16.23a.17.17,0,0,0,.15.15,3.49,3.49,0,0,0,1.22-2.72" transform="translate(-14.85 -6.8)"/><path class="cls-12" d="M335.46,138.89c0-.26,0-.33-.14-.33s-.39.31-.49.44a2,2,0,0,0-1.35-.44c-1.74,0-2.26.94-2.26,1.73a1.5,1.5,0,0,0,.55,1.17,3.13,3.13,0,0,0,1.61.63,2.44,2.44,0,0,1,1.33.49,1.18,1.18,0,0,1,.45.93c0,.62-.36,1.31-1.62,1.31-1,0-1.64-.55-2-2a2.39,2.39,0,0,0-.07-.29.13.13,0,0,0-.13-.06c-.16,0-.16.08-.16.33v2c0,.26,0,.33.14.33s.09,0,.34-.32a2,2,0,0,1,.28-.36,1.94,1.94,0,0,0,1.57.68c1.51,0,2.25-.84,2.25-2a1.9,1.9,0,0,0-.6-1.37,3.26,3.26,0,0,0-1.85-.7c-.43-.09-1.48-.29-1.48-1.15,0-.44.3-1.1,1.59-1.1a1.62,1.62,0,0,1,1.68,1.78.14.14,0,0,0,.16.11c.16,0,.16-.07.16-.33v-1.49" transform="translate(-14.85 -6.8)"/><path class="cls-12" d="M336.86,138.79v.41c.92,0,1.05.09,1.05.79v3.91c0,.65-.15.65-1.09.65V145c.4,0,1.09,0,1.51,0,.16,0,1,0,1.48,0v-.41c-.94,0-1-.08-1-.63v-5.29l-2,.16m2-2.68a.7.7,0,0,0-.71-.7.7.7,0,0,0,0,1.39A.7.7,0,0,0,338.85,136.11Z" transform="translate(-14.85 -6.8)"/><path class="cls-12" d="M346.64,141.47c0-1.33,0-1.74-.33-2.2a1.9,1.9,0,0,0-1.58-.64,2.23,2.23,0,0,0-2.05,1.48h0v-1.48l-2,.16v.41c1,0,1.09.1,1.09.81v3.89c0,.65-.16.65-1.09.65V145c.37,0,1.15,0,1.55,0s1.19,0,1.56,0v-.41c-.91,0-1.09,0-1.09-.65v-2.67a2.08,2.08,0,0,1,1.88-2.31c.9,0,1.1.73,1.1,1.6v3.38c0,.65-.16.65-1.1.65V145c.38,0,1.15,0,1.56,0s1.19,0,1.56,0v-.41c-.72,0-1.07,0-1.09-.43v-2.65" transform="translate(-14.85 -6.8)"/><path class="cls-12" d="M355.39,140.19a12,12,0,0,1-1.18,3.22c-.42.73-.92,1.41-1.52,1.41-.45,0-.81-.35-.81-1.77a12.53,12.53,0,0,1,.46-2.86h3.05m-2.93-.43a12.26,12.26,0,0,1,1.09-3.07c.47-.86,1-1.55,1.61-1.55.47,0,.79.4.79,1.78a10.52,10.52,0,0,1-.46,2.84Zm4.35-2c0-1.47-.46-2.89-1.64-2.89-2,0-4.15,4.21-4.15,7.37,0,.66.15,2.89,1.65,2.89C354.63,145.11,356.81,141,356.81,137.74Z" transform="translate(-14.85 -6.8)"/><path d="M361.4,141.39a10.56,10.56,0,0,0-.95-4.54,6.1,6.1,0,0,0-2.18-2.66.12.12,0,0,0-.13.11s0,.08.24.32c1.44,1.45,2.24,3.82,2.24,6.75s-.67,5.19-2.34,6.88c-.14.13-.14.16-.14.2a.12.12,0,0,0,.13.12,6.09,6.09,0,0,0,2.07-2.44,10.4,10.4,0,0,0,1.06-4.74" transform="translate(-14.85 -6.8)"/><rect class="cls-3" x="289.47" y="103.29" width="60.5" height="20.99"/><path d="M312.28,127.62c0-.05,0-.08-.24-.32-1.44-1.45-2.24-3.82-2.24-6.75s.67-5.19,2.34-6.88c.14-.13.14-.16.14-.2a.12.12,0,0,0-.13-.12,6.09,6.09,0,0,0-2.07,2.44,10.28,10.28,0,0,0-1.06,4.76,10.5,10.5,0,0,0,1,4.52,6.1,6.1,0,0,0,2.18,2.66.12.12,0,0,0,.13-.11" transform="translate(-14.85 -6.8)"/><path d="M317.25,114.92c0-.33,0-.35-.29-.35a3.16,3.16,0,0,1-2.54.92v.42a4.09,4.09,0,0,0,1.84-.38V123c0,.52,0,.69-1.31.69h-.44v.42c.38,0,1.78,0,2.25,0s1.85,0,2.24,0v-.42h-.44c-1.27,0-1.31-.17-1.31-.69v-8.1" transform="translate(-14.85 -6.8)"/><path d="M322.91,124.18c0-.83-.27-1.45-.86-1.45a.68.68,0,0,0-.69.69.69.69,0,0,0,.71.71.64.64,0,0,0,.47-.19s0,0,.06,0,0,.2,0,.27a3.43,3.43,0,0,1-.92,2.34c-.16.18-.16.21-.16.24a.15.15,0,0,0,.14.14,3.46,3.46,0,0,0,1.22-2.72" transform="translate(-14.85 -6.8)"/><path class="cls-13" d="M328.83,118.35h2v-.42h-2v-2.64h-.32c0,1.35-.53,2.73-1.84,2.77v.29h1.22v4a1.7,1.7,0,0,0,1.83,1.93c.9,0,1.38-.89,1.38-1.93v-.81h-.32v.79c0,1-.42,1.63-1,1.63-1,0-1-1.33-1-1.58v-4" transform="translate(-14.85 -6.8)"/><path class="cls-13" d="M336.52,122.1a1.72,1.72,0,0,1-1.66,1.88,1.25,1.25,0,0,1-1.3-1.2c0-1.9,2.45-2.07,3-2.1v1.42m.94-1.81a2.15,2.15,0,0,0-.63-1.91,2.63,2.63,0,0,0-1.79-.66,1.91,1.91,0,0,0-2.08,1.71.6.6,0,1,0,1.19,0c0-.59-.51-.59-.73-.59A1.8,1.8,0,0,1,335,118a1.62,1.62,0,0,1,1.5,1.83v.58c-2.88,0-4,1.25-4,2.36s1.32,1.49,2.19,1.49a2,2,0,0,0,1.87-1.26,1.14,1.14,0,1,0,2.26-.16V122h-.32v.81c0,.82-.35.93-.55.93-.54,0-.54-.76-.54-1Z" transform="translate(-14.85 -6.8)"/><path class="cls-13" d="M345.3,120.63c0-1.33,0-1.73-.32-2.19a1.89,1.89,0,0,0-1.58-.65,2.23,2.23,0,0,0-2.06,1.48h0v-1.48l-2,.16v.41c1,0,1.09.11,1.09.81v3.89c0,.65-.15.65-1.09.65v.42c.38,0,1.15,0,1.55,0s1.2,0,1.57,0v-.42c-.92,0-1.09,0-1.09-.65v-2.67a2.08,2.08,0,0,1,1.88-2.31c.89,0,1.09.73,1.09,1.61v3.37c0,.65-.16.65-1.09.65v.42c.37,0,1.15,0,1.55,0s1.19,0,1.57,0v-.42c-.72,0-1.08,0-1.1-.43v-2.65" transform="translate(-14.85 -6.8)"/><path class="cls-13" d="M354.05,119.36a12.06,12.06,0,0,1-1.17,3.21c-.42.74-.92,1.41-1.53,1.41-.44,0-.8-.34-.8-1.77a12.36,12.36,0,0,1,.46-2.85h3m-2.93-.43a12.65,12.65,0,0,1,1.1-3.08c.47-.86,1-1.55,1.61-1.55.47,0,.78.4.78,1.78a10.57,10.57,0,0,1-.46,2.85Zm4.36-2c0-1.47-.46-2.89-1.64-2.89-2,0-4.15,4.21-4.15,7.37,0,.66.14,2.89,1.65,2.89C353.29,124.27,355.48,120.16,355.48,116.9Z" transform="translate(-14.85 -6.8)"/><path d="M360.06,120.55a10.74,10.74,0,0,0-.94-4.54,6.08,6.08,0,0,0-2.19-2.66.12.12,0,0,0-.13.12s0,.07.25.31c1.43,1.45,2.24,3.82,2.24,6.75s-.68,5.19-2.34,6.88c-.15.13-.15.16-.15.21a.12.12,0,0,0,.13.11,5.94,5.94,0,0,0,2.07-2.44,10.4,10.4,0,0,0,1.06-4.74" transform="translate(-14.85 -6.8)"/><path d="M31.57,190.29s0-.07-.25-.31c-1.43-1.46-2.24-3.83-2.24-6.76a9.51,9.51,0,0,1,2.34-6.88c.15-.13.15-.16.15-.2s-.07-.11-.13-.11a5.94,5.94,0,0,0-2.07,2.44,10.26,10.26,0,0,0-1.06,4.75,10.57,10.57,0,0,0,1,4.53,6.1,6.1,0,0,0,2.18,2.66.12.12,0,0,0,.13-.12" transform="translate(-14.85 -6.8)"/><path d="M41.77,183.5c.24,0,.5,0,.5-.29s-.26-.29-.5-.29H34c-.24,0-.5,0-.5.29s.26.29.5.29h7.78" transform="translate(-14.85 -6.8)"/><path d="M47.64,177.59c0-.33,0-.34-.29-.34a3.2,3.2,0,0,1-2.54.92v.41a4.12,4.12,0,0,0,1.83-.37v7.48c0,.52,0,.69-1.3.69h-.45v.42c.39,0,1.78,0,2.26,0s1.85,0,2.24,0v-.42h-.45c-1.26,0-1.3-.17-1.3-.69v-8.1" transform="translate(-14.85 -6.8)"/><path d="M53.3,186.86c0-.83-.27-1.45-.86-1.45a.68.68,0,0,0-.69.69.69.69,0,0,0,.7.7.65.65,0,0,0,.48-.19s0,0,.06,0a1,1,0,0,1,0,.28,3.4,3.4,0,0,1-.92,2.34c-.15.17-.15.2-.15.23a.15.15,0,0,0,.14.14,3.46,3.46,0,0,0,1.22-2.71" transform="translate(-14.85 -6.8)"/><path d="M60.3,186.81c-.46,0-1.39-.25-1.66-1.82a17.46,17.46,0,0,1-.16-3,12.58,12.58,0,0,1,.23-3.09,1.63,1.63,0,0,1,3.25.16,15.17,15.17,0,0,1,.18,2.93A18.67,18.67,0,0,1,62,185c-.28,1.58-1.18,1.85-1.69,1.85m2.94-4.61a7.91,7.91,0,0,0-.59-3.44,2.57,2.57,0,0,0-4.72.1,7.62,7.62,0,0,0-.54,3.34,7.24,7.24,0,0,0,.62,3.47,2.55,2.55,0,0,0,2.29,1.43,2.59,2.59,0,0,0,2.39-1.58A8,8,0,0,0,63.24,182.2Z" transform="translate(-14.85 -6.8)"/><path d="M67.85,183.22a10.62,10.62,0,0,0-.95-4.54A6.11,6.11,0,0,0,64.72,176c-.06,0-.13,0-.13.11s0,.07.24.32c1.44,1.45,2.24,3.82,2.24,6.75s-.67,5.19-2.34,6.88c-.14.13-.14.16-.14.2a.12.12,0,0,0,.13.12A6.08,6.08,0,0,0,66.79,188a10.34,10.34,0,0,0,1.06-4.74" transform="translate(-14.85 -6.8)"/><path d="M307.77,190.29s0-.07-.25-.31c-1.43-1.46-2.24-3.83-2.24-6.76a9.51,9.51,0,0,1,2.34-6.88c.15-.13.15-.16.15-.2s-.07-.11-.13-.11a5.94,5.94,0,0,0-2.07,2.44,10.26,10.26,0,0,0-1.06,4.75,10.57,10.57,0,0,0,.95,4.53,6.1,6.1,0,0,0,2.18,2.66.12.12,0,0,0,.13-.12" transform="translate(-14.85 -6.8)"/><path d="M312.74,177.59c0-.33,0-.34-.29-.34a3.22,3.22,0,0,1-2.54.92v.41a4.18,4.18,0,0,0,1.84-.37v7.48c0,.52-.05.69-1.31.69H310v.42c.39,0,1.78,0,2.26,0s1.85,0,2.24,0v-.42h-.44c-1.27,0-1.31-.17-1.31-.69v-8.1" transform="translate(-14.85 -6.8)"/><path d="M318.4,186.86c0-.83-.27-1.45-.86-1.45a.68.68,0,0,0-.69.69.69.69,0,0,0,.7.7.65.65,0,0,0,.48-.19s0,0,.06,0a1,1,0,0,1,0,.28,3.42,3.42,0,0,1-.91,2.34c-.16.17-.16.2-.16.23a.15.15,0,0,0,.14.14,3.43,3.43,0,0,0,1.22-2.71" transform="translate(-14.85 -6.8)"/><path d="M325.4,186.81c-.45,0-1.39-.25-1.66-1.82a17.46,17.46,0,0,1-.16-3,12.58,12.58,0,0,1,.23-3.09,1.72,1.72,0,0,1,1.59-1.41,1.75,1.75,0,0,1,1.66,1.57,15.17,15.17,0,0,1,.18,2.93,18.67,18.67,0,0,1-.15,2.93c-.28,1.58-1.18,1.85-1.69,1.85m2.94-4.61a7.91,7.91,0,0,0-.59-3.44,2.57,2.57,0,0,0-4.72.1,7.62,7.62,0,0,0-.54,3.34,7.24,7.24,0,0,0,.62,3.47,2.55,2.55,0,0,0,2.29,1.43,2.59,2.59,0,0,0,2.39-1.58A8,8,0,0,0,328.34,182.2Z" transform="translate(-14.85 -6.8)"/><path d="M333,183.22a10.62,10.62,0,0,0-.95-4.54,6.11,6.11,0,0,0-2.18-2.65c-.06,0-.13,0-.13.11s0,.07.24.32c1.44,1.45,2.24,3.82,2.24,6.75s-.67,5.19-2.34,6.88c-.14.13-.14.16-.14.2a.12.12,0,0,0,.13.12,6.08,6.08,0,0,0,2.07-2.45,10.34,10.34,0,0,0,1.06-4.74" transform="translate(-14.85 -6.8)"/><rect class="cls-3" x="145.95" y="302.95" width="49.07" height="20.99"/><path d="M168.77,327.29s0-.07-.25-.31c-1.43-1.46-2.24-3.83-2.24-6.76a9.51,9.51,0,0,1,2.34-6.88c.15-.13.15-.16.15-.2a.12.12,0,0,0-.13-.12,6,6,0,0,0-2.07,2.45,10.26,10.26,0,0,0-1.06,4.75,10.57,10.57,0,0,0,1,4.53,6.1,6.1,0,0,0,2.18,2.66.12.12,0,0,0,.13-.12" transform="translate(-14.85 -6.8)"/><path d="M173.1,323.81c-.46,0-1.39-.25-1.66-1.82a17.46,17.46,0,0,1-.16-3,12.58,12.58,0,0,1,.23-3.09,1.63,1.63,0,0,1,3.25.16,15.17,15.17,0,0,1,.18,2.93,18.67,18.67,0,0,1-.15,2.93c-.28,1.58-1.18,1.85-1.69,1.85M176,319.2a8,8,0,0,0-.59-3.45,2.57,2.57,0,0,0-4.72.11,7.62,7.62,0,0,0-.54,3.34,7.24,7.24,0,0,0,.62,3.47,2.55,2.55,0,0,0,2.29,1.43,2.59,2.59,0,0,0,2.39-1.58A8,8,0,0,0,176,319.2Z" transform="translate(-14.85 -6.8)"/><path d="M179.4,323.86c0-.84-.27-1.45-.86-1.45a.68.68,0,0,0-.69.69.69.69,0,0,0,.7.7.65.65,0,0,0,.48-.19s0,0,.06,0a1,1,0,0,1,0,.28,3.4,3.4,0,0,1-.92,2.34c-.15.17-.15.2-.15.23a.15.15,0,0,0,.14.14,3.46,3.46,0,0,0,1.22-2.71" transform="translate(-14.85 -6.8)"/><path d="M192.37,320.5c.24,0,.5,0,.5-.29s-.26-.29-.5-.29h-7.78c-.24,0-.5,0-.5.29s.26.29.5.29h7.78" transform="translate(-14.85 -6.8)"/><path d="M198.24,314.59c0-.33,0-.34-.29-.34a3.22,3.22,0,0,1-2.54.92v.41a4.12,4.12,0,0,0,1.83-.37v7.48c0,.52,0,.69-1.3.69h-.45v.42c.39,0,1.78,0,2.26,0s1.85,0,2.24,0v-.42h-.45c-1.26,0-1.3-.17-1.3-.69v-8.1" transform="translate(-14.85 -6.8)"/><path d="M205.15,320.22a10.62,10.62,0,0,0-1-4.54A6.17,6.17,0,0,0,202,313a.12.12,0,0,0-.13.12s0,.07.24.32c1.44,1.45,2.25,3.82,2.25,6.75s-.68,5.19-2.35,6.88c-.14.13-.14.16-.14.2a.12.12,0,0,0,.13.12,6.08,6.08,0,0,0,2.07-2.45,10.34,10.34,0,0,0,1.06-4.74" transform="translate(-14.85 -6.8)"/><rect class="cls-3" x="151.53" y="47.83" width="37.91" height="20.99"/><path d="M174.37,72.19s0-.07-.25-.31c-1.43-1.46-2.24-3.83-2.24-6.76a9.51,9.51,0,0,1,2.34-6.88c.15-.13.15-.16.15-.2a.12.12,0,0,0-.13-.11,6,6,0,0,0-2.07,2.44,10.26,10.26,0,0,0-1.06,4.75,10.57,10.57,0,0,0,.95,4.53,6.1,6.1,0,0,0,2.18,2.66.12.12,0,0,0,.13-.12" transform="translate(-14.85 -6.8)"/><path d="M178.7,68.71c-.46,0-1.39-.25-1.66-1.82a17.46,17.46,0,0,1-.16-3,12.58,12.58,0,0,1,.23-3.09,1.72,1.72,0,0,1,1.59-1.41A1.75,1.75,0,0,1,180.36,61a15.17,15.17,0,0,1,.18,2.93,18.67,18.67,0,0,1-.15,2.93c-.28,1.58-1.18,1.85-1.69,1.85m2.94-4.61a7.91,7.91,0,0,0-.59-3.44,2.57,2.57,0,0,0-4.72.1,7.62,7.62,0,0,0-.54,3.34,7.24,7.24,0,0,0,.62,3.47A2.55,2.55,0,0,0,178.7,69a2.57,2.57,0,0,0,2.39-1.58A8,8,0,0,0,181.64,64.1Z" transform="translate(-14.85 -6.8)"/><path d="M185,68.76c0-.83-.27-1.45-.86-1.45a.68.68,0,0,0-.69.69.69.69,0,0,0,.7.7.65.65,0,0,0,.48-.19s0,0,.06,0a1,1,0,0,1,0,.28,3.4,3.4,0,0,1-.92,2.34c-.15.17-.15.2-.15.23a.15.15,0,0,0,.14.14A3.46,3.46,0,0,0,185,68.76" transform="translate(-14.85 -6.8)"/><path d="M192.64,59.49c0-.33,0-.34-.29-.34a3.2,3.2,0,0,1-2.54.92v.41a4.12,4.12,0,0,0,1.83-.37v7.48c0,.52,0,.69-1.3.69h-.45v.42c.39,0,1.78,0,2.26,0s1.85,0,2.24,0v-.42h-.45c-1.26,0-1.3-.17-1.3-.69v-8.1" transform="translate(-14.85 -6.8)"/><path d="M199.55,65.12a10.62,10.62,0,0,0-1-4.54,6,6,0,0,0-2.18-2.65.12.12,0,0,0-.13.11s0,.07.24.32c1.44,1.45,2.24,3.82,2.24,6.75s-.67,5.19-2.34,6.88c-.14.13-.14.16-.14.2a.12.12,0,0,0,.13.12,6.08,6.08,0,0,0,2.07-2.45,10.34,10.34,0,0,0,1.06-4.74" transform="translate(-14.85 -6.8)"/><path class="cls-2" d="M230.93,192.69A45.36,45.36,0,0,0,224.86,170" transform="translate(-14.85 -6.8)"/></svg>