<svg id="Layer_1" data-name="Layer 1" xmlns="http://www.w3.org/2000/svg" viewBox="0 0 189.38 196.2"><defs><style>.cls-1{fill:#27c9b8;stroke-width:0.4px;opacity:0.2;}.cls-1,.cls-2,.cls-4{stroke:#000;}.cls-1,.cls-2,.cls-4,.cls-5{stroke-linecap:round;stroke-miterlimit:10;}.cls-2,.cls-4,.cls-5{fill:none;}.cls-2,.cls-5{stroke-width:0.8px;}.cls-3{fill:#fff;}.cls-4{stroke-width:0.4px;}.cls-5{stroke:#27c9b8;stroke-dasharray:2.99 2.99;}</style></defs><title>CosAndSin.04</title><path class="cls-1" d="M26,185.12H71.34a45.36,45.36,0,0,0-6.07-22.68L26,185.12" transform="translate(-12.51 -3.8)"/><line class="cls-2" x1="13.04" y1="181.28" x2="174.93" y2="181.28"/><path d="M191,185.08a14.45,14.45,0,0,1-4-1.49v3a14.5,14.5,0,0,1,4-1.5" transform="translate(-12.51 -3.8)"/><path d="M201.31,182.34a.72.72,0,0,0-.63.7.44.44,0,0,0,.47.46.76.76,0,0,0,.74-.76c0-.6-.69-.88-1.3-.88A1.85,1.85,0,0,0,199.1,183a1.49,1.49,0,0,0-1.48-1.14c-1.47,0-2.24,1.89-2.24,2.2a.15.15,0,0,0,.16.13c.11,0,.14-.08.17-.14.49-1.6,1.45-1.9,1.87-1.9.64,0,.77.61.77.95a5.59,5.59,0,0,1-.26,1.34l-.49,2c-.21.86-.63,1.65-1.39,1.65a1.42,1.42,0,0,1-.73-.19.73.73,0,0,0,.63-.7.45.45,0,0,0-.49-.46.75.75,0,0,0-.72.76c0,.6.68.87,1.3.87a1.78,1.78,0,0,0,1.48-1.13,1.49,1.49,0,0,0,1.48,1.13c1.46,0,2.24-1.88,2.24-2.19a.13.13,0,0,0-.15-.13c-.13,0-.14.07-.18.18-.39,1.27-1.22,1.86-1.87,1.86-.5,0-.78-.38-.78-1a6.63,6.63,0,0,1,.29-1.49l.5-1.95c.22-.87.71-1.5,1.37-1.5a1.51,1.51,0,0,1,.73.19" transform="translate(-12.51 -3.8)"/><line class="cls-2" x1="13.04" y1="181.28" x2="13.04" y2="19.39"/><path d="M25.55,19.61a14,14,0,0,1-1.49,4h3a14.33,14.33,0,0,1-1.5-4" transform="translate(-12.51 -3.8)"/><rect class="cls-3" x="6.04" width="14.01" height="15.61"/><path d="M25.68,14.91a2.12,2.12,0,0,1-1.65,1A1.08,1.08,0,0,1,23,15.25a.39.39,0,0,0,.14,0,.73.73,0,0,0,.72-.71.44.44,0,0,0-.49-.44.78.78,0,0,0-.73.88A1.3,1.3,0,0,0,24,16.23a3.78,3.78,0,0,0,3.29-2.92l1.4-5.6a.93.93,0,0,0,.05-.24.36.36,0,0,0-.39-.36.58.58,0,0,0-.55.49l-1.06,4.22a.94.94,0,0,1-.19.45,1.84,1.84,0,0,1-1.45.89c-.8,0-.87-.79-.87-1.18A9.91,9.91,0,0,1,25,9a2.46,2.46,0,0,0,.25-.91A1.12,1.12,0,0,0,24.14,7c-1.32,0-1.85,2.09-1.85,2.2a.15.15,0,0,0,.16.13c.13,0,.14-.06.2-.26.34-1.2.89-1.78,1.45-1.78.13,0,.37,0,.37.48a3.79,3.79,0,0,1-.37,1.33,7.2,7.2,0,0,0-.7,2.7,1.54,1.54,0,0,0,1.69,1.68,1.93,1.93,0,0,0,1.44-.66v0a5.38,5.38,0,0,1-.86,2.11" transform="translate(-12.51 -3.8)"/><line class="cls-4" x1="13.04" y1="178.95" x2="13.04" y2="183.61"/><path d="M25.51,199.71c-.46,0-1.4-.25-1.67-1.82a17.46,17.46,0,0,1-.16-3,12.58,12.58,0,0,1,.23-3.09,1.63,1.63,0,0,1,3.25.16,14.39,14.39,0,0,1,.19,2.93,17.51,17.51,0,0,1-.16,2.93c-.28,1.58-1.18,1.85-1.68,1.85m2.93-4.61a7.77,7.77,0,0,0-.59-3.44,2.56,2.56,0,0,0-4.71.1,7.46,7.46,0,0,0-.55,3.34,7.24,7.24,0,0,0,.62,3.47,2.57,2.57,0,0,0,4.68-.15A8,8,0,0,0,28.44,195.1Z" transform="translate(-12.51 -3.8)"/><line class="cls-4" x1="79.23" y1="178.95" x2="79.23" y2="183.61"/><line class="cls-4" x1="145.42" y1="178.95" x2="145.42" y2="183.61"/><path d="M158.54,190.49c0-.33,0-.34-.29-.34a3.2,3.2,0,0,1-2.54.92v.41a4.18,4.18,0,0,0,1.84-.37v7.48c0,.52-.05.69-1.31.69h-.44v.42c.38,0,1.78,0,2.25,0s1.85,0,2.24,0v-.42h-.44c-1.27,0-1.31-.17-1.31-.69v-8.1" transform="translate(-12.51 -3.8)"/><line class="cls-4" x1="132.19" y1="180.35" x2="132.19" y2="182.21"/><line class="cls-4" x1="118.95" y1="180.35" x2="118.95" y2="182.21"/><line class="cls-4" x1="105.71" y1="180.35" x2="105.71" y2="182.21"/><line class="cls-4" x1="92.47" y1="180.35" x2="92.47" y2="182.21"/><line class="cls-4" x1="66" y1="180.35" x2="66" y2="182.21"/><line class="cls-4" x1="52.76" y1="180.35" x2="52.76" y2="182.21"/><line class="cls-4" x1="39.52" y1="180.35" x2="39.52" y2="182.21"/><line class="cls-4" x1="26.28" y1="180.35" x2="26.28" y2="182.21"/><line class="cls-4" x1="15.37" y1="115.09" x2="10.72" y2="115.09"/><line class="cls-4" x1="15.37" y1="48.9" x2="10.72" y2="48.9"/><path d="M15.34,48.09c0-.33,0-.34-.29-.34a3.2,3.2,0,0,1-2.54.92v.41a4.18,4.18,0,0,0,1.84-.37v7.48c0,.52,0,.69-1.31.69H12.6v.42c.38,0,1.78,0,2.25,0s1.85,0,2.24,0v-.42h-.44c-1.27,0-1.31-.17-1.31-.69v-8.1" transform="translate(-12.51 -3.8)"/><line class="cls-4" x1="13.98" y1="62.14" x2="12.11" y2="62.14"/><line class="cls-4" x1="13.98" y1="75.38" x2="12.11" y2="75.38"/><line class="cls-4" x1="13.98" y1="88.62" x2="12.11" y2="88.62"/><line class="cls-4" x1="13.98" y1="101.85" x2="12.11" y2="101.85"/><line class="cls-4" x1="13.98" y1="128.33" x2="12.11" y2="128.33"/><line class="cls-4" x1="13.98" y1="141.57" x2="12.11" y2="141.57"/><line class="cls-4" x1="13.98" y1="154.81" x2="12.11" y2="154.81"/><line class="cls-4" x1="13.98" y1="168.04" x2="12.11" y2="168.04"/><line class="cls-5" x1="127.62" y1="180.11" x2="127.62" y2="114.66"/><polyline class="cls-2" points="145.42 181.28 145.14 172.62 144.29 164 142.88 155.46 140.91 147.02 138.4 138.73 135.34 130.63 131.77 122.73 127.69 115.09 123.11 107.74 118.06 100.7 112.57 94 106.65 87.67 100.33 81.76 93.63 76.26 86.59 71.22 79.23 66.64 71.59 62.56 63.7 58.98 55.59 55.93 47.31 53.41 38.87 51.45 30.32 50.04 21.7 49.19 13.04 48.9"/><line class="cls-2" x1="13.04" y1="181.28" x2="127.69" y2="115.09"/><path d="M141.13,118.89a.93.93,0,1,0-.93.93A.93.93,0,0,0,141.13,118.89Z" transform="translate(-12.51 -3.8)"/><path d="M58.51,176.86a12,12,0,0,1-1.18,3.21c-.41.74-.92,1.41-1.52,1.41-.44,0-.8-.34-.8-1.77a12.36,12.36,0,0,1,.46-2.85h3m-2.93-.43a13,13,0,0,1,1.09-3.08c.48-.86,1-1.55,1.61-1.55.48,0,.79.4.79,1.78a10.57,10.57,0,0,1-.46,2.85Zm4.35-2c0-1.47-.45-2.89-1.63-2.89-2,0-4.15,4.21-4.15,7.37,0,.66.14,2.89,1.65,2.89C57.75,181.77,59.93,177.66,59.93,174.4Z" transform="translate(-12.51 -3.8)"/><path d="M145.67,116.49s0-.07-.24-.31c-1.44-1.46-2.25-3.83-2.25-6.76a9.47,9.47,0,0,1,2.35-6.88c.14-.13.14-.16.14-.2a.12.12,0,0,0-.13-.11,6,6,0,0,0-2.07,2.44,10.26,10.26,0,0,0-1.06,4.75,10.57,10.57,0,0,0,1,4.53,6.1,6.1,0,0,0,2.18,2.66.12.12,0,0,0,.13-.12" transform="translate(-12.51 -3.8)"/><path d="M153.31,107.14a.72.72,0,0,0-.63.7.44.44,0,0,0,.47.46.76.76,0,0,0,.74-.76c0-.6-.69-.88-1.3-.88a1.85,1.85,0,0,0-1.49,1.14,1.49,1.49,0,0,0-1.48-1.14c-1.47,0-2.24,1.89-2.24,2.2a.15.15,0,0,0,.16.13c.11,0,.14-.08.17-.14.49-1.6,1.45-1.9,1.87-1.9.64,0,.77.61.77,1a5.59,5.59,0,0,1-.26,1.34l-.49,2c-.21.86-.63,1.65-1.39,1.65a1.42,1.42,0,0,1-.73-.19.73.73,0,0,0,.63-.7.45.45,0,0,0-.49-.46.75.75,0,0,0-.72.76c0,.6.68.87,1.3.87a1.78,1.78,0,0,0,1.48-1.13,1.49,1.49,0,0,0,1.48,1.13c1.46,0,2.24-1.88,2.24-2.19a.13.13,0,0,0-.15-.13c-.13,0-.14.07-.18.18-.39,1.27-1.22,1.86-1.87,1.86-.5,0-.78-.38-.78-1a6.63,6.63,0,0,1,.29-1.49l.5-2c.22-.87.71-1.5,1.37-1.5a1.51,1.51,0,0,1,.73.19" transform="translate(-12.51 -3.8)"/><path d="M157.3,113.06c0-.83-.27-1.45-.86-1.45a.68.68,0,0,0-.69.69.69.69,0,0,0,.7.7.65.65,0,0,0,.48-.19s0,0,.06,0,0,.21,0,.28a3.45,3.45,0,0,1-.92,2.34c-.16.17-.16.2-.16.23a.15.15,0,0,0,.14.14,3.43,3.43,0,0,0,1.22-2.71" transform="translate(-12.51 -3.8)"/><path d="M164.58,114.61a2.12,2.12,0,0,1-1.65,1,1.08,1.08,0,0,1-1.08-.69.39.39,0,0,0,.14,0,.73.73,0,0,0,.72-.71.44.44,0,0,0-.49-.44.78.78,0,0,0-.73.88,1.3,1.3,0,0,0,1.44,1.23,3.78,3.78,0,0,0,3.29-2.92l1.4-5.6a.93.93,0,0,0,0-.24.36.36,0,0,0-.39-.36.58.58,0,0,0-.55.49l-1.06,4.22a.94.94,0,0,1-.19.45,1.84,1.84,0,0,1-1.45.89c-.8,0-.87-.79-.87-1.18a9.91,9.91,0,0,1,.77-3,2.46,2.46,0,0,0,.25-.91,1.12,1.12,0,0,0-1.14-1.15c-1.32,0-1.85,2.09-1.85,2.2a.15.15,0,0,0,.16.13c.13,0,.14-.06.2-.26.34-1.2.89-1.78,1.45-1.78.13,0,.37,0,.37.48a3.79,3.79,0,0,1-.37,1.33,7.2,7.2,0,0,0-.7,2.7,1.54,1.54,0,0,0,1.69,1.68,1.93,1.93,0,0,0,1.44-.66v0a5.38,5.38,0,0,1-.86,2.11" transform="translate(-12.51 -3.8)"/><path d="M172.15,109.42a10.62,10.62,0,0,0-1-4.54,6,6,0,0,0-2.18-2.65.12.12,0,0,0-.13.11s0,.07.25.32c1.43,1.45,2.24,3.82,2.24,6.75s-.68,5.19-2.34,6.88c-.15.13-.15.16-.15.2a.12.12,0,0,0,.13.12,6,6,0,0,0,2.07-2.45,10.34,10.34,0,0,0,1.06-4.74" transform="translate(-12.51 -3.8)"/><path d="M83.54,137.49c0-.33,0-.34-.29-.34a3.2,3.2,0,0,1-2.54.92v.41a4.18,4.18,0,0,0,1.84-.37v7.48c0,.52,0,.69-1.31.69H80.8v.42c.38,0,1.78,0,2.25,0s1.85,0,2.24,0v-.42h-.44c-1.27,0-1.31-.17-1.31-.69v-8.1" transform="translate(-12.51 -3.8)"/><rect class="cls-3" x="121.94" y="143.03" width="10.26" height="15.61"/><path d="M139.78,157.91a2.12,2.12,0,0,1-1.65,1,1.08,1.08,0,0,1-1.08-.69.39.39,0,0,0,.14,0,.73.73,0,0,0,.72-.71.44.44,0,0,0-.49-.44.78.78,0,0,0-.73.88,1.3,1.3,0,0,0,1.44,1.23,3.78,3.78,0,0,0,3.29-2.92l1.4-5.6a.93.93,0,0,0,.05-.24.36.36,0,0,0-.39-.36.58.58,0,0,0-.55.49l-1.06,4.22a.94.94,0,0,1-.19.45,1.84,1.84,0,0,1-1.45.89c-.8,0-.87-.79-.87-1.18a9.91,9.91,0,0,1,.77-3,2.46,2.46,0,0,0,.25-.91,1.12,1.12,0,0,0-1.14-1.15c-1.32,0-1.85,2.09-1.85,2.2a.15.15,0,0,0,.16.13c.13,0,.14-.06.2-.26.34-1.2.89-1.78,1.45-1.78.13,0,.37,0,.37.48a3.79,3.79,0,0,1-.37,1.33,7.2,7.2,0,0,0-.7,2.7,1.54,1.54,0,0,0,1.69,1.68,1.93,1.93,0,0,0,1.44-.66v0a5.38,5.38,0,0,1-.86,2.11" transform="translate(-12.51 -3.8)"/><path d="M94.61,191.24a.72.72,0,0,0-.63.7.44.44,0,0,0,.47.46.76.76,0,0,0,.74-.76c0-.6-.69-.88-1.3-.88a1.85,1.85,0,0,0-1.49,1.14,1.49,1.49,0,0,0-1.48-1.14c-1.47,0-2.24,1.89-2.24,2.2a.15.15,0,0,0,.16.13c.11,0,.14-.08.17-.14.49-1.6,1.45-1.9,1.87-1.9.64,0,.77.61.77.95a5.59,5.59,0,0,1-.26,1.34l-.49,2c-.21.86-.63,1.65-1.39,1.65a1.42,1.42,0,0,1-.73-.19.73.73,0,0,0,.63-.7.45.45,0,0,0-.49-.46.75.75,0,0,0-.72.76c0,.6.68.87,1.3.87A1.78,1.78,0,0,0,91,196.11a1.49,1.49,0,0,0,1.48,1.13c1.46,0,2.24-1.88,2.24-2.19a.13.13,0,0,0-.15-.13c-.13,0-.14.07-.18.18C94,196.37,93.15,197,92.5,197c-.5,0-.78-.38-.78-1A6.63,6.63,0,0,1,92,194.5l.5-1.95c.22-.87.71-1.5,1.37-1.5a1.51,1.51,0,0,1,.73.19" transform="translate(-12.51 -3.8)"/><polyline class="cls-2" points="120.07 180.28 120.07 173.66 126.69 173.66"/><path class="cls-2" d="M71.34,185.12a45.36,45.36,0,0,0-6.07-22.68" transform="translate(-12.51 -3.8)"/></svg>