<svg id="Layer_1" data-name="Layer 1" xmlns="http://www.w3.org/2000/svg" xmlns:xlink="http://www.w3.org/1999/xlink" viewBox="0 0 194.77 161.89"><defs><style>.cls-1,.cls-10,.cls-2,.cls-3,.cls-5,.cls-6,.cls-9{fill:none;}.cls-2{stroke:#f2f2f2;stroke-width:0.39px;}.cls-10,.cls-2,.cls-3,.cls-5,.cls-6,.cls-9{stroke-linecap:round;stroke-miterlimit:10;}.cls-3{stroke:#bfbfbf;stroke-width:0.5px;}.cls-4,.cls-8{fill:#27c9b8;}.cls-4{opacity:0.2;}.cls-10,.cls-5{stroke:#000;stroke-width:0.8px;}.cls-6{stroke:gray;stroke-width:0.2px;}.cls-7{clip-path:url(#clip-path);}.cls-9{stroke:#27c9b8;}.cls-10{stroke-dasharray:2.99 2.99;}</style><clipPath id="clip-path" transform="translate(-3.27 -1.31)"><rect class="cls-1" x="3.52" y="1.56" width="194.27" height="161.39"/></clipPath></defs><title>CosAndSin.21</title><path class="cls-2" d="M179.58,163V1.56M155.3,163V1.56M131,163V1.56M106.73,163V1.56M82.44,163V1.56M58.16,163V1.56M33.88,163V1.56" transform="translate(-3.27 -1.31)"/><path class="cls-3" d="M191.72,163V1.56M167.44,163V1.56M143.15,163V1.56M118.87,163V1.56M94.59,163V1.56M46,163V1.56M21.73,163V1.56" transform="translate(-3.27 -1.31)"/><path class="cls-2" d="M3.52,11.64H197.79M3.52,25.09H197.79M3.52,38.54H197.79M3.52,52H197.79M3.52,65.44H197.79M3.52,78.89H197.79M3.52,92.34H197.79M3.52,105.79H197.79M3.52,119.24H197.79M3.52,132.69H197.79M3.52,146.14H197.79" transform="translate(-3.27 -1.31)"/><path class="cls-4" d="M38.08,125.53,56,113a21.77,21.77,0,0,1,4,12.58Z" transform="translate(-3.27 -1.31)"/><path class="cls-5" d="M56,113a21.77,21.77,0,0,1,4,12.58" transform="translate(-3.27 -1.31)"/><path class="cls-3" d="M3.52,4.92H197.79M3.52,18.37H197.79M3.52,31.82H197.79M3.52,45.27H197.79M3.52,58.72H197.79M3.52,72.17H197.79M3.52,85.62H197.79M3.52,99.07H197.79M3.52,112.51H197.79M3.52,139.41H197.79M3.52,152.86H197.79" transform="translate(-3.27 -1.31)"/><path class="cls-6" d="M179.58,127.38v-2.83m-24.28,2.83v-2.83M131,127.38v-2.83m-24.28,2.83v-2.83m-24.29,2.83v-2.83m-24.28,2.83v-2.83m-24.28,2.83v-2.83" transform="translate(-3.27 -1.31)"/><path class="cls-6" d="M191.72,128.09v-4.25m-24.28,4.25v-4.25m-24.29,4.25v-4.25m-24.28,4.25v-4.25m-24.28,4.25v-4.25M46,128.09v-4.25m-24.29,4.25v-4.25" transform="translate(-3.27 -1.31)"/><path class="cls-6" d="M68.88,11.64h2.84M68.88,25.09h2.84M68.88,38.54h2.84M68.88,52h2.84M68.88,65.44h2.84M68.88,78.89h2.84M68.88,92.34h2.84m-2.84,13.45h2.84m-2.84,13.45h2.84m-2.84,13.45h2.84m-2.84,13.45h2.84" transform="translate(-3.27 -1.31)"/><path class="cls-6" d="M68.18,4.92h4.25M68.18,18.37h4.25M68.18,31.82h4.25M68.18,45.27h4.25M68.18,58.72h4.25M68.18,72.17h4.25M68.18,85.62h4.25M68.18,99.07h4.25m-4.25,13.44h4.25m-4.25,26.9h4.25m-4.25,13.45h4.25" transform="translate(-3.27 -1.31)"/><line class="cls-5" x1="3.84" y1="124.66" x2="190.94" y2="124.66"/><path d="M3.52,126a14.5,14.5,0,0,1,4,1.5v-3a14.45,14.45,0,0,1-4,1.49" transform="translate(-3.27 -1.31)"/><path d="M197.79,126a14.28,14.28,0,0,1-4-1.49v3a14.33,14.33,0,0,1,4-1.5" transform="translate(-3.27 -1.31)"/><line class="cls-5" x1="67.03" y1="158.06" x2="67.03" y2="3.84"/><path d="M70.3,163a14.33,14.33,0,0,1,1.5-4h-3a14.6,14.6,0,0,1,1.49,4" transform="translate(-3.27 -1.31)"/><path class="cls-4" d="M86.53,91.9l17.94-12.57a21.77,21.77,0,0,1,4,12.57Z" transform="translate(-3.27 -1.31)"/><path d="M70.3,1.56a14.6,14.6,0,0,1-1.49,4h3a14.33,14.33,0,0,1-1.5-4" transform="translate(-3.27 -1.31)"/><path class="cls-5" d="M104.47,79.1a21.83,21.83,0,0,1,4,12.58" transform="translate(-3.27 -1.31)"/><g class="cls-7"><path d="M67.37,122a1.27,1.27,0,0,0-.08.37.77.77,0,0,0,.82.73c.87,0,1.25-1.19,1.25-1.32s-.12-.11-.14-.11-.13,0-.17.14c-.19.69-.57,1-.91,1-.17,0-.22-.11-.22-.3a1.4,1.4,0,0,1,.14-.56c.09-.23.18-.46.28-.69s.39-1,.42-1.09a.92.92,0,0,0,0-.28.76.76,0,0,0-.82-.73c-.85,0-1.25,1.17-1.25,1.32s.12.11.15.11.13,0,.15-.14c.23-.74.61-1,.93-1,.13,0,.21.07.21.3a2.22,2.22,0,0,1-.27.86L67.37,122m1.76-4.38a.33.33,0,0,0-.34-.33.52.52,0,0,0-.49.48.34.34,0,0,0,.35.32A.51.51,0,0,0,69.13,117.6Z" transform="translate(-3.27 -1.31)"/><path class="cls-8" d="M4.08,149.92a18.72,18.72,0,0,1,5.36-1.42l-2.25-3.18a19,19,0,0,1-3.11,4.6" transform="translate(-3.27 -1.31)"/><path class="cls-8" d="M160.4,38.93A19.15,19.15,0,0,1,155,40.35l2.25,3.17a18.61,18.61,0,0,1,3.11-4.59" transform="translate(-3.27 -1.31)"/><polyline class="cls-9" points="11.01 141.39 4.92 145.72 5.06 145.61 5.21 145.51 5.36 145.4 5.51 145.3 5.66 145.19 5.81 145.09 5.96 144.98 6.1 144.88 6.25 144.77 6.4 144.66 6.55 144.56 6.7 144.45 6.85 144.35 7 144.24 7.14 144.14 7.29 144.03 7.44 143.93 7.59 143.82 7.74 143.72 7.89 143.61 8.04 143.5 8.18 143.4 8.33 143.29 8.48 143.19 8.63 143.08 8.78 142.98 8.93 142.87 9.08 142.77 9.22 142.66 9.37 142.56 9.52 142.45 9.67 142.34 9.82 142.24 9.97 142.13 10.12 142.03 10.26 141.92 10.41 141.82 10.56 141.71 10.71 141.61 10.86 141.5 11.01 141.4 11.16 141.29 11.3 141.18 11.45 141.08 11.6 140.97 11.75 140.87 11.9 140.76 12.05 140.66 12.2 140.55 12.35 140.44 12.49 140.34 12.64 140.24 12.79 140.13 12.94 140.02 13.09 139.92 13.24 139.81 13.38 139.71 13.53 139.6 13.68 139.5 13.83 139.39 13.98 139.29 14.13 139.18 14.28 139.07 14.43 138.97 14.57 138.86 14.72 138.76 14.87 138.65 15.02 138.55 15.17 138.44 15.32 138.34 15.47 138.23 15.61 138.13 15.76 138.02 15.91 137.91 16.06 137.81 16.21 137.7 16.36 137.6 16.51 137.49 16.65 137.39 16.8 137.28 16.95 137.18 17.1 137.07 17.25 136.97 17.4 136.86 17.55 136.75 17.7 136.65 17.84 136.54 17.99 136.44 18.14 136.33 18.29 136.23 18.44 136.12 18.59 136.02 18.73 135.91 18.88 135.81 19.03 135.7 19.18 135.59 19.33 135.49 19.48 135.38 19.63 135.28 19.77 135.17 19.92 135.07 20.07 134.96 20.22 134.86 20.37 134.75 20.52 134.65 20.67 134.54 20.82 134.43 20.96 134.33 21.11 134.22 21.26 134.12 21.41 134.01 21.56 133.91 21.71 133.8 21.86 133.7 22 133.59 22.15 133.48 22.3 133.38 22.45 133.27 22.6 133.17 22.75 133.06 22.9 132.96 23.04 132.85 23.19 132.75 23.34 132.64 23.49 132.54 23.64 132.43 23.79 132.32 23.94 132.22 24.08 132.11 24.23 132.01 24.38 131.9 24.53 131.8 24.68 131.69 24.83 131.59 24.98 131.48 25.13 131.38 25.27 131.27 25.42 131.16 25.57 131.06 25.72 130.95 25.87 130.85 26.02 130.74 26.16 130.64 26.31 130.53 26.46 130.43 26.61 130.32 26.76 130.22 26.91 130.11 27.06 130 27.2 129.9 27.35 129.79 27.5 129.69 27.65 129.58 27.8 129.48 27.95 129.37 28.1 129.27 28.25 129.16 28.39 129.06 28.54 128.95 28.69 128.84 28.84 128.74 28.99 128.63 29.14 128.53 29.29 128.42 29.43 128.32 29.58 128.21 29.73 128.1 29.88 128 30.03 127.89 30.18 127.79 30.33 127.68 30.48 127.58 30.62 127.47 30.77 127.37 30.92 127.26 31.07 127.16 31.22 127.05 31.37 126.95 31.51 126.84 31.66 126.73 31.81 126.63 31.96 126.52 32.11 126.42 32.26 126.31 32.41 126.21 32.55 126.1 32.7 126 32.85 125.89 33 125.78 33.15 125.68 33.3 125.58 33.45 125.47 33.59 125.36 33.74 125.26 33.89 125.15 34.04 125.05 34.19 124.94 34.34 124.84 34.49 124.73 34.63 124.63 34.78 124.52 34.93 124.41 35.08 124.31 35.23 124.2 35.38 124.1 35.53 123.99 35.67 123.89 35.82 123.78 35.97 123.68 36.12 123.57 36.27 123.47 36.42 123.36 36.57 123.25 36.72 123.15 36.86 123.04 37.01 122.94 37.16 122.83 37.31 122.73 37.46 122.62 37.61 122.52 37.76 122.41 37.91 122.31 38.05 122.2 38.2 122.09 38.35 121.99 38.5 121.88 38.65 121.78 38.8 121.67 38.94 121.57 39.09 121.46 39.24 121.36 39.39 121.25 39.54 121.14 39.69 121.04 39.84 120.93 39.98 120.83 40.13 120.72 40.28 120.62 40.43 120.51 40.58 120.41 40.73 120.3 40.88 120.2 41.02 120.09 41.17 119.98 41.32 119.88 41.47 119.77 41.62 119.67 41.77 119.56 41.92 119.46 42.06 119.35 42.21 119.25 42.36 119.14 42.51 119.03 42.66 118.93 42.81 118.83 42.96 118.72 43.1 118.61 43.25 118.51 43.4 118.4 43.55 118.3 43.7 118.19 43.85 118.09 44 117.98 44.15 117.88 44.3 117.77 44.44 117.66 44.59 117.56 44.74 117.45 44.89 117.35 45.04 117.24 45.19 117.14 45.34 117.03 45.48 116.93 45.63 116.82 45.78 116.72 45.93 116.61 46.08 116.5 46.23 116.4 46.38 116.29 46.52 116.19 46.67 116.08 46.82 115.98 46.97 115.87 47.12 115.77 47.27 115.66 47.41 115.56 47.56 115.45 47.71 115.34 47.86 115.24 48.01 115.13 48.16 115.03 48.31 114.92 48.45 114.82 48.6 114.71 48.75 114.61 48.9 114.5 49.05 114.39 49.2 114.29 49.35 114.18 49.49 114.08 49.64 113.97 49.79 113.87 49.94 113.76 50.09 113.66 50.24 113.55 50.39 113.45 50.53 113.34 50.68 113.23 50.83 113.13 50.98 113.02 51.13 112.92 51.28 112.81 51.43 112.71 51.58 112.6 51.72 112.5 51.87 112.39 52.02 112.28 52.17 112.18 52.32 112.08 52.47 111.97 52.62 111.86 52.76 111.76 52.91 111.65 53.06 111.55 53.21 111.44 53.36 111.34 53.51 111.23 53.66 111.13 53.8 111.02 53.95 110.91 54.1 110.81 54.25 110.7 54.4 110.6 54.55 110.49 54.7 110.39 54.84 110.28 54.99 110.18 55.14 110.07 55.29 109.97 55.44 109.86 55.59 109.75 55.74 109.65 55.88 109.54 56.03 109.44 56.18 109.33 56.33 109.23 56.48 109.12 56.63 109.02 56.78 108.91 56.93 108.81 57.07 108.7 57.22 108.59 57.37 108.49 57.52 108.38 57.67 108.28 57.82 108.17 57.97 108.07 58.11 107.96 58.26 107.86 58.41 107.75 58.56 107.64 58.71 107.54 58.86 107.43 59.01 107.33 59.15 107.22 59.3 107.12 59.45 107.01 59.6 106.91 59.75 106.8 59.9 106.7 60.05 106.59 60.2 106.48 60.34 106.38 60.49 106.27 60.64 106.17 60.79 106.06 60.94 105.96 61.09 105.85 61.23 105.75 61.38 105.64 61.53 105.53 61.68 105.43 61.83 105.33 61.98 105.22 62.13 105.11 62.27 105.01 62.42 104.9 62.57 104.8 62.72 104.69 62.87 104.59 63.02 104.48 63.17 104.38 63.31 104.27 63.46 104.16 63.61 104.06 63.76 103.95 63.91 103.85 64.06 103.74 64.21 103.64 64.36 103.53 64.5 103.43 64.65 103.32 64.8 103.22 64.95 103.11 65.1 103 65.25 102.9 65.4 102.79 65.54 102.69 65.69 102.58 65.84 102.48 65.99 102.37 66.14 102.27 66.29 102.16 66.44 102.06 66.58 101.95 66.73 101.84 66.88 101.74 67.03 101.63 67.18 101.53 67.33 101.42 67.48 101.32 67.62 101.21 67.77 101.11 67.92 101 68.07 100.89 68.22 100.79 68.37 100.68 68.52 100.58 68.66 100.47 68.81 100.37 68.96 100.26 69.11 100.16 69.26 100.05 69.41 99.95 69.56 99.84 69.7 99.73 69.85 99.63 70 99.52 70.15 99.42 70.3 99.31 70.45 99.21 70.6 99.1 70.75 99 70.89 98.89 71.04 98.78 71.19 98.68 71.34 98.57 71.49 98.47 71.64 98.36 71.78 98.26 71.93 98.15 72.08 98.05 72.23 97.94 72.38 97.84 72.53 97.73 72.68 97.63 72.83 97.52 72.97 97.41 73.12 97.31 73.27 97.2 73.42 97.1 73.57 96.99 73.72 96.89 73.86 96.78 74.01 96.68 74.16 96.57 74.31 96.47 74.46 96.36 74.61 96.25 74.76 96.15 74.91 96.04 75.06 95.94 75.2 95.83 75.35 95.73 75.5 95.62 75.65 95.52 75.8 95.41 75.95 95.31 76.09 95.2 76.24 95.09 76.39 94.99 76.54 94.88 76.69 94.78 76.84 94.67 76.99 94.57 77.14 94.46 77.28 94.36 77.43 94.25 77.58 94.14 77.73 94.04 77.88 93.93 78.03 93.83 78.17 93.72 78.32 93.62 78.47 93.51 78.62 93.41 78.77 93.3 78.92 93.2 79.07 93.09 79.22 92.98 79.36 92.88 79.51 92.77 79.66 92.67 79.81 92.56 79.96 92.46 80.11 92.35 80.26 92.25 80.4 92.14 80.55 92.03 80.7 91.93 80.85 91.82 81 91.72 81.15 91.61 81.3 91.51 81.44 91.4 81.59 91.3 81.74 91.19 81.89 91.09 82.04 90.98 82.19 90.88 82.34 90.77 82.48 90.67 82.63 90.56 82.78 90.45 82.93 90.35 83.08 90.24 83.23 90.14 83.38 90.03 83.53 89.93 83.67 89.82 83.82 89.72 83.97 89.61 84.12 89.5 84.27 89.4 84.42 89.29 84.56 89.19 84.71 89.08 84.86 88.98 85.01 88.87 85.16 88.77 85.31 88.66 85.46 88.56 85.61 88.45 85.75 88.34 85.9 88.24 86.05 88.13 86.2 88.03 86.35 87.92 86.5 87.82 86.65 87.71 86.79 87.61 86.94 87.5 87.09 87.39 87.24 87.29 87.39 87.18 87.54 87.08 87.69 86.97 87.83 86.87 87.98 86.76 88.13 86.66 88.28 86.55 88.43 86.45 88.58 86.34 88.73 86.23 88.87 86.13 89.02 86.02 89.17 85.92 89.32 85.81 89.47 85.71 89.62 85.6 89.77 85.5 89.92 85.39 90.06 85.29 90.21 85.18 90.36 85.08 90.51 84.97 90.66 84.86 90.81 84.76 90.95 84.65 91.1 84.55 91.25 84.44 91.4 84.34 91.55 84.23 91.7 84.13 91.85 84.02 92 83.92 92.14 83.81 92.29 83.7 92.44 83.6 92.59 83.49 92.74 83.39 92.89 83.28 93.03 83.18 93.18 83.07 93.33 82.97 93.48 82.86 93.63 82.75 93.78 82.65 93.93 82.54 94.08 82.44 94.22 82.33 94.37 82.23 94.52 82.12 94.67 82.02 94.82 81.91 94.97 81.81 95.11 81.7 95.26 81.59 95.41 81.49 95.56 81.38 95.71 81.28 95.86 81.17 96.01 81.07 96.16 80.96 96.3 80.86 96.45 80.75 96.6 80.64 96.75 80.54 96.9 80.43 97.05 80.33 97.19 80.22 97.34 80.12 97.49 80.01 97.64 79.91 97.79 79.8 97.94 79.7 98.09 79.59 98.24 79.48 98.38 79.38 98.53 79.27 98.68 79.17 98.83 79.06 98.98 78.96 99.13 78.85 99.28 78.75 99.42 78.64 99.57 78.54 99.72 78.43 99.87 78.33 100.02 78.22 100.17 78.11 100.32 78.01 100.47 77.9 100.61 77.8 100.76 77.69 100.91 77.59 101.06 77.48 101.21 77.38 101.36 77.27 101.5 77.17 101.65 77.06 101.8 76.95 101.95 76.85 102.1 76.74 102.25 76.64 102.4 76.53 102.54 76.43 102.69 76.32 102.84 76.22 102.99 76.11 103.14 76 103.29 75.9 103.44 75.79 103.58 75.69 103.73 75.58 103.88 75.48 104.03 75.37 104.18 75.27 104.33 75.16 104.48 75.06 104.63 74.95 104.77 74.84 104.92 74.74 105.07 74.63 105.22 74.53 105.37 74.42 105.52 74.32 105.67 74.21 105.81 74.11 105.96 74 106.11 73.89 106.26 73.79 106.41 73.68 106.56 73.58 106.71 73.47 106.85 73.37 107 73.26 107.15 73.16 107.3 73.05 107.45 72.95 107.6 72.84 107.75 72.73 107.89 72.63 108.04 72.52 108.19 72.42 108.34 72.31 108.49 72.21 108.64 72.1 108.79 72 108.94 71.89 109.08 71.79 109.23 71.68 109.38 71.58 109.53 71.47 109.68 71.36 109.83 71.26 109.97 71.15 110.12 71.05 110.27 70.94 110.42 70.84 110.57 70.73 110.72 70.63 110.87 70.52 111.02 70.42 111.16 70.31 111.31 70.2 111.46 70.1 111.61 69.99 111.76 69.89 111.91 69.78 112.06 69.68 112.2 69.57 112.35 69.47 112.5 69.36 112.65 69.25 112.8 69.15 112.95 69.04 113.09 68.94 113.25 68.83 113.39 68.73 113.54 68.62 113.69 68.52 113.84 68.41 113.99 68.31 114.14 68.2 114.28 68.09 114.43 67.99 114.58 67.88 114.73 67.78 114.88 67.67 115.03 67.57 115.18 67.46 115.33 67.36 115.47 67.25 115.62 67.14 115.77 67.04 115.92 66.94 116.07 66.83 116.22 66.72 116.36 66.62 116.51 66.51 116.66 66.41 116.81 66.3 116.96 66.2 117.11 66.09 117.26 65.98 117.41 65.88 117.55 65.77 117.7 65.67 117.85 65.56 118 65.46 118.15 65.35 118.3 65.25 118.45 65.14 118.59 65.04 118.74 64.93 118.89 64.83 119.04 64.72 119.19 64.61 119.34 64.51 119.48 64.4 119.63 64.3 119.78 64.19 119.93 64.09 120.08 63.98 120.23 63.88 120.38 63.77 120.53 63.66 120.67 63.56 120.82 63.45 120.97 63.35 121.12 63.24 121.27 63.14 121.42 63.03 121.57 62.93 121.72 62.82 121.86 62.72 122.01 62.61 122.16 62.5 122.31 62.4 122.46 62.29 122.61 62.19 122.75 62.08 122.9 61.98 123.05 61.87 123.2 61.77 123.35 61.66 123.5 61.56 123.65 61.45 123.8 61.34 123.94 61.24 124.09 61.13 124.24 61.03 124.39 60.92 124.54 60.82 124.69 60.71 124.84 60.61 124.98 60.5 125.13 60.4 125.28 60.29 125.43 60.18 125.58 60.08 125.73 59.97 125.88 59.87 126.03 59.76 126.17 59.66 126.32 59.55 126.47 59.45 126.62 59.34 126.77 59.23 126.92 59.13 127.06 59.02 127.21 58.92 127.36 58.81 127.51 58.71 127.66 58.6 127.81 58.5 127.96 58.39 128.1 58.29 128.25 58.18 128.4 58.08 128.55 57.97 128.7 57.86 128.85 57.76 129 57.65 129.15 57.55 129.29 57.44 129.44 57.34 129.59 57.23 129.74 57.13 129.89 57.02 130.04 56.91 130.18 56.81 130.33 56.7 130.48 56.6 130.63 56.49 130.78 56.39 130.93 56.28 131.08 56.18 131.22 56.07 131.37 55.97 131.52 55.86 131.67 55.75 131.82 55.65 131.97 55.54 132.12 55.44 132.26 55.33 132.41 55.23 132.56 55.12 132.71 55.02 132.86 54.91 133.01 54.81 133.16 54.7 133.31 54.59 133.45 54.49 133.6 54.38 133.75 54.28 133.9 54.17 134.05 54.07 134.2 53.96 134.35 53.86 134.49 53.75 134.64 53.65 134.79 53.54 134.94 53.43 135.09 53.33 135.24 53.22 135.38 53.12 135.53 53.01 135.68 52.91 135.83 52.8 135.98 52.7 136.13 52.59 136.28 52.48 136.43 52.38 136.57 52.27 136.72 52.17 136.87 52.06 137.02 51.96 137.17 51.85 137.32 51.75 137.47 51.64 137.62 51.54 137.76 51.43 137.91 51.33 138.06 51.22 138.21 51.11 138.36 51.01 138.51 50.9 138.66 50.8 138.8 50.69 138.95 50.59 139.1 50.48 139.25 50.38 139.4 50.27 139.55 50.16 139.69 50.06 139.84 49.95 139.99 49.85 140.14 49.74 140.29 49.64 140.44 49.53 140.59 49.43 140.74 49.32 140.88 49.22 141.03 49.11 141.18 49.01 141.33 48.9 141.48 48.79 141.63 48.69 141.78 48.58 141.93 48.48 142.07 48.37 142.22 48.27 142.37 48.16 142.52 48.06 142.67 47.95 142.82 47.84 142.96 47.74 143.11 47.63 143.26 47.53 143.41 47.42 143.56 47.32 143.71 47.21 143.86 47.11 144 47 144.15 46.9 144.3 46.79 144.45 46.68 144.6 46.58 144.75 46.47 144.9 46.37 145.04 46.26 145.19 46.16 145.34 46.05 145.49 45.95 145.64 45.84 145.79 45.73 145.94 45.63 146.09 45.52 146.23 45.42 146.38 45.31 146.53 45.21 146.68 45.1 146.83 45 146.98 44.89 147.13 44.79 147.27 44.68 147.42 44.58 147.57 44.47 147.72 44.36 147.87 44.26 148.02 44.15 148.16 44.05 148.31 43.94 148.46 43.84 148.61 43.73 148.76 43.63 148.91 43.52 149.06 43.41 149.21 43.31 149.35 43.2 149.5 43.1 149.65 42.99 149.8 42.89 149.95 42.78 150.1 42.68 150.25 42.57 150.39 42.47 150.54 42.36 150.69 42.26 150.84 42.15 150.99 42.04 151.14 41.94 151.28 41.83 151.44 41.73 151.58 41.62 151.73 41.52 151.88 41.41 152.03 41.31 152.18 41.2 152.33 41.09 152.47 40.99 152.62 40.88 152.77 40.78 152.92 40.67 153.07 40.57 146.97 44.9"/></g><path d="M65.05,117.27a12.13,12.13,0,0,1-1.18,3.22c-.42.73-.92,1.41-1.52,1.41s-.81-.35-.81-1.77a12.53,12.53,0,0,1,.46-2.86h3m-2.93-.43a12.13,12.13,0,0,1,1.09-3.07c.47-.87,1-1.56,1.61-1.56.47,0,.79.41.79,1.79a11,11,0,0,1-.46,2.84Zm4.35-2c0-1.46-.46-2.88-1.64-2.88-2,0-4.15,4.21-4.15,7.37,0,.66.14,2.88,1.65,2.88C64.29,122.18,66.47,118.07,66.47,114.81Z" transform="translate(-3.27 -1.31)"/><path d="M149.81,69.83l3.93,8h-7.83Zm.78-1.06c-.1-.2-.13-.26-.33-.26s-.25.06-.35.26l-4.79,9.71a.39.39,0,0,0-.06.19c0,.08,0,.1.3.1h9.78c.29,0,.3,0,.3-.1a.38.38,0,0,0-.05-.19Z" transform="translate(-3.27 -1.31)"/><path d="M124.86,98.94a.72.72,0,0,0-.64.7.45.45,0,0,0,.48.46.75.75,0,0,0,.73-.76c0-.6-.69-.88-1.29-.88a1.85,1.85,0,0,0-1.5,1.14,1.49,1.49,0,0,0-1.48-1.14c-1.46,0-2.24,1.89-2.24,2.2a.15.15,0,0,0,.16.13c.12,0,.14-.08.17-.14.49-1.6,1.45-1.9,1.87-1.9.65,0,.78.6.78,1a6.16,6.16,0,0,1-.26,1.34l-.49,2c-.22.87-.63,1.66-1.39,1.66a1.43,1.43,0,0,1-.74-.19.75.75,0,0,0,.64-.7.45.45,0,0,0-.49-.46.75.75,0,0,0-.72.76c0,.6.67.87,1.29.87a1.77,1.77,0,0,0,1.48-1.13,1.5,1.5,0,0,0,1.48,1.13c1.47,0,2.24-1.88,2.24-2.2a.13.13,0,0,0-.14-.12c-.13,0-.15.07-.19.18-.39,1.27-1.22,1.86-1.87,1.86-.5,0-.77-.38-.77-1a6.63,6.63,0,0,1,.29-1.49l.5-2c.21-.86.7-1.49,1.36-1.49a1.56,1.56,0,0,1,.74.19" transform="translate(-3.27 -1.31)"/><path d="M161.12,77.56a2.14,2.14,0,0,1-1.66,1,1.07,1.07,0,0,1-1.07-.69.36.36,0,0,0,.14,0,.73.73,0,0,0,.72-.71.45.45,0,0,0-.49-.44.77.77,0,0,0-.73.87,1.3,1.3,0,0,0,1.43,1.24A3.77,3.77,0,0,0,162.75,76l1.41-5.6a1.64,1.64,0,0,0,0-.25.36.36,0,0,0-.38-.36.58.58,0,0,0-.55.49l-1.06,4.23a.9.9,0,0,1-.19.44,1.85,1.85,0,0,1-1.45.89c-.8,0-.88-.79-.88-1.17a9.66,9.66,0,0,1,.78-3,2.41,2.41,0,0,0,.24-.91,1.11,1.11,0,0,0-1.13-1.15c-1.32,0-1.86,2.09-1.86,2.2a.15.15,0,0,0,.16.13c.13,0,.15-.06.2-.26.35-1.21.89-1.78,1.46-1.78.12,0,.37,0,.37.47a4.07,4.07,0,0,1-.37,1.34,7.12,7.12,0,0,0-.71,2.7,1.55,1.55,0,0,0,1.7,1.68,1.91,1.91,0,0,0,1.43-.66h0a5.65,5.65,0,0,1-.86,2.12" transform="translate(-3.27 -1.31)"/><line class="cls-10" x1="136.66" y1="90.97" x2="136.66" y2="53.99"/><line class="cls-10" x1="134.65" y1="90.74" x2="84.61" y2="90.74"/><path d="M120.18,86.63a1,1,0,0,0-.08.36.76.76,0,0,0,.82.73c.86,0,1.24-1.19,1.24-1.32s-.11-.11-.13-.11-.14,0-.17.15c-.2.69-.58,1-.91,1s-.22-.11-.22-.3a1.36,1.36,0,0,1,.14-.55q.13-.36.27-.69l.43-1.1a1.37,1.37,0,0,0,.05-.28.77.77,0,0,0-.82-.73c-.86,0-1.25,1.17-1.25,1.32s.12.11.15.11.12,0,.15-.14c.22-.74.6-1.05.92-1.05.14,0,.22.07.22.3a2.29,2.29,0,0,1-.27.87l-.54,1.39m1.76-4.39a.33.33,0,0,0-.35-.33.52.52,0,0,0-.48.48.33.33,0,0,0,.35.33A.52.52,0,0,0,121.94,82.24Z" transform="translate(-3.27 -1.31)"/><path d="M117.85,81.91a12,12,0,0,1-1.17,3.22c-.42.73-.92,1.41-1.53,1.41-.44,0-.8-.35-.8-1.77a12.53,12.53,0,0,1,.46-2.86h3m-2.93-.43a12.74,12.74,0,0,1,1.1-3.07c.47-.86,1-1.55,1.61-1.55.47,0,.78.4.78,1.78a10.52,10.52,0,0,1-.46,2.84Zm4.36-2c0-1.47-.46-2.89-1.64-2.89-2,0-4.15,4.21-4.15,7.37,0,.66.14,2.89,1.65,2.89C117.09,86.83,119.28,82.72,119.28,79.46Z" transform="translate(-3.27 -1.31)"/><polyline class="cls-5" points="129.58 89.33 129.58 83.66 135.25 83.66"/><path d="M110.22,96l3.92,7.94h-7.83Zm.78-1.07c-.1-.2-.13-.25-.33-.25s-.25,0-.35.25l-4.79,9.72a.39.39,0,0,0-.06.18c0,.09,0,.1.3.1h9.78c.29,0,.3,0,.3-.1a.37.37,0,0,0,0-.18Z" transform="translate(-3.27 -1.31)"/></svg>