<svg id="Layer_1" data-name="Layer 1" xmlns="http://www.w3.org/2000/svg" viewBox="0 0 220.08 157.3"><defs><style>.cls-1,.cls-3{fill:none;stroke-linecap:round;stroke-miterlimit:10;stroke-width:0.8px;}.cls-1{stroke:#27c9b8;stroke-dasharray:2.99 2.99;}.cls-2{fill:#27c9b8;}.cls-3{stroke:#000;}</style></defs><title>CosAndSin.14</title><line class="cls-1" x1="59.14" y1="134.26" x2="86.13" y2="153.96"/><line class="cls-1" x1="117.93" y1="116.63" x2="86.13" y2="153.96"/><path class="cls-2" d="M66.84,138.79a1.24,1.24,0,0,0,0-.22c0-.14-.14-.14-.17-.14l-.79.07c-.25,0-.46.05-.72.06s-.46,0-.46.3.11.15.32.15c.7,0,.71.12.71.27a1.19,1.19,0,0,1,0,.24l-2.08,8.32a.92.92,0,0,0-.06.33.35.35,0,0,0,.39.37.58.58,0,0,0,.5-.34l.65-2.6c.07-.32.16-.62.23-.93a2.44,2.44,0,0,1,.43-1,2.49,2.49,0,0,1,2-1.28c.58,0,.78.43.78,1a12.79,12.79,0,0,1-.88,3.23,2.08,2.08,0,0,0-.2.79,1.11,1.11,0,0,0,1.14,1.16c1.33,0,1.84-2.11,1.84-2.19a.13.13,0,0,0-.15-.13c-.13,0-.14,0-.21.28-.34,1.15-.87,1.76-1.44,1.76-.14,0-.37,0-.37-.48a3.21,3.21,0,0,1,.23-1,12.87,12.87,0,0,0,.9-3.22,1.42,1.42,0,0,0-1.59-1.51,2.67,2.67,0,0,0-2.13,1.14l1.11-4.41" transform="translate(-13.49 -13.31)"/><path class="cls-3" d="M125.41,113.69a19.86,19.86,0,0,0,7.09,15.2l12.76-15.2" transform="translate(-13.49 -13.31)"/><path d="M71.58,121.19c0-.33,0-.34-.29-.34a3.16,3.16,0,0,1-2.54.92v.41a4.18,4.18,0,0,0,1.84-.37v7.49c0,.51,0,.68-1.31.68h-.44v.42c.38,0,1.78,0,2.25,0s1.85,0,2.24,0V130h-.44c-1.27,0-1.31-.17-1.31-.68v-8.11" transform="translate(-13.49 -13.31)"/><path d="M77.45,125.78l1.73,1.13a1.86,1.86,0,0,1,1,1.57A2.09,2.09,0,0,1,78,130.32a2.18,2.18,0,0,1-2.27-2.09,2.82,2.82,0,0,1,1.76-2.45m-.68-1.86a1.48,1.48,0,0,1-.76-1.2A1.77,1.77,0,0,1,78,121.19a1.87,1.87,0,0,1,2,1.78,2.45,2.45,0,0,1-1.46,2Zm2,1.3A2.76,2.76,0,0,0,80.49,123,2.34,2.34,0,0,0,78,120.85a2.44,2.44,0,0,0-2.54,2.35,2.2,2.2,0,0,0,.55,1.47c.15.19.17.2,1.17.9A3.09,3.09,0,0,0,75,128.23,2.71,2.71,0,0,0,78,130.7,2.82,2.82,0,0,0,80.88,128C80.88,126.55,79.84,125.9,78.72,125.22Z" transform="translate(-13.49 -13.31)"/><path d="M85,130.42c-.46,0-1.39-.26-1.67-1.83a17.46,17.46,0,0,1-.16-3,12.58,12.58,0,0,1,.23-3.09,1.63,1.63,0,0,1,3.25.16,14.39,14.39,0,0,1,.19,2.93,17.45,17.45,0,0,1-.16,2.93c-.27,1.58-1.18,1.86-1.68,1.86m2.93-4.62a7.77,7.77,0,0,0-.59-3.44,2.56,2.56,0,0,0-4.71.1A7.61,7.61,0,0,0,82,125.8a7.24,7.24,0,0,0,.62,3.47,2.57,2.57,0,0,0,4.68-.15A8,8,0,0,0,87.88,125.8Z" transform="translate(-13.49 -13.31)"/><path d="M91,124.05a1.53,1.53,0,1,1,1.53-1.53A1.53,1.53,0,0,1,91,124.05M93,122.52A1.93,1.93,0,1,0,91,124.45,1.94,1.94,0,0,0,93,122.52Z" transform="translate(-13.49 -13.31)"/><path d="M106.61,127.1c.24,0,.5,0,.5-.29s-.26-.29-.5-.29H98.84c-.25,0-.51,0-.51.29s.26.29.51.29h7.77" transform="translate(-13.49 -13.31)"/><path d="M122.27,120.42a.12.12,0,0,0-.13-.13s-.08,0-.2.14l-1,1.21a2.59,2.59,0,0,0-2.37-1.35,6.86,6.86,0,0,0-6.32,6.52A3.68,3.68,0,0,0,116,130.7a4.66,4.66,0,0,0,3-1.19,4.9,4.9,0,0,0,1.62-2.56c0-.13-.12-.13-.16-.13s-.14.09-.17.15a4.47,4.47,0,0,1-4,3.32,2.75,2.75,0,0,1-2.84-3,8.07,8.07,0,0,1,1.77-4.84,4.92,4.92,0,0,1,3.5-1.73c1.58,0,2.29,1.31,2.29,2.78,0,.37,0,.69,0,.74s.15.13.19.13.17,0,.23-.27l.9-3.66" transform="translate(-13.49 -13.31)"/><polygon class="cls-3" points="12.71 100.38 131.77 100.38 211.14 1.17 12.71 100.38"/><path d="M17.17,114.29l2.88-4.82.49,4.82Zm-1.73,2.22a2,2,0,0,1-1.68,1.17c-.16,0-.27,0-.27.28a.15.15,0,0,0,.17.14l1.16,0,1.28,0c.09,0,.26,0,.26-.27s-.11-.15-.2-.15c-.33,0-.6-.14-.6-.48a1.3,1.3,0,0,1,.27-.68l1.09-1.81h3.66c0,.13,0,.25,0,.37.05.38.22,1.87.22,2.14,0,.44-.73.46-1,.46s-.32,0-.32.26.13.16.22.16l.77,0h.82c.88,0,1.51,0,1.52,0s.26,0,.26-.27-.13-.15-.34-.15c-.79,0-.81-.13-.85-.56l-.88-9c0-.29-.08-.32-.24-.32s-.23,0-.36.25Z" transform="translate(-13.49 -13.31)"/><path d="M159.18,113a.12.12,0,0,0-.13-.13s-.09,0-.2.15l-1,1.2a2.61,2.61,0,0,0-2.37-1.35,6.86,6.86,0,0,0-6.32,6.52,3.68,3.68,0,0,0,3.77,3.9,4.59,4.59,0,0,0,3-1.2,4.89,4.89,0,0,0,1.62-2.55c0-.13-.11-.13-.15-.13s-.15.09-.18.14a4.47,4.47,0,0,1-4,3.32,2.75,2.75,0,0,1-2.85-3,8.16,8.16,0,0,1,1.77-4.85,4.91,4.91,0,0,1,3.51-1.72c1.57,0,2.28,1.31,2.28,2.77,0,.38,0,.69,0,.75s.14.13.18.13.18,0,.23-.27l.91-3.67" transform="translate(-13.49 -13.31)"/><path d="M228.54,25.48h-2.25c-.16,0-.17,0-.17-.16a2,2,0,0,1,0-.31l1-4.06h2.7a1.61,1.61,0,0,1,1.7,1.7,3,3,0,0,1-3,2.84m2.05-4.71c1.56-.29,3-1.38,3-2.7,0-1.12-1-2-2.61-2h-4.61c-.28,0-.41,0-.41.27s.13.15.35.15c.88,0,.88.11.88.27a1.21,1.21,0,0,1-.06.33l-1.94,7.73c-.13.5-.16.64-1.16.64-.28,0-.42,0-.42.26s.08.16.37.16h4.93c2.2,0,3.89-1.67,3.89-3.12A2.17,2.17,0,0,0,230.59,20.77Zm-2.43-3.7c.13-.54.18-.56.74-.56h1.87a1.45,1.45,0,0,1,1.62,1.5,2.93,2.93,0,0,1-3,2.65h-2.07Z" transform="translate(-13.49 -13.31)"/><path d="M112.22,161.77c.13-.53.19-.56.75-.56h1.58a2.43,2.43,0,0,1,2.59,2.72,8.34,8.34,0,0,1-1.68,4.8,4.26,4.26,0,0,1-3.15,1.46h-2c-.16,0-.18-.05-.18-.16a1.47,1.47,0,0,1,.06-.32l2-7.93m-3,7.77c-.13.51-.16.65-1.16.65-.27,0-.42,0-.42.26s.09.16.38.16h4.55c2.9,0,5.73-3,5.73-6.21,0-2.07-1.23-3.61-3.29-3.61h-4.61c-.27,0-.4,0-.4.28s.13.14.34.14c.88,0,.88.12.88.27a1.16,1.16,0,0,1-.06.33Z" transform="translate(-13.49 -13.31)"/><path d="M175.54,63.11a1.41,1.41,0,0,0-1.29-1c-1.62,0-3.37,2.1-3.37,4.23,0,1.42.83,2.25,1.8,2.25a2.67,2.67,0,0,0,1.87-1.09,1.24,1.24,0,0,0,1.25,1.09,1.18,1.18,0,0,0,1-.77,7.46,7.46,0,0,0,.43-1.42.13.13,0,0,0-.15-.13c-.13,0-.14.07-.2.28-.21.85-.49,1.76-1.08,1.76-.41,0-.44-.38-.44-.66a4,4,0,0,1,.17-1c.1-.36.17-.68.29-1.1.53-2.15.66-2.67.66-2.75a.36.36,0,0,0-.37-.36c-.46,0-.58.5-.61.67m-.92,3.68a1.27,1.27,0,0,1-.27.55,2.42,2.42,0,0,1-1.62,1c-.59,0-.92-.53-.92-1.38a10.07,10.07,0,0,1,.72-3c.49-1,1.16-1.53,1.72-1.53.95,0,1.14,1.18,1.14,1.3l-.06.23Z" transform="translate(-13.49 -13.31)"/><path d="M111.12,62.1a.76.76,0,0,0-.61.17.79.79,0,0,0-.24.52.45.45,0,0,0,.49.46.78.78,0,0,0,.73-.86c0-.69-.66-1.23-1.65-1.23a4.26,4.26,0,0,0-3.77,4.1,2.22,2.22,0,0,0,2.25,2.38,3.81,3.81,0,0,0,3.19-1.71.17.17,0,0,0-.15-.15s-.06,0-.19.14a3.67,3.67,0,0,1-2.83,1.44c-1,0-1.3-.87-1.3-1.58a7.63,7.63,0,0,1,.76-2.88,2.62,2.62,0,0,1,2-1.45,1.39,1.39,0,0,1,1.27.65" transform="translate(-13.49 -13.31)"/><path d="M87.11,110.46c-.46,0-1-.35-1-1.47a6,6,0,0,1,.3-1.75c0-.19.27-1.11.33-1.29s.88-1.4,1.86-1.4c.63,0,.92.63.92,1.38a10,10,0,0,1-.77,3.06c-.36.78-1,1.47-1.68,1.47M88,101a1.24,1.24,0,0,0,0-.22c0-.14-.14-.14-.17-.14l-.79.07c-.25,0-.46,0-.72.06s-.44,0-.44.3.14.15.28.15c.73,0,.73.12.73.27a7.72,7.72,0,0,1-.17.77l-.34,1.38c-.15.58-1,3.84-1,4.1a3.74,3.74,0,0,0-.07.79c0,1.46.82,2.22,1.75,2.22,1.67,0,3.39-2.14,3.39-4.22,0-1.32-.75-2.26-1.82-2.26a2.63,2.63,0,0,0-1.7.91Z" transform="translate(-13.49 -13.31)"/><line class="cls-1" x1="13.94" y1="101.79" x2="48.72" y2="127.17"/></svg>