<svg id="Layer_1" data-name="Layer 1" xmlns="http://www.w3.org/2000/svg" viewBox="0 0 200.39 112.71"><defs><style>.cls-1,.cls-4{fill:none;}.cls-1,.cls-2,.cls-3,.cls-4{stroke:#000;stroke-linecap:round;stroke-miterlimit:10;}.cls-1,.cls-3{stroke-width:0.8px;}.cls-2,.cls-3{fill:#41bfb3;opacity:0.2;}.cls-2,.cls-4{stroke-width:0.4px;}</style></defs><title>CosAndSin.08</title><polygon class="cls-1" points="0.96 99.8 199.43 99.8 100.19 0.56 0.96 99.8"/><path d="M109.11,119.86c-.46,0-1-.35-1-1.47a6,6,0,0,1,.3-1.75c0-.19.27-1.11.33-1.29s.88-1.4,1.86-1.4c.63,0,.92.63.92,1.38a10,10,0,0,1-.77,3.06c-.36.78-1,1.47-1.68,1.47m.91-9.47a1.24,1.24,0,0,0,0-.22c0-.14-.14-.14-.17-.14l-.79.07c-.25,0-.46.05-.72.06s-.44,0-.44.3.14.14.28.14c.73,0,.73.13.73.28a7.72,7.72,0,0,1-.17.77l-.34,1.38c-.15.58-1,3.84-1,4.1a3.74,3.74,0,0,0-.07.79c0,1.46.82,2.22,1.75,2.22,1.67,0,3.39-2.14,3.39-4.22,0-1.32-.75-2.26-1.82-2.26a2.63,2.63,0,0,0-1.7.91Z" transform="translate(-9.44 -7.44)"/><path d="M53.62,55.3a.76.76,0,0,0-.61.17.79.79,0,0,0-.24.52.45.45,0,0,0,.49.46.78.78,0,0,0,.73-.86c0-.69-.66-1.23-1.65-1.23a4.26,4.26,0,0,0-3.77,4.1,2.22,2.22,0,0,0,2.25,2.38A3.81,3.81,0,0,0,54,59.13a.17.17,0,0,0-.15-.15s-.06,0-.18.14a3.7,3.7,0,0,1-2.84,1.44c-1,0-1.3-.87-1.3-1.58a7.63,7.63,0,0,1,.76-2.88,2.62,2.62,0,0,1,2.05-1.45,1.39,1.39,0,0,1,1.27.65" transform="translate(-9.44 -7.44)"/><path d="M170.54,55.31a1.41,1.41,0,0,0-1.29-1c-1.62,0-3.37,2.1-3.37,4.23,0,1.42.83,2.25,1.8,2.25a2.67,2.67,0,0,0,1.87-1.09,1.24,1.24,0,0,0,1.25,1.09,1.18,1.18,0,0,0,1-.77,7.46,7.46,0,0,0,.43-1.42.13.13,0,0,0-.15-.13c-.13,0-.14.07-.2.28-.21.85-.49,1.76-1.08,1.76-.41,0-.44-.38-.44-.66a4,4,0,0,1,.17-1c.1-.36.17-.68.29-1.09.53-2.16.66-2.68.66-2.76a.36.36,0,0,0-.37-.36c-.46,0-.58.5-.61.67M169.62,59a1.27,1.27,0,0,1-.27.55,2.42,2.42,0,0,1-1.62,1c-.59,0-.92-.53-.92-1.38a10.07,10.07,0,0,1,.72-3c.49-1,1.16-1.53,1.72-1.53.95,0,1.14,1.18,1.14,1.3l-.06.23Z" transform="translate(-9.44 -7.44)"/><path class="cls-2" d="M42.65,107.23a32.28,32.28,0,0,0-9.44-22.8l-22.8,22.8" transform="translate(-9.44 -7.44)"/><path d="M29,100.19l2.88-4.82.49,4.82Zm-1.73,2.22a2,2,0,0,1-1.68,1.17c-.16,0-.27,0-.27.28a.15.15,0,0,0,.17.14l1.16,0,1.28,0c.09,0,.26,0,.26-.27s-.11-.15-.2-.15c-.33,0-.6-.14-.6-.48a1.3,1.3,0,0,1,.27-.68l1.09-1.81h3.66c0,.13,0,.24,0,.37.05.38.22,1.87.22,2.14,0,.43-.73.46-1,.46s-.32,0-.32.26.13.16.22.16l.77,0h.82c.88,0,1.51,0,1.52,0s.26,0,.26-.27-.13-.15-.34-.15c-.79,0-.81-.12-.85-.56l-.88-9c0-.29-.08-.32-.24-.32s-.23,0-.36.25Z" transform="translate(-9.44 -7.44)"/><path class="cls-2" d="M176.59,107.23A32.28,32.28,0,0,1,186,84.43l22.8,22.8" transform="translate(-9.44 -7.44)"/><path d="M194.33,95a.12.12,0,0,0-.13-.13s-.08,0-.2.14l-1,1.21a2.59,2.59,0,0,0-2.37-1.35,6.86,6.86,0,0,0-6.32,6.52,3.68,3.68,0,0,0,3.78,3.89,4.63,4.63,0,0,0,3-1.19,5,5,0,0,0,1.63-2.56c0-.13-.12-.13-.16-.13s-.14.09-.17.15a4.45,4.45,0,0,1-4,3.31,2.74,2.74,0,0,1-2.84-3A8.11,8.11,0,0,1,187.26,97a4.92,4.92,0,0,1,3.51-1.73c1.58,0,2.28,1.31,2.28,2.78,0,.37,0,.69,0,.74s.14.13.19.13.17,0,.23-.27l.9-3.66" transform="translate(-9.44 -7.44)"/><path class="cls-3" d="M86.82,30.82a32.25,32.25,0,0,0,45.6,0L109.62,8" transform="translate(-9.44 -7.44)"/><path d="M108.54,32.78h-2.25c-.16,0-.17,0-.17-.16a2.19,2.19,0,0,1,0-.31l1-4.06h2.7a1.61,1.61,0,0,1,1.7,1.7,3,3,0,0,1-3,2.84m2-4.71c1.56-.29,3-1.38,3-2.7,0-1.12-1-2-2.61-2h-4.61c-.28,0-.41,0-.41.27s.13.14.35.14c.88,0,.88.12.88.28a1.21,1.21,0,0,1-.06.33l-1.94,7.73c-.13.5-.16.64-1.16.64-.28,0-.42,0-.42.26s.08.16.37.16h4.93c2.2,0,3.89-1.67,3.89-3.12A2.18,2.18,0,0,0,110.59,28.07Zm-2.43-3.7c.13-.54.18-.57.74-.57h1.87a1.46,1.46,0,0,1,1.62,1.51,2.93,2.93,0,0,1-3,2.65h-2.07Z" transform="translate(-9.44 -7.44)"/><line class="cls-4" x1="100.18" y1="0.58" x2="77.38" y2="23.38"/><line class="cls-4" x1="0.96" y1="99.8" x2="33.21" y2="99.8"/><line class="cls-4" x1="199.39" y1="99.8" x2="167.15" y2="99.8"/><path class="cls-4" d="M111.56,32.78" transform="translate(-9.44 -7.44)"/><path class="cls-1" d="M87,30.82a32.25,32.25,0,0,0,45.6,0" transform="translate(-9.44 -7.44)"/><path class="cls-4" d="M183.83,102.23" transform="translate(-9.44 -7.44)"/><path class="cls-1" d="M176.59,107.23A32.28,32.28,0,0,1,186,84.43" transform="translate(-9.44 -7.44)"/><path class="cls-4" d="M38.41,107.23" transform="translate(-9.44 -7.44)"/><path class="cls-1" d="M42.65,107.23a32.28,32.28,0,0,0-9.44-22.8" transform="translate(-9.44 -7.44)"/></svg>