<svg id="Layer_1" data-name="Layer 1" xmlns="http://www.w3.org/2000/svg" viewBox="0 0 99.81 109.7"><defs><style>.cls-1,.cls-2{fill:none;stroke-linecap:round;stroke-miterlimit:10;stroke-width:0.6px;}.cls-1{stroke:#2caaca;stroke-dasharray:2.99 2.99;}.cls-2{stroke:#000;}</style></defs><title>CosAndSin.16</title><line class="cls-1" x1="0.3" y1="10.19" x2="99.51" y2="10.19"/><line class="cls-2" x1="49.91" y1="109.4" x2="0.3" y2="10.19"/><line class="cls-2" x1="49.91" y1="109.4" x2="99.51" y2="10.19"/><path d="M62.05,105.11H60.47c-.11,0-.12,0-.12-.11a1,1,0,0,1,0-.22l.71-2.83H63a1.12,1.12,0,0,1,1.18,1.18,2.09,2.09,0,0,1-2.11,2m1.42-3.29c1.1-.2,2.09-1,2.09-1.88s-.69-1.39-1.83-1.39H60.51c-.19,0-.28,0-.28.19s.09.1.24.1c.62,0,.62.08.62.19a.87.87,0,0,1,0,.23l-1.36,5.4c-.09.35-.11.45-.81.45-.19,0-.29,0-.29.18s.06.11.26.11h3.44A2.61,2.61,0,0,0,65,103.22,1.53,1.53,0,0,0,63.47,101.82Zm-1.69-2.59c.09-.37.13-.39.52-.39h1.3a1,1,0,0,1,1.13,1,2,2,0,0,1-2.13,1.85H61.16Z" transform="translate(-11.73 -9.42)"/><path d="M61.75,16.27c-.32,0-.67-.24-.67-1A3.89,3.89,0,0,1,61.29,14c0-.13.19-.77.23-.91s.61-1,1.29-1c.44,0,.64.44.64,1a6.92,6.92,0,0,1-.53,2.14c-.25.54-.71,1-1.17,1m.63-6.6a.66.66,0,0,0,0-.15c0-.1-.1-.1-.12-.1l-.55.05-.5,0c-.25,0-.32,0-.32.21s.11.1.21.1c.51,0,.51.09.51.19s-.08.36-.12.54l-.24,1c-.1.4-.68,2.68-.72,2.86a2.55,2.55,0,0,0-.05.55c0,1,.58,1.55,1.23,1.55,1.16,0,2.36-1.49,2.36-2.94,0-.93-.52-1.58-1.27-1.58a1.84,1.84,0,0,0-1.18.63Z" transform="translate(-11.73 -9.42)"/></svg>