<svg id="Layer_1" data-name="Layer 1" xmlns="http://www.w3.org/2000/svg" viewBox="0 0 213.22 213.49"><defs><style>.cls-1{fill:#41bfb3;stroke-width:0.4px;opacity:0.2;}.cls-1,.cls-2,.cls-3{stroke:#000;stroke-linecap:round;stroke-miterlimit:10;}.cls-2,.cls-3{fill:none;}.cls-2{stroke-width:0.8px;}.cls-3{stroke-width:0.8px;}</style></defs><title>CosAndSin.01</title><path class="cls-1" d="M5.47,202.23H44.71a39.25,39.25,0,0,0-11.49-27.75L5.47,202.23" transform="translate(-4.5 -5.03)"/><path class="cls-2" d="M44.71,202.23a39.25,39.25,0,0,0-11.49-27.75" transform="translate(-4.5 -5.03)"/><polygon class="cls-3" points="0.96 197.21 197.21 197.21 197.21 0.96 0.96 197.21"/><polyline class="cls-2" points="183.47 197.21 183.47 183.47 197.21 183.47"/><path d="M101.93,210.2a1.44,1.44,0,0,0-1.3-.95c-1.62,0-3.37,2.1-3.37,4.23,0,1.42.83,2.25,1.81,2.25a2.69,2.69,0,0,0,1.87-1.09,1.23,1.23,0,0,0,1.25,1.09,1.17,1.17,0,0,0,1-.77,7.28,7.28,0,0,0,.43-1.43.13.13,0,0,0-.14-.12c-.13,0-.15.07-.2.28-.22.85-.49,1.75-1.08,1.75-.42,0-.45-.37-.45-.66a4.07,4.07,0,0,1,.18-1c.1-.36.17-.68.28-1.1.53-2.15.66-2.67.66-2.75a.35.35,0,0,0-.37-.36c-.46,0-.57.5-.6.67m-.92,3.68a1.19,1.19,0,0,1-.27.54,2.39,2.39,0,0,1-1.63,1c-.59,0-.92-.53-.92-1.37a10.54,10.54,0,0,1,.72-3c.49-1,1.16-1.52,1.72-1.52,1,0,1.14,1.18,1.14,1.29a1.12,1.12,0,0,1-.06.23Z" transform="translate(-4.5 -5.03)"/><path d="M108.31,213.88a1.19,1.19,0,0,1-.27.54,2.39,2.39,0,0,1-1.63,1c-.59,0-.92-.53-.92-1.37a10.54,10.54,0,0,1,.72-3c.49-1,1.16-1.52,1.72-1.52.95,0,1.14,1.18,1.14,1.29a1.12,1.12,0,0,1-.06.23l-.7,2.82m2.9-7.9a1.43,1.43,0,0,0,0-.22c0-.14-.14-.14-.17-.14l-.79.07-.72.06c-.36,0-.46,0-.46.3s.12.14.32.14c.7,0,.72.13.72.28a.72.72,0,0,1-.05.24l-.87,3.49a1.44,1.44,0,0,0-1.3-.95c-1.62,0-3.37,2.1-3.37,4.23,0,1.42.83,2.25,1.81,2.25a2.69,2.69,0,0,0,1.87-1.09,1.23,1.23,0,0,0,1.25,1.09,1.17,1.17,0,0,0,1-.77,7.28,7.28,0,0,0,.43-1.43.13.13,0,0,0-.14-.12c-.13,0-.15.07-.2.28-.22.85-.49,1.75-1.08,1.75-.42,0-.45-.37-.45-.66a3.22,3.22,0,0,1,.1-.76Z" transform="translate(-4.5 -5.03)"/><path d="M115.4,206.62a.46.46,0,0,0-.47-.47.75.75,0,0,0-.72.69.47.47,0,0,0,.49.47.74.74,0,0,0,.7-.69m-.59,4.41a1.84,1.84,0,0,0,.06-.48,1.24,1.24,0,0,0-1.26-1.3c-1.46,0-2.23,2.1-2.23,2.2a.13.13,0,0,0,.14.13c.12,0,.13-.06.2-.2.58-1.39,1.3-1.84,1.84-1.84.3,0,.46.16.46.66a2.67,2.67,0,0,1-.1.75l-1.36,5.41c-.28,1.07-1,1.87-1.74,1.87a1.43,1.43,0,0,1-.63-.14.73.73,0,0,0,.61-.69.46.46,0,0,0-.49-.46.74.74,0,0,0-.71.75c0,.58.63.83,1.22.83a2.86,2.86,0,0,0,2.66-2.17Z" transform="translate(-4.5 -5.03)"/><path d="M121.63,210.2a1.44,1.44,0,0,0-1.3-.95c-1.62,0-3.37,2.1-3.37,4.23,0,1.42.83,2.25,1.81,2.25a2.69,2.69,0,0,0,1.87-1.09,1.23,1.23,0,0,0,1.25,1.09,1.17,1.17,0,0,0,1-.77,7.28,7.28,0,0,0,.43-1.43.13.13,0,0,0-.14-.12c-.13,0-.15.07-.2.28-.22.85-.49,1.75-1.08,1.75-.42,0-.45-.37-.45-.66a4.07,4.07,0,0,1,.18-1c.1-.36.17-.68.28-1.1.53-2.15.66-2.67.66-2.75a.35.35,0,0,0-.37-.36c-.46,0-.57.5-.6.67m-.92,3.68a1.19,1.19,0,0,1-.27.54,2.39,2.39,0,0,1-1.63,1c-.59,0-.92-.53-.92-1.37a10.54,10.54,0,0,1,.72-3c.49-1,1.16-1.52,1.72-1.52,1,0,1.14,1.18,1.14,1.29a1.12,1.12,0,0,1-.06.23Z" transform="translate(-4.5 -5.03)"/><path d="M129.4,210.19a.74.74,0,0,0-.6.17.75.75,0,0,0-.25.52.46.46,0,0,0,.49.46.78.78,0,0,0,.73-.87c0-.68-.66-1.22-1.65-1.22a4.25,4.25,0,0,0-3.76,4.1,2.21,2.21,0,0,0,2.24,2.38,3.81,3.81,0,0,0,3.19-1.71.17.17,0,0,0-.15-.15s0,0-.18.14a3.68,3.68,0,0,1-2.83,1.43c-1,0-1.31-.86-1.31-1.57a7.63,7.63,0,0,1,.76-2.88,2.64,2.64,0,0,1,2.06-1.45,1.39,1.39,0,0,1,1.26.65" transform="translate(-4.5 -5.03)"/><path d="M131.66,212c.62-2.21,2-2.43,2.45-2.43a1,1,0,0,1,1.06.92c0,1.51-2.3,1.51-2.9,1.51h-.61m.7.29a6.61,6.61,0,0,0,2-.29,1.64,1.64,0,0,0,1.19-1.51c0-.63-.54-1.21-1.49-1.21a3.89,3.89,0,0,0-3.68,3.92c0,1.51.86,2.56,2.17,2.56a3.81,3.81,0,0,0,3.19-1.71.17.17,0,0,0-.15-.15s0,0-.18.14a3.68,3.68,0,0,1-2.83,1.43c-.82,0-1.25-.64-1.25-1.7a5.93,5.93,0,0,1,.21-1.48Z" transform="translate(-4.5 -5.03)"/><path d="M139.24,211.38a3.94,3.94,0,0,1,.92-1.26,2.08,2.08,0,0,1,1.43-.58c.57,0,.77.43.77,1a12.92,12.92,0,0,1-.88,3.23,2.08,2.08,0,0,0-.2.79,1.11,1.11,0,0,0,1.14,1.16c1.33,0,1.84-2.11,1.84-2.2s-.06-.12-.15-.12-.14,0-.21.28c-.33,1.18-.88,1.75-1.44,1.75-.14,0-.37,0-.37-.47a3,3,0,0,1,.24-1,13,13,0,0,0,.89-3.22,1.42,1.42,0,0,0-1.59-1.51,2.71,2.71,0,0,0-2.22,1.27,1.25,1.25,0,0,0-1.26-1.27,1.14,1.14,0,0,0-1,.77,6.44,6.44,0,0,0-.46,1.43.15.15,0,0,0,.16.13c.11,0,.13,0,.21-.34.23-.88.49-1.7,1.07-1.7.33,0,.44.23.44.66a7.77,7.77,0,0,1-.24,1.32l-.4,1.55c-.06.28-.22.92-.29,1.18s-.26,1.05-.26,1.12a.36.36,0,0,0,.38.36.53.53,0,0,0,.48-.3c0-.07.16-.57.23-.86l.32-1.29.47-1.9" transform="translate(-4.5 -5.03)"/><path d="M147.57,209.81h1.32c.28,0,.42,0,.42-.25s-.09-.16-.37-.16h-1.27l.53-2.1a.87.87,0,0,0,.06-.33.36.36,0,0,0-.37-.36.57.57,0,0,0-.56.5l-.56,2.29h-1.35c-.29,0-.42,0-.42.27s.1.14.37.14h1.28l-1,3.8a4.1,4.1,0,0,0-.15.83,1.24,1.24,0,0,0,1.27,1.29c1.46,0,2.23-2.09,2.23-2.2s-.06-.12-.14-.12a.13.13,0,0,0-.12.05,1.38,1.38,0,0,0-.13.26c-.3.72-1,1.72-1.79,1.72-.43,0-.46-.35-.46-.67a2.55,2.55,0,0,1,0-.46l1.12-4.5" transform="translate(-4.5 -5.03)"/><path d="M208.43,81.59c0-.72.57-1.25,1.58-1.25a7.8,7.8,0,0,1,2.84.75,2.51,2.51,0,0,1,1.48,2c0,.7-.57,1.25-1.58,1.25a7.41,7.41,0,0,1-3-.85,2.46,2.46,0,0,1-1.33-1.94m3.8,3.75a2.21,2.21,0,0,0,2.39-2.2c0-1.89-2.07-3.76-4.1-3.76a2.21,2.21,0,0,0-2.38,2.2A4.23,4.23,0,0,0,212.23,85.34Z" transform="translate(-4.5 -5.03)"/><path d="M212.77,88.69a2.4,2.4,0,0,1,1,.73,2,2,0,0,1,.54,1.18c0,.63-.63.92-1.38.92a10,10,0,0,1-3.06-.76c-.77-.36-1.46-1-1.46-1.68,0-1,1.23-1.14,1.29-1.14l.23,0,2.82.7m-6.31-2.48c-.43-.1-.55-.16-.55-.75,0-.17,0-.32-.27-.32,0,0-.14,0-.14.18s0,.38,0,.57v.62c0,.3,0,1,0,1.33,0,.09,0,.26.26.26s.15-.1.15-.34c0-.66.1-.7.22-.7s2.64.64,3,.73a1.38,1.38,0,0,0-1,1.29c0,1.62,2.11,3.38,4.22,3.38,1.33,0,2.26-.75,2.26-1.83a2.76,2.76,0,0,0-1.09-1.85,1.25,1.25,0,0,0,1.09-1.25,1.09,1.09,0,0,0-.75-1,6.66,6.66,0,0,0-1.45-.46.15.15,0,0,0-.13.16c0,.11,0,.13.35.21.84.22,1.69.49,1.69,1.07,0,.33-.23.44-.66.44a2.72,2.72,0,0,1-.75-.1Z" transform="translate(-4.5 -5.03)"/><path d="M212.77,95.69a2.4,2.4,0,0,1,1,.73,2,2,0,0,1,.54,1.18c0,.63-.63.92-1.38.92a10,10,0,0,1-3.06-.76c-.77-.36-1.46-1-1.46-1.68,0-1,1.23-1.14,1.29-1.14l.23,0,2.82.7m-6.31-2.48c-.43-.1-.55-.16-.55-.75,0-.17,0-.32-.27-.32,0,0-.14,0-.14.18s0,.38,0,.57v.62c0,.3,0,1,0,1.33,0,.09,0,.26.26.26s.15-.1.15-.34c0-.66.1-.7.22-.7s2.64.64,3,.73a1.38,1.38,0,0,0-1,1.29c0,1.62,2.11,3.38,4.22,3.38,1.33,0,2.26-.75,2.26-1.83a2.76,2.76,0,0,0-1.09-1.85,1.25,1.25,0,0,0,1.09-1.25,1.09,1.09,0,0,0-.75-1,6.66,6.66,0,0,0-1.45-.46.15.15,0,0,0-.13.16c0,.11,0,.13.35.21.84.22,1.69.49,1.69,1.07,0,.33-.23.44-.66.44a2.72,2.72,0,0,1-.75-.1Z" transform="translate(-4.5 -5.03)"/><path d="M208.43,102.49c0-.72.57-1.25,1.58-1.25a7.8,7.8,0,0,1,2.84.75,2.51,2.51,0,0,1,1.48,2c0,.7-.57,1.25-1.58,1.25a7.41,7.41,0,0,1-3-.85,2.46,2.46,0,0,1-1.33-1.94m3.8,3.75a2.21,2.21,0,0,0,2.39-2.2c0-1.9-2.07-3.76-4.1-3.76a2.21,2.21,0,0,0-2.38,2.2A4.23,4.23,0,0,0,212.23,106.24Z" transform="translate(-4.5 -5.03)"/><path d="M211.16,109.66c0,.25-.13.64-.15.72a1,1,0,0,1-1,.84,1.82,1.82,0,0,1-1.61-2.07c0-.31,0-1.38.83-1.67a.72.72,0,0,0,.69.86.44.44,0,0,0,.46-.48.79.79,0,0,0-.89-.74c-.85,0-1.38.86-1.38,2A2.56,2.56,0,0,0,210.5,112a1.37,1.37,0,0,0,1.07-.46,2.56,2.56,0,0,0,.58-1.48c.08-.38.21-1,.86-1a1.45,1.45,0,0,1,1.32,1.62,1.29,1.29,0,0,1-.74,1.34.6.6,0,0,0-.57-.66.38.38,0,0,0-.38.4c0,.2.15.6.76.6s1.22-.54,1.22-1.66a2.21,2.21,0,0,0-2.07-2.39c-1.09,0-1.32,1.06-1.39,1.39" transform="translate(-4.5 -5.03)"/><path d="M217.25,116.94a.48.48,0,0,0,.47-.49.74.74,0,0,0-.69-.7.46.46,0,0,0-.47.47.75.75,0,0,0,.69.72m-6.91.12a.14.14,0,0,0,.13-.15c0-.13-.05-.14-.29-.22-1.31-.37-1.75-1-1.75-1.43,0-.17,0-.37.47-.37a3.87,3.87,0,0,1,1.25.33l2.67,1a2,2,0,0,0,.65.15,1.12,1.12,0,0,0,1.15-1.14c0-1.32-2.08-1.85-2.2-1.85a.14.14,0,0,0-.13.15c0,.13.06.15.26.21,1.21.34,1.78.89,1.78,1.45,0,.13,0,.37-.47.37a4,4,0,0,1-1.17-.3l-2.67-1a2.17,2.17,0,0,0-.72-.17,1.11,1.11,0,0,0-1.16,1.14C208.14,116.54,210.24,117.06,210.34,117.06Z" transform="translate(-4.5 -5.03)"/><path d="M214.06,120.68V122c0,.27,0,.41.26.41s.16-.08.16-.37v-1.26l2.09.53a.87.87,0,0,0,.33.06.36.36,0,0,0,.36-.38.58.58,0,0,0-.5-.56l-2.28-.56v-1.35c0-.29,0-.41-.28-.41s-.14.1-.14.37v1.28l-3.79-1a3.85,3.85,0,0,0-.84-.16,1.25,1.25,0,0,0-1.29,1.28c0,1.45,2.1,2.23,2.2,2.23a.13.13,0,0,0,.13-.15.11.11,0,0,0-.06-.11s0,0-.26-.13c-.72-.3-1.72-1-1.72-1.8,0-.43.36-.46.67-.46a2,2,0,0,1,.46,0l4.5,1.12" transform="translate(-4.5 -5.03)"/><path d="M211.9,124.77c2.22.62,2.43,2,2.43,2.44a1,1,0,0,1-.92,1.07c-1.51,0-1.51-2.3-1.51-2.91v-.6m-.28.69a6.52,6.52,0,0,0,.28,2.05,1.64,1.64,0,0,0,1.51,1.2c.63,0,1.21-.55,1.21-1.5a3.88,3.88,0,0,0-3.92-3.67c-1.51,0-2.56.86-2.56,2.16a3.79,3.79,0,0,0,1.71,3.19.16.16,0,0,0,.16-.14s0-.06-.15-.19a3.66,3.66,0,0,1-1.43-2.83c0-.82.64-1.25,1.71-1.25a5.78,5.78,0,0,1,1.48.22Z" transform="translate(-4.5 -5.03)"/><path d="M75.37,108.21a.94.94,0,0,0-.12-.18.14.14,0,0,0-.22,0s-.47.54-.51.6-.29.36-.46.54-.3.36-.11.54.18,0,.32-.12c.49-.5.59-.42.7-.31a.92.92,0,0,1,.14.2l4.38,7.3a1,1,0,0,0,.19.27.34.34,0,0,0,.53,0,.58.58,0,0,0,.11-.59L79,114.19c-.17-.27-.32-.55-.49-.82a2.23,2.23,0,0,1-.43-1,2.48,2.48,0,0,1,.53-2.32c.4-.4.85-.24,1.25.16a13,13,0,0,1,1.65,2.89,2.09,2.09,0,0,0,.42.7,1.1,1.1,0,0,0,1.61,0c.94-.94-.19-2.78-.25-2.84a.13.13,0,0,0-.19,0c-.09.09-.07.13,0,.35.57,1,.62,1.84.22,2.24-.1.1-.27.26-.6-.07a3.08,3.08,0,0,1-.53-.86,12.62,12.62,0,0,0-1.63-2.89,1.4,1.4,0,0,0-2.17.06,2.64,2.64,0,0,0-.7,2.29l-2.32-3.87" transform="translate(-4.5 -5.03)"/><path d="M88.77,110.47a2.09,2.09,0,0,1-.44,1.88,1.06,1.06,0,0,1-1.24.27.53.53,0,0,0,.11-.09.72.72,0,0,0,0-1,.43.43,0,0,0-.65,0,.76.76,0,0,0,.1,1.12,1.28,1.28,0,0,0,1.87-.13,3.78,3.78,0,0,0,.27-4.37l-3-4.92a1.21,1.21,0,0,0-.14-.2.36.36,0,0,0-.52,0,.56.56,0,0,0,0,.73l2.22,3.71a1,1,0,0,1,.18.44,1.8,1.8,0,0,1-.39,1.65c-.56.56-1.17.06-1.44-.21a9.8,9.8,0,0,1-1.53-2.63,2.58,2.58,0,0,0-.47-.8,1.09,1.09,0,0,0-1.6,0c-.93.92.16,2.76.24,2.84a.14.14,0,0,0,.2,0c.09-.09.06-.14,0-.32-.6-1.09-.62-1.88-.23-2.27.09-.09.26-.26.6.07a3.84,3.84,0,0,1,.67,1.2,7.13,7.13,0,0,0,1.4,2.39,1.53,1.53,0,0,0,2.37,0,1.88,1.88,0,0,0,.55-1.47h0a5.43,5.43,0,0,1,.88,2.09" transform="translate(-4.5 -5.03)"/><path d="M89.21,101.46a2.38,2.38,0,0,1-.2-1.23A1.88,1.88,0,0,1,89.46,99c.44-.44,1.09-.2,1.61.32A10,10,0,0,1,92.69,102a2.23,2.23,0,0,1-.16,2.21c-.68.68-1.66-.07-1.7-.12a2,2,0,0,1-.13-.19l-1.49-2.47m2.69,6.18c.23.37.27.49-.14.9-.12.13-.22.23,0,.42a.15.15,0,0,0,.22,0c.13-.13.25-.3.38-.43l.43-.43,1-.92a.21.21,0,0,0,0-.36c-.11-.11-.18,0-.35.13-.46.46-.56.43-.65.34s-1.4-2.31-1.57-2.6a1.41,1.41,0,0,0,1.59-.23c1.14-1.14.88-3.85-.6-5.34a2,2,0,0,0-2.86-.3,2.74,2.74,0,0,0-.54,2.07,1.22,1.22,0,0,0-1.64.11,1.06,1.06,0,0,0-.19,1.24,6.81,6.81,0,0,0,.69,1.34.14.14,0,0,0,.2,0c.08-.08.08-.1-.09-.39-.44-.75-.85-1.54-.44-1.94.23-.23.47-.15.77.15a2.75,2.75,0,0,1,.46.6Z" transform="translate(-4.5 -5.03)"/><path d="M97.05,99.72c-.51.5-1.28.47-2-.23A7.76,7.76,0,0,1,93.59,97,2.52,2.52,0,0,1,94,94.5c.5-.5,1.28-.48,2,.23a7.18,7.18,0,0,1,1.5,2.69,2.43,2.43,0,0,1-.42,2.3m0-5.3a2.2,2.2,0,0,0-3.22-.14A4.22,4.22,0,0,0,94,99.8a2.2,2.2,0,0,0,3.22.13A4.2,4.2,0,0,0,97,94.42Z" transform="translate(-4.5 -5.03)"/><path d="M98,91l.92-.93c.2-.19.3-.29.12-.47s-.18,0-.38.15l-.88.88-1.1-1.84a1.07,1.07,0,0,0-.2-.27.34.34,0,0,0-.51,0,.59.59,0,0,0,0,.75l1.21,2-.95,1c-.2.2-.29.29-.1.48s.17,0,.36-.16l.9-.9,2,3.33a4.26,4.26,0,0,0,.47.7,1.25,1.25,0,0,0,1.81,0c1-1,.09-3,0-3.11a.12.12,0,0,0-.19,0,.11.11,0,0,0,0,.12s0,0,.09.27c.29.72.53,1.89-.06,2.47-.3.31-.57.07-.79-.15a2.32,2.32,0,0,1-.29-.35L98,91" transform="translate(-4.5 -5.03)"/><path d="M102.26,89.62c-1.12-2-.31-3.09,0-3.41a.93.93,0,0,1,1.39-.1c1.06,1-.55,2.67-1,3.09l-.43.42m.69-.28a6.61,6.61,0,0,0,1.24-1.64,1.65,1.65,0,0,0-.22-1.9,1.32,1.32,0,0,0-1.9.21,3.85,3.85,0,0,0,.17,5.33,2.25,2.25,0,0,0,3.32.27,3.79,3.79,0,0,0,1-3.44.17.17,0,0,0-.21,0s0,0,0,.23a3.66,3.66,0,0,1-1,3c-.58.58-1.33.42-2.08-.32a6.31,6.31,0,0,1-.89-1.19Z" transform="translate(-4.5 -5.03)"/><path d="M107.21,83.86a4,4,0,0,1-.25-1.54,2.09,2.09,0,0,1,.6-1.4c.4-.4.85-.24,1.25.16A12.67,12.67,0,0,1,110.46,84a2.1,2.1,0,0,0,.42.69,1.09,1.09,0,0,0,1.61,0c.94-.93-.19-2.77-.25-2.83a.13.13,0,0,0-.19,0c-.09.09-.07.13,0,.35.59,1.06.61,1.85.22,2.24-.1.1-.27.25-.6-.07a2.84,2.84,0,0,1-.52-.87,13.08,13.08,0,0,0-1.63-2.88,1.41,1.41,0,0,0-2.18.06,2.68,2.68,0,0,0-.67,2.44,1.24,1.24,0,0,0-1.77,0,1.11,1.11,0,0,0-.19,1.25,7.22,7.22,0,0,0,.69,1.33.14.14,0,0,0,.2,0c.08-.08.08-.1-.09-.39-.45-.78-.85-1.54-.44-1.94.23-.23.47-.15.77.15a7.18,7.18,0,0,1,.76,1.1l.81,1.37c.15.24.49.8.62,1s.56.92.61,1a.35.35,0,0,0,.51,0,.52.52,0,0,0,.13-.55c0-.07-.29-.52-.44-.77l-.68-1.13-1-1.66" transform="translate(-4.5 -5.03)"/><path d="M116.94,79a1.21,1.21,0,0,0,1.54-.18,1.14,1.14,0,0,0,.17-1.28,7.21,7.21,0,0,0-.68-1.29.13.13,0,0,0-.19,0c-.09.09-.06.15.06.34.51.88.86,1.6.46,2s-.64,0-.77-.16a3.87,3.87,0,0,1-.62-.89c-.2-.34-.4-.68-.63-1l-1.23-2a1.67,1.67,0,0,0-.23-.38.36.36,0,0,0-.52,0c-.3.29-.12.62.08.93.29.5,1.91,3.21,2.19,3.63a2.1,2.1,0,0,1-.31,2c-.52.52-1.08.17-1.45-.2a9.62,9.62,0,0,1-1.51-2.6,2.39,2.39,0,0,0-.49-.83,1.09,1.09,0,0,0-1.6,0c-.93.92.16,2.76.24,2.84a.14.14,0,0,0,.2,0c.09-.09.06-.14,0-.32-.62-1.11-.61-1.89-.23-2.27.1-.1.27-.25.6.07a3.84,3.84,0,0,1,.67,1.2A7.86,7.86,0,0,0,114,80.85a1.54,1.54,0,0,0,2.38,0,2.15,2.15,0,0,0,.52-1.88" transform="translate(-4.5 -5.03)"/><path d="M120,73l.6-.4a1.06,1.06,0,0,1,1.27.1,1.79,1.79,0,0,1-.32,2.58c-.21.21-1,.94-1.76.59a.72.72,0,0,0,.13-1.09.44.44,0,0,0-.67,0,.78.78,0,0,0,.11,1.14c.6.59,1.58.36,2.38-.45a2.54,2.54,0,0,0,.33-3.64,1.36,1.36,0,0,0-1.08-.43,2.6,2.6,0,0,0-1.44.63c-.33.22-.86.56-1.31.1a1.44,1.44,0,0,1,.21-2.06,1.28,1.28,0,0,1,1.47-.42.6.6,0,0,0-.08.86.4.4,0,0,0,.56,0,.66.66,0,0,0-.11-1c-.42-.42-1.24-.47-2,.31A2.2,2.2,0,0,0,118,73a1.49,1.49,0,0,0,2,0" transform="translate(-4.5 -5.03)"/><path d="M123.16,68.72c-1.12-2-.31-3.09,0-3.41a.94.94,0,0,1,1.39-.11c1.06,1.06-.55,2.68-1,3.1l-.43.42m.69-.28a6.61,6.61,0,0,0,1.24-1.64,1.65,1.65,0,0,0-.22-1.9,1.32,1.32,0,0,0-1.9.21,3.85,3.85,0,0,0,.17,5.33,2.25,2.25,0,0,0,3.32.27,3.79,3.79,0,0,0,1-3.44.17.17,0,0,0-.21,0s0,0,0,.24a3.65,3.65,0,0,1-1,3c-.58.58-1.33.42-2.08-.32a6.31,6.31,0,0,1-.89-1.19Z" transform="translate(-4.5 -5.03)"/><path d="M31.43,192a12.48,12.48,0,0,1-1.18,3.22c-.42.73-.92,1.4-1.53,1.4-.44,0-.8-.34-.8-1.76a12.44,12.44,0,0,1,.46-2.86h3.05m-2.94-.43a12.65,12.65,0,0,1,1.1-3.08c.47-.86,1-1.55,1.61-1.55.47,0,.79.41.79,1.78a11,11,0,0,1-.46,2.85Zm4.36-2c0-1.46-.46-2.89-1.64-2.89-2,0-4.15,4.21-4.15,7.38,0,.66.14,2.88,1.65,2.88C30.66,196.93,32.85,192.82,32.85,189.56Z" transform="translate(-4.5 -5.03)"/></svg>