<svg id="Layer_1" data-name="Layer 1" xmlns="http://www.w3.org/2000/svg" viewBox="0 0 355.38 356.37"><defs><style>.cls-1,.cls-3,.cls-4,.cls-5,.cls-6{fill:none;stroke-linecap:round;stroke-miterlimit:10;}.cls-1,.cls-3,.cls-4{stroke:#000;}.cls-1,.cls-5,.cls-6{stroke-width:0.8px;}.cls-2{fill:#fff;}.cls-3{stroke-width:0.8px;}.cls-4{stroke-width:0.4px;}.cls-5{stroke:#2caaca;}.cls-5,.cls-6{stroke-dasharray:2.99 2.99;}.cls-6{stroke:#ec6d5f;}</style></defs><title>CosAndSin.11</title><line class="cls-1" x1="0.4" y1="185.89" x2="336.97" y2="185.89"/><path d="M358.41,192.69a14.38,14.38,0,0,1-4-1.5v3a14.66,14.66,0,0,1,4-1.49" transform="translate(-17.85 -6.8)"/><rect class="cls-2" x="340.76" y="179.48" width="14.62" height="12.82"/><path d="M368.71,189.94a.72.72,0,0,0-.63.7.44.44,0,0,0,.47.46.75.75,0,0,0,.73-.76c0-.6-.69-.88-1.29-.88a1.83,1.83,0,0,0-1.49,1.14,1.49,1.49,0,0,0-1.48-1.14c-1.47,0-2.24,1.89-2.24,2.2a.14.14,0,0,0,.15.13c.12,0,.15-.08.18-.14.49-1.6,1.45-1.9,1.87-1.9.64,0,.77.6.77.95a6.16,6.16,0,0,1-.26,1.34l-.49,2c-.21.86-.63,1.65-1.39,1.65a1.42,1.42,0,0,1-.73-.19.75.75,0,0,0,.63-.7.45.45,0,0,0-.49-.46.75.75,0,0,0-.72.76c0,.6.68.87,1.3.87a1.77,1.77,0,0,0,1.47-1.13,1.5,1.5,0,0,0,1.48,1.13c1.47,0,2.25-1.88,2.25-2.19a.13.13,0,0,0-.15-.13c-.13,0-.14.07-.18.18-.39,1.27-1.23,1.86-1.87,1.86s-.78-.38-.78-1a6.63,6.63,0,0,1,.29-1.49l.5-1.95c.22-.87.71-1.5,1.37-1.5a1.53,1.53,0,0,1,.73.19" transform="translate(-17.85 -6.8)"/><line class="cls-1" x1="170.48" y1="355.97" x2="170.48" y2="19.39"/><path d="M188.33,22.61a14.33,14.33,0,0,1-1.5,4h3a14,14,0,0,1-1.49-4" transform="translate(-17.85 -6.8)"/><rect class="cls-2" x="163.48" width="14.01" height="15.61"/><path d="M188.38,17.91a2.12,2.12,0,0,1-1.65,1,1.07,1.07,0,0,1-1.08-.69.36.36,0,0,0,.14,0,.73.73,0,0,0,.72-.71.44.44,0,0,0-.49-.44.78.78,0,0,0-.73.88,1.3,1.3,0,0,0,1.44,1.23A3.79,3.79,0,0,0,190,16.31l1.4-5.6a.93.93,0,0,0,.05-.24.37.37,0,0,0-.39-.36.58.58,0,0,0-.55.49l-1.06,4.22a.94.94,0,0,1-.19.45,1.85,1.85,0,0,1-1.45.89c-.8,0-.87-.79-.87-1.18a9.62,9.62,0,0,1,.77-3,2.46,2.46,0,0,0,.25-.91A1.12,1.12,0,0,0,186.84,10c-1.32,0-1.85,2.09-1.85,2.2a.14.14,0,0,0,.15.13c.13,0,.15-.06.21-.26.34-1.2.89-1.78,1.45-1.78.13,0,.37,0,.37.48a4,4,0,0,1-.37,1.33,7.12,7.12,0,0,0-.71,2.7,1.55,1.55,0,0,0,1.7,1.68,1.9,1.9,0,0,0,1.43-.66l0,0a5.54,5.54,0,0,1-.86,2.11" transform="translate(-17.85 -6.8)"/><circle class="cls-3" cx="188.33" cy="192.69" r="113.39" transform="translate(-98.94 182.8) rotate(-45)"/><line class="cls-4" x1="113.79" y1="183.89" x2="113.79" y2="187.88"/><line class="cls-4" x1="227.17" y1="183.89" x2="227.17" y2="187.88"/><line class="cls-4" x1="68.43" y1="185.09" x2="68.43" y2="186.68"/><line class="cls-4" x1="79.77" y1="185.09" x2="79.77" y2="186.68"/><line class="cls-4" x1="91.11" y1="185.09" x2="91.11" y2="186.68"/><line class="cls-4" x1="102.45" y1="185.09" x2="102.45" y2="186.68"/><line class="cls-4" x1="125.13" y1="185.09" x2="125.13" y2="186.68"/><line class="cls-4" x1="136.46" y1="185.09" x2="136.46" y2="186.68"/><line class="cls-4" x1="147.8" y1="185.09" x2="147.8" y2="186.68"/><line class="cls-4" x1="159.14" y1="185.09" x2="159.14" y2="186.68"/><line class="cls-4" x1="272.53" y1="185.09" x2="272.53" y2="186.68"/><line class="cls-4" x1="261.19" y1="185.09" x2="261.19" y2="186.68"/><line class="cls-4" x1="249.85" y1="185.09" x2="249.85" y2="186.68"/><line class="cls-4" x1="238.51" y1="185.09" x2="238.51" y2="186.68"/><line class="cls-4" x1="215.83" y1="185.09" x2="215.83" y2="186.68"/><line class="cls-4" x1="204.5" y1="185.09" x2="204.5" y2="186.68"/><line class="cls-4" x1="193.16" y1="185.09" x2="193.16" y2="186.68"/><line class="cls-4" x1="181.82" y1="185.09" x2="181.82" y2="186.68"/><line class="cls-4" x1="172.47" y1="242.58" x2="168.49" y2="242.58"/><line class="cls-4" x1="172.47" y1="129.19" x2="168.49" y2="129.19"/><line class="cls-4" x1="171.28" y1="287.94" x2="169.68" y2="287.94"/><line class="cls-4" x1="171.28" y1="276.6" x2="169.68" y2="276.6"/><line class="cls-4" x1="171.28" y1="265.26" x2="169.68" y2="265.26"/><line class="cls-4" x1="171.28" y1="253.92" x2="169.68" y2="253.92"/><line class="cls-4" x1="171.28" y1="231.24" x2="169.68" y2="231.24"/><line class="cls-4" x1="171.28" y1="219.9" x2="169.68" y2="219.9"/><line class="cls-4" x1="171.28" y1="208.56" x2="169.68" y2="208.56"/><line class="cls-4" x1="171.28" y1="197.23" x2="169.68" y2="197.23"/><line class="cls-4" x1="171.28" y1="83.84" x2="169.68" y2="83.84"/><line class="cls-4" x1="171.28" y1="95.18" x2="169.68" y2="95.18"/><line class="cls-4" x1="171.28" y1="106.52" x2="169.68" y2="106.52"/><line class="cls-4" x1="171.28" y1="117.85" x2="169.68" y2="117.85"/><line class="cls-4" x1="171.28" y1="140.53" x2="169.68" y2="140.53"/><line class="cls-4" x1="171.28" y1="151.87" x2="169.68" y2="151.87"/><line class="cls-4" x1="171.28" y1="163.21" x2="169.68" y2="163.21"/><line class="cls-4" x1="171.28" y1="174.55" x2="169.68" y2="174.55"/><line class="cls-5" x1="268.68" y1="129.19" x2="170.48" y2="129.19"/><line class="cls-6" x1="72.28" y1="129.19" x2="170.48" y2="129.19"/><line class="cls-1" x1="170.48" y1="185.89" x2="268.68" y2="129.19"/><path d="M288.12,136a1.6,1.6,0,1,0-1.6,1.59A1.6,1.6,0,0,0,288.12,136Z" transform="translate(-17.85 -6.8)"/><path class="cls-4" d="M288.12,136a1.6,1.6,0,1,0-1.6,1.59A1.6,1.6,0,0,0,288.12,136Z" transform="translate(-17.85 -6.8)"/><line class="cls-1" x1="170.48" y1="185.89" x2="72.28" y2="129.19"/><path d="M91.72,136a1.59,1.59,0,1,0-1.59,1.59A1.59,1.59,0,0,0,91.72,136Z" transform="translate(-17.85 -6.8)"/><path class="cls-4" d="M91.72,136a1.59,1.59,0,1,0-1.59,1.59A1.59,1.59,0,0,0,91.72,136Z" transform="translate(-17.85 -6.8)"/><path d="M221.63,185.28a1.86,1.86,0,0,1-1.88-2,3.88,3.88,0,0,1,3.38-3.95l-1.5,5.94m1.81-6a1.86,1.86,0,0,1,1.9,2,3.9,3.9,0,0,1-3.38,4Zm.94-3.76c0-.13-.1-.13-.15-.13s-.14,0-.2.27l-.77,3.09c0,.19-.06.2-.08.22s-.11,0-.14,0c-2.35.2-4.16,2.14-4.16,3.94a2.6,2.6,0,0,0,2.68,2.58c-.11.45-.22.91-.33,1.35-.2.76-.31,1.24-.31,1.3s0,.11.14.11a.13.13,0,0,0,.13-.06s.11-.37.17-.56l.53-2.14c2.46-.13,4.33-2.14,4.33-3.95a2.62,2.62,0,0,0-2.69-2.58Z" transform="translate(-17.85 -6.8)"/><path class="cls-1" d="M211,192.69a23.65,23.65,0,0,0-1.64-8.93" transform="translate(-17.85 -6.8)"/><path d="M208,181.35a11.32,11.32,0,0,1,.55,3.26l2-1.16a11.24,11.24,0,0,1-2.56-2.1" transform="translate(-17.85 -6.8)"/><polyline class="cls-1" points="187.49 185.89 187.38 184.04 187.08 182.21 186.58 180.42 185.89 178.7 185.02 177.06 183.97 175.53 182.76 174.13 181.41 172.86 179.93 171.75 178.33 170.8 176.64 170.04 174.88 169.46 173.07 169.08 171.22 168.9 169.37 168.92 167.53 169.14 165.72 169.56 163.97 170.18 162.3 170.98 160.72 171.96 159.27 173.1 157.94 174.4 156.76 175.83 157.27 175.05"/><path d="M173.6,184.18a11.31,11.31,0,0,1,2.66-2L174.32,181a11.4,11.4,0,0,1-.72,3.22" transform="translate(-17.85 -6.8)"/><rect class="cls-2" x="140.96" y="140.47" width="59.04" height="19.39"/><path d="M166.24,151.39c0-.33,0-.34-.29-.34a3.22,3.22,0,0,1-2.54.92v.41a4.12,4.12,0,0,0,1.83-.37v7.48c0,.52,0,.69-1.3.69h-.45v.42c.39,0,1.78,0,2.26,0s1.85,0,2.24,0v-.42h-.45c-1.26,0-1.3-.17-1.3-.69v-8.1" transform="translate(-17.85 -6.8)"/><path d="M172.2,156l1.74,1.13a1.88,1.88,0,0,1,1,1.57,2.08,2.08,0,0,1-2.25,1.83,2.18,2.18,0,0,1-2.27-2.08A2.83,2.83,0,0,1,172.2,156m-.67-1.86a1.48,1.48,0,0,1-.76-1.21c0-.93,1-1.52,1.93-1.52a1.87,1.87,0,0,1,2,1.78,2.44,2.44,0,0,1-1.47,2Zm1.95,1.29a2.73,2.73,0,0,0,1.77-2.25,2.34,2.34,0,0,0-2.53-2.11,2.44,2.44,0,0,0-2.54,2.35,2.24,2.24,0,0,0,.54,1.47,5.42,5.42,0,0,0,1.18.9,3.09,3.09,0,0,0-2.11,2.66,2.7,2.7,0,0,0,2.91,2.47,2.82,2.82,0,0,0,2.94-2.68C175.64,156.75,174.6,156.1,173.48,155.41Z" transform="translate(-17.85 -6.8)"/><path d="M179.7,160.61c-.46,0-1.39-.25-1.66-1.82a17.46,17.46,0,0,1-.16-3,12.58,12.58,0,0,1,.23-3.09,1.72,1.72,0,0,1,1.59-1.41,1.75,1.75,0,0,1,1.66,1.57,15.17,15.17,0,0,1,.18,2.93,18.67,18.67,0,0,1-.15,2.93c-.28,1.58-1.18,1.85-1.69,1.85m2.94-4.61a8,8,0,0,0-.59-3.45,2.57,2.57,0,0,0-4.72.11,7.62,7.62,0,0,0-.54,3.34,7.24,7.24,0,0,0,.62,3.47,2.55,2.55,0,0,0,2.29,1.43,2.57,2.57,0,0,0,2.39-1.58A8,8,0,0,0,182.64,156Z" transform="translate(-17.85 -6.8)"/><path d="M185.68,154.25a1.53,1.53,0,1,1,1.53-1.53,1.54,1.54,0,0,1-1.53,1.53m1.93-1.53a1.93,1.93,0,1,0-1.93,1.92A1.94,1.94,0,0,0,187.61,152.72Z" transform="translate(-17.85 -6.8)"/><path d="M201.37,157.3c.24,0,.5,0,.5-.29s-.26-.29-.5-.29h-7.78c-.24,0-.5,0-.5.29s.26.29.5.29h7.78" transform="translate(-17.85 -6.8)"/><path d="M209.63,160.48a1.86,1.86,0,0,1-1.88-2,3.88,3.88,0,0,1,3.38-4l-1.5,5.94m1.81-6a1.86,1.86,0,0,1,1.9,2,3.9,3.9,0,0,1-3.38,3.95Zm.94-3.76c0-.13-.1-.13-.15-.13s-.14,0-.2.27l-.77,3.09c0,.19-.06.2-.08.22s-.11,0-.14,0c-2.35.2-4.16,2.14-4.16,3.94a2.6,2.6,0,0,0,2.68,2.58c-.11.45-.22.91-.33,1.35-.2.76-.31,1.24-.31,1.3s0,.11.14.11a.13.13,0,0,0,.13-.06s.11-.37.17-.56l.53-2.14c2.46-.13,4.33-2.14,4.33-4a2.62,2.62,0,0,0-2.69-2.58Z" transform="translate(-17.85 -6.8)"/><path d="M34.57,190.29s0-.07-.25-.31c-1.43-1.46-2.24-3.83-2.24-6.76a9.51,9.51,0,0,1,2.34-6.88c.15-.13.15-.16.15-.2s-.07-.11-.13-.11a5.94,5.94,0,0,0-2.07,2.44,10.26,10.26,0,0,0-1.06,4.75,10.57,10.57,0,0,0,.95,4.53,6.1,6.1,0,0,0,2.18,2.66.12.12,0,0,0,.13-.12" transform="translate(-17.85 -6.8)"/><path d="M44.77,183.5c.24,0,.5,0,.5-.29s-.26-.29-.5-.29H37c-.24,0-.5,0-.5.29s.26.29.5.29h7.78" transform="translate(-17.85 -6.8)"/><path d="M50.64,177.59c0-.33,0-.34-.29-.34a3.2,3.2,0,0,1-2.54.92v.41a4.12,4.12,0,0,0,1.83-.37v7.48c0,.52,0,.69-1.3.69h-.45v.42c.39,0,1.78,0,2.26,0s1.85,0,2.24,0v-.42h-.45c-1.26,0-1.3-.17-1.3-.69v-8.1" transform="translate(-17.85 -6.8)"/><path d="M56.3,186.86c0-.83-.27-1.45-.86-1.45a.68.68,0,0,0-.69.69.69.69,0,0,0,.7.7.65.65,0,0,0,.48-.19s0,0,.06,0a1,1,0,0,1,0,.28,3.4,3.4,0,0,1-.92,2.34c-.15.17-.15.2-.15.23a.15.15,0,0,0,.14.14,3.46,3.46,0,0,0,1.22-2.71" transform="translate(-17.85 -6.8)"/><path d="M63.3,186.81c-.46,0-1.39-.25-1.66-1.82a17.46,17.46,0,0,1-.16-3,12.58,12.58,0,0,1,.23-3.09,1.63,1.63,0,0,1,3.25.16,15.17,15.17,0,0,1,.18,2.93A18.67,18.67,0,0,1,65,185c-.28,1.58-1.18,1.85-1.69,1.85m2.94-4.61a7.91,7.91,0,0,0-.59-3.44,2.57,2.57,0,0,0-4.72.1,7.62,7.62,0,0,0-.54,3.34,7.24,7.24,0,0,0,.62,3.47,2.55,2.55,0,0,0,2.29,1.43,2.59,2.59,0,0,0,2.39-1.58A8,8,0,0,0,66.24,182.2Z" transform="translate(-17.85 -6.8)"/><path d="M70.85,183.22a10.62,10.62,0,0,0-.95-4.54A6.11,6.11,0,0,0,67.72,176c-.06,0-.13,0-.13.11s0,.07.24.32c1.44,1.45,2.24,3.82,2.24,6.75s-.67,5.19-2.34,6.88c-.14.13-.14.16-.14.2a.12.12,0,0,0,.13.12A6.08,6.08,0,0,0,69.79,188a10.34,10.34,0,0,0,1.06-4.74" transform="translate(-17.85 -6.8)"/><path d="M310.77,190.29s0-.07-.25-.31c-1.43-1.46-2.24-3.83-2.24-6.76a9.51,9.51,0,0,1,2.34-6.88c.15-.13.15-.16.15-.2s-.07-.11-.13-.11a5.94,5.94,0,0,0-2.07,2.44,10.26,10.26,0,0,0-1.06,4.75,10.57,10.57,0,0,0,.95,4.53,6.1,6.1,0,0,0,2.18,2.66.12.12,0,0,0,.13-.12" transform="translate(-17.85 -6.8)"/><path d="M315.74,177.59c0-.33,0-.34-.29-.34a3.22,3.22,0,0,1-2.54.92v.41a4.18,4.18,0,0,0,1.84-.37v7.48c0,.52-.05.69-1.31.69H313v.42c.39,0,1.78,0,2.26,0s1.85,0,2.24,0v-.42h-.44c-1.27,0-1.31-.17-1.31-.69v-8.1" transform="translate(-17.85 -6.8)"/><path d="M321.4,186.86c0-.83-.27-1.45-.86-1.45a.68.68,0,0,0-.69.69.69.69,0,0,0,.7.7.65.65,0,0,0,.48-.19s0,0,.06,0a1,1,0,0,1,0,.28,3.42,3.42,0,0,1-.91,2.34c-.16.17-.16.2-.16.23a.15.15,0,0,0,.14.14,3.43,3.43,0,0,0,1.22-2.71" transform="translate(-17.85 -6.8)"/><path d="M328.4,186.81c-.45,0-1.39-.25-1.66-1.82a17.46,17.46,0,0,1-.16-3,12.58,12.58,0,0,1,.23-3.09,1.72,1.72,0,0,1,1.59-1.41,1.75,1.75,0,0,1,1.66,1.57,15.17,15.17,0,0,1,.18,2.93,18.67,18.67,0,0,1-.15,2.93c-.28,1.58-1.18,1.85-1.69,1.85m2.94-4.61a7.91,7.91,0,0,0-.59-3.44,2.57,2.57,0,0,0-4.72.1,7.62,7.62,0,0,0-.54,3.34,7.24,7.24,0,0,0,.62,3.47,2.55,2.55,0,0,0,2.29,1.43,2.59,2.59,0,0,0,2.39-1.58A8,8,0,0,0,331.34,182.2Z" transform="translate(-17.85 -6.8)"/><path d="M336,183.22a10.62,10.62,0,0,0-.95-4.54,6.11,6.11,0,0,0-2.18-2.65c-.06,0-.13,0-.13.11s0,.07.24.32c1.44,1.45,2.24,3.82,2.24,6.75s-.67,5.19-2.34,6.88c-.14.13-.14.16-.14.2a.12.12,0,0,0,.13.12,6.08,6.08,0,0,0,2.07-2.45,10.34,10.34,0,0,0,1.06-4.74" transform="translate(-17.85 -6.8)"/><rect class="cls-2" x="145.95" y="302.95" width="49.07" height="20.99"/><path d="M171.77,327.29s0-.07-.25-.31c-1.43-1.46-2.24-3.83-2.24-6.76a9.51,9.51,0,0,1,2.34-6.88c.15-.13.15-.16.15-.2a.12.12,0,0,0-.13-.12,6,6,0,0,0-2.07,2.45,10.26,10.26,0,0,0-1.06,4.75,10.57,10.57,0,0,0,1,4.53,6.1,6.1,0,0,0,2.18,2.66.12.12,0,0,0,.13-.12" transform="translate(-17.85 -6.8)"/><path d="M176.1,323.81c-.46,0-1.39-.25-1.66-1.82a17.46,17.46,0,0,1-.16-3,12.58,12.58,0,0,1,.23-3.09,1.63,1.63,0,0,1,3.25.16,15.17,15.17,0,0,1,.18,2.93,18.67,18.67,0,0,1-.15,2.93c-.28,1.58-1.18,1.85-1.69,1.85M179,319.2a8,8,0,0,0-.59-3.45,2.57,2.57,0,0,0-4.72.11,7.62,7.62,0,0,0-.54,3.34,7.24,7.24,0,0,0,.62,3.47,2.55,2.55,0,0,0,2.29,1.43,2.59,2.59,0,0,0,2.39-1.58A8,8,0,0,0,179,319.2Z" transform="translate(-17.85 -6.8)"/><path d="M182.4,323.86c0-.84-.27-1.45-.86-1.45a.68.68,0,0,0-.69.69.69.69,0,0,0,.7.7.65.65,0,0,0,.48-.19s0,0,.06,0a1,1,0,0,1,0,.28,3.4,3.4,0,0,1-.92,2.34c-.15.17-.15.2-.15.23a.15.15,0,0,0,.14.14,3.46,3.46,0,0,0,1.22-2.71" transform="translate(-17.85 -6.8)"/><path d="M195.37,320.5c.24,0,.5,0,.5-.29s-.26-.29-.5-.29h-7.78c-.24,0-.5,0-.5.29s.26.29.5.29h7.78" transform="translate(-17.85 -6.8)"/><path d="M201.24,314.59c0-.33,0-.34-.29-.34a3.22,3.22,0,0,1-2.54.92v.41a4.12,4.12,0,0,0,1.83-.37v7.48c0,.52,0,.69-1.3.69h-.45v.42c.39,0,1.78,0,2.26,0s1.85,0,2.24,0v-.42h-.45c-1.26,0-1.3-.17-1.3-.69v-8.1" transform="translate(-17.85 -6.8)"/><path d="M208.15,320.22a10.62,10.62,0,0,0-1-4.54A6.17,6.17,0,0,0,205,313a.12.12,0,0,0-.13.12s0,.07.24.32c1.44,1.45,2.25,3.82,2.25,6.75s-.68,5.19-2.35,6.88c-.14.13-.14.16-.14.2a.12.12,0,0,0,.13.12,6.08,6.08,0,0,0,2.07-2.45,10.34,10.34,0,0,0,1.06-4.74" transform="translate(-17.85 -6.8)"/><rect class="cls-2" x="151.53" y="47.83" width="37.91" height="20.99"/><path d="M177.37,72.19s0-.07-.25-.31c-1.43-1.46-2.24-3.83-2.24-6.76a9.51,9.51,0,0,1,2.34-6.88c.15-.13.15-.16.15-.2a.12.12,0,0,0-.13-.11,6,6,0,0,0-2.07,2.44,10.26,10.26,0,0,0-1.06,4.75,10.57,10.57,0,0,0,.95,4.53,6.1,6.1,0,0,0,2.18,2.66.12.12,0,0,0,.13-.12" transform="translate(-17.85 -6.8)"/><path d="M181.7,68.71c-.46,0-1.39-.25-1.66-1.82a17.46,17.46,0,0,1-.16-3,12.58,12.58,0,0,1,.23-3.09,1.72,1.72,0,0,1,1.59-1.41A1.75,1.75,0,0,1,183.36,61a15.17,15.17,0,0,1,.18,2.93,18.67,18.67,0,0,1-.15,2.93c-.28,1.58-1.18,1.85-1.69,1.85m2.94-4.61a7.91,7.91,0,0,0-.59-3.44,2.57,2.57,0,0,0-4.72.1,7.62,7.62,0,0,0-.54,3.34,7.24,7.24,0,0,0,.62,3.47A2.55,2.55,0,0,0,181.7,69a2.57,2.57,0,0,0,2.39-1.58A8,8,0,0,0,184.64,64.1Z" transform="translate(-17.85 -6.8)"/><path d="M188,68.76c0-.83-.27-1.45-.86-1.45a.68.68,0,0,0-.69.69.69.69,0,0,0,.7.7.65.65,0,0,0,.48-.19s0,0,.06,0a1,1,0,0,1,0,.28,3.4,3.4,0,0,1-.92,2.34c-.15.17-.15.2-.15.23a.15.15,0,0,0,.14.14A3.46,3.46,0,0,0,188,68.76" transform="translate(-17.85 -6.8)"/><path d="M195.64,59.49c0-.33,0-.34-.29-.34a3.2,3.2,0,0,1-2.54.92v.41a4.12,4.12,0,0,0,1.83-.37v7.48c0,.52,0,.69-1.3.69h-.45v.42c.39,0,1.78,0,2.26,0s1.85,0,2.24,0v-.42h-.45c-1.26,0-1.3-.17-1.3-.69v-8.1" transform="translate(-17.85 -6.8)"/><path d="M202.55,65.12a10.62,10.62,0,0,0-1-4.54,6,6,0,0,0-2.18-2.65.12.12,0,0,0-.13.11s0,.07.24.32c1.44,1.45,2.24,3.82,2.24,6.75s-.67,5.19-2.34,6.88c-.14.13-.14.16-.14.2a.12.12,0,0,0,.13.12,6.08,6.08,0,0,0,2.07-2.45,10.34,10.34,0,0,0,1.06-4.74" transform="translate(-17.85 -6.8)"/></svg>