<svg id="Layer_1" data-name="Layer 1" xmlns="http://www.w3.org/2000/svg" viewBox="0 0 357.96 351.13"><defs><style>.cls-1,.cls-2,.cls-3,.cls-4{fill:none;}.cls-2,.cls-3{stroke:#000;}.cls-2,.cls-3,.cls-4{stroke-linecap:round;stroke-miterlimit:10;}.cls-2,.cls-4{stroke-width:0.8px;}.cls-3{stroke-width:0.4px;}.cls-4{stroke:#8c8c8c;opacity:0.2;}</style></defs><title>TrigIden.02</title><path class="cls-1" d="M228.15,194.69A45.37,45.37,0,0,0,222.07,172l-39.28,22.68" transform="translate(-12.31 -15.11)"/><path class="cls-2" d="M228.15,194.69c0-8-2.1-15.79-4.28-19.56" transform="translate(-12.31 -15.11)"/><path d="M222.07,172a14.3,14.3,0,0,1,.7,4.21l2.6-1.5a14.33,14.33,0,0,1-3.3-2.71" transform="translate(-12.31 -15.11)"/><path class="cls-1" d="M216.81,194.69a34,34,0,0,0-17-29.46l-17,29.46" transform="translate(-12.31 -15.11)"/><path d="M200.05,164.86a14.27,14.27,0,0,1,2.53,3.44l1.64-2.52a14.46,14.46,0,0,1-4.17-.92" transform="translate(-12.31 -15.11)"/><line class="cls-2" x1="0.4" y1="179.58" x2="336.97" y2="179.58"/><path d="M352.87,194.69a14.33,14.33,0,0,1-4-1.5v3a14.6,14.6,0,0,1,4-1.49" transform="translate(-12.31 -15.11)"/><path d="M363.21,191.94a.72.72,0,0,0-.63.7.44.44,0,0,0,.47.46.75.75,0,0,0,.73-.76c0-.6-.69-.88-1.29-.88A1.83,1.83,0,0,0,361,192.6a1.49,1.49,0,0,0-1.48-1.14c-1.47,0-2.24,1.89-2.24,2.2a.14.14,0,0,0,.15.13c.12,0,.15-.08.18-.14.49-1.6,1.45-1.9,1.87-1.9.64,0,.77.6.77.95A6.16,6.16,0,0,1,360,194l-.49,2c-.21.86-.63,1.65-1.39,1.65a1.42,1.42,0,0,1-.73-.19.75.75,0,0,0,.63-.7.45.45,0,0,0-.49-.46.75.75,0,0,0-.72.76c0,.6.68.87,1.3.87a1.77,1.77,0,0,0,1.47-1.13,1.5,1.5,0,0,0,1.48,1.13c1.47,0,2.25-1.88,2.25-2.19a.13.13,0,0,0-.15-.13c-.13,0-.14.07-.18.18-.39,1.27-1.23,1.86-1.87,1.86s-.78-.38-.78-1a6.63,6.63,0,0,1,.29-1.49l.5-1.95c.22-.87.71-1.5,1.37-1.5a1.53,1.53,0,0,1,.73.19" transform="translate(-12.31 -15.11)"/><circle class="cls-2" cx="182.79" cy="194.69" r="113.39" transform="translate(-96.44 171.17) rotate(-45)"/><line class="cls-3" x1="113.79" y1="177.59" x2="113.79" y2="181.57"/><path d="M120,205.1c.24,0,.5,0,.5-.29s-.26-.29-.5-.29h-7.78c-.24,0-.5,0-.5.29s.26.29.5.29H120" transform="translate(-12.31 -15.11)"/><path d="M125.21,208.41c-.47,0-1.4-.25-1.67-1.82a17.46,17.46,0,0,1-.16-3,12.58,12.58,0,0,1,.23-3.09,1.72,1.72,0,0,1,1.6-1.41,1.75,1.75,0,0,1,1.65,1.57,15.17,15.17,0,0,1,.18,2.93,18.67,18.67,0,0,1-.15,2.93c-.28,1.58-1.18,1.85-1.68,1.85m2.93-4.61a8,8,0,0,0-.59-3.45,2.57,2.57,0,0,0-4.72.11,7.62,7.62,0,0,0-.54,3.34,7.24,7.24,0,0,0,.62,3.47,2.57,2.57,0,0,0,4.68-.15A8,8,0,0,0,128.14,203.8Z" transform="translate(-12.31 -15.11)"/><path d="M131.34,207.71a.7.7,0,1,0-.7.69.69.69,0,0,0,.7-.69" transform="translate(-12.31 -15.11)"/><path d="M134.44,200.17a4.23,4.23,0,0,0,1.28.21,3.09,3.09,0,0,0,2.66-1.39.12.12,0,0,0-.12-.13.41.41,0,0,0-.19.06,4.67,4.67,0,0,1-3.76,0,.33.33,0,0,0-.14,0c-.12,0-.12.09-.12.32v4.26c0,.26,0,.35.17.35s.09,0,.23-.19a2.16,2.16,0,0,1,1.8-.93,1.48,1.48,0,0,1,1.25,1,4.76,4.76,0,0,1,.26,1.81,3.75,3.75,0,0,1-.41,2,1.76,1.76,0,0,1-1.5.87,2.21,2.21,0,0,1-2.14-1.69.59.59,0,0,0,.23,0,.63.63,0,1,0-.63-.57,2.61,2.61,0,0,0,2.57,2.61,3.11,3.11,0,0,0,3-3.19,2.91,2.91,0,0,0-2.66-3.13,2.47,2.47,0,0,0-1.82.76v-3" transform="translate(-12.31 -15.11)"/><line class="cls-3" x1="227.17" y1="177.59" x2="227.17" y2="181.57"/><path d="M235,208c-.47,0-1.4-.25-1.67-1.82a17.46,17.46,0,0,1-.16-3,12.58,12.58,0,0,1,.23-3.09,1.72,1.72,0,0,1,1.6-1.41,1.75,1.75,0,0,1,1.65,1.57,15.17,15.17,0,0,1,.18,2.93,18.67,18.67,0,0,1-.15,2.93c-.28,1.58-1.18,1.85-1.68,1.85m2.93-4.61a7.91,7.91,0,0,0-.59-3.44,2.57,2.57,0,0,0-4.72.1,7.62,7.62,0,0,0-.54,3.34,7.24,7.24,0,0,0,.62,3.47,2.57,2.57,0,0,0,4.68-.15A8,8,0,0,0,237.94,203.4Z" transform="translate(-12.31 -15.11)"/><path d="M241.14,207.31a.7.7,0,1,0-.7.69.69.69,0,0,0,.7-.69" transform="translate(-12.31 -15.11)"/><path d="M244.24,199.77a4.23,4.23,0,0,0,1.28.21,3.06,3.06,0,0,0,2.65-1.39c0-.06,0-.13-.11-.13a.41.41,0,0,0-.19.06,4.67,4.67,0,0,1-3.76,0,.33.33,0,0,0-.14,0c-.12,0-.12.09-.12.32V203c0,.26,0,.35.17.35s.09,0,.23-.19a2.16,2.16,0,0,1,1.8-.93,1.48,1.48,0,0,1,1.25.95,4.76,4.76,0,0,1,.26,1.81,3.75,3.75,0,0,1-.41,2,1.78,1.78,0,0,1-1.5.87,2.21,2.21,0,0,1-2.14-1.69.59.59,0,0,0,.23,0,.63.63,0,0,0,0-1.26.61.61,0,0,0-.64.69,2.62,2.62,0,0,0,2.57,2.61,3.11,3.11,0,0,0,3.05-3.19,2.91,2.91,0,0,0-2.66-3.13,2.47,2.47,0,0,0-1.82.76v-3" transform="translate(-12.31 -15.11)"/><line class="cls-3" x1="68.43" y1="178.78" x2="68.43" y2="180.38"/><line class="cls-3" x1="79.77" y1="178.78" x2="79.77" y2="180.38"/><line class="cls-3" x1="91.11" y1="178.78" x2="91.11" y2="180.38"/><line class="cls-3" x1="102.45" y1="178.78" x2="102.45" y2="180.38"/><line class="cls-3" x1="125.13" y1="178.78" x2="125.13" y2="180.38"/><line class="cls-3" x1="136.46" y1="178.78" x2="136.46" y2="180.38"/><line class="cls-3" x1="147.8" y1="178.78" x2="147.8" y2="180.38"/><line class="cls-3" x1="159.14" y1="178.78" x2="159.14" y2="180.38"/><line class="cls-3" x1="272.53" y1="178.78" x2="272.53" y2="180.38"/><line class="cls-3" x1="261.19" y1="178.78" x2="261.19" y2="180.38"/><line class="cls-3" x1="249.85" y1="178.78" x2="249.85" y2="180.38"/><line class="cls-3" x1="238.51" y1="178.78" x2="238.51" y2="180.38"/><line class="cls-3" x1="215.83" y1="178.78" x2="215.83" y2="180.38"/><line class="cls-3" x1="204.5" y1="178.78" x2="204.5" y2="180.38"/><line class="cls-3" x1="193.16" y1="178.78" x2="193.16" y2="180.38"/><line class="cls-3" x1="181.82" y1="178.78" x2="181.82" y2="180.38"/><line class="cls-3" x1="172.47" y1="236.27" x2="168.49" y2="236.27"/><path d="M192.2,255.41c-.46,0-1.39-.25-1.66-1.82a17.46,17.46,0,0,1-.16-3,12.58,12.58,0,0,1,.23-3.09,1.72,1.72,0,0,1,1.59-1.41,1.75,1.75,0,0,1,1.66,1.57,15.17,15.17,0,0,1,.18,2.93,18.67,18.67,0,0,1-.15,2.93c-.28,1.58-1.18,1.85-1.69,1.85m2.94-4.61a8,8,0,0,0-.59-3.45,2.57,2.57,0,0,0-4.72.11,7.62,7.62,0,0,0-.54,3.34,7.24,7.24,0,0,0,.62,3.47,2.55,2.55,0,0,0,2.29,1.43,2.57,2.57,0,0,0,2.39-1.58A8,8,0,0,0,195.14,250.8Z" transform="translate(-12.31 -15.11)"/><path d="M198.44,254.71a.7.7,0,1,0-.7.69.69.69,0,0,0,.7-.69" transform="translate(-12.31 -15.11)"/><path d="M201.54,247.17a4.23,4.23,0,0,0,1.28.21,3.06,3.06,0,0,0,2.65-1.39c0-.06,0-.13-.11-.13a.41.41,0,0,0-.19.06,4.67,4.67,0,0,1-3.76,0,.33.33,0,0,0-.14,0c-.12,0-.12.09-.12.32v4.26c0,.26,0,.35.17.35s.09,0,.23-.19a2.16,2.16,0,0,1,1.8-.93,1.48,1.48,0,0,1,1.25,1,4.76,4.76,0,0,1,.26,1.81,3.75,3.75,0,0,1-.41,2,1.76,1.76,0,0,1-1.5.87,2.21,2.21,0,0,1-2.14-1.69.59.59,0,0,0,.23,0,.63.63,0,0,0,0-1.26.61.61,0,0,0-.64.69A2.62,2.62,0,0,0,203,255.7a3.11,3.11,0,0,0,3.05-3.19,2.91,2.91,0,0,0-2.66-3.13,2.47,2.47,0,0,0-1.82.76v-3" transform="translate(-12.31 -15.11)"/><line class="cls-3" x1="172.47" y1="122.89" x2="168.49" y2="122.89"/><path d="M190.7,142.61c-.46,0-1.39-.25-1.66-1.82a17.46,17.46,0,0,1-.16-3,12.58,12.58,0,0,1,.23-3.09,1.72,1.72,0,0,1,1.59-1.41,1.75,1.75,0,0,1,1.66,1.57,15.17,15.17,0,0,1,.18,2.93,18.67,18.67,0,0,1-.15,2.93c-.28,1.58-1.18,1.85-1.69,1.85m2.94-4.61a8,8,0,0,0-.59-3.45,2.57,2.57,0,0,0-4.72.11,7.62,7.62,0,0,0-.54,3.34,7.24,7.24,0,0,0,.62,3.47,2.55,2.55,0,0,0,2.29,1.43,2.57,2.57,0,0,0,2.39-1.58A8,8,0,0,0,193.64,138Z" transform="translate(-12.31 -15.11)"/><path d="M196.84,141.91a.7.7,0,1,0-.7.69.69.69,0,0,0,.7-.69" transform="translate(-12.31 -15.11)"/><path d="M199.94,134.37a4.23,4.23,0,0,0,1.28.21,3.09,3.09,0,0,0,2.66-1.39.12.12,0,0,0-.12-.13.41.41,0,0,0-.19.06,4.79,4.79,0,0,1-1.86.39,4.59,4.59,0,0,1-1.9-.41.39.39,0,0,0-.14,0c-.12,0-.12.09-.12.32v4.26c0,.26,0,.35.17.35s.09,0,.23-.19a2.16,2.16,0,0,1,1.8-.93,1.48,1.48,0,0,1,1.25.95,4.76,4.76,0,0,1,.26,1.81,3.75,3.75,0,0,1-.41,2,1.76,1.76,0,0,1-1.5.87,2.21,2.21,0,0,1-2.14-1.69.59.59,0,0,0,.23,0,.63.63,0,0,0,0-1.26.61.61,0,0,0-.64.69,2.62,2.62,0,0,0,2.58,2.61,3.11,3.11,0,0,0,3-3.19,2.91,2.91,0,0,0-2.66-3.13,2.47,2.47,0,0,0-1.82.76v-3" transform="translate(-12.31 -15.11)"/><line class="cls-3" x1="171.28" y1="281.63" x2="169.68" y2="281.63"/><line class="cls-3" x1="171.28" y1="270.29" x2="169.68" y2="270.29"/><line class="cls-3" x1="171.28" y1="258.95" x2="169.68" y2="258.95"/><line class="cls-3" x1="171.28" y1="247.61" x2="169.68" y2="247.61"/><line class="cls-3" x1="171.28" y1="224.93" x2="169.68" y2="224.93"/><line class="cls-3" x1="171.28" y1="213.59" x2="169.68" y2="213.59"/><line class="cls-3" x1="171.28" y1="202.26" x2="169.68" y2="202.26"/><line class="cls-3" x1="171.28" y1="190.92" x2="169.68" y2="190.92"/><line class="cls-3" x1="171.28" y1="77.53" x2="169.68" y2="77.53"/><line class="cls-3" x1="171.28" y1="88.87" x2="169.68" y2="88.87"/><line class="cls-3" x1="171.28" y1="100.21" x2="169.68" y2="100.21"/><line class="cls-3" x1="171.28" y1="111.55" x2="169.68" y2="111.55"/><line class="cls-3" x1="171.28" y1="134.22" x2="169.68" y2="134.22"/><line class="cls-3" x1="171.28" y1="145.56" x2="169.68" y2="145.56"/><line class="cls-3" x1="171.28" y1="156.9" x2="169.68" y2="156.9"/><line class="cls-3" x1="171.28" y1="168.24" x2="169.68" y2="168.24"/><line class="cls-2" x1="200.43" y1="162.29" x2="268.68" y2="122.89"/><line class="cls-2" x1="170.48" y1="179.58" x2="227.17" y2="81.38"/><path d="M282.58,138a1.6,1.6,0,1,0-1.59,1.59A1.59,1.59,0,0,0,282.58,138Z" transform="translate(-12.31 -15.11)"/><path class="cls-3" d="M282.58,138a1.6,1.6,0,1,0-1.59,1.59A1.59,1.59,0,0,0,282.58,138Z" transform="translate(-12.31 -15.11)"/><path d="M241.08,96.49a1.6,1.6,0,0,0-3.19,0,1.6,1.6,0,1,0,3.19,0Z" transform="translate(-12.31 -15.11)"/><path class="cls-3" d="M241.08,96.49a1.6,1.6,0,0,0-3.19,0,1.6,1.6,0,1,0,3.19,0Z" transform="translate(-12.31 -15.11)"/><path d="M286.82,130.77a3.36,3.36,0,0,1-1.37.32.57.57,0,0,1-.64-.64,1.25,1.25,0,0,1,1.15-1.17c.71,0,.87.48.87,1.2a2.81,2.81,0,0,1,0,.29m-2.19.17A2.86,2.86,0,0,1,283,128a9,9,0,0,1,1.32-4.37,4.65,4.65,0,0,1,3.61-2.37c1.5,0,2.5,1.21,2.5,3.08,0,1.06-.5,4.62-3.2,6.2-.08-.73-.28-1.59-1.22-1.59a1.55,1.55,0,0,0-1.44,1.48A1.25,1.25,0,0,0,284.63,130.94Zm2.59.07a7,7,0,0,0,4.31-6.2A3.52,3.52,0,0,0,288,121c-3.08,0-6.18,3.3-6.18,6.62a3.53,3.53,0,0,0,3.58,3.79,4.88,4.88,0,0,0,1.42-.21,9.14,9.14,0,0,0-.09,1.2c0,.42,0,1.5,1.15,1.5,1.71,0,2.34-2.69,2.34-2.78a.13.13,0,0,0-.13-.14c-.08,0-.11.07-.15.23a2,2,0,0,1-1.7,1.42C287.48,132.62,287.29,132.12,287.22,131Z" transform="translate(-12.31 -15.11)"/><path d="M295.49,149.68c0-.05,0-.08-.25-.32-1.44-1.45-2.24-3.82-2.24-6.75s.68-5.19,2.34-6.88c.15-.13.15-.16.15-.2a.12.12,0,0,0-.13-.12,5.94,5.94,0,0,0-2.07,2.44,10.16,10.16,0,0,0-1.07,4.76,10.65,10.65,0,0,0,.95,4.52,6.08,6.08,0,0,0,2.19,2.66.12.12,0,0,0,.13-.11" transform="translate(-12.31 -15.11)"/><path d="M301.52,140.87c-.18,0-.71,0-.71.59a.6.6,0,1,0,1.2,0c0-1-1-1.65-2.17-1.65a3.17,3.17,0,0,0-3,3.3,3.13,3.13,0,0,0,3,3.25,2.32,2.32,0,0,0,2.33-1.85.12.12,0,0,0-.14-.13c-.13,0-.15,0-.19.21A1.91,1.91,0,0,1,300,146c-.88,0-2-.76-2-2.94,0-2.39,1.22-3,1.94-3a2,2,0,0,1,1.67.78" transform="translate(-12.31 -15.11)"/><path d="M306,146a1.83,1.83,0,0,1-1.6-.93,4.14,4.14,0,0,1-.4-2.1,3.64,3.64,0,0,1,.45-2.07,1.83,1.83,0,0,1,1.53-.85,1.88,1.88,0,0,1,1.55.82A3.78,3.78,0,0,1,308,143a4.34,4.34,0,0,1-.38,2.07,1.86,1.86,0,0,1-1.6,1m3.07-2.9a3.09,3.09,0,1,0-6.16,0,3.08,3.08,0,1,0,6.16,0Z" transform="translate(-12.31 -15.11)"/><path d="M314.23,140.11c0-.26,0-.33-.14-.33s-.39.31-.49.44a2,2,0,0,0-1.35-.44c-1.74,0-2.26.95-2.26,1.74a1.5,1.5,0,0,0,.55,1.16,3.13,3.13,0,0,0,1.61.63,2.44,2.44,0,0,1,1.33.49,1.2,1.2,0,0,1,.45.93c0,.62-.36,1.31-1.63,1.31-.94,0-1.63-.54-1.95-2a2.39,2.39,0,0,0-.07-.29.13.13,0,0,0-.13-.06c-.16,0-.16.08-.16.33v2c0,.26,0,.33.14.33s.09,0,.33-.32a3.3,3.3,0,0,1,.29-.36,1.93,1.93,0,0,0,1.57.68c1.51,0,2.25-.83,2.25-2A1.87,1.87,0,0,0,314,143a3.22,3.22,0,0,0-1.85-.71c-.43-.09-1.48-.29-1.48-1.15,0-.44.3-1.1,1.59-1.1a1.62,1.62,0,0,1,1.68,1.78.14.14,0,0,0,.16.11c.16,0,.16-.07.16-.33v-1.49" transform="translate(-12.31 -15.11)"/><path d="M323.16,145.77h-1.94a1.07,1.07,0,0,1-.31,0c-.16,0-.18,0-.18-.15a1.47,1.47,0,0,1,.06-.32l1-4.05h2.7a1.61,1.61,0,0,1,1.69,1.69,3,3,0,0,1-3,2.85m2-4.71c1.57-.29,3-1.38,3-2.71,0-1.12-1-2-2.61-2H321c-.27,0-.4,0-.4.28s.13.14.35.14c.87,0,.87.11.87.27a1.37,1.37,0,0,1,0,.33l-1.94,7.73c-.13.5-.16.65-1.17.65-.27,0-.41,0-.41.26s.08.15.37.15h4.93c2.2,0,3.89-1.66,3.89-3.11A2.17,2.17,0,0,0,325.2,141.06Zm-2.42-3.71c.12-.53.18-.56.74-.56h1.87A1.46,1.46,0,0,1,327,138.3a2.94,2.94,0,0,1-3.06,2.64h-2.07Z" transform="translate(-12.31 -15.11)"/><path d="M331.62,146.24c0-.83-.28-1.45-.86-1.45a.7.7,0,0,0,0,1.39.62.62,0,0,0,.47-.18.08.08,0,0,1,.06,0s0,.2,0,.27a3.43,3.43,0,0,1-.92,2.34c-.16.18-.16.2-.16.23a.16.16,0,0,0,.15.15,3.49,3.49,0,0,0,1.22-2.72" transform="translate(-12.31 -15.11)"/><path d="M339.83,140.11c0-.26,0-.33-.14-.33s-.39.31-.49.44a2,2,0,0,0-1.35-.44c-1.74,0-2.26.95-2.26,1.74a1.5,1.5,0,0,0,.55,1.16,3.13,3.13,0,0,0,1.61.63,2.44,2.44,0,0,1,1.33.49,1.2,1.2,0,0,1,.45.93c0,.62-.36,1.31-1.63,1.31-.94,0-1.63-.54-1.95-2a2.39,2.39,0,0,0-.07-.29.13.13,0,0,0-.13-.06c-.16,0-.16.08-.16.33v2c0,.26,0,.33.14.33s.09,0,.33-.32a3.3,3.3,0,0,1,.29-.36,1.94,1.94,0,0,0,1.57.68c1.51,0,2.25-.83,2.25-2a1.87,1.87,0,0,0-.6-1.36,3.22,3.22,0,0,0-1.85-.71c-.43-.09-1.48-.29-1.48-1.15,0-.44.3-1.1,1.59-1.1a1.62,1.62,0,0,1,1.68,1.78.14.14,0,0,0,.16.11c.16,0,.16-.07.16-.33v-1.49" transform="translate(-12.31 -15.11)"/><path d="M341.23,140v.41c.92,0,1,.09,1,.79v3.91c0,.65-.16.65-1.09.65v.41c.4,0,1.09,0,1.51,0,.16,0,1,0,1.48,0v-.41c-.94,0-1-.07-1-.63v-5.29l-2,.16m2-2.68a.71.71,0,0,0-.71-.7.69.69,0,0,0-.69.69.7.7,0,0,0,.69.71A.71.71,0,0,0,343.22,137.33Z" transform="translate(-12.31 -15.11)"/><path d="M351,142.69c0-1.33,0-1.74-.33-2.19a1.88,1.88,0,0,0-1.58-.65,2.26,2.26,0,0,0-2.06,1.48h0v-1.48l-1.95.16v.41c1,0,1.09.11,1.09.81v3.89c0,.65-.16.65-1.09.65v.41c.37,0,1.15,0,1.55,0s1.19,0,1.56,0v-.41c-.91,0-1.09,0-1.09-.65v-2.67a2.08,2.08,0,0,1,1.88-2.31c.89,0,1.1.73,1.1,1.61v3.37c0,.65-.16.65-1.1.65v.41c.38,0,1.15,0,1.56,0s1.19,0,1.56,0v-.41c-.72,0-1.07,0-1.09-.43v-2.65" transform="translate(-12.31 -15.11)"/><path d="M360.46,145.77h-1.94a1.07,1.07,0,0,1-.31,0c-.16,0-.18,0-.18-.15a1.47,1.47,0,0,1,.06-.32l1-4.05h2.7a1.61,1.61,0,0,1,1.69,1.69,3,3,0,0,1-3,2.85m2-4.71c1.57-.29,3-1.38,3-2.71,0-1.12-1-2-2.61-2h-4.62c-.27,0-.4,0-.4.28s.13.14.35.14c.87,0,.87.11.87.27a1.37,1.37,0,0,1-.05.33l-1.94,7.73c-.13.5-.16.65-1.17.65-.27,0-.41,0-.41.26s.08.15.37.15h4.93c2.2,0,3.89-1.66,3.89-3.11A2.17,2.17,0,0,0,362.5,141.06Zm-2.43-3.71c.13-.53.19-.56.75-.56h1.87a1.46,1.46,0,0,1,1.62,1.51,2.94,2.94,0,0,1-3.06,2.64h-2.07Z" transform="translate(-12.31 -15.11)"/><path d="M370.27,142.61a10.74,10.74,0,0,0-.95-4.54,6.17,6.17,0,0,0-2.18-2.66.12.12,0,0,0-.13.12s0,.07.24.31c1.44,1.45,2.24,3.82,2.24,6.75s-.67,5.19-2.34,6.88c-.14.13-.14.16-.14.21a.12.12,0,0,0,.13.11,6,6,0,0,0,2.06-2.44,10.28,10.28,0,0,0,1.07-4.74" transform="translate(-12.31 -15.11)"/><path d="M238.59,79.77c.13-.54.18-.56.74-.56h1.43c1.07,0,2,.34,2,1.42a3.73,3.73,0,0,1-.84,2.25,3,3,0,0,1-2.24.81h-2l1-3.92m-1,4.26H240c2,0,4-1.46,4-3.1,0-1.12-1-2.14-2.76-2.14h-4.44c-.27,0-.4,0-.4.27s.13.15.35.15c.87,0,.87.11.87.27a1.21,1.21,0,0,1-.06.33l-1.94,7.73c-.12.5-.15.64-1.16.64-.27,0-.42,0-.42.26s.13.16.22.16l.83,0h1.68l.85,0c.12,0,.27,0,.27-.27s-.13-.15-.34-.15c-.86,0-.88-.1-.88-.24a2,2,0,0,1,0-.24Z" transform="translate(-12.31 -15.11)"/><path d="M249.27,98.09s0-.07-.25-.31c-1.43-1.46-2.24-3.83-2.24-6.76a9.51,9.51,0,0,1,2.34-6.88c.15-.13.15-.16.15-.2s-.07-.11-.13-.11a5.94,5.94,0,0,0-2.07,2.44A10.26,10.26,0,0,0,246,91a10.57,10.57,0,0,0,1,4.53,6.1,6.1,0,0,0,2.18,2.66.12.12,0,0,0,.13-.12" transform="translate(-12.31 -15.11)"/><path d="M255.3,89.28c-.17,0-.7,0-.7.59a.6.6,0,1,0,1.19,0c0-1-1-1.66-2.17-1.66a3.18,3.18,0,0,0-3,3.31,3.12,3.12,0,0,0,3,3.24,2.31,2.31,0,0,0,2.33-1.85.12.12,0,0,0-.14-.13c-.13,0-.15,0-.19.22a1.9,1.9,0,0,1-1.87,1.45c-.87,0-2-.76-2-3,0-2.38,1.23-3,1.94-3a2,2,0,0,1,1.67.77" transform="translate(-12.31 -15.11)"/><path d="M259.82,94.43a1.83,1.83,0,0,1-1.6-.94,4.19,4.19,0,0,1-.4-2.09,3.64,3.64,0,0,1,.45-2.07,1.83,1.83,0,0,1,1.53-.85,1.89,1.89,0,0,1,1.56.82,3.85,3.85,0,0,1,.44,2.1,4.46,4.46,0,0,1-.37,2.07,1.86,1.86,0,0,1-1.61,1m3.07-2.9a3.09,3.09,0,1,0-6.16,0,3.08,3.08,0,1,0,6.16,0Z" transform="translate(-12.31 -15.11)"/><path d="M268.11,88.52c0-.26,0-.33-.14-.33s-.39.32-.49.45a2,2,0,0,0-1.35-.45c-1.74,0-2.26,1-2.26,1.74a1.51,1.51,0,0,0,.55,1.17,3.13,3.13,0,0,0,1.61.63,2.4,2.4,0,0,1,1.34.49,1.2,1.2,0,0,1,.44.93c0,.62-.36,1.31-1.62,1.31-.95,0-1.64-.55-2-2a1.71,1.71,0,0,0-.07-.28.13.13,0,0,0-.13-.06c-.16,0-.16.07-.16.33v2c0,.26,0,.33.15.33s.08,0,.33-.31a1.83,1.83,0,0,1,.29-.36,1.93,1.93,0,0,0,1.56.67c1.51,0,2.26-.83,2.26-2a1.9,1.9,0,0,0-.61-1.37,3.23,3.23,0,0,0-1.85-.7c-.43-.09-1.48-.29-1.48-1.15,0-.45.3-1.11,1.6-1.11a1.61,1.61,0,0,1,1.67,1.78.14.14,0,0,0,.16.12c.16,0,.16-.07.16-.33v-1.5" transform="translate(-12.31 -15.11)"/><path d="M275.47,90.79,278.35,86l.49,4.82ZM273.74,93a2,2,0,0,1-1.68,1.17c-.16,0-.27,0-.27.28a.15.15,0,0,0,.17.14l1.16,0,1.28,0c.09,0,.26,0,.26-.27s-.11-.15-.2-.15c-.33,0-.6-.14-.6-.48a1.3,1.3,0,0,1,.27-.68l1.09-1.81h3.66c0,.13,0,.25,0,.37,0,.38.22,1.87.22,2.14,0,.44-.73.46-1,.46s-.32,0-.32.26.13.16.22.16l.77,0h.82c.88,0,1.51,0,1.52,0s.26,0,.26-.27-.13-.15-.34-.15c-.79,0-.81-.13-.85-.56l-.88-9c0-.29-.08-.32-.24-.32s-.23,0-.36.25Z" transform="translate(-12.31 -15.11)"/><path d="M284.6,94.66c0-.83-.27-1.45-.86-1.45a.68.68,0,0,0-.69.69.69.69,0,0,0,.7.7.65.65,0,0,0,.48-.19s0,0,.06,0a1,1,0,0,1,0,.28,3.4,3.4,0,0,1-.92,2.34c-.15.17-.15.2-.15.23a.15.15,0,0,0,.14.14,3.46,3.46,0,0,0,1.22-2.71" transform="translate(-12.31 -15.11)"/><path d="M292.81,88.52c0-.26,0-.33-.14-.33s-.39.32-.49.45a2,2,0,0,0-1.35-.45c-1.74,0-2.26,1-2.26,1.74a1.51,1.51,0,0,0,.55,1.17,3.13,3.13,0,0,0,1.61.63,2.4,2.4,0,0,1,1.34.49,1.2,1.2,0,0,1,.44.93c0,.62-.36,1.31-1.62,1.31-.95,0-1.64-.55-2-2-.05-.25-.05-.27-.07-.28a.13.13,0,0,0-.13-.06c-.16,0-.16.07-.16.33v2c0,.26,0,.33.15.33s.08,0,.33-.31a1.83,1.83,0,0,1,.29-.36,1.93,1.93,0,0,0,1.56.67c1.51,0,2.26-.83,2.26-2a1.9,1.9,0,0,0-.61-1.37,3.23,3.23,0,0,0-1.85-.7c-.43-.09-1.48-.29-1.48-1.15,0-.45.3-1.11,1.6-1.11a1.61,1.61,0,0,1,1.67,1.78.14.14,0,0,0,.16.12c.16,0,.16-.07.16-.33v-1.5" transform="translate(-12.31 -15.11)"/><path d="M294.22,88.42v.42c.92,0,1,.09,1,.79v3.91c0,.64-.16.64-1.1.64v.42c.41,0,1.1,0,1.51,0,.16,0,1,0,1.48,0v-.42c-.93,0-1-.07-1-.63V88.26l-1.95.16m2-2.67a.7.7,0,0,0-.71-.7.7.7,0,0,0,0,1.39A.7.7,0,0,0,296.2,85.75Z" transform="translate(-12.31 -15.11)"/><path d="M304,91.11c0-1.34,0-1.74-.33-2.2a1.88,1.88,0,0,0-1.58-.65A2.24,2.24,0,0,0,300,89.74h0V88.26l-1.95.16v.42c1,0,1.09.1,1.09.8v3.9c0,.64-.16.64-1.09.64v.42c.37,0,1.15,0,1.55,0s1.19,0,1.57,0v-.42c-.92,0-1.09,0-1.09-.64V90.87A2.09,2.09,0,0,1,302,88.55c.89,0,1.09.73,1.09,1.61v3.38c0,.64-.16.64-1.09.64v.42c.37,0,1.15,0,1.55,0s1.19,0,1.56,0v-.42c-.71,0-1.07,0-1.09-.43V91.11" transform="translate(-12.31 -15.11)"/><path d="M312,90.79,314.85,86l.49,4.82ZM310.24,93a2,2,0,0,1-1.68,1.17c-.16,0-.27,0-.27.28a.15.15,0,0,0,.17.14l1.16,0,1.28,0c.09,0,.26,0,.26-.27s-.11-.15-.2-.15c-.33,0-.6-.14-.6-.48a1.3,1.3,0,0,1,.27-.68l1.09-1.81h3.66c0,.13,0,.25,0,.37,0,.38.22,1.87.22,2.14,0,.44-.73.46-1,.46s-.32,0-.32.26.13.16.22.16l.77,0h.82c.88,0,1.51,0,1.52,0s.26,0,.26-.27-.13-.15-.34-.15c-.79,0-.81-.13-.85-.56l-.88-9c0-.29-.08-.32-.24-.32s-.23,0-.36.25Z" transform="translate(-12.31 -15.11)"/><path d="M322.35,91a10.62,10.62,0,0,0-1-4.54,6.11,6.11,0,0,0-2.18-2.65c-.06,0-.13,0-.13.11s0,.07.24.32c1.44,1.45,2.24,3.82,2.24,6.75s-.67,5.19-2.34,6.88c-.14.13-.14.16-.14.2a.12.12,0,0,0,.13.12,6.08,6.08,0,0,0,2.07-2.45A10.34,10.34,0,0,0,322.35,91" transform="translate(-12.31 -15.11)"/><path d="M237.54,184.48h-2.25c-.16,0-.17,0-.17-.16a2,2,0,0,1,0-.31l1-4.06h2.7a1.61,1.61,0,0,1,1.7,1.7,3,3,0,0,1-3,2.84m2.05-4.71c1.56-.29,3-1.38,3-2.7,0-1.12-1-2-2.61-2h-4.61c-.28,0-.41,0-.41.27s.13.15.35.15c.88,0,.88.11.88.27a1.21,1.21,0,0,1-.06.33l-1.94,7.73c-.13.5-.16.64-1.16.64-.28,0-.42,0-.42.26s.08.16.37.16h4.93c2.2,0,3.89-1.67,3.89-3.12A2.17,2.17,0,0,0,239.59,179.77Zm-2.43-3.7c.13-.54.18-.56.74-.56h1.87a1.45,1.45,0,0,1,1.62,1.5,2.93,2.93,0,0,1-3,2.65h-2.07Z" transform="translate(-12.31 -15.11)"/><path d="M30.07,192.29s0-.07-.25-.31c-1.43-1.46-2.24-3.83-2.24-6.76a9.51,9.51,0,0,1,2.34-6.88c.15-.13.15-.16.15-.2S30,178,29.94,178a5.94,5.94,0,0,0-2.07,2.44,10.26,10.26,0,0,0-1.06,4.75,10.57,10.57,0,0,0,1,4.53,6.1,6.1,0,0,0,2.18,2.66.12.12,0,0,0,.13-.12" transform="translate(-12.31 -15.11)"/><path d="M40.27,185.5c.24,0,.5,0,.5-.29s-.26-.29-.5-.29H32.49c-.24,0-.5,0-.5.29s.26.29.5.29h7.78" transform="translate(-12.31 -15.11)"/><path d="M46.14,179.59c0-.33,0-.34-.29-.34a3.2,3.2,0,0,1-2.54.92v.41a4.12,4.12,0,0,0,1.83-.37v7.48c0,.52,0,.69-1.3.69h-.45v.42c.39,0,1.78,0,2.26,0s1.85,0,2.24,0v-.42h-.45c-1.26,0-1.3-.17-1.3-.69v-8.1" transform="translate(-12.31 -15.11)"/><path d="M51.8,188.86c0-.83-.27-1.45-.86-1.45a.68.68,0,0,0-.69.69.69.69,0,0,0,.7.7.65.65,0,0,0,.48-.19s0,0,.06,0a1,1,0,0,1,0,.28,3.4,3.4,0,0,1-.92,2.34c-.15.17-.15.2-.15.23a.15.15,0,0,0,.14.14,3.46,3.46,0,0,0,1.22-2.71" transform="translate(-12.31 -15.11)"/><path d="M58.8,188.81c-.46,0-1.39-.25-1.66-1.82a17.46,17.46,0,0,1-.16-3,12.58,12.58,0,0,1,.23-3.09,1.63,1.63,0,0,1,3.25.16,15.17,15.17,0,0,1,.18,2.93,18.67,18.67,0,0,1-.15,2.93c-.28,1.58-1.18,1.85-1.69,1.85m2.94-4.61a7.91,7.91,0,0,0-.59-3.44,2.57,2.57,0,0,0-4.72.1,7.62,7.62,0,0,0-.54,3.34,7.24,7.24,0,0,0,.62,3.47,2.55,2.55,0,0,0,2.29,1.43,2.59,2.59,0,0,0,2.39-1.58A8,8,0,0,0,61.74,184.2Z" transform="translate(-12.31 -15.11)"/><path d="M66.35,185.22a10.62,10.62,0,0,0-.95-4.54A6.11,6.11,0,0,0,63.22,178c-.06,0-.13,0-.13.11s0,.07.24.32c1.44,1.45,2.24,3.82,2.24,6.75s-.67,5.19-2.34,6.88c-.14.13-.14.16-.14.2a.12.12,0,0,0,.13.12A6.08,6.08,0,0,0,65.29,190a10.34,10.34,0,0,0,1.06-4.74" transform="translate(-12.31 -15.11)"/><path d="M304.27,192.29s0-.07-.25-.31c-1.43-1.46-2.24-3.83-2.24-6.76a9.51,9.51,0,0,1,2.34-6.88c.15-.13.15-.16.15-.2s-.07-.11-.13-.11a5.94,5.94,0,0,0-2.07,2.44,10.26,10.26,0,0,0-1.06,4.75,10.57,10.57,0,0,0,.95,4.53,6.1,6.1,0,0,0,2.18,2.66.12.12,0,0,0,.13-.12" transform="translate(-12.31 -15.11)"/><path d="M309.14,179.59c0-.33,0-.34-.29-.34a3.22,3.22,0,0,1-2.54.92v.41a4.18,4.18,0,0,0,1.84-.37v7.48c0,.52,0,.69-1.31.69h-.45v.42c.39,0,1.78,0,2.26,0s1.85,0,2.24,0v-.42h-.44c-1.27,0-1.31-.17-1.31-.69v-8.1" transform="translate(-12.31 -15.11)"/><path d="M314.8,188.86c0-.83-.27-1.45-.86-1.45a.68.68,0,0,0-.69.69.69.69,0,0,0,.7.7.65.65,0,0,0,.48-.19s0,0,.06,0a1,1,0,0,1,0,.28,3.42,3.42,0,0,1-.91,2.34c-.16.17-.16.2-.16.23a.15.15,0,0,0,.14.14,3.43,3.43,0,0,0,1.22-2.71" transform="translate(-12.31 -15.11)"/><path d="M321.8,188.81c-.45,0-1.39-.25-1.66-1.82a17.46,17.46,0,0,1-.16-3,12.58,12.58,0,0,1,.23-3.09,1.72,1.72,0,0,1,1.59-1.41,1.75,1.75,0,0,1,1.66,1.57,15.17,15.17,0,0,1,.18,2.93,18.67,18.67,0,0,1-.15,2.93c-.28,1.58-1.18,1.85-1.69,1.85m2.94-4.61a7.91,7.91,0,0,0-.59-3.44,2.57,2.57,0,0,0-4.72.1,7.62,7.62,0,0,0-.54,3.34,7.24,7.24,0,0,0,.62,3.47,2.55,2.55,0,0,0,2.29,1.43,2.59,2.59,0,0,0,2.39-1.58A8,8,0,0,0,324.74,184.2Z" transform="translate(-12.31 -15.11)"/><path d="M329.45,185.22a10.62,10.62,0,0,0-.95-4.54,6.11,6.11,0,0,0-2.18-2.65c-.06,0-.13,0-.13.11s0,.07.24.32c1.44,1.45,2.24,3.82,2.24,6.75s-.67,5.19-2.34,6.88c-.14.13-.14.16-.14.2a.12.12,0,0,0,.13.12,6.08,6.08,0,0,0,2.07-2.45,10.34,10.34,0,0,0,1.06-4.74" transform="translate(-12.31 -15.11)"/><path d="M166.27,332.29s0-.07-.25-.31c-1.43-1.46-2.24-3.83-2.24-6.76a9.51,9.51,0,0,1,2.34-6.88c.15-.13.15-.16.15-.2a.12.12,0,0,0-.13-.12,6,6,0,0,0-2.07,2.45,10.26,10.26,0,0,0-1.06,4.75,10.57,10.57,0,0,0,1,4.53,6.1,6.1,0,0,0,2.18,2.66.12.12,0,0,0,.13-.12" transform="translate(-12.31 -15.11)"/><path d="M170.51,328.81c-.47,0-1.4-.25-1.67-1.82a17.46,17.46,0,0,1-.16-3,12.58,12.58,0,0,1,.23-3.09,1.72,1.72,0,0,1,1.6-1.41,1.75,1.75,0,0,1,1.65,1.57,15.17,15.17,0,0,1,.18,2.93,18.67,18.67,0,0,1-.15,2.93c-.28,1.58-1.18,1.85-1.68,1.85m2.93-4.61a8,8,0,0,0-.59-3.45,2.57,2.57,0,0,0-4.72.11,7.62,7.62,0,0,0-.54,3.34,7.24,7.24,0,0,0,.62,3.47,2.57,2.57,0,0,0,4.68-.15A8,8,0,0,0,173.44,324.2Z" transform="translate(-12.31 -15.11)"/><path d="M176.9,328.86c0-.84-.27-1.45-.86-1.45a.68.68,0,0,0-.69.69.69.69,0,0,0,.7.7.65.65,0,0,0,.48-.19s0,0,.06,0a1,1,0,0,1,0,.28,3.4,3.4,0,0,1-.92,2.34c-.15.17-.15.2-.15.23a.15.15,0,0,0,.14.14,3.46,3.46,0,0,0,1.22-2.71" transform="translate(-12.31 -15.11)"/><path d="M189.87,325.5c.24,0,.5,0,.5-.29s-.26-.29-.5-.29h-7.78c-.24,0-.5,0-.5.29s.26.29.5.29h7.78" transform="translate(-12.31 -15.11)"/><path d="M195.64,319.59c0-.33,0-.34-.29-.34a3.2,3.2,0,0,1-2.54.92v.41a4.12,4.12,0,0,0,1.83-.37v7.48c0,.52,0,.69-1.3.69h-.45v.42c.39,0,1.78,0,2.26,0s1.85,0,2.24,0v-.42h-.45c-1.26,0-1.3-.17-1.3-.69v-8.1" transform="translate(-12.31 -15.11)"/><path d="M202.55,325.22a10.62,10.62,0,0,0-1-4.54,6.1,6.1,0,0,0-2.18-2.66.12.12,0,0,0-.13.12s0,.07.24.32c1.44,1.45,2.24,3.82,2.24,6.75s-.67,5.19-2.34,6.88c-.14.13-.14.16-.14.2a.12.12,0,0,0,.13.12,6.08,6.08,0,0,0,2.07-2.45,10.34,10.34,0,0,0,1.06-4.74" transform="translate(-12.31 -15.11)"/><path d="M171.87,74.19s0-.07-.25-.31c-1.43-1.46-2.24-3.83-2.24-6.76a9.51,9.51,0,0,1,2.34-6.88c.15-.13.15-.16.15-.2a.12.12,0,0,0-.13-.11,6,6,0,0,0-2.07,2.44,10.26,10.26,0,0,0-1.06,4.75,10.57,10.57,0,0,0,.95,4.53,6.1,6.1,0,0,0,2.18,2.66.12.12,0,0,0,.13-.12" transform="translate(-12.31 -15.11)"/><path d="M176.1,70.71c-.46,0-1.39-.25-1.66-1.82a17.46,17.46,0,0,1-.16-3,12.58,12.58,0,0,1,.23-3.09,1.63,1.63,0,0,1,3.25.16,15.17,15.17,0,0,1,.18,2.93,18.67,18.67,0,0,1-.15,2.93c-.28,1.58-1.18,1.85-1.69,1.85M179,66.1a7.91,7.91,0,0,0-.59-3.44,2.57,2.57,0,0,0-4.72.1,7.62,7.62,0,0,0-.54,3.34,7.24,7.24,0,0,0,.62,3.47A2.55,2.55,0,0,0,176.1,71a2.57,2.57,0,0,0,2.39-1.58A8,8,0,0,0,179,66.1Z" transform="translate(-12.31 -15.11)"/><path d="M182.4,70.76c0-.83-.27-1.45-.86-1.45a.68.68,0,0,0-.69.69.69.69,0,0,0,.7.7.65.65,0,0,0,.48-.19s0,0,.06,0a1,1,0,0,1,0,.28,3.4,3.4,0,0,1-.92,2.34c-.15.17-.15.2-.15.23a.15.15,0,0,0,.14.14,3.46,3.46,0,0,0,1.22-2.71" transform="translate(-12.31 -15.11)"/><path d="M190,61.49c0-.33,0-.34-.29-.34a3.22,3.22,0,0,1-2.54.92v.41a4.12,4.12,0,0,0,1.83-.37v7.48c0,.52,0,.69-1.3.69h-.45v.42c.39,0,1.78,0,2.26,0s1.85,0,2.24,0v-.42h-.45c-1.26,0-1.3-.17-1.3-.69v-8.1" transform="translate(-12.31 -15.11)"/><path d="M197.05,67.12a10.62,10.62,0,0,0-1-4.54,6,6,0,0,0-2.18-2.65.12.12,0,0,0-.13.11s0,.07.24.32c1.44,1.45,2.24,3.82,2.24,6.75s-.67,5.19-2.34,6.88c-.14.13-.14.16-.14.2a.12.12,0,0,0,.13.12A6.08,6.08,0,0,0,196,71.86a10.34,10.34,0,0,0,1.06-4.74" transform="translate(-12.31 -15.11)"/><line class="cls-2" x1="170.48" y1="302.16" x2="170.48" y2="63.89"/><path d="M182.8,25.75a14.34,14.34,0,0,1-1.49,4h3a14.38,14.38,0,0,1-1.5-4" transform="translate(-12.31 -15.11)"/><path d="M182.85,23.05a2.1,2.1,0,0,1-1.65,1,1.09,1.09,0,0,1-1.08-.69h.15a.73.73,0,0,0,.72-.7.45.45,0,0,0-.49-.45.78.78,0,0,0-.73.88,1.3,1.3,0,0,0,1.43,1.24,3.78,3.78,0,0,0,3.29-2.92l1.41-5.6a1.64,1.64,0,0,0,0-.25.36.36,0,0,0-.38-.36.57.57,0,0,0-.55.49L184,20a1.13,1.13,0,0,1-.19.44,1.85,1.85,0,0,1-1.45.89c-.81,0-.88-.79-.88-1.18a9.73,9.73,0,0,1,.78-3,2.32,2.32,0,0,0,.24-.9,1.11,1.11,0,0,0-1.13-1.15c-1.32,0-1.86,2.08-1.86,2.2a.15.15,0,0,0,.16.13c.13,0,.15-.06.2-.26.35-1.21.89-1.78,1.45-1.78.13,0,.38,0,.38.47a3.89,3.89,0,0,1-.38,1.34,7.16,7.16,0,0,0-.7,2.7,1.55,1.55,0,0,0,1.7,1.68,1.91,1.91,0,0,0,1.43-.66h0a5.4,5.4,0,0,1-.87,2.11" transform="translate(-12.31 -15.11)"/><line class="cls-2" x1="170.45" y1="350.73" x2="170.45" y2="319.44"/><line class="cls-2" x1="170.49" y1="44.83" x2="170.49" y2="13.54"/><line class="cls-4" x1="170.46" y1="179.51" x2="199.66" y2="162.65"/><path d="M198.37,186.19l2.88-4.82.49,4.82Zm-1.73,2.22a2,2,0,0,1-1.68,1.17c-.16,0-.27,0-.27.28a.15.15,0,0,0,.17.14l1.16,0,1.28,0c.09,0,.26,0,.26-.27s-.11-.15-.2-.15c-.33,0-.6-.14-.6-.48a1.3,1.3,0,0,1,.27-.68l1.09-1.81h3.66c0,.13,0,.24,0,.37.05.38.22,1.87.22,2.14,0,.43-.73.46-1,.46s-.32,0-.32.26.13.16.22.16l.77,0h.82c.88,0,1.51,0,1.52,0s.26,0,.26-.27-.13-.15-.34-.15c-.79,0-.81-.12-.85-.56l-.88-9c0-.29-.08-.32-.24-.32s-.23,0-.36.25Z" transform="translate(-12.31 -15.11)"/><path class="cls-2" d="M216.81,193.89c0-11.11-6.92-22-14.12-27.31" transform="translate(-12.31 -15.11)"/></svg>