<svg id="Layer_1" data-name="Layer 1" xmlns="http://www.w3.org/2000/svg" viewBox="0 0 253.26 225.44"><defs><style>.cls-1,.cls-2,.cls-3,.cls-4,.cls-5,.cls-7{fill:none;}.cls-1{stroke:#27c9b8;}.cls-1,.cls-3,.cls-5,.cls-7{stroke-linecap:round;}.cls-1,.cls-2,.cls-3,.cls-5,.cls-7{stroke-miterlimit:10;}.cls-1,.cls-2,.cls-5,.cls-7{stroke-width:0.8px;}.cls-1,.cls-7{stroke-dasharray:2.99 2.99;}.cls-2,.cls-3,.cls-7{stroke:#000;}.cls-3{stroke-width:0.4px;}.cls-5{stroke:#8c8c8c;}.cls-5,.cls-6{opacity:0.2;}.cls-6{fill:#8c8c8c;}</style></defs><title>TrigIden.03</title><line class="cls-1" x1="101.29" y1="74" x2="159.4" y2="132.1"/><line class="cls-2" x1="21.7" y1="211.07" x2="216.55" y2="211.07"/><path d="M234.22,224a14.33,14.33,0,0,1-4-1.5v3a14,14,0,0,1,4-1.49" transform="translate(-14.09 -12.96)"/><path d="M244.51,221.24a.72.72,0,0,0-.63.7.44.44,0,0,0,.47.46.75.75,0,0,0,.73-.76c0-.6-.69-.88-1.29-.88a1.83,1.83,0,0,0-1.49,1.14,1.49,1.49,0,0,0-1.48-1.14c-1.47,0-2.24,1.89-2.24,2.2a.14.14,0,0,0,.15.13c.12,0,.15-.08.18-.14.48-1.6,1.45-1.9,1.86-1.9.65,0,.78.61.78.95a6.16,6.16,0,0,1-.26,1.34l-.49,2c-.21.87-.63,1.66-1.39,1.66a1.42,1.42,0,0,1-.73-.19.75.75,0,0,0,.63-.7.45.45,0,0,0-.49-.46.75.75,0,0,0-.72.76c0,.6.68.87,1.29.87a1.8,1.8,0,0,0,1.49-1.13,1.48,1.48,0,0,0,1.47,1.13c1.47,0,2.24-1.88,2.24-2.19a.12.12,0,0,0-.14-.13c-.13,0-.14.07-.18.18-.39,1.27-1.23,1.86-1.87,1.86s-.78-.38-.78-1a6.63,6.63,0,0,1,.29-1.49l.5-1.95c.22-.87.71-1.5,1.37-1.5a1.53,1.53,0,0,1,.73.19" transform="translate(-14.09 -12.96)"/><line class="cls-2" x1="21.7" y1="211.07" x2="21.7" y2="16.23"/><path d="M35.79,25.61a14.28,14.28,0,0,1-1.49,4h3a14.33,14.33,0,0,1-1.5-4" transform="translate(-14.09 -12.96)"/><path d="M35.88,20.91a2.12,2.12,0,0,1-1.65,1,1.07,1.07,0,0,1-1.08-.69.36.36,0,0,0,.14,0,.73.73,0,0,0,.72-.71.44.44,0,0,0-.49-.44.78.78,0,0,0-.73.88,1.3,1.3,0,0,0,1.44,1.23,3.79,3.79,0,0,0,3.29-2.92l1.4-5.6a.93.93,0,0,0,0-.24.37.37,0,0,0-.39-.36.58.58,0,0,0-.55.49L37,17.82a.94.94,0,0,1-.19.45,1.85,1.85,0,0,1-1.45.89c-.8,0-.87-.79-.87-1.18a9.62,9.62,0,0,1,.77-3,2.46,2.46,0,0,0,.25-.91A1.12,1.12,0,0,0,34.34,13c-1.32,0-1.85,2.09-1.85,2.2a.14.14,0,0,0,.15.13c.13,0,.15-.06.21-.26.34-1.2.89-1.78,1.45-1.78.13,0,.37,0,.37.48a4,4,0,0,1-.37,1.33,7.12,7.12,0,0,0-.71,2.7,1.55,1.55,0,0,0,1.7,1.68,1.9,1.9,0,0,0,1.43-.66l0,0a5.54,5.54,0,0,1-.86,2.11" transform="translate(-14.09 -12.96)"/><polyline class="cls-2" points="106.84 130.7 106.84 125.94 102.08 125.94"/><line class="cls-3" x1="21.7" y1="208.28" x2="21.7" y2="213.86"/><path d="M35.8,237.11c-.46,0-1.39-.25-1.66-1.82a17.46,17.46,0,0,1-.16-3,12.58,12.58,0,0,1,.23-3.09,1.63,1.63,0,0,1,3.25.16,15.17,15.17,0,0,1,.18,2.93,18.67,18.67,0,0,1-.15,2.93c-.28,1.58-1.18,1.85-1.69,1.85m2.94-4.61a8,8,0,0,0-.59-3.45,2.57,2.57,0,0,0-4.72.11,7.62,7.62,0,0,0-.54,3.34,7.24,7.24,0,0,0,.62,3.47,2.55,2.55,0,0,0,2.29,1.43,2.57,2.57,0,0,0,2.39-1.58A8,8,0,0,0,38.74,232.5Z" transform="translate(-14.09 -12.96)"/><line class="cls-3" x1="101.07" y1="208.28" x2="101.07" y2="213.86"/><path d="M109.7,238.11c-.46,0-1.39-.25-1.66-1.82a17.46,17.46,0,0,1-.16-3,12.58,12.58,0,0,1,.23-3.09,1.72,1.72,0,0,1,1.59-1.41,1.75,1.75,0,0,1,1.66,1.57,15.17,15.17,0,0,1,.18,2.93,18.67,18.67,0,0,1-.15,2.93c-.28,1.58-1.18,1.85-1.69,1.85m2.94-4.61a8,8,0,0,0-.59-3.45,2.57,2.57,0,0,0-4.72.11,7.62,7.62,0,0,0-.54,3.34,7.24,7.24,0,0,0,.62,3.47,2.55,2.55,0,0,0,2.29,1.43,2.57,2.57,0,0,0,2.39-1.58A8,8,0,0,0,112.64,233.5Z" transform="translate(-14.09 -12.96)"/><path d="M115.84,237.41a.7.7,0,1,0-.7.69.69.69,0,0,0,.7-.69" transform="translate(-14.09 -12.96)"/><path d="M118.94,229.87a4.23,4.23,0,0,0,1.28.21,3.09,3.09,0,0,0,2.66-1.39.12.12,0,0,0-.12-.13.41.41,0,0,0-.19.06,4.79,4.79,0,0,1-1.86.39,4.59,4.59,0,0,1-1.9-.41.39.39,0,0,0-.14,0c-.12,0-.12.09-.12.32v4.26c0,.26,0,.35.17.35s.09,0,.23-.19a2.16,2.16,0,0,1,1.8-.93,1.48,1.48,0,0,1,1.25.95,4.76,4.76,0,0,1,.26,1.81,3.75,3.75,0,0,1-.41,2,1.76,1.76,0,0,1-1.5.87,2.21,2.21,0,0,1-2.14-1.69.59.59,0,0,0,.23,0,.63.63,0,0,0,0-1.26.61.61,0,0,0-.64.69,2.62,2.62,0,0,0,2.58,2.61,3.11,3.11,0,0,0,3-3.19,2.91,2.91,0,0,0-2.66-3.13,2.47,2.47,0,0,0-1.82.76v-3" transform="translate(-14.09 -12.96)"/><line class="cls-3" x1="180.45" y1="208.28" x2="180.45" y2="213.86"/><path d="M195.14,228.89c0-.33,0-.34-.29-.34a3.2,3.2,0,0,1-2.54.92v.41a4.12,4.12,0,0,0,1.83-.37V237c0,.52,0,.69-1.3.69h-.45v.42c.39,0,1.78,0,2.26,0s1.85,0,2.24,0v-.42h-.45c-1.26,0-1.3-.17-1.3-.69v-8.1" transform="translate(-14.09 -12.96)"/><line class="cls-3" x1="164.57" y1="209.95" x2="164.57" y2="212.19"/><line class="cls-3" x1="148.7" y1="209.95" x2="148.7" y2="212.19"/><line class="cls-3" x1="132.82" y1="209.95" x2="132.82" y2="212.19"/><line class="cls-3" x1="116.95" y1="209.95" x2="116.95" y2="212.19"/><line class="cls-3" x1="85.2" y1="209.95" x2="85.2" y2="212.19"/><line class="cls-3" x1="69.33" y1="209.95" x2="69.33" y2="212.19"/><line class="cls-3" x1="53.45" y1="209.95" x2="53.45" y2="212.19"/><line class="cls-3" x1="37.58" y1="209.95" x2="37.58" y2="212.19"/><line class="cls-3" x1="24.49" y1="131.7" x2="18.92" y2="131.7"/><path d="M17,149.31c-.47,0-1.4-.25-1.67-1.82a17.46,17.46,0,0,1-.16-3,12.58,12.58,0,0,1,.23-3.09A1.72,1.72,0,0,1,17,140a1.75,1.75,0,0,1,1.65,1.57,15.17,15.17,0,0,1,.18,2.93,18.67,18.67,0,0,1-.15,2.93c-.28,1.58-1.18,1.85-1.68,1.85m2.93-4.61a7.91,7.91,0,0,0-.59-3.44,2.57,2.57,0,0,0-4.72.1,7.62,7.62,0,0,0-.54,3.34,7.24,7.24,0,0,0,.62,3.47,2.57,2.57,0,0,0,4.68-.15A8,8,0,0,0,19.94,144.7Z" transform="translate(-14.09 -12.96)"/><path d="M23.14,148.61a.7.7,0,1,0-.7.69.69.69,0,0,0,.7-.69" transform="translate(-14.09 -12.96)"/><path d="M26.34,141.07a4.23,4.23,0,0,0,1.28.21,3.06,3.06,0,0,0,2.65-1.39c0-.06,0-.13-.11-.13a.41.41,0,0,0-.19.06,4.79,4.79,0,0,1-1.86.39,4.59,4.59,0,0,1-1.9-.41.39.39,0,0,0-.14,0c-.12,0-.12.09-.12.32v4.26c0,.26,0,.35.17.35s.09,0,.23-.19a2.18,2.18,0,0,1,1.8-.93,1.48,1.48,0,0,1,1.25,1,4.76,4.76,0,0,1,.26,1.81,3.83,3.83,0,0,1-.4,2,1.81,1.81,0,0,1-1.51.87,2.21,2.21,0,0,1-2.14-1.69.59.59,0,0,0,.23,0,.63.63,0,1,0-.63-.57,2.61,2.61,0,0,0,2.56,2.61,3.11,3.11,0,0,0,3.05-3.19,2.91,2.91,0,0,0-2.66-3.13,2.47,2.47,0,0,0-1.82.76v-3" transform="translate(-14.09 -12.96)"/><line class="cls-3" x1="24.49" y1="52.33" x2="18.92" y2="52.33"/><path d="M25.14,60.69c0-.33,0-.34-.29-.34a3.2,3.2,0,0,1-2.54.92v.41a4.12,4.12,0,0,0,1.83-.37v7.48c0,.52,0,.69-1.3.69h-.45v.42c.39,0,1.78,0,2.26,0s1.85,0,2.24,0v-.42h-.45c-1.26,0-1.3-.17-1.3-.69v-8.1" transform="translate(-14.09 -12.96)"/><line class="cls-3" x1="22.82" y1="68.2" x2="20.59" y2="68.2"/><line class="cls-3" x1="22.82" y1="84.08" x2="20.59" y2="84.08"/><line class="cls-3" x1="22.82" y1="99.95" x2="20.59" y2="99.95"/><line class="cls-3" x1="22.82" y1="115.83" x2="20.59" y2="115.83"/><line class="cls-3" x1="22.82" y1="147.58" x2="20.59" y2="147.58"/><line class="cls-3" x1="22.82" y1="163.45" x2="20.59" y2="163.45"/><line class="cls-3" x1="22.82" y1="179.32" x2="20.59" y2="179.32"/><line class="cls-3" x1="22.82" y1="195.2" x2="20.59" y2="195.2"/><polyline class="cls-2" points="180.45 211.07 180.1 200.69 179.08 190.35 177.39 180.11 175.04 169.99 172.02 160.05 168.36 150.33 164.07 140.87 159.18 131.7 153.69 122.88 147.64 114.44 141.05 106.41 133.95 98.82 126.37 91.73 118.34 85.14 109.89 79.09 101.08 73.6 91.91 68.7 82.45 64.42 72.73 60.76 62.79 57.74 52.67 55.38 42.42 53.69 32.09 52.67 21.7 52.33"/><path d="M174.38,144.66a1.12,1.12,0,1,0-1.11,1.12A1.11,1.11,0,0,0,174.38,144.66Z" transform="translate(-14.09 -12.96)"/><path class="cls-3" d="M174.38,144.66a1.12,1.12,0,1,0-1.11,1.12A1.11,1.11,0,0,0,174.38,144.66Z" transform="translate(-14.09 -12.96)"/><path d="M116.28,86.56a1.12,1.12,0,1,0-1.12,1.12A1.12,1.12,0,0,0,116.28,86.56Z" transform="translate(-14.09 -12.96)"/><path class="cls-3" d="M116.28,86.56a1.12,1.12,0,1,0-1.12,1.12A1.12,1.12,0,0,0,116.28,86.56Z" transform="translate(-14.09 -12.96)"/><path d="M181.51,137.28a3.32,3.32,0,0,1-1.36.32.57.57,0,0,1-.65-.63,1.25,1.25,0,0,1,1.15-1.18c.72,0,.87.49.87,1.21a2.62,2.62,0,0,1,0,.28m-2.18.18a2.85,2.85,0,0,1-1.68-2.91,8.91,8.91,0,0,1,1.32-4.36,4.59,4.59,0,0,1,3.6-2.37c1.5,0,2.5,1.2,2.5,3.07,0,1.07-.5,4.63-3.2,6.21-.07-.74-.27-1.6-1.22-1.6a1.55,1.55,0,0,0-1.44,1.48A1.13,1.13,0,0,0,179.33,137.46Zm2.58.07a7,7,0,0,0,4.31-6.21,3.52,3.52,0,0,0-3.56-3.82c-3.07,0-6.18,3.3-6.18,6.62a3.54,3.54,0,0,0,3.58,3.8,4.84,4.84,0,0,0,1.42-.22,10.27,10.27,0,0,0-.08,1.21c0,.41,0,1.49,1.15,1.49,1.7,0,2.34-2.69,2.34-2.77a.14.14,0,0,0-.13-.15c-.09,0-.12.08-.16.23a2,2,0,0,1-1.7,1.43C182.17,139.14,182,138.63,181.91,137.53Z" transform="translate(-14.09 -12.96)"/><path d="M192.57,155.79s0-.07-.25-.31c-1.43-1.46-2.24-3.83-2.24-6.76a9.51,9.51,0,0,1,2.34-6.88c.15-.13.15-.16.15-.2s-.07-.11-.13-.11a5.94,5.94,0,0,0-2.07,2.44,10.26,10.26,0,0,0-1.06,4.75,10.57,10.57,0,0,0,.95,4.53,6.1,6.1,0,0,0,2.18,2.66.12.12,0,0,0,.13-.12" transform="translate(-14.09 -12.96)"/><path d="M198.6,147c-.17,0-.7,0-.7.59a.6.6,0,1,0,1.19,0c0-1-1-1.66-2.17-1.66a3.18,3.18,0,0,0-3,3.31,3.12,3.12,0,0,0,3,3.24,2.31,2.31,0,0,0,2.33-1.85.12.12,0,0,0-.14-.13c-.13,0-.15,0-.19.22a1.9,1.9,0,0,1-1.87,1.45c-.87,0-2-.76-2-2.95,0-2.38,1.23-3,1.94-3a2,2,0,0,1,1.67.77" transform="translate(-14.09 -12.96)"/><path d="M203.12,152.13a1.83,1.83,0,0,1-1.6-.94,4.19,4.19,0,0,1-.4-2.09,3.64,3.64,0,0,1,.45-2.07,1.83,1.83,0,0,1,1.53-.85,1.89,1.89,0,0,1,1.56.82,3.85,3.85,0,0,1,.44,2.1,4.46,4.46,0,0,1-.37,2.07,1.88,1.88,0,0,1-1.61,1m3.07-2.9a3.09,3.09,0,1,0-6.16,0,3.08,3.08,0,1,0,6.16,0Z" transform="translate(-14.09 -12.96)"/><path d="M211.31,146.22c0-.26,0-.33-.14-.33s-.39.32-.49.45a2,2,0,0,0-1.35-.45c-1.74,0-2.26,1-2.26,1.74a1.51,1.51,0,0,0,.55,1.17,3.13,3.13,0,0,0,1.61.63,2.4,2.4,0,0,1,1.34.49,1.2,1.2,0,0,1,.44.93c0,.62-.36,1.31-1.62,1.31-.95,0-1.64-.55-2-2-.05-.25-.05-.27-.07-.28a.13.13,0,0,0-.13-.06c-.16,0-.16.07-.16.33v2c0,.26,0,.33.15.33s.08,0,.33-.31a1.83,1.83,0,0,1,.29-.36,1.93,1.93,0,0,0,1.56.67c1.51,0,2.26-.83,2.26-2a1.9,1.9,0,0,0-.61-1.37,3.23,3.23,0,0,0-1.85-.7c-.43-.09-1.48-.29-1.48-1.15,0-.45.3-1.11,1.6-1.11a1.61,1.61,0,0,1,1.67,1.78.14.14,0,0,0,.16.12c.16,0,.16-.07.16-.33v-1.5" transform="translate(-14.09 -12.96)"/><path d="M220.24,151.88H218c-.16,0-.17,0-.17-.16a1.39,1.39,0,0,1,.06-.31l1-4.06h2.7a1.61,1.61,0,0,1,1.7,1.7,3,3,0,0,1-3,2.84m2-4.71c1.56-.29,3-1.38,3-2.7,0-1.12-1-2-2.61-2h-4.61c-.28,0-.41,0-.41.27s.13.15.35.15c.88,0,.88.11.88.27a1.21,1.21,0,0,1-.06.33l-1.94,7.73c-.13.5-.16.64-1.16.64-.28,0-.42,0-.42.26s.09.16.37.16h4.93c2.2,0,3.89-1.67,3.89-3.12A2.18,2.18,0,0,0,222.29,147.17Zm-2.43-3.7c.13-.54.18-.56.74-.56h1.87a1.45,1.45,0,0,1,1.62,1.5,2.93,2.93,0,0,1-3.05,2.65H219Z" transform="translate(-14.09 -12.96)"/><path d="M228.8,152.36c0-.83-.27-1.45-.86-1.45a.68.68,0,0,0-.69.69.69.69,0,0,0,.7.7.65.65,0,0,0,.48-.19s0,0,.06,0a1,1,0,0,1,0,.28,3.4,3.4,0,0,1-.92,2.34c-.15.17-.15.2-.15.23a.15.15,0,0,0,.14.14,3.46,3.46,0,0,0,1.22-2.71" transform="translate(-14.09 -12.96)"/><path d="M237,146.22c0-.26,0-.33-.14-.33s-.39.32-.49.45a2,2,0,0,0-1.35-.45c-1.74,0-2.26,1-2.26,1.74a1.51,1.51,0,0,0,.55,1.17,3.13,3.13,0,0,0,1.61.63,2.4,2.4,0,0,1,1.34.49,1.2,1.2,0,0,1,.44.93c0,.62-.36,1.31-1.62,1.31-1,0-1.64-.55-2-2a1.71,1.71,0,0,0-.07-.28.13.13,0,0,0-.13-.06c-.16,0-.16.07-.16.33v2c0,.26,0,.33.15.33s.09,0,.33-.31a1.83,1.83,0,0,1,.29-.36,1.93,1.93,0,0,0,1.56.67c1.51,0,2.26-.83,2.26-2a1.9,1.9,0,0,0-.61-1.37,3.23,3.23,0,0,0-1.85-.7c-.43-.09-1.48-.29-1.48-1.15,0-.45.3-1.11,1.6-1.11a1.61,1.61,0,0,1,1.67,1.78.14.14,0,0,0,.16.12c.16,0,.16-.07.16-.33v-1.5" transform="translate(-14.09 -12.96)"/><path d="M238.32,146.12v.42c.92,0,1.05.08,1.05.79v3.91c0,.64-.16.64-1.1.64v.42c.41,0,1.1,0,1.51,0,.16,0,1,0,1.48,0v-.42c-.93,0-1-.07-1-.63V146l-2,.16m2-2.67a.7.7,0,0,0-.71-.7.7.7,0,0,0,0,1.39A.7.7,0,0,0,240.3,143.45Z" transform="translate(-14.09 -12.96)"/><path d="M248.09,148.81c0-1.34,0-1.74-.33-2.2a1.88,1.88,0,0,0-1.58-.65,2.24,2.24,0,0,0-2.05,1.48h0V146l-2,.16v.42c1,0,1.09.1,1.09.8v3.9c0,.64-.16.64-1.09.64v.42c.37,0,1.15,0,1.55,0s1.19,0,1.57,0v-.42c-.92,0-1.09,0-1.09-.64v-2.67a2.09,2.09,0,0,1,1.88-2.32c.89,0,1.09.73,1.09,1.61v3.38c0,.64-.16.64-1.09.64v.42c.37,0,1.15,0,1.55,0s1.19,0,1.56,0v-.42c-.71,0-1.07,0-1.09-.43v-2.64" transform="translate(-14.09 -12.96)"/><path d="M257.55,151.88h-2.26c-.16,0-.17,0-.17-.16a2.19,2.19,0,0,1,0-.31l1-4.06h2.7a1.61,1.61,0,0,1,1.7,1.7,3,3,0,0,1-3,2.84m2-4.71c1.56-.29,3-1.38,3-2.7,0-1.12-1-2-2.61-2h-4.61c-.28,0-.4,0-.4.27s.12.15.34.15c.88,0,.88.11.88.27a1.21,1.21,0,0,1-.06.33l-1.94,7.73c-.13.5-.16.64-1.16.64-.28,0-.42,0-.42.26s.08.16.37.16h4.93c2.2,0,3.89-1.67,3.89-3.12A2.18,2.18,0,0,0,259.59,147.17Zm-2.43-3.7c.13-.54.19-.56.74-.56h1.87a1.46,1.46,0,0,1,1.63,1.5,2.94,2.94,0,0,1-3.06,2.65h-2.07Z" transform="translate(-14.09 -12.96)"/><path d="M267.35,148.72a10.62,10.62,0,0,0-1-4.54,6.11,6.11,0,0,0-2.18-2.65c-.06,0-.13,0-.13.11s0,.07.24.32c1.44,1.45,2.24,3.82,2.24,6.75s-.67,5.19-2.34,6.88c-.14.13-.14.16-.14.2a.12.12,0,0,0,.13.12,6.08,6.08,0,0,0,2.07-2.45,10.34,10.34,0,0,0,1.06-4.74" transform="translate(-14.09 -12.96)"/><path d="M122.59,72.47c.13-.54.18-.56.74-.56h1.43c1.07,0,2,.34,2,1.42a3.73,3.73,0,0,1-.84,2.25,3,3,0,0,1-2.24.81h-2l1-3.92m-1,4.26H124c2,0,4-1.46,4-3.1,0-1.12-1-2.14-2.76-2.14h-4.44c-.27,0-.4,0-.4.27s.13.15.35.15c.87,0,.87.11.87.27a1.21,1.21,0,0,1-.06.33l-1.94,7.73c-.12.5-.15.64-1.16.64-.27,0-.42,0-.42.26s.13.16.22.16l.83,0h1.68l.85,0c.12,0,.27,0,.27-.27s-.13-.15-.34-.15c-.86,0-.88-.1-.88-.24a2,2,0,0,1,0-.24Z" transform="translate(-14.09 -12.96)"/><path d="M137.77,89.79s0-.07-.25-.31c-1.43-1.46-2.24-3.83-2.24-6.76a9.51,9.51,0,0,1,2.34-6.88c.15-.13.15-.16.15-.2s-.07-.11-.13-.11A5.94,5.94,0,0,0,135.57,78a10.26,10.26,0,0,0-1.06,4.75,10.57,10.57,0,0,0,1,4.53,6.1,6.1,0,0,0,2.18,2.66.12.12,0,0,0,.13-.12" transform="translate(-14.09 -12.96)"/><path d="M143.8,81c-.17,0-.7,0-.7.59a.6.6,0,1,0,1.19,0c0-1-1-1.66-2.17-1.66a3.18,3.18,0,0,0-3,3.31,3.12,3.12,0,0,0,3,3.24,2.31,2.31,0,0,0,2.33-1.85.12.12,0,0,0-.14-.13c-.13,0-.15.05-.19.22a1.9,1.9,0,0,1-1.87,1.45c-.87,0-2-.76-2-2.95,0-2.38,1.23-3,1.94-3a2,2,0,0,1,1.67.77" transform="translate(-14.09 -12.96)"/><path d="M148.32,86.13a1.83,1.83,0,0,1-1.6-.94,4.19,4.19,0,0,1-.4-2.09,3.64,3.64,0,0,1,.45-2.07,1.83,1.83,0,0,1,1.53-.85,1.89,1.89,0,0,1,1.56.82,3.85,3.85,0,0,1,.44,2.1,4.46,4.46,0,0,1-.37,2.07,1.88,1.88,0,0,1-1.61,1m3.07-2.9a3.09,3.09,0,1,0-6.16,0,3.08,3.08,0,1,0,6.16,0Z" transform="translate(-14.09 -12.96)"/><path d="M156.51,80.22c0-.26,0-.33-.14-.33s-.39.32-.49.45a2,2,0,0,0-1.35-.45c-1.74,0-2.26,1-2.26,1.74a1.51,1.51,0,0,0,.55,1.17,3.13,3.13,0,0,0,1.61.63,2.4,2.4,0,0,1,1.34.49,1.2,1.2,0,0,1,.44.93c0,.62-.36,1.31-1.62,1.31-1,0-1.64-.55-2-2a1.71,1.71,0,0,0-.07-.28.13.13,0,0,0-.13-.06c-.16,0-.16.07-.16.33v2c0,.26,0,.33.15.33s.09,0,.33-.31a1.83,1.83,0,0,1,.29-.36,1.93,1.93,0,0,0,1.56.67c1.51,0,2.26-.83,2.26-2a1.9,1.9,0,0,0-.61-1.37,3.23,3.23,0,0,0-1.85-.7c-.43-.09-1.48-.29-1.48-1.15,0-.45.3-1.11,1.6-1.11a1.61,1.61,0,0,1,1.67,1.78.14.14,0,0,0,.16.12c.16,0,.16-.07.16-.33v-1.5" transform="translate(-14.09 -12.96)"/><path d="M164,82.49l2.88-4.82.49,4.82Zm-1.73,2.22a2,2,0,0,1-1.68,1.17c-.16,0-.27,0-.27.28a.15.15,0,0,0,.17.14l1.16,0,1.28,0c.09,0,.26,0,.26-.27s-.11-.15-.2-.15c-.33,0-.6-.14-.6-.48a1.3,1.3,0,0,1,.27-.68l1.09-1.81h3.66c0,.13,0,.25,0,.37.05.38.22,1.87.22,2.14,0,.43-.73.46-1,.46s-.32,0-.32.26.13.16.22.16l.77,0h.82c.88,0,1.51,0,1.52,0s.26,0,.26-.27-.13-.15-.34-.15c-.79,0-.81-.12-.85-.56l-.88-9c0-.29-.08-.32-.24-.32s-.23,0-.36.25Z" transform="translate(-14.09 -12.96)"/><path d="M173.1,86.36c0-.83-.27-1.45-.86-1.45a.68.68,0,0,0-.69.69.69.69,0,0,0,.7.7.65.65,0,0,0,.48-.19s0,0,.06,0a1,1,0,0,1,0,.28,3.4,3.4,0,0,1-.92,2.34c-.15.17-.15.2-.15.23a.15.15,0,0,0,.14.14,3.46,3.46,0,0,0,1.22-2.71" transform="translate(-14.09 -12.96)"/><path d="M181.31,80.22c0-.26,0-.33-.14-.33s-.39.32-.49.45a2,2,0,0,0-1.35-.45c-1.74,0-2.26,1-2.26,1.74a1.51,1.51,0,0,0,.55,1.17,3.13,3.13,0,0,0,1.61.63,2.4,2.4,0,0,1,1.34.49,1.2,1.2,0,0,1,.44.93c0,.62-.36,1.31-1.62,1.31-.95,0-1.64-.55-2-2-.05-.25-.05-.27-.07-.28a.13.13,0,0,0-.13-.06c-.16,0-.16.07-.16.33v2c0,.26,0,.33.15.33s.08,0,.33-.31a1.83,1.83,0,0,1,.29-.36,1.93,1.93,0,0,0,1.56.67c1.51,0,2.26-.83,2.26-2a1.9,1.9,0,0,0-.61-1.37,3.23,3.23,0,0,0-1.85-.7c-.43-.09-1.48-.29-1.48-1.15,0-.45.3-1.11,1.6-1.11A1.61,1.61,0,0,1,181,81.93a.14.14,0,0,0,.16.12c.16,0,.16-.07.16-.33v-1.5" transform="translate(-14.09 -12.96)"/><path d="M182.62,80.12v.42c.92,0,1,.08,1,.79v3.91c0,.64-.16.64-1.1.64v.42c.41,0,1.1,0,1.51,0,.16,0,1,0,1.48,0v-.42c-.93,0-1-.07-1-.63V80l-1.95.16m2-2.67a.7.7,0,0,0-.71-.7.7.7,0,0,0,0,1.39A.7.7,0,0,0,184.6,77.45Z" transform="translate(-14.09 -12.96)"/><path d="M192.39,82.81c0-1.34,0-1.74-.33-2.2a1.88,1.88,0,0,0-1.58-.65,2.24,2.24,0,0,0-2,1.48h0V80l-1.95.16v.42c1,0,1.09.1,1.09.8v3.9c0,.64-.16.64-1.09.64v.42c.37,0,1.15,0,1.55,0s1.19,0,1.57,0v-.42c-.92,0-1.09,0-1.09-.64V82.57a2.09,2.09,0,0,1,1.88-2.32c.89,0,1.09.73,1.09,1.61v3.38c0,.64-.16.64-1.09.64v.42c.37,0,1.15,0,1.55,0s1.19,0,1.56,0v-.42c-.71,0-1.07,0-1.09-.43V82.81" transform="translate(-14.09 -12.96)"/><path d="M200.37,82.49l2.88-4.82.49,4.82Zm-1.73,2.22A2,2,0,0,1,197,85.88c-.16,0-.27,0-.27.28a.15.15,0,0,0,.17.14l1.16,0,1.28,0c.09,0,.26,0,.26-.27s-.11-.15-.2-.15c-.33,0-.6-.14-.6-.48a1.3,1.3,0,0,1,.27-.68l1.09-1.81h3.66c0,.13,0,.25,0,.37.05.38.22,1.87.22,2.14,0,.43-.73.46-1,.46s-.32,0-.32.26.13.16.22.16l.77,0h.82c.88,0,1.51,0,1.52,0s.26,0,.26-.27-.13-.15-.34-.15c-.79,0-.81-.12-.85-.56l-.88-9c0-.29-.08-.32-.24-.32s-.23,0-.36.25Z" transform="translate(-14.09 -12.96)"/><path d="M210.85,82.72a10.62,10.62,0,0,0-.95-4.54,6.11,6.11,0,0,0-2.18-2.65c-.06,0-.13,0-.13.11s0,.07.24.32c1.44,1.45,2.24,3.82,2.24,6.75s-.67,5.19-2.34,6.88c-.14.13-.14.16-.14.2a.12.12,0,0,0,.13.12,6.08,6.08,0,0,0,2.07-2.45,10.34,10.34,0,0,0,1.06-4.74" transform="translate(-14.09 -12.96)"/><path d="M139.32,140.66l3.92,8h-7.83Zm.77-1.06c-.1-.2-.13-.26-.33-.26s-.24.06-.34.26l-4.8,9.71a.42.42,0,0,0-.06.19c0,.09,0,.1.3.1h9.78c.29,0,.31,0,.31-.1a.42.42,0,0,0-.06-.19Z" transform="translate(-14.09 -12.96)"/><path d="M152.41,143.74a.72.72,0,0,0-.63.7.44.44,0,0,0,.47.46.75.75,0,0,0,.73-.76c0-.6-.69-.88-1.29-.88a1.83,1.83,0,0,0-1.49,1.14,1.49,1.49,0,0,0-1.48-1.14c-1.47,0-2.24,1.89-2.24,2.2a.14.14,0,0,0,.15.13c.12,0,.15-.08.18-.14.48-1.6,1.45-1.9,1.86-1.9.65,0,.78.61.78.95a6.16,6.16,0,0,1-.26,1.34l-.49,2c-.21.87-.63,1.66-1.39,1.66a1.42,1.42,0,0,1-.73-.19.75.75,0,0,0,.63-.7.45.45,0,0,0-.49-.46.75.75,0,0,0-.72.76c0,.6.68.87,1.29.87a1.77,1.77,0,0,0,1.48-1.13,1.51,1.51,0,0,0,1.49,1.13c1.46,0,2.23-1.88,2.23-2.19a.12.12,0,0,0-.14-.13c-.13,0-.14.07-.18.18-.39,1.27-1.23,1.86-1.87,1.86s-.78-.38-.78-1a6.63,6.63,0,0,1,.29-1.49l.5-1.95c.22-.87.71-1.5,1.37-1.5a1.53,1.53,0,0,1,.73.19" transform="translate(-14.09 -12.96)"/><path d="M111,110.66l3.92,8h-7.83Zm.77-1.06c-.1-.2-.13-.26-.33-.26s-.24.06-.34.26l-4.8,9.71a.42.42,0,0,0-.06.19c0,.09,0,.1.3.1h9.78c.29,0,.31,0,.31-.1a.42.42,0,0,0-.06-.19Z" transform="translate(-14.09 -12.96)"/><path d="M121.08,121.21a2.12,2.12,0,0,1-1.65,1,1.07,1.07,0,0,1-1.08-.69.36.36,0,0,0,.14,0,.73.73,0,0,0,.72-.71.44.44,0,0,0-.49-.44.78.78,0,0,0-.73.88,1.3,1.3,0,0,0,1.44,1.23,3.79,3.79,0,0,0,3.29-2.92l1.4-5.6a.93.93,0,0,0,0-.24.37.37,0,0,0-.39-.36.58.58,0,0,0-.55.49l-1.06,4.22a.94.94,0,0,1-.19.45,1.85,1.85,0,0,1-1.45.89c-.8,0-.87-.79-.87-1.18a9.62,9.62,0,0,1,.77-3,2.46,2.46,0,0,0,.25-.91,1.12,1.12,0,0,0-1.14-1.15c-1.32,0-1.85,2.09-1.85,2.2a.14.14,0,0,0,.15.13c.13,0,.15-.06.21-.26.34-1.2.89-1.78,1.45-1.78.13,0,.37,0,.37.48a4,4,0,0,1-.37,1.33,7.12,7.12,0,0,0-.71,2.7,1.55,1.55,0,0,0,1.7,1.68,1.9,1.9,0,0,0,1.43-.66l0,0a5.54,5.54,0,0,1-.86,2.11" transform="translate(-14.09 -12.96)"/><path class="cls-4" d="M81.44,224.14a45.46,45.46,0,0,0-6.07-22.68L36.09,224.14" transform="translate(-14.09 -12.96)"/><path class="cls-5" d="M81.44,224.14c0-8-2.1-15.79-4.28-19.56" transform="translate(-14.09 -12.96)"/><path class="cls-6" d="M75.37,201.46a14.64,14.64,0,0,1,.7,4.21l2.59-1.5a14.52,14.52,0,0,1-3.29-2.71" transform="translate(-14.09 -12.96)"/><path class="cls-4" d="M70.1,224.14a34,34,0,0,0-17-29.46l-17,29.46" transform="translate(-14.09 -12.96)"/><path class="cls-6" d="M53.35,194.31a14.54,14.54,0,0,1,2.53,3.44l1.64-2.52a14.31,14.31,0,0,1-4.17-.92" transform="translate(-14.09 -12.96)"/><line class="cls-5" x1="51.95" y1="193.88" x2="158.06" y2="132.62"/><line class="cls-5" x1="22" y1="211.17" x2="101.43" y2="73.6"/><path class="cls-6" d="M90.84,213.93H88.59c-.16,0-.18,0-.18-.16a1.47,1.47,0,0,1,.06-.32l1-4.05h2.7a1.61,1.61,0,0,1,1.69,1.7,3,3,0,0,1-3,2.84m2-4.71c1.57-.29,3-1.38,3-2.7,0-1.12-1-2-2.62-2H88.64c-.27,0-.4,0-.4.27s.13.14.35.14c.87,0,.87.12.87.28a1.21,1.21,0,0,1-.06.33l-1.94,7.73c-.12.5-.15.64-1.16.64-.27,0-.42,0-.42.26s.09.16.38.16h4.93c2.19,0,3.89-1.67,3.89-3.12A2.18,2.18,0,0,0,92.88,209.22Zm-2.43-3.7c.13-.54.19-.57.75-.57h1.87a1.46,1.46,0,0,1,1.62,1.51,2.94,2.94,0,0,1-3.06,2.65H89.56Z" transform="translate(-14.09 -12.96)"/><line class="cls-5" x1="21.98" y1="211.1" x2="51.18" y2="194.25"/><path class="cls-6" d="M51.66,215.64l2.89-4.82.49,4.82Zm-1.72,2.21A2,2,0,0,1,48.26,219c-.16,0-.28,0-.28.28a.16.16,0,0,0,.18.14l1.16,0,1.28,0c.08,0,.26,0,.26-.27s-.12-.15-.2-.15c-.34,0-.61-.14-.61-.49a1.4,1.4,0,0,1,.27-.67l1.1-1.81h3.66c0,.13,0,.24,0,.37,0,.38.21,1.87.21,2.14,0,.43-.73.46-1,.46s-.32,0-.32.26.13.16.22.16l.78,0h.82c.87,0,1.5,0,1.52,0s.26,0,.26-.27-.13-.15-.35-.15c-.79,0-.8-.13-.85-.56l-.87-9c0-.29-.09-.32-.25-.32s-.23,0-.36.25Z" transform="translate(-14.09 -12.96)"/><path class="cls-5" d="M70.1,223.34c0-11.11-6.92-22-14.11-27.31" transform="translate(-14.09 -12.96)"/><line class="cls-7" x1="101.08" y1="73.6" x2="101.08" y2="96.38"/><line class="cls-7" x1="101.07" y1="110.47" x2="101.07" y2="133.26"/><line class="cls-7" x1="102.07" y1="131.94" x2="119.41" y2="131.94"/><line class="cls-7" x1="141.84" y1="131.67" x2="159.18" y2="131.67"/></svg>