<svg id="Layer_1" data-name="Layer 1" xmlns="http://www.w3.org/2000/svg" viewBox="0 0 263.26 225.44"><defs><style>.cls-1,.cls-2,.cls-3,.cls-4{fill:none;}.cls-2,.cls-4{stroke:#000;}.cls-2,.cls-3,.cls-4{stroke-linecap:round;stroke-miterlimit:10;}.cls-2,.cls-3{stroke-width:0.8px;}.cls-3{stroke:#27c9b8;stroke-dasharray:2.99 2.99;}.cls-4{stroke-width:0.4px;}.cls-5{fill:#fff;}</style></defs><title>TrigIden.04</title><path class="cls-1" d="M84.42,228A47.75,47.75,0,0,0,78,204.22L36.79,228" transform="translate(-15.09 -16.96)"/><path class="cls-2" d="M84.42,228c0-8.36-2.21-16.58-4.58-20.7" transform="translate(-15.09 -16.96)"/><path d="M78,204.22a14.77,14.77,0,0,1,.7,4.22l2.59-1.5A14.28,14.28,0,0,1,78,204.22" transform="translate(-15.09 -16.96)"/><path class="cls-2" d="M68.54,228c0-11.35-6.05-21.83-12.76-25.7" transform="translate(-15.09 -16.96)"/><path d="M52.67,200.54a14.59,14.59,0,0,1,2.71,3.3l1.5-2.6a14.3,14.3,0,0,1-4.21-.7" transform="translate(-15.09 -16.96)"/><path d="M91.44,218.18H89.19c-.16,0-.17,0-.17-.16a2.19,2.19,0,0,1,0-.31l1-4.06h2.7a1.61,1.61,0,0,1,1.7,1.7,3,3,0,0,1-3,2.84m2-4.71c1.56-.29,3-1.38,3-2.7,0-1.12-1-2-2.61-2H89.25c-.28,0-.41,0-.41.27s.13.15.35.15c.88,0,.88.11.88.27a1.21,1.21,0,0,1-.06.33l-1.94,7.73c-.13.5-.16.64-1.16.64-.28,0-.42,0-.42.26s.08.16.37.16h4.93c2.2,0,3.89-1.67,3.89-3.12A2.17,2.17,0,0,0,93.49,213.47Zm-2.43-3.7c.13-.54.18-.56.75-.56h1.86a1.45,1.45,0,0,1,1.62,1.5,2.93,2.93,0,0,1-3.05,2.65H90.17Z" transform="translate(-15.09 -16.96)"/><line class="cls-2" x1="21.7" y1="211.07" x2="216.55" y2="211.07"/><path d="M235.22,228a14.33,14.33,0,0,1-4-1.5v3a14,14,0,0,1,4-1.49" transform="translate(-15.09 -16.96)"/><path d="M245.51,225.24a.72.72,0,0,0-.63.7.44.44,0,0,0,.47.46.75.75,0,0,0,.73-.76c0-.6-.69-.88-1.29-.88a1.83,1.83,0,0,0-1.49,1.14,1.49,1.49,0,0,0-1.48-1.14c-1.47,0-2.24,1.89-2.24,2.2a.14.14,0,0,0,.15.13c.12,0,.15-.08.18-.14.48-1.6,1.45-1.9,1.86-1.9.65,0,.78.61.78.95a6.16,6.16,0,0,1-.26,1.34l-.49,2c-.21.87-.63,1.66-1.39,1.66a1.42,1.42,0,0,1-.73-.19.75.75,0,0,0,.63-.7.45.45,0,0,0-.49-.46.75.75,0,0,0-.72.76c0,.6.68.87,1.29.87a1.8,1.8,0,0,0,1.49-1.13,1.48,1.48,0,0,0,1.47,1.13c1.47,0,2.24-1.88,2.24-2.19a.12.12,0,0,0-.14-.13c-.13,0-.14.07-.18.18-.39,1.27-1.23,1.86-1.87,1.86s-.78-.38-.78-1a6.63,6.63,0,0,1,.29-1.49l.5-1.95c.22-.87.71-1.5,1.37-1.5a1.53,1.53,0,0,1,.73.19" transform="translate(-15.09 -16.96)"/><line class="cls-2" x1="21.7" y1="211.07" x2="21.7" y2="16.23"/><path d="M36.79,29.61a14.28,14.28,0,0,1-1.49,4h3a14.33,14.33,0,0,1-1.5-4" transform="translate(-15.09 -16.96)"/><path d="M36.88,24.91a2.12,2.12,0,0,1-1.65,1,1.07,1.07,0,0,1-1.08-.69.36.36,0,0,0,.14,0,.73.73,0,0,0,.72-.71.44.44,0,0,0-.49-.44.78.78,0,0,0-.73.88,1.3,1.3,0,0,0,1.44,1.23,3.79,3.79,0,0,0,3.29-2.92l1.4-5.6a.93.93,0,0,0,0-.24.37.37,0,0,0-.39-.36.58.58,0,0,0-.55.49L38,21.82a.94.94,0,0,1-.19.45,1.85,1.85,0,0,1-1.45.89c-.8,0-.87-.79-.87-1.18a9.62,9.62,0,0,1,.77-3,2.46,2.46,0,0,0,.25-.91A1.12,1.12,0,0,0,35.34,17c-1.32,0-1.85,2.09-1.85,2.2a.14.14,0,0,0,.15.13c.13,0,.15-.06.21-.26.34-1.2.89-1.78,1.45-1.78.13,0,.37,0,.37.48a4,4,0,0,1-.37,1.33,7.12,7.12,0,0,0-.71,2.7,1.55,1.55,0,0,0,1.7,1.68,1.9,1.9,0,0,0,1.43-.66l0,0a5.54,5.54,0,0,1-.86,2.11" transform="translate(-15.09 -16.96)"/><line class="cls-3" x1="101.07" y1="73.6" x2="159.18" y2="131.7"/><line class="cls-2" x1="42.33" y1="199.16" x2="103.47" y2="163.87"/><path d="M50.87,220.39l2.88-4.82.49,4.82Zm-1.73,2.21a1.94,1.94,0,0,1-1.68,1.18c-.16,0-.27,0-.27.28a.15.15,0,0,0,.17.14l1.16,0,1.28,0c.09,0,.26,0,.26-.27s-.11-.15-.2-.15c-.33,0-.6-.14-.6-.48a1.3,1.3,0,0,1,.27-.68l1.09-1.81h3.66c0,.13,0,.24,0,.37,0,.38.22,1.87.22,2.14,0,.44-.73.46-1,.46s-.32,0-.32.26.13.16.22.16l.77,0h.82c.88,0,1.51,0,1.52,0s.26,0,.26-.27-.13-.15-.34-.15c-.79,0-.81-.12-.85-.56l-.88-9c0-.29-.08-.32-.24-.32s-.23,0-.36.25Z" transform="translate(-15.09 -16.96)"/><line class="cls-2" x1="69.13" y1="128.92" x2="21.7" y2="211.07"/><line class="cls-4" x1="21.7" y1="208.28" x2="21.7" y2="213.86"/><line class="cls-4" x1="101.07" y1="208.28" x2="101.07" y2="213.86"/><path d="M110.7,242.11c-.46,0-1.39-.25-1.66-1.82a17.46,17.46,0,0,1-.16-3,12.58,12.58,0,0,1,.23-3.09,1.72,1.72,0,0,1,1.59-1.41,1.75,1.75,0,0,1,1.66,1.57,15.17,15.17,0,0,1,.18,2.93,18.67,18.67,0,0,1-.15,2.93c-.28,1.58-1.18,1.85-1.69,1.85m2.94-4.61a8,8,0,0,0-.59-3.45,2.57,2.57,0,0,0-4.72.11,7.62,7.62,0,0,0-.54,3.34,7.24,7.24,0,0,0,.62,3.47,2.55,2.55,0,0,0,2.29,1.43,2.57,2.57,0,0,0,2.39-1.58A8,8,0,0,0,113.64,237.5Z" transform="translate(-15.09 -16.96)"/><path d="M116.84,241.41a.7.7,0,1,0-.7.69.69.69,0,0,0,.7-.69" transform="translate(-15.09 -16.96)"/><path d="M119.94,233.87a4.23,4.23,0,0,0,1.28.21,3.09,3.09,0,0,0,2.66-1.39.12.12,0,0,0-.12-.13.41.41,0,0,0-.19.06,4.79,4.79,0,0,1-1.86.39,4.59,4.59,0,0,1-1.9-.41.39.39,0,0,0-.14,0c-.12,0-.12.09-.12.32v4.26c0,.26,0,.35.17.35s.09,0,.23-.19a2.16,2.16,0,0,1,1.8-.93,1.48,1.48,0,0,1,1.25.95,4.76,4.76,0,0,1,.26,1.81,3.75,3.75,0,0,1-.41,2,1.76,1.76,0,0,1-1.5.87,2.21,2.21,0,0,1-2.14-1.69.59.59,0,0,0,.23,0,.63.63,0,0,0,0-1.26.61.61,0,0,0-.64.69,2.62,2.62,0,0,0,2.58,2.61,3.11,3.11,0,0,0,3-3.19,2.91,2.91,0,0,0-2.66-3.13,2.47,2.47,0,0,0-1.82.76v-3" transform="translate(-15.09 -16.96)"/><line class="cls-4" x1="180.45" y1="208.28" x2="180.45" y2="213.86"/><path d="M196.14,232.89c0-.33,0-.34-.29-.34a3.2,3.2,0,0,1-2.54.92v.41a4.12,4.12,0,0,0,1.83-.37V241c0,.52,0,.69-1.3.69h-.45v.42c.39,0,1.78,0,2.26,0s1.85,0,2.24,0v-.42h-.45c-1.26,0-1.3-.17-1.3-.69v-8.1" transform="translate(-15.09 -16.96)"/><line class="cls-4" x1="164.57" y1="209.95" x2="164.57" y2="212.19"/><line class="cls-4" x1="148.7" y1="209.95" x2="148.7" y2="212.19"/><line class="cls-4" x1="132.82" y1="209.95" x2="132.82" y2="212.19"/><line class="cls-4" x1="116.95" y1="209.95" x2="116.95" y2="212.19"/><line class="cls-4" x1="85.2" y1="209.95" x2="85.2" y2="212.19"/><line class="cls-4" x1="69.33" y1="209.95" x2="69.33" y2="212.19"/><line class="cls-4" x1="53.45" y1="209.95" x2="53.45" y2="212.19"/><line class="cls-4" x1="37.58" y1="209.95" x2="37.58" y2="212.19"/><line class="cls-4" x1="24.49" y1="131.7" x2="18.92" y2="131.7"/><path d="M18,153.31c-.47,0-1.4-.25-1.67-1.82a17.46,17.46,0,0,1-.16-3,12.58,12.58,0,0,1,.23-3.09A1.72,1.72,0,0,1,18,144a1.75,1.75,0,0,1,1.65,1.57,15.17,15.17,0,0,1,.18,2.93,18.67,18.67,0,0,1-.15,2.93c-.28,1.58-1.18,1.85-1.68,1.85m2.93-4.61a7.91,7.91,0,0,0-.59-3.44,2.57,2.57,0,0,0-4.72.1,7.62,7.62,0,0,0-.54,3.34,7.24,7.24,0,0,0,.62,3.47,2.57,2.57,0,0,0,4.68-.15A8,8,0,0,0,20.94,148.7Z" transform="translate(-15.09 -16.96)"/><path d="M24.14,152.61a.7.7,0,1,0-.7.69.69.69,0,0,0,.7-.69" transform="translate(-15.09 -16.96)"/><path d="M27.34,145.07a4.23,4.23,0,0,0,1.28.21,3.06,3.06,0,0,0,2.65-1.39c0-.06,0-.13-.11-.13a.41.41,0,0,0-.19.06,4.79,4.79,0,0,1-1.86.39,4.59,4.59,0,0,1-1.9-.41.39.39,0,0,0-.14,0c-.12,0-.12.09-.12.32v4.26c0,.26,0,.35.17.35s.09,0,.23-.19a2.18,2.18,0,0,1,1.8-.93,1.48,1.48,0,0,1,1.25,1,4.76,4.76,0,0,1,.26,1.81,3.83,3.83,0,0,1-.4,2,1.81,1.81,0,0,1-1.51.87,2.21,2.21,0,0,1-2.14-1.69.59.59,0,0,0,.23,0,.63.63,0,1,0-.63-.57,2.61,2.61,0,0,0,2.56,2.61,3.11,3.11,0,0,0,3.05-3.19,2.91,2.91,0,0,0-2.66-3.13,2.47,2.47,0,0,0-1.82.76v-3" transform="translate(-15.09 -16.96)"/><line class="cls-4" x1="24.49" y1="52.33" x2="18.92" y2="52.33"/><path d="M24.14,64.69c0-.33,0-.34-.29-.34a3.2,3.2,0,0,1-2.54.92v.41a4.12,4.12,0,0,0,1.83-.37v7.48c0,.52,0,.69-1.3.69h-.45v.42c.39,0,1.78,0,2.26,0s1.85,0,2.24,0v-.42h-.45c-1.26,0-1.3-.17-1.3-.69v-8.1" transform="translate(-15.09 -16.96)"/><line class="cls-4" x1="22.82" y1="68.2" x2="20.59" y2="68.2"/><line class="cls-4" x1="22.82" y1="84.08" x2="20.59" y2="84.08"/><line class="cls-4" x1="22.82" y1="99.95" x2="20.59" y2="99.95"/><line class="cls-4" x1="22.82" y1="115.83" x2="20.59" y2="115.83"/><line class="cls-4" x1="22.82" y1="147.58" x2="20.59" y2="147.58"/><line class="cls-4" x1="22.82" y1="163.45" x2="20.59" y2="163.45"/><line class="cls-4" x1="22.82" y1="179.32" x2="20.59" y2="179.32"/><line class="cls-4" x1="22.82" y1="195.2" x2="20.59" y2="195.2"/><polyline class="cls-2" points="180.45 211.07 180.1 200.69 179.08 190.35 177.39 180.11 175.04 169.99 172.02 160.05 168.36 150.33 164.07 140.87 159.18 131.7 153.69 122.88 147.64 114.44 141.05 106.41 133.95 98.82 126.37 91.73 118.34 85.14 109.89 79.09 101.08 73.6 91.91 68.7 82.45 64.42 72.73 60.76 62.79 57.74 52.67 55.38 42.42 53.69 32.09 52.67 21.7 52.33"/><path d="M175.38,148.66a1.12,1.12,0,1,0-1.11,1.12A1.11,1.11,0,0,0,175.38,148.66Z" transform="translate(-15.09 -16.96)"/><path class="cls-4" d="M175.38,148.66a1.12,1.12,0,1,0-1.11,1.12A1.11,1.11,0,0,0,175.38,148.66Z" transform="translate(-15.09 -16.96)"/><path d="M117.28,90.56a1.12,1.12,0,1,0-1.12,1.12A1.12,1.12,0,0,0,117.28,90.56Z" transform="translate(-15.09 -16.96)"/><path class="cls-4" d="M117.28,90.56a1.12,1.12,0,1,0-1.12,1.12A1.12,1.12,0,0,0,117.28,90.56Z" transform="translate(-15.09 -16.96)"/><path d="M184.72,146a3.33,3.33,0,0,1-1.37.32.57.57,0,0,1-.64-.64,1.25,1.25,0,0,1,1.15-1.17c.71,0,.87.48.87,1.2a2.81,2.81,0,0,1,0,.29m-2.19.17a2.85,2.85,0,0,1-1.68-2.9,9,9,0,0,1,1.32-4.37,4.65,4.65,0,0,1,3.61-2.37c1.49,0,2.5,1.21,2.5,3.08,0,1.06-.5,4.62-3.2,6.2-.07-.73-.28-1.59-1.22-1.59a1.55,1.55,0,0,0-1.44,1.48A1.25,1.25,0,0,0,182.53,146.14Zm2.59.07a7,7,0,0,0,4.31-6.2,3.52,3.52,0,0,0-3.56-3.82c-3.08,0-6.18,3.3-6.18,6.62a3.53,3.53,0,0,0,3.58,3.79,4.83,4.83,0,0,0,1.42-.21,9.14,9.14,0,0,0-.09,1.2c0,.42,0,1.5,1.15,1.5,1.71,0,2.34-2.69,2.34-2.78a.13.13,0,0,0-.13-.14c-.08,0-.11.07-.15.23a2,2,0,0,1-1.7,1.42C185.38,147.82,185.19,147.32,185.12,146.21Z" transform="translate(-15.09 -16.96)"/><path d="M203.57,149.79s0-.07-.25-.31c-1.43-1.46-2.24-3.83-2.24-6.76a9.51,9.51,0,0,1,2.34-6.88c.15-.13.15-.16.15-.2s-.07-.11-.13-.11a5.94,5.94,0,0,0-2.07,2.44,10.26,10.26,0,0,0-1.06,4.75,10.57,10.57,0,0,0,.95,4.53,6.1,6.1,0,0,0,2.18,2.66.12.12,0,0,0,.13-.12" transform="translate(-15.09 -16.96)"/><path d="M209.6,141c-.17,0-.7,0-.7.59a.6.6,0,1,0,1.19,0c0-1-1-1.66-2.17-1.66a3.18,3.18,0,0,0-3,3.31,3.12,3.12,0,0,0,3,3.24,2.31,2.31,0,0,0,2.33-1.85.12.12,0,0,0-.14-.13c-.13,0-.15,0-.19.22a1.9,1.9,0,0,1-1.87,1.45c-.87,0-2-.76-2-2.95,0-2.38,1.23-3,1.94-3a2,2,0,0,1,1.67.77" transform="translate(-15.09 -16.96)"/><path d="M214.12,146.13a1.83,1.83,0,0,1-1.6-.94,4.19,4.19,0,0,1-.4-2.09,3.64,3.64,0,0,1,.45-2.07,1.83,1.83,0,0,1,1.53-.85,1.89,1.89,0,0,1,1.56.82,3.85,3.85,0,0,1,.44,2.1,4.46,4.46,0,0,1-.37,2.07,1.88,1.88,0,0,1-1.61,1m3.07-2.9a3.09,3.09,0,1,0-6.16,0,3.08,3.08,0,1,0,6.16,0Z" transform="translate(-15.09 -16.96)"/><path d="M222.31,140.22c0-.26,0-.33-.14-.33s-.39.32-.49.45a2,2,0,0,0-1.35-.45c-1.74,0-2.26,1-2.26,1.74a1.51,1.51,0,0,0,.55,1.17,3.13,3.13,0,0,0,1.61.63,2.4,2.4,0,0,1,1.34.49,1.2,1.2,0,0,1,.44.93c0,.62-.36,1.31-1.62,1.31-.95,0-1.64-.55-2-2-.05-.25-.05-.27-.07-.28a.13.13,0,0,0-.13-.06c-.16,0-.16.07-.16.33v2c0,.26,0,.33.15.33s.08,0,.33-.31a1.83,1.83,0,0,1,.29-.36,1.93,1.93,0,0,0,1.56.67c1.51,0,2.26-.83,2.26-2a1.9,1.9,0,0,0-.61-1.37,3.23,3.23,0,0,0-1.85-.7c-.43-.09-1.48-.29-1.48-1.15,0-.45.3-1.11,1.6-1.11a1.61,1.61,0,0,1,1.67,1.78.14.14,0,0,0,.16.12c.16,0,.16-.07.16-.33v-1.5" transform="translate(-15.09 -16.96)"/><path d="M231.24,145.88H229c-.16,0-.17,0-.17-.16a1.39,1.39,0,0,1,.06-.31l1-4.06h2.7a1.61,1.61,0,0,1,1.7,1.7,3,3,0,0,1-3,2.84m2-4.71c1.56-.29,3-1.38,3-2.7,0-1.12-1-2-2.61-2h-4.61c-.28,0-.41,0-.41.27s.13.15.35.15c.88,0,.88.11.88.27a1.21,1.21,0,0,1-.06.33l-1.94,7.73c-.13.5-.16.64-1.16.64-.28,0-.42,0-.42.26s.09.16.37.16h4.93c2.2,0,3.89-1.67,3.89-3.12A2.18,2.18,0,0,0,233.29,141.17Zm-2.43-3.7c.13-.54.18-.56.74-.56h1.87a1.45,1.45,0,0,1,1.62,1.5,2.93,2.93,0,0,1-3.05,2.65H230Z" transform="translate(-15.09 -16.96)"/><path d="M239.8,146.36c0-.83-.27-1.45-.86-1.45a.68.68,0,0,0-.69.69.69.69,0,0,0,.7.7.65.65,0,0,0,.48-.19s0,0,.06,0a1,1,0,0,1,0,.28,3.4,3.4,0,0,1-.92,2.34c-.15.17-.15.2-.15.23a.15.15,0,0,0,.14.14,3.46,3.46,0,0,0,1.22-2.71" transform="translate(-15.09 -16.96)"/><path d="M248,140.22c0-.26,0-.33-.14-.33s-.39.32-.49.45a2,2,0,0,0-1.35-.45c-1.74,0-2.26,1-2.26,1.74a1.51,1.51,0,0,0,.55,1.17,3.13,3.13,0,0,0,1.61.63,2.4,2.4,0,0,1,1.34.49,1.2,1.2,0,0,1,.44.93c0,.62-.36,1.31-1.62,1.31-1,0-1.64-.55-2-2a1.71,1.71,0,0,0-.07-.28.13.13,0,0,0-.13-.06c-.16,0-.16.07-.16.33v2c0,.26,0,.33.15.33s.09,0,.33-.31a1.83,1.83,0,0,1,.29-.36,1.93,1.93,0,0,0,1.56.67c1.51,0,2.26-.83,2.26-2a1.9,1.9,0,0,0-.61-1.37,3.23,3.23,0,0,0-1.85-.7c-.43-.09-1.48-.29-1.48-1.15,0-.45.3-1.11,1.6-1.11a1.61,1.61,0,0,1,1.67,1.78.14.14,0,0,0,.16.12c.16,0,.16-.07.16-.33v-1.5" transform="translate(-15.09 -16.96)"/><path d="M249.32,140.12v.42c.92,0,1.05.08,1.05.79v3.91c0,.64-.16.64-1.1.64v.42c.41,0,1.1,0,1.51,0,.16,0,1,0,1.48,0v-.42c-.93,0-1-.07-1-.63V140l-2,.16m2-2.67a.7.7,0,0,0-.71-.7.7.7,0,0,0,0,1.39A.7.7,0,0,0,251.3,137.45Z" transform="translate(-15.09 -16.96)"/><path d="M259.09,142.81c0-1.34,0-1.74-.33-2.2a1.88,1.88,0,0,0-1.58-.65,2.24,2.24,0,0,0-2.05,1.48h0V140l-2,.16v.42c1,0,1.09.1,1.09.8v3.9c0,.64-.16.64-1.09.64v.42c.37,0,1.15,0,1.55,0s1.19,0,1.57,0v-.42c-.92,0-1.09,0-1.09-.64v-2.67a2.09,2.09,0,0,1,1.88-2.32c.89,0,1.09.73,1.09,1.61v3.38c0,.64-.16.64-1.09.64v.42c.37,0,1.15,0,1.55,0s1.19,0,1.56,0v-.42c-.71,0-1.07,0-1.09-.43v-2.64" transform="translate(-15.09 -16.96)"/><path d="M268.55,145.88h-2.26c-.16,0-.17,0-.17-.16a2.19,2.19,0,0,1,.05-.31l1-4.06h2.7a1.61,1.61,0,0,1,1.7,1.7,3,3,0,0,1-3,2.84m2-4.71c1.56-.29,3-1.38,3-2.7,0-1.12-1-2-2.61-2h-4.61c-.28,0-.4,0-.4.27s.12.15.34.15c.88,0,.88.11.88.27a1.21,1.21,0,0,1-.06.33l-1.94,7.73c-.13.5-.16.64-1.16.64-.28,0-.42,0-.42.26s.08.16.37.16h4.93c2.2,0,3.89-1.67,3.89-3.12A2.18,2.18,0,0,0,270.59,141.17Zm-2.43-3.7c.13-.54.19-.56.74-.56h1.87a1.46,1.46,0,0,1,1.63,1.5,2.94,2.94,0,0,1-3.06,2.65h-2.07Z" transform="translate(-15.09 -16.96)"/><path d="M278.35,142.72a10.62,10.62,0,0,0-1-4.54,6.11,6.11,0,0,0-2.18-2.65c-.06,0-.13,0-.13.11s0,.07.24.32c1.44,1.45,2.24,3.82,2.24,6.75s-.67,5.19-2.34,6.88c-.14.13-.14.16-.14.2a.12.12,0,0,0,.13.12,6.08,6.08,0,0,0,2.07-2.45,10.34,10.34,0,0,0,1.06-4.74" transform="translate(-15.09 -16.96)"/><path d="M126.59,78.47c.13-.54.18-.56.74-.56h1.43c1.07,0,2,.34,2,1.42a3.73,3.73,0,0,1-.84,2.25,3,3,0,0,1-2.24.81h-2l1-3.92m-1,4.26H128c2,0,4-1.46,4-3.1,0-1.12-1-2.14-2.76-2.14h-4.44c-.27,0-.4,0-.4.27s.13.15.35.15c.87,0,.87.11.87.27a1.21,1.21,0,0,1-.06.33l-1.94,7.73c-.12.5-.15.64-1.16.64-.27,0-.42,0-.42.26s.13.16.22.16l.83,0h1.68l.85,0c.12,0,.27,0,.27-.27s-.13-.15-.34-.15c-.86,0-.88-.1-.88-.24a2,2,0,0,1,0-.24Z" transform="translate(-15.09 -16.96)"/><path d="M145.77,90.79s0-.07-.25-.31c-1.43-1.46-2.24-3.83-2.24-6.76a9.51,9.51,0,0,1,2.34-6.88c.15-.13.15-.16.15-.2s-.07-.11-.13-.11A5.94,5.94,0,0,0,143.57,79a10.26,10.26,0,0,0-1.06,4.75,10.57,10.57,0,0,0,1,4.53,6.1,6.1,0,0,0,2.18,2.66.12.12,0,0,0,.13-.12" transform="translate(-15.09 -16.96)"/><path d="M151.8,82c-.17,0-.7,0-.7.59a.6.6,0,1,0,1.19,0c0-1-1-1.66-2.17-1.66a3.18,3.18,0,0,0-3,3.31,3.12,3.12,0,0,0,3,3.24,2.31,2.31,0,0,0,2.33-1.85.12.12,0,0,0-.14-.13c-.13,0-.15.05-.19.22a1.9,1.9,0,0,1-1.87,1.45c-.87,0-2-.76-2-2.95,0-2.38,1.23-3,1.94-3a2,2,0,0,1,1.67.77" transform="translate(-15.09 -16.96)"/><path d="M156.32,87.13a1.83,1.83,0,0,1-1.6-.94,4.19,4.19,0,0,1-.4-2.09,3.64,3.64,0,0,1,.45-2.07,1.83,1.83,0,0,1,1.53-.85,1.89,1.89,0,0,1,1.56.82,3.85,3.85,0,0,1,.44,2.1,4.46,4.46,0,0,1-.37,2.07,1.88,1.88,0,0,1-1.61,1m3.07-2.9a3.09,3.09,0,1,0-6.16,0,3.08,3.08,0,1,0,6.16,0Z" transform="translate(-15.09 -16.96)"/><path d="M164.51,81.22c0-.26,0-.33-.14-.33s-.39.32-.49.45a2,2,0,0,0-1.35-.45c-1.74,0-2.26,1-2.26,1.74a1.51,1.51,0,0,0,.55,1.17,3.13,3.13,0,0,0,1.61.63,2.4,2.4,0,0,1,1.34.49,1.2,1.2,0,0,1,.44.93c0,.62-.36,1.31-1.62,1.31-1,0-1.64-.55-2-2a1.71,1.71,0,0,0-.07-.28.13.13,0,0,0-.13-.06c-.16,0-.16.07-.16.33v2c0,.26,0,.33.15.33s.09,0,.33-.31a1.83,1.83,0,0,1,.29-.36,1.93,1.93,0,0,0,1.56.67c1.51,0,2.26-.83,2.26-2a1.9,1.9,0,0,0-.61-1.37,3.23,3.23,0,0,0-1.85-.7c-.43-.09-1.48-.29-1.48-1.15,0-.45.3-1.11,1.6-1.11a1.61,1.61,0,0,1,1.67,1.78.14.14,0,0,0,.16.12c.16,0,.16-.07.16-.33v-1.5" transform="translate(-15.09 -16.96)"/><path d="M172,83.49l2.88-4.82.49,4.82Zm-1.73,2.22a2,2,0,0,1-1.68,1.17c-.16,0-.27,0-.27.28a.15.15,0,0,0,.17.14l1.16,0,1.28,0c.09,0,.26,0,.26-.27s-.11-.15-.2-.15c-.33,0-.6-.14-.6-.48a1.3,1.3,0,0,1,.27-.68l1.09-1.81h3.66c0,.13,0,.25,0,.37.05.38.22,1.87.22,2.14,0,.43-.73.46-1,.46s-.32,0-.32.26.13.16.22.16l.77,0h.82c.88,0,1.51,0,1.52,0s.26,0,.26-.27-.13-.15-.34-.15c-.79,0-.81-.12-.85-.56l-.88-9c0-.29-.08-.32-.24-.32s-.23,0-.36.25Z" transform="translate(-15.09 -16.96)"/><path d="M181.1,87.36c0-.83-.27-1.45-.86-1.45a.68.68,0,0,0-.69.69.69.69,0,0,0,.7.7.65.65,0,0,0,.48-.19s0,0,.06,0a1,1,0,0,1,0,.28,3.4,3.4,0,0,1-.92,2.34c-.15.17-.15.2-.15.23a.15.15,0,0,0,.14.14,3.46,3.46,0,0,0,1.22-2.71" transform="translate(-15.09 -16.96)"/><path d="M189.31,81.22c0-.26,0-.33-.14-.33s-.39.32-.49.45a2,2,0,0,0-1.35-.45c-1.74,0-2.26,1-2.26,1.74a1.51,1.51,0,0,0,.55,1.17,3.13,3.13,0,0,0,1.61.63,2.4,2.4,0,0,1,1.34.49,1.2,1.2,0,0,1,.44.93c0,.62-.36,1.31-1.62,1.31-.95,0-1.64-.55-2-2-.05-.25-.05-.27-.07-.28a.13.13,0,0,0-.13-.06c-.16,0-.16.07-.16.33v2c0,.26,0,.33.15.33s.08,0,.33-.31a1.83,1.83,0,0,1,.29-.36,1.93,1.93,0,0,0,1.56.67c1.51,0,2.26-.83,2.26-2a1.9,1.9,0,0,0-.61-1.37,3.23,3.23,0,0,0-1.85-.7c-.43-.09-1.48-.29-1.48-1.15,0-.45.3-1.11,1.6-1.11A1.61,1.61,0,0,1,189,82.93a.14.14,0,0,0,.16.12c.16,0,.16-.07.16-.33v-1.5" transform="translate(-15.09 -16.96)"/><path d="M190.62,81.12v.42c.92,0,1,.08,1,.79v3.91c0,.64-.16.64-1.1.64v.42c.41,0,1.1,0,1.51,0,.16,0,1,0,1.48,0v-.42c-.93,0-1-.07-1-.63V81l-1.95.16m2-2.67a.7.7,0,0,0-.71-.7.7.7,0,0,0,0,1.39A.7.7,0,0,0,192.6,78.45Z" transform="translate(-15.09 -16.96)"/><path d="M200.39,83.81c0-1.34,0-1.74-.33-2.2a1.88,1.88,0,0,0-1.58-.65,2.24,2.24,0,0,0-2,1.48h0V81l-1.95.16v.42c1,0,1.09.1,1.09.8v3.9c0,.64-.16.64-1.09.64v.42c.37,0,1.15,0,1.55,0s1.19,0,1.57,0v-.42c-.92,0-1.09,0-1.09-.64V83.57a2.09,2.09,0,0,1,1.88-2.32c.89,0,1.09.73,1.09,1.61v3.38c0,.64-.16.64-1.09.64v.42c.37,0,1.15,0,1.55,0s1.19,0,1.56,0v-.42c-.71,0-1.07,0-1.09-.43V83.81" transform="translate(-15.09 -16.96)"/><path d="M208.37,83.49l2.88-4.82.49,4.82Zm-1.73,2.22A2,2,0,0,1,205,86.88c-.16,0-.27,0-.27.28a.15.15,0,0,0,.17.14l1.16,0,1.28,0c.09,0,.26,0,.26-.27s-.11-.15-.2-.15c-.33,0-.6-.14-.6-.48a1.3,1.3,0,0,1,.27-.68l1.09-1.81h3.66c0,.13,0,.25,0,.37.05.38.22,1.87.22,2.14,0,.43-.73.46-1,.46s-.32,0-.32.26.13.16.22.16l.77,0h.82c.88,0,1.51,0,1.52,0s.26,0,.26-.27-.13-.15-.34-.15c-.79,0-.81-.12-.85-.56l-.88-9c0-.29-.08-.32-.24-.32s-.23,0-.36.25Z" transform="translate(-15.09 -16.96)"/><path d="M218.85,83.72a10.62,10.62,0,0,0-.95-4.54,6.11,6.11,0,0,0-2.18-2.65c-.06,0-.13,0-.13.11s0,.07.24.32c1.44,1.45,2.24,3.82,2.24,6.75s-.67,5.19-2.34,6.88c-.14.13-.14.16-.14.2a.12.12,0,0,0,.13.12,6.08,6.08,0,0,0,2.07-2.45,10.34,10.34,0,0,0,1.06-4.74" transform="translate(-15.09 -16.96)"/><path d="M89,134.09c0-.33,0-.34-.29-.34a3.22,3.22,0,0,1-2.54.92v.41a4.12,4.12,0,0,0,1.83-.37v7.48c0,.52,0,.69-1.3.69h-.45v.42c.39,0,1.78,0,2.26,0s1.85,0,2.24,0v-.42h-.45c-1.26,0-1.3-.17-1.3-.69v-8.1" transform="translate(-15.09 -16.96)"/><path d="M126.74,171.89c0-.33,0-.34-.29-.34a3.22,3.22,0,0,1-2.54.92v.41a4.12,4.12,0,0,0,1.83-.37V180c0,.52,0,.69-1.3.69H124v.42c.39,0,1.78,0,2.26,0s1.85,0,2.24,0v-.42H128c-1.26,0-1.3-.17-1.3-.69v-8.1" transform="translate(-15.09 -16.96)"/><rect class="cls-5" x="1.01" y="206.16" width="17.77" height="16.44"/><path d="M23.75,236.17c-1.18,0-2.43-.86-2.43-3.1A8.42,8.42,0,0,1,23,228.18a4.35,4.35,0,0,1,3.21-1.78c1.27,0,2.49.92,2.49,3A9.07,9.07,0,0,1,27.17,234a4.47,4.47,0,0,1-3.42,2.14m6.08-6.26a3.52,3.52,0,0,0-3.56-3.82c-3.08,0-6.18,3.3-6.18,6.62a3.53,3.53,0,0,0,3.58,3.79C26.68,236.5,29.83,233.36,29.83,229.91Z" transform="translate(-15.09 -16.96)"/><path d="M68.17,183.59l2.88-4.82.49,4.82Zm-1.73,2.21A1.94,1.94,0,0,1,64.76,187c-.16,0-.27,0-.27.28a.15.15,0,0,0,.17.14l1.16,0,1.28,0c.09,0,.26,0,.26-.27s-.11-.15-.2-.15c-.33,0-.6-.14-.6-.48a1.3,1.3,0,0,1,.27-.68L67.92,184h3.66c0,.13,0,.25,0,.37,0,.38.22,1.87.22,2.14,0,.44-.73.46-1,.46s-.32,0-.32.26.13.16.22.16l.77,0h.82c.88,0,1.51,0,1.52,0s.26,0,.26-.27S74,187,73.8,187c-.79,0-.81-.13-.85-.56l-.88-9c0-.29-.08-.32-.24-.32s-.23,0-.36.25Z" transform="translate(-15.09 -16.96)"/><path d="M87.17,184.1c.24,0,.5,0,.5-.29s-.26-.29-.5-.29H79.39c-.24,0-.5,0-.5.29s.26.29.5.29h7.78" transform="translate(-15.09 -16.96)"/><path d="M97.64,187H95.39c-.16,0-.17,0-.17-.16a2,2,0,0,1,0-.31l1-4.06H99a1.61,1.61,0,0,1,1.7,1.7,3,3,0,0,1-3,2.84m2-4.71c1.56-.29,3-1.38,3-2.7,0-1.12-1-2-2.61-2H95.45c-.27,0-.41,0-.41.27s.14.15.35.15c.88,0,.88.11.88.27a1.21,1.21,0,0,1-.06.33l-1.94,7.73c-.13.5-.16.64-1.16.64-.28,0-.42,0-.42.26s.08.16.37.16H98c2.2,0,3.89-1.67,3.89-3.12A2.17,2.17,0,0,0,99.69,182.27Zm-2.43-3.7c.13-.54.18-.56.75-.56h1.86a1.45,1.45,0,0,1,1.62,1.5,2.93,2.93,0,0,1-3,2.65H96.37Z" transform="translate(-15.09 -16.96)"/><line class="cls-2" x1="117.98" y1="155.66" x2="159.48" y2="131.7"/><line class="cls-2" x1="21.7" y1="211.07" x2="27.31" y2="207.84"/><line class="cls-2" x1="101.07" y1="73.94" x2="77.77" y2="114.32"/></svg>