<svg id="Capa_1" data-name="Capa 1" xmlns="http://www.w3.org/2000/svg" viewBox="0 0 2600.26 525.12"><defs><style>.cls-1{fill:#ffce00;}.cls-2{fill:#ffa300;}.cls-3{fill:#87c7ff;}.cls-4{fill:#4a98f7;}.cls-5{fill:#fff;}.cls-6{fill:#e9edf5;}.cls-7{fill:#2864f0;}.cls-8{font-size:313px;fill:#285166;font-family:ArchitectsDaughter-Regular, Architects Daughter;}</style></defs><circle class="cls-1" cx="256" cy="256" r="256"/><path class="cls-2" d="M292.38,341l142.2,142.19a256.89,256.89,0,0,0,95.29-114.71L322.69,161.25Z" transform="translate(-37.77 -13.31)"/><path class="cls-3" d="M37.77,269.42c.06,141.34,114.65,255.89,256,255.89s255.94-114.55,256-255.89Z" transform="translate(-37.77 -13.31)"/><path class="cls-4" d="M293.61,269.42V525.31h.16c141.35,0,255.94-114.55,256-255.89Z" transform="translate(-37.77 -13.31)"/><path class="cls-5" d="M416.27,364.28s-14.8-178.54-156.85-247.6c0,0,7,177.23-88.15,252.81C171.27,369.49,310.71,434.65,416.27,364.28Z" transform="translate(-37.77 -13.31)"/><path class="cls-6" d="M416.27,364.28S403.92,215.4,293.61,137V396.88C333.26,397.83,377.09,390.39,416.27,364.28Z" transform="translate(-37.77 -13.31)"/><path class="cls-4" d="M51.77,353c34.69,100.27,129.93,172.28,242,172.28s207.31-72,242-172.28Z" transform="translate(-37.77 -13.31)"/><path class="cls-7" d="M293.61,353V525.31h.16c112.06,0,207.31-72,242-172.28Z" transform="translate(-37.77 -13.31)"/><text class="cls-8" transform="translate(576.52 393.38)">SafeHarbour</text></svg>