<svg id="Layer_1" data-name="Layer 1" xmlns="http://www.w3.org/2000/svg" xmlns:xlink="http://www.w3.org/1999/xlink" viewBox="0 0 194.77 161.89"><defs><style>.cls-1,.cls-2,.cls-3,.cls-4,.cls-5,.cls-8{fill:none;}.cls-2{stroke:#f2f2f2;stroke-width:0.39px;}.cls-2,.cls-3,.cls-4,.cls-5,.cls-8{stroke-linecap:round;stroke-miterlimit:10;}.cls-3{stroke:#bfbfbf;stroke-width:0.5px;}.cls-4{stroke:gray;stroke-width:0.2px;}.cls-5{stroke:#000;stroke-width:0.8px;}.cls-6{clip-path:url(#clip-path);}.cls-7{fill:#2caaca;}.cls-8{stroke:#2caaca;}</style><clipPath id="clip-path" transform="translate(-3.27 -1.31)"><rect class="cls-1" x="3.52" y="1.56" width="194.27" height="161.39"/></clipPath></defs><title>QuadRel.03</title><path class="cls-2" d="M179.58,163V1.56M155.3,163V1.56M131,163V1.56M106.73,163V1.56M82.44,163V1.56M58.16,163V1.56M33.88,163V1.56" transform="translate(-3.27 -1.31)"/><path class="cls-3" d="M191.72,163V1.56M167.44,163V1.56M143.15,163V1.56M118.87,163V1.56M94.59,163V1.56M46,163V1.56M21.73,163V1.56" transform="translate(-3.27 -1.31)"/><path class="cls-2" d="M3.52,11.64H197.79M3.52,25.09H197.79M3.52,38.54H197.79M3.52,52H197.79M3.52,65.44H197.79M3.52,78.89H197.79M3.52,92.34H197.79M3.52,105.79H197.79M3.52,119.24H197.79M3.52,132.69H197.79M3.52,146.14H197.79" transform="translate(-3.27 -1.31)"/><path class="cls-3" d="M3.52,4.92H197.79M3.52,18.37H197.79M3.52,31.82H197.79M3.52,45.27H197.79M3.52,58.72H197.79M3.52,72.17H197.79M3.52,85.62H197.79M3.52,99.07H197.79M3.52,112.51H197.79M3.52,139.41H197.79M3.52,152.86H197.79" transform="translate(-3.27 -1.31)"/><path class="cls-4" d="M179.58,127.38v-2.83m-24.28,2.83v-2.83M131,127.38v-2.83m-24.28,2.83v-2.83m-24.29,2.83v-2.83m-24.28,2.83v-2.83m-24.28,2.83v-2.83" transform="translate(-3.27 -1.31)"/><path class="cls-4" d="M191.72,128.09v-4.25m-24.28,4.25v-4.25m-24.29,4.25v-4.25m-24.28,4.25v-4.25m-24.28,4.25v-4.25M46,128.09v-4.25m-24.29,4.25v-4.25" transform="translate(-3.27 -1.31)"/><path class="cls-4" d="M68.88,11.64h2.84M68.88,25.09h2.84M68.88,38.54h2.84M68.88,52h2.84M68.88,65.44h2.84M68.88,78.89h2.84M68.88,92.34h2.84m-2.84,13.45h2.84m-2.84,13.45h2.84m-2.84,13.45h2.84m-2.84,13.45h2.84" transform="translate(-3.27 -1.31)"/><path class="cls-4" d="M68.18,4.92h4.25M68.18,18.37h4.25M68.18,31.82h4.25M68.18,45.27h4.25M68.18,58.72h4.25M68.18,72.17h4.25M68.18,85.62h4.25M68.18,99.07h4.25m-4.25,13.44h4.25m-4.25,26.9h4.25m-4.25,13.45h4.25" transform="translate(-3.27 -1.31)"/><line class="cls-5" x1="3.84" y1="124.66" x2="190.94" y2="124.66"/><path d="M3.52,126a14.5,14.5,0,0,1,4,1.5v-3a14.45,14.45,0,0,1-4,1.49" transform="translate(-3.27 -1.31)"/><path d="M197.79,126a14.28,14.28,0,0,1-4-1.49v3a14.33,14.33,0,0,1,4-1.5" transform="translate(-3.27 -1.31)"/><line class="cls-5" x1="67.03" y1="158.06" x2="67.03" y2="3.84"/><path d="M70.3,163a14.33,14.33,0,0,1,1.5-4h-3a14.6,14.6,0,0,1,1.49,4" transform="translate(-3.27 -1.31)"/><path d="M70.3,1.56a14.6,14.6,0,0,1-1.49,4h3a14.33,14.33,0,0,1-1.5-4" transform="translate(-3.27 -1.31)"/><g class="cls-6"><path class="cls-7" d="M196.08,155.88a18.53,18.53,0,0,0-5.48-.81l1.89-3.41a18.89,18.89,0,0,0,3.59,4.22" transform="translate(-3.27 -1.31)"/><path class="cls-7" d="M28.39,63a18.92,18.92,0,0,0,5.48.81L32,67.18A18.38,18.38,0,0,0,28.39,63" transform="translate(-3.27 -1.31)"/><polyline class="cls-8" points="181.87 148.53 188.41 152.16 188.25 152.07 188.09 151.98 187.93 151.89 187.77 151.8 187.62 151.72 187.46 151.63 187.3 151.54 187.14 151.45 186.98 151.36 186.82 151.27 186.66 151.19 186.5 151.1 186.34 151.01 186.18 150.92 186.02 150.83 185.86 150.74 185.7 150.66 185.54 150.57 185.38 150.48 185.22 150.39 185.06 150.3 184.91 150.21 184.75 150.13 184.59 150.04 184.43 149.95 184.27 149.86 184.11 149.77 183.95 149.68 183.79 149.6 183.63 149.51 183.47 149.42 183.31 149.33 183.15 149.24 182.99 149.16 182.83 149.07 182.67 148.98 182.51 148.89 182.35 148.8 182.19 148.71 182.03 148.63 181.88 148.54 181.72 148.45 181.56 148.36 181.4 148.27 181.24 148.18 181.08 148.09 180.92 148.01 180.76 147.92 180.6 147.83 180.44 147.74 180.28 147.65 180.12 147.57 179.96 147.48 179.8 147.39 179.64 147.3 179.49 147.21 179.32 147.12 179.17 147.03 179.01 146.95 178.85 146.86 178.69 146.77 178.53 146.68 178.37 146.59 178.21 146.51 178.05 146.42 177.89 146.33 177.73 146.24 177.57 146.15 177.41 146.06 177.25 145.98 177.09 145.89 176.93 145.8 176.78 145.71 176.62 145.62 176.46 145.53 176.3 145.45 176.14 145.36 175.98 145.27 175.82 145.18 175.66 145.09 175.5 145 175.34 144.92 175.18 144.83 175.02 144.74 174.86 144.65 174.7 144.56 174.54 144.47 174.38 144.39 174.22 144.3 174.06 144.21 173.91 144.12 173.75 144.03 173.59 143.95 173.43 143.86 173.27 143.77 173.11 143.68 172.95 143.59 172.79 143.5 172.63 143.42 172.47 143.33 172.31 143.24 172.15 143.15 171.99 143.06 171.83 142.97 171.67 142.89 171.51 142.8 171.35 142.71 171.19 142.62 171.04 142.53 170.88 142.44 170.72 142.36 170.56 142.27 170.4 142.18 170.24 142.09 170.08 142 169.92 141.91 169.76 141.83 169.6 141.74 169.44 141.65 169.28 141.56 169.12 141.47 168.96 141.38 168.8 141.3 168.65 141.21 168.49 141.12 168.33 141.03 168.17 140.94 168.01 140.86 167.85 140.77 167.69 140.68 167.53 140.59 167.37 140.5 167.21 140.41 167.05 140.33 166.89 140.24 166.73 140.15 166.57 140.06 166.41 139.97 166.25 139.88 166.09 139.8 165.94 139.71 165.78 139.62 165.62 139.53 165.46 139.44 165.3 139.35 165.14 139.27 164.98 139.18 164.82 139.09 164.66 139 164.5 138.91 164.34 138.82 164.18 138.74 164.02 138.65 163.86 138.56 163.7 138.47 163.54 138.38 163.38 138.29 163.22 138.21 163.06 138.12 162.91 138.03 162.75 137.94 162.59 137.85 162.43 137.77 162.27 137.68 162.11 137.59 161.95 137.5 161.79 137.41 161.63 137.32 161.47 137.24 161.31 137.15 161.15 137.06 160.99 136.97 160.83 136.88 160.67 136.79 160.51 136.71 160.36 136.62 160.2 136.53 160.04 136.44 159.88 136.35 159.72 136.26 159.56 136.18 159.4 136.09 159.24 136 159.08 135.91 158.92 135.82 158.76 135.74 158.6 135.65 158.44 135.56 158.28 135.47 158.12 135.38 157.97 135.29 157.81 135.21 157.65 135.12 157.49 135.03 157.33 134.94 157.17 134.85 157.01 134.76 156.85 134.68 156.69 134.59 156.53 134.5 156.37 134.41 156.21 134.32 156.05 134.23 155.89 134.15 155.73 134.06 155.57 133.97 155.41 133.88 155.25 133.79 155.09 133.7 154.94 133.62 154.78 133.53 154.62 133.44 154.46 133.35 154.3 133.26 154.14 133.18 153.98 133.09 153.82 133 153.66 132.91 153.5 132.82 153.34 132.73 153.18 132.65 153.02 132.56 152.86 132.47 152.7 132.38 152.54 132.29 152.38 132.2 152.23 132.12 152.07 132.03 151.91 131.94 151.75 131.85 151.59 131.76 151.43 131.67 151.27 131.59 151.11 131.5 150.95 131.41 150.79 131.32 150.63 131.23 150.47 131.14 150.31 131.06 150.15 130.97 149.99 130.88 149.84 130.79 149.68 130.7 149.52 130.61 149.36 130.53 149.2 130.44 149.04 130.35 148.88 130.26 148.72 130.17 148.56 130.09 148.4 130 148.24 129.91 148.08 129.82 147.92 129.73 147.76 129.64 147.6 129.56 147.44 129.47 147.28 129.38 147.13 129.29 146.97 129.2 146.81 129.11 146.65 129.03 146.49 128.94 146.33 128.85 146.17 128.76 146.01 128.67 145.85 128.58 145.69 128.5 145.53 128.41 145.37 128.32 145.21 128.23 145.05 128.14 144.89 128.05 144.73 127.97 144.57 127.88 144.41 127.79 144.25 127.7 144.1 127.61 143.94 127.52 143.78 127.44 143.62 127.35 143.46 127.26 143.3 127.17 143.14 127.08 142.98 127 142.82 126.91 142.66 126.82 142.5 126.73 142.34 126.64 142.18 126.55 142.02 126.47 141.86 126.38 141.71 126.29 141.54 126.2 141.39 126.11 141.23 126.02 141.07 125.94 140.91 125.85 140.75 125.76 140.59 125.67 140.43 125.58 140.27 125.49 140.11 125.41 139.95 125.32 139.79 125.23 139.63 125.14 139.47 125.05 139.31 124.96 139.15 124.88 139 124.79 138.84 124.7 138.68 124.61 138.52 124.52 138.36 124.43 138.2 124.35 138.04 124.26 137.88 124.17 137.72 124.08 137.56 123.99 137.4 123.91 137.24 123.82 137.08 123.73 136.92 123.64 136.76 123.55 136.6 123.46 136.44 123.38 136.28 123.29 136.13 123.2 135.97 123.11 135.81 123.02 135.65 122.93 135.49 122.84 135.33 122.76 135.17 122.67 135.01 122.58 134.85 122.49 134.69 122.4 134.53 122.31 134.37 122.23 134.21 122.14 134.05 122.05 133.89 121.96 133.73 121.87 133.57 121.79 133.42 121.7 133.26 121.61 133.1 121.52 132.94 121.43 132.78 121.34 132.62 121.26 132.46 121.17 132.3 121.08 132.14 120.99 131.98 120.9 131.82 120.81 131.66 120.73 131.5 120.64 131.34 120.55 131.18 120.46 131.02 120.37 130.87 120.28 130.71 120.2 130.55 120.11 130.39 120.02 130.23 119.93 130.07 119.84 129.91 119.75 129.75 119.67 129.59 119.58 129.43 119.49 129.27 119.4 129.11 119.31 128.95 119.22 128.79 119.14 128.63 119.05 128.47 118.96 128.31 118.87 128.16 118.78 128 118.7 127.84 118.61 127.68 118.52 127.52 118.43 127.36 118.34 127.2 118.25 127.04 118.17 126.88 118.08 126.72 117.99 126.56 117.9 126.4 117.81 126.24 117.72 126.08 117.64 125.92 117.55 125.76 117.46 125.61 117.37 125.44 117.28 125.29 117.19 125.13 117.11 124.97 117.02 124.81 116.93 124.65 116.84 124.49 116.75 124.33 116.67 124.17 116.58 124.01 116.49 123.85 116.4 123.69 116.31 123.53 116.22 123.37 116.14 123.21 116.05 123.05 115.96 122.89 115.87 122.74 115.78 122.58 115.69 122.42 115.61 122.26 115.52 122.1 115.43 121.94 115.34 121.78 115.25 121.62 115.17 121.46 115.08 121.3 114.99 121.14 114.9 120.98 114.81 120.82 114.72 120.66 114.63 120.5 114.55 120.34 114.46 120.19 114.37 120.03 114.28 119.86 114.19 119.71 114.11 119.55 114.02 119.39 113.93 119.23 113.84 119.07 113.75 118.91 113.66 118.75 113.58 118.59 113.49 118.43 113.4 118.27 113.31 118.11 113.22 117.95 113.13 117.79 113.05 117.63 112.96 117.47 112.87 117.32 112.78 117.16 112.69 117 112.6 116.84 112.52 116.68 112.43 116.52 112.34 116.36 112.25 116.2 112.16 116.04 112.07 115.88 111.99 115.72 111.9 115.56 111.81 115.4 111.72 115.24 111.63 115.08 111.54 114.92 111.46 114.77 111.37 114.61 111.28 114.45 111.19 114.29 111.1 114.13 111.02 113.97 110.93 113.81 110.84 113.65 110.75 113.49 110.66 113.33 110.57 113.17 110.48 113.01 110.4 112.85 110.31 112.69 110.22 112.53 110.13 112.37 110.04 112.21 109.95 112.06 109.87 111.9 109.78 111.73 109.69 111.58 109.6 111.42 109.51 111.26 109.43 111.1 109.34 110.94 109.25 110.78 109.16 110.62 109.07 110.46 108.98 110.3 108.9 110.14 108.81 109.98 108.72 109.82 108.63 109.66 108.54 109.5 108.45 109.34 108.37 109.19 108.28 109.03 108.19 108.87 108.1 108.71 108.01 108.55 107.92 108.39 107.84 108.23 107.75 108.07 107.66 107.91 107.57 107.75 107.48 107.59 107.39 107.43 107.31 107.27 107.22 107.11 107.13 106.95 107.04 106.79 106.95 106.64 106.87 106.48 106.78 106.32 106.69 106.16 106.6 106 106.51 105.84 106.42 105.68 106.34 105.52 106.25 105.36 106.16 105.2 106.07 105.04 105.98 104.88 105.89 104.72 105.81 104.56 105.72 104.4 105.63 104.25 105.54 104.08 105.45 103.92 105.36 103.77 105.28 103.61 105.19 103.45 105.1 103.29 105.01 103.13 104.92 102.97 104.83 102.81 104.75 102.65 104.66 102.49 104.57 102.33 104.48 102.17 104.39 102.01 104.31 101.85 104.22 101.69 104.13 101.53 104.04 101.37 103.95 101.22 103.86 101.06 103.78 100.9 103.69 100.74 103.6 100.58 103.51 100.42 103.42 100.26 103.33 100.1 103.25 99.94 103.16 99.78 103.07 99.62 102.98 99.46 102.89 99.3 102.8 99.14 102.72 98.98 102.63 98.83 102.54 98.66 102.45 98.5 102.36 98.35 102.28 98.19 102.19 98.03 102.1 97.87 102.01 97.71 101.92 97.55 101.83 97.39 101.75 97.23 101.66 97.07 101.57 96.91 101.48 96.75 101.39 96.59 101.3 96.43 101.22 96.27 101.13 96.11 101.04 95.95 100.95 95.8 100.86 95.64 100.77 95.47 100.69 95.32 100.6 95.16 100.51 95 100.42 94.84 100.33 94.68 100.24 94.52 100.16 94.36 100.07 94.2 99.98 94.04 99.89 93.88 99.8 93.72 99.71 93.56 99.63 93.4 99.54 93.25 99.45 93.08 99.36 92.93 99.27 92.77 99.19 92.61 99.1 92.45 99.01 92.29 98.92 92.13 98.83 91.97 98.74 91.81 98.66 91.65 98.57 91.49 98.48 91.33 98.39 91.17 98.3 91.01 98.21 90.85 98.13 90.69 98.04 90.53 97.95 90.38 97.86 90.22 97.77 90.06 97.68 89.9 97.59 89.74 97.51 89.58 97.42 89.42 97.33 89.26 97.24 89.1 97.15 88.94 97.06 88.78 96.98 88.62 96.89 88.46 96.8 88.3 96.71 88.14 96.62 87.98 96.54 87.82 96.45 87.67 96.36 87.51 96.27 87.35 96.18 87.19 96.09 87.03 96.01 86.87 95.92 86.71 95.83 86.55 95.74 86.39 95.65 86.23 95.56 86.07 95.48 85.91 95.39 85.75 95.3 85.59 95.21 85.43 95.12 85.28 95.03 85.12 94.95 84.95 94.86 84.8 94.77 84.64 94.68 84.48 94.59 84.32 94.5 84.16 94.42 84 94.33 83.84 94.24 83.68 94.15 83.52 94.06 83.36 93.98 83.2 93.89 83.04 93.8 82.88 93.71 82.72 93.62 82.56 93.53 82.4 93.45 82.25 93.36 82.09 93.27 81.93 93.18 81.77 93.09 81.61 93 81.45 92.92 81.29 92.83 81.13 92.74 80.97 92.65 80.81 92.56 80.65 92.47 80.49 92.39 80.33 92.3 80.17 92.21 80.01 92.12 79.86 92.03 79.7 91.94 79.53 91.86 79.38 91.77 79.22 91.68 79.06 91.59 78.9 91.5 78.74 91.42 78.58 91.33 78.42 91.24 78.26 91.15 78.1 91.06 77.94 90.97 77.78 90.89 77.62 90.8 77.46 90.71 77.3 90.62 77.14 90.53 76.99 90.44 76.83 90.36 76.67 90.27 76.51 90.18 76.35 90.09 76.19 90 76.03 89.92 75.87 89.83 75.71 89.74 75.55 89.65 75.39 89.56 75.23 89.47 75.07 89.39 74.91 89.3 74.75 89.21 74.59 89.12 74.44 89.03 74.27 88.94 74.11 88.86 73.96 88.77 73.8 88.68 73.64 88.59 73.48 88.5 73.32 88.41 73.16 88.33 73 88.24 72.84 88.15 72.68 88.06 72.52 87.97 72.36 87.88 72.2 87.8 72.04 87.71 71.88 87.62 71.72 87.53 71.57 87.44 71.41 87.35 71.25 87.27 71.09 87.18 70.93 87.09 70.77 87 70.61 86.91 70.45 86.82 70.29 86.74 70.13 86.65 69.97 86.56 69.81 86.47 69.65 86.38 69.49 86.3 69.33 86.21 69.17 86.12 69.02 86.03 68.86 85.94 68.69 85.85 68.54 85.77 68.38 85.68 68.22 85.59 68.06 85.5 67.9 85.41 67.74 85.32 67.58 85.23 67.42 85.15 67.26 85.06 67.1 84.97 66.94 84.88 66.78 84.79 66.62 84.71 66.46 84.62 66.31 84.53 66.15 84.44 65.99 84.35 65.83 84.26 65.67 84.18 65.51 84.09 65.35 84 65.19 83.91 65.03 83.82 64.87 83.73 64.71 83.65 64.55 83.56 64.39 83.47 64.23 83.38 64.07 83.29 63.91 83.2 63.75 83.12 63.59 83.03 63.44 82.94 63.27 82.85 63.12 82.76 62.96 82.67 62.8 82.59 62.64 82.5 62.48 82.41 62.32 82.32 62.16 82.23 62 82.15 61.84 82.06 61.68 81.97 61.52 81.88 61.36 81.79 61.2 81.7 61.04 81.62 60.88 81.53 60.73 81.44 60.56 81.35 60.41 81.26 60.25 81.17 60.09 81.09 59.93 81 59.77 80.91 59.61 80.82 59.45 80.73 59.29 80.64 59.13 80.56 58.97 80.47 58.81 80.38 58.65 80.29 58.49 80.2 58.33 80.11 58.17 80.03 58.02 79.94 57.86 79.85 57.7 79.76 57.54 79.67 57.38 79.58 57.22 79.5 57.06 79.41 56.9 79.32 56.74 79.23 56.58 79.14 56.42 79.06 56.26 78.97 56.1 78.88 55.94 78.79 55.78 78.7 55.62 78.61 55.47 78.53 55.31 78.44 55.15 78.35 54.99 78.26 54.83 78.17 54.67 78.08 54.51 78 54.35 77.91 54.19 77.82 54.03 77.73 53.87 77.64 53.71 77.55 53.55 77.47 53.39 77.38 53.23 77.29 53.07 77.2 52.91 77.11 52.76 77.03 52.6 76.94 52.44 76.85 52.28 76.76 52.12 76.67 51.96 76.58 51.8 76.5 51.64 76.41 51.48 76.32 51.32 76.23 51.16 76.14 51 76.05 50.84 75.97 50.68 75.88 50.52 75.79 50.37 75.7 50.2 75.61 50.05 75.52 49.89 75.44 49.73 75.35 49.57 75.26 49.41 75.17 49.25 75.08 49.09 74.99 48.93 74.91 48.77 74.82 48.61 74.73 48.45 74.64 48.29 74.55 48.13 74.46 47.97 74.38 47.81 74.29 47.66 74.2 47.49 74.11 47.34 74.02 47.18 73.94 47.02 73.85 46.86 73.76 46.7 73.67 46.54 73.58 46.38 73.49 46.22 73.41 46.06 73.32 45.9 73.23 45.74 73.14 45.58 73.05 45.42 72.96 45.26 72.88 45.1 72.79 44.94 72.7 44.78 72.61 44.63 72.52 44.47 72.43 44.31 72.34 44.15 72.26 43.99 72.17 43.83 72.08 43.67 71.99 43.51 71.9 43.35 71.82 43.19 71.73 43.03 71.64 42.87 71.55 42.71 71.46 42.55 71.37 42.39 71.29 42.23 71.2 42.07 71.11 41.91 71.02 41.76 70.93 41.6 70.84 41.44 70.76 41.28 70.67 41.12 70.58 40.96 70.49 40.8 70.4 40.64 70.31 40.48 70.23 40.32 70.14 40.16 70.05 40 69.96 39.84 69.87 39.68 69.79 39.52 69.7 39.36 69.61 39.2 69.52 39.05 69.43 38.89 69.34 38.73 69.25 38.57 69.17 38.41 69.08 38.25 68.99 38.09 68.9 37.93 68.81 37.77 68.73 37.61 68.64 37.45 68.55 37.29 68.46 37.13 68.37 36.97 68.28 36.81 68.2 36.66 68.11 36.49 68.02 36.34 67.93 36.18 67.84 36.02 67.75 35.86 67.67 35.7 67.58 35.54 67.49 35.38 67.4 35.22 67.31 35.06 67.22 34.9 67.14 34.74 67.05 34.58 66.96 34.42 66.87 34.26 66.78 34.1 66.69 33.94 66.61 33.78 66.52 33.63 66.43 33.47 66.34 33.31 66.25 33.15 66.17 32.99 66.08 32.83 65.99 32.67 65.9 32.51 65.81 32.35 65.72 32.19 65.64 32.03 65.55 31.87 65.46 31.71 65.37 31.55 65.28 31.39 65.19 31.23 65.11 31.07 65.02 30.92 64.93 30.76 64.84 30.6 64.75 30.44 64.67 30.28 64.58 30.12 64.49 29.96 64.4 29.8 64.31 29.64 64.22 29.48 64.14 36.02 67.76"/></g></svg>