<svg id="Layer_1" data-name="Layer 1" xmlns="http://www.w3.org/2000/svg" xmlns:xlink="http://www.w3.org/1999/xlink" viewBox="0 0 208.4 177.04"><defs><style>.cls-1,.cls-10,.cls-2,.cls-3,.cls-4,.cls-5,.cls-8{fill:none;}.cls-2{stroke:#d9d9d9;stroke-width:0.39px;}.cls-10,.cls-2,.cls-3,.cls-4,.cls-5,.cls-8{stroke-linecap:round;stroke-miterlimit:10;}.cls-3{stroke:#bfbfbf;stroke-width:0.5px;}.cls-4{stroke:gray;stroke-width:0.13px;}.cls-10,.cls-5{stroke:#000;}.cls-5,.cls-8{stroke-width:0.8px;}.cls-6{fill:#fff;}.cls-7{clip-path:url(#clip-path);}.cls-8{stroke:#2caaca;}.cls-9{fill:#2caaca;}.cls-10{stroke-width:0.25px;}</style><clipPath id="clip-path" transform="translate(-17.5 -11.68)"><rect class="cls-1" x="19.32" y="11.93" width="206.33" height="171.42"/></clipPath></defs><title>QuadRel.01</title><path class="cls-2" d="M214.73,183.35V11.93m-4.86,171.42V11.93M205,183.35V11.93m-4.86,171.42V11.93m-9.71,171.42V11.93M185.6,183.35V11.93m-4.86,171.42V11.93m-4.85,171.42V11.93m-9.71,171.42V11.93m-4.85,171.42V11.93m-4.86,171.42V11.93m-4.85,171.42V11.93m-9.71,171.42V11.93m-4.86,171.42V11.93M132.2,183.35V11.93m-4.86,171.42V11.93m-9.71,171.42V11.93m-4.85,171.42V11.93m-4.86,171.42V11.93m-4.85,171.42V11.93M93.36,183.35V11.93M88.51,183.35V11.93M83.65,183.35V11.93M78.79,183.35V11.93m-9.7,171.42V11.93M64.23,183.35V11.93M59.38,183.35V11.93M54.52,183.35V11.93M44.81,183.35V11.93M40,183.35V11.93M35.1,183.35V11.93M30.25,183.35V11.93" transform="translate(-17.5 -11.68)"/><path class="cls-3" d="M219.58,183.35V11.93M195.31,183.35V11.93M171,183.35V11.93M146.76,183.35V11.93M98.21,183.35V11.93M73.94,183.35V11.93M49.67,183.35V11.93M25.39,183.35V11.93" transform="translate(-17.5 -11.68)"/><path class="cls-2" d="M19.32,20.9H225.65m-206.33,4H225.65m-206.33,4H225.65m-206.33,4H225.65m-206.33,8H225.65m-206.33,4H225.65m-206.33,4H225.65m-206.33,4H225.65m-206.33,8H225.65m-206.33,4H225.65m-206.33,4H225.65m-206.33,4H225.65m-206.33,8H225.65m-206.33,4H225.65m-206.33,4H225.65m-206.33,4H225.65m-206.33,8H225.65m-206.33,4H225.65m-206.33,4H225.65m-206.33,4H225.65m-206.33,8H225.65m-206.33,4H225.65m-206.33,4H225.65m-206.33,4H225.65m-206.33,8H225.65m-206.33,4H225.65m-206.33,4H225.65m-206.33,4H225.65m-206.33,8H225.65m-206.33,4H225.65m-206.33,4H225.65m-206.33,4H225.65m-206.33,8H225.65" transform="translate(-17.5 -11.68)"/><path class="cls-3" d="M19.32,16.91H225.65M19.32,36.84H225.65M19.32,56.78H225.65M19.32,76.71H225.65M19.32,96.64H225.65M19.32,116.57H225.65M19.32,136.51H225.65M19.32,156.44H225.65" transform="translate(-17.5 -11.68)"/><path class="cls-4" d="M214.73,177.27v-1.8m-4.86,1.8v-1.8m-4.85,1.8v-1.8m-4.86,1.8v-1.8m-9.71,1.8v-1.8m-4.85,1.8v-1.8m-4.86,1.8v-1.8m-4.85,1.8v-1.8m-9.71,1.8v-1.8m-4.85,1.8v-1.8m-4.86,1.8v-1.8m-4.85,1.8v-1.8m-9.71,1.8v-1.8m-4.86,1.8v-1.8m-4.85,1.8v-1.8m-4.86,1.8v-1.8m-9.71,1.8v-1.8m-4.85,1.8v-1.8m-4.86,1.8v-1.8m-4.85,1.8v-1.8m-9.71,1.8v-1.8m-4.85,1.8v-1.8m-4.86,1.8v-1.8m-4.86,1.8v-1.8m-9.7,1.8v-1.8m-4.86,1.8v-1.8m-4.85,1.8v-1.8m-4.86,1.8v-1.8m-9.71,1.8v-1.8M40,177.27v-1.8m-4.86,1.8v-1.8m-4.85,1.8v-1.8" transform="translate(-17.5 -11.68)"/><path class="cls-4" d="M219.58,177.72V175m-24.27,2.7V175M171,177.72V175m-24.28,2.7V175m-48.55,2.7V175m-24.27,2.7V175m-24.27,2.7V175m-24.28,2.7V175" transform="translate(-17.5 -11.68)"/><path class="cls-4" d="M121.59,20.9h1.8m-1.8,4h1.8m-1.8,4h1.8m-1.8,4h1.8m-1.8,8h1.8m-1.8,4h1.8m-1.8,4h1.8m-1.8,4h1.8m-1.8,8h1.8m-1.8,4h1.8m-1.8,4h1.8m-1.8,4h1.8m-1.8,8h1.8m-1.8,4h1.8m-1.8,4h1.8m-1.8,4h1.8m-1.8,8h1.8m-1.8,4h1.8m-1.8,4h1.8m-1.8,4h1.8m-1.8,8h1.8m-1.8,4h1.8m-1.8,4h1.8m-1.8,4h1.8m-1.8,8h1.8m-1.8,4h1.8m-1.8,4h1.8m-1.8,4h1.8m-1.8,8h1.8m-1.8,4h1.8m-1.8,4h1.8m-1.8,4h1.8m-1.8,8h1.8" transform="translate(-17.5 -11.68)"/><path class="cls-4" d="M121.14,16.91h2.7m-2.7,19.93h2.7m-2.7,19.94h2.7m-2.7,19.93h2.7m-2.7,19.93h2.7m-2.7,19.93h2.7m-2.7,19.94h2.7m-2.7,19.93h2.7" transform="translate(-17.5 -11.68)"/><line class="cls-5" x1="4.11" y1="164.69" x2="205.87" y2="164.69"/><path d="M19.32,176.37a9.37,9.37,0,0,1,2.54.95v-1.9a9,9,0,0,1-2.54,1" transform="translate(-17.5 -11.68)"/><path d="M225.65,176.37a9,9,0,0,1-2.53-1v1.9a9.31,9.31,0,0,1,2.53-.95" transform="translate(-17.5 -11.68)"/><line class="cls-5" x1="104.99" y1="169.39" x2="104.99" y2="2.53"/><path d="M122.49,183.35a8.75,8.75,0,0,1,1-2.54h-1.9a9.37,9.37,0,0,1,.95,2.54" transform="translate(-17.5 -11.68)"/><path d="M122.49,11.93a9.44,9.44,0,0,1-.95,2.53h1.9a8.8,8.8,0,0,1-1-2.53" transform="translate(-17.5 -11.68)"/><rect class="cls-6" y="166.17" width="15.79" height="10.86"/><path d="M25.64,183.69c.16,0,.32,0,.32-.18s-.16-.19-.32-.19h-5c-.15,0-.32,0-.32.19s.17.18.32.18h5" transform="translate(-17.5 -11.68)"/><path d="M28.62,182.85l1.11.72a1.22,1.22,0,0,1,.66,1A1.34,1.34,0,0,1,29,185.75a1.39,1.39,0,0,1-1.45-1.33,1.79,1.79,0,0,1,1.12-1.57m-.43-1.19a1,1,0,0,1-.49-.77c0-.59.62-1,1.24-1a1.19,1.19,0,0,1,1.24,1.14,1.56,1.56,0,0,1-.93,1.3Zm1.24.83a1.76,1.76,0,0,0,1.13-1.44A1.49,1.49,0,0,0,29,179.7a1.56,1.56,0,0,0-1.63,1.51,1.44,1.44,0,0,0,.35.93c.1.12.11.13.75.58a2,2,0,0,0-1.34,1.7A1.72,1.72,0,0,0,28.94,186a1.79,1.79,0,0,0,1.87-1.71C30.81,183.34,30.15,182.93,29.43,182.49Z" transform="translate(-17.5 -11.68)"/><rect class="cls-6" x="24.27" y="166.17" width="15.79" height="10.86"/><path d="M49.94,183.69c.16,0,.32,0,.32-.18s-.16-.19-.32-.19H45c-.15,0-.32,0-.32.19s.17.18.32.18h5" transform="translate(-17.5 -11.68)"/><path d="M53.26,185.75a1.08,1.08,0,0,1-.94-.71,4.42,4.42,0,0,1-.17-1.33c0-.73.33-1.63,1.15-1.63a1,1,0,0,1,.91.65,3.12,3.12,0,0,1,.15,1.19,2.66,2.66,0,0,1-.18,1.23,1,1,0,0,1-.92.6m-1.13-3.14c0-2.32,1.13-2.69,1.62-2.69a1,1,0,0,1,.84.38c-.12,0-.46,0-.46.37a.35.35,0,0,0,.37.38.37.37,0,0,0,.39-.4c0-.48-.35-1-1.15-1-1.15,0-2.36,1.18-2.36,3.2,0,2.52,1.1,3.09,1.88,3.09a1.94,1.94,0,0,0,1.85-2.06,1.9,1.9,0,0,0-1.77-2,1.3,1.3,0,0,0-1.21,1Z" transform="translate(-17.5 -11.68)"/><rect class="cls-6" x="48.55" y="166.17" width="15.79" height="10.86"/><path d="M74.24,183.69c.16,0,.32,0,.32-.18s-.16-.19-.32-.19h-5c-.15,0-.32,0-.32.19s.17.18.32.18h5" transform="translate(-17.5 -11.68)"/><path d="M78,180.55V184H75.78Zm.6-.72c0-.17,0-.22-.13-.22s-.1,0-.17.11L75.55,184v.27H78v.83c0,.34,0,.43-.69.43h-.18v.27c.21,0,.93,0,1.19,0s1,0,1.2,0v-.27H79.3c-.66,0-.69-.09-.69-.43v-.83h.93V184h-.93Z" transform="translate(-17.5 -11.68)"/><rect class="cls-6" x="72.82" y="166.17" width="15.79" height="10.86"/><path d="M98.44,183.69c.16,0,.32,0,.32-.18s-.16-.19-.32-.19h-5c-.15,0-.32,0-.32.19s.17.18.32.18h5" transform="translate(-17.5 -11.68)"/><path d="M103.53,184.26h-.2a3.81,3.81,0,0,1-.19.81,2.45,2.45,0,0,1-.86.08h-1.7c.25-.21.81-.8,1-1,1.39-1.28,1.9-1.76,1.9-2.67a1.77,1.77,0,0,0-1.89-1.76,1.7,1.7,0,0,0-1.69,1.7.43.43,0,1,0,.86,0,.4.4,0,0,0-.43-.43h-.13a1.34,1.34,0,0,1,1.27-1,1.32,1.32,0,0,1,1.25,1.49,3.21,3.21,0,0,1-1,2L100,185.58v.22h3.35l.23-1.54" transform="translate(-17.5 -11.68)"/><rect class="cls-6" x="124.92" y="166.17" width="8.69" height="10.1"/><path d="M148.53,184.26h-.2a3.81,3.81,0,0,1-.19.81,2.45,2.45,0,0,1-.86.08h-1.7c.25-.21.81-.8,1-1,1.39-1.28,1.9-1.76,1.9-2.67a1.77,1.77,0,0,0-1.89-1.76,1.7,1.7,0,0,0-1.69,1.7.43.43,0,1,0,.86,0,.4.4,0,0,0-.43-.43h-.13a1.34,1.34,0,0,1,1.27-1,1.32,1.32,0,0,1,1.25,1.49,3.21,3.21,0,0,1-1,2L145,185.58v.22h3.35l.23-1.54" transform="translate(-17.5 -11.68)"/><rect class="cls-6" x="149.19" y="166.17" width="8.69" height="10.1"/><path d="M171.51,180.55V184h-2.23Zm.6-.72c0-.17,0-.22-.13-.22s-.1,0-.17.11L169.05,184v.27h2.41v.83c0,.34,0,.43-.69.43h-.18v.27c.21,0,.93,0,1.19,0s1,0,1.2,0v-.27h-.18c-.66,0-.69-.09-.69-.43v-.83H173V184h-.93Z" transform="translate(-17.5 -11.68)"/><rect class="cls-6" x="173.46" y="166.17" width="8.69" height="10.1"/><path d="M195.36,185.75a1.08,1.08,0,0,1-.94-.71,4.42,4.42,0,0,1-.17-1.33c0-.73.33-1.63,1.15-1.63a1,1,0,0,1,.91.65,3.12,3.12,0,0,1,.15,1.19,2.66,2.66,0,0,1-.18,1.23,1,1,0,0,1-.92.6m-1.13-3.14c0-2.32,1.13-2.69,1.62-2.69a1,1,0,0,1,.84.38c-.12,0-.46,0-.46.37a.35.35,0,0,0,.37.38.37.37,0,0,0,.39-.4c0-.48-.35-1-1.15-1-1.15,0-2.36,1.18-2.36,3.2,0,2.52,1.1,3.09,1.88,3.09a2,2,0,0,0,1.85-2.06,1.9,1.9,0,0,0-1.77-2,1.3,1.3,0,0,0-1.21,1Z" transform="translate(-17.5 -11.68)"/><rect class="cls-6" x="197.74" y="166.17" width="8.69" height="10.1"/><path d="M219.22,182.85l1.11.72a1.22,1.22,0,0,1,.66,1,1.34,1.34,0,0,1-1.44,1.18,1.39,1.39,0,0,1-1.45-1.33,1.79,1.79,0,0,1,1.12-1.57m-.43-1.19a1,1,0,0,1-.49-.77c0-.59.62-1,1.24-1a1.19,1.19,0,0,1,1.24,1.14,1.56,1.56,0,0,1-.93,1.3Zm1.24.83a1.76,1.76,0,0,0,1.13-1.44,1.49,1.49,0,0,0-1.61-1.35,1.56,1.56,0,0,0-1.63,1.51,1.44,1.44,0,0,0,.35.93c.1.12.11.13.75.58a2,2,0,0,0-1.34,1.7,1.72,1.72,0,0,0,1.86,1.57,1.8,1.8,0,0,0,1.87-1.71C221.41,183.34,220.75,182.93,220,182.49Z" transform="translate(-17.5 -11.68)"/><rect class="cls-6" x="96.26" y="141.2" width="7.25" height="7.12"/><rect class="cls-6" x="96.26" y="121.3" width="7.25" height="6.66"/><rect class="cls-6" x="96.37" y="101.76" width="6.38" height="6.27"/><rect class="cls-6" x="96.92" y="81.62" width="5.46" height="6.86"/><g class="cls-7"><polyline class="cls-8" points="56.89 8.17 56.54 5.87 56.63 6.51 56.73 7.14 56.83 7.78 56.93 8.41 57.02 9.04 57.12 9.67 57.22 10.3 57.31 10.93 57.41 11.55 57.51 12.18 57.61 12.8 57.7 13.43 57.8 14.05 57.9 14.67 58 15.29 58.09 15.9 58.19 16.52 58.29 17.13 58.38 17.75 58.48 18.36 58.58 18.97 58.68 19.58 58.77 20.19 58.87 20.8 58.97 21.4 59.06 22.01 59.16 22.61 59.26 23.21 59.36 23.81 59.45 24.41 59.55 25.01 59.65 25.61 59.74 26.2 59.84 26.8 59.94 27.39 60.04 27.98 60.13 28.57 60.23 29.16 60.33 29.75 60.42 30.34 60.52 30.92 60.62 31.51 60.72 32.09 60.81 32.67 60.91 33.25 61.01 33.83 61.11 34.41 61.2 34.98 61.3 35.56 61.4 36.13 61.49 36.71 61.59 37.28 61.69 37.85 61.79 38.42 61.88 38.98 61.98 39.55 62.08 40.12 62.17 40.68 62.27 41.24 62.37 41.8 62.47 42.36 62.56 42.92 62.66 43.48 62.76 44.03 62.85 44.59 62.95 45.14 63.05 45.69 63.15 46.24 63.24 46.8 63.34 47.34 63.44 47.89 63.54 48.44 63.63 48.98 63.73 49.52 63.83 50.07 63.92 50.61 64.02 51.15 64.12 51.68 64.22 52.22 64.31 52.76 64.41 53.29 64.51 53.82 64.61 54.36 64.7 54.89 64.8 55.41 64.9 55.94 64.99 56.47 65.09 56.99 65.19 57.52 65.28 58.04 65.38 58.56 65.48 59.08 65.58 59.6 65.67 60.12 65.77 60.64 65.87 61.15 65.97 61.67 66.06 62.18 66.16 62.69 66.26 63.2 66.35 63.71 66.45 64.22 66.55 64.72 66.65 65.23 66.74 65.73 66.84 66.23 66.94 66.73 67.03 67.23 67.13 67.73 67.23 68.23 67.33 68.73 67.42 69.22 67.52 69.71 67.62 70.21 67.72 70.7 67.81 71.19 67.91 71.67 68.01 72.16 68.1 72.65 68.2 73.13 68.3 73.61 68.39 74.1 68.49 74.58 68.59 75.06 68.69 75.53 68.78 76.01 68.88 76.49 68.98 76.96 69.08 77.43 69.17 77.91 69.27 78.38 69.37 78.84 69.46 79.31 69.56 79.78 69.66 80.25 69.76 80.71 69.85 81.17 69.95 81.63 70.05 82.09 70.14 82.55 70.24 83.01 70.34 83.47 70.44 83.92 70.53 84.38 70.63 84.83 70.73 85.28 70.83 85.73 70.92 86.18 71.02 86.62 71.12 87.07 71.21 87.52 71.31 87.96 71.41 88.4 71.5 88.84 71.6 89.28 71.7 89.72 71.8 90.16 71.89 90.59 71.99 91.03 72.09 91.46 72.19 91.89 72.28 92.32 72.38 92.75 72.48 93.18 72.57 93.61 72.67 94.03 72.77 94.46 72.87 94.88 72.96 95.3 73.06 95.72 73.16 96.14 73.25 96.56 73.35 96.98 73.45 97.39 73.55 97.81 73.64 98.22 73.74 98.63 73.84 99.04 73.94 99.45 74.03 99.86 74.13 100.27 74.23 100.67 74.32 101.08 74.42 101.48 74.52 101.88 74.61 102.28 74.71 102.68 74.81 103.08 74.91 103.47 75 103.87 75.1 104.26 75.2 104.65 75.3 105.04 75.39 105.43 75.49 105.82 75.59 106.21 75.68 106.59 75.78 106.98 75.88 107.36 75.98 107.75 76.07 108.13 76.17 108.51 76.27 108.89 76.36 109.26 76.46 109.64 76.56 110.01 76.66 110.39 76.75 110.76 76.85 111.13 76.95 111.5 77.05 111.87 77.14 112.23 77.24 112.6 77.34 112.96 77.43 113.33 77.53 113.69 77.63 114.05 77.72 114.41 77.82 114.77 77.92 115.12 78.02 115.48 78.11 115.83 78.21 116.18 78.31 116.53 78.41 116.89 78.5 117.23 78.6 117.58 78.7 117.93 78.8 118.27 78.89 118.62 78.99 118.96 79.09 119.3 79.18 119.64 79.28 119.98 79.38 120.32 79.47 120.65 79.57 120.99 79.67 121.32 79.77 121.65 79.86 121.99 79.96 122.31 80.06 122.64 80.16 122.97 80.25 123.3 80.35 123.62 80.45 123.94 80.54 124.27 80.64 124.59 80.74 124.91 80.84 125.23 80.93 125.54 81.03 125.86 81.13 126.17 81.22 126.49 81.32 126.8 81.42 127.11 81.52 127.42 81.61 127.73 81.71 128.03 81.81 128.34 81.91 128.64 82 128.94 82.1 129.25 82.2 129.55 82.29 129.85 82.39 130.15 82.49 130.44 82.58 130.74 82.68 131.03 82.78 131.32 82.88 131.62 82.97 131.9 83.07 132.19 83.17 132.48 83.27 132.77 83.36 133.05 83.46 133.34 83.56 133.62 83.65 133.9 83.75 134.18 83.85 134.46 83.95 134.74 84.04 135.01 84.14 135.29 84.24 135.56 84.33 135.83 84.43 136.1 84.53 136.37 84.63 136.64 84.72 136.91 84.82 137.18 84.92 137.44 85.02 137.7 85.11 137.97 85.21 138.23 85.31 138.49 85.4 138.74 85.5 139 85.6 139.26 85.69 139.51 85.79 139.76 85.89 140.01 85.99 140.26 86.08 140.51 86.18 140.76 86.28 141.01 86.38 141.25 86.47 141.5 86.57 141.74 86.67 141.98 86.76 142.22 86.86 142.46 86.96 142.7 87.06 142.94 87.15 143.17 87.25 143.41 87.35 143.64 87.44 143.87 87.54 144.1 87.64 144.33 87.74 144.56 87.83 144.78 87.93 145.01 88.03 145.23 88.13 145.45 88.22 145.68 88.32 145.9 88.42 146.11 88.51 146.33 88.61 146.55 88.71 146.76 88.81 146.97 88.9 147.19 89 147.4 89.1 147.61 89.19 147.82 89.29 148.02 89.39 148.23 89.49 148.43 89.58 148.64 89.68 148.84 89.78 149.04 89.88 149.24 89.97 149.44 90.07 149.63 90.17 149.83 90.26 150.02 90.36 150.22 90.46 150.41 90.56 150.6 90.65 150.79 90.75 150.98 90.85 151.16 90.94 151.35 91.04 151.53 91.14 151.72 91.23 151.9 91.33 152.08 91.43 152.26 91.53 152.43 91.62 152.61 91.72 152.78 91.82 152.96 91.92 153.13 92.01 153.3 92.11 153.47 92.21 153.64 92.3 153.81 92.4 153.97 92.5 154.14 92.6 154.3 92.69 154.47 92.79 154.63 92.89 154.79 92.98 154.94 93.08 155.1 93.18 155.26 93.28 155.41 93.37 155.57 93.47 155.72 93.57 155.87 93.67 156.02 93.76 156.17 93.86 156.31 93.96 156.46 94.05 156.6 94.15 156.75 94.25 156.89 94.34 157.03 94.44 157.17 94.54 157.31 94.64 157.44 94.73 157.58 94.83 157.71 94.93 157.85 95.03 157.98 95.12 158.11 95.22 158.24 95.32 158.37 95.41 158.49 95.51 158.62 95.61 158.74 95.71 158.86 95.8 158.99 95.9 159.11 96 159.22 96.09 159.34 96.19 159.46 96.29 159.57 96.39 159.69 96.48 159.8 96.58 159.91 96.68 160.02 96.78 160.13 96.87 160.24 96.97 160.34 97.07 160.45 97.16 160.55 97.26 160.65 97.36 160.75 97.45 160.85 97.55 160.95 97.65 161.05 97.75 161.15 97.84 161.24 97.94 161.33 98.04 161.43 98.14 161.52 98.23 161.61 98.33 161.69 98.43 161.78 98.53 161.87 98.62 161.95 98.72 162.03 98.82 162.12 98.91 162.2 99.01 162.28 99.11 162.35 99.2 162.43 99.3 162.51 99.4 162.58 99.5 162.65 99.59 162.72 99.69 162.79 99.79 162.86 99.89 162.93 99.98 163 100.08 163.06 100.18 163.13 100.27 163.19 100.37 163.25 100.47 163.31 100.57 163.37 100.66 163.43 100.76 163.48 100.86 163.54 100.95 163.59 101.05 163.65 101.15 163.7 101.25 163.75 101.34 163.79 101.44 163.84 101.54 163.89 101.64 163.93 101.73 163.98 101.83 164.02 101.93 164.06 102.02 164.1 102.12 164.14 102.22 164.17 102.31 164.21 102.41 164.24 102.51 164.28 102.61 164.31 102.7 164.34 102.8 164.37 102.9 164.4 103 164.43 103.09 164.45 103.19 164.47 103.29 164.5 103.38 164.52 103.48 164.54 103.58 164.56 103.68 164.58 103.77 164.59 103.87 164.61 103.97 164.62 104.06 164.63 104.16 164.65 104.26 164.66 104.36 164.67 104.45 164.67 104.55 164.68 104.65 164.69 104.75 164.69 104.84 164.69 104.94 164.69 105.04 164.69 105.13 164.69 105.23 164.69 105.33 164.69 105.42 164.68 105.52 164.67 105.62 164.67 105.72 164.66 105.81 164.65 105.91 164.64 106.01 164.62 106.11 164.61 106.2 164.59 106.3 164.58 106.4 164.56 106.49 164.54 106.59 164.52 106.69 164.5 106.79 164.47 106.88 164.45 106.98 164.43 107.08 164.4 107.17 164.37 107.27 164.34 107.37 164.31 107.47 164.28 107.56 164.24 107.66 164.21 107.76 164.17 107.86 164.14 107.95 164.1 108.05 164.06 108.15 164.02 108.24 163.98 108.34 163.93 108.44 163.89 108.53 163.84 108.63 163.79 108.73 163.75 108.83 163.7 108.92 163.65 109.02 163.59 109.12 163.54 109.22 163.48 109.31 163.43 109.41 163.37 109.51 163.31 109.6 163.25 109.7 163.19 109.8 163.13 109.9 163.06 109.99 163 110.09 162.93 110.19 162.86 110.28 162.79 110.38 162.72 110.48 162.65 110.58 162.58 110.67 162.51 110.77 162.43 110.87 162.35 110.97 162.28 111.06 162.2 111.16 162.12 111.26 162.03 111.35 161.95 111.45 161.87 111.55 161.78 111.64 161.69 111.74 161.61 111.84 161.52 111.94 161.43 112.03 161.33 112.13 161.24 112.23 161.15 112.33 161.05 112.42 160.95 112.52 160.85 112.62 160.75 112.71 160.65 112.81 160.55 112.91 160.45 113.01 160.34 113.1 160.24 113.2 160.13 113.3 160.02 113.39 159.91 113.49 159.8 113.59 159.69 113.69 159.57 113.78 159.46 113.88 159.34 113.98 159.22 114.08 159.11 114.17 158.99 114.27 158.87 114.37 158.74 114.46 158.62 114.56 158.49 114.66 158.37 114.75 158.24 114.85 158.11 114.95 157.98 115.05 157.85 115.14 157.71 115.24 157.58 115.34 157.44 115.44 157.31 115.53 157.17 115.63 157.03 115.73 156.89 115.83 156.75 115.92 156.6 116.02 156.46 116.12 156.31 116.21 156.17 116.31 156.02 116.41 155.87 116.5 155.72 116.6 155.57 116.7 155.41 116.8 155.26 116.89 155.1 116.99 154.94 117.09 154.79 117.19 154.63 117.28 154.47 117.38 154.3 117.48 154.14 117.57 153.98 117.67 153.81 117.77 153.64 117.87 153.47 117.96 153.3 118.06 153.13 118.16 152.96 118.25 152.78 118.35 152.61 118.45 152.43 118.55 152.26 118.64 152.08 118.74 151.9 118.84 151.72 118.94 151.53 119.03 151.35 119.13 151.16 119.23 150.98 119.32 150.79 119.42 150.6 119.52 150.41 119.61 150.22 119.71 150.02 119.81 149.83 119.91 149.63 120 149.44 120.1 149.24 120.2 149.04 120.3 148.84 120.39 148.64 120.49 148.43 120.59 148.23 120.68 148.02 120.78 147.82 120.88 147.61 120.98 147.4 121.07 147.19 121.17 146.98 121.27 146.76 121.36 146.55 121.46 146.33 121.56 146.12 121.66 145.9 121.75 145.68 121.85 145.46 121.95 145.23 122.05 145.01 122.14 144.78 122.24 144.56 122.34 144.33 122.43 144.1 122.53 143.87 122.63 143.64 122.72 143.41 122.82 143.17 122.92 142.94 123.02 142.7 123.11 142.46 123.21 142.22 123.31 141.98 123.41 141.74 123.5 141.5 123.6 141.26 123.7 141.01 123.79 140.76 123.89 140.52 123.99 140.27 124.09 140.02 124.18 139.76 124.28 139.51 124.38 139.26 124.47 139 124.57 138.74 124.67 138.49 124.77 138.23 124.86 137.97 124.96 137.7 125.06 137.44 125.16 137.18 125.25 136.91 125.35 136.64 125.45 136.37 125.54 136.1 125.64 135.83 125.74 135.56 125.83 135.29 125.93 135.01 126.03 134.74 126.13 134.46 126.22 134.18 126.32 133.9 126.42 133.62 126.52 133.34 126.61 133.05 126.71 132.77 126.81 132.48 126.9 132.19 127 131.91 127.1 131.62 127.2 131.32 127.29 131.03 127.39 130.74 127.49 130.44 127.58 130.15 127.68 129.85 127.78 129.55 127.88 129.25 127.97 128.95 128.07 128.64 128.17 128.34 128.26 128.03 128.36 127.73 128.46 127.42 128.56 127.11 128.65 126.8 128.75 126.49 128.85 126.17 128.94 125.86 129.04 125.54 129.14 125.23 129.24 124.91 129.33 124.59 129.43 124.27 129.53 123.95 129.63 123.62 129.72 123.3 129.82 122.97 129.92 122.64 130.01 122.32 130.11 121.99 130.21 121.66 130.31 121.32 130.4 120.99 130.5 120.66 130.6 120.32 130.69 119.98 130.79 119.64 130.89 119.3 130.99 118.96 131.08 118.62 131.18 118.28 131.28 117.93 131.38 117.58 131.47 117.24 131.57 116.89 131.67 116.54 131.76 116.19 131.86 115.83 131.96 115.48 132.06 115.12 132.15 114.77 132.25 114.41 132.35 114.05 132.44 113.69 132.54 113.33 132.64 112.96 132.74 112.6 132.83 112.23 132.93 111.87 133.03 111.5 133.13 111.13 133.22 110.76 133.32 110.39 133.42 110.01 133.51 109.64 133.61 109.26 133.71 108.89 133.81 108.51 133.9 108.13 134 107.75 134.1 107.36 134.19 106.98 134.29 106.6 134.39 106.21 134.49 105.82 134.58 105.44 134.68 105.05 134.78 104.65 134.87 104.26 134.97 103.87 135.07 103.47 135.17 103.08 135.26 102.68 135.36 102.28 135.46 101.88 135.55 101.48 135.65 101.08 135.75 100.67 135.85 100.27 135.94 99.86 136.04 99.45 136.14 99.04 136.24 98.63 136.33 98.22 136.43 97.81 136.53 97.39 136.62 96.98 136.72 96.56 136.82 96.14 136.91 95.73 137.01 95.31 137.11 94.88 137.21 94.46 137.3 94.04 137.4 93.61 137.5 93.18 137.59 92.76 137.69 92.33 137.79 91.89 137.89 91.46 137.98 91.03 138.08 90.59 138.18 90.16 138.28 89.72 138.37 89.28 138.47 88.84 138.57 88.4 138.66 87.96 138.76 87.52 138.86 87.07 138.96 86.63 139.05 86.18 139.15 85.73 139.25 85.28 139.34 84.83 139.44 84.38 139.54 83.92 139.64 83.47 139.73 83.01 139.83 82.55 139.93 82.09 140.03 81.64 140.12 81.17 140.22 80.71 140.32 80.25 140.41 79.78 140.51 79.31 140.61 78.85 140.71 78.38 140.8 77.91 140.9 77.44 141 76.96 141.09 76.49 141.19 76.01 141.29 75.54 141.39 75.06 141.48 74.58 141.58 74.1 141.68 73.62 141.78 73.13 141.87 72.65 141.97 72.16 142.07 71.68 142.16 71.19 142.26 70.7 142.36 70.21 142.46 69.72 142.55 69.22 142.65 68.73 142.75 68.23 142.84 67.73 142.94 67.24 143.04 66.74 143.13 66.23 143.23 65.73 143.33 65.23 143.43 64.72 143.52 64.22 143.62 63.71 143.72 63.2 143.82 62.69 143.91 62.18 144.01 61.67 144.11 61.15 144.2 60.64 144.3 60.12 144.4 59.6 144.5 59.09 144.59 58.57 144.69 58.04 144.79 57.52 144.88 57 144.98 56.47 145.08 55.95 145.18 55.42 145.27 54.89 145.37 54.36 145.47 53.83 145.56 53.29 145.66 52.76 145.76 52.22 145.86 51.69 145.95 51.15 146.05 50.61 146.15 50.07 146.25 49.53 146.34 48.98 146.44 48.44 146.54 47.89 146.63 47.34 146.73 46.8 146.83 46.25 146.93 45.7 147.02 45.15 147.12 44.59 147.22 44.04 147.31 43.48 147.41 42.92 147.51 42.37 147.61 41.8 147.7 41.24 147.8 40.68 147.9 40.12 148 39.55 148.09 38.99 148.19 38.42 148.29 37.85 148.38 37.28 148.48 36.71 148.58 36.14 148.68 35.56 148.77 34.99 148.87 34.41 148.97 33.83 149.06 33.25 149.16 32.67 149.26 32.09 149.35 31.51 149.45 30.92 149.55 30.34 149.65 29.75 149.74 29.16 149.84 28.57 149.94 27.98 150.04 27.39 150.13 26.8 150.23 26.2 150.33 25.61 150.43 25.01 150.52 24.41 150.62 23.82 150.72 23.21 150.81 22.61 150.91 22.01 151.01 21.4 151.1 20.8 151.2 20.19 151.3 19.58 151.4 18.97 151.49 18.36 151.59 17.75 151.69 17.14 151.78 16.52 151.88 15.91 151.98 15.29 152.08 14.67 152.17 14.05 152.27 13.43 152.37 12.81 152.47 12.18 152.56 11.56 152.66 10.93 152.76 10.3 152.85 9.67 152.95 9.04 153.05 8.41 153.15 7.78 153.24 7.15 153.34 6.51 153.44 5.87 153.09 8.17"/><path class="cls-9" d="M171.69,13.21a21.14,21.14,0,0,1-3.09,5.52l4.4.67a21.49,21.49,0,0,1-1.31-6.19" transform="translate(-17.5 -11.68)"/><path class="cls-9" d="M73.36,13.09a21.49,21.49,0,0,0,3.1,5.52l-4.4.68a21.25,21.25,0,0,0,1.3-6.2" transform="translate(-17.5 -11.68)"/></g><path d="M123.76,176.37a1.27,1.27,0,1,0-1.27,1.27A1.27,1.27,0,0,0,123.76,176.37Z" transform="translate(-17.5 -11.68)"/><path class="cls-10" d="M123.76,176.37a1.27,1.27,0,1,0-1.27,1.27A1.27,1.27,0,0,0,123.76,176.37Z" transform="translate(-17.5 -11.68)"/><path d="M135.89,166.41a1.27,1.27,0,1,0-1.27,1.26A1.27,1.27,0,0,0,135.89,166.41Z" transform="translate(-17.5 -11.68)"/><path class="cls-10" d="M135.89,166.41a1.27,1.27,0,1,0-1.27,1.26A1.27,1.27,0,0,0,135.89,166.41Z" transform="translate(-17.5 -11.68)"/><path d="M148,136.51a1.27,1.27,0,1,0-1.27,1.26A1.27,1.27,0,0,0,148,136.51Z" transform="translate(-17.5 -11.68)"/><path class="cls-10" d="M148,136.51a1.27,1.27,0,1,0-1.27,1.26A1.27,1.27,0,0,0,148,136.51Z" transform="translate(-17.5 -11.68)"/><path d="M111.62,166.41a1.27,1.27,0,1,0-1.27,1.26A1.27,1.27,0,0,0,111.62,166.41Z" transform="translate(-17.5 -11.68)"/><path class="cls-10" d="M111.62,166.41a1.27,1.27,0,1,0-1.27,1.26A1.27,1.27,0,0,0,111.62,166.41Z" transform="translate(-17.5 -11.68)"/><path d="M99.48,136.51a1.27,1.27,0,1,0-2.53,0,1.27,1.27,0,0,0,2.53,0Z" transform="translate(-17.5 -11.68)"/><path class="cls-10" d="M99.48,136.51a1.27,1.27,0,1,0-2.53,0,1.27,1.27,0,0,0,2.53,0Z" transform="translate(-17.5 -11.68)"/><path d="M118.84,158h-.2a3.21,3.21,0,0,1-.19.8c-.06.09-.59.09-.86.09h-1.7c.25-.22.81-.8,1-1,1.39-1.29,1.9-1.76,1.9-2.67a1.77,1.77,0,0,0-1.89-1.76,1.7,1.7,0,0,0-1.69,1.7.43.43,0,1,0,.86,0,.41.41,0,0,0-.43-.43h-.13a1.34,1.34,0,0,1,1.27-1,1.32,1.32,0,0,1,1.25,1.49,3.16,3.16,0,0,1-1,2l-1.85,2.07v.22h3.35l.23-1.54" transform="translate(-17.5 -11.68)"/><path d="M117.52,133.91v3.46h-2.23Zm.6-.71c0-.18,0-.22-.13-.22s-.1,0-.17.11l-2.76,4.28v.27h2.41v.83c0,.34,0,.43-.69.43h-.18v.27c.21,0,.93,0,1.19,0s1,0,1.2,0v-.27h-.18c-.66,0-.69-.09-.69-.43v-.83h.93v-.27h-.93Z" transform="translate(-17.5 -11.68)"/><path d="M117.07,119.47a1.07,1.07,0,0,1-.94-.7,4.42,4.42,0,0,1-.17-1.33c0-.73.33-1.64,1.15-1.64a1,1,0,0,1,.91.66,3.07,3.07,0,0,1,.15,1.19,2.68,2.68,0,0,1-.18,1.23,1,1,0,0,1-.92.59m-1.13-3.13c0-2.32,1.13-2.69,1.62-2.69a1,1,0,0,1,.84.38c-.11,0-.46,0-.46.37a.36.36,0,0,0,.37.38.37.37,0,0,0,.39-.41c0-.47-.35-.94-1.15-.94-1.15,0-2.36,1.18-2.36,3.2,0,2.52,1.1,3.09,1.88,3.09a1.94,1.94,0,0,0,1.85-2.06,1.9,1.9,0,0,0-1.77-2,1.31,1.31,0,0,0-1.21,1Z" transform="translate(-17.5 -11.68)"/><path d="M116.74,96.76l1.11.72a1.22,1.22,0,0,1,.66,1,1.33,1.33,0,0,1-1.44,1.17,1.38,1.38,0,0,1-1.45-1.32,1.79,1.79,0,0,1,1.12-1.57m-.43-1.19a1,1,0,0,1-.49-.77c0-.59.62-1,1.24-1A1.19,1.19,0,0,1,118.3,95a1.56,1.56,0,0,1-.93,1.3Zm1.24.83A1.76,1.76,0,0,0,118.68,95a1.49,1.49,0,0,0-1.61-1.35,1.56,1.56,0,0,0-1.63,1.51,1.44,1.44,0,0,0,.35.93c.1.12.11.13.75.58a2,2,0,0,0-1.34,1.7,1.72,1.72,0,0,0,1.86,1.57,1.8,1.8,0,0,0,1.87-1.71C118.93,97.25,118.27,96.84,117.55,96.4Z" transform="translate(-17.5 -11.68)"/><rect class="cls-6" x="90.86" y="60.9" width="11.96" height="10.1"/><path d="M112,74.65c0-.21,0-.22-.19-.22a2,2,0,0,1-1.62.59v.26a2.61,2.61,0,0,0,1.17-.24v4.78c0,.33,0,.44-.83.44h-.29v.27c.25,0,1.14,0,1.45,0s1.18,0,1.42,0v-.27h-.28c-.81,0-.83-.11-.83-.44V74.65" transform="translate(-17.5 -11.68)"/><path d="M115.94,80.54c-.29,0-.89-.17-1.06-1.17a11.42,11.42,0,0,1-.1-1.89,7.85,7.85,0,0,1,.15-2,1.09,1.09,0,0,1,1-.9,1.12,1.12,0,0,1,1.06,1,9.29,9.29,0,0,1,.12,1.87,11.36,11.36,0,0,1-.1,1.87c-.18,1-.76,1.19-1.08,1.19m1.87-3a5,5,0,0,0-.37-2.2,1.64,1.64,0,0,0-3,.07,4.77,4.77,0,0,0-.35,2.13,4.63,4.63,0,0,0,.4,2.21,1.63,1.63,0,0,0,3-.09A5.17,5.17,0,0,0,117.81,77.59Z" transform="translate(-17.5 -11.68)"/><rect class="cls-6" x="91.92" y="40.42" width="10.05" height="10.1"/><path d="M112.45,54.17c0-.21,0-.22-.18-.22a2.07,2.07,0,0,1-1.63.58v.27a2.67,2.67,0,0,0,1.18-.24v4.78c0,.33,0,.44-.84.44h-.28V60h2.87v-.26h-.29c-.8,0-.83-.11-.83-.44V54.17" transform="translate(-17.5 -11.68)"/><path d="M118.34,58.5h-.2a3.81,3.81,0,0,1-.19.81,2.45,2.45,0,0,1-.86.08h-1.7c.25-.21.81-.79,1-1,1.39-1.29,1.9-1.77,1.9-2.67A1.76,1.76,0,0,0,116.45,54a1.69,1.69,0,0,0-1.69,1.69.43.43,0,1,0,.86,0,.4.4,0,0,0-.43-.43h-.13a1.35,1.35,0,0,1,1.27-1c.78,0,1.25.65,1.25,1.5a3.19,3.19,0,0,1-1,2l-1.85,2.07V60h3.35l.23-1.54" transform="translate(-17.5 -11.68)"/><rect class="cls-6" x="91.44" y="20.11" width="10.43" height="10.1"/><path d="M111.86,33.86c0-.21,0-.22-.18-.22a2,2,0,0,1-1.63.59v.27a2.67,2.67,0,0,0,1.18-.24V39c0,.32,0,.44-.84.44h-.28v.26c.25,0,1.14,0,1.44,0s1.18,0,1.43,0v-.26h-.29c-.8,0-.83-.12-.83-.44V33.86" transform="translate(-17.5 -11.68)"/><path d="M116.42,34.49v3.45H114.2Zm.61-.72c0-.17,0-.22-.13-.22s-.1,0-.17.11L114,37.94v.27h2.41V39c0,.34,0,.44-.69.44h-.18v.26c.21,0,.93,0,1.19,0s1,0,1.2,0v-.26h-.18c-.66,0-.69-.1-.69-.44v-.83H118v-.27H117Z" transform="translate(-17.5 -11.68)"/><rect class="cls-6" x="91.44" y="1.86" width="9.64" height="7.84"/><path d="M111.87,14.58c0-.21,0-.22-.19-.22a2.06,2.06,0,0,1-1.62.58v.27a2.61,2.61,0,0,0,1.17-.24v4.78c0,.33,0,.44-.83.44h-.29v.26H113v-.26h-.28c-.81,0-.83-.11-.83-.44V14.58" transform="translate(-17.5 -11.68)"/><path d="M116,20.4a1.08,1.08,0,0,1-.94-.71,4.37,4.37,0,0,1-.17-1.33c0-.72.33-1.63,1.16-1.63a1,1,0,0,1,.9.65,3.12,3.12,0,0,1,.15,1.19,2.81,2.81,0,0,1-.17,1.23,1,1,0,0,1-.93.6m-1.13-3.14c0-2.32,1.13-2.68,1.63-2.68a.94.94,0,0,1,.83.37c-.11,0-.46,0-.46.38a.36.36,0,0,0,.38.37.35.35,0,0,0,.38-.4c0-.48-.35-.94-1.14-.94-1.16,0-2.37,1.18-2.37,3.2,0,2.52,1.1,3.09,1.88,3.09a2,2,0,0,0,1.85-2.07,1.89,1.89,0,0,0-1.77-2,1.31,1.31,0,0,0-1.21,1Z" transform="translate(-17.5 -11.68)"/></svg>