<svg id="Layer_1" data-name="Layer 1" xmlns="http://www.w3.org/2000/svg" xmlns:xlink="http://www.w3.org/1999/xlink" viewBox="0 0 194.77 161.89"><defs><style>.cls-1,.cls-2,.cls-3,.cls-4,.cls-5,.cls-8{fill:none;}.cls-2{stroke:#f2f2f2;stroke-width:0.39px;}.cls-2,.cls-3,.cls-4,.cls-5,.cls-8{stroke-linecap:round;stroke-miterlimit:10;}.cls-3{stroke:#bfbfbf;stroke-width:0.5px;}.cls-4{stroke:gray;stroke-width:0.2px;}.cls-5{stroke:#000;stroke-width:0.8px;}.cls-6{clip-path:url(#clip-path);}.cls-7{fill:#2caaca;}.cls-8{stroke:#2caaca;}</style><clipPath id="clip-path" transform="translate(-3.27 -1.31)"><rect class="cls-1" x="3.52" y="1.56" width="194.27" height="161.39"/></clipPath></defs><title>QuadRel.02</title><path class="cls-2" d="M179.58,163V1.56M155.3,163V1.56M131,163V1.56M106.73,163V1.56M82.44,163V1.56M58.16,163V1.56M33.88,163V1.56" transform="translate(-3.27 -1.31)"/><path class="cls-3" d="M191.72,163V1.56M167.44,163V1.56M143.15,163V1.56M118.87,163V1.56M94.59,163V1.56M46,163V1.56M21.73,163V1.56" transform="translate(-3.27 -1.31)"/><path class="cls-2" d="M3.52,11.64H197.79M3.52,25.09H197.79M3.52,38.54H197.79M3.52,52H197.79M3.52,65.44H197.79M3.52,78.89H197.79M3.52,92.34H197.79M3.52,105.79H197.79M3.52,119.24H197.79M3.52,132.69H197.79M3.52,146.14H197.79" transform="translate(-3.27 -1.31)"/><path class="cls-3" d="M3.52,4.92H197.79M3.52,18.37H197.79M3.52,31.82H197.79M3.52,45.27H197.79M3.52,58.72H197.79M3.52,72.17H197.79M3.52,85.62H197.79M3.52,99.07H197.79M3.52,112.51H197.79M3.52,139.41H197.79M3.52,152.86H197.79" transform="translate(-3.27 -1.31)"/><path class="cls-4" d="M179.58,127.38v-2.83m-24.28,2.83v-2.83M131,127.38v-2.83m-24.28,2.83v-2.83m-24.29,2.83v-2.83m-24.28,2.83v-2.83m-24.28,2.83v-2.83" transform="translate(-3.27 -1.31)"/><path class="cls-4" d="M191.72,128.09v-4.25m-24.28,4.25v-4.25m-24.29,4.25v-4.25m-24.28,4.25v-4.25m-24.28,4.25v-4.25M46,128.09v-4.25m-24.29,4.25v-4.25" transform="translate(-3.27 -1.31)"/><path class="cls-4" d="M68.88,11.64h2.84M68.88,25.09h2.84M68.88,38.54h2.84M68.88,52h2.84M68.88,65.44h2.84M68.88,78.89h2.84M68.88,92.34h2.84m-2.84,13.45h2.84m-2.84,13.45h2.84m-2.84,13.45h2.84m-2.84,13.45h2.84" transform="translate(-3.27 -1.31)"/><path class="cls-4" d="M68.18,4.92h4.25M68.18,18.37h4.25M68.18,31.82h4.25M68.18,45.27h4.25M68.18,58.72h4.25M68.18,72.17h4.25M68.18,85.62h4.25M68.18,99.07h4.25m-4.25,13.44h4.25m-4.25,26.9h4.25m-4.25,13.45h4.25" transform="translate(-3.27 -1.31)"/><line class="cls-5" x1="3.84" y1="124.66" x2="190.94" y2="124.66"/><path d="M3.52,126a14.5,14.5,0,0,1,4,1.5v-3a14.45,14.45,0,0,1-4,1.49" transform="translate(-3.27 -1.31)"/><path d="M197.79,126a14.28,14.28,0,0,1-4-1.49v3a14.33,14.33,0,0,1,4-1.5" transform="translate(-3.27 -1.31)"/><line class="cls-5" x1="67.03" y1="158.06" x2="67.03" y2="3.84"/><path d="M70.3,163a14.33,14.33,0,0,1,1.5-4h-3a14.6,14.6,0,0,1,1.49,4" transform="translate(-3.27 -1.31)"/><path d="M70.3,1.56a14.6,14.6,0,0,1-1.49,4h3a14.33,14.33,0,0,1-1.5-4" transform="translate(-3.27 -1.31)"/><g class="cls-6"><path class="cls-7" d="M28.39,155.88a18.6,18.6,0,0,1,5.49-.81L32,151.66a18.66,18.66,0,0,1-3.6,4.22" transform="translate(-3.27 -1.31)"/><path class="cls-7" d="M196.08,63a18.87,18.87,0,0,1-5.48.81l1.89,3.4A18.6,18.6,0,0,1,196.08,63" transform="translate(-3.27 -1.31)"/><polyline class="cls-8" points="36.06 148.53 29.52 152.16 29.68 152.07 29.84 151.98 30 151.89 30.16 151.8 30.32 151.72 30.48 151.63 30.64 151.54 30.8 151.45 30.96 151.36 31.12 151.27 31.28 151.19 31.44 151.1 31.6 151.01 31.75 150.92 31.91 150.83 32.07 150.74 32.23 150.66 32.39 150.57 32.55 150.48 32.71 150.39 32.87 150.3 33.03 150.21 33.19 150.13 33.35 150.04 33.51 149.95 33.67 149.86 33.83 149.77 33.99 149.68 34.15 149.6 34.31 149.51 34.47 149.42 34.63 149.33 34.78 149.24 34.94 149.16 35.1 149.07 35.26 148.98 35.42 148.89 35.58 148.8 35.74 148.71 35.9 148.63 36.06 148.54 36.22 148.45 36.38 148.36 36.54 148.27 36.7 148.18 36.86 148.09 37.02 148.01 37.17 147.92 37.34 147.83 37.49 147.74 37.65 147.65 37.81 147.57 37.97 147.48 38.13 147.39 38.29 147.3 38.45 147.21 38.61 147.12 38.77 147.03 38.93 146.95 39.09 146.86 39.25 146.77 39.41 146.68 39.57 146.59 39.73 146.51 39.88 146.42 40.05 146.33 40.2 146.24 40.36 146.15 40.52 146.06 40.68 145.98 40.84 145.89 41 145.8 41.16 145.71 41.32 145.62 41.48 145.53 41.64 145.45 41.8 145.36 41.96 145.27 42.12 145.18 42.28 145.09 42.44 145 42.59 144.92 42.76 144.83 42.91 144.74 43.07 144.65 43.23 144.56 43.39 144.47 43.55 144.39 43.71 144.3 43.87 144.21 44.03 144.12 44.19 144.03 44.35 143.95 44.51 143.86 44.67 143.77 44.83 143.68 44.99 143.59 45.15 143.5 45.3 143.42 45.46 143.33 45.62 143.24 45.78 143.15 45.94 143.06 46.1 142.97 46.26 142.89 46.42 142.8 46.58 142.71 46.74 142.62 46.9 142.53 47.06 142.44 47.22 142.36 47.38 142.27 47.54 142.18 47.7 142.09 47.86 142 48.02 141.91 48.17 141.83 48.33 141.74 48.49 141.65 48.65 141.56 48.81 141.47 48.97 141.38 49.13 141.3 49.29 141.21 49.45 141.12 49.61 141.03 49.77 140.94 49.93 140.86 50.09 140.77 50.25 140.68 50.41 140.59 50.57 140.5 50.73 140.41 50.88 140.33 51.04 140.24 51.2 140.15 51.36 140.06 51.52 139.97 51.68 139.88 51.84 139.8 52 139.71 52.16 139.62 52.32 139.53 52.48 139.44 52.64 139.35 52.8 139.27 52.96 139.18 53.12 139.09 53.28 139 53.44 138.91 53.59 138.82 53.75 138.74 53.91 138.65 54.07 138.56 54.23 138.47 54.39 138.38 54.55 138.29 54.71 138.21 54.87 138.12 55.03 138.03 55.19 137.94 55.35 137.85 55.51 137.77 55.67 137.68 55.83 137.59 55.99 137.5 56.15 137.41 56.3 137.32 56.46 137.24 56.62 137.15 56.78 137.06 56.94 136.97 57.1 136.88 57.26 136.79 57.42 136.71 57.58 136.62 57.74 136.53 57.9 136.44 58.06 136.35 58.22 136.26 58.38 136.18 58.54 136.09 58.7 136 58.85 135.91 59.02 135.82 59.17 135.74 59.33 135.65 59.49 135.56 59.65 135.47 59.81 135.38 59.97 135.29 60.13 135.21 60.29 135.12 60.45 135.03 60.61 134.94 60.77 134.85 60.93 134.76 61.09 134.68 61.25 134.59 61.41 134.5 61.56 134.41 61.73 134.32 61.88 134.23 62.04 134.15 62.2 134.06 62.36 133.97 62.52 133.88 62.68 133.79 62.84 133.7 63 133.62 63.16 133.53 63.32 133.44 63.48 133.35 63.64 133.26 63.8 133.18 63.96 133.09 64.11 133 64.28 132.91 64.43 132.82 64.59 132.73 64.75 132.65 64.91 132.56 65.07 132.47 65.23 132.38 65.39 132.29 65.55 132.2 65.71 132.12 65.87 132.03 66.03 131.94 66.19 131.85 66.35 131.76 66.51 131.67 66.67 131.59 66.83 131.5 66.98 131.41 67.14 131.32 67.3 131.23 67.46 131.14 67.62 131.06 67.78 130.97 67.94 130.88 68.1 130.79 68.26 130.7 68.42 130.61 68.58 130.53 68.74 130.44 68.9 130.35 69.06 130.26 69.22 130.17 69.38 130.09 69.54 130 69.69 129.91 69.85 129.82 70.01 129.73 70.17 129.64 70.33 129.56 70.49 129.47 70.65 129.38 70.81 129.29 70.97 129.2 71.13 129.11 71.29 129.03 71.45 128.94 71.61 128.85 71.77 128.76 71.93 128.67 72.09 128.58 72.25 128.5 72.41 128.41 72.56 128.32 72.72 128.23 72.88 128.14 73.04 128.05 73.2 127.97 73.36 127.88 73.52 127.79 73.68 127.7 73.84 127.61 74 127.52 74.16 127.44 74.32 127.35 74.48 127.26 74.64 127.17 74.8 127.08 74.96 127 75.11 126.91 75.28 126.82 75.43 126.73 75.59 126.64 75.75 126.55 75.91 126.47 76.07 126.38 76.23 126.29 76.39 126.2 76.55 126.11 76.71 126.02 76.87 125.94 77.03 125.85 77.19 125.76 77.35 125.67 77.51 125.58 77.67 125.49 77.83 125.41 77.98 125.32 78.14 125.23 78.3 125.14 78.46 125.05 78.62 124.96 78.78 124.88 78.94 124.79 79.1 124.7 79.26 124.61 79.42 124.52 79.58 124.43 79.74 124.35 79.9 124.26 80.06 124.17 80.22 124.08 80.38 123.99 80.53 123.91 80.69 123.82 80.85 123.73 81.01 123.64 81.17 123.55 81.33 123.46 81.49 123.38 81.65 123.29 81.81 123.2 81.97 123.11 82.13 123.02 82.29 122.93 82.45 122.84 82.61 122.76 82.77 122.67 82.93 122.58 83.08 122.49 83.25 122.4 83.4 122.31 83.56 122.23 83.72 122.14 83.88 122.05 84.04 121.96 84.2 121.87 84.36 121.79 84.52 121.7 84.68 121.61 84.84 121.52 85 121.43 85.16 121.34 85.32 121.26 85.48 121.17 85.64 121.08 85.8 120.99 85.95 120.9 86.11 120.81 86.27 120.73 86.43 120.64 86.59 120.55 86.75 120.46 86.91 120.37 87.07 120.28 87.23 120.2 87.39 120.11 87.55 120.02 87.71 119.93 87.87 119.84 88.03 119.75 88.19 119.67 88.35 119.58 88.5 119.49 88.67 119.4 88.82 119.31 88.98 119.22 89.14 119.14 89.3 119.05 89.46 118.96 89.62 118.87 89.78 118.78 89.94 118.7 90.1 118.61 90.26 118.52 90.42 118.43 90.58 118.34 90.74 118.25 90.9 118.17 91.06 118.08 91.22 117.99 91.37 117.9 91.53 117.81 91.69 117.72 91.85 117.64 92.01 117.55 92.17 117.46 92.33 117.37 92.49 117.28 92.65 117.19 92.81 117.11 92.97 117.02 93.13 116.93 93.29 116.84 93.45 116.75 93.61 116.67 93.77 116.58 93.92 116.49 94.08 116.4 94.24 116.31 94.4 116.22 94.56 116.14 94.72 116.05 94.88 115.96 95.04 115.87 95.2 115.78 95.36 115.69 95.52 115.61 95.68 115.52 95.84 115.43 96 115.34 96.16 115.25 96.32 115.17 96.48 115.08 96.64 114.99 96.79 114.9 96.95 114.81 97.11 114.72 97.27 114.63 97.43 114.55 97.59 114.46 97.75 114.37 97.91 114.28 98.07 114.19 98.23 114.11 98.39 114.02 98.55 113.93 98.71 113.84 98.87 113.75 99.03 113.66 99.19 113.58 99.34 113.49 99.5 113.4 99.66 113.31 99.82 113.22 99.98 113.13 100.14 113.05 100.3 112.96 100.46 112.87 100.62 112.78 100.78 112.69 100.94 112.6 101.1 112.52 101.26 112.43 101.42 112.34 101.58 112.25 101.74 112.16 101.89 112.07 102.05 111.99 102.22 111.9 102.37 111.81 102.53 111.72 102.69 111.63 102.85 111.54 103.01 111.46 103.17 111.37 103.33 111.28 103.49 111.19 103.65 111.1 103.81 111.02 103.97 110.93 104.13 110.84 104.29 110.75 104.45 110.66 104.61 110.57 104.77 110.48 104.92 110.4 105.08 110.31 105.24 110.22 105.4 110.13 105.56 110.04 105.72 109.95 105.88 109.87 106.04 109.78 106.2 109.69 106.36 109.6 106.52 109.51 106.68 109.43 106.84 109.34 107 109.25 107.16 109.16 107.31 109.07 107.47 108.98 107.64 108.9 107.79 108.81 107.95 108.72 108.11 108.63 108.27 108.54 108.43 108.45 108.59 108.37 108.75 108.28 108.91 108.19 109.07 108.1 109.23 108.01 109.39 107.92 109.55 107.84 109.71 107.75 109.87 107.66 110.03 107.57 110.18 107.48 110.34 107.39 110.5 107.31 110.66 107.22 110.82 107.13 110.98 107.04 111.14 106.95 111.3 106.87 111.46 106.78 111.62 106.69 111.78 106.6 111.94 106.51 112.1 106.42 112.26 106.34 112.42 106.25 112.58 106.16 112.73 106.07 112.89 105.98 113.05 105.89 113.21 105.81 113.37 105.72 113.53 105.63 113.69 105.54 113.85 105.45 114.01 105.36 114.17 105.28 114.33 105.19 114.49 105.1 114.65 105.01 114.81 104.92 114.97 104.83 115.13 104.75 115.29 104.66 115.44 104.57 115.6 104.48 115.77 104.39 115.92 104.31 116.08 104.22 116.24 104.13 116.4 104.04 116.56 103.95 116.72 103.86 116.88 103.78 117.04 103.69 117.2 103.6 117.36 103.51 117.52 103.42 117.68 103.33 117.84 103.25 118 103.16 118.16 103.07 118.31 102.98 118.47 102.89 118.63 102.8 118.79 102.72 118.95 102.63 119.11 102.54 119.27 102.45 119.43 102.36 119.59 102.28 119.75 102.19 119.91 102.1 120.07 102.01 120.23 101.92 120.39 101.83 120.55 101.75 120.71 101.66 120.86 101.57 121.02 101.48 121.18 101.39 121.34 101.3 121.5 101.22 121.66 101.13 121.82 101.04 121.98 100.95 122.14 100.86 122.3 100.77 122.46 100.69 122.62 100.6 122.78 100.51 122.94 100.42 123.1 100.33 123.25 100.24 123.42 100.16 123.58 100.07 123.73 99.98 123.89 99.89 124.05 99.8 124.21 99.71 124.37 99.63 124.53 99.54 124.69 99.45 124.85 99.36 125.01 99.27 125.17 99.19 125.33 99.1 125.49 99.01 125.65 98.92 125.81 98.83 125.97 98.74 126.13 98.66 126.28 98.57 126.44 98.48 126.6 98.39 126.76 98.3 126.92 98.21 127.08 98.13 127.24 98.04 127.4 97.95 127.56 97.86 127.72 97.77 127.88 97.68 128.04 97.59 128.2 97.51 128.36 97.42 128.52 97.33 128.68 97.24 128.84 97.15 129 97.06 129.15 96.98 129.31 96.89 129.47 96.8 129.63 96.71 129.79 96.62 129.95 96.54 130.11 96.45 130.27 96.36 130.43 96.27 130.59 96.18 130.75 96.09 130.91 96.01 131.07 95.92 131.23 95.83 131.38 95.74 131.55 95.65 131.71 95.56 131.86 95.48 132.02 95.39 132.18 95.3 132.34 95.21 132.5 95.12 132.66 95.03 132.82 94.95 132.98 94.86 133.14 94.77 133.3 94.68 133.46 94.59 133.62 94.5 133.78 94.42 133.94 94.33 134.1 94.24 134.25 94.15 134.41 94.06 134.57 93.98 134.73 93.89 134.89 93.8 135.05 93.71 135.21 93.62 135.37 93.53 135.53 93.45 135.69 93.36 135.85 93.27 136.01 93.18 136.17 93.09 136.33 93 136.49 92.92 136.65 92.83 136.81 92.74 136.97 92.65 137.13 92.56 137.28 92.47 137.44 92.39 137.6 92.3 137.76 92.21 137.92 92.12 138.08 92.03 138.24 91.94 138.4 91.86 138.56 91.77 138.72 91.68 138.88 91.59 139.04 91.5 139.2 91.42 139.36 91.33 139.51 91.24 139.68 91.15 139.84 91.06 139.99 90.97 140.15 90.89 140.31 90.8 140.47 90.71 140.63 90.62 140.79 90.53 140.95 90.44 141.11 90.36 141.27 90.27 141.43 90.18 141.59 90.09 141.75 90 141.91 89.92 142.07 89.83 142.22 89.74 142.38 89.65 142.54 89.56 142.7 89.47 142.86 89.39 143.02 89.3 143.18 89.21 143.34 89.12 143.5 89.03 143.66 88.94 143.82 88.86 143.98 88.77 144.14 88.68 144.3 88.59 144.46 88.5 144.62 88.41 144.78 88.33 144.94 88.24 145.1 88.15 145.25 88.06 145.41 87.97 145.57 87.88 145.73 87.8 145.89 87.71 146.05 87.62 146.21 87.53 146.37 87.44 146.53 87.35 146.69 87.27 146.85 87.18 147.01 87.09 147.17 87 147.33 86.91 147.49 86.82 147.65 86.74 147.81 86.65 147.97 86.56 148.12 86.47 148.28 86.38 148.44 86.3 148.6 86.21 148.76 86.12 148.92 86.03 149.08 85.94 149.24 85.85 149.4 85.77 149.56 85.68 149.72 85.59 149.88 85.5 150.04 85.41 150.2 85.32 150.35 85.23 150.51 85.15 150.68 85.06 150.83 84.97 150.99 84.88 151.15 84.79 151.31 84.71 151.47 84.62 151.63 84.53 151.79 84.44 151.95 84.35 152.11 84.26 152.27 84.18 152.43 84.09 152.59 84 152.75 83.91 152.91 83.82 153.06 83.73 153.23 83.65 153.38 83.56 153.54 83.47 153.7 83.38 153.86 83.29 154.02 83.2 154.18 83.12 154.34 83.03 154.5 82.94 154.66 82.85 154.82 82.76 154.98 82.67 155.14 82.59 155.3 82.5 155.46 82.41 155.62 82.32 155.78 82.23 155.93 82.15 156.09 82.06 156.25 81.97 156.41 81.88 156.57 81.79 156.73 81.7 156.89 81.62 157.05 81.53 157.21 81.44 157.37 81.35 157.53 81.26 157.69 81.17 157.85 81.09 158.01 81 158.17 80.91 158.33 80.82 158.49 80.73 158.64 80.64 158.81 80.56 158.96 80.47 159.12 80.38 159.28 80.29 159.44 80.2 159.6 80.11 159.76 80.03 159.92 79.94 160.08 79.85 160.24 79.76 160.4 79.67 160.56 79.58 160.72 79.5 160.88 79.41 161.04 79.32 161.19 79.23 161.35 79.14 161.51 79.06 161.67 78.97 161.83 78.88 161.99 78.79 162.15 78.7 162.31 78.61 162.47 78.53 162.63 78.44 162.79 78.35 162.95 78.26 163.11 78.17 163.27 78.08 163.43 78 163.59 77.91 163.75 77.82 163.91 77.73 164.06 77.64 164.22 77.55 164.38 77.47 164.54 77.38 164.7 77.29 164.86 77.2 165.02 77.11 165.18 77.03 165.34 76.94 165.5 76.85 165.66 76.76 165.82 76.67 165.98 76.58 166.14 76.5 166.3 76.41 166.46 76.32 166.62 76.23 166.77 76.14 166.93 76.05 167.09 75.97 167.25 75.88 167.41 75.79 167.57 75.7 167.73 75.61 167.89 75.52 168.05 75.44 168.21 75.35 168.37 75.26 168.53 75.17 168.69 75.08 168.85 74.99 169.01 74.91 169.17 74.82 169.32 74.73 169.48 74.64 169.64 74.55 169.8 74.46 169.96 74.38 170.12 74.29 170.28 74.2 170.44 74.11 170.6 74.02 170.76 73.94 170.92 73.85 171.08 73.76 171.24 73.67 171.4 73.58 171.56 73.49 171.72 73.41 171.88 73.32 172.03 73.23 172.19 73.14 172.35 73.05 172.51 72.96 172.67 72.88 172.83 72.79 172.99 72.7 173.15 72.61 173.31 72.52 173.47 72.43 173.63 72.34 173.79 72.26 173.95 72.17 174.11 72.08 174.27 71.99 174.43 71.9 174.59 71.82 174.75 71.73 174.9 71.64 175.06 71.55 175.22 71.46 175.38 71.37 175.54 71.29 175.7 71.2 175.86 71.11 176.02 71.02 176.18 70.93 176.34 70.84 176.5 70.76 176.66 70.67 176.82 70.58 176.98 70.49 177.13 70.4 177.3 70.31 177.46 70.23 177.61 70.14 177.77 70.05 177.93 69.96 178.09 69.87 178.25 69.79 178.41 69.7 178.57 69.61 178.73 69.52 178.89 69.43 179.05 69.34 179.21 69.25 179.37 69.17 179.53 69.08 179.69 68.99 179.84 68.9 180.01 68.81 180.16 68.73 180.32 68.64 180.48 68.55 180.64 68.46 180.8 68.37 180.96 68.28 181.12 68.2 181.28 68.11 181.44 68.02 181.6 67.93 181.76 67.84 181.92 67.75 182.08 67.67 182.24 67.58 182.4 67.49 182.56 67.4 182.72 67.31 182.88 67.22 183.03 67.14 183.19 67.05 183.35 66.96 183.51 66.87 183.67 66.78 183.83 66.69 183.99 66.61 184.15 66.52 184.31 66.43 184.47 66.34 184.63 66.25 184.79 66.17 184.95 66.08 185.11 65.99 185.26 65.9 185.43 65.81 185.59 65.72 185.74 65.64 185.9 65.55 186.06 65.46 186.22 65.37 186.38 65.28 186.54 65.19 186.7 65.11 186.86 65.02 187.02 64.93 187.18 64.84 187.34 64.75 187.5 64.67 187.66 64.58 187.82 64.49 187.97 64.4 188.14 64.31 188.29 64.22 188.45 64.14 181.92 67.76"/></g></svg>