<svg id="Layer_1" data-name="Layer 1" xmlns="http://www.w3.org/2000/svg" xmlns:xlink="http://www.w3.org/1999/xlink" viewBox="0 0 194.77 161.89"><defs><style>.cls-1,.cls-2,.cls-3,.cls-4,.cls-5,.cls-7,.cls-9{fill:none;}.cls-2{stroke:#f2f2f2;stroke-width:0.39px;}.cls-2,.cls-3,.cls-4,.cls-5,.cls-7,.cls-9{stroke-linecap:round;}.cls-2,.cls-3,.cls-4,.cls-5,.cls-7,.cls-8,.cls-9{stroke-miterlimit:10;}.cls-3{stroke:#bfbfbf;}.cls-3,.cls-8{stroke-width:0.5px;}.cls-4{stroke:gray;stroke-width:0.2px;}.cls-5,.cls-7,.cls-8{stroke:#000;}.cls-5,.cls-7{stroke-width:0.8px;}.cls-6{clip-path:url(#clip-path);}.cls-7{stroke-dasharray:2.99 2.99;}.cls-9{stroke:#2caaca;stroke-width:0.8px;}.cls-10{fill:#2caaca;}</style><clipPath id="clip-path" transform="translate(-3.27 -1.31)"><rect class="cls-1" x="3.52" y="1.56" width="194.27" height="161.39"/></clipPath></defs><title>QuadRel.04</title><path class="cls-2" d="M179.58,163V1.56M155.3,163V1.56M131,163V1.56M106.73,163V1.56M82.44,163V1.56M58.16,163V1.56M33.88,163V1.56" transform="translate(-3.27 -1.31)"/><path class="cls-3" d="M191.72,163V1.56M167.44,163V1.56M143.15,163V1.56M118.87,163V1.56M94.59,163V1.56M46,163V1.56M21.73,163V1.56" transform="translate(-3.27 -1.31)"/><path class="cls-2" d="M3.52,11.64H197.79M3.52,25.09H197.79M3.52,38.54H197.79M3.52,52H197.79M3.52,65.44H197.79M3.52,78.89H197.79M3.52,92.34H197.79M3.52,105.79H197.79M3.52,119.24H197.79M3.52,132.69H197.79M3.52,146.14H197.79" transform="translate(-3.27 -1.31)"/><path class="cls-3" d="M3.52,4.92H197.79M3.52,18.37H197.79M3.52,31.82H197.79M3.52,45.27H197.79M3.52,58.72H197.79M3.52,72.17H197.79M3.52,85.62H197.79M3.52,99.07H197.79M3.52,112.51H197.79M3.52,139.41H197.79M3.52,152.86H197.79" transform="translate(-3.27 -1.31)"/><path class="cls-4" d="M179.58,127.38v-2.83m-24.28,2.83v-2.83M131,127.38v-2.83m-24.28,2.83v-2.83m-24.29,2.83v-2.83m-24.28,2.83v-2.83m-24.28,2.83v-2.83" transform="translate(-3.27 -1.31)"/><path class="cls-4" d="M191.72,128.09v-4.25m-24.28,4.25v-4.25m-24.29,4.25v-4.25m-24.28,4.25v-4.25m-24.28,4.25v-4.25M46,128.09v-4.25m-24.29,4.25v-4.25" transform="translate(-3.27 -1.31)"/><path class="cls-4" d="M68.88,11.64h2.84M68.88,25.09h2.84M68.88,38.54h2.84M68.88,52h2.84M68.88,65.44h2.84M68.88,78.89h2.84M68.88,92.34h2.84m-2.84,13.45h2.84m-2.84,13.45h2.84m-2.84,13.45h2.84m-2.84,13.45h2.84" transform="translate(-3.27 -1.31)"/><path class="cls-4" d="M68.18,4.92h4.25M68.18,18.37h4.25M68.18,31.82h4.25M68.18,45.27h4.25M68.18,58.72h4.25M68.18,72.17h4.25M68.18,85.62h4.25M68.18,99.07h4.25m-4.25,13.44h4.25m-4.25,26.9h4.25m-4.25,13.45h4.25" transform="translate(-3.27 -1.31)"/><line class="cls-5" x1="3.84" y1="124.66" x2="190.94" y2="124.66"/><path d="M3.52,126a14.5,14.5,0,0,1,4,1.5v-3a14.45,14.45,0,0,1-4,1.49" transform="translate(-3.27 -1.31)"/><path d="M197.79,126a14.28,14.28,0,0,1-4-1.49v3a14.33,14.33,0,0,1,4-1.5" transform="translate(-3.27 -1.31)"/><line class="cls-5" x1="67.03" y1="158.06" x2="67.03" y2="3.84"/><path d="M70.3,163a14.33,14.33,0,0,1,1.5-4h-3a14.6,14.6,0,0,1,1.49,4" transform="translate(-3.27 -1.31)"/><path d="M70.3,1.56a14.6,14.6,0,0,1-1.49,4h3a14.33,14.33,0,0,1-1.5-4" transform="translate(-3.27 -1.31)"/><g class="cls-6"><line class="cls-7" x1="103.46" y1="149.06" x2="103.46" y2="33.01"/><path d="M131.55,131.6c0-.33,0-.34-.29-.34a3.2,3.2,0,0,1-2.54.91v.42a4.18,4.18,0,0,0,1.84-.37v7.48c0,.52,0,.69-1.31.69h-.44v.42c.38,0,1.78,0,2.25,0s1.85,0,2.24,0v-.42h-.44c-1.27,0-1.31-.17-1.31-.69v-8.1" transform="translate(-3.27 -1.31)"/><path class="cls-8" d="M131,142.22a6.13,6.13,0,1,1,5.8-6.12,6,6,0,0,1-5.8,6.12m6.38-6.12a6.39,6.39,0,1,0-6.39,6.7A6.53,6.53,0,0,0,137.4,136.1Z" transform="translate(-3.27 -1.31)"/><path d="M62,80.91h-.31a5.66,5.66,0,0,1-.31,1.26A3.69,3.69,0,0,1,60,82.3H57.38c.38-.33,1.26-1.25,1.63-1.59,2.19-2,3-2.76,3-4.18a2.78,2.78,0,0,0-3-2.76,2.65,2.65,0,0,0-2.64,2.66.66.66,0,0,0,.67.73.67.67,0,0,0,.68-.67.65.65,0,0,0-.68-.68h-.2a2,2,0,0,1,4,.71,5,5,0,0,1-1.52,3.2L56.39,83v.34h5.24L62,80.91" transform="translate(-3.27 -1.31)"/><path class="cls-8" d="M59.26,85a6.13,6.13,0,1,1,5.81-6.12A6,6,0,0,1,59.26,85m6.38-6.12a6.39,6.39,0,1,0-6.39,6.7A6.53,6.53,0,0,0,65.64,78.89Z" transform="translate(-3.27 -1.31)"/><path d="M117,26.81c-.24,0-.3,0-.3.16s.07.14.33.14h.66c1.22,0,1.77,1,1.77,2.39,0,1.88-1,2.38-1.68,2.38a2.56,2.56,0,0,1-2.29-1.28.7.7,0,0,0,.88-.7.67.67,0,0,0-.7-.7.68.68,0,0,0-.72.74,2.64,2.64,0,0,0,2.87,2.33,2.87,2.87,0,0,0,3-2.76,2.76,2.76,0,0,0-2.44-2.6,2.72,2.72,0,0,0,2.06-2.53c0-1.13-1.18-2-2.57-2s-2.5.87-2.5,1.92a.65.65,0,1,0,.64-.62.37.37,0,0,0-.16,0,2.37,2.37,0,0,1,2-1c.48,0,1.41.22,1.41,1.62a3.22,3.22,0,0,1-.46,1.7,1.47,1.47,0,0,1-1.31.69l-.43,0" transform="translate(-3.27 -1.31)"/><path class="cls-8" d="M117.81,33.9A6,6,0,0,1,112,27.78a5.82,5.82,0,1,1,11.62,0,6,6,0,0,1-5.8,6.12m6.38-6.12a6.39,6.39,0,1,0-12.77,0,6.39,6.39,0,1,0,12.77,0Z" transform="translate(-3.27 -1.31)"/><path d="M117.62,144.63v5.42h-3.49Zm.95-1.12c0-.27,0-.34-.2-.34s-.16,0-.27.17l-4.33,6.71v.41h3.78v1.31c0,.53,0,.68-1.08.68h-.29v.41c.33,0,1.47,0,1.87,0s1.55,0,1.88,0v-.41h-.28c-1,0-1.08-.15-1.08-.68v-1.31H120v-.41h-1.45Z" transform="translate(-3.27 -1.31)"/><path class="cls-8" d="M117.34,154.46a6.13,6.13,0,1,1,5.8-6.12,6,6,0,0,1-5.8,6.12m6.38-6.12a6.39,6.39,0,1,0-6.39,6.69A6.54,6.54,0,0,0,123.72,148.34Z" transform="translate(-3.27 -1.31)"/><polyline class="cls-9" points="55.92 35.06 54.99 30.94 55.08 31.37 55.18 31.8 55.28 32.23 55.38 32.66 55.47 33.08 55.57 33.51 55.67 33.93 55.77 34.35 55.86 34.78 55.96 35.2 56.06 35.62 56.15 36.04 56.25 36.46 56.35 36.88 56.45 37.29 56.54 37.71 56.64 38.13 56.74 38.54 56.83 38.96 56.93 39.37 57.03 39.78 57.13 40.19 57.22 40.6 57.32 41.01 57.42 41.42 57.52 41.83 57.61 42.24 57.71 42.64 57.81 43.05 57.9 43.45 58 43.86 58.1 44.26 58.2 44.66 58.29 45.06 58.39 45.46 58.49 45.86 58.58 46.26 58.68 46.66 58.78 47.05 58.88 47.45 58.97 47.85 59.07 48.24 59.17 48.63 59.27 49.02 59.36 49.42 59.46 49.81 59.56 50.2 59.65 50.59 59.75 50.97 59.85 51.36 59.95 51.75 60.04 52.13 60.14 52.52 60.24 52.9 60.34 53.28 60.43 53.67 60.53 54.05 60.63 54.43 60.72 54.81 60.82 55.19 60.92 55.56 61.02 55.94 61.11 56.32 61.21 56.69 61.31 57.07 61.4 57.44 61.5 57.81 61.6 58.19 61.7 58.56 61.79 58.93 61.89 59.3 61.99 59.66 62.09 60.03 62.18 60.4 62.28 60.76 62.38 61.13 62.47 61.49 62.57 61.85 62.67 62.22 62.77 62.58 62.86 62.94 62.96 63.3 63.06 63.66 63.16 64.02 63.25 64.37 63.35 64.73 63.45 65.08 63.54 65.44 63.64 65.79 63.74 66.14 63.84 66.5 63.93 66.85 64.03 67.2 64.13 67.55 64.22 67.9 64.32 68.24 64.42 68.59 64.52 68.94 64.61 69.28 64.71 69.63 64.81 69.97 64.91 70.31 65 70.65 65.1 70.99 65.2 71.33 65.29 71.67 65.39 72.01 65.49 72.35 65.59 72.68 65.68 73.02 65.78 73.35 65.88 73.69 65.97 74.02 66.07 74.35 66.17 74.68 66.27 75.01 66.36 75.34 66.46 75.67 66.56 76 66.66 76.33 66.75 76.65 66.85 76.98 66.95 77.3 67.04 77.63 67.14 77.95 67.24 78.27 67.34 78.59 67.43 78.91 67.53 79.23 67.63 79.55 67.72 79.87 67.82 80.18 67.92 80.5 68.02 80.81 68.11 81.13 68.21 81.44 68.31 81.75 68.41 82.06 68.5 82.37 68.6 82.68 68.7 82.99 68.79 83.3 68.89 83.61 68.99 83.91 69.09 84.22 69.18 84.52 69.28 84.83 69.38 85.13 69.47 85.43 69.57 85.73 69.67 86.03 69.77 86.33 69.86 86.63 69.96 86.93 70.06 87.22 70.16 87.52 70.25 87.81 70.35 88.11 70.45 88.4 70.55 88.69 70.64 88.99 70.74 89.28 70.84 89.57 70.93 89.86 71.03 90.14 71.13 90.43 71.22 90.72 71.32 91 71.42 91.29 71.52 91.57 71.61 91.85 71.71 92.14 71.81 92.42 71.91 92.7 72 92.98 72.1 93.26 72.2 93.53 72.3 93.81 72.39 94.09 72.49 94.36 72.59 94.64 72.68 94.91 72.78 95.18 72.88 95.45 72.97 95.72 73.07 95.99 73.17 96.26 73.27 96.53 73.36 96.8 73.46 97.06 73.56 97.33 73.66 97.6 73.75 97.86 73.85 98.12 73.95 98.39 74.05 98.65 74.14 98.91 74.24 99.17 74.34 99.42 74.43 99.68 74.53 99.94 74.63 100.2 74.72 100.45 74.82 100.71 74.92 100.96 75.02 101.21 75.11 101.46 75.21 101.72 75.31 101.97 75.41 102.22 75.5 102.46 75.6 102.71 75.7 102.96 75.8 103.2 75.89 103.45 75.99 103.69 76.09 103.94 76.18 104.18 76.28 104.42 76.38 104.66 76.48 104.9 76.57 105.14 76.67 105.38 76.77 105.61 76.86 105.85 76.96 106.08 77.06 106.32 77.16 106.55 77.25 106.79 77.35 107.02 77.45 107.25 77.55 107.48 77.64 107.71 77.74 107.94 77.84 108.17 77.93 108.39 78.03 108.62 78.13 108.84 78.23 109.07 78.32 109.29 78.42 109.51 78.52 109.74 78.61 109.96 78.71 110.18 78.81 110.4 78.91 110.61 79 110.83 79.1 111.05 79.2 111.26 79.3 111.48 79.39 111.69 79.49 111.91 79.59 112.12 79.68 112.33 79.78 112.54 79.88 112.75 79.98 112.96 80.07 113.17 80.17 113.37 80.27 113.58 80.36 113.78 80.46 113.99 80.56 114.19 80.66 114.39 80.75 114.6 80.85 114.8 80.95 115 81.05 115.2 81.14 115.39 81.24 115.59 81.34 115.79 81.44 115.98 81.53 116.18 81.63 116.37 81.73 116.57 81.82 116.76 81.92 116.95 82.02 117.14 82.11 117.33 82.21 117.52 82.31 117.71 82.41 117.89 82.5 118.08 82.6 118.27 82.7 118.45 82.8 118.64 82.89 118.82 82.99 119 83.09 119.18 83.19 119.36 83.28 119.54 83.38 119.72 83.48 119.9 83.57 120.07 83.67 120.25 83.77 120.42 83.87 120.6 83.96 120.77 84.06 120.94 84.16 121.12 84.25 121.29 84.35 121.46 84.45 121.63 84.55 121.79 84.64 121.96 84.74 122.13 84.84 122.29 84.94 122.46 85.03 122.62 85.13 122.78 85.23 122.95 85.32 123.11 85.42 123.27 85.52 123.43 85.62 123.59 85.71 123.75 85.81 123.9 85.91 124.06 86 124.21 86.1 124.37 86.2 124.52 86.3 124.67 86.39 124.83 86.49 124.98 86.59 125.13 86.69 125.28 86.78 125.42 86.88 125.57 86.98 125.72 87.07 125.86 87.17 126.01 87.27 126.15 87.37 126.3 87.46 126.44 87.56 126.58 87.66 126.72 87.75 126.86 87.85 127 87.95 127.14 88.05 127.27 88.14 127.41 88.24 127.55 88.34 127.68 88.44 127.81 88.53 127.95 88.63 128.08 88.73 128.21 88.83 128.34 88.92 128.47 89.02 128.6 89.12 128.73 89.21 128.85 89.31 128.98 89.41 129.1 89.5 129.23 89.6 129.35 89.7 129.47 89.8 129.59 89.89 129.72 89.99 129.84 90.09 129.95 90.19 130.07 90.28 130.19 90.38 130.31 90.48 130.42 90.58 130.54 90.67 130.65 90.77 130.76 90.87 130.88 90.96 130.99 91.06 131.1 91.16 131.21 91.25 131.32 91.35 131.42 91.45 131.53 91.55 131.64 91.64 131.74 91.74 131.85 91.84 131.95 91.94 132.05 92.03 132.15 92.13 132.25 92.23 132.35 92.33 132.45 92.42 132.55 92.52 132.65 92.62 132.75 92.71 132.84 92.81 132.94 92.91 133.03 93 133.12 93.1 133.22 93.2 133.31 93.3 133.4 93.39 133.49 93.49 133.58 93.59 133.66 93.69 133.75 93.78 133.84 93.88 133.92 93.98 134.01 94.08 134.09 94.17 134.18 94.27 134.26 94.37 134.34 94.46 134.42 94.56 134.5 94.66 134.58 94.76 134.65 94.85 134.73 94.95 134.81 95.05 134.88 95.14 134.96 95.24 135.03 95.34 135.1 95.44 135.17 95.53 135.24 95.63 135.31 95.73 135.38 95.83 135.45 95.92 135.52 96.02 135.58 96.12 135.65 96.21 135.71 96.31 135.78 96.41 135.84 96.51 135.9 96.6 135.96 96.7 136.03 96.8 136.08 96.89 136.14 96.99 136.2 97.09 136.26 97.19 136.31 97.28 136.37 97.38 136.42 97.48 136.48 97.58 136.53 97.67 136.58 97.77 136.63 97.87 136.68 97.96 136.73 98.06 136.78 98.16 136.83 98.26 136.87 98.35 136.92 98.45 136.96 98.55 137.01 98.64 137.05 98.74 137.09 98.84 137.13 98.94 137.18 99.03 137.22 99.13 137.25 99.23 137.29 99.33 137.33 99.42 137.37 99.52 137.4 99.62 137.44 99.72 137.47 99.81 137.5 99.91 137.53 100.01 137.56 100.1 137.59 100.2 137.62 100.3 137.65 100.39 137.68 100.49 137.71 100.59 137.73 100.69 137.76 100.78 137.78 100.88 137.81 100.98 137.83 101.08 137.85 101.17 137.87 101.27 137.89 101.37 137.91 101.47 137.93 101.56 137.94 101.66 137.96 101.76 137.98 101.85 137.99 101.95 138 102.05 138.02 102.15 138.03 102.24 138.04 102.34 138.05 102.44 138.06 102.53 138.07 102.63 138.08 102.73 138.08 102.83 138.09 102.92 138.09 103.02 138.1 103.12 138.1 103.22 138.1 103.31 138.11 103.41 138.11 103.51 138.11 103.6 138.11 103.7 138.1 103.8 138.1 103.9 138.1 103.99 138.09 104.09 138.09 104.19 138.08 104.28 138.08 104.38 138.07 104.48 138.06 104.58 138.05 104.67 138.04 104.77 138.03 104.87 138.02 104.97 138 105.06 137.99 105.16 137.98 105.26 137.96 105.35 137.94 105.45 137.93 105.55 137.91 105.65 137.89 105.74 137.87 105.84 137.85 105.94 137.83 106.03 137.81 106.13 137.78 106.23 137.76 106.33 137.73 106.42 137.71 106.52 137.68 106.62 137.65 106.72 137.62 106.81 137.59 106.91 137.56 107.01 137.53 107.1 137.5 107.2 137.47 107.3 137.44 107.4 137.4 107.49 137.37 107.59 137.33 107.69 137.29 107.78 137.25 107.88 137.22 107.98 137.18 108.08 137.13 108.17 137.09 108.27 137.05 108.37 137.01 108.47 136.96 108.56 136.92 108.66 136.87 108.76 136.83 108.86 136.78 108.95 136.73 109.05 136.68 109.15 136.63 109.24 136.58 109.34 136.53 109.44 136.48 109.53 136.42 109.63 136.37 109.73 136.31 109.83 136.26 109.92 136.2 110.02 136.14 110.12 136.08 110.22 136.03 110.31 135.96 110.41 135.9 110.51 135.84 110.61 135.78 110.7 135.71 110.8 135.65 110.9 135.58 110.99 135.52 111.09 135.45 111.19 135.38 111.28 135.31 111.38 135.24 111.48 135.17 111.58 135.1 111.67 135.03 111.77 134.96 111.87 134.88 111.97 134.81 112.06 134.73 112.16 134.65 112.26 134.58 112.36 134.5 112.45 134.42 112.55 134.34 112.65 134.26 112.74 134.17 112.84 134.09 112.94 134.01 113.03 133.92 113.13 133.84 113.23 133.75 113.33 133.66 113.42 133.58 113.52 133.49 113.62 133.4 113.72 133.31 113.81 133.22 113.91 133.12 114.01 133.03 114.11 132.94 114.2 132.84 114.3 132.75 114.4 132.65 114.49 132.55 114.59 132.45 114.69 132.35 114.79 132.25 114.88 132.15 114.98 132.05 115.08 131.95 115.17 131.85 115.27 131.74 115.37 131.64 115.47 131.53 115.56 131.42 115.66 131.31 115.76 131.21 115.86 131.1 115.95 130.99 116.05 130.88 116.15 130.76 116.24 130.65 116.34 130.54 116.44 130.42 116.54 130.31 116.63 130.19 116.73 130.07 116.83 129.95 116.92 129.84 117.02 129.72 117.12 129.59 117.22 129.47 117.31 129.35 117.41 129.23 117.51 129.1 117.61 128.98 117.7 128.85 117.8 128.72 117.9 128.6 117.99 128.47 118.09 128.34 118.19 128.21 118.29 128.08 118.38 127.95 118.48 127.81 118.58 127.68 118.67 127.55 118.77 127.41 118.87 127.27 118.97 127.14 119.06 127 119.16 126.86 119.26 126.72 119.36 126.58 119.45 126.44 119.55 126.3 119.65 126.15 119.75 126.01 119.84 125.86 119.94 125.72 120.04 125.57 120.13 125.42 120.23 125.28 120.33 125.13 120.42 124.98 120.52 124.83 120.62 124.67 120.72 124.52 120.81 124.37 120.91 124.21 121.01 124.06 121.11 123.9 121.2 123.74 121.3 123.59 121.4 123.43 121.5 123.27 121.59 123.11 121.69 122.95 121.79 122.78 121.88 122.62 121.98 122.46 122.08 122.29 122.18 122.13 122.27 121.96 122.37 121.79 122.47 121.63 122.56 121.46 122.66 121.29 122.76 121.12 122.86 120.94 122.95 120.77 123.05 120.6 123.15 120.42 123.25 120.25 123.34 120.07 123.44 119.9 123.54 119.72 123.63 119.54 123.73 119.36 123.83 119.18 123.93 119 124.02 118.82 124.12 118.63 124.22 118.45 124.31 118.27 124.41 118.08 124.51 117.89 124.61 117.71 124.7 117.52 124.8 117.33 124.9 117.14 125 116.95 125.09 116.76 125.19 116.57 125.29 116.37 125.38 116.18 125.48 115.98 125.58 115.79 125.68 115.59 125.77 115.39 125.87 115.2 125.97 115 126.06 114.8 126.16 114.59 126.26 114.39 126.36 114.19 126.45 113.99 126.55 113.78 126.65 113.58 126.75 113.37 126.84 113.16 126.94 112.96 127.04 112.75 127.14 112.54 127.23 112.33 127.33 112.12 127.43 111.9 127.52 111.69 127.62 111.48 127.72 111.26 127.81 111.05 127.91 110.83 128.01 110.61 128.11 110.39 128.2 110.18 128.3 109.96 128.4 109.73 128.5 109.51 128.59 109.29 128.69 109.07 128.79 108.84 128.88 108.62 128.98 108.39 129.08 108.17 129.18 107.94 129.27 107.71 129.37 107.48 129.47 107.25 129.56 107.02 129.66 106.79 129.76 106.55 129.86 106.32 129.95 106.08 130.05 105.85 130.15 105.61 130.25 105.38 130.34 105.14 130.44 104.9 130.54 104.66 130.63 104.42 130.73 104.18 130.83 103.94 130.93 103.69 131.02 103.45 131.12 103.2 131.22 102.96 131.32 102.71 131.41 102.46 131.51 102.21 131.61 101.97 131.71 101.72 131.8 101.46 131.9 101.21 132 100.96 132.09 100.71 132.19 100.45 132.29 100.2 132.38 99.94 132.48 99.68 132.58 99.42 132.68 99.17 132.77 98.91 132.87 98.65 132.97 98.39 133.07 98.12 133.16 97.86 133.26 97.6 133.36 97.33 133.46 97.06 133.55 96.8 133.65 96.53 133.75 96.26 133.84 95.99 133.94 95.72 134.04 95.45 134.13 95.18 134.23 94.91 134.33 94.64 134.43 94.36 134.52 94.09 134.62 93.81 134.72 93.53 134.82 93.26 134.91 92.98 135.01 92.7 135.11 92.42 135.21 92.14 135.3 91.85 135.4 91.57 135.5 91.29 135.59 91 135.69 90.72 135.79 90.43 135.88 90.14 135.98 89.86 136.08 89.57 136.18 89.28 136.28 88.99 136.37 88.69 136.47 88.4 136.57 88.11 136.66 87.81 136.76 87.52 136.86 87.22 136.96 86.93 137.05 86.63 137.15 86.33 137.25 86.03 137.34 85.73 137.44 85.43 137.54 85.13 137.64 84.83 137.73 84.52 137.83 84.22 137.93 83.91 138.03 83.61 138.12 83.3 138.22 82.99 138.32 82.68 138.41 82.37 138.51 82.06 138.61 81.75 138.71 81.44 138.8 81.13 138.9 80.81 139 80.5 139.09 80.18 139.19 79.86 139.29 79.55 139.39 79.23 139.48 78.91 139.58 78.59 139.68 78.27 139.78 77.95 139.87 77.63 139.97 77.3 140.07 76.98 140.16 76.65 140.26 76.33 140.36 76 140.46 75.67 140.55 75.34 140.65 75.01 140.75 74.68 140.84 74.35 140.94 74.02 141.04 73.69 141.14 73.35 141.23 73.02 141.33 72.68 141.43 72.35 141.53 72.01 141.62 71.67 141.72 71.33 141.82 70.99 141.91 70.65 142.01 70.31 142.11 69.97 142.21 69.63 142.3 69.28 142.4 68.94 142.5 68.59 142.59 68.24 142.69 67.9 142.79 67.55 142.89 67.2 142.98 66.85 143.08 66.5 143.18 66.14 143.28 65.79 143.37 65.44 143.47 65.08 143.57 64.73 143.66 64.37 143.76 64.02 143.86 63.66 143.96 63.3 144.05 62.94 144.15 62.58 144.25 62.22 144.34 61.85 144.44 61.49 144.54 61.13 144.64 60.76 144.73 60.4 144.83 60.03 144.93 59.66 145.03 59.3 145.12 58.93 145.22 58.56 145.32 58.19 145.41 57.81 145.51 57.44 145.61 57.07 145.71 56.69 145.8 56.32 145.9 55.94 146 55.56 146.09 55.19 146.19 54.81 146.29 54.43 146.39 54.05 146.48 53.67 146.58 53.28 146.68 52.9 146.78 52.52 146.87 52.13 146.97 51.75 147.07 51.36 147.16 50.98 147.26 50.59 147.36 50.2 147.46 49.81 147.55 49.42 147.65 49.03 147.75 48.63 147.84 48.24 147.94 47.85 148.04 47.45 148.14 47.05 148.23 46.66 148.33 46.26 148.43 45.86 148.53 45.46 148.62 45.06 148.72 44.66 148.82 44.26 148.91 43.86 149.01 43.45 149.11 43.05 149.21 42.64 149.3 42.24 149.4 41.83 149.5 41.42 149.6 41.01 149.69 40.6 149.79 40.19 149.89 39.78 149.98 39.37 150.08 38.96 150.18 38.54 150.28 38.13 150.37 37.71 150.47 37.3 150.57 36.88 150.66 36.46 150.76 36.04 150.86 35.62 150.96 35.2 151.05 34.78 151.15 34.35 151.25 33.93 151.35 33.51 151.44 33.08 151.54 32.66 151.64 32.23 151.74 31.8 151.83 31.37 151.93 30.94 151 35.07"/><path class="cls-10" d="M57.61,29.81a18.61,18.61,0,0,1-.76,5.49l3.8-.86a18.86,18.86,0,0,1-3-4.63" transform="translate(-3.27 -1.31)"/><path class="cls-10" d="M155.78,29.56a19.15,19.15,0,0,1-3,4.63l3.79.86a18.58,18.58,0,0,1-.75-5.49" transform="translate(-3.27 -1.31)"/><path d="M106.77,29.22a18.8,18.8,0,0,1-2,5.17l3.89,0a19,19,0,0,1-1.9-5.2" transform="translate(-3.27 -1.31)"/><path d="M106.69,153.61a18.75,18.75,0,0,1,2-5.17l-3.89,0a18.6,18.6,0,0,1,1.91,5.2" transform="translate(-3.27 -1.31)"/><path d="M83,131.77c0-.33,0-.35-.29-.35a3.16,3.16,0,0,1-2.54.92v.42a4.09,4.09,0,0,0,1.84-.38v7.49c0,.52,0,.69-1.31.69h-.44V141c.39,0,1.78,0,2.25,0s1.86,0,2.25,0v-.42h-.45c-1.27,0-1.31-.17-1.31-.69v-8.1" transform="translate(-3.27 -1.31)"/><path class="cls-8" d="M82.45,142.39a6.13,6.13,0,1,1,5.8-6.12,6,6,0,0,1-5.8,6.12m6.38-6.12A6.39,6.39,0,1,0,82.44,143,6.53,6.53,0,0,0,88.83,136.27Z" transform="translate(-3.27 -1.31)"/><circle cx="86.08" cy="124.66" r="1.27"/><circle cx="120.63" cy="124.73" r="1.27"/><circle cx="103.46" cy="138.11" r="1.27"/><circle cx="67.03" cy="77.58" r="1.27"/></g></svg>