<svg id="Layer_1" data-name="Layer 1" xmlns="http://www.w3.org/2000/svg" viewBox="0 0 355.38 356.37"><defs><style>.cls-1{fill:#41bfb3;opacity:0.2;}.cls-2,.cls-4,.cls-5{fill:none;stroke:#000;stroke-linecap:round;stroke-miterlimit:10;}.cls-2{stroke-width:0.8px;}.cls-3{fill:#fff;}.cls-4{stroke-width:0.8px;}.cls-5{stroke-width:0.4px;}</style></defs><title>CosAndSin.02</title><path class="cls-1" d="M218.34,191.69a34.07,34.07,0,0,0-4.55-17l-29.46,17" transform="translate(-13.85 -5.8)"/><line class="cls-2" x1="0.4" y1="185.89" x2="336.97" y2="185.89"/><path d="M354.41,191.69a14.38,14.38,0,0,1-4-1.5v3a14.66,14.66,0,0,1,4-1.49" transform="translate(-13.85 -5.8)"/><rect class="cls-3" x="340.76" y="179.48" width="14.62" height="12.82"/><path d="M364.71,188.94a.72.72,0,0,0-.63.7.44.44,0,0,0,.47.46.75.75,0,0,0,.73-.76c0-.6-.69-.88-1.29-.88a1.83,1.83,0,0,0-1.49,1.14,1.49,1.49,0,0,0-1.48-1.14c-1.47,0-2.24,1.89-2.24,2.2a.14.14,0,0,0,.15.13c.12,0,.15-.08.18-.14.49-1.6,1.45-1.9,1.87-1.9.64,0,.77.6.77.95a6.16,6.16,0,0,1-.26,1.34l-.49,2c-.21.86-.63,1.65-1.39,1.65a1.42,1.42,0,0,1-.73-.19.75.75,0,0,0,.63-.7.45.45,0,0,0-.49-.46.75.75,0,0,0-.72.76c0,.6.68.87,1.3.87a1.77,1.77,0,0,0,1.47-1.13,1.5,1.5,0,0,0,1.48,1.13c1.47,0,2.25-1.88,2.25-2.19a.13.13,0,0,0-.15-.13c-.13,0-.14.07-.18.18-.39,1.27-1.23,1.86-1.87,1.86s-.78-.38-.78-1a6.63,6.63,0,0,1,.29-1.49l.5-1.95c.22-.87.71-1.5,1.37-1.5a1.53,1.53,0,0,1,.73.19" transform="translate(-13.85 -5.8)"/><line class="cls-2" x1="170.48" y1="355.97" x2="170.48" y2="19.39"/><path d="M184.33,21.61a14.33,14.33,0,0,1-1.5,4h3a14,14,0,0,1-1.49-4" transform="translate(-13.85 -5.8)"/><rect class="cls-3" x="163.48" width="14.01" height="15.61"/><path d="M184.38,16.91a2.12,2.12,0,0,1-1.65,1,1.07,1.07,0,0,1-1.08-.69.36.36,0,0,0,.14,0,.73.73,0,0,0,.72-.71.44.44,0,0,0-.49-.44.78.78,0,0,0-.73.88,1.3,1.3,0,0,0,1.44,1.23A3.79,3.79,0,0,0,186,15.31l1.4-5.6a.93.93,0,0,0,.05-.24.37.37,0,0,0-.39-.36.58.58,0,0,0-.55.49l-1.06,4.22a.94.94,0,0,1-.19.45,1.85,1.85,0,0,1-1.45.89c-.8,0-.87-.79-.87-1.18a9.62,9.62,0,0,1,.77-3,2.46,2.46,0,0,0,.25-.91A1.12,1.12,0,0,0,182.84,9c-1.32,0-1.85,2.09-1.85,2.2a.14.14,0,0,0,.15.13c.13,0,.15-.06.21-.26.34-1.2.89-1.78,1.45-1.78.13,0,.37,0,.37.48a4,4,0,0,1-.37,1.33,7.12,7.12,0,0,0-.71,2.7,1.55,1.55,0,0,0,1.7,1.68,1.9,1.9,0,0,0,1.43-.66l0,0a5.54,5.54,0,0,1-.86,2.11" transform="translate(-13.85 -5.8)"/><circle class="cls-4" cx="184.33" cy="191.69" r="113.39" transform="translate(-95.4 180.68) rotate(-45)"/><line class="cls-5" x1="113.79" y1="183.89" x2="113.79" y2="187.88"/><path d="M122.57,202.1c.24,0,.5,0,.5-.29s-.26-.29-.5-.29h-7.78c-.24,0-.5,0-.5.29s.26.29.5.29h7.78" transform="translate(-13.85 -5.8)"/><path d="M127.71,205.41c-.47,0-1.4-.25-1.67-1.82a17.46,17.46,0,0,1-.16-3,12.58,12.58,0,0,1,.23-3.09,1.72,1.72,0,0,1,1.6-1.41,1.75,1.75,0,0,1,1.65,1.57,15.17,15.17,0,0,1,.18,2.93,18.67,18.67,0,0,1-.15,2.93c-.28,1.58-1.18,1.85-1.68,1.85m2.93-4.61a8,8,0,0,0-.59-3.45,2.57,2.57,0,0,0-4.72.11,7.62,7.62,0,0,0-.54,3.34,7.24,7.24,0,0,0,.62,3.47,2.57,2.57,0,0,0,4.68-.15A8,8,0,0,0,130.64,200.8Z" transform="translate(-13.85 -5.8)"/><path d="M133.94,204.71a.7.7,0,1,0-.7.69.69.69,0,0,0,.7-.69" transform="translate(-13.85 -5.8)"/><path d="M137,197.17a4.23,4.23,0,0,0,1.28.21A3.06,3.06,0,0,0,141,196c0-.06,0-.13-.11-.13a.41.41,0,0,0-.19.06,4.67,4.67,0,0,1-3.76,0,.33.33,0,0,0-.14,0c-.12,0-.12.09-.12.32v4.26c0,.26,0,.35.17.35s.09,0,.23-.19a2.18,2.18,0,0,1,1.8-.93,1.48,1.48,0,0,1,1.25,1,4.76,4.76,0,0,1,.26,1.81,3.83,3.83,0,0,1-.4,2,1.79,1.79,0,0,1-1.51.87,2.21,2.21,0,0,1-2.14-1.69.59.59,0,0,0,.23,0,.63.63,0,0,0,0-1.26.61.61,0,0,0-.64.69,2.62,2.62,0,0,0,2.57,2.61,3.11,3.11,0,0,0,3.05-3.19,2.91,2.91,0,0,0-2.66-3.13,2.47,2.47,0,0,0-1.82.76v-3" transform="translate(-13.85 -5.8)"/><line class="cls-5" x1="227.17" y1="183.89" x2="227.17" y2="187.88"/><path d="M235.51,205c-.47,0-1.4-.25-1.67-1.82a17.46,17.46,0,0,1-.16-3,12.58,12.58,0,0,1,.23-3.09,1.72,1.72,0,0,1,1.6-1.41,1.75,1.75,0,0,1,1.65,1.57,15.17,15.17,0,0,1,.18,2.93,18.67,18.67,0,0,1-.15,2.93c-.28,1.58-1.18,1.85-1.68,1.85m2.93-4.61a7.91,7.91,0,0,0-.59-3.44,2.57,2.57,0,0,0-4.72.1,7.62,7.62,0,0,0-.54,3.34,7.24,7.24,0,0,0,.62,3.47,2.57,2.57,0,0,0,4.68-.15A8,8,0,0,0,238.44,200.4Z" transform="translate(-13.85 -5.8)"/><path d="M241.74,204.31a.7.7,0,1,0-.7.69.69.69,0,0,0,.7-.69" transform="translate(-13.85 -5.8)"/><path d="M244.84,196.77a4.23,4.23,0,0,0,1.28.21,3.06,3.06,0,0,0,2.65-1.39c0-.06,0-.13-.11-.13a.41.41,0,0,0-.19.06,4.67,4.67,0,0,1-3.76,0,.33.33,0,0,0-.14,0c-.12,0-.12.09-.12.32V200c0,.26,0,.35.17.35s.09,0,.23-.19a2.18,2.18,0,0,1,1.8-.93,1.48,1.48,0,0,1,1.25.95,4.76,4.76,0,0,1,.26,1.81,3.83,3.83,0,0,1-.4,2,1.81,1.81,0,0,1-1.51.87,2.21,2.21,0,0,1-2.14-1.69.59.59,0,0,0,.23,0,.63.63,0,1,0,0-1.26.61.61,0,0,0-.64.69,2.62,2.62,0,0,0,2.57,2.61,3.11,3.11,0,0,0,3-3.19,2.91,2.91,0,0,0-2.66-3.13,2.47,2.47,0,0,0-1.82.76v-3" transform="translate(-13.85 -5.8)"/><line class="cls-5" x1="68.43" y1="185.09" x2="68.43" y2="186.68"/><line class="cls-5" x1="79.77" y1="185.09" x2="79.77" y2="186.68"/><line class="cls-5" x1="91.11" y1="185.09" x2="91.11" y2="186.68"/><line class="cls-5" x1="102.45" y1="185.09" x2="102.45" y2="186.68"/><line class="cls-5" x1="125.13" y1="185.09" x2="125.13" y2="186.68"/><line class="cls-5" x1="136.46" y1="185.09" x2="136.46" y2="186.68"/><line class="cls-5" x1="147.8" y1="185.09" x2="147.8" y2="186.68"/><line class="cls-5" x1="159.14" y1="185.09" x2="159.14" y2="186.68"/><line class="cls-5" x1="272.53" y1="185.09" x2="272.53" y2="186.68"/><line class="cls-5" x1="261.19" y1="185.09" x2="261.19" y2="186.68"/><line class="cls-5" x1="249.85" y1="185.09" x2="249.85" y2="186.68"/><line class="cls-5" x1="238.51" y1="185.09" x2="238.51" y2="186.68"/><line class="cls-5" x1="215.83" y1="185.09" x2="215.83" y2="186.68"/><line class="cls-5" x1="204.5" y1="185.09" x2="204.5" y2="186.68"/><line class="cls-5" x1="193.16" y1="185.09" x2="193.16" y2="186.68"/><line class="cls-5" x1="181.82" y1="185.09" x2="181.82" y2="186.68"/><line class="cls-5" x1="172.47" y1="242.58" x2="168.49" y2="242.58"/><path d="M190.8,252.41c-.46,0-1.39-.25-1.66-1.82a17.46,17.46,0,0,1-.16-3,12.58,12.58,0,0,1,.23-3.09,1.72,1.72,0,0,1,1.59-1.41,1.75,1.75,0,0,1,1.66,1.57,15.17,15.17,0,0,1,.18,2.93,18.67,18.67,0,0,1-.15,2.93c-.28,1.58-1.18,1.85-1.69,1.85m2.94-4.61a8,8,0,0,0-.59-3.45,2.57,2.57,0,0,0-4.72.11,7.62,7.62,0,0,0-.54,3.34,7.24,7.24,0,0,0,.62,3.47,2.55,2.55,0,0,0,2.29,1.43,2.57,2.57,0,0,0,2.39-1.58A8,8,0,0,0,193.74,247.8Z" transform="translate(-13.85 -5.8)"/><path d="M196.94,251.71a.7.7,0,1,0-.7.69.69.69,0,0,0,.7-.69" transform="translate(-13.85 -5.8)"/><path d="M200,244.17a4.23,4.23,0,0,0,1.28.21A3.06,3.06,0,0,0,204,243c0-.06,0-.13-.11-.13a.41.41,0,0,0-.19.06,4.67,4.67,0,0,1-3.76,0,.33.33,0,0,0-.14,0c-.12,0-.12.09-.12.32v4.26c0,.26,0,.35.17.35s.09,0,.23-.19a2.16,2.16,0,0,1,1.8-.93,1.48,1.48,0,0,1,1.25,1,4.76,4.76,0,0,1,.26,1.81,3.75,3.75,0,0,1-.41,2,1.76,1.76,0,0,1-1.5.87,2.21,2.21,0,0,1-2.14-1.69.59.59,0,0,0,.23,0,.63.63,0,0,0,0-1.26.61.61,0,0,0-.64.69,2.62,2.62,0,0,0,2.57,2.61,3.11,3.11,0,0,0,3.05-3.19,2.91,2.91,0,0,0-2.66-3.13,2.47,2.47,0,0,0-1.82.76v-3" transform="translate(-13.85 -5.8)"/><line class="cls-5" x1="172.47" y1="129.19" x2="168.49" y2="129.19"/><path d="M191.2,139.61c-.46,0-1.39-.25-1.66-1.82a17.46,17.46,0,0,1-.16-3,12.58,12.58,0,0,1,.23-3.09,1.72,1.72,0,0,1,1.59-1.41,1.75,1.75,0,0,1,1.66,1.57,15.17,15.17,0,0,1,.18,2.93,18.67,18.67,0,0,1-.15,2.93c-.28,1.58-1.18,1.85-1.69,1.85m2.94-4.61a8,8,0,0,0-.59-3.45,2.57,2.57,0,0,0-4.72.11,7.62,7.62,0,0,0-.54,3.34,7.24,7.24,0,0,0,.62,3.47,2.55,2.55,0,0,0,2.29,1.43,2.57,2.57,0,0,0,2.39-1.58A8,8,0,0,0,194.14,135Z" transform="translate(-13.85 -5.8)"/><path d="M197.34,138.91a.7.7,0,1,0-.7.69.69.69,0,0,0,.7-.69" transform="translate(-13.85 -5.8)"/><path d="M200.44,131.37a4.23,4.23,0,0,0,1.28.21,3.09,3.09,0,0,0,2.66-1.39.12.12,0,0,0-.12-.13.41.41,0,0,0-.19.06,4.79,4.79,0,0,1-1.86.39,4.59,4.59,0,0,1-1.9-.41.39.39,0,0,0-.14,0c-.12,0-.12.09-.12.32v4.26c0,.26,0,.35.17.35s.09,0,.23-.19a2.16,2.16,0,0,1,1.8-.93,1.48,1.48,0,0,1,1.25.95,4.76,4.76,0,0,1,.26,1.81,3.75,3.75,0,0,1-.41,2,1.76,1.76,0,0,1-1.5.87,2.21,2.21,0,0,1-2.14-1.69.59.59,0,0,0,.23,0,.63.63,0,0,0,0-1.26.61.61,0,0,0-.64.69,2.62,2.62,0,0,0,2.58,2.61,3.11,3.11,0,0,0,3-3.19,2.91,2.91,0,0,0-2.66-3.13,2.47,2.47,0,0,0-1.82.76v-3" transform="translate(-13.85 -5.8)"/><line class="cls-5" x1="171.28" y1="287.94" x2="169.68" y2="287.94"/><line class="cls-5" x1="171.28" y1="276.6" x2="169.68" y2="276.6"/><line class="cls-5" x1="171.28" y1="265.26" x2="169.68" y2="265.26"/><line class="cls-5" x1="171.28" y1="253.92" x2="169.68" y2="253.92"/><line class="cls-5" x1="171.28" y1="231.24" x2="169.68" y2="231.24"/><line class="cls-5" x1="171.28" y1="219.9" x2="169.68" y2="219.9"/><line class="cls-5" x1="171.28" y1="208.56" x2="169.68" y2="208.56"/><line class="cls-5" x1="171.28" y1="197.23" x2="169.68" y2="197.23"/><line class="cls-5" x1="171.28" y1="83.84" x2="169.68" y2="83.84"/><line class="cls-5" x1="171.28" y1="95.18" x2="169.68" y2="95.18"/><line class="cls-5" x1="171.28" y1="106.52" x2="169.68" y2="106.52"/><line class="cls-5" x1="171.28" y1="117.85" x2="169.68" y2="117.85"/><line class="cls-5" x1="171.28" y1="140.53" x2="169.68" y2="140.53"/><line class="cls-5" x1="171.28" y1="151.87" x2="169.68" y2="151.87"/><line class="cls-5" x1="171.28" y1="163.21" x2="169.68" y2="163.21"/><line class="cls-5" x1="171.28" y1="174.55" x2="169.68" y2="174.55"/><line class="cls-2" x1="170.48" y1="185.89" x2="268.68" y2="129.19"/><path d="M284.12,135a1.6,1.6,0,1,0-1.6,1.59A1.6,1.6,0,0,0,284.12,135Z" transform="translate(-13.85 -5.8)"/><path class="cls-5" d="M284.12,135a1.6,1.6,0,1,0-1.6,1.59A1.6,1.6,0,0,0,284.12,135Z" transform="translate(-13.85 -5.8)"/><path d="M227.32,180.56a12,12,0,0,1-1.18,3.22c-.42.73-.92,1.41-1.52,1.41s-.81-.35-.81-1.77a12.53,12.53,0,0,1,.46-2.86h3m-2.93-.43a12.26,12.26,0,0,1,1.09-3.07c.47-.86,1-1.55,1.61-1.55.47,0,.79.4.79,1.78a10.52,10.52,0,0,1-.46,2.84Zm4.35-2c0-1.47-.46-2.89-1.64-2.89-2,0-4.15,4.21-4.15,7.37,0,.66.15,2.89,1.65,2.89C226.56,185.48,228.74,181.37,228.74,178.11Z" transform="translate(-13.85 -5.8)"/><path d="M291.07,133.59s0-.07-.25-.31c-1.43-1.46-2.24-3.83-2.24-6.76a9.51,9.51,0,0,1,2.34-6.88c.15-.13.15-.16.15-.2s-.07-.11-.13-.11a5.94,5.94,0,0,0-2.07,2.44,10.26,10.26,0,0,0-1.06,4.75,10.57,10.57,0,0,0,.95,4.53,6.1,6.1,0,0,0,2.18,2.66.12.12,0,0,0,.13-.12" transform="translate(-13.85 -5.8)"/><path d="M298.71,124.24a.72.72,0,0,0-.63.7.44.44,0,0,0,.47.46.75.75,0,0,0,.73-.76c0-.6-.69-.88-1.29-.88a1.83,1.83,0,0,0-1.49,1.14,1.49,1.49,0,0,0-1.48-1.14c-1.47,0-2.24,1.89-2.24,2.2a.14.14,0,0,0,.15.13c.12,0,.15-.08.18-.14.48-1.6,1.45-1.9,1.86-1.9.65,0,.78.61.78,1a6.16,6.16,0,0,1-.26,1.34l-.49,2c-.21.87-.63,1.66-1.39,1.66a1.42,1.42,0,0,1-.73-.19.75.75,0,0,0,.63-.7.45.45,0,0,0-.49-.46.75.75,0,0,0-.72.76c0,.6.68.87,1.29.87a1.77,1.77,0,0,0,1.48-1.13,1.5,1.5,0,0,0,1.48,1.13c1.47,0,2.24-1.88,2.24-2.19a.12.12,0,0,0-.14-.13c-.13,0-.14.07-.18.18-.39,1.27-1.23,1.86-1.87,1.86s-.78-.38-.78-1a6.63,6.63,0,0,1,.29-1.49l.5-2c.22-.87.71-1.5,1.37-1.5a1.51,1.51,0,0,1,.73.19" transform="translate(-13.85 -5.8)"/><path d="M302.7,130.16c0-.83-.27-1.45-.86-1.45a.68.68,0,0,0-.69.69.69.69,0,0,0,.7.7.65.65,0,0,0,.48-.19s0,0,.06,0a1,1,0,0,1,0,.28,3.4,3.4,0,0,1-.92,2.34c-.15.17-.15.2-.15.23a.15.15,0,0,0,.14.14,3.46,3.46,0,0,0,1.22-2.71" transform="translate(-13.85 -5.8)"/><path d="M310,131.71a2.12,2.12,0,0,1-1.65,1,1.07,1.07,0,0,1-1.08-.69.36.36,0,0,0,.14,0,.73.73,0,0,0,.72-.71.44.44,0,0,0-.49-.44.78.78,0,0,0-.73.88,1.3,1.3,0,0,0,1.44,1.23,3.79,3.79,0,0,0,3.29-2.92l1.4-5.6a.93.93,0,0,0,.05-.24.37.37,0,0,0-.39-.36.58.58,0,0,0-.55.49l-1.06,4.22a.94.94,0,0,1-.19.45,1.84,1.84,0,0,1-1.45.89c-.8,0-.87-.79-.87-1.18a9.62,9.62,0,0,1,.77-3,2.46,2.46,0,0,0,.25-.91,1.12,1.12,0,0,0-1.14-1.15c-1.32,0-1.85,2.09-1.85,2.2a.14.14,0,0,0,.15.13c.14,0,.15-.06.21-.26.34-1.2.89-1.78,1.45-1.78.13,0,.37,0,.37.48a4,4,0,0,1-.37,1.33,7.12,7.12,0,0,0-.71,2.7,1.55,1.55,0,0,0,1.7,1.68,1.9,1.9,0,0,0,1.43-.66l0,0a5.54,5.54,0,0,1-.86,2.11" transform="translate(-13.85 -5.8)"/><path d="M317.55,126.52a10.62,10.62,0,0,0-.95-4.54,6.11,6.11,0,0,0-2.18-2.65c-.06,0-.13,0-.13.11s0,.07.24.32c1.44,1.45,2.24,3.82,2.24,6.75s-.67,5.19-2.34,6.88c-.14.13-.14.16-.14.2a.12.12,0,0,0,.13.12,6.08,6.08,0,0,0,2.07-2.45,10.34,10.34,0,0,0,1.06-4.74" transform="translate(-13.85 -5.8)"/><path d="M234,148.29c0-.33,0-.34-.29-.34a3.22,3.22,0,0,1-2.54.92v.41a4.12,4.12,0,0,0,1.83-.37v7.48c0,.52,0,.69-1.3.69h-.45v.42c.39,0,1.78,0,2.26,0s1.85,0,2.24,0v-.42h-.45c-1.26,0-1.3-.17-1.3-.69v-8.1" transform="translate(-13.85 -5.8)"/><path d="M28.57,188.29s0-.07-.25-.31c-1.43-1.46-2.24-3.83-2.24-6.76a9.51,9.51,0,0,1,2.34-6.88c.15-.13.15-.16.15-.2s-.07-.11-.13-.11a5.94,5.94,0,0,0-2.07,2.44,10.26,10.26,0,0,0-1.06,4.75,10.57,10.57,0,0,0,1,4.53,6.1,6.1,0,0,0,2.18,2.66.12.12,0,0,0,.13-.12" transform="translate(-13.85 -5.8)"/><path d="M38.77,181.5c.24,0,.5,0,.5-.29s-.26-.29-.5-.29H31c-.24,0-.5,0-.5.29s.26.29.5.29h7.78" transform="translate(-13.85 -5.8)"/><path d="M44.64,175.59c0-.33,0-.34-.29-.34a3.2,3.2,0,0,1-2.54.92v.41a4.12,4.12,0,0,0,1.83-.37v7.48c0,.52,0,.69-1.3.69h-.45v.42c.39,0,1.78,0,2.26,0s1.85,0,2.24,0v-.42h-.45c-1.26,0-1.3-.17-1.3-.69v-8.1" transform="translate(-13.85 -5.8)"/><path d="M50.3,184.86c0-.83-.27-1.45-.86-1.45a.68.68,0,0,0-.69.69.69.69,0,0,0,.7.7.65.65,0,0,0,.48-.19s0,0,.06,0a1,1,0,0,1,0,.28,3.4,3.4,0,0,1-.92,2.34c-.15.17-.15.2-.15.23a.15.15,0,0,0,.14.14,3.46,3.46,0,0,0,1.22-2.71" transform="translate(-13.85 -5.8)"/><path d="M57.3,184.81c-.46,0-1.39-.25-1.66-1.82a17.46,17.46,0,0,1-.16-3,12.58,12.58,0,0,1,.23-3.09,1.63,1.63,0,0,1,3.25.16,15.17,15.17,0,0,1,.18,2.93A18.67,18.67,0,0,1,59,183c-.28,1.58-1.18,1.85-1.69,1.85m2.94-4.61a7.91,7.91,0,0,0-.59-3.44,2.57,2.57,0,0,0-4.72.1,7.62,7.62,0,0,0-.54,3.34,7.24,7.24,0,0,0,.62,3.47,2.55,2.55,0,0,0,2.29,1.43,2.59,2.59,0,0,0,2.39-1.58A8,8,0,0,0,60.24,180.2Z" transform="translate(-13.85 -5.8)"/><path d="M64.85,181.22a10.62,10.62,0,0,0-.95-4.54A6.11,6.11,0,0,0,61.72,174c-.06,0-.13,0-.13.11s0,.07.24.32c1.44,1.45,2.24,3.82,2.24,6.75s-.67,5.19-2.34,6.88c-.14.13-.14.16-.14.2a.12.12,0,0,0,.13.12A6.08,6.08,0,0,0,63.79,186a10.34,10.34,0,0,0,1.06-4.74" transform="translate(-13.85 -5.8)"/><path d="M307.77,188.29s0-.07-.25-.31c-1.43-1.46-2.24-3.83-2.24-6.76a9.51,9.51,0,0,1,2.34-6.88c.15-.13.15-.16.15-.2s-.07-.11-.13-.11a5.94,5.94,0,0,0-2.07,2.44,10.26,10.26,0,0,0-1.06,4.75,10.57,10.57,0,0,0,.95,4.53,6.1,6.1,0,0,0,2.18,2.66.12.12,0,0,0,.13-.12" transform="translate(-13.85 -5.8)"/><path d="M312.74,175.59c0-.33,0-.34-.29-.34a3.22,3.22,0,0,1-2.54.92v.41a4.18,4.18,0,0,0,1.84-.37v7.48c0,.52-.05.69-1.31.69H310v.42c.39,0,1.78,0,2.26,0s1.85,0,2.24,0v-.42h-.44c-1.27,0-1.31-.17-1.31-.69v-8.1" transform="translate(-13.85 -5.8)"/><path d="M318.4,184.86c0-.83-.27-1.45-.86-1.45a.68.68,0,0,0-.69.69.69.69,0,0,0,.7.7.65.65,0,0,0,.48-.19s0,0,.06,0a1,1,0,0,1,0,.28,3.42,3.42,0,0,1-.91,2.34c-.16.17-.16.2-.16.23a.15.15,0,0,0,.14.14,3.43,3.43,0,0,0,1.22-2.71" transform="translate(-13.85 -5.8)"/><path d="M325.4,184.81c-.45,0-1.39-.25-1.66-1.82a17.46,17.46,0,0,1-.16-3,12.58,12.58,0,0,1,.23-3.09,1.72,1.72,0,0,1,1.59-1.41,1.75,1.75,0,0,1,1.66,1.57,15.17,15.17,0,0,1,.18,2.93,18.67,18.67,0,0,1-.15,2.93c-.28,1.58-1.18,1.85-1.69,1.85m2.94-4.61a7.91,7.91,0,0,0-.59-3.44,2.57,2.57,0,0,0-4.72.1,7.62,7.62,0,0,0-.54,3.34,7.24,7.24,0,0,0,.62,3.47,2.55,2.55,0,0,0,2.29,1.43,2.59,2.59,0,0,0,2.39-1.58A8,8,0,0,0,328.34,180.2Z" transform="translate(-13.85 -5.8)"/><path d="M333,181.22a10.62,10.62,0,0,0-.95-4.54,6.11,6.11,0,0,0-2.18-2.65c-.06,0-.13,0-.13.11s0,.07.24.32c1.44,1.45,2.24,3.82,2.24,6.75s-.67,5.19-2.34,6.88c-.14.13-.14.16-.14.2a.12.12,0,0,0,.13.12,6.08,6.08,0,0,0,2.07-2.45,10.34,10.34,0,0,0,1.06-4.74" transform="translate(-13.85 -5.8)"/><rect class="cls-3" x="145.95" y="302.95" width="49.07" height="20.99"/><path d="M167.77,326.29s0-.07-.25-.31c-1.43-1.46-2.24-3.83-2.24-6.76a9.51,9.51,0,0,1,2.34-6.88c.15-.13.15-.16.15-.2a.12.12,0,0,0-.13-.12,6,6,0,0,0-2.07,2.45,10.26,10.26,0,0,0-1.06,4.75,10.57,10.57,0,0,0,1,4.53,6.1,6.1,0,0,0,2.18,2.66.12.12,0,0,0,.13-.12" transform="translate(-13.85 -5.8)"/><path d="M172.1,322.81c-.46,0-1.39-.25-1.66-1.82a17.46,17.46,0,0,1-.16-3,12.58,12.58,0,0,1,.23-3.09,1.63,1.63,0,0,1,3.25.16,15.17,15.17,0,0,1,.18,2.93,18.67,18.67,0,0,1-.15,2.93c-.28,1.58-1.18,1.85-1.69,1.85M175,318.2a8,8,0,0,0-.59-3.45,2.57,2.57,0,0,0-4.72.11,7.62,7.62,0,0,0-.54,3.34,7.24,7.24,0,0,0,.62,3.47,2.55,2.55,0,0,0,2.29,1.43,2.59,2.59,0,0,0,2.39-1.58A8,8,0,0,0,175,318.2Z" transform="translate(-13.85 -5.8)"/><path d="M178.4,322.86c0-.84-.27-1.45-.86-1.45a.68.68,0,0,0-.69.69.69.69,0,0,0,.7.7.65.65,0,0,0,.48-.19s0,0,.06,0a1,1,0,0,1,0,.28,3.4,3.4,0,0,1-.92,2.34c-.15.17-.15.2-.15.23a.15.15,0,0,0,.14.14,3.46,3.46,0,0,0,1.22-2.71" transform="translate(-13.85 -5.8)"/><path d="M191.37,319.5c.24,0,.5,0,.5-.29s-.26-.29-.5-.29h-7.78c-.24,0-.5,0-.5.29s.26.29.5.29h7.78" transform="translate(-13.85 -5.8)"/><path d="M197.24,313.59c0-.33,0-.34-.29-.34a3.22,3.22,0,0,1-2.54.92v.41a4.12,4.12,0,0,0,1.83-.37v7.48c0,.52,0,.69-1.3.69h-.45v.42c.39,0,1.78,0,2.26,0s1.85,0,2.24,0v-.42h-.45c-1.26,0-1.3-.17-1.3-.69v-8.1" transform="translate(-13.85 -5.8)"/><path d="M204.15,319.22a10.62,10.62,0,0,0-1-4.54A6.17,6.17,0,0,0,201,312a.12.12,0,0,0-.13.12s0,.07.24.32c1.44,1.45,2.25,3.82,2.25,6.75s-.68,5.19-2.35,6.88c-.14.13-.14.16-.14.2a.12.12,0,0,0,.13.12,6.08,6.08,0,0,0,2.07-2.45,10.34,10.34,0,0,0,1.06-4.74" transform="translate(-13.85 -5.8)"/><rect class="cls-3" x="151.53" y="47.83" width="37.91" height="20.99"/><path d="M173.37,71.19s0-.07-.25-.31c-1.43-1.46-2.24-3.83-2.24-6.76a9.51,9.51,0,0,1,2.34-6.88c.15-.13.15-.16.15-.2a.12.12,0,0,0-.13-.11,6,6,0,0,0-2.07,2.44,10.26,10.26,0,0,0-1.06,4.75,10.57,10.57,0,0,0,.95,4.53,6.1,6.1,0,0,0,2.18,2.66.12.12,0,0,0,.13-.12" transform="translate(-13.85 -5.8)"/><path d="M177.7,67.71c-.46,0-1.39-.25-1.66-1.82a17.46,17.46,0,0,1-.16-3,12.58,12.58,0,0,1,.23-3.09,1.72,1.72,0,0,1,1.59-1.41A1.75,1.75,0,0,1,179.36,60a15.17,15.17,0,0,1,.18,2.93,18.67,18.67,0,0,1-.15,2.93c-.28,1.58-1.18,1.85-1.69,1.85m2.94-4.61a7.91,7.91,0,0,0-.59-3.44,2.57,2.57,0,0,0-4.72.1,7.62,7.62,0,0,0-.54,3.34,7.24,7.24,0,0,0,.62,3.47A2.55,2.55,0,0,0,177.7,68a2.57,2.57,0,0,0,2.39-1.58A8,8,0,0,0,180.64,63.1Z" transform="translate(-13.85 -5.8)"/><path d="M184,67.76c0-.83-.27-1.45-.86-1.45a.68.68,0,0,0-.69.69.69.69,0,0,0,.7.7.65.65,0,0,0,.48-.19s0,0,.06,0a1,1,0,0,1,0,.28,3.4,3.4,0,0,1-.92,2.34c-.15.17-.15.2-.15.23a.15.15,0,0,0,.14.14A3.46,3.46,0,0,0,184,67.76" transform="translate(-13.85 -5.8)"/><path d="M191.64,58.49c0-.33,0-.34-.29-.34a3.2,3.2,0,0,1-2.54.92v.41a4.12,4.12,0,0,0,1.83-.37v7.48c0,.52,0,.69-1.3.69h-.45v.42c.39,0,1.78,0,2.26,0s1.85,0,2.24,0v-.42h-.45c-1.26,0-1.3-.17-1.3-.69v-8.1" transform="translate(-13.85 -5.8)"/><path d="M198.55,64.12a10.62,10.62,0,0,0-1-4.54,6,6,0,0,0-2.18-2.65.12.12,0,0,0-.13.11s0,.07.24.32c1.44,1.45,2.24,3.82,2.24,6.75s-.67,5.19-2.34,6.88c-.14.13-.14.16-.14.2a.12.12,0,0,0,.13.12,6.08,6.08,0,0,0,2.07-2.45,10.34,10.34,0,0,0,1.06-4.74" transform="translate(-13.85 -5.8)"/><path class="cls-2" d="M218.34,192a34.07,34.07,0,0,0-4.55-17" transform="translate(-13.85 -5.8)"/></svg>