<svg id="Layer_1" data-name="Layer 1" xmlns="http://www.w3.org/2000/svg" viewBox="0 0 355.38 356.37"><defs><style>.cls-1,.cls-4,.cls-5,.cls-6{fill:none;}.cls-1,.cls-2,.cls-4,.cls-6{stroke:#000;}.cls-1,.cls-2,.cls-4,.cls-5,.cls-6{stroke-linecap:round;stroke-miterlimit:10;}.cls-1,.cls-5{stroke-width:0.8px;}.cls-2{fill:#27c9b8;stroke-width:0.4px;opacity:0.2;}.cls-3{fill:#fff;}.cls-4{stroke-width:0.8px;}.cls-5{stroke:#27c9b8;stroke-dasharray:2.99 2.99;}.cls-6{stroke-width:0.4px;}</style></defs><title>CosAndSin.05</title><path class="cls-1" d="M230.68,193a45.37,45.37,0,0,0-6.08-22.68" transform="translate(-14.85 -6.8)"/><path class="cls-2" d="M185.33,193h45.35a45.37,45.37,0,0,0-6.08-22.68L185.33,193" transform="translate(-14.85 -6.8)"/><line class="cls-1" x1="0.4" y1="185.89" x2="336.97" y2="185.89"/><path d="M355.41,192.69a14.38,14.38,0,0,1-4-1.5v3a14.66,14.66,0,0,1,4-1.49" transform="translate(-14.85 -6.8)"/><rect class="cls-3" x="340.76" y="179.48" width="14.62" height="12.82"/><path d="M365.71,189.94a.72.72,0,0,0-.63.7.44.44,0,0,0,.47.46.75.75,0,0,0,.73-.76c0-.6-.69-.88-1.29-.88a1.83,1.83,0,0,0-1.49,1.14,1.49,1.49,0,0,0-1.48-1.14c-1.47,0-2.24,1.89-2.24,2.2a.14.14,0,0,0,.15.13c.12,0,.15-.08.18-.14.49-1.6,1.45-1.9,1.87-1.9.64,0,.77.6.77.95a6.16,6.16,0,0,1-.26,1.34l-.49,2c-.21.86-.63,1.65-1.39,1.65a1.42,1.42,0,0,1-.73-.19.75.75,0,0,0,.63-.7.45.45,0,0,0-.49-.46.75.75,0,0,0-.72.76c0,.6.68.87,1.3.87a1.77,1.77,0,0,0,1.47-1.13,1.5,1.5,0,0,0,1.48,1.13c1.47,0,2.25-1.88,2.25-2.19a.13.13,0,0,0-.15-.13c-.13,0-.14.07-.18.18-.39,1.27-1.23,1.86-1.87,1.86s-.78-.38-.78-1a6.63,6.63,0,0,1,.29-1.49l.5-1.95c.22-.87.71-1.5,1.37-1.5a1.53,1.53,0,0,1,.73.19" transform="translate(-14.85 -6.8)"/><line class="cls-1" x1="170.48" y1="355.97" x2="170.48" y2="19.39"/><path d="M185.33,22.61a14.33,14.33,0,0,1-1.5,4h3a14,14,0,0,1-1.49-4" transform="translate(-14.85 -6.8)"/><rect class="cls-3" x="163.48" width="14.01" height="15.61"/><path d="M185.38,17.91a2.12,2.12,0,0,1-1.65,1,1.07,1.07,0,0,1-1.08-.69.36.36,0,0,0,.14,0,.73.73,0,0,0,.72-.71.44.44,0,0,0-.49-.44.78.78,0,0,0-.73.88,1.3,1.3,0,0,0,1.44,1.23A3.79,3.79,0,0,0,187,16.31l1.4-5.6a.93.93,0,0,0,.05-.24.37.37,0,0,0-.39-.36.58.58,0,0,0-.55.49l-1.06,4.22a.94.94,0,0,1-.19.45,1.85,1.85,0,0,1-1.45.89c-.8,0-.87-.79-.87-1.18a9.62,9.62,0,0,1,.77-3,2.46,2.46,0,0,0,.25-.91A1.12,1.12,0,0,0,183.84,10c-1.32,0-1.85,2.09-1.85,2.2a.14.14,0,0,0,.15.13c.13,0,.15-.06.21-.26.34-1.2.89-1.78,1.45-1.78.13,0,.37,0,.37.48a4,4,0,0,1-.37,1.33,7.12,7.12,0,0,0-.71,2.7,1.55,1.55,0,0,0,1.7,1.68,1.9,1.9,0,0,0,1.43-.66l0,0a5.54,5.54,0,0,1-.86,2.11" transform="translate(-14.85 -6.8)"/><circle class="cls-4" cx="185.33" cy="192.69" r="113.39" transform="translate(-96.82 180.68) rotate(-45)"/><line class="cls-5" x1="283.87" y1="299.27" x2="283.87" y2="72.5"/><line class="cls-6" x1="113.79" y1="183.89" x2="113.79" y2="187.88"/><path d="M123.57,203.1c.24,0,.5,0,.5-.29s-.26-.29-.5-.29h-7.78c-.24,0-.5,0-.5.29s.26.29.5.29h7.78" transform="translate(-14.85 -6.8)"/><path d="M128.71,206.41c-.47,0-1.4-.25-1.67-1.82a17.46,17.46,0,0,1-.16-3,12.58,12.58,0,0,1,.23-3.09,1.72,1.72,0,0,1,1.6-1.41,1.75,1.75,0,0,1,1.65,1.57,15.17,15.17,0,0,1,.18,2.93,18.67,18.67,0,0,1-.15,2.93c-.28,1.58-1.18,1.85-1.68,1.85m2.93-4.61a8,8,0,0,0-.59-3.45,2.57,2.57,0,0,0-4.72.11,7.62,7.62,0,0,0-.54,3.34,7.24,7.24,0,0,0,.62,3.47,2.57,2.57,0,0,0,4.68-.15A8,8,0,0,0,131.64,201.8Z" transform="translate(-14.85 -6.8)"/><path d="M134.94,205.71a.7.7,0,1,0-.7.69.69.69,0,0,0,.7-.69" transform="translate(-14.85 -6.8)"/><path d="M138,198.17a4.23,4.23,0,0,0,1.28.21A3.06,3.06,0,0,0,142,197c0-.06,0-.13-.11-.13a.41.41,0,0,0-.19.06,4.67,4.67,0,0,1-3.76,0,.33.33,0,0,0-.14,0c-.12,0-.12.09-.12.32v4.26c0,.26,0,.35.17.35s.09,0,.23-.19a2.18,2.18,0,0,1,1.8-.93,1.48,1.48,0,0,1,1.25,1,4.76,4.76,0,0,1,.26,1.81,3.83,3.83,0,0,1-.4,2,1.79,1.79,0,0,1-1.51.87,2.21,2.21,0,0,1-2.14-1.69.59.59,0,0,0,.23,0,.63.63,0,0,0,0-1.26.61.61,0,0,0-.64.69,2.62,2.62,0,0,0,2.57,2.61,3.11,3.11,0,0,0,3.05-3.19,2.91,2.91,0,0,0-2.66-3.13,2.47,2.47,0,0,0-1.82.76v-3" transform="translate(-14.85 -6.8)"/><line class="cls-6" x1="227.17" y1="183.89" x2="227.17" y2="187.88"/><path d="M236.51,206c-.47,0-1.4-.25-1.67-1.82a17.46,17.46,0,0,1-.16-3,12.58,12.58,0,0,1,.23-3.09,1.72,1.72,0,0,1,1.6-1.41,1.75,1.75,0,0,1,1.65,1.57,15.17,15.17,0,0,1,.18,2.93,18.67,18.67,0,0,1-.15,2.93c-.28,1.58-1.18,1.85-1.68,1.85m2.93-4.61a7.91,7.91,0,0,0-.59-3.44,2.57,2.57,0,0,0-4.72.1,7.62,7.62,0,0,0-.54,3.34,7.24,7.24,0,0,0,.62,3.47,2.57,2.57,0,0,0,4.68-.15A8,8,0,0,0,239.44,201.4Z" transform="translate(-14.85 -6.8)"/><path d="M242.74,205.31a.7.7,0,1,0-.7.69.69.69,0,0,0,.7-.69" transform="translate(-14.85 -6.8)"/><path d="M245.84,197.77a4.23,4.23,0,0,0,1.28.21,3.06,3.06,0,0,0,2.65-1.39c0-.06,0-.13-.11-.13a.41.41,0,0,0-.19.06,4.67,4.67,0,0,1-3.76,0,.33.33,0,0,0-.14,0c-.12,0-.12.09-.12.32V201c0,.26,0,.35.17.35s.09,0,.23-.19a2.18,2.18,0,0,1,1.8-.93,1.48,1.48,0,0,1,1.25.95,4.76,4.76,0,0,1,.26,1.81,3.83,3.83,0,0,1-.4,2,1.81,1.81,0,0,1-1.51.87,2.21,2.21,0,0,1-2.14-1.69.59.59,0,0,0,.23,0,.63.63,0,1,0,0-1.26.61.61,0,0,0-.64.69,2.62,2.62,0,0,0,2.57,2.61,3.11,3.11,0,0,0,3-3.19,2.91,2.91,0,0,0-2.66-3.13,2.47,2.47,0,0,0-1.82.76v-3" transform="translate(-14.85 -6.8)"/><line class="cls-6" x1="68.43" y1="185.09" x2="68.43" y2="186.68"/><line class="cls-6" x1="79.77" y1="185.09" x2="79.77" y2="186.68"/><line class="cls-6" x1="91.11" y1="185.09" x2="91.11" y2="186.68"/><line class="cls-6" x1="102.45" y1="185.09" x2="102.45" y2="186.68"/><line class="cls-6" x1="125.13" y1="185.09" x2="125.13" y2="186.68"/><line class="cls-6" x1="136.46" y1="185.09" x2="136.46" y2="186.68"/><line class="cls-6" x1="147.8" y1="185.09" x2="147.8" y2="186.68"/><line class="cls-6" x1="159.14" y1="185.09" x2="159.14" y2="186.68"/><line class="cls-6" x1="272.53" y1="185.09" x2="272.53" y2="186.68"/><line class="cls-6" x1="261.19" y1="185.09" x2="261.19" y2="186.68"/><line class="cls-6" x1="249.85" y1="185.09" x2="249.85" y2="186.68"/><line class="cls-6" x1="238.51" y1="185.09" x2="238.51" y2="186.68"/><line class="cls-6" x1="215.83" y1="185.09" x2="215.83" y2="186.68"/><line class="cls-6" x1="204.5" y1="185.09" x2="204.5" y2="186.68"/><line class="cls-6" x1="193.16" y1="185.09" x2="193.16" y2="186.68"/><line class="cls-6" x1="181.82" y1="185.09" x2="181.82" y2="186.68"/><line class="cls-6" x1="172.47" y1="242.58" x2="168.49" y2="242.58"/><path d="M193.8,253.41c-.46,0-1.39-.25-1.66-1.82a17.46,17.46,0,0,1-.16-3,12.58,12.58,0,0,1,.23-3.09,1.72,1.72,0,0,1,1.59-1.41,1.75,1.75,0,0,1,1.66,1.57,15.17,15.17,0,0,1,.18,2.93,18.67,18.67,0,0,1-.15,2.93c-.28,1.58-1.18,1.85-1.69,1.85m2.94-4.61a8,8,0,0,0-.59-3.45,2.57,2.57,0,0,0-4.72.11,7.62,7.62,0,0,0-.54,3.34,7.24,7.24,0,0,0,.62,3.47,2.55,2.55,0,0,0,2.29,1.43,2.57,2.57,0,0,0,2.39-1.58A8,8,0,0,0,196.74,248.8Z" transform="translate(-14.85 -6.8)"/><path d="M199.94,252.71a.7.7,0,1,0-.7.69.69.69,0,0,0,.7-.69" transform="translate(-14.85 -6.8)"/><path d="M203,245.17a4.23,4.23,0,0,0,1.28.21A3.06,3.06,0,0,0,207,244c0-.06,0-.13-.11-.13a.41.41,0,0,0-.19.06,4.67,4.67,0,0,1-3.76,0,.33.33,0,0,0-.14,0c-.12,0-.12.09-.12.32v4.26c0,.26,0,.35.17.35s.09,0,.23-.19a2.16,2.16,0,0,1,1.8-.93,1.48,1.48,0,0,1,1.25,1,4.76,4.76,0,0,1,.26,1.81,3.75,3.75,0,0,1-.41,2,1.76,1.76,0,0,1-1.5.87,2.21,2.21,0,0,1-2.14-1.69.59.59,0,0,0,.23,0,.63.63,0,0,0,0-1.26.61.61,0,0,0-.64.69,2.62,2.62,0,0,0,2.57,2.61,3.11,3.11,0,0,0,3.05-3.19,2.91,2.91,0,0,0-2.66-3.13,2.47,2.47,0,0,0-1.82.76v-3" transform="translate(-14.85 -6.8)"/><line class="cls-6" x1="172.47" y1="129.19" x2="168.49" y2="129.19"/><path d="M193.2,140.61c-.46,0-1.39-.25-1.66-1.82a17.46,17.46,0,0,1-.16-3,12.58,12.58,0,0,1,.23-3.09,1.72,1.72,0,0,1,1.59-1.41,1.75,1.75,0,0,1,1.66,1.57,15.17,15.17,0,0,1,.18,2.93,18.67,18.67,0,0,1-.15,2.93c-.28,1.58-1.18,1.85-1.69,1.85m2.94-4.61a8,8,0,0,0-.59-3.45,2.57,2.57,0,0,0-4.72.11,7.62,7.62,0,0,0-.54,3.34,7.24,7.24,0,0,0,.62,3.47,2.55,2.55,0,0,0,2.29,1.43,2.57,2.57,0,0,0,2.39-1.58A8,8,0,0,0,196.14,136Z" transform="translate(-14.85 -6.8)"/><path d="M199.34,139.91a.7.7,0,1,0-.7.69.69.69,0,0,0,.7-.69" transform="translate(-14.85 -6.8)"/><path d="M202.44,132.37a4.23,4.23,0,0,0,1.28.21,3.09,3.09,0,0,0,2.66-1.39.12.12,0,0,0-.12-.13.41.41,0,0,0-.19.06,4.79,4.79,0,0,1-1.86.39,4.59,4.59,0,0,1-1.9-.41.39.39,0,0,0-.14,0c-.12,0-.12.09-.12.32v4.26c0,.26,0,.35.17.35s.09,0,.23-.19a2.16,2.16,0,0,1,1.8-.93,1.48,1.48,0,0,1,1.25.95,4.76,4.76,0,0,1,.26,1.81,3.75,3.75,0,0,1-.41,2,1.76,1.76,0,0,1-1.5.87,2.21,2.21,0,0,1-2.14-1.69.59.59,0,0,0,.23,0,.63.63,0,0,0,0-1.26.61.61,0,0,0-.64.69,2.62,2.62,0,0,0,2.58,2.61,3.11,3.11,0,0,0,3-3.19,2.91,2.91,0,0,0-2.66-3.13,2.47,2.47,0,0,0-1.82.76v-3" transform="translate(-14.85 -6.8)"/><line class="cls-6" x1="171.28" y1="287.94" x2="169.68" y2="287.94"/><line class="cls-6" x1="171.28" y1="276.6" x2="169.68" y2="276.6"/><line class="cls-6" x1="171.28" y1="265.26" x2="169.68" y2="265.26"/><line class="cls-6" x1="171.28" y1="253.92" x2="169.68" y2="253.92"/><line class="cls-6" x1="171.28" y1="231.24" x2="169.68" y2="231.24"/><line class="cls-6" x1="171.28" y1="219.9" x2="169.68" y2="219.9"/><line class="cls-6" x1="171.28" y1="208.56" x2="169.68" y2="208.56"/><line class="cls-6" x1="171.28" y1="197.23" x2="169.68" y2="197.23"/><line class="cls-6" x1="171.28" y1="83.84" x2="169.68" y2="83.84"/><line class="cls-6" x1="171.28" y1="95.18" x2="169.68" y2="95.18"/><line class="cls-6" x1="171.28" y1="106.52" x2="169.68" y2="106.52"/><line class="cls-6" x1="171.28" y1="117.85" x2="169.68" y2="117.85"/><line class="cls-6" x1="171.28" y1="140.53" x2="169.68" y2="140.53"/><line class="cls-6" x1="171.28" y1="151.87" x2="169.68" y2="151.87"/><line class="cls-6" x1="171.28" y1="163.21" x2="169.68" y2="163.21"/><line class="cls-6" x1="171.28" y1="174.55" x2="169.68" y2="174.55"/><line class="cls-1" x1="170.48" y1="185.89" x2="283.9" y2="120.41"/><path d="M300.34,127.21a1.6,1.6,0,1,0-3.19,0,1.6,1.6,0,0,0,3.19,0Z" transform="translate(-14.85 -6.8)"/><path class="cls-6" d="M300.34,127.21a1.6,1.6,0,1,0-3.19,0,1.6,1.6,0,0,0,3.19,0Z" transform="translate(-14.85 -6.8)"/><path d="M217.14,184.43a12.13,12.13,0,0,1-1.18,3.22c-.41.73-.92,1.41-1.52,1.41-.45,0-.8-.35-.8-1.77a12.53,12.53,0,0,1,.46-2.86h3m-2.93-.43a13,13,0,0,1,1.09-3.07c.48-.87,1-1.56,1.61-1.56.48,0,.79.41.79,1.79a10.57,10.57,0,0,1-.46,2.84Zm4.35-2c0-1.46-.46-2.88-1.63-2.88-2,0-4.16,4.21-4.16,7.37,0,.66.15,2.88,1.66,2.88C216.38,189.34,218.56,185.23,218.56,182Z" transform="translate(-14.85 -6.8)"/><path d="M307.89,120.17c.13-.54.18-.57.74-.57h1.43c1.07,0,2,.35,2,1.43a3.73,3.73,0,0,1-.84,2.25,3,3,0,0,1-2.24.81h-2l1-3.92m-1,4.26h2.42c2,0,4-1.46,4-3.1,0-1.12-1-2.14-2.76-2.14H306c-.27,0-.4,0-.4.27s.13.14.35.14c.87,0,.87.12.87.28a1.44,1.44,0,0,1-.05.33l-1.95,7.73c-.12.5-.15.64-1.16.64-.27,0-.42,0-.42.26s.13.16.22.16l.83,0H306l.85,0c.12,0,.27,0,.27-.27s-.12-.15-.34-.15c-.86,0-.88-.1-.88-.24a2,2,0,0,1,0-.24Z" transform="translate(-14.85 -6.8)"/><rect class="cls-3" x="263.6" y="64.56" width="40.54" height="15.89"/><path d="M288.61,78a.71.71,0,0,0-.63.7.44.44,0,0,0,.47.46.75.75,0,0,0,.73-.76c0-.6-.69-.88-1.29-.88a1.83,1.83,0,0,0-1.49,1.14,1.49,1.49,0,0,0-1.48-1.14c-1.47,0-2.24,1.89-2.24,2.2a.14.14,0,0,0,.15.13c.12,0,.15-.08.18-.14.48-1.6,1.45-1.9,1.87-1.9.64,0,.77.61.77,1a6.16,6.16,0,0,1-.26,1.34l-.49,2c-.21.87-.63,1.66-1.39,1.66a1.42,1.42,0,0,1-.73-.19.75.75,0,0,0,.63-.7.45.45,0,0,0-.49-.46.75.75,0,0,0-.72.76c0,.6.68.87,1.29.87A1.77,1.77,0,0,0,285,82.91,1.5,1.5,0,0,0,286.45,84c1.47,0,2.24-1.88,2.24-2.19a.12.12,0,0,0-.14-.13c-.13,0-.14.07-.18.18-.39,1.27-1.23,1.86-1.87,1.86s-.78-.38-.78-1A6.63,6.63,0,0,1,286,81.3l.5-2c.22-.87.71-1.5,1.37-1.5a1.53,1.53,0,0,1,.73.19" transform="translate(-14.85 -6.8)"/><path d="M303.4,81.92c.2,0,.46,0,.46-.26s-.25-.27-.46-.27h-8.46c-.21,0-.47,0-.47.26s.25.27.47.27h8.46m0-2.67c.2,0,.46,0,.46-.26s-.25-.28-.46-.28h-8.46c-.21,0-.47,0-.47.26s.25.28.47.28Z" transform="translate(-14.85 -6.8)"/><path d="M312.74,74.69c0-.33,0-.34-.29-.34a3.22,3.22,0,0,1-2.54.92v.41a4.18,4.18,0,0,0,1.84-.37v7.48c0,.52-.05.69-1.31.69H310v.42c.39,0,1.78,0,2.26,0s1.85,0,2.24,0v-.42h-.44c-1.27,0-1.31-.17-1.31-.69v-8.1" transform="translate(-14.85 -6.8)"/><path d="M310.22,207.17a3.36,3.36,0,0,1-1.37.32.57.57,0,0,1-.64-.64,1.25,1.25,0,0,1,1.15-1.17c.71,0,.87.48.87,1.2a2.81,2.81,0,0,1,0,.29m-2.19.17a2.85,2.85,0,0,1-1.68-2.9,9,9,0,0,1,1.32-4.37,4.65,4.65,0,0,1,3.61-2.37c1.49,0,2.5,1.21,2.5,3.08,0,1.06-.5,4.62-3.2,6.2-.08-.73-.28-1.59-1.22-1.59a1.55,1.55,0,0,0-1.44,1.48A1.25,1.25,0,0,0,308,207.34Zm2.59.07a7,7,0,0,0,4.31-6.2,3.52,3.52,0,0,0-3.56-3.82c-3.08,0-6.18,3.3-6.18,6.62a3.53,3.53,0,0,0,3.58,3.79,4.88,4.88,0,0,0,1.42-.21,9.14,9.14,0,0,0-.09,1.2c0,.42,0,1.5,1.15,1.5,1.71,0,2.34-2.69,2.34-2.78a.13.13,0,0,0-.13-.14c-.08,0-.11.07-.15.23a2,2,0,0,1-1.7,1.42C310.88,209,310.69,208.52,310.62,207.41Z" transform="translate(-14.85 -6.8)"/><path d="M300.31,192.69a1.6,1.6,0,1,0-3.19,0,1.6,1.6,0,0,0,3.19,0Z" transform="translate(-14.85 -6.8)"/><path class="cls-6" d="M300.31,192.69a1.6,1.6,0,1,0-3.19,0,1.6,1.6,0,0,0,3.19,0Z" transform="translate(-14.85 -6.8)"/><path d="M175.65,206.07c-1.18,0-2.43-.86-2.43-3.1a8.42,8.42,0,0,1,1.66-4.89,4.35,4.35,0,0,1,3.21-1.78c1.27,0,2.49.92,2.49,3a9.07,9.07,0,0,1-1.51,4.64,4.47,4.47,0,0,1-3.42,2.14m6.08-6.26a3.52,3.52,0,0,0-3.56-3.82c-3.08,0-6.18,3.3-6.18,6.62a3.53,3.53,0,0,0,3.58,3.79C178.58,206.4,181.73,203.26,181.73,199.81Z" transform="translate(-14.85 -6.8)"/><circle cx="170.48" cy="185.89" r="1.59"/><circle class="cls-6" cx="170.48" cy="185.89" r="1.59"/><polyline class="cls-1" points="277.2 184.89 277.2 179.22 282.87 179.22"/><path d="M31.57,191.29s0-.07-.25-.31c-1.43-1.46-2.24-3.83-2.24-6.76a9.51,9.51,0,0,1,2.34-6.88c.15-.13.15-.16.15-.2s-.07-.11-.13-.11a5.94,5.94,0,0,0-2.07,2.44,10.26,10.26,0,0,0-1.06,4.75,10.57,10.57,0,0,0,1,4.53,6.1,6.1,0,0,0,2.18,2.66.12.12,0,0,0,.13-.12" transform="translate(-14.85 -6.8)"/><path d="M41.77,184.5c.24,0,.5,0,.5-.29s-.26-.29-.5-.29H34c-.24,0-.5,0-.5.29s.26.29.5.29h7.78" transform="translate(-14.85 -6.8)"/><path d="M47.64,178.59c0-.33,0-.34-.29-.34a3.2,3.2,0,0,1-2.54.92v.41a4.12,4.12,0,0,0,1.83-.37v7.48c0,.52,0,.69-1.3.69h-.45v.42c.39,0,1.78,0,2.26,0s1.85,0,2.24,0v-.42h-.45c-1.26,0-1.3-.17-1.3-.69v-8.1" transform="translate(-14.85 -6.8)"/><path d="M53.3,187.86c0-.83-.27-1.45-.86-1.45a.68.68,0,0,0-.69.69.69.69,0,0,0,.7.7.65.65,0,0,0,.48-.19s0,0,.06,0a1,1,0,0,1,0,.28,3.4,3.4,0,0,1-.92,2.34c-.15.17-.15.2-.15.23a.15.15,0,0,0,.14.14,3.46,3.46,0,0,0,1.22-2.71" transform="translate(-14.85 -6.8)"/><path d="M60.3,187.81c-.46,0-1.39-.25-1.66-1.82a17.46,17.46,0,0,1-.16-3,12.58,12.58,0,0,1,.23-3.09,1.63,1.63,0,0,1,3.25.16,15.17,15.17,0,0,1,.18,2.93A18.67,18.67,0,0,1,62,186c-.28,1.58-1.18,1.85-1.69,1.85m2.94-4.61a7.91,7.91,0,0,0-.59-3.44,2.57,2.57,0,0,0-4.72.1,7.62,7.62,0,0,0-.54,3.34,7.24,7.24,0,0,0,.62,3.47,2.55,2.55,0,0,0,2.29,1.43,2.59,2.59,0,0,0,2.39-1.58A8,8,0,0,0,63.24,183.2Z" transform="translate(-14.85 -6.8)"/><path d="M67.85,184.22a10.62,10.62,0,0,0-.95-4.54A6.11,6.11,0,0,0,64.72,177c-.06,0-.13,0-.13.11s0,.07.24.32c1.44,1.45,2.24,3.82,2.24,6.75s-.67,5.19-2.34,6.88c-.14.13-.14.16-.14.2a.12.12,0,0,0,.13.12A6.08,6.08,0,0,0,66.79,189a10.34,10.34,0,0,0,1.06-4.74" transform="translate(-14.85 -6.8)"/><path d="M308.77,191.29s0-.07-.25-.31c-1.43-1.46-2.24-3.83-2.24-6.76a9.51,9.51,0,0,1,2.34-6.88c.15-.13.15-.16.15-.2s-.07-.11-.13-.11a5.94,5.94,0,0,0-2.07,2.44,10.26,10.26,0,0,0-1.06,4.75,10.57,10.57,0,0,0,.95,4.53,6.1,6.1,0,0,0,2.18,2.66.12.12,0,0,0,.13-.12" transform="translate(-14.85 -6.8)"/><path d="M313.74,178.59c0-.33,0-.34-.29-.34a3.22,3.22,0,0,1-2.54.92v.41a4.18,4.18,0,0,0,1.84-.37v7.48c0,.52-.05.69-1.31.69H311v.42c.39,0,1.78,0,2.26,0s1.85,0,2.24,0v-.42h-.44c-1.27,0-1.31-.17-1.31-.69v-8.1" transform="translate(-14.85 -6.8)"/><path d="M319.4,187.86c0-.83-.27-1.45-.86-1.45a.68.68,0,0,0-.69.69.69.69,0,0,0,.7.7.65.65,0,0,0,.48-.19s0,0,.06,0a1,1,0,0,1,0,.28,3.42,3.42,0,0,1-.91,2.34c-.16.17-.16.2-.16.23a.15.15,0,0,0,.14.14,3.43,3.43,0,0,0,1.22-2.71" transform="translate(-14.85 -6.8)"/><path d="M326.4,187.81c-.45,0-1.39-.25-1.66-1.82a17.46,17.46,0,0,1-.16-3,12.58,12.58,0,0,1,.23-3.09,1.72,1.72,0,0,1,1.59-1.41,1.75,1.75,0,0,1,1.66,1.57,15.17,15.17,0,0,1,.18,2.93,18.67,18.67,0,0,1-.15,2.93c-.28,1.58-1.18,1.85-1.69,1.85m2.94-4.61a7.91,7.91,0,0,0-.59-3.44,2.57,2.57,0,0,0-4.72.1,7.62,7.62,0,0,0-.54,3.34,7.24,7.24,0,0,0,.62,3.47,2.55,2.55,0,0,0,2.29,1.43,2.59,2.59,0,0,0,2.39-1.58A8,8,0,0,0,329.34,183.2Z" transform="translate(-14.85 -6.8)"/><path d="M334,184.22a10.62,10.62,0,0,0-.95-4.54,6.11,6.11,0,0,0-2.18-2.65c-.06,0-.13,0-.13.11s0,.07.24.32c1.44,1.45,2.24,3.82,2.24,6.75s-.67,5.19-2.34,6.88c-.14.13-.14.16-.14.2a.12.12,0,0,0,.13.12,6.08,6.08,0,0,0,2.07-2.45,10.34,10.34,0,0,0,1.06-4.74" transform="translate(-14.85 -6.8)"/><rect class="cls-3" x="145.95" y="302.95" width="49.07" height="20.99"/><path d="M168.77,327.29s0-.07-.25-.31c-1.43-1.46-2.24-3.83-2.24-6.76a9.51,9.51,0,0,1,2.34-6.88c.15-.13.15-.16.15-.2a.12.12,0,0,0-.13-.12,6,6,0,0,0-2.07,2.45,10.26,10.26,0,0,0-1.06,4.75,10.57,10.57,0,0,0,1,4.53,6.1,6.1,0,0,0,2.18,2.66.12.12,0,0,0,.13-.12" transform="translate(-14.85 -6.8)"/><path d="M173.1,323.81c-.46,0-1.39-.25-1.66-1.82a17.46,17.46,0,0,1-.16-3,12.58,12.58,0,0,1,.23-3.09,1.63,1.63,0,0,1,3.25.16,15.17,15.17,0,0,1,.18,2.93,18.67,18.67,0,0,1-.15,2.93c-.28,1.58-1.18,1.85-1.69,1.85M176,319.2a8,8,0,0,0-.59-3.45,2.57,2.57,0,0,0-4.72.11,7.62,7.62,0,0,0-.54,3.34,7.24,7.24,0,0,0,.62,3.47,2.55,2.55,0,0,0,2.29,1.43,2.59,2.59,0,0,0,2.39-1.58A8,8,0,0,0,176,319.2Z" transform="translate(-14.85 -6.8)"/><path d="M179.4,323.86c0-.84-.27-1.45-.86-1.45a.68.68,0,0,0-.69.69.69.69,0,0,0,.7.7.65.65,0,0,0,.48-.19s0,0,.06,0a1,1,0,0,1,0,.28,3.4,3.4,0,0,1-.92,2.34c-.15.17-.15.2-.15.23a.15.15,0,0,0,.14.14,3.46,3.46,0,0,0,1.22-2.71" transform="translate(-14.85 -6.8)"/><path d="M192.37,320.5c.24,0,.5,0,.5-.29s-.26-.29-.5-.29h-7.78c-.24,0-.5,0-.5.29s.26.29.5.29h7.78" transform="translate(-14.85 -6.8)"/><path d="M198.24,314.59c0-.33,0-.34-.29-.34a3.22,3.22,0,0,1-2.54.92v.41a4.12,4.12,0,0,0,1.83-.37v7.48c0,.52,0,.69-1.3.69h-.45v.42c.39,0,1.78,0,2.26,0s1.85,0,2.24,0v-.42h-.45c-1.26,0-1.3-.17-1.3-.69v-8.1" transform="translate(-14.85 -6.8)"/><path d="M205.15,320.22a10.62,10.62,0,0,0-1-4.54A6.17,6.17,0,0,0,202,313a.12.12,0,0,0-.13.12s0,.07.24.32c1.44,1.45,2.25,3.82,2.25,6.75s-.68,5.19-2.35,6.88c-.14.13-.14.16-.14.2a.12.12,0,0,0,.13.12,6.08,6.08,0,0,0,2.07-2.45,10.34,10.34,0,0,0,1.06-4.74" transform="translate(-14.85 -6.8)"/><rect class="cls-3" x="151.53" y="47.83" width="37.91" height="20.99"/><path d="M174.37,72.19s0-.07-.25-.31c-1.43-1.46-2.24-3.83-2.24-6.76a9.51,9.51,0,0,1,2.34-6.88c.15-.13.15-.16.15-.2a.12.12,0,0,0-.13-.11,6,6,0,0,0-2.07,2.44,10.26,10.26,0,0,0-1.06,4.75,10.57,10.57,0,0,0,.95,4.53,6.1,6.1,0,0,0,2.18,2.66.12.12,0,0,0,.13-.12" transform="translate(-14.85 -6.8)"/><path d="M178.7,68.71c-.46,0-1.39-.25-1.66-1.82a17.46,17.46,0,0,1-.16-3,12.58,12.58,0,0,1,.23-3.09,1.72,1.72,0,0,1,1.59-1.41A1.75,1.75,0,0,1,180.36,61a15.17,15.17,0,0,1,.18,2.93,18.67,18.67,0,0,1-.15,2.93c-.28,1.58-1.18,1.85-1.69,1.85m2.94-4.61a7.91,7.91,0,0,0-.59-3.44,2.57,2.57,0,0,0-4.72.1,7.62,7.62,0,0,0-.54,3.34,7.24,7.24,0,0,0,.62,3.47A2.55,2.55,0,0,0,178.7,69a2.57,2.57,0,0,0,2.39-1.58A8,8,0,0,0,181.64,64.1Z" transform="translate(-14.85 -6.8)"/><path d="M185,68.76c0-.83-.27-1.45-.86-1.45a.68.68,0,0,0-.69.69.69.69,0,0,0,.7.7.65.65,0,0,0,.48-.19s0,0,.06,0a1,1,0,0,1,0,.28,3.4,3.4,0,0,1-.92,2.34c-.15.17-.15.2-.15.23a.15.15,0,0,0,.14.14A3.46,3.46,0,0,0,185,68.76" transform="translate(-14.85 -6.8)"/><path d="M192.64,59.49c0-.33,0-.34-.29-.34a3.2,3.2,0,0,1-2.54.92v.41a4.12,4.12,0,0,0,1.83-.37v7.48c0,.52,0,.69-1.3.69h-.45v.42c.39,0,1.78,0,2.26,0s1.85,0,2.24,0v-.42h-.45c-1.26,0-1.3-.17-1.3-.69v-8.1" transform="translate(-14.85 -6.8)"/><path d="M199.55,65.12a10.62,10.62,0,0,0-1-4.54,6,6,0,0,0-2.18-2.65.12.12,0,0,0-.13.11s0,.07.24.32c1.44,1.45,2.24,3.82,2.24,6.75s-.67,5.19-2.34,6.88c-.14.13-.14.16-.14.2a.12.12,0,0,0,.13.12,6.08,6.08,0,0,0,2.07-2.45,10.34,10.34,0,0,0,1.06-4.74" transform="translate(-14.85 -6.8)"/></svg>