<svg id="Layer_1" data-name="Layer 1" xmlns="http://www.w3.org/2000/svg" viewBox="0 0 355.18 356.17"><defs><style>.cls-1,.cls-3,.cls-4,.cls-5,.cls-6{fill:none;stroke-miterlimit:10;}.cls-1,.cls-3,.cls-5,.cls-6{stroke:#000;}.cls-1,.cls-3,.cls-4{stroke-linecap:round;}.cls-1,.cls-4{stroke-width:0.4px;}.cls-2{fill:#fff;}.cls-3{stroke-width:0.8px;}.cls-4{stroke:gray;}.cls-5{stroke-width:0.4px;}.cls-6{stroke-width:0.57px;}</style></defs><title>CosAndSin.07</title><line class="cls-1" x1="0.2" y1="185.89" x2="336.77" y2="185.89"/><path d="M363.41,192.69a14.38,14.38,0,0,1-4-1.5v3a14.66,14.66,0,0,1,4-1.49" transform="translate(-23.05 -6.8)"/><rect class="cls-2" x="340.56" y="179.48" width="14.62" height="12.82"/><path d="M373.71,189.94a.72.72,0,0,0-.63.7.44.44,0,0,0,.47.46.75.75,0,0,0,.73-.76c0-.6-.69-.88-1.29-.88a1.83,1.83,0,0,0-1.49,1.14,1.49,1.49,0,0,0-1.48-1.14c-1.47,0-2.24,1.89-2.24,2.2a.14.14,0,0,0,.15.13c.12,0,.15-.08.18-.14.49-1.6,1.45-1.9,1.87-1.9.64,0,.77.6.77.95a6.16,6.16,0,0,1-.26,1.34l-.49,2c-.21.86-.63,1.65-1.39,1.65a1.42,1.42,0,0,1-.73-.19.75.75,0,0,0,.63-.7.45.45,0,0,0-.49-.46.75.75,0,0,0-.72.76c0,.6.68.87,1.3.87a1.77,1.77,0,0,0,1.47-1.13,1.5,1.5,0,0,0,1.48,1.13c1.47,0,2.25-1.88,2.25-2.19a.13.13,0,0,0-.15-.13c-.13,0-.14.07-.18.18-.39,1.27-1.23,1.86-1.87,1.86s-.78-.38-.78-1a6.63,6.63,0,0,1,.29-1.49l.5-1.95c.22-.87.71-1.5,1.37-1.5a1.53,1.53,0,0,1,.73.19" transform="translate(-23.05 -6.8)"/><line class="cls-1" x1="170.28" y1="355.97" x2="170.28" y2="19.39"/><path d="M193.33,22.61a14.33,14.33,0,0,1-1.5,4h3a14,14,0,0,1-1.49-4" transform="translate(-23.05 -6.8)"/><rect class="cls-2" x="163.28" width="14.01" height="15.61"/><path d="M193.38,17.91a2.12,2.12,0,0,1-1.65,1,1.07,1.07,0,0,1-1.08-.69.36.36,0,0,0,.14,0,.73.73,0,0,0,.72-.71.44.44,0,0,0-.49-.44.78.78,0,0,0-.73.88,1.3,1.3,0,0,0,1.44,1.23A3.79,3.79,0,0,0,195,16.31l1.4-5.6a.93.93,0,0,0,.05-.24.37.37,0,0,0-.39-.36.58.58,0,0,0-.55.49l-1.06,4.22a.94.94,0,0,1-.19.45,1.85,1.85,0,0,1-1.45.89c-.8,0-.87-.79-.87-1.18a9.62,9.62,0,0,1,.77-3,2.46,2.46,0,0,0,.25-.91A1.12,1.12,0,0,0,191.84,10c-1.32,0-1.85,2.09-1.85,2.2a.14.14,0,0,0,.15.13c.13,0,.15-.06.21-.26.34-1.2.89-1.78,1.45-1.78.13,0,.37,0,.37.48a4,4,0,0,1-.37,1.33,7.12,7.12,0,0,0-.71,2.7,1.55,1.55,0,0,0,1.7,1.68,1.9,1.9,0,0,0,1.43-.66l0,0a5.54,5.54,0,0,1-.86,2.11" transform="translate(-23.05 -6.8)"/><circle class="cls-3" cx="193.33" cy="192.69" r="113.39" transform="translate(-102.67 186.34) rotate(-45)"/><line class="cls-4" x1="170.28" y1="185.89" x2="283.67" y2="185.89"/><path d="M308.31,192.69a1.6,1.6,0,1,0-3.19,0,1.6,1.6,0,0,0,3.19,0Z" transform="translate(-23.05 -6.8)"/><path class="cls-1" d="M308.31,192.69a1.6,1.6,0,1,0-3.19,0,1.6,1.6,0,0,0,3.19,0Z" transform="translate(-23.05 -6.8)"/><rect class="cls-2" x="229.97" y="178.73" width="14.82" height="13.75"/><path d="M258.6,197.51c-.46,0-1.39-.25-1.66-1.82a17.46,17.46,0,0,1-.16-3,12.58,12.58,0,0,1,.23-3.09,1.63,1.63,0,0,1,3.25.16,15.17,15.17,0,0,1,.18,2.93,18.67,18.67,0,0,1-.15,2.93c-.28,1.58-1.18,1.85-1.69,1.85m2.94-4.61a7.91,7.91,0,0,0-.59-3.44,2.57,2.57,0,0,0-4.72.1,7.62,7.62,0,0,0-.54,3.34,7.24,7.24,0,0,0,.62,3.47,2.55,2.55,0,0,0,2.29,1.43,2.59,2.59,0,0,0,2.39-1.58A8,8,0,0,0,261.54,192.9Z" transform="translate(-23.05 -6.8)"/><path d="M264.58,191.35a1.53,1.53,0,1,1,1.53-1.53,1.54,1.54,0,0,1-1.53,1.53m1.93-1.53a1.93,1.93,0,1,0-1.93,1.92A1.94,1.94,0,0,0,266.51,189.82Z" transform="translate(-23.05 -6.8)"/><line class="cls-4" x1="170.28" y1="185.89" x2="268.48" y2="129.19"/><path d="M293.12,136a1.6,1.6,0,1,0-1.6,1.59A1.6,1.6,0,0,0,293.12,136Z" transform="translate(-23.05 -6.8)"/><path class="cls-1" d="M293.12,136a1.6,1.6,0,1,0-1.6,1.59A1.6,1.6,0,0,0,293.12,136Z" transform="translate(-23.05 -6.8)"/><rect class="cls-2" x="218.59" y="145.8" width="19.9" height="12.44"/><path d="M245.14,158.34c-.24,0-.3,0-.3.16s.07.14.33.14h.66c1.22,0,1.77,1,1.77,2.39,0,1.88-1,2.38-1.68,2.38a2.57,2.57,0,0,1-2.29-1.27.71.71,0,0,0,.88-.71.67.67,0,0,0-.7-.7.68.68,0,0,0-.72.75A2.64,2.64,0,0,0,246,163.8a2.88,2.88,0,0,0,3-2.76,2.77,2.77,0,0,0-2.45-2.6,2.7,2.7,0,0,0,2.06-2.52c0-1.14-1.18-2-2.57-2s-2.5.87-2.5,1.92a.63.63,0,0,0,.66.69.65.65,0,0,0,0-1.3H244a2.34,2.34,0,0,1,2-1c.48,0,1.41.22,1.41,1.63a3.21,3.21,0,0,1-.46,1.69,1.45,1.45,0,0,1-1.31.69l-.43,0" transform="translate(-23.05 -6.8)"/><path d="M253,163.51c-.47,0-1.4-.25-1.67-1.82a17.46,17.46,0,0,1-.16-3,12.58,12.58,0,0,1,.23-3.09,1.72,1.72,0,0,1,1.6-1.41,1.75,1.75,0,0,1,1.65,1.57,15.17,15.17,0,0,1,.18,2.93,18.67,18.67,0,0,1-.15,2.93c-.28,1.58-1.18,1.85-1.68,1.85m2.93-4.61a7.91,7.91,0,0,0-.59-3.44,2.57,2.57,0,0,0-4.72.1,7.62,7.62,0,0,0-.54,3.34,7.24,7.24,0,0,0,.62,3.47,2.57,2.57,0,0,0,4.68-.15A8,8,0,0,0,255.94,158.9Z" transform="translate(-23.05 -6.8)"/><path d="M259,157.35a1.53,1.53,0,1,1,1.53-1.53,1.54,1.54,0,0,1-1.53,1.53m1.93-1.53a1.93,1.93,0,1,0-1.93,1.92A1.94,1.94,0,0,0,260.91,155.82Z" transform="translate(-23.05 -6.8)"/><line class="cls-4" x1="170.28" y1="185.89" x2="226.97" y2="87.69"/><path d="M251.61,94.49a1.6,1.6,0,0,0-3.19,0,1.6,1.6,0,1,0,3.19,0Z" transform="translate(-23.05 -6.8)"/><path class="cls-1" d="M251.61,94.49a1.6,1.6,0,0,0-3.19,0,1.6,1.6,0,1,0,3.19,0Z" transform="translate(-23.05 -6.8)"/><rect class="cls-2" x="195.14" y="120.69" width="18.29" height="11.41"/><path d="M221.13,138.51a1.67,1.67,0,0,1-1.46-1.1,6.67,6.67,0,0,1-.28-2.08c0-1.14.52-2.56,1.82-2.56a1.54,1.54,0,0,1,1.42,1,5,5,0,0,1,.23,1.87,4.19,4.19,0,0,1-.28,1.92,1.54,1.54,0,0,1-1.45.93m-1.76-4.91c0-3.63,1.76-4.21,2.54-4.21a1.49,1.49,0,0,1,1.31.59c-.18,0-.72,0-.72.59a.6.6,0,1,0,1.19,0c0-.75-.55-1.48-1.8-1.48-1.8,0-3.7,1.85-3.7,5,0,3.95,1.72,4.84,2.94,4.84a3.05,3.05,0,0,0,2.91-3.23,3,3,0,0,0-2.78-3.19,2,2,0,0,0-1.89,1.51Z" transform="translate(-23.05 -6.8)"/><path d="M228.1,138.61c-.46,0-1.39-.25-1.66-1.82a17.46,17.46,0,0,1-.16-3,12.58,12.58,0,0,1,.23-3.09,1.63,1.63,0,0,1,3.25.16,15.17,15.17,0,0,1,.18,2.93,18.67,18.67,0,0,1-.15,2.93c-.28,1.58-1.18,1.85-1.69,1.85M231,134a8,8,0,0,0-.59-3.45,2.57,2.57,0,0,0-4.72.11,7.62,7.62,0,0,0-.54,3.34,7.24,7.24,0,0,0,.62,3.47,2.55,2.55,0,0,0,2.29,1.43,2.57,2.57,0,0,0,2.39-1.58A8,8,0,0,0,231,134Z" transform="translate(-23.05 -6.8)"/><path d="M234.08,132.45a1.53,1.53,0,1,1,1.53-1.53,1.54,1.54,0,0,1-1.53,1.53m1.93-1.53a1.93,1.93,0,1,0-1.93,1.92A1.94,1.94,0,0,0,236,130.92Z" transform="translate(-23.05 -6.8)"/><line class="cls-4" x1="170.28" y1="185.89" x2="170.28" y2="72.5"/><circle cx="170.28" cy="72.5" r="1.59"/><circle class="cls-1" cx="170.28" cy="72.5" r="1.59"/><rect class="cls-2" x="159.73" y="111.1" width="19.82" height="13.02"/><path d="M187,126.07a1.58,1.58,0,0,1-1.42-1,5,5,0,0,1-.23-1.88,3.76,3.76,0,0,1,.37-2.08,1.53,1.53,0,0,1,2.8.24,6.83,6.83,0,0,1,.29,2.14c0,1.21-.55,2.59-1.81,2.59m1.84-.75c0,3.39-1.51,4.09-2.37,4.09a1.83,1.83,0,0,1-1.47-.54h.09a.58.58,0,0,0,.62-.59.6.6,0,1,0-1.2,0c0,.89.72,1.49,2,1.49,1.8,0,3.54-1.91,3.54-5,0-3.86-1.61-4.82-2.88-4.82a3.06,3.06,0,0,0-3,3.21,3,3,0,0,0,2.77,3.19,2.05,2.05,0,0,0,1.9-1.5Z" transform="translate(-23.05 -6.8)"/><path d="M194.1,129.51c-.46,0-1.39-.25-1.66-1.82a17.46,17.46,0,0,1-.16-3,12.58,12.58,0,0,1,.23-3.09,1.63,1.63,0,0,1,3.25.16,15.17,15.17,0,0,1,.18,2.93,18.67,18.67,0,0,1-.15,2.93c-.28,1.58-1.18,1.85-1.69,1.85M197,124.9a7.91,7.91,0,0,0-.59-3.44,2.57,2.57,0,0,0-4.72.1,7.62,7.62,0,0,0-.54,3.34,7.24,7.24,0,0,0,.62,3.47,2.55,2.55,0,0,0,2.29,1.43,2.59,2.59,0,0,0,2.39-1.58A8,8,0,0,0,197,124.9Z" transform="translate(-23.05 -6.8)"/><path d="M200.08,123.35a1.53,1.53,0,1,1,1.53-1.53,1.54,1.54,0,0,1-1.53,1.53m1.93-1.53a1.93,1.93,0,1,0-1.93,1.92A1.94,1.94,0,0,0,202,121.82Z" transform="translate(-23.05 -6.8)"/><line class="cls-4" x1="170.28" y1="185.89" x2="113.59" y2="87.69"/><path d="M138.23,94.49a1.6,1.6,0,1,0-1.6,1.6A1.6,1.6,0,0,0,138.23,94.49Z" transform="translate(-23.05 -6.8)"/><path class="cls-1" d="M138.23,94.49a1.6,1.6,0,1,0-1.6,1.6A1.6,1.6,0,0,0,138.23,94.49Z" transform="translate(-23.05 -6.8)"/><rect class="cls-2" x="123.57" y="121.2" width="25.24" height="11.38"/><path d="M150.14,129.39c0-.33,0-.34-.29-.34a3.2,3.2,0,0,1-2.54.92v.41a4.12,4.12,0,0,0,1.83-.37v7.48c0,.52,0,.69-1.3.69h-.45v.42c.39,0,1.79,0,2.26,0s1.85,0,2.24,0v-.42h-.45c-1.26,0-1.3-.17-1.3-.69v-8.1" transform="translate(-23.05 -6.8)"/><path d="M159.42,136.19h-.32a5.14,5.14,0,0,1-.3,1.26,3.72,3.72,0,0,1-1.35.13h-2.66c.39-.33,1.27-1.25,1.64-1.59,2.19-2,3-2.76,3-4.19a2.77,2.77,0,0,0-3-2.75,2.65,2.65,0,0,0-2.64,2.66.67.67,0,1,0,1.34,0,.64.64,0,0,0-.67-.67h-.2a2,2,0,0,1,3.95.7,5,5,0,0,1-1.52,3.21l-2.9,3.25v.34h5.24l.37-2.41" transform="translate(-23.05 -6.8)"/><path d="M163.6,138.61c-.46,0-1.39-.25-1.66-1.82a17.46,17.46,0,0,1-.16-3,12.58,12.58,0,0,1,.23-3.09,1.63,1.63,0,0,1,3.25.16,15.17,15.17,0,0,1,.18,2.93,18.67,18.67,0,0,1-.15,2.93c-.28,1.58-1.18,1.85-1.69,1.85m2.94-4.61a8,8,0,0,0-.59-3.45,2.57,2.57,0,0,0-4.72.11,7.62,7.62,0,0,0-.54,3.34,7.24,7.24,0,0,0,.62,3.47,2.55,2.55,0,0,0,2.29,1.43,2.57,2.57,0,0,0,2.39-1.58A8,8,0,0,0,166.54,134Z" transform="translate(-23.05 -6.8)"/><path d="M169.58,132.45a1.53,1.53,0,1,1,1.53-1.53,1.54,1.54,0,0,1-1.53,1.53m1.93-1.53a1.93,1.93,0,1,0-1.93,1.92A1.94,1.94,0,0,0,171.51,130.92Z" transform="translate(-23.05 -6.8)"/><line class="cls-4" x1="170.28" y1="185.89" x2="72.08" y2="129.19"/><path d="M96.72,136a1.59,1.59,0,1,0-1.59,1.59A1.59,1.59,0,0,0,96.72,136Z" transform="translate(-23.05 -6.8)"/><path class="cls-1" d="M96.72,136a1.59,1.59,0,1,0-1.59,1.59A1.59,1.59,0,0,0,96.72,136Z" transform="translate(-23.05 -6.8)"/><rect class="cls-2" x="98.63" y="146.7" width="25.26" height="10.61"/><path d="M125.24,154.29c0-.33,0-.34-.29-.34a3.22,3.22,0,0,1-2.54.92v.41a4.12,4.12,0,0,0,1.83-.37v7.48c0,.52,0,.69-1.3.69h-.45v.42c.39,0,1.78,0,2.26,0s1.85,0,2.24,0v-.42h-.45c-1.26,0-1.3-.17-1.3-.69v-8.1" transform="translate(-23.05 -6.8)"/><path d="M130,155.27a4.23,4.23,0,0,0,1.28.21,3.06,3.06,0,0,0,2.65-1.39c0-.06,0-.13-.11-.13a.41.41,0,0,0-.19.06,4.67,4.67,0,0,1-3.76,0,.33.33,0,0,0-.14,0c-.12,0-.12.09-.12.32v4.26c0,.26,0,.35.17.35s.09,0,.23-.19a2.18,2.18,0,0,1,1.8-.93,1.48,1.48,0,0,1,1.25.95,4.76,4.76,0,0,1,.26,1.81,3.83,3.83,0,0,1-.4,2,1.81,1.81,0,0,1-1.51.87,2.21,2.21,0,0,1-2.14-1.69.59.59,0,0,0,.23,0,.63.63,0,0,0,0-1.26.61.61,0,0,0-.64.69,2.62,2.62,0,0,0,2.57,2.61,3.11,3.11,0,0,0,3.05-3.19,2.91,2.91,0,0,0-2.66-3.13,2.47,2.47,0,0,0-1.82.76v-3" transform="translate(-23.05 -6.8)"/><path d="M138.71,163.51c-.47,0-1.4-.25-1.67-1.82a17.46,17.46,0,0,1-.16-3,12.58,12.58,0,0,1,.23-3.09,1.72,1.72,0,0,1,1.6-1.41,1.75,1.75,0,0,1,1.65,1.57,15.17,15.17,0,0,1,.18,2.93,18.67,18.67,0,0,1-.15,2.93c-.28,1.58-1.18,1.85-1.68,1.85m2.93-4.61a7.91,7.91,0,0,0-.59-3.44,2.57,2.57,0,0,0-4.72.1,7.62,7.62,0,0,0-.54,3.34,7.24,7.24,0,0,0,.62,3.47,2.57,2.57,0,0,0,4.68-.15A8,8,0,0,0,141.64,158.9Z" transform="translate(-23.05 -6.8)"/><path d="M144.68,157.35a1.53,1.53,0,1,1,1.53-1.53,1.54,1.54,0,0,1-1.53,1.53m1.93-1.53a1.93,1.93,0,1,0-1.93,1.92A1.94,1.94,0,0,0,146.61,155.82Z" transform="translate(-23.05 -6.8)"/><line class="cls-4" x1="170.28" y1="185.89" x2="56.89" y2="185.89"/><circle cx="56.89" cy="185.89" r="1.59"/><circle class="cls-1" cx="56.89" cy="185.89" r="1.59"/><rect class="cls-2" x="89.58" y="180.42" width="25.36" height="11.42"/><path d="M116.14,188.29c0-.33,0-.34-.29-.34a3.2,3.2,0,0,1-2.54.92v.41a4.12,4.12,0,0,0,1.83-.37v7.48c0,.52,0,.69-1.3.69h-.45v.42c.39,0,1.79,0,2.26,0s1.85,0,2.24,0v-.42h-.45c-1.26,0-1.3-.17-1.3-.69v-8.1" transform="translate(-23.05 -6.8)"/><path d="M122,192.88l1.74,1.13a1.88,1.88,0,0,1,1,1.57,2.08,2.08,0,0,1-2.25,1.83,2.18,2.18,0,0,1-2.27-2.08,2.81,2.81,0,0,1,1.75-2.45m-.67-1.86a1.48,1.48,0,0,1-.76-1.21c0-.93,1-1.52,1.94-1.52a1.87,1.87,0,0,1,1.95,1.78,2.44,2.44,0,0,1-1.47,2Zm2,1.29a2.73,2.73,0,0,0,1.77-2.25,2.34,2.34,0,0,0-2.53-2.11A2.44,2.44,0,0,0,120,190.3a2.24,2.24,0,0,0,.54,1.47c.16.19.17.2,1.18.9a3.09,3.09,0,0,0-2.11,2.66,2.71,2.71,0,0,0,2.92,2.47,2.82,2.82,0,0,0,2.93-2.68C125.44,193.65,124.4,193,123.28,192.31Z" transform="translate(-23.05 -6.8)"/><path d="M129.6,197.51c-.46,0-1.39-.25-1.66-1.82a17.46,17.46,0,0,1-.16-3,12.58,12.58,0,0,1,.23-3.09,1.63,1.63,0,0,1,3.25.16,15.17,15.17,0,0,1,.18,2.93,18.67,18.67,0,0,1-.15,2.93c-.28,1.58-1.18,1.85-1.69,1.85m2.94-4.61a7.91,7.91,0,0,0-.59-3.44,2.57,2.57,0,0,0-4.72.1,7.62,7.62,0,0,0-.54,3.34,7.24,7.24,0,0,0,.62,3.47,2.55,2.55,0,0,0,2.29,1.43,2.59,2.59,0,0,0,2.39-1.58A8,8,0,0,0,132.54,192.9Z" transform="translate(-23.05 -6.8)"/><path d="M135.58,191.35a1.53,1.53,0,1,1,1.53-1.53,1.54,1.54,0,0,1-1.53,1.53m1.93-1.53a1.93,1.93,0,1,0-1.93,1.92A1.94,1.94,0,0,0,137.51,189.82Z" transform="translate(-23.05 -6.8)"/><line class="cls-4" x1="170.28" y1="185.89" x2="72.08" y2="242.58"/><path d="M96.72,249.38a1.59,1.59,0,1,0-1.59,1.6A1.59,1.59,0,0,0,96.72,249.38Z" transform="translate(-23.05 -6.8)"/><path class="cls-1" d="M96.72,249.38a1.59,1.59,0,1,0-1.59,1.6A1.59,1.59,0,0,0,96.72,249.38Z" transform="translate(-23.05 -6.8)"/><rect class="cls-2" x="97.96" y="214.23" width="26.37" height="11.74"/><path d="M127.42,229.09h-.32a5.14,5.14,0,0,1-.3,1.26,3.72,3.72,0,0,1-1.35.13h-2.66c.39-.33,1.27-1.25,1.64-1.59,2.19-2,3-2.76,3-4.18a2.78,2.78,0,0,0-3-2.76,2.65,2.65,0,0,0-2.64,2.65.67.67,0,1,0,1.34.06.64.64,0,0,0-.67-.67h-.2a2,2,0,0,1,4,.71,5,5,0,0,1-1.52,3.2l-2.9,3.25v.34h5.24l.37-2.41" transform="translate(-23.05 -6.8)"/><path d="M132.34,222.29c0-.33,0-.34-.29-.34a3.2,3.2,0,0,1-2.54.92v.41a4.12,4.12,0,0,0,1.83-.37v7.48c0,.52,0,.69-1.3.69h-.45v.42c.39,0,1.79,0,2.26,0s1.85,0,2.24,0v-.42h-.45c-1.26,0-1.3-.17-1.3-.69v-8.1" transform="translate(-23.05 -6.8)"/><path d="M138.71,231.51c-.47,0-1.4-.25-1.67-1.82a17.46,17.46,0,0,1-.16-3,12.58,12.58,0,0,1,.23-3.09,1.72,1.72,0,0,1,1.6-1.41,1.75,1.75,0,0,1,1.65,1.57,15.17,15.17,0,0,1,.18,2.93,18.67,18.67,0,0,1-.15,2.93c-.28,1.58-1.18,1.85-1.68,1.85m2.93-4.61a7.91,7.91,0,0,0-.59-3.44,2.57,2.57,0,0,0-4.72.1,7.62,7.62,0,0,0-.54,3.34,7.24,7.24,0,0,0,.62,3.47,2.57,2.57,0,0,0,4.68-.15A8,8,0,0,0,141.64,226.9Z" transform="translate(-23.05 -6.8)"/><path d="M144.68,225.35a1.53,1.53,0,1,1,1.53-1.53,1.54,1.54,0,0,1-1.53,1.53m1.93-1.53a1.93,1.93,0,1,0-1.93,1.92A1.94,1.94,0,0,0,146.61,223.82Z" transform="translate(-23.05 -6.8)"/><line class="cls-4" x1="170.28" y1="185.89" x2="113.59" y2="284.08"/><path d="M138.23,290.88a1.6,1.6,0,1,0-1.6,1.6A1.6,1.6,0,0,0,138.23,290.88Z" transform="translate(-23.05 -6.8)"/><path class="cls-1" d="M138.23,290.88a1.6,1.6,0,1,0-1.6,1.6A1.6,1.6,0,0,0,138.23,290.88Z" transform="translate(-23.05 -6.8)"/><rect class="cls-2" x="122.27" y="239.1" width="26.9" height="11.82"/><path d="M152.32,254H152a5.66,5.66,0,0,1-.31,1.26,3.72,3.72,0,0,1-1.35.13h-2.66c.39-.33,1.27-1.25,1.64-1.59,2.19-2,3-2.76,3-4.19a2.77,2.77,0,0,0-3-2.75,2.65,2.65,0,0,0-2.64,2.66.66.66,0,0,0,.67.73.67.67,0,0,0,.68-.68.64.64,0,0,0-.68-.67h-.2a2.1,2.1,0,0,1,2-1.64,2.08,2.08,0,0,1,2,2.34,5,5,0,0,1-1.52,3.21l-2.9,3.24v.35H152l.37-2.41" transform="translate(-23.05 -6.8)"/><path d="M157.34,248.17v5.41h-3.49Zm.95-1.12c0-.27,0-.35-.21-.35s-.15,0-.27.18l-4.32,6.7V254h3.78v1.31c0,.53,0,.67-1.08.67h-.29v.42c.33,0,1.47,0,1.87,0s1.55,0,1.88,0V256h-.29c-1,0-1.07-.14-1.07-.67V254h1.45v-.42h-1.45Z" transform="translate(-23.05 -6.8)"/><path d="M163.6,256.41c-.46,0-1.39-.25-1.66-1.82a17.46,17.46,0,0,1-.16-3,12.58,12.58,0,0,1,.23-3.09,1.63,1.63,0,0,1,3.25.16,15.17,15.17,0,0,1,.18,2.93,18.67,18.67,0,0,1-.15,2.93c-.28,1.58-1.18,1.85-1.69,1.85m2.94-4.61a8,8,0,0,0-.59-3.45,2.57,2.57,0,0,0-4.72.11,7.62,7.62,0,0,0-.54,3.34,7.24,7.24,0,0,0,.62,3.47,2.55,2.55,0,0,0,2.29,1.43,2.57,2.57,0,0,0,2.39-1.58A8,8,0,0,0,166.54,251.8Z" transform="translate(-23.05 -6.8)"/><path d="M169.58,250.25a1.53,1.53,0,1,1,1.53-1.53,1.54,1.54,0,0,1-1.53,1.53m1.93-1.53a1.93,1.93,0,1,0-1.93,1.92A1.94,1.94,0,0,0,171.51,248.72Z" transform="translate(-23.05 -6.8)"/><line class="cls-4" x1="170.28" y1="185.89" x2="170.28" y2="299.27"/><circle cx="170.28" cy="299.27" r="1.59"/><circle class="cls-1" cx="170.28" cy="299.27" r="1.59"/><rect class="cls-2" x="156.68" y="247.36" width="26.17" height="12.37"/><path d="M186.42,263.09h-.32a5.14,5.14,0,0,1-.3,1.26,3.72,3.72,0,0,1-1.35.13h-2.66c.39-.33,1.27-1.25,1.64-1.59,2.19-2,3-2.76,3-4.18a2.78,2.78,0,0,0-3-2.76,2.66,2.66,0,0,0-2.65,2.65.68.68,0,1,0,1.35.06.64.64,0,0,0-.67-.67h-.2a2,2,0,0,1,3.95.71,5,5,0,0,1-1.52,3.2l-2.91,3.25v.34h5.25l.37-2.41" transform="translate(-23.05 -6.8)"/><path d="M193.92,256.58v-.33h-3.46c-1.74,0-1.77-.19-1.82-.46h-.32l-.44,2.87h.31a3.62,3.62,0,0,1,.36-1.31,7.65,7.65,0,0,1,1.39-.08H193l-1.52,2.18a10.8,10.8,0,0,0-1.84,5.62c0,.16,0,.73.59.73s.6-.56.6-.75v-.71a8.76,8.76,0,0,1,1-4.77l2.08-3" transform="translate(-23.05 -6.8)"/><path d="M197.6,265.51c-.46,0-1.39-.25-1.66-1.82a17.46,17.46,0,0,1-.16-3,12.58,12.58,0,0,1,.23-3.09,1.63,1.63,0,0,1,3.25.16,15.17,15.17,0,0,1,.18,2.93,18.67,18.67,0,0,1-.15,2.93c-.28,1.58-1.18,1.85-1.69,1.85m2.94-4.61a7.91,7.91,0,0,0-.59-3.44,2.57,2.57,0,0,0-4.72.1,7.62,7.62,0,0,0-.54,3.34,7.24,7.24,0,0,0,.62,3.47,2.55,2.55,0,0,0,2.29,1.43,2.59,2.59,0,0,0,2.39-1.58A8,8,0,0,0,200.54,260.9Z" transform="translate(-23.05 -6.8)"/><path d="M203.58,259.35a1.53,1.53,0,1,1,1.53-1.53,1.54,1.54,0,0,1-1.53,1.53m1.93-1.53a1.93,1.93,0,1,0-1.93,1.92A1.94,1.94,0,0,0,205.51,257.82Z" transform="translate(-23.05 -6.8)"/><line class="cls-4" x1="170.28" y1="185.89" x2="226.97" y2="284.08"/><path d="M251.61,290.88a1.6,1.6,0,0,0-3.19,0,1.6,1.6,0,1,0,3.19,0Z" transform="translate(-23.05 -6.8)"/><path class="cls-1" d="M251.61,290.88a1.6,1.6,0,0,0-3.19,0,1.6,1.6,0,1,0,3.19,0Z" transform="translate(-23.05 -6.8)"/><rect class="cls-2" x="190.79" y="239.1" width="26.3" height="11.82"/><path d="M216.74,251.24c-.24,0-.3,0-.3.16s.07.14.33.14h.66c1.22,0,1.77,1,1.77,2.39,0,1.88-1,2.38-1.68,2.38a2.57,2.57,0,0,1-2.29-1.27.71.71,0,0,0,.88-.71.67.67,0,0,0-.7-.7.68.68,0,0,0-.72.75,2.64,2.64,0,0,0,2.87,2.32,2.88,2.88,0,0,0,3-2.76,2.77,2.77,0,0,0-2.45-2.6,2.7,2.7,0,0,0,2.06-2.52c0-1.14-1.18-2-2.57-2s-2.5.87-2.5,1.92a.63.63,0,0,0,.66.69.65.65,0,0,0,0-1.3h-.15a2.34,2.34,0,0,1,2-1c.48,0,1.41.22,1.41,1.63a3.21,3.21,0,0,1-.46,1.69,1.45,1.45,0,0,1-1.31.69l-.43,0" transform="translate(-23.05 -6.8)"/><path d="M224.6,256.41c-.46,0-1.39-.25-1.66-1.82a17.46,17.46,0,0,1-.16-3,12.58,12.58,0,0,1,.23-3.09,1.63,1.63,0,0,1,3.25.16,15.17,15.17,0,0,1,.18,2.93,18.67,18.67,0,0,1-.15,2.93c-.28,1.58-1.18,1.85-1.69,1.85m2.94-4.61a8,8,0,0,0-.59-3.45,2.57,2.57,0,0,0-4.72.11,7.62,7.62,0,0,0-.54,3.34,7.24,7.24,0,0,0,.62,3.47,2.55,2.55,0,0,0,2.29,1.43,2.57,2.57,0,0,0,2.39-1.58A8,8,0,0,0,227.54,251.8Z" transform="translate(-23.05 -6.8)"/><path d="M231.6,256.41c-.46,0-1.39-.25-1.66-1.82a17.46,17.46,0,0,1-.16-3,12.58,12.58,0,0,1,.23-3.09,1.63,1.63,0,0,1,3.25.16,15.17,15.17,0,0,1,.18,2.93,18.67,18.67,0,0,1-.15,2.93c-.28,1.58-1.18,1.85-1.69,1.85m2.94-4.61a8,8,0,0,0-.59-3.45,2.57,2.57,0,0,0-4.72.11,7.62,7.62,0,0,0-.54,3.34,7.24,7.24,0,0,0,.62,3.47,2.55,2.55,0,0,0,2.29,1.43,2.57,2.57,0,0,0,2.39-1.58A8,8,0,0,0,234.54,251.8Z" transform="translate(-23.05 -6.8)"/><path d="M237.58,250.25a1.53,1.53,0,1,1,1.53-1.53,1.54,1.54,0,0,1-1.53,1.53m1.93-1.53a1.93,1.93,0,1,0-1.93,1.92A1.94,1.94,0,0,0,239.51,248.72Z" transform="translate(-23.05 -6.8)"/><line class="cls-4" x1="170.28" y1="185.89" x2="268.48" y2="242.58"/><path d="M293.12,249.38a1.6,1.6,0,1,0-1.6,1.6A1.6,1.6,0,0,0,293.12,249.38Z" transform="translate(-23.05 -6.8)"/><path class="cls-1" d="M293.12,249.38a1.6,1.6,0,1,0-1.6,1.6A1.6,1.6,0,0,0,293.12,249.38Z" transform="translate(-23.05 -6.8)"/><rect class="cls-2" x="215.75" y="213.34" width="25.78" height="12.63"/><path d="M241.64,226.34c-.24,0-.3,0-.3.16s.07.14.33.14h.66c1.22,0,1.77,1,1.77,2.39,0,1.88-1,2.38-1.68,2.38a2.57,2.57,0,0,1-2.29-1.27.71.71,0,0,0,.88-.71.67.67,0,0,0-.7-.7.68.68,0,0,0-.72.75,2.64,2.64,0,0,0,2.87,2.32,2.88,2.88,0,0,0,3-2.76,2.77,2.77,0,0,0-2.45-2.6,2.7,2.7,0,0,0,2.06-2.52c0-1.14-1.18-2-2.57-2s-2.5.87-2.5,1.92a.63.63,0,0,0,.66.69.65.65,0,0,0,0-1.3h-.15a2.34,2.34,0,0,1,2-1c.48,0,1.41.22,1.41,1.63a3.21,3.21,0,0,1-.46,1.69,1.45,1.45,0,0,1-1.31.69l-.43,0" transform="translate(-23.05 -6.8)"/><path d="M248.64,226.34c-.24,0-.3,0-.3.16s.07.14.33.14h.66c1.22,0,1.77,1,1.77,2.39,0,1.88-1,2.38-1.68,2.38a2.57,2.57,0,0,1-2.29-1.27.71.71,0,0,0,.88-.71.67.67,0,0,0-.7-.7.68.68,0,0,0-.72.75,2.64,2.64,0,0,0,2.87,2.32,2.88,2.88,0,0,0,3-2.76,2.77,2.77,0,0,0-2.45-2.6,2.7,2.7,0,0,0,2.06-2.52c0-1.14-1.18-2-2.57-2s-2.5.87-2.5,1.92a.63.63,0,0,0,.66.69.65.65,0,0,0,0-1.3h-.15a2.34,2.34,0,0,1,2-1c.48,0,1.41.22,1.41,1.63a3.21,3.21,0,0,1-.46,1.69,1.45,1.45,0,0,1-1.31.69l-.43,0" transform="translate(-23.05 -6.8)"/><path d="M256.51,231.51c-.47,0-1.4-.25-1.67-1.82a17.46,17.46,0,0,1-.16-3,12.58,12.58,0,0,1,.23-3.09,1.72,1.72,0,0,1,1.6-1.41,1.75,1.75,0,0,1,1.65,1.57,15.17,15.17,0,0,1,.18,2.93,18.67,18.67,0,0,1-.15,2.93c-.28,1.58-1.18,1.85-1.68,1.85m2.93-4.61a7.91,7.91,0,0,0-.59-3.44,2.57,2.57,0,0,0-4.72.1,7.62,7.62,0,0,0-.54,3.34,7.24,7.24,0,0,0,.62,3.47,2.57,2.57,0,0,0,4.68-.15A8,8,0,0,0,259.44,226.9Z" transform="translate(-23.05 -6.8)"/><path d="M262.48,225.35a1.53,1.53,0,1,1,1.53-1.53,1.54,1.54,0,0,1-1.53,1.53m1.93-1.53a1.93,1.93,0,1,0-1.93,1.92A1.94,1.94,0,0,0,264.41,223.82Z" transform="translate(-23.05 -6.8)"/><line class="cls-4" x1="170.28" y1="185.89" x2="250.46" y2="105.71"/><circle cx="250.46" cy="105.71" r="1.59"/><circle class="cls-1" cx="250.46" cy="105.71" r="1.59"/><rect class="cls-2" x="209.04" y="132.1" width="19.09" height="11.63"/><path d="M235.94,141.17v5.41h-3.49Zm.95-1.12c0-.27,0-.35-.21-.35s-.15,0-.27.18l-4.32,6.7V147h3.78v1.31c0,.53,0,.67-1.08.67h-.29v.42c.33,0,1.47,0,1.87,0s1.55,0,1.88,0V149H238c-1,0-1.07-.14-1.07-.67V147h1.45v-.42h-1.45Z" transform="translate(-23.05 -6.8)"/><path d="M240.54,141.17a4.23,4.23,0,0,0,1.28.21,3.06,3.06,0,0,0,2.65-1.39c0-.06,0-.13-.11-.13a.41.41,0,0,0-.19.06,4.67,4.67,0,0,1-3.76,0,.33.33,0,0,0-.14,0c-.12,0-.12.09-.12.32v4.26c0,.26,0,.35.17.35s.09,0,.23-.19a2.16,2.16,0,0,1,1.8-.93,1.48,1.48,0,0,1,1.25,1,4.76,4.76,0,0,1,.26,1.81,3.75,3.75,0,0,1-.41,2,1.76,1.76,0,0,1-1.5.87,2.21,2.21,0,0,1-2.14-1.69.59.59,0,0,0,.23,0,.63.63,0,0,0,0-1.26.61.61,0,0,0-.64.69A2.62,2.62,0,0,0,242,149.7a3.11,3.11,0,0,0,3.05-3.19,2.91,2.91,0,0,0-2.66-3.13,2.47,2.47,0,0,0-1.82.76v-3" transform="translate(-23.05 -6.8)"/><path d="M248.18,143.25a1.53,1.53,0,1,1,1.53-1.53,1.54,1.54,0,0,1-1.53,1.53m1.93-1.53a1.93,1.93,0,1,0-1.93,1.92A1.94,1.94,0,0,0,250.11,141.72Z" transform="translate(-23.05 -6.8)"/><line class="cls-4" x1="170.28" y1="185.89" x2="90.1" y2="105.71"/><circle cx="90.1" cy="105.71" r="1.59"/><circle class="cls-1" cx="90.1" cy="105.71" r="1.59"/><rect class="cls-2" x="109.57" y="132.58" width="25.26" height="10.32"/><path d="M136,140.19c0-.33,0-.34-.29-.34a3.22,3.22,0,0,1-2.54.92v.41a4.12,4.12,0,0,0,1.83-.37v7.48c0,.52,0,.69-1.3.69h-.45v.42c.39,0,1.78,0,2.26,0s1.85,0,2.24,0V149h-.45c-1.26,0-1.3-.17-1.3-.69v-8.1" transform="translate(-23.05 -6.8)"/><path d="M141.64,144.24c-.24,0-.3,0-.3.16s.07.14.33.14h.66c1.23,0,1.77,1,1.77,2.39,0,1.88-1,2.38-1.68,2.38a2.57,2.57,0,0,1-2.29-1.27.71.71,0,0,0,.88-.71.67.67,0,0,0-.7-.7.68.68,0,0,0-.72.75,2.64,2.64,0,0,0,2.87,2.32,2.88,2.88,0,0,0,3-2.76,2.77,2.77,0,0,0-2.45-2.6,2.7,2.7,0,0,0,2.06-2.52c0-1.14-1.18-2-2.57-2s-2.5.87-2.5,1.92a.63.63,0,0,0,.66.69.65.65,0,1,0,0-1.3h-.15a2.34,2.34,0,0,1,2-1c.48,0,1.41.22,1.41,1.63a3.21,3.21,0,0,1-.46,1.69,1.45,1.45,0,0,1-1.31.69l-.43,0" transform="translate(-23.05 -6.8)"/><path d="M147.84,141.17a4.23,4.23,0,0,0,1.28.21,3.06,3.06,0,0,0,2.65-1.39c0-.06,0-.13-.11-.13a.41.41,0,0,0-.19.06,4.67,4.67,0,0,1-3.76,0,.33.33,0,0,0-.14,0c-.12,0-.12.09-.12.32v4.26c0,.26,0,.35.17.35s.09,0,.23-.19a2.18,2.18,0,0,1,1.8-.93,1.48,1.48,0,0,1,1.25,1,4.76,4.76,0,0,1,.26,1.81,3.83,3.83,0,0,1-.4,2,1.79,1.79,0,0,1-1.51.87,2.21,2.21,0,0,1-2.14-1.69.59.59,0,0,0,.23,0,.63.63,0,1,0-.63-.57,2.61,2.61,0,0,0,2.56,2.61,3.11,3.11,0,0,0,3-3.19,2.91,2.91,0,0,0-2.66-3.13,2.47,2.47,0,0,0-1.82.76v-3" transform="translate(-23.05 -6.8)"/><path d="M155.48,143.25a1.53,1.53,0,1,1,1.53-1.53,1.54,1.54,0,0,1-1.53,1.53m1.93-1.53a1.93,1.93,0,1,0-1.93,1.92A1.94,1.94,0,0,0,157.41,141.72Z" transform="translate(-23.05 -6.8)"/><line class="cls-4" x1="170.28" y1="185.89" x2="90.1" y2="266.06"/><circle cx="90.1" cy="266.06" r="1.59"/><circle class="cls-1" cx="90.1" cy="266.06" r="1.59"/><rect class="cls-2" x="108.75" y="227.96" width="25.61" height="11.15"/><path d="M138.22,243.19h-.32a5.14,5.14,0,0,1-.3,1.26,3.72,3.72,0,0,1-1.35.13h-2.66c.39-.33,1.27-1.25,1.64-1.59,2.19-2,3-2.76,3-4.19a2.77,2.77,0,0,0-3-2.75,2.66,2.66,0,0,0-2.65,2.66.68.68,0,1,0,1.36,0,.64.64,0,0,0-.68-.67h-.2a2,2,0,0,1,3.95.7,5,5,0,0,1-1.52,3.21l-2.91,3.25v.34h5.25l.37-2.41" transform="translate(-23.05 -6.8)"/><path d="M145.32,243.19H145a5.66,5.66,0,0,1-.31,1.26,3.72,3.72,0,0,1-1.35.13h-2.66c.39-.33,1.27-1.25,1.64-1.59,2.19-2,3-2.76,3-4.19a2.77,2.77,0,0,0-3-2.75,2.65,2.65,0,0,0-2.64,2.66.66.66,0,0,0,.67.73.67.67,0,0,0,.68-.68.64.64,0,0,0-.68-.67h-.2a2,2,0,0,1,3.95.7,5,5,0,0,1-1.52,3.21l-2.9,3.25v.34H145l.37-2.41" transform="translate(-23.05 -6.8)"/><path d="M147.84,237.37a4.23,4.23,0,0,0,1.28.21,3.06,3.06,0,0,0,2.65-1.39c0-.06,0-.13-.11-.13a.41.41,0,0,0-.19.06,4.79,4.79,0,0,1-1.86.39,4.59,4.59,0,0,1-1.9-.41.39.39,0,0,0-.14,0c-.12,0-.12.09-.12.32v4.26c0,.26,0,.35.17.35s.09,0,.23-.19a2.18,2.18,0,0,1,1.8-.93,1.48,1.48,0,0,1,1.25.95,4.76,4.76,0,0,1,.26,1.81,3.83,3.83,0,0,1-.4,2,1.79,1.79,0,0,1-1.51.87,2.21,2.21,0,0,1-2.14-1.69.59.59,0,0,0,.23,0,.63.63,0,1,0-.63-.57,2.61,2.61,0,0,0,2.56,2.61,3.11,3.11,0,0,0,3-3.19,2.91,2.91,0,0,0-2.66-3.13,2.47,2.47,0,0,0-1.82.76v-3" transform="translate(-23.05 -6.8)"/><path d="M155.48,239.45a1.53,1.53,0,1,1,1.53-1.53,1.54,1.54,0,0,1-1.53,1.53m1.93-1.53a1.93,1.93,0,1,0-1.93,1.92A1.94,1.94,0,0,0,157.41,237.92Z" transform="translate(-23.05 -6.8)"/><line class="cls-4" x1="170.28" y1="185.89" x2="250.46" y2="266.06"/><circle cx="250.46" cy="266.06" r="1.59"/><circle class="cls-1" cx="250.46" cy="266.06" r="1.59"/><rect class="cls-2" x="204.95" y="227.96" width="26.08" height="12.03"/><path d="M230.84,240.44c-.24,0-.3,0-.3.16s.07.14.33.14h.66c1.23,0,1.77,1,1.77,2.39,0,1.88-1,2.38-1.68,2.38a2.57,2.57,0,0,1-2.29-1.27.71.71,0,0,0,.88-.71.67.67,0,0,0-.7-.7.68.68,0,0,0-.72.75,2.64,2.64,0,0,0,2.87,2.32,2.88,2.88,0,0,0,3-2.76,2.77,2.77,0,0,0-2.45-2.6,2.7,2.7,0,0,0,2.06-2.52c0-1.14-1.18-2-2.57-2s-2.5.87-2.5,1.92a.63.63,0,0,0,.66.69.62.62,0,0,0,.64-.64.63.63,0,0,0-.66-.67.3.3,0,0,0-.15,0,2.34,2.34,0,0,1,2-1c.48,0,1.41.22,1.41,1.63a3.21,3.21,0,0,1-.46,1.69,1.45,1.45,0,0,1-1.31.69l-.43,0" transform="translate(-23.05 -6.8)"/><path d="M239.34,236.39c0-.33,0-.34-.29-.34a3.22,3.22,0,0,1-2.54.92v.41a4.12,4.12,0,0,0,1.83-.37v7.48c0,.52,0,.69-1.3.69h-.45v.42c.39,0,1.79,0,2.26,0s1.85,0,2.24,0v-.42h-.45c-1.26,0-1.3-.17-1.3-.69v-8.1" transform="translate(-23.05 -6.8)"/><path d="M244,237.37a4.23,4.23,0,0,0,1.28.21,3.06,3.06,0,0,0,2.65-1.39c0-.06,0-.13-.11-.13a.41.41,0,0,0-.19.06,4.79,4.79,0,0,1-1.86.39,4.59,4.59,0,0,1-1.9-.41.39.39,0,0,0-.14,0c-.12,0-.12.09-.12.32v4.26c0,.26,0,.35.17.35s.09,0,.23-.19a2.16,2.16,0,0,1,1.8-.93,1.48,1.48,0,0,1,1.25.95,4.76,4.76,0,0,1,.26,1.81,3.75,3.75,0,0,1-.41,2,1.76,1.76,0,0,1-1.5.87,2.21,2.21,0,0,1-2.14-1.69.59.59,0,0,0,.23,0,.63.63,0,0,0,0-1.26.61.61,0,0,0-.64.69,2.62,2.62,0,0,0,2.57,2.61,3.11,3.11,0,0,0,3.05-3.19,2.91,2.91,0,0,0-2.66-3.13,2.47,2.47,0,0,0-1.82.76v-3" transform="translate(-23.05 -6.8)"/><path d="M251.68,239.45a1.53,1.53,0,1,1,1.53-1.53,1.54,1.54,0,0,1-1.53,1.53m1.93-1.53a1.93,1.93,0,1,0-1.93,1.92A1.94,1.94,0,0,0,253.61,237.92Z" transform="translate(-23.05 -6.8)"/><path d="M300.57,130.29s0-.07-.25-.31c-1.43-1.46-2.24-3.83-2.24-6.76a9.51,9.51,0,0,1,2.34-6.88c.15-.13.15-.16.15-.2s-.07-.11-.13-.11a5.94,5.94,0,0,0-2.07,2.44,10.26,10.26,0,0,0-1.06,4.75,10.57,10.57,0,0,0,.95,4.53,6.1,6.1,0,0,0,2.18,2.66.12.12,0,0,0,.13-.12" transform="translate(-23.05 -6.8)"/><path d="M306.46,121.19l-1.74-3.86c-.07-.16-.12-.16-.15-.16s-.06,0-.17.08l-.95.72c-.13.09-.13.12-.13.15a.1.1,0,0,0,.1.11,1.34,1.34,0,0,0,.34-.22l.32-.23,2,4.3c.07.16.12.16.2.16s.18-.06.25-.2L311,112.7a.5.5,0,0,0,.06-.2.2.2,0,0,0-.19-.2c-.09,0-.16,0-.23.21l-4.19,8.68" transform="translate(-23.05 -6.8)"/><line class="cls-5" x1="287.85" y1="105.74" x2="292.83" y2="105.74"/><path d="M313.78,117.5a1.9,1.9,0,0,0,1.39-1.74c0-.82-.87-1.38-1.83-1.38s-1.75.6-1.75,1.35a.48.48,0,0,0,.5.52.49.49,0,0,0,.51-.5c0-.5-.47-.5-.62-.5a1.61,1.61,0,0,1,1.32-.62c.41,0,1,.22,1,1.12a2.49,2.49,0,0,1-.28,1.13,1,1,0,0,1-.88.51,2.66,2.66,0,0,1-.39,0c-.08,0-.15,0-.15.12s.07.11.24.11h.43c.82,0,1.19.68,1.19,1.65,0,1.35-.69,1.64-1.13,1.64a1.83,1.83,0,0,1-1.52-.75.55.55,0,0,0,.66-.55.54.54,0,0,0-.56-.56.53.53,0,0,0-.55.58,1.81,1.81,0,0,0,2,1.56,2,2,0,0,0,2.12-1.92,1.93,1.93,0,0,0-1.66-1.8" transform="translate(-23.05 -6.8)"/><line class="cls-6" x1="279.55" y1="116.37" x2="292.83" y2="116.37"/><path d="M308,130.93l1.05-1c1.55-1.37,2.15-1.9,2.15-2.9a2,2,0,0,0-2.11-1.93,1.83,1.83,0,0,0-1.85,1.8.51.51,0,0,0,.52.56.52.52,0,0,0,.52-.53.5.5,0,0,0-.53-.51h-.13a1.44,1.44,0,0,1,1.34-1c.91,0,1.34.81,1.34,1.62a3.56,3.56,0,0,1-1.05,2.2l-1.9,2.12c-.11.11-.11.13-.11.37h3.68l.28-1.73h-.25a3.29,3.29,0,0,1-.22.89,3.63,3.63,0,0,1-.94.07H308" transform="translate(-23.05 -6.8)"/><path d="M319.9,126.86c0-.83-.27-1.45-.86-1.45a.68.68,0,0,0-.69.69.69.69,0,0,0,.7.7.65.65,0,0,0,.48-.19s0,0,.06,0a1,1,0,0,1,0,.28,3.42,3.42,0,0,1-.91,2.34c-.16.17-.16.2-.16.23a.15.15,0,0,0,.14.14,3.43,3.43,0,0,0,1.22-2.71" transform="translate(-23.05 -6.8)"/><path d="M327.52,114.74c0-.23,0-.26-.23-.26a2.44,2.44,0,0,1-1.81.64v.31a3,3,0,0,0,1.31-.26v5.15c0,.35,0,.47-.93.47h-.32v.31c.35,0,1.22,0,1.61,0s1.26,0,1.61,0v-.31h-.32c-.89,0-.92-.11-.92-.47v-5.58" transform="translate(-23.05 -6.8)"/><line class="cls-6" x1="301.52" y1="116.37" x2="306.5" y2="116.37"/><path d="M325.86,130.93l1.05-1c1.55-1.37,2.15-1.9,2.15-2.9a2,2,0,0,0-2.11-1.93,1.83,1.83,0,0,0-1.85,1.8.51.51,0,0,0,.52.56.52.52,0,0,0,.52-.53.5.5,0,0,0-.53-.51h-.13a1.44,1.44,0,0,1,1.34-1c.91,0,1.34.81,1.34,1.62a3.56,3.56,0,0,1-1.05,2.2l-1.9,2.12c-.11.11-.11.13-.11.37h3.68l.28-1.73h-.25a3.29,3.29,0,0,1-.22.89,3.63,3.63,0,0,1-.94.07h-1.79" transform="translate(-23.05 -6.8)"/><path d="M334.75,123.22a10.62,10.62,0,0,0-.95-4.54,6.11,6.11,0,0,0-2.18-2.65c-.06,0-.13,0-.13.11s0,.07.24.32c1.44,1.45,2.25,3.82,2.25,6.75s-.68,5.19-2.35,6.88c-.14.13-.14.16-.14.2a.12.12,0,0,0,.13.12,6.08,6.08,0,0,0,2.07-2.45,10.34,10.34,0,0,0,1.06-4.74" transform="translate(-23.05 -6.8)"/><path d="M274,100.89s0-.07-.25-.31c-1.43-1.46-2.24-3.83-2.24-6.76a9.51,9.51,0,0,1,2.34-6.88c.15-.13.15-.16.15-.2a.12.12,0,0,0-.13-.12,6,6,0,0,0-2.07,2.45,10.26,10.26,0,0,0-1.06,4.75,10.57,10.57,0,0,0,1,4.53,6.1,6.1,0,0,0,2.18,2.66.12.12,0,0,0,.13-.12" transform="translate(-23.05 -6.8)"/><path d="M279.76,91.89,278,88c-.07-.16-.12-.16-.15-.16s-.06,0-.17.08l-.94.72c-.14.09-.14.12-.14.15a.1.1,0,0,0,.1.11,1.34,1.34,0,0,0,.34-.22l.32-.23,2,4.3c.07.16.12.16.2.16s.18-.06.25-.2l4.51-9.34a.44.44,0,0,0,.07-.2.2.2,0,0,0-.2-.2c-.08,0-.15,0-.22.21l-4.19,8.68" transform="translate(-23.05 -6.8)"/><line class="cls-5" x1="261.18" y1="76.39" x2="266.16" y2="76.39"/><path d="M285.46,90.83l1.05-1c1.55-1.37,2.15-1.9,2.15-2.9A2,2,0,0,0,286.55,85a1.83,1.83,0,0,0-1.85,1.8.51.51,0,0,0,.52.56.52.52,0,0,0,.52-.53.5.5,0,0,0-.53-.51h-.13a1.44,1.44,0,0,1,1.34-1c.91,0,1.34.81,1.34,1.62a3.56,3.56,0,0,1-1.05,2.2l-1.9,2.12c-.11.11-.11.13-.11.37h3.68l.28-1.73h-.25a3.29,3.29,0,0,1-.22.89,3.63,3.63,0,0,1-.94.07h-1.79" transform="translate(-23.05 -6.8)"/><line class="cls-6" x1="252.87" y1="87.01" x2="266.16" y2="87.01"/><path d="M281.36,101.53l1.05-1c1.55-1.37,2.15-1.91,2.15-2.9a2,2,0,0,0-2.11-1.93,1.83,1.83,0,0,0-1.85,1.8.51.51,0,0,0,.52.56.52.52,0,0,0,.52-.53.5.5,0,0,0-.53-.51H281a1.44,1.44,0,0,1,1.34-1c.91,0,1.34.81,1.34,1.62a3.56,3.56,0,0,1-1.05,2.2l-1.9,2.12c-.11.11-.11.13-.11.37h3.68l.28-1.73h-.25a3.29,3.29,0,0,1-.22.89,3.63,3.63,0,0,1-.94.07h-1.79" transform="translate(-23.05 -6.8)"/><path d="M293.2,97.46c0-.84-.27-1.45-.86-1.45a.68.68,0,0,0-.69.69.69.69,0,0,0,.7.7.65.65,0,0,0,.48-.19s0,0,.06,0a1,1,0,0,1,0,.28A3.4,3.4,0,0,1,292,99.8c-.15.17-.15.2-.15.23a.15.15,0,0,0,.14.14,3.46,3.46,0,0,0,1.22-2.71" transform="translate(-23.05 -6.8)"/><path d="M301.76,91.89,300,88c-.07-.16-.12-.16-.15-.16s-.06,0-.17.08l-.94.72c-.14.09-.14.12-.14.15a.1.1,0,0,0,.1.11,1.34,1.34,0,0,0,.34-.22l.32-.23,2,4.3c.07.16.12.16.2.16s.18-.06.25-.2l4.51-9.34a.44.44,0,0,0,.07-.2.2.2,0,0,0-.2-.2c-.08,0-.15,0-.22.21l-4.19,8.68" transform="translate(-23.05 -6.8)"/><line class="cls-5" x1="283.14" y1="76.39" x2="288.13" y2="76.39"/><path d="M307.46,90.83l1.05-1c1.55-1.37,2.15-1.9,2.15-2.9A2,2,0,0,0,308.55,85a1.83,1.83,0,0,0-1.85,1.8.51.51,0,0,0,.52.56.52.52,0,0,0,.52-.53.5.5,0,0,0-.53-.51h-.13a1.44,1.44,0,0,1,1.34-1c.91,0,1.34.81,1.34,1.62a3.56,3.56,0,0,1-1.05,2.2l-1.9,2.12c-.11.11-.11.13-.11.37h3.68l.28-1.73h-.25a3.29,3.29,0,0,1-.22.89,3.63,3.63,0,0,1-.94.07h-1.79" transform="translate(-23.05 -6.8)"/><line class="cls-6" x1="274.84" y1="87.01" x2="288.13" y2="87.01"/><path d="M303.26,101.53l1.05-1c1.55-1.37,2.15-1.91,2.15-2.9a2,2,0,0,0-2.11-1.93,1.83,1.83,0,0,0-1.85,1.8A.51.51,0,0,0,303,98a.52.52,0,0,0,.52-.53A.5.5,0,0,0,303,97h-.13a1.44,1.44,0,0,1,1.34-1c.91,0,1.34.81,1.34,1.62a3.56,3.56,0,0,1-1.05,2.2l-1.9,2.12c-.11.11-.11.13-.11.37h3.68l.28-1.73h-.25a3.29,3.29,0,0,1-.22.89,3.63,3.63,0,0,1-.94.07h-1.79" transform="translate(-23.05 -6.8)"/><path d="M316.45,93.82a10.62,10.62,0,0,0-.95-4.54,6.17,6.17,0,0,0-2.18-2.66.12.12,0,0,0-.13.12s0,.07.24.32c1.44,1.45,2.24,3.82,2.24,6.75s-.67,5.19-2.34,6.88c-.14.13-.14.16-.14.2a.12.12,0,0,0,.13.12,6.08,6.08,0,0,0,2.07-2.45,10.34,10.34,0,0,0,1.06-4.74" transform="translate(-23.05 -6.8)"/><path d="M248.77,78.39s0-.07-.25-.31c-1.43-1.46-2.24-3.83-2.24-6.76a9.51,9.51,0,0,1,2.34-6.88c.15-.13.15-.16.15-.2a.12.12,0,0,0-.13-.12,6,6,0,0,0-2.07,2.45,10.26,10.26,0,0,0-1.06,4.75,10.57,10.57,0,0,0,1,4.53,6.1,6.1,0,0,0,2.18,2.66.12.12,0,0,0,.13-.12" transform="translate(-23.05 -6.8)"/><path d="M253.62,62.84c0-.24,0-.26-.23-.26a2.44,2.44,0,0,1-1.81.64v.31a3,3,0,0,0,1.31-.26v5.15c0,.35,0,.47-.93.47h-.32v.31c.35,0,1.22,0,1.61,0s1.26,0,1.61,0v-.31h-.32c-.89,0-.92-.11-.92-.47V62.84" transform="translate(-23.05 -6.8)"/><line class="cls-6" x1="227.67" y1="64.49" x2="232.65" y2="64.49"/><path d="M252,79l1-1c1.55-1.37,2.15-1.91,2.15-2.9a2,2,0,0,0-2.11-1.93A1.83,1.83,0,0,0,251.2,75a.51.51,0,0,0,.52.56.52.52,0,0,0,.52-.53.5.5,0,0,0-.53-.51h-.13a1.44,1.44,0,0,1,1.34-1c.91,0,1.34.81,1.34,1.62a3.56,3.56,0,0,1-1,2.2l-1.9,2.12c-.11.11-.11.13-.11.37h3.68l.28-1.73h-.25a3.29,3.29,0,0,1-.22.89,3.63,3.63,0,0,1-.94.07H252" transform="translate(-23.05 -6.8)"/><path d="M259.7,75c0-.84-.27-1.45-.86-1.45a.68.68,0,0,0-.69.69.69.69,0,0,0,.7.7.65.65,0,0,0,.48-.19s0,0,.06,0a1,1,0,0,1,0,.28,3.4,3.4,0,0,1-.92,2.34c-.15.17-.15.2-.15.23a.15.15,0,0,0,.14.14A3.46,3.46,0,0,0,259.7,75" transform="translate(-23.05 -6.8)"/><path d="M268.26,69.39l-1.74-3.86c-.07-.16-.12-.16-.15-.16s-.06,0-.17.08l-.94.72c-.14.09-.14.12-.14.15a.1.1,0,0,0,.1.11,1.34,1.34,0,0,0,.34-.22l.32-.23,2,4.3c.07.16.12.16.2.16s.18-.06.25-.2l4.51-9.34a.44.44,0,0,0,.07-.2.2.2,0,0,0-.2-.2c-.08,0-.15,0-.22.21l-4.19,8.68" transform="translate(-23.05 -6.8)"/><line class="cls-5" x1="249.64" y1="53.86" x2="254.62" y2="53.86"/><path d="M275.58,65.6A1.92,1.92,0,0,0,277,63.85c0-.81-.87-1.37-1.83-1.37s-1.75.6-1.75,1.35a.48.48,0,0,0,.5.52.49.49,0,0,0,.51-.5c0-.5-.47-.5-.62-.5a1.61,1.61,0,0,1,1.32-.62c.41,0,1,.22,1,1.12a2.49,2.49,0,0,1-.28,1.13,1,1,0,0,1-.89.51,2.43,2.43,0,0,1-.38,0c-.08,0-.15,0-.15.12s.07.11.24.11H275c.82,0,1.19.68,1.19,1.65,0,1.35-.69,1.64-1.13,1.64a1.83,1.83,0,0,1-1.52-.75.55.55,0,0,0,.66-.55.54.54,0,0,0-.56-.56.53.53,0,0,0-.55.58,1.81,1.81,0,0,0,2,1.56,2,2,0,0,0,2.12-1.92,1.93,1.93,0,0,0-1.66-1.8" transform="translate(-23.05 -6.8)"/><line class="cls-6" x1="241.34" y1="64.49" x2="254.62" y2="64.49"/><path d="M269.76,79l1.05-1c1.55-1.37,2.15-1.91,2.15-2.9a2,2,0,0,0-2.11-1.93A1.83,1.83,0,0,0,269,75a.51.51,0,0,0,.52.56A.52.52,0,0,0,270,75a.5.5,0,0,0-.53-.51h-.13a1.44,1.44,0,0,1,1.34-1c.91,0,1.34.81,1.34,1.62a3.56,3.56,0,0,1-1.05,2.2l-1.9,2.12c-.11.11-.11.13-.11.37h3.68l.28-1.73h-.25a3.29,3.29,0,0,1-.22.89,3.63,3.63,0,0,1-.94.07h-1.79" transform="translate(-23.05 -6.8)"/><path d="M283,71.32a10.62,10.62,0,0,0-.95-4.54,6.17,6.17,0,0,0-2.18-2.66.12.12,0,0,0-.13.12s0,.07.24.32c1.44,1.45,2.24,3.82,2.24,6.75s-.67,5.19-2.34,6.88c-.14.13-.14.16-.14.2a.12.12,0,0,0,.13.12,6.08,6.08,0,0,0,2.07-2.45A10.34,10.34,0,0,0,283,71.32" transform="translate(-23.05 -6.8)"/><path d="M49.57,130.29s0-.07-.25-.31c-1.43-1.46-2.24-3.83-2.24-6.76a9.51,9.51,0,0,1,2.34-6.88c.15-.13.15-.16.15-.2s-.07-.11-.13-.11a5.94,5.94,0,0,0-2.07,2.44,10.26,10.26,0,0,0-1.06,4.75,10.57,10.57,0,0,0,.95,4.53,6.1,6.1,0,0,0,2.18,2.66.12.12,0,0,0,.13-.12" transform="translate(-23.05 -6.8)"/><path d="M59.77,123.5c.24,0,.5,0,.5-.29s-.26-.29-.5-.29H52c-.24,0-.5,0-.5.29s.26.29.5.29h7.78" transform="translate(-23.05 -6.8)"/><path d="M66.56,121.19l-1.74-3.86c-.07-.16-.12-.16-.15-.16s-.06,0-.17.08l-1,.72c-.13.09-.13.12-.13.15a.11.11,0,0,0,.1.11,1.34,1.34,0,0,0,.34-.22l.32-.23,2,4.3c.07.16.12.16.2.16s.18-.06.25-.2l4.51-9.34a.44.44,0,0,0,.07-.2.2.2,0,0,0-.2-.2c-.08,0-.15,0-.22.21l-4.19,8.68" transform="translate(-23.05 -6.8)"/><line class="cls-5" x1="47.94" y1="105.74" x2="52.92" y2="105.74"/><path d="M73.88,117.5a1.91,1.91,0,0,0,1.39-1.74c0-.82-.87-1.38-1.83-1.38s-1.75.6-1.75,1.35a.48.48,0,0,0,.5.52.49.49,0,0,0,.51-.5c0-.5-.47-.5-.62-.5a1.61,1.61,0,0,1,1.32-.62c.41,0,1,.22,1,1.12a2.49,2.49,0,0,1-.28,1.13,1,1,0,0,1-.89.51,2.43,2.43,0,0,1-.38,0c-.08,0-.15,0-.15.12s.07.11.24.11h.43c.82,0,1.19.68,1.19,1.65,0,1.35-.69,1.64-1.13,1.64a1.83,1.83,0,0,1-1.52-.75.55.55,0,0,0,.66-.55.54.54,0,0,0-.56-.56.53.53,0,0,0-.55.58,1.81,1.81,0,0,0,2,1.56,2,2,0,0,0,2.12-1.92,1.93,1.93,0,0,0-1.66-1.8" transform="translate(-23.05 -6.8)"/><line class="cls-6" x1="39.64" y1="116.37" x2="52.93" y2="116.37"/><path d="M68.06,130.93l1-1c1.55-1.37,2.15-1.9,2.15-2.9a2,2,0,0,0-2.11-1.93,1.83,1.83,0,0,0-1.85,1.8.51.51,0,0,0,.52.56.52.52,0,0,0,.52-.53.5.5,0,0,0-.53-.51h-.13a1.44,1.44,0,0,1,1.34-1c.91,0,1.34.81,1.34,1.62a3.56,3.56,0,0,1-1,2.2l-1.9,2.12c-.11.11-.11.13-.11.37H71l.28-1.73H71a3.29,3.29,0,0,1-.22.89,3.63,3.63,0,0,1-.94.07H68.06" transform="translate(-23.05 -6.8)"/><path d="M80,126.86c0-.83-.27-1.45-.86-1.45a.68.68,0,0,0-.69.69.69.69,0,0,0,.7.7.65.65,0,0,0,.48-.19s0,0,.06,0a1,1,0,0,1,0,.28,3.4,3.4,0,0,1-.92,2.34c-.15.17-.15.2-.15.23a.15.15,0,0,0,.14.14A3.46,3.46,0,0,0,80,126.86" transform="translate(-23.05 -6.8)"/><path d="M87.62,114.74c0-.23,0-.26-.23-.26a2.44,2.44,0,0,1-1.81.64v.31a3,3,0,0,0,1.31-.26v5.15c0,.35,0,.47-.93.47h-.32v.31c.35,0,1.22,0,1.61,0s1.26,0,1.61,0v-.31h-.32c-.89,0-.92-.11-.92-.47v-5.58" transform="translate(-23.05 -6.8)"/><line class="cls-6" x1="61.61" y1="116.37" x2="66.59" y2="116.37"/><path d="M86,130.93l1.05-1c1.55-1.37,2.15-1.9,2.15-2.9a2,2,0,0,0-2.11-1.93,1.83,1.83,0,0,0-1.85,1.8.51.51,0,0,0,.52.56.52.52,0,0,0,.52-.53.5.5,0,0,0-.53-.51h-.13a1.44,1.44,0,0,1,1.34-1c.91,0,1.34.81,1.34,1.62a3.56,3.56,0,0,1-1.05,2.2l-1.9,2.12c-.11.11-.11.13-.11.37h3.68l.28-1.73h-.25a3.29,3.29,0,0,1-.22.89,3.63,3.63,0,0,1-.94.07H86" transform="translate(-23.05 -6.8)"/><path d="M94.85,123.22a10.62,10.62,0,0,0-.95-4.54A6.11,6.11,0,0,0,91.72,116c-.06,0-.13,0-.13.11s0,.07.24.32c1.44,1.45,2.24,3.82,2.24,6.75s-.67,5.19-2.34,6.88c-.14.13-.14.16-.14.2a.12.12,0,0,0,.13.12A6.08,6.08,0,0,0,93.79,128a10.34,10.34,0,0,0,1.06-4.74" transform="translate(-23.05 -6.8)"/><path d="M67.87,100.89s0-.07-.25-.31c-1.43-1.46-2.24-3.83-2.24-6.76a9.51,9.51,0,0,1,2.34-6.88c.15-.13.15-.16.15-.2a.12.12,0,0,0-.13-.12,6.08,6.08,0,0,0-2.07,2.45,10.26,10.26,0,0,0-1.06,4.75,10.57,10.57,0,0,0,1,4.53A6.1,6.1,0,0,0,67.74,101a.12.12,0,0,0,.13-.12" transform="translate(-23.05 -6.8)"/><path d="M78.17,94.1c.24,0,.5,0,.5-.29s-.26-.29-.5-.29H70.39c-.24,0-.5,0-.5.29s.26.29.5.29h7.78" transform="translate(-23.05 -6.8)"/><path d="M85,91.89,83.22,88c-.07-.16-.12-.16-.15-.16s-.06,0-.17.08l-.94.72c-.14.09-.14.12-.14.15a.1.1,0,0,0,.1.11,1.34,1.34,0,0,0,.34-.22l.32-.23,2,4.3c.07.16.12.16.2.16s.18-.06.25-.2l4.52-9.34a.5.5,0,0,0,.06-.2.2.2,0,0,0-.19-.2c-.09,0-.16,0-.23.21L85,91.89" transform="translate(-23.05 -6.8)"/><line class="cls-5" x1="66.32" y1="76.39" x2="71.3" y2="76.39"/><path d="M90.66,90.83l1-1c1.55-1.37,2.15-1.9,2.15-2.9A2,2,0,0,0,91.76,85a1.84,1.84,0,0,0-1.86,1.8.51.51,0,0,0,.52.56.52.52,0,0,0,.52-.53.5.5,0,0,0-.53-.51h-.13a1.44,1.44,0,0,1,1.34-1c.91,0,1.34.81,1.34,1.62a3.56,3.56,0,0,1-1,2.2L90,91.23c-.11.11-.11.13-.11.37h3.68l.28-1.73h-.25a3.29,3.29,0,0,1-.22.89,3.63,3.63,0,0,1-.94.07H90.66" transform="translate(-23.05 -6.8)"/><line class="cls-6" x1="58.01" y1="87.01" x2="71.3" y2="87.01"/><path d="M86.46,101.53l1.05-1c1.55-1.37,2.15-1.91,2.15-2.9a2,2,0,0,0-2.11-1.93,1.83,1.83,0,0,0-1.85,1.8.51.51,0,0,0,.52.56.52.52,0,0,0,.52-.53.5.5,0,0,0-.53-.51h-.13a1.44,1.44,0,0,1,1.34-1c.91,0,1.34.81,1.34,1.62a3.56,3.56,0,0,1-1.05,2.2l-1.9,2.12c-.11.11-.11.13-.11.37h3.68l.28-1.73h-.25a3.29,3.29,0,0,1-.22.89,3.63,3.63,0,0,1-.94.07H86.46" transform="translate(-23.05 -6.8)"/><path d="M98.3,97.46c0-.84-.27-1.45-.86-1.45a.68.68,0,0,0-.69.69.69.69,0,0,0,.7.7.65.65,0,0,0,.48-.19s0,0,.06,0a1,1,0,0,1,0,.28,3.4,3.4,0,0,1-.92,2.34c-.15.17-.15.2-.15.23a.15.15,0,0,0,.14.14,3.46,3.46,0,0,0,1.22-2.71" transform="translate(-23.05 -6.8)"/><path d="M106.86,91.89,105.12,88c-.07-.16-.12-.16-.15-.16s-.06,0-.17.08l-1,.72c-.13.09-.13.12-.13.15a.11.11,0,0,0,.1.11,1.34,1.34,0,0,0,.34-.22l.32-.23,2,4.3c.07.16.12.16.2.16s.18-.06.25-.2l4.51-9.34a.44.44,0,0,0,.07-.2.2.2,0,0,0-.2-.2c-.08,0-.15,0-.22.21l-4.19,8.68" transform="translate(-23.05 -6.8)"/><line class="cls-5" x1="88.28" y1="76.39" x2="93.26" y2="76.39"/><path d="M112.56,90.83l1-1c1.55-1.37,2.15-1.9,2.15-2.9A2,2,0,0,0,113.65,85a1.83,1.83,0,0,0-1.85,1.8.51.51,0,0,0,.52.56.52.52,0,0,0,.52-.53.5.5,0,0,0-.53-.51h-.13a1.44,1.44,0,0,1,1.34-1c.91,0,1.34.81,1.34,1.62a3.56,3.56,0,0,1-1,2.2l-1.9,2.12c-.11.11-.11.13-.11.37h3.68l.28-1.73h-.25a3.29,3.29,0,0,1-.22.89,3.63,3.63,0,0,1-.94.07h-1.79" transform="translate(-23.05 -6.8)"/><line class="cls-6" x1="79.98" y1="87.01" x2="93.27" y2="87.01"/><path d="M108.46,101.53l1.05-1c1.55-1.37,2.15-1.91,2.15-2.9a2,2,0,0,0-2.1-1.93,1.84,1.84,0,0,0-1.86,1.8.51.51,0,0,0,.52.56.52.52,0,0,0,.52-.53.5.5,0,0,0-.53-.51h-.13a1.44,1.44,0,0,1,1.35-1c.9,0,1.33.81,1.33,1.62a3.56,3.56,0,0,1-1.05,2.2l-1.9,2.12c-.11.11-.11.13-.11.37h3.68l.28-1.73h-.25a3.29,3.29,0,0,1-.22.89,3.63,3.63,0,0,1-.94.07h-1.79" transform="translate(-23.05 -6.8)"/><path d="M121.55,93.82a10.62,10.62,0,0,0-1-4.54,6.1,6.1,0,0,0-2.18-2.66.12.12,0,0,0-.13.12s0,.07.24.32c1.44,1.45,2.24,3.82,2.24,6.75s-.67,5.19-2.34,6.88c-.14.13-.14.16-.14.2a.12.12,0,0,0,.13.12,6.08,6.08,0,0,0,2.07-2.45,10.34,10.34,0,0,0,1.06-4.74" transform="translate(-23.05 -6.8)"/><path d="M101.37,78.39s0-.07-.25-.31c-1.43-1.46-2.24-3.83-2.24-6.76a9.51,9.51,0,0,1,2.34-6.88c.15-.13.15-.16.15-.2a.12.12,0,0,0-.13-.12,6.08,6.08,0,0,0-2.07,2.45,10.26,10.26,0,0,0-1.06,4.75,10.57,10.57,0,0,0,1,4.53,6.1,6.1,0,0,0,2.18,2.66.12.12,0,0,0,.13-.12" transform="translate(-23.05 -6.8)"/><path d="M111.67,71.6c.24,0,.5,0,.5-.29s-.26-.29-.5-.29h-7.78c-.24,0-.5,0-.5.29s.26.29.5.29h7.78" transform="translate(-23.05 -6.8)"/><path d="M117.52,62.84c0-.24,0-.26-.23-.26a2.44,2.44,0,0,1-1.81.64v.31a3,3,0,0,0,1.31-.26v5.15c0,.35,0,.47-.93.47h-.32v.31c.35,0,1.22,0,1.61,0s1.26,0,1.61,0v-.31h-.32c-.89,0-.92-.11-.92-.47V62.84" transform="translate(-23.05 -6.8)"/><line class="cls-6" x1="91.52" y1="64.49" x2="96.5" y2="64.49"/><path d="M115.86,79l1-1c1.55-1.37,2.15-1.91,2.15-2.9a2,2,0,0,0-2.1-1.93A1.84,1.84,0,0,0,115.1,75a.51.51,0,0,0,.52.56.52.52,0,0,0,.52-.53.5.5,0,0,0-.53-.51h-.13a1.44,1.44,0,0,1,1.34-1c.91,0,1.34.81,1.34,1.62a3.56,3.56,0,0,1-1,2.2l-1.9,2.12c-.11.11-.11.13-.11.37h3.68l.28-1.73h-.25a3.29,3.29,0,0,1-.22.89,3.63,3.63,0,0,1-.94.07h-1.79" transform="translate(-23.05 -6.8)"/><path d="M123.5,75c0-.84-.27-1.45-.86-1.45a.68.68,0,0,0-.69.69.69.69,0,0,0,.7.7.65.65,0,0,0,.48-.19s0,0,.06,0a1,1,0,0,1,0,.28,3.4,3.4,0,0,1-.92,2.34c-.15.17-.15.2-.15.23a.15.15,0,0,0,.14.14A3.46,3.46,0,0,0,123.5,75" transform="translate(-23.05 -6.8)"/><path d="M132.06,69.39l-1.74-3.86c-.07-.16-.12-.16-.15-.16s-.06,0-.17.08l-.94.72c-.13.09-.13.12-.13.15a.1.1,0,0,0,.09.11,1.34,1.34,0,0,0,.34-.22l.32-.23,2,4.3c.07.16.12.16.2.16s.18-.06.25-.2l4.51-9.34a.44.44,0,0,0,.07-.2.2.2,0,0,0-.2-.2c-.08,0-.15,0-.22.21l-4.19,8.68" transform="translate(-23.05 -6.8)"/><line class="cls-5" x1="113.49" y1="53.86" x2="118.47" y2="53.86"/><path d="M139.38,65.6a1.92,1.92,0,0,0,1.39-1.75c0-.81-.87-1.37-1.83-1.37s-1.75.6-1.75,1.35a.48.48,0,0,0,.5.52.49.49,0,0,0,.51-.5c0-.5-.47-.5-.62-.5a1.61,1.61,0,0,1,1.32-.62c.41,0,1,.22,1,1.12a2.49,2.49,0,0,1-.28,1.13,1,1,0,0,1-.89.51,2.43,2.43,0,0,1-.38,0c-.08,0-.15,0-.15.12s.07.11.24.11h.43c.82,0,1.19.68,1.19,1.65,0,1.35-.69,1.64-1.13,1.64a1.83,1.83,0,0,1-1.52-.75.55.55,0,0,0,.66-.55.54.54,0,0,0-.56-.56.53.53,0,0,0-.55.58,1.81,1.81,0,0,0,2,1.56A2,2,0,0,0,141,67.4a1.93,1.93,0,0,0-1.66-1.8" transform="translate(-23.05 -6.8)"/><line class="cls-6" x1="105.18" y1="64.49" x2="118.47" y2="64.49"/><path d="M133.66,79l1.05-1c1.55-1.37,2.15-1.91,2.15-2.9a2,2,0,0,0-2.1-1.93A1.84,1.84,0,0,0,132.9,75a.51.51,0,0,0,.52.56.52.52,0,0,0,.52-.53.5.5,0,0,0-.53-.51h-.13a1.44,1.44,0,0,1,1.34-1c.91,0,1.34.81,1.34,1.62a3.56,3.56,0,0,1-1.05,2.2L133,79.43c-.11.11-.11.13-.11.37h3.68l.28-1.73h-.25a3.29,3.29,0,0,1-.22.89,3.63,3.63,0,0,1-.94.07h-1.79" transform="translate(-23.05 -6.8)"/><path d="M146.75,71.32a10.62,10.62,0,0,0-.95-4.54,6.1,6.1,0,0,0-2.18-2.66.12.12,0,0,0-.13.12s0,.07.24.32C145.17,66,146,68.38,146,71.31s-.67,5.19-2.34,6.88c-.14.13-.14.16-.14.2a.12.12,0,0,0,.13.12,6.08,6.08,0,0,0,2.07-2.45,10.34,10.34,0,0,0,1.06-4.74" transform="translate(-23.05 -6.8)"/><path d="M44,272s0-.07-.25-.31c-1.43-1.46-2.24-3.83-2.24-6.76A9.51,9.51,0,0,1,43.82,258c.15-.13.15-.16.15-.2a.12.12,0,0,0-.13-.11,5.94,5.94,0,0,0-2.07,2.44,10.26,10.26,0,0,0-1.06,4.75,10.57,10.57,0,0,0,.95,4.53,6.1,6.1,0,0,0,2.18,2.66A.12.12,0,0,0,44,272" transform="translate(-23.05 -6.8)"/><path d="M54.27,265.2c.24,0,.5,0,.5-.29s-.26-.29-.5-.29H46.49c-.24,0-.5,0-.5.29s.26.29.5.29h7.78" transform="translate(-23.05 -6.8)"/><path d="M61,263l-1.74-3.86c-.07-.16-.12-.16-.15-.16s-.06,0-.17.08l-.94.72c-.14.09-.14.12-.14.15a.1.1,0,0,0,.1.11,1.34,1.34,0,0,0,.34-.22l.32-.23,2,4.3c.07.16.12.16.2.16s.18-.06.25-.2l4.52-9.34a.5.5,0,0,0,.06-.2.2.2,0,0,0-.19-.2c-.09,0-.16.05-.23.21L61,263" transform="translate(-23.05 -6.8)"/><line class="cls-5" x1="42.36" y1="247.47" x2="47.35" y2="247.47"/><path d="M68.28,259.2a1.91,1.91,0,0,0,1.39-1.74c0-.82-.87-1.38-1.83-1.38s-1.75.6-1.75,1.35a.48.48,0,0,0,.5.52.49.49,0,0,0,.51-.5c0-.5-.47-.5-.62-.5a1.61,1.61,0,0,1,1.32-.62c.41,0,1,.22,1,1.12a2.49,2.49,0,0,1-.28,1.13,1,1,0,0,1-.89.51l-.38,0c-.08,0-.15,0-.15.12s.07.11.24.11h.43c.82,0,1.19.68,1.19,1.65,0,1.35-.69,1.64-1.13,1.64a1.83,1.83,0,0,1-1.52-.75.55.55,0,0,0,.66-.55.54.54,0,0,0-.56-.56.53.53,0,0,0-.55.58,1.81,1.81,0,0,0,2,1.56A2,2,0,0,0,69.94,261a1.93,1.93,0,0,0-1.66-1.8" transform="translate(-23.05 -6.8)"/><line class="cls-6" x1="34.06" y1="258.1" x2="47.35" y2="258.1"/><path d="M62.56,272.63l1-1c1.55-1.37,2.15-1.9,2.15-2.9a2,2,0,0,0-2.11-1.93,1.83,1.83,0,0,0-1.85,1.8.51.51,0,0,0,.52.56.52.52,0,0,0,.52-.53.5.5,0,0,0-.53-.51h-.13a1.44,1.44,0,0,1,1.34-1c.91,0,1.34.81,1.34,1.62a3.56,3.56,0,0,1-1,2.2L61.91,273c-.11.11-.11.13-.11.37h3.68l.28-1.73h-.25a3.29,3.29,0,0,1-.22.89,3.63,3.63,0,0,1-.94.07H62.56" transform="translate(-23.05 -6.8)"/><path d="M74.4,268.56c0-.83-.27-1.45-.86-1.45a.68.68,0,0,0-.69.69.69.69,0,0,0,.7.7.65.65,0,0,0,.48-.19s0,0,.06,0a1,1,0,0,1,0,.28,3.4,3.4,0,0,1-.92,2.34c-.15.17-.15.2-.15.23a.15.15,0,0,0,.14.14,3.46,3.46,0,0,0,1.22-2.71" transform="translate(-23.05 -6.8)"/><path d="M87.37,265.2c.24,0,.5,0,.5-.29s-.26-.29-.5-.29H79.59c-.24,0-.5,0-.5.29s.26.29.5.29h7.78" transform="translate(-23.05 -6.8)"/><path d="M93.12,256.44c0-.23,0-.26-.23-.26a2.44,2.44,0,0,1-1.81.64v.31a3,3,0,0,0,1.31-.26V262c0,.35,0,.47-.93.47h-.32v.31c.35,0,1.22,0,1.61,0s1.26,0,1.61,0v-.31H94c-.89,0-.92-.11-.92-.47v-5.58" transform="translate(-23.05 -6.8)"/><line class="cls-6" x1="67.19" y1="258.1" x2="72.17" y2="258.1"/><path d="M91.46,272.63l1.05-1c1.55-1.37,2.15-1.9,2.15-2.9a2,2,0,0,0-2.11-1.93,1.83,1.83,0,0,0-1.85,1.8.51.51,0,0,0,.52.56.52.52,0,0,0,.52-.53.5.5,0,0,0-.53-.51h-.13a1.44,1.44,0,0,1,1.34-1c.91,0,1.34.81,1.34,1.62a3.56,3.56,0,0,1-1.05,2.2L90.81,273c-.11.11-.11.13-.11.37h3.68l.28-1.73h-.25a3.29,3.29,0,0,1-.22.89,3.63,3.63,0,0,1-.94.07H91.46" transform="translate(-23.05 -6.8)"/><path d="M100.45,264.92a10.62,10.62,0,0,0-1-4.54,6.11,6.11,0,0,0-2.18-2.65.12.12,0,0,0-.13.11s0,.07.24.32c1.44,1.45,2.24,3.82,2.24,6.75s-.67,5.19-2.34,6.88c-.14.13-.14.16-.14.2a.12.12,0,0,0,.13.12,6.08,6.08,0,0,0,2.07-2.45,10.34,10.34,0,0,0,1.06-4.74" transform="translate(-23.05 -6.8)"/><path d="M62.37,301.29s0-.07-.25-.31c-1.43-1.46-2.24-3.83-2.24-6.76a9.51,9.51,0,0,1,2.34-6.88c.15-.13.15-.16.15-.2a.12.12,0,0,0-.13-.12,6.08,6.08,0,0,0-2.07,2.45,10.26,10.26,0,0,0-1.06,4.75,10.57,10.57,0,0,0,1,4.53,6.1,6.1,0,0,0,2.18,2.66.12.12,0,0,0,.13-.12" transform="translate(-23.05 -6.8)"/><path d="M72.57,294.5c.24,0,.5,0,.5-.29s-.26-.29-.5-.29H64.79c-.24,0-.5,0-.5.29s.26.29.5.29h7.78" transform="translate(-23.05 -6.8)"/><path d="M79.36,292.29l-1.74-3.86c-.07-.16-.12-.16-.15-.16s-.06,0-.17.08l-1,.72c-.13.09-.13.12-.13.15a.11.11,0,0,0,.1.11,1.34,1.34,0,0,0,.34-.22l.32-.23,2,4.3c.07.16.12.16.2.16s.18-.06.25-.2l4.51-9.34a.44.44,0,0,0,.07-.2.2.2,0,0,0-.2-.2c-.08,0-.15.05-.22.21l-4.19,8.68" transform="translate(-23.05 -6.8)"/><line class="cls-5" x1="60.74" y1="276.83" x2="65.72" y2="276.83"/><path d="M85.06,291.33l1-1c1.55-1.37,2.15-1.91,2.15-2.9a2,2,0,0,0-2.11-1.93,1.83,1.83,0,0,0-1.85,1.8.51.51,0,0,0,.52.56.52.52,0,0,0,.52-.53.5.5,0,0,0-.53-.51h-.13a1.44,1.44,0,0,1,1.34-1c.91,0,1.34.81,1.34,1.62a3.56,3.56,0,0,1-1,2.2l-1.9,2.12c-.11.11-.11.13-.11.37H88l.28-1.73H88a3.29,3.29,0,0,1-.22.89,3.63,3.63,0,0,1-.94.07H85.06" transform="translate(-23.05 -6.8)"/><line class="cls-6" x1="52.44" y1="287.45" x2="65.72" y2="287.45"/><path d="M80.86,302l1-1c1.55-1.37,2.15-1.91,2.15-2.9a2,2,0,0,0-2.1-1.93A1.84,1.84,0,0,0,80.1,298a.51.51,0,0,0,.52.56.52.52,0,0,0,.52-.53.5.5,0,0,0-.53-.51h-.13a1.44,1.44,0,0,1,1.34-1c.91,0,1.34.81,1.34,1.62a3.56,3.56,0,0,1-1,2.2l-1.9,2.12c-.11.11-.11.13-.11.37h3.68l.28-1.73h-.25a3.29,3.29,0,0,1-.22.89,3.63,3.63,0,0,1-.94.07H80.86" transform="translate(-23.05 -6.8)"/><path d="M92.8,297.86c0-.84-.27-1.45-.86-1.45a.68.68,0,0,0-.69.69.69.69,0,0,0,.7.7.65.65,0,0,0,.48-.19s0,0,.06,0a1,1,0,0,1,0,.28,3.4,3.4,0,0,1-.92,2.34c-.15.17-.15.2-.15.23a.15.15,0,0,0,.14.14,3.46,3.46,0,0,0,1.22-2.71" transform="translate(-23.05 -6.8)"/><path d="M105.77,294.5c.24,0,.5,0,.5-.29s-.26-.29-.5-.29H98c-.24,0-.5,0-.5.29s.26.29.5.29h7.78" transform="translate(-23.05 -6.8)"/><path d="M112.46,292.29l-1.74-3.86c-.07-.16-.12-.16-.15-.16s-.06,0-.17.08l-.94.72c-.14.09-.14.12-.14.15a.1.1,0,0,0,.11.11,1.53,1.53,0,0,0,.33-.22l.32-.23,2,4.3c.07.16.12.16.2.16s.19-.06.25-.2L117,283.8a.5.5,0,0,0,.06-.2.2.2,0,0,0-.19-.2c-.09,0-.16.05-.23.21l-4.19,8.68" transform="translate(-23.05 -6.8)"/><line class="cls-5" x1="93.86" y1="276.83" x2="98.84" y2="276.83"/><path d="M118.16,291.33l1-1c1.55-1.37,2.15-1.91,2.15-2.9a2,2,0,0,0-2.1-1.93,1.84,1.84,0,0,0-1.86,1.8.51.51,0,0,0,.52.56.52.52,0,0,0,.52-.53.5.5,0,0,0-.53-.51h-.13a1.44,1.44,0,0,1,1.34-1c.91,0,1.34.81,1.34,1.62a3.56,3.56,0,0,1-1,2.2l-1.9,2.12c-.11.11-.11.13-.11.37h3.68l.28-1.73h-.25a3.29,3.29,0,0,1-.22.89,3.63,3.63,0,0,1-.94.07h-1.79" transform="translate(-23.05 -6.8)"/><line class="cls-6" x1="85.56" y1="287.45" x2="98.84" y2="287.45"/><path d="M114.06,302l1-1c1.55-1.37,2.15-1.91,2.15-2.9a2,2,0,0,0-2.11-1.93,1.83,1.83,0,0,0-1.85,1.8.51.51,0,0,0,.52.56.52.52,0,0,0,.52-.53.5.5,0,0,0-.53-.51h-.13a1.44,1.44,0,0,1,1.34-1c.91,0,1.34.81,1.34,1.62a3.56,3.56,0,0,1-1,2.2l-1.9,2.12c-.11.11-.11.13-.11.37H117l.28-1.73H117a3.29,3.29,0,0,1-.22.89,3.63,3.63,0,0,1-.94.07h-1.79" transform="translate(-23.05 -6.8)"/><path d="M127.15,294.22a10.62,10.62,0,0,0-1-4.54A6.17,6.17,0,0,0,124,287a.12.12,0,0,0-.13.12s0,.07.24.32c1.44,1.45,2.25,3.82,2.25,6.75s-.68,5.19-2.35,6.88c-.14.13-.14.16-.14.2a.12.12,0,0,0,.13.12,6.08,6.08,0,0,0,2.07-2.45,10.34,10.34,0,0,0,1.06-4.74" transform="translate(-23.05 -6.8)"/><path d="M95.87,323.89s0-.07-.25-.31c-1.43-1.46-2.24-3.83-2.24-6.76a9.51,9.51,0,0,1,2.34-6.88c.15-.13.15-.16.15-.2a.12.12,0,0,0-.13-.12,6.08,6.08,0,0,0-2.07,2.45,10.26,10.26,0,0,0-1.06,4.75,10.57,10.57,0,0,0,1,4.53A6.1,6.1,0,0,0,95.74,324a.12.12,0,0,0,.13-.12" transform="translate(-23.05 -6.8)"/><path d="M106.07,317.1c.24,0,.5,0,.5-.29s-.26-.29-.5-.29H98.29c-.24,0-.5,0-.5.29s.26.29.5.29h7.78" transform="translate(-23.05 -6.8)"/><path d="M111.92,308.34c0-.24,0-.26-.23-.26a2.44,2.44,0,0,1-1.81.64V309a3,3,0,0,0,1.31-.26v5.15c0,.35,0,.47-.93.47h-.32v.31c.35,0,1.22,0,1.61,0s1.26,0,1.61,0v-.31h-.32c-.89,0-.92-.11-.92-.47v-5.58" transform="translate(-23.05 -6.8)"/><line class="cls-6" x1="85.94" y1="309.98" x2="90.92" y2="309.98"/><path d="M110.26,324.53l1-1c1.55-1.37,2.15-1.91,2.15-2.9a2,2,0,0,0-2.11-1.93,1.83,1.83,0,0,0-1.85,1.8.51.51,0,0,0,.52.56.52.52,0,0,0,.52-.53A.5.5,0,0,0,110,320h-.13a1.44,1.44,0,0,1,1.34-1c.91,0,1.34.81,1.34,1.62a3.56,3.56,0,0,1-1,2.2l-1.9,2.12c-.11.11-.11.13-.11.37h3.68l.28-1.73h-.25a3.29,3.29,0,0,1-.22.89,3.63,3.63,0,0,1-.94.07h-1.79" transform="translate(-23.05 -6.8)"/><path d="M118,320.46c0-.84-.27-1.45-.86-1.45a.68.68,0,0,0-.69.69.69.69,0,0,0,.7.7.65.65,0,0,0,.48-.19s0,0,.06,0a1,1,0,0,1,0,.28,3.4,3.4,0,0,1-.92,2.34c-.15.17-.15.2-.15.23a.15.15,0,0,0,.14.14,3.46,3.46,0,0,0,1.22-2.71" transform="translate(-23.05 -6.8)"/><path d="M131,317.1c.24,0,.5,0,.5-.29s-.26-.29-.5-.29h-7.78c-.24,0-.5,0-.5.29s.26.29.5.29H131" transform="translate(-23.05 -6.8)"/><path d="M137.66,314.89,135.92,311c-.07-.16-.12-.16-.15-.16s-.06,0-.17.08l-.95.72c-.13.09-.13.12-.13.15a.11.11,0,0,0,.1.11,1.34,1.34,0,0,0,.34-.22l.32-.23,2,4.3c.07.16.12.16.2.16s.18-.06.25-.2l4.52-9.34a.5.5,0,0,0,.06-.2.2.2,0,0,0-.2-.2c-.08,0-.14.05-.22.21l-4.19,8.68" transform="translate(-23.05 -6.8)"/><line class="cls-5" x1="119.07" y1="299.35" x2="124.05" y2="299.35"/><path d="M145,311.1a1.92,1.92,0,0,0,1.39-1.75c0-.81-.87-1.37-1.83-1.37s-1.75.6-1.75,1.35a.51.51,0,1,0,1,0c0-.5-.47-.5-.62-.5a1.62,1.62,0,0,1,1.33-.62c.4,0,1,.22,1,1.12a2.49,2.49,0,0,1-.28,1.13,1,1,0,0,1-.89.51l-.38,0c-.08,0-.15,0-.15.12s.07.11.24.11h.43c.82,0,1.19.68,1.19,1.65,0,1.35-.69,1.64-1.13,1.64a1.83,1.83,0,0,1-1.52-.75.55.55,0,0,0,.66-.55.54.54,0,0,0-.56-.56.53.53,0,0,0-.55.58,1.81,1.81,0,0,0,2,1.56,2,2,0,0,0,2.12-1.92,1.93,1.93,0,0,0-1.66-1.8" transform="translate(-23.05 -6.8)"/><line class="cls-6" x1="110.76" y1="309.98" x2="124.05" y2="309.98"/><path d="M139.26,324.53l1.05-1c1.55-1.37,2.15-1.91,2.15-2.9a2,2,0,0,0-2.11-1.93,1.83,1.83,0,0,0-1.85,1.8.51.51,0,0,0,.52.56.52.52,0,0,0,.52-.53A.5.5,0,0,0,139,320h-.13a1.44,1.44,0,0,1,1.34-1c.91,0,1.34.81,1.34,1.62a3.56,3.56,0,0,1-1.05,2.2l-1.9,2.12c-.11.11-.11.13-.11.37h3.68l.28-1.73h-.25a3.29,3.29,0,0,1-.22.89,3.63,3.63,0,0,1-.94.07h-1.79" transform="translate(-23.05 -6.8)"/><path d="M152.35,316.82a10.62,10.62,0,0,0-.95-4.54,6.1,6.1,0,0,0-2.18-2.66.12.12,0,0,0-.13.12s0,.07.24.32c1.44,1.45,2.24,3.82,2.24,6.75s-.67,5.19-2.34,6.88c-.14.13-.14.16-.14.2a.12.12,0,0,0,.13.12,6.08,6.08,0,0,0,2.07-2.45,10.34,10.34,0,0,0,1.06-4.74" transform="translate(-23.05 -6.8)"/><path d="M295.07,272s0-.07-.25-.31c-1.43-1.46-2.24-3.83-2.24-6.76a9.51,9.51,0,0,1,2.34-6.88c.15-.13.15-.16.15-.2a.12.12,0,0,0-.13-.11,5.94,5.94,0,0,0-2.07,2.44,10.26,10.26,0,0,0-1.06,4.75,10.57,10.57,0,0,0,.95,4.53,6.1,6.1,0,0,0,2.18,2.66.12.12,0,0,0,.13-.12" transform="translate(-23.05 -6.8)"/><path d="M300.86,263l-1.74-3.86c-.07-.16-.12-.16-.15-.16s-.06,0-.17.08l-.95.72c-.13.09-.13.12-.13.15a.11.11,0,0,0,.1.11,1.34,1.34,0,0,0,.34-.22l.32-.23,2,4.3c.07.16.12.16.2.16s.18-.06.25-.2l4.51-9.34a.44.44,0,0,0,.07-.2.2.2,0,0,0-.2-.2c-.08,0-.15.05-.22.21L300.86,263" transform="translate(-23.05 -6.8)"/><line class="cls-5" x1="282.27" y1="247.47" x2="287.25" y2="247.47"/><path d="M308.18,259.2a1.91,1.91,0,0,0,1.39-1.74c0-.82-.87-1.38-1.83-1.38s-1.75.6-1.75,1.35a.48.48,0,0,0,.5.52.49.49,0,0,0,.51-.5c0-.5-.47-.5-.62-.5a1.61,1.61,0,0,1,1.32-.62c.41,0,1,.22,1,1.12a2.49,2.49,0,0,1-.28,1.13,1,1,0,0,1-.89.51l-.38,0c-.08,0-.15,0-.15.12s.07.11.24.11h.43c.82,0,1.19.68,1.19,1.65,0,1.35-.69,1.64-1.13,1.64a1.83,1.83,0,0,1-1.52-.75.55.55,0,0,0,.66-.55.54.54,0,0,0-.56-.56.53.53,0,0,0-.55.58,1.81,1.81,0,0,0,2,1.56,2,2,0,0,0,2.12-1.92,1.93,1.93,0,0,0-1.66-1.8" transform="translate(-23.05 -6.8)"/><line class="cls-6" x1="273.97" y1="258.1" x2="287.26" y2="258.1"/><path d="M302.46,272.63l1.05-1c1.55-1.37,2.15-1.9,2.15-2.9a2,2,0,0,0-2.11-1.93,1.83,1.83,0,0,0-1.85,1.8.51.51,0,0,0,.52.56.52.52,0,0,0,.52-.53.5.5,0,0,0-.53-.51h-.13a1.44,1.44,0,0,1,1.34-1c.91,0,1.34.81,1.34,1.62a3.56,3.56,0,0,1-1.05,2.2l-1.9,2.12c-.11.11-.11.13-.11.37h3.68l.28-1.73h-.25a3.29,3.29,0,0,1-.22.89,3.63,3.63,0,0,1-.94.07h-1.79" transform="translate(-23.05 -6.8)"/><path d="M314.3,268.56c0-.83-.27-1.45-.86-1.45a.68.68,0,0,0-.69.69.69.69,0,0,0,.7.7.65.65,0,0,0,.48-.19s0,0,.06,0a1,1,0,0,1,0,.28,3.42,3.42,0,0,1-.91,2.34c-.16.17-.16.2-.16.23a.15.15,0,0,0,.14.14,3.43,3.43,0,0,0,1.22-2.71" transform="translate(-23.05 -6.8)"/><path d="M327.27,265.2c.24,0,.5,0,.5-.29s-.26-.29-.5-.29H319.5c-.25,0-.51,0-.51.29s.26.29.51.29h7.77" transform="translate(-23.05 -6.8)"/><path d="M333,256.44c0-.23,0-.26-.23-.26a2.44,2.44,0,0,1-1.81.64v.31a3,3,0,0,0,1.31-.26V262c0,.35,0,.47-.93.47H331v.31c.35,0,1.22,0,1.61,0s1.26,0,1.61,0v-.31h-.32c-.89,0-.92-.11-.92-.47v-5.58" transform="translate(-23.05 -6.8)"/><line class="cls-6" x1="307.1" y1="258.1" x2="312.08" y2="258.1"/><path d="M331.36,272.63l1.05-1c1.55-1.37,2.15-1.9,2.15-2.9a2,2,0,0,0-2.11-1.93,1.83,1.83,0,0,0-1.85,1.8.51.51,0,0,0,.52.56.52.52,0,0,0,.52-.53.5.5,0,0,0-.53-.51H331a1.44,1.44,0,0,1,1.34-1c.91,0,1.34.81,1.34,1.62a3.56,3.56,0,0,1-1.05,2.2l-1.9,2.12c-.11.11-.11.13-.11.37h3.68l.28-1.73h-.25a3.29,3.29,0,0,1-.22.89,3.63,3.63,0,0,1-.94.07h-1.79" transform="translate(-23.05 -6.8)"/><path d="M340.35,264.92a10.62,10.62,0,0,0-1-4.54,6.11,6.11,0,0,0-2.18-2.65.12.12,0,0,0-.13.11s0,.07.24.32c1.44,1.45,2.24,3.82,2.24,6.75s-.67,5.19-2.34,6.88c-.14.13-.14.16-.14.2a.12.12,0,0,0,.13.12,6.08,6.08,0,0,0,2.07-2.45,10.34,10.34,0,0,0,1.06-4.74" transform="translate(-23.05 -6.8)"/><path d="M268.37,301.29s0-.07-.25-.31c-1.43-1.46-2.24-3.83-2.24-6.76a9.51,9.51,0,0,1,2.34-6.88c.15-.13.15-.16.15-.2a.12.12,0,0,0-.13-.12,6.08,6.08,0,0,0-2.07,2.45,10.26,10.26,0,0,0-1.06,4.75,10.57,10.57,0,0,0,.95,4.53,6.1,6.1,0,0,0,2.18,2.66.12.12,0,0,0,.13-.12" transform="translate(-23.05 -6.8)"/><path d="M274.16,292.29l-1.74-3.86c-.07-.16-.12-.16-.15-.16s-.06,0-.17.08l-1,.72c-.13.09-.13.12-.13.15a.1.1,0,0,0,.1.11,1.34,1.34,0,0,0,.34-.22l.32-.23,2,4.3c.07.16.12.16.2.16s.18-.06.25-.2l4.51-9.34a.44.44,0,0,0,.07-.2.2.2,0,0,0-.2-.2c-.08,0-.15.05-.22.21l-4.19,8.68" transform="translate(-23.05 -6.8)"/><line class="cls-5" x1="255.6" y1="276.83" x2="260.58" y2="276.83"/><path d="M279.86,291.33l1.05-1c1.55-1.37,2.15-1.91,2.15-2.9a2,2,0,0,0-2.11-1.93,1.83,1.83,0,0,0-1.85,1.8.51.51,0,0,0,.52.56.52.52,0,0,0,.52-.53.5.5,0,0,0-.53-.51h-.13a1.44,1.44,0,0,1,1.34-1c.91,0,1.34.81,1.34,1.62a3.56,3.56,0,0,1-1.05,2.2l-1.9,2.12c-.11.11-.11.13-.11.37h3.68l.28-1.73h-.25a3.29,3.29,0,0,1-.22.89,3.63,3.63,0,0,1-.94.07h-1.79" transform="translate(-23.05 -6.8)"/><line class="cls-6" x1="247.3" y1="287.45" x2="260.58" y2="287.45"/><path d="M275.76,302l1.05-1c1.55-1.37,2.15-1.91,2.15-2.9a2,2,0,0,0-2.11-1.93A1.83,1.83,0,0,0,275,298a.51.51,0,0,0,.52.56A.52.52,0,0,0,276,298a.5.5,0,0,0-.53-.51h-.13a1.44,1.44,0,0,1,1.34-1c.91,0,1.34.81,1.34,1.62a3.56,3.56,0,0,1-1.05,2.2l-1.9,2.12c-.11.11-.11.13-.11.37h3.68l.28-1.73h-.25a3.29,3.29,0,0,1-.22.89,3.63,3.63,0,0,1-.94.07h-1.79" transform="translate(-23.05 -6.8)"/><path d="M287.6,297.86c0-.84-.27-1.45-.86-1.45a.68.68,0,0,0-.69.69.69.69,0,0,0,.7.7.65.65,0,0,0,.48-.19s0,0,.06,0a1,1,0,0,1,0,.28,3.4,3.4,0,0,1-.92,2.34c-.15.17-.15.2-.15.23a.15.15,0,0,0,.14.14,3.46,3.46,0,0,0,1.22-2.71" transform="translate(-23.05 -6.8)"/><path d="M300.57,294.5c.24,0,.5,0,.5-.29s-.26-.29-.5-.29h-7.78c-.24,0-.5,0-.5.29s.26.29.5.29h7.78" transform="translate(-23.05 -6.8)"/><path d="M307.36,292.29l-1.74-3.86c-.07-.16-.12-.16-.15-.16s-.06,0-.17.08l-.95.72c-.13.09-.13.12-.13.15a.11.11,0,0,0,.1.11,1.34,1.34,0,0,0,.34-.22l.32-.23,2,4.3c.07.16.12.16.2.16s.18-.06.25-.2l4.51-9.34a.44.44,0,0,0,.07-.2.2.2,0,0,0-.2-.2c-.08,0-.15.05-.22.21l-4.19,8.68" transform="translate(-23.05 -6.8)"/><line class="cls-5" x1="288.72" y1="276.83" x2="293.7" y2="276.83"/><path d="M313.06,291.33l1.05-1c1.55-1.37,2.15-1.91,2.15-2.9a2,2,0,0,0-2.11-1.93,1.83,1.83,0,0,0-1.85,1.8.51.51,0,0,0,.52.56.52.52,0,0,0,.52-.53.5.5,0,0,0-.53-.51h-.13a1.44,1.44,0,0,1,1.34-1c.91,0,1.34.81,1.34,1.62a3.56,3.56,0,0,1-1.05,2.2l-1.9,2.12c-.11.11-.11.13-.11.37H316l.28-1.73H316a3.29,3.29,0,0,1-.22.89,3.63,3.63,0,0,1-.94.07h-1.79" transform="translate(-23.05 -6.8)"/><line class="cls-6" x1="280.42" y1="287.45" x2="293.71" y2="287.45"/><path d="M308.86,302l1.05-1c1.55-1.37,2.15-1.91,2.15-2.9a2,2,0,0,0-2.11-1.93,1.83,1.83,0,0,0-1.85,1.8.51.51,0,0,0,.52.56.52.52,0,0,0,.52-.53.5.5,0,0,0-.53-.51h-.13a1.44,1.44,0,0,1,1.34-1c.91,0,1.34.81,1.34,1.62a3.56,3.56,0,0,1-1.05,2.2l-1.9,2.12c-.11.11-.11.13-.11.37h3.68l.28-1.73h-.25a3.29,3.29,0,0,1-.22.89,3.63,3.63,0,0,1-.94.07h-1.79" transform="translate(-23.05 -6.8)"/><path d="M322,294.22a10.62,10.62,0,0,0-.95-4.54,6.17,6.17,0,0,0-2.18-2.66.12.12,0,0,0-.13.12s0,.07.24.32c1.44,1.45,2.24,3.82,2.24,6.75s-.67,5.19-2.34,6.88c-.14.13-.14.16-.14.2a.12.12,0,0,0,.13.12,6.08,6.08,0,0,0,2.07-2.45,10.34,10.34,0,0,0,1.06-4.74" transform="translate(-23.05 -6.8)"/><path d="M243.17,323.89s0-.07-.25-.31c-1.43-1.46-2.24-3.83-2.24-6.76a9.51,9.51,0,0,1,2.34-6.88c.15-.13.15-.16.15-.2a.12.12,0,0,0-.13-.12,6,6,0,0,0-2.07,2.45,10.26,10.26,0,0,0-1.06,4.75,10.57,10.57,0,0,0,1,4.53A6.1,6.1,0,0,0,243,324a.12.12,0,0,0,.13-.12" transform="translate(-23.05 -6.8)"/><path d="M248,308.34c0-.24,0-.26-.23-.26a2.44,2.44,0,0,1-1.81.64V309a3,3,0,0,0,1.31-.26v5.15c0,.35,0,.47-.93.47H246v.31c.35,0,1.22,0,1.61,0s1.26,0,1.61,0v-.31h-.32c-.89,0-.92-.11-.92-.47v-5.58" transform="translate(-23.05 -6.8)"/><line class="cls-6" x1="222.09" y1="309.98" x2="227.07" y2="309.98"/><path d="M246.36,324.53l1-1c1.55-1.37,2.15-1.91,2.15-2.9a2,2,0,0,0-2.11-1.93,1.83,1.83,0,0,0-1.85,1.8.51.51,0,0,0,.52.56.52.52,0,0,0,.52-.53.5.5,0,0,0-.53-.51H246a1.44,1.44,0,0,1,1.34-1c.91,0,1.34.81,1.34,1.62a3.56,3.56,0,0,1-1,2.2l-1.9,2.12c-.11.11-.11.13-.11.37h3.68l.28-1.73h-.25a3.29,3.29,0,0,1-.22.89,3.63,3.63,0,0,1-.94.07h-1.79" transform="translate(-23.05 -6.8)"/><path d="M254.1,320.46c0-.84-.27-1.45-.86-1.45a.68.68,0,0,0-.69.69.69.69,0,0,0,.7.7.65.65,0,0,0,.48-.19s0,0,.06,0a1,1,0,0,1,0,.28,3.4,3.4,0,0,1-.92,2.34c-.15.17-.15.2-.15.23a.15.15,0,0,0,.14.14,3.46,3.46,0,0,0,1.22-2.71" transform="translate(-23.05 -6.8)"/><path d="M267.07,317.1c.24,0,.5,0,.5-.29s-.26-.29-.5-.29h-7.78c-.24,0-.5,0-.5.29s.26.29.5.29h7.78" transform="translate(-23.05 -6.8)"/><path d="M273.86,314.89,272.12,311c-.07-.16-.12-.16-.15-.16s-.06,0-.17.08l-.95.72c-.13.09-.13.12-.13.15a.11.11,0,0,0,.1.11,1.34,1.34,0,0,0,.34-.22l.32-.23,2,4.3c.07.16.12.16.2.16s.18-.06.25-.2l4.51-9.34a.44.44,0,0,0,.07-.2.2.2,0,0,0-.2-.2c-.08,0-.15.05-.22.21l-4.19,8.68" transform="translate(-23.05 -6.8)"/><line class="cls-5" x1="255.22" y1="299.35" x2="260.2" y2="299.35"/><path d="M281.18,311.1a1.92,1.92,0,0,0,1.39-1.75c0-.81-.87-1.37-1.83-1.37s-1.75.6-1.75,1.35a.48.48,0,0,0,.5.52.49.49,0,0,0,.51-.5c0-.5-.47-.5-.62-.5a1.61,1.61,0,0,1,1.32-.62c.41,0,1,.22,1,1.12a2.49,2.49,0,0,1-.28,1.13,1,1,0,0,1-.89.51l-.38,0c-.08,0-.15,0-.15.12s.07.11.24.11h.43c.82,0,1.19.68,1.19,1.65,0,1.35-.69,1.64-1.13,1.64a1.83,1.83,0,0,1-1.52-.75.55.55,0,0,0,.66-.55.54.54,0,0,0-.56-.56.53.53,0,0,0-.55.58,1.81,1.81,0,0,0,2,1.56,2,2,0,0,0,2.12-1.92,1.93,1.93,0,0,0-1.66-1.8" transform="translate(-23.05 -6.8)"/><line class="cls-6" x1="246.92" y1="309.98" x2="260.2" y2="309.98"/><path d="M275.36,324.53l1.05-1c1.55-1.37,2.15-1.91,2.15-2.9a2,2,0,0,0-2.11-1.93,1.83,1.83,0,0,0-1.85,1.8.51.51,0,0,0,.52.56.52.52,0,0,0,.52-.53.5.5,0,0,0-.53-.51H275a1.44,1.44,0,0,1,1.34-1c.91,0,1.34.81,1.34,1.62a3.56,3.56,0,0,1-1.05,2.2l-1.9,2.12c-.11.11-.11.13-.11.37h3.68l.28-1.73h-.25a3.29,3.29,0,0,1-.22.89,3.63,3.63,0,0,1-.94.07h-1.79" transform="translate(-23.05 -6.8)"/><path d="M288.45,316.82a10.62,10.62,0,0,0-.95-4.54,6.17,6.17,0,0,0-2.18-2.66.12.12,0,0,0-.13.12s0,.07.24.32c1.44,1.45,2.24,3.82,2.24,6.75s-.67,5.19-2.34,6.88c-.14.13-.14.16-.14.2a.12.12,0,0,0,.13.12,6.08,6.08,0,0,0,2.07-2.45,10.34,10.34,0,0,0,1.06-4.74" transform="translate(-23.05 -6.8)"/><path d="M35.07,188.09s0-.07-.25-.31c-1.43-1.46-2.24-3.83-2.24-6.76a9.51,9.51,0,0,1,2.34-6.88c.15-.13.15-.16.15-.2s-.07-.11-.13-.11a5.94,5.94,0,0,0-2.07,2.44A10.26,10.26,0,0,0,31.81,181a10.57,10.57,0,0,0,.95,4.53,6.1,6.1,0,0,0,2.18,2.66.12.12,0,0,0,.13-.12" transform="translate(-23.05 -6.8)"/><path d="M45.27,181.3c.24,0,.5,0,.5-.29s-.26-.29-.5-.29H37.49c-.24,0-.5,0-.5.29s.26.29.5.29h7.78" transform="translate(-23.05 -6.8)"/><path d="M51.14,175.39c0-.33,0-.34-.29-.34a3.2,3.2,0,0,1-2.54.92v.41a4.12,4.12,0,0,0,1.83-.37v7.48c0,.52,0,.69-1.3.69h-.45v.42c.39,0,1.78,0,2.26,0s1.85,0,2.24,0v-.42h-.45c-1.26,0-1.3-.17-1.3-.69v-8.1" transform="translate(-23.05 -6.8)"/><path d="M56.8,184.66c0-.83-.27-1.45-.86-1.45a.68.68,0,0,0-.69.69.69.69,0,0,0,.7.7.65.65,0,0,0,.48-.19s0,0,.06,0a1,1,0,0,1,0,.28,3.4,3.4,0,0,1-.92,2.34c-.15.17-.15.2-.15.23a.15.15,0,0,0,.14.14,3.46,3.46,0,0,0,1.22-2.71" transform="translate(-23.05 -6.8)"/><path d="M63.8,184.61c-.46,0-1.39-.25-1.66-1.82a17.46,17.46,0,0,1-.16-3,12.58,12.58,0,0,1,.23-3.09,1.63,1.63,0,0,1,3.25.16,15.17,15.17,0,0,1,.18,2.93,18.67,18.67,0,0,1-.15,2.93c-.28,1.58-1.18,1.85-1.69,1.85M66.74,180a8,8,0,0,0-.59-3.45,2.57,2.57,0,0,0-4.72.11,7.62,7.62,0,0,0-.54,3.34,7.24,7.24,0,0,0,.62,3.47,2.55,2.55,0,0,0,2.29,1.43,2.57,2.57,0,0,0,2.39-1.58A8,8,0,0,0,66.74,180Z" transform="translate(-23.05 -6.8)"/><path d="M71.35,181a10.62,10.62,0,0,0-.95-4.54,6.11,6.11,0,0,0-2.18-2.65c-.06,0-.13,0-.13.11s0,.07.24.32c1.44,1.45,2.24,3.82,2.24,6.75s-.67,5.19-2.34,6.88c-.14.13-.14.16-.14.2a.12.12,0,0,0,.13.12,6.08,6.08,0,0,0,2.07-2.45A10.34,10.34,0,0,0,71.35,181" transform="translate(-23.05 -6.8)"/><path d="M324.07,188.09s0-.07-.25-.31c-1.43-1.46-2.24-3.83-2.24-6.76a9.51,9.51,0,0,1,2.34-6.88c.15-.13.15-.16.15-.2s-.07-.11-.13-.11a5.94,5.94,0,0,0-2.07,2.44,10.26,10.26,0,0,0-1.06,4.75,10.57,10.57,0,0,0,.95,4.53,6.1,6.1,0,0,0,2.18,2.66.12.12,0,0,0,.13-.12" transform="translate(-23.05 -6.8)"/><path d="M329,175.39c0-.33,0-.34-.29-.34a3.22,3.22,0,0,1-2.54.92v.41a4.18,4.18,0,0,0,1.84-.37v7.48c0,.52-.05.69-1.31.69h-.45v.42c.39,0,1.78,0,2.26,0s1.85,0,2.24,0v-.42h-.44c-1.27,0-1.31-.17-1.31-.69v-8.1" transform="translate(-23.05 -6.8)"/><path d="M334.7,184.66c0-.83-.27-1.45-.86-1.45a.68.68,0,0,0-.69.69.69.69,0,0,0,.7.7.65.65,0,0,0,.48-.19s0,0,.06,0a1,1,0,0,1,0,.28,3.42,3.42,0,0,1-.91,2.34c-.16.17-.16.2-.16.23a.15.15,0,0,0,.14.14,3.43,3.43,0,0,0,1.22-2.71" transform="translate(-23.05 -6.8)"/><path d="M341.7,184.61c-.45,0-1.39-.25-1.66-1.82a17.46,17.46,0,0,1-.16-3,12.58,12.58,0,0,1,.23-3.09,1.72,1.72,0,0,1,1.59-1.41,1.75,1.75,0,0,1,1.66,1.57,15.17,15.17,0,0,1,.18,2.93,18.67,18.67,0,0,1-.15,2.93c-.28,1.58-1.18,1.85-1.69,1.85m2.94-4.61a8,8,0,0,0-.59-3.45,2.57,2.57,0,0,0-4.72.11,7.62,7.62,0,0,0-.54,3.34,7.24,7.24,0,0,0,.62,3.47,2.55,2.55,0,0,0,2.29,1.43,2.57,2.57,0,0,0,2.39-1.58A8,8,0,0,0,344.64,180Z" transform="translate(-23.05 -6.8)"/><path d="M349.25,181a10.62,10.62,0,0,0-.95-4.54,6.11,6.11,0,0,0-2.18-2.65c-.06,0-.13,0-.13.11s0,.07.24.32c1.44,1.45,2.25,3.82,2.25,6.75s-.68,5.19-2.35,6.88c-.14.13-.14.16-.14.2a.12.12,0,0,0,.13.12,6.08,6.08,0,0,0,2.07-2.45,10.34,10.34,0,0,0,1.06-4.74" transform="translate(-23.05 -6.8)"/><rect class="cls-2" x="145.75" y="317.13" width="49.07" height="20.99"/><path d="M176.77,341.49s0-.07-.25-.31c-1.43-1.46-2.24-3.83-2.24-6.76a9.51,9.51,0,0,1,2.34-6.88c.15-.13.15-.16.15-.2s-.07-.11-.13-.11a5.94,5.94,0,0,0-2.07,2.44,10.26,10.26,0,0,0-1.06,4.75,10.57,10.57,0,0,0,1,4.53,6.1,6.1,0,0,0,2.18,2.66.12.12,0,0,0,.13-.12" transform="translate(-23.05 -6.8)"/><path d="M181.1,338c-.46,0-1.39-.25-1.66-1.82a17.46,17.46,0,0,1-.16-3,12.58,12.58,0,0,1,.23-3.09,1.63,1.63,0,0,1,3.25.16,15.17,15.17,0,0,1,.18,2.93,18.67,18.67,0,0,1-.15,2.93c-.28,1.58-1.18,1.85-1.69,1.85M184,333.4a8,8,0,0,0-.59-3.45,2.57,2.57,0,0,0-4.72.11,7.62,7.62,0,0,0-.54,3.34,7.24,7.24,0,0,0,.62,3.47,2.55,2.55,0,0,0,2.29,1.43,2.59,2.59,0,0,0,2.39-1.58A8,8,0,0,0,184,333.4Z" transform="translate(-23.05 -6.8)"/><path d="M187.4,338.06c0-.83-.27-1.45-.86-1.45a.68.68,0,0,0-.69.69.69.69,0,0,0,.7.7.65.65,0,0,0,.48-.19s0,0,.06,0a1,1,0,0,1,0,.28,3.4,3.4,0,0,1-.92,2.34c-.15.17-.15.2-.15.23a.15.15,0,0,0,.14.14,3.46,3.46,0,0,0,1.22-2.71" transform="translate(-23.05 -6.8)"/><path d="M200.37,334.7c.24,0,.5,0,.5-.29s-.26-.29-.5-.29h-7.78c-.24,0-.5,0-.5.29s.26.29.5.29h7.78" transform="translate(-23.05 -6.8)"/><path d="M206.24,328.79c0-.33,0-.34-.29-.34a3.22,3.22,0,0,1-2.54.92v.41a4.12,4.12,0,0,0,1.83-.37v7.48c0,.52,0,.69-1.3.69h-.45V338c.39,0,1.78,0,2.26,0s1.85,0,2.24,0v-.42h-.45c-1.26,0-1.3-.17-1.3-.69v-8.1" transform="translate(-23.05 -6.8)"/><path d="M213.15,334.42a10.62,10.62,0,0,0-1-4.54,6.11,6.11,0,0,0-2.18-2.65c-.06,0-.13,0-.13.11s0,.07.24.32c1.44,1.45,2.25,3.82,2.25,6.75s-.68,5.19-2.35,6.88c-.14.13-.14.16-.14.2a.12.12,0,0,0,.13.12,6.08,6.08,0,0,0,2.07-2.45,10.34,10.34,0,0,0,1.06-4.74" transform="translate(-23.05 -6.8)"/><rect class="cls-2" x="151.33" y="33.66" width="37.91" height="20.99"/><path d="M182.37,58s0-.07-.25-.31c-1.43-1.46-2.24-3.83-2.24-6.76A9.51,9.51,0,0,1,182.22,44c.15-.13.15-.16.15-.2a.12.12,0,0,0-.13-.11,6,6,0,0,0-2.07,2.44,10.26,10.26,0,0,0-1.06,4.75,10.57,10.57,0,0,0,.95,4.53,6.1,6.1,0,0,0,2.18,2.66.12.12,0,0,0,.13-.12" transform="translate(-23.05 -6.8)"/><path d="M186.7,54.51c-.46,0-1.39-.25-1.66-1.82a17.46,17.46,0,0,1-.16-3,12.58,12.58,0,0,1,.23-3.09,1.72,1.72,0,0,1,1.59-1.41,1.75,1.75,0,0,1,1.66,1.57,15.17,15.17,0,0,1,.18,2.93,18.67,18.67,0,0,1-.15,2.93c-.28,1.58-1.18,1.85-1.69,1.85m2.94-4.61a7.91,7.91,0,0,0-.59-3.44,2.57,2.57,0,0,0-4.72.1,7.62,7.62,0,0,0-.54,3.34,7.24,7.24,0,0,0,.62,3.47,2.55,2.55,0,0,0,2.29,1.43,2.59,2.59,0,0,0,2.39-1.58A8,8,0,0,0,189.64,49.9Z" transform="translate(-23.05 -6.8)"/><path d="M193,54.56c0-.83-.27-1.45-.86-1.45a.68.68,0,0,0-.69.69.69.69,0,0,0,.7.7.65.65,0,0,0,.48-.19s0,0,.06,0a1,1,0,0,1,0,.28,3.4,3.4,0,0,1-.92,2.34c-.15.17-.15.2-.15.23a.15.15,0,0,0,.14.14A3.46,3.46,0,0,0,193,54.56" transform="translate(-23.05 -6.8)"/><path d="M200.64,45.29c0-.33,0-.34-.29-.34a3.2,3.2,0,0,1-2.54.92v.41a4.12,4.12,0,0,0,1.83-.37v7.48c0,.52,0,.69-1.3.69h-.45v.42c.39,0,1.78,0,2.26,0s1.85,0,2.24,0v-.42h-.45c-1.26,0-1.3-.17-1.3-.69v-8.1" transform="translate(-23.05 -6.8)"/><path d="M207.55,50.92a10.62,10.62,0,0,0-1-4.54,6,6,0,0,0-2.18-2.65.12.12,0,0,0-.13.11s0,.07.24.32c1.44,1.45,2.24,3.82,2.24,6.75s-.67,5.19-2.34,6.88c-.14.13-.14.16-.14.2a.12.12,0,0,0,.13.12,6.08,6.08,0,0,0,2.07-2.45,10.34,10.34,0,0,0,1.06-4.74" transform="translate(-23.05 -6.8)"/></svg>