<svg id="Layer_1" data-name="Layer 1" xmlns="http://www.w3.org/2000/svg" viewBox="0 0 199.22 109.47"><defs><style>.cls-1,.cls-2{fill:none;stroke-linecap:round;stroke-miterlimit:10;stroke-width:0.8px;}.cls-1{stroke:#ff8000;stroke-dasharray:2.99 2.99;}.cls-2{stroke:#000;}</style></defs><title>CosAndSin.15</title><line class="cls-1" x1="0.4" y1="9.85" x2="198.83" y2="9.85"/><line class="cls-2" x1="99.61" y1="109.07" x2="198.83" y2="9.85"/><line class="cls-2" x1="99.61" y1="109.07" x2="0.4" y2="9.85"/><path d="M103.84,97l2.89-4.83.49,4.83Zm-1.72,2.21a1.94,1.94,0,0,1-1.68,1.18c-.16,0-.27,0-.27.27,0,.09.07.14.17.14l1.16,0,1.28,0c.09,0,.26,0,.26-.27s-.12-.14-.2-.14c-.33,0-.6-.15-.6-.49a1.33,1.33,0,0,1,.27-.68l1.09-1.81h3.66c0,.13,0,.25,0,.38,0,.37.22,1.86.22,2.14,0,.43-.74.46-1,.46s-.31,0-.31.26.13.15.21.15l.78,0H108c.88,0,1.51,0,1.52,0s.26,0,.26-.27-.13-.14-.35-.14c-.78,0-.8-.13-.84-.56l-.88-9c0-.28-.08-.31-.24-.31s-.23,0-.36.24Z" transform="translate(-5.3 -5.18)"/><path d="M106.52,6.13a1.42,1.42,0,0,0-1.29-1c-1.63,0-3.38,2.1-3.38,4.22,0,1.43.84,2.26,1.81,2.26a2.7,2.7,0,0,0,1.87-1.09,1.25,1.25,0,0,0,1.25,1.09,1.15,1.15,0,0,0,1-.78,7.25,7.25,0,0,0,.43-1.42.13.13,0,0,0-.14-.13c-.13,0-.14.07-.2.29-.21.85-.49,1.75-1.08,1.75-.41,0-.44-.37-.44-.66a4,4,0,0,1,.17-1.05c.1-.36.17-.67.29-1.09.53-2.16.66-2.67.66-2.76a.36.36,0,0,0-.38-.36c-.45,0-.57.51-.6.68m-.92,3.68a1.19,1.19,0,0,1-.27.54,2.42,2.42,0,0,1-1.62,1c-.59,0-.92-.53-.92-1.38a10.38,10.38,0,0,1,.71-3c.49-1,1.17-1.52,1.73-1.52,1,0,1.13,1.17,1.13,1.29s0,.2,0,.23Z" transform="translate(-5.3 -5.18)"/></svg>